<?xml version="1.0" ?><!DOCTYPE svg  PUBLIC '-//W3C//DTD SVG 1.1//EN'  'http://www.w3.org/Graphics/SVG/1.1/DTD/svg11.dtd'><svg height="512px" style="enable-background:new 0 0 512 512;" version="1.1" viewBox="0 0 512 512" width="512px" xml:space="preserve" xmlns="http://www.w3.org/2000/svg" xmlns:xlink="http://www.w3.org/1999/xlink"><g id="social__x2C__media__x2C__social_media__x2C___vimeo__x2C_"><polygon points="473.538,368.68 495.666,370.415 483.918,371.838 467.663,372.767 478.503,374.712    470.052,375.647 494.862,379.067 461.866,377.675 474.811,380.375 478.402,382.29 486.677,384.95 479.592,385.535 472.813,385.979    465.811,386.206 497.805,393.735 496.971,395.422 489.162,395.52 491.248,397.762 466.075,393.232 465.147,394.42 461.735,394.871    475.667,400.367 473.344,401.248 472.611,402.59 487.991,409.407 465.893,403.373 474.478,408.077 454.766,402.098    481.271,414.153 454.043,404.541 484.949,419.376 486.479,421.99 487.651,424.495 457.333,411.771 466.396,417.839    483.351,428.344 461.213,418.457 455.346,416.842 473.421,428.773 470.271,428.829 480.676,437.073 447.762,418.494    454.994,424.708 455.623,426.823 452.698,426.548 462.629,435.3 460.543,435.731 461.878,438.681 469.05,446.224 461.365,442.345    455.612,439.747 442.856,431.048 461.658,449.023 456.502,446.7 465.615,457.178 435.934,431.854 446.862,444.117 440.978,440.4    433.771,435.077 440.841,444.294 441.146,446.715 440.52,448.196 438.125,447.703 444.639,457.498 433.025,446.11 446.768,465.188    426.033,441.705 432.798,452.598 438.436,462.548 430.741,454.681 438.822,468.641 429.94,458.648 429.398,460.525    431.578,466.672 428.38,464.571 432.494,474.301 432.179,477.077 426.936,471.389 415.063,453.288 416.131,458.063    415.157,459.214 424.127,480.218 417.692,470.824 409.099,456.113 408.685,458.386 406.433,456.594 410.394,469.435    410.887,474.655 410.754,478.632 402.356,460.616 409.7,485.311 404.735,475.938 401.301,470.36 401.217,475.033 405.076,493.521    398.62,477.04 394.414,467.154 398.322,488.491 391.139,465.371 388.504,459.742 390,473.279 386.048,460.464 390.778,494.255    389.25,495.695 384.59,476.525 382.498,472.199 383.186,489.626 380.412,479.471 377.721,467.243 378.766,496.996 376.473,489.005    374.284,478.914 372.372,468.922 371.647,493.266 369.678,473.663 368.246,497.287 366.719,485.447 365.191,496.393    363.664,466.422 362.137,461.535 360.609,490.563 359.082,465.509 357.555,494.028 356.027,495.196 354.499,486.55    352.971,465.214 351.442,488.788 349.914,465.542 348.385,478.5 346.854,465.769 345.325,466.836 343.797,496.77 342.268,470.279    340.739,461.988 339.211,498.433 337.683,479.949 336.155,488.309 334.627,472.139 333.1,486.781 331.571,471.21 330.044,499.468    328.516,478.186 326.987,471.609 325.459,489.354 323.931,469.408 322.402,468.607 320.874,473.761 319.345,484.179    317.815,467.506 316.287,485.045 314.759,477.06 313.231,466.76 311.705,464.684 310.179,474.017 308.653,483.68 307.128,492.937    305.604,490.399 304.079,484.98 302.555,479.291 301.03,491.233 299.506,475.01 297.982,495.958 296.458,484.219 294.934,466.509    293.409,483.782 291.884,487.992 290.359,486.861 288.833,470.547 287.308,468.788 285.78,489.688 284.253,475.628    282.725,470.844 281.196,484.951 279.666,493.07 278.135,485.651 276.605,468.856 275.076,496.473 273.547,482.029 272.02,476.497    270.492,478.958 268.965,479.904 267.438,474.595 265.911,477.157 264.385,479.338 262.858,470.108 261.332,500.279    259.805,494.547 258.277,466.104 256.75,495.364 255.221,493.755 253.692,461.768 252.162,481.854 250.63,487.855 249.099,466.11    247.569,482.399 246.04,469.925 244.511,475.812 242.982,494.939 241.454,487.04 239.926,465.611 238.398,463.524 236.869,494.49    235.34,478.371 233.811,495.599 232.28,465.52 230.748,467.16 229.216,480.988 227.686,496.813 226.156,461.107 224.626,477.568    223.097,492.244 221.567,466.01 220.038,495.582 218.507,490.445 216.976,470.36 215.444,471.308 213.912,494.308 212.381,473.603    210.851,496.053 209.321,496.901 207.791,495.944 206.259,467.246 204.727,463.922 203.195,472.264 201.663,471.068    200.132,500.848 198.602,479.865 197.07,497.023 195.537,472.435 194.005,498.854 192.479,480.739 190.95,492.81 189.419,483.114    187.886,496.476 186.355,492.56 184.826,493.297 183.297,468.799 181.769,466.796 180.239,483.45 178.707,483.698 177.173,480.471    175.642,480.471 174.111,467.611 172.58,480.97 171.046,473.729 169.513,499.244 167.98,496.56 166.447,485.96 164.912,490.999    163.379,484.545 161.844,473.872 160.31,478.77 158.774,472.891 157.243,482.421 155.711,469.711 154.175,488.561 152.641,464.933    151.105,486.038 149.568,471.351 148.032,469.063 146.493,485.964 144.952,497.013 143.41,485.974 141.731,491.042    140.784,464.366 139.375,466.745 136.675,491.812 136.959,462.795 135.21,468.334 130.927,498.977 131.787,474.49 128.387,490.335    128.512,476.965 127.145,476.021 124.342,483.915 121.846,488.823 122.272,477.777 118.939,486.402 120.995,469.463    118.26,474.933 111.387,496.23 118.684,461.717 116.053,466.2 112.895,472.036 112.433,468.551 109.75,472.194 101.312,492.414    110.076,462.39 106.062,469.317 107.277,462.098 106.358,460.707 100.974,470.079 101.024,466.195 102.585,459.201 97.509,466.856    99.008,460.37 97.772,459.729 83.879,483.502 97.08,455.127 82.169,479.283 95.467,452.55 89.722,459.686 88.477,458.96    77.622,473.541 92.035,448.14 73.032,474.332 77.639,464.554 82.974,454.246 74.735,463.148 83.574,448.676 82.347,448.03    78.805,450.295 68.058,461.246 79.794,444.692 82.251,439.741 65.808,456.414 61.673,458.585 59.243,458.759 59.861,455.683    51.503,461.82 66.24,444.752 50.427,457.906 49.884,455.992 68.906,436.329 71.734,431.973 50.305,448.721 69.936,430.072    62.729,434.269 47.649,444.404 52.253,438.758 67.765,425.175 44.368,440.617 48.381,435.73 50.619,432.264 37.668,439.069    40.197,435.354 38.639,434.357 44.338,428.899 63.522,415.716 30.712,433.063 38.381,426.777 55.242,415.856 48.194,417.979    36.922,422.01 54.812,411.52 53.871,410.477 36.629,416.787 46.67,410.674 56.097,405.158 52.631,405.171 28.112,413.227    55.272,401.345 31.807,408.33 55.177,398.671 36.441,403.424 40.608,400.526 51.028,395.92 47.237,395.619 21.385,401.065    25.646,398.221 34.33,394.468 35.966,392.538 50.486,387.996 30.364,390.559 13.751,391.926 42.082,385.445 43.239,383.857    29.191,384.375 45.627,380.774 38.299,380.217 46.177,378.021 26.073,378.312 38.712,375.85 11.513,375.882 34.176,373.162    21.071,372.022 16.144,370.414 32.625,368.68 41.498,367.153 12.329,365.627 33.865,364.102 29.058,362.575 34.952,361.049    43.544,359.522 20.694,357.996 19.548,356.47 31.03,354.942 46.399,353.416 37.816,351.889 30.674,350.36 20.626,348.833    45.424,347.304 29.807,345.776 12.739,344.248 45.124,342.721 34.783,341.193 41.718,339.666 14.542,338.14 27.821,336.612    15.657,335.086 15.765,333.559 15.552,332.032 24.342,330.506 22.917,328.979 21.389,327.452 34.269,325.925 15.764,324.398    29.839,322.872 32.408,321.345 31.492,319.816 28.254,318.288 39.631,316.761 25.05,315.234 27.279,313.708 22.917,312.183    12.497,310.657 30.577,309.133 30.306,307.609 19.646,306.085 16.994,304.562 36.284,303.038 38.419,301.516 18.693,299.992    14.448,298.47 48.592,296.946 29.087,295.423 23.739,293.899 25.153,292.376 12.01,290.853 38.545,289.327 50.177,287.803    45.135,286.277 17.712,284.751 48.351,283.224 22.408,281.695 22.185,280.167 15.452,278.637 18.115,277.108 43.842,275.58    19.972,274.053 22.616,272.525 23.149,271 23.404,269.474 38.928,267.948 44.107,266.423 35.79,264.897 22.269,263.372    22.69,261.847 16.86,260.32 29.148,258.794 24.572,257.268 38.838,255.74 32.708,254.211 22.019,252.682 15.87,251.152    42.678,249.622 33.353,248.093 23.728,246.565 33.067,245.037 12.825,243.51 31.205,241.983 17.636,240.456 29.598,238.929    27.33,237.401 49.823,235.874 22.079,234.345 19.574,232.815 29.102,231.285 37.722,229.754 47.461,228.225 24.674,226.696    49.384,225.167 29.283,223.639 28.291,222.111 47.526,220.582 38.019,219.053 46.532,217.523 28.879,215.991 35.302,214.461    29.269,212.931 15.508,211.402 41.452,209.873 17.324,208.344 31.92,206.813 31.024,205.283 35.447,203.751 20.385,202.221    12.448,200.691 43.498,199.161 16.731,197.631 25.56,196.1 39.976,194.568 21.672,193.043 35.481,191.516 50.254,189.986    41.767,188.454 24.938,186.924 21.49,185.396 19.227,183.869 38.034,182.341 39.006,180.813 25.653,179.282 28.369,177.749    24.784,176.219 48.692,174.689 26.362,173.159 24.941,171.626 13.458,170.094 41.574,168.563 39.583,167.031 28.06,165.497    36.129,163.965 16.241,162.431 11.348,160.898 33.165,159.363 24.98,157.833 48.917,156.303 31.429,154.768 44.225,153.235    14.842,151.7 12.176,150.164 26.917,148.629 17.419,147.091 17.53,145.551 39.539,144.011 34.501,142.522 40.1,141.183    16.817,138.833 49.793,138.878 50.309,137.624 48.821,136.228 32.596,133.382 24.57,130.979 35.603,130.688 49.658,131.102    22.986,125.789 32.362,125.644 37.234,124.949 25.892,121.268 52.476,125.095 15.328,115.57 42.451,120.131 53.116,121.346    20.166,111.287 46.243,116.783 45.852,115.229 17.012,104.836 40.767,110.658 43.422,110.007 28.46,103.15 30.604,102.169    37.319,103.007 34.738,100.292 40.471,100.96 56.423,106.237 53.821,103.656 44.879,97.979 28.563,88.406 60.493,102.501    59.736,100.685 38.416,87.765 44.295,89.171 52.136,91.88 39.815,82.93 64.104,95.827 35.245,76.171 59.509,89.826 60.762,89.021    57.783,85.328 53.059,80.244 40.122,68.952 47.26,72.124 57.681,78.091 46.432,67.283 59.853,76.047 56.462,71.286 58.63,71.111    61.6,71.701 62.388,70.401 60.358,66.455 70.929,74.46 66.747,68.401 54.344,53.719 75.681,73.475 77.283,73.23 79.165,73.324    63.535,53.671 57.296,43.896 83.948,72.932 77.788,63.363 65.353,45.357 83.412,66.029 83.298,63.623 84.198,62.523 74.13,45.881    69.011,35.513 81.302,50.73 91.679,63.961 74.651,34.367 82.026,43.088 76.878,31.19 89.061,48.896 91.648,50.481 92.065,48.165    96.361,53.232 92.173,41.753 98.969,52.211 94.825,40.048 98.605,44.622 105.864,57.601 106.639,56.12 105.818,50.599    107.274,50.542 108.558,50.086 111.364,53.918 103.632,27.075 107.509,33.55 115.748,54.826 110.604,32.828 113.661,37.892    113.026,29.605 114.323,28.115 119.57,43.296 120.676,41.74 121.056,36.505 125.127,49.765 121.931,24.312 124.493,29.673    123.727,13.901 127.985,31.861 131.341,46.586 130.684,28.056 133.579,41.702 132.758,14.152 135.355,26.29 136.46,16.867    138.119,14.904 139.924,16.258 142.107,49.183 143.41,51.257 144.938,16.268 146.465,26.422 147.992,24.613 149.519,18.739    151.046,31.901 152.574,32.313 154.102,24.383 155.629,39.266 157.157,37.27 158.686,12.767 160.214,14.46 161.743,17.292    163.272,29.358 164.801,27.341 166.331,21.169 167.86,33.983 169.388,38.257 170.917,43.456 172.445,36.597 173.973,48.873    175.501,12.21 177.029,39.745 178.557,26.725 180.084,39.596 181.612,49.787 183.14,24.336 184.668,26.06 186.197,48.404    187.726,32.895 189.253,26.795 190.782,42.483 192.312,24.227 193.841,14.42 195.369,22.501 196.897,36.102 198.424,49.046    199.951,14.213 201.477,48.183 203.002,15.822 204.528,37.288 206.053,17.193 207.577,27.384 209.102,37.414 210.626,17.043    212.15,27.305 213.674,44.605 215.198,26.799 216.723,41.813 218.247,51.089 219.772,26.849 221.297,12.34 222.823,41.563    224.349,24.61 225.875,51.365 227.403,49.854 228.931,21.813 230.46,37.5 231.99,38.288 233.521,24.103 235.051,39.54    236.58,27.847 238.109,46.967 239.637,50.538 241.164,44.61 242.691,21.705 244.218,14.71 245.745,21.011 247.271,15.522    248.797,50.967 250.324,36.703 251.851,17.229 253.378,38.189 254.906,23.329 256.435,25.843 257.965,15.689 259.495,36.517    261.026,38.136 262.558,51.255 264.087,47.854 265.616,43.534 267.146,21.819 268.674,34.219 270.202,39.293 271.73,41.824    273.259,16.7 274.787,20.281 276.316,51.596 277.846,21.98 279.377,36.91 280.908,26.271 282.439,30.724 283.971,47.894    285.5,25.151 287.03,41.012 288.56,25.632 290.089,17.55 291.618,24.092 293.148,18.43 294.68,20.854 296.213,28.159    297.744,16.096 299.275,41.851 300.806,26.834 302.336,34.301 303.866,25.082 305.397,18.212 306.929,11.739 308.462,27.888    309.993,14.226 311.523,40.955 313.055,38.5 314.586,28.668 316.119,13.291 317.651,20.32 319.178,30.844 320.706,34.021    322.236,49.292 323.771,39.84 325.301,12.06 326.83,16.809 328.358,34.293 329.888,37.73 331.417,40.253 332.949,40.016    334.483,24.058 336.015,31.969 337.545,43.813 339.076,16.944 340.61,41.295 342.144,47.79 343.676,20.895 345.209,25.696    346.744,37.287 348.277,46.348 349.813,46.623 351.347,26.709 352.882,25.604 354.413,13.309 355.944,31.764 357.48,12.088    359.015,41.698 360.551,26.114 362.089,36.661 363.624,35.486 365.163,42.094 366.704,18.658 368.246,44.13 369.786,31.281    371.176,36.98 373.237,22.244 374.201,35.265 375.911,32.013 375.995,49.993 378.114,41.322 380.604,31.427 379.655,51.905    382.76,38.542 386.563,22.986 387.692,26.449 385.69,46.975 386.762,48.539 390.314,37.915 392.955,32.833 397.796,19.04    399.424,19.795 402.215,16.069 395.72,46.072 401.875,30.07 404.445,27.245 406.998,24.804 406.37,31.984 403.52,44.841    411.257,28.107 406.538,45.005 405.607,51.202 411.888,39.73 410.292,47.272 418.636,32.287 412.296,49.788 415.587,46.256    420.269,40.232 426.252,32.143 422.908,42.021 427.841,36.388 431.376,33.582 419.79,56.627 420.213,58.608 431.229,43.618    439.716,33.47 431.185,49.521 442.747,35.417 431.482,54.477 424.854,66.139 434.341,55.654 430.864,62.648 436.432,57.868    441.919,53.503 436.286,62.721 446.919,52.576 431.554,72.445 435.337,70.231 438.804,68.511 435.271,74.228 450.866,60.297    453.713,59.743 438.855,76.292 454.578,63.419 451.933,68.008 441.132,79.639 462.455,63.018 445.623,79.336 451.214,76.557    446.424,82.22 468.871,66.631 465.136,71.601 462.494,75.565 466.898,74.397 446.988,90.09 466.729,78.471 476.006,74.385    465.665,82.958 476.046,78.477 480.692,77.726 455.114,94.432 454.771,96.19 484.449,81.768 468.59,92.042 473.518,91.289    461.66,98.83 458.553,101.847 460.295,102.564 460.261,104.074 466.527,102.933 460.76,106.83 489.659,97.098 463.821,108.59    485.307,102.419 467.066,110.413 475.186,109.276 486.795,107.287 482.815,110.228 465.216,116.841 486.233,112.7 492.769,112.771    467.507,120.542 481.826,118.795 495.11,117.674 487.001,121.034 480.157,123.931 487.299,124.329 485.817,126.217    487.709,127.596 489.521,129.04 469.828,132.852 472.334,134.019 488.688,134.124 478.207,136.486 491.65,137.273 472.684,139.72    466.394,141.317 474.697,142.559 463.751,144.011 473.839,145.537 465.106,147.063 492.602,148.589 478.738,150.115    485.45,151.642 490.363,153.168 483.225,154.694 486.471,156.221 478.246,157.748 481.062,159.275 468.615,160.802 471.58,162.33    463.677,163.858 492.994,165.386 481.723,166.915 475.294,168.442 470.857,169.97 484.173,171.497 479.231,173.024    462.164,174.551 476.945,176.078 473.304,177.604 493.547,179.131 493.109,180.658 487.278,182.185 462.722,183.711    470.165,185.239 486.056,186.766 461.533,188.293 497.037,189.82 496.676,191.348 465.382,192.876 482.155,194.404 488.71,195.932    469.662,197.458 461.475,198.984 461.283,200.51 461.857,202.035 465.749,203.559 481.571,205.083 462.467,206.607 485.501,208.13    463.023,209.653 473.216,211.177 493.381,212.7 467.506,214.223 479.11,215.746 461.525,217.269 485.805,218.792 480.496,220.316    492.136,221.84 461.543,223.364 479.135,224.889 470.951,226.415 490.824,227.941 466.904,229.468 483.646,230.996    462.775,232.525 500.002,234.055 476.103,235.583 479.768,237.112 466.552,238.639 487.718,240.166 497.566,241.692    469.644,243.218 485.764,244.744 480.277,246.269 494.824,247.794 477.186,249.32 471.21,250.845 471.405,252.371 492.988,253.897    492.907,255.424 494.88,256.952 491.799,258.48 487.83,260.009 499.767,261.539 474.526,263.069 465.324,264.599 498.668,266.127    496.277,267.654 480.197,269.182 498.111,270.709 486.345,272.235 493.137,273.763 473.961,275.29 466.765,276.818    477.527,278.347 479.613,279.876 474.098,281.407 472.003,282.938 496.593,284.467 495.958,285.996 474.985,287.524 463.9,289.053    486.326,290.58 488.073,292.109 473.934,293.639 485.043,295.169 498.716,296.7 480.705,298.23 496.24,299.76 477.819,301.289    497.059,302.818 465.392,304.348 489.674,305.878 462.097,307.408 490.665,308.939 499.444,310.47 499.688,312 469.555,313.53    463.365,315.061 492.168,316.592 476.566,318.123 480.876,319.648 497.122,321.176 494.622,322.705 485.779,324.237    472.119,325.767 471.942,327.295 489.137,328.822 472.796,330.35 496.453,331.878 463.396,333.409 494.841,334.941    473.597,336.472 467.536,338.002 498.94,339.531 465.46,341.064 462.136,342.597 490.803,344.128 474.331,345.66 475.639,347.193    486.019,348.726 488.865,350.26 491.371,351.793 472.005,353.327 481.611,354.857 487.331,356.388 498.216,357.923    485.277,359.455 499.876,360.99 467.238,362.526 493.525,364.062 499.62,365.599 486.014,379.513  " style="fill:#00B2DE;"/><g><path d="M260.732,288.669c-7.832,0-13.87-20.35-22.835-55.944c-9.277-36.806-9.222-103.104-47.792-95.588    c-36.375,7.094-84.167,63.738-84.167,63.738l11.399,14.865c0,0,23.548-18.412,31.397-9.215    c7.85,9.215,37.802,120.377,47.792,140.892c8.747,18.01,32.807,41.797,59.21,24.792c26.403-16.985,114.138-91.328,129.837-179.123    c15.699-87.781-105.594-69.406-118.42,7.076c32.093-19.144,49.238,7.789,32.808,38.232    C283.566,268.831,268.582,288.669,260.732,288.669z" style="fill:#FFFFFF;"/></g></g><g id="Layer_1"/></svg>