<?xml version="1.0" ?><!DOCTYPE svg  PUBLIC '-//W3C//DTD SVG 1.1//EN'  'http://www.w3.org/Graphics/SVG/1.1/DTD/svg11.dtd'><svg height="512px" style="enable-background:new 0 0 512 512;" version="1.1" viewBox="0 0 512 512" width="512px" xml:space="preserve" xmlns="http://www.w3.org/2000/svg" xmlns:xlink="http://www.w3.org/1999/xlink"><g id="social__x2C__media__x2C__social_media__x2C___youtube__x2C_"><polygon points="485.501,368.662 479.625,370.184 497.274,372.178 495.743,373.876 489.852,375.302    475.449,375.997 465.938,376.696 479.629,379.346 470.772,379.922 495.413,384.364 478.498,383.818 486.598,386.574    483.36,387.699 460.326,385.194 475.995,389.526 463.873,388.559 488.482,395.366 475.538,394.042 483.369,397.556    462.188,393.615 462.272,395.023 467.618,397.979 482.705,404.137 474.46,403.18 456.963,398.835 469.838,404.773 480.129,410.164    479.774,411.78 488.198,416.937 474.131,412.952 485.752,419.731 481.587,419.768 459.368,411.224 478.896,422.236    467.219,418.246 477.084,425.072 465.005,420.484 479.873,430.462 453.953,417.607 464.538,425.434 448.146,417.222    447.615,418.396 473.654,436.795 458.54,428.767 448.881,423.926 476.369,445.02 447.642,426.313 471.239,445.691 467.861,445.304    464.638,444.928 447.753,433.336 445.758,433.491 447.554,436.861 458.579,448.538 441.309,435.033 445.313,440.637    439.186,436.752 448.223,447.558 439.976,441.374 441.595,445.08 444.173,449.965 436.373,443.639 452.254,463.694 454.081,468.47    451.752,468.484 444.779,462.734 434.947,452.986 438.719,460.296 434.289,457.008 440.301,467.837 435.26,463.604    426.426,453.528 430.25,461.81 439.12,478.344 437.316,478.828 430.414,470.9 415.519,448.845 416.778,453.652 419.622,461.519    412.601,451.487 426.18,480.491 427.213,486.36 411.885,458.857 418.998,477.297 409.999,461.299 415.01,476.344 408.667,465.321    404.168,457.94 415.382,490.619 403.078,462.581 402.896,466.145 403.835,473.316 400.898,469.172 405.117,487.704    395.853,462.195 400.748,484.698 396.582,475.395 391.429,460.986 396.062,486.352 390.65,469.509 389.587,471.339    390.587,484.125 389.465,486.975 385.303,471.776 387.564,496.504 384.971,490.441 382.364,483.012 381.063,485.612    377.382,463.814 377.682,483.723 376.239,485.762 374.016,474.206 373.598,499.914 371.658,494.307 369.616,469.824    368.229,464.547 366.701,471.776 365.174,498.342 363.646,474.293 362.119,467.463 360.592,493.566 359.064,464.487    357.537,490.343 356.01,471.995 354.481,487.242 352.953,469.308 351.425,490.507 349.896,467.155 348.366,480.607 346.837,483.21    345.308,497.088 343.778,462.128 342.25,469.7 340.722,487.596 339.193,485.125 337.665,495.758 336.138,491.483 334.609,484.567    333.082,496.357 331.554,486.756 330.026,493.156 328.498,500.438 326.97,480.463 325.441,475.857 323.913,484.37 322.385,464.333    320.856,479.813 319.327,471.17 317.798,478.588 316.27,463.121 314.741,473.979 313.214,487.985 311.688,469.813 310.161,493.912    308.636,500.278 307.11,474.297 305.586,470.987 304.062,495.393 302.537,486.554 301.013,473.26 299.488,500.256 297.964,499.24    296.44,492.508 294.916,473.86 293.392,461.384 291.866,482.859 290.342,475.767 288.815,461.043 287.29,484.569 285.763,484.7    284.235,478.983 282.707,476.533 281.178,473.878 279.648,483.402 278.117,474.192 276.587,481.609 275.058,467.592    273.529,482.021 272.002,480.686 270.474,473.094 268.947,477.675 267.42,498.579 265.894,472.661 264.367,483.782    262.841,494.653 261.314,464.189 259.787,492.875 258.26,478.583 256.732,484.111 255.203,490.026 253.674,488.562    252.144,497.607 250.612,461.104 249.081,464.35 247.551,485.877 246.021,497.463 244.493,468.688 242.964,480.876    241.436,499.103 239.908,482.001 238.38,466.855 236.851,499.715 235.322,470.86 233.792,493.768 232.262,478.105 230.73,462.148    229.198,479.607 227.667,497.408 226.138,475.904 224.608,500.474 223.079,470.625 221.549,486.267 220.02,482.29 218.489,464.175    216.958,466.793 215.425,483.456 213.894,480.864 212.363,483.69 210.833,475.371 209.302,488.612 207.772,491.428    206.241,472.986 204.708,487.047 203.176,481.616 201.645,492.5 200.114,492.22 198.583,463.492 197.051,494.507 195.519,497.99    193.986,471.729 192.46,469.707 190.932,462.855 189.401,474.252 187.868,498.606 186.336,487.351 184.808,467.846    183.279,483.776 181.75,487.078 180.221,465.354 178.688,480.293 177.155,461.779 175.623,473.994 174.093,464.055    172.562,497.887 171.027,491.936 169.494,480.623 167.962,489.081 166.429,466.86 164.894,467.482 163.36,462.031 161.825,471.255    160.291,479.397 158.756,483.999 157.224,485.296 155.693,468.777 154.157,477.953 152.623,490.036 151.087,497.781    149.549,467.905 148.014,477.814 146.475,461.915 144.933,466.763 143.392,498.415 141.615,499.075 140.645,468.878    138.362,491.516 137.305,479.897 134.493,499.103 133.062,494.664 133.716,469.383 131.638,475.691 127.483,497.596    130.395,463.063 126.99,476.922 123.321,490.021 126.095,464.879 119.878,490.131 118.712,487.374 117.397,485.652 116.576,482    111.458,495.877 117.339,466.714 113.256,476.148 112.656,472.786 110.659,474.22 112.275,464.333 102.12,489.98 102.549,483.524    106.187,468.915 104.227,469.943 102.587,470.048 103.693,463.523 91.288,488.548 89.977,487.11 91.015,480.702 95.977,466.584    84.853,485.439 87.421,476.63 82.824,481.687 79.606,483.873 96.849,450.129 95.29,450.234 88.805,458.392 77.97,472.954    78.938,468.362 87.36,452.799 80.21,460.776 78.283,460.86 68.757,471.338 67.597,469.992 69.266,464.998 61.542,472.084    79.839,446.758 59.101,469.372 71.823,451.848 69.937,451.718 68.199,451.378 75.335,441.494 72.981,441.989 69.017,444.028    66.109,444.861 71.721,437.418 55.729,450.51 67.79,437.322 48.411,452.618 43.057,454.942 62.015,436.703 60.208,436.305    40.419,450.124 65.216,428.748 52.695,436.443 58.341,430.423 50.269,434.371 66.595,421.269 38.392,438.56 57.681,424.01    63.195,418.89 42.41,430.059 35.993,431.979 43.06,425.965 28.578,432.182 44.339,421.697 48.313,417.904 55.625,412.596    48.629,414.5 55.995,409.463 25.564,421.76 27.338,419.064 42.772,410.728 51.778,405.496 34.928,410.571 23.614,413.077    29.74,409.047 48.63,400.887 45.836,400.354 34.78,402.313 35.131,400.591 46.657,395.77 50.024,393.464 31.863,396.646    23.45,397.016 37.996,392.072 38.824,390.396 39.883,388.705 35.287,388.066 33.125,386.901 20.147,387.307 35.717,383.469    23.832,383.43 24.058,381.747 22.639,380.237 45.805,376.698 22.684,376.913 19.245,375.44 49.454,372.532 23.438,371.941    14.577,370.418 32.059,368.662 44.884,367.136 47.992,365.61 25.112,364.084 39.709,362.559 39.749,361.032 18.365,359.506    39.745,357.979 32.683,356.453 18.755,354.927 28.126,353.399 36.855,351.872 12.835,350.345 32.396,348.816 30.908,347.289    49.854,345.761 18.516,344.232 17.894,342.705 25.167,341.178 32.85,339.651 36.051,338.124 12.971,336.598 47.025,335.071    43.436,333.545 36.134,332.018 26.101,330.491 39.917,328.965 36.335,327.438 33.911,325.91 46.985,324.383 49.781,322.856    21.664,321.329 11.472,319.801 21.025,318.273 14.542,316.746 41.54,315.22 41.515,313.693 31.526,312.168 36.652,310.644    38.815,309.119 50.939,307.595 33.377,306.071 47.414,304.548 31.653,303.025 43.099,301.502 21.979,299.979 31.866,298.456    27.732,296.934 17.495,295.41 21.147,293.887 42.953,292.363 11.792,290.84 45.624,289.314 13.747,287.79 13.748,286.265    40.299,284.738 21.755,283.212 38.823,281.684 36.475,280.155 16.971,278.625 27.379,277.097 18.958,275.568 37.065,274.041    22.905,272.515 28.079,270.988 21.613,269.463 34.031,267.938 15.073,266.412 41.569,264.887 38.202,263.361 30.365,261.836    46.918,260.311 15.662,258.784 24.659,257.258 47.254,255.73 24.814,254.202 34.906,252.673 47.232,251.143 28.325,249.613    34.143,248.084 14.637,246.556 37.261,245.028 43.204,243.501 48.714,241.975 21.213,240.448 38.694,238.92 39.097,237.393    17.304,235.865 17.16,234.337 12.088,232.808 49.205,231.277 21.064,229.747 50.005,228.217 38.843,226.688 26.643,225.16    15.508,223.632 43.51,222.104 29.41,220.576 12.695,219.046 50.9,217.517 50.093,215.985 19.259,214.455 48.089,212.925    44.708,211.396 43.174,209.867 36.303,208.338 16.072,206.808 39.962,205.277 28.172,203.746 23.571,202.216 26.059,200.687    23.18,199.157 30.952,197.626 40.872,196.095 46.532,194.564 35.676,193.039 22.417,191.512 29.17,189.982 36.029,188.45    11.983,186.92 18.044,185.393 41.474,183.866 40.908,182.338 39.111,180.81 11.075,179.279 23.93,177.746 28.662,176.216    30.439,174.687 18.145,173.157 50.932,171.624 45.53,170.092 27.953,168.561 16.064,167.029 17.93,165.495 27.156,163.963    46.593,162.43 48.539,160.896 15.757,159.362 11.05,157.832 34.471,156.302 41.558,154.767 30.168,153.234 39.587,151.7    22.683,150.163 46.193,148.629 30.369,147.091 22.304,145.551 38.491,144.011 47.595,142.697 50.316,141.456 46.334,140.018    15.798,137.043 19.132,135.523 46.623,136.051 43.593,134.427 35.997,132.224 39.409,131.152 16.445,126.583 23.369,125.852    14.15,122.654 32.865,124.173 38.371,123.671 18.907,118.15 41.384,121.345 30.301,117.267 44.25,119.121 37.304,115.837    25.248,110.907 30.368,110.667 19.993,105.764 43.243,111.466 26.038,104.096 38.855,106.854 37,104.55 20.987,96.687    23.557,95.794 46.938,103.674 37.435,97.982 56.982,105.082 28.617,90.367 44.748,96.27 60.662,102.591 51.781,96.55    28.645,82.522 29.098,80.741 61.978,97.525 51.046,89.577 44.637,83.951 55.318,88.807 37.787,75.751 52.629,83.595 41.551,74.169    59.171,84.579 59.703,83.224 58.512,80.568 53.705,75.032 54.467,73.664 47.532,66.012 50.612,66.396 71.833,82.494 71.075,80.099    57.018,65.523 47.346,54.295 54.253,58.447 53.494,55.322 63.472,62.995 55.104,52.024 54.554,48.886 64.615,57.319 74.481,66.067    71.033,59.879 66.589,52.203 63.62,45.965 69.078,50.082 78.645,59.834 71.668,48.084 77.776,53.706 71.287,41.879 78.802,49.812    90.664,64.801 75.926,39.624 88.278,56.11 80.362,40.382 83.327,42.144 93.275,56.29 83.273,35.388 99.397,61.871 96.793,54.079    92.451,42.335 101.934,58.344 98.368,47.656 103.832,56.236 95.708,34.248 100.323,41.046 103.297,44.359 104.006,42.123    104.067,37.998 108.582,46.098 100.9,19.077 107.937,34.921 108.137,30.263 106.883,20.228 112.58,34.074 118.486,50.3    111.336,16.232 120.676,48.061 117.732,28.491 118.145,22.495 121.17,29.25 122.125,25.514 123.233,22.096 125.237,24.085    129.542,43.41 127.482,15.113 131.058,31.667 132.944,35.192 134.318,33.652 136.04,36.697 136.906,25.45 139.482,49.16    140.831,50.864 141.771,25.339 143.392,50.481 144.919,45.07 146.446,26.849 147.974,32.66 149.5,43.021 151.028,35.493    152.556,46.463 154.083,34.462 155.611,49.012 157.139,24.133 158.667,48.47 160.195,46.923 161.724,44.075 163.253,46.407    164.783,11.828 166.313,35.168 167.841,41.189 169.37,47.153 170.898,27.062 172.427,38.511 173.955,35.332 175.482,49.279    177.011,31.327 178.538,35.931 180.066,33.672 181.594,47.021 183.122,45.911 184.65,15.543 186.179,40.054 187.707,37.557    189.235,14.899 190.764,11.805 192.293,42.532 193.822,24.731 195.351,43.767 196.879,14.196 198.406,32.704 199.933,48.647    201.458,16.627 202.984,31.146 204.509,25.588 206.034,34.849 207.559,30.933 209.083,12.931 210.607,28.799 212.131,36.888    213.656,28.315 215.18,37.323 216.704,49.763 218.229,25.975 219.753,20.369 221.279,21.704 222.804,49.746 224.331,41.513    225.857,48.096 227.385,45.437 228.913,13.412 230.442,16.218 231.972,33.777 233.503,26.191 235.033,42.691 236.562,49.622    238.09,24.015 239.619,34.04 241.146,43.681 242.673,43.661 244.2,22.699 245.726,27.003 247.253,35.36 248.779,34.149    250.306,32.634 251.833,11.859 253.36,48.84 254.888,11.833 256.417,24.608 257.946,13.91 259.477,45.909 261.008,46.835    262.539,12.614 264.069,19.508 265.599,25.632 267.128,30.176 268.656,34.006 270.185,35.05 271.712,27.753 273.24,46.188    274.77,13.317 276.298,26.209 277.828,41.618 279.358,49.512 280.891,28.513 282.422,41.159 283.952,49.427 285.482,20.464    287.012,38.399 288.541,41.515 290.07,12.512 291.601,32.515 293.131,29.965 294.662,24.781 296.194,29.419 297.727,45.623    299.257,44.395 300.787,42.018 302.317,34.536 303.848,19.177 305.379,40.502 306.911,14.494 308.444,26.018 309.976,38.306    311.506,14.326 313.037,33.081 314.568,31.758 316.102,47.283 317.634,13.668 319.16,44.123 320.688,42.157 322.219,43.803    323.753,26.283 325.283,45.547 326.813,38.436 328.341,47.867 329.87,20.503 331.399,16.958 332.932,25.252 334.466,19.017    335.997,37.025 337.527,27.463 339.059,36.36 340.593,35.695 342.126,50.633 343.658,24.981 345.191,22.057 346.727,30.441    348.26,20.572 349.795,30.795 351.329,27.2 352.864,34.723 354.396,48.369 355.927,43.075 357.464,48.496 358.997,27.114    360.533,21.798 362.071,13.15 363.606,19.849 365.146,18.574 366.687,23.796 368.229,38.25 369.726,34.521 371.381,28.647    372.292,45.107 375.285,14.682 377.163,13.062 377.889,26.39 378.284,39.348 382.41,14.619 380.532,44.655 381.341,48.854    387.144,19.025 387.03,30.392 384.647,52.751 385.883,53.029 391.746,30.913 393.229,31.52 390.097,51.728 396.073,33.135    397.88,32.415 393.344,54.53 397.667,44.32 401.993,35.138 407.598,22.913 404.4,37.736 409.311,28.499 403.458,49.103    405.003,48.954 415.087,27.604 412.123,39.132 410.081,47.739 407.899,56.076 416.324,41.149 424.437,27.967 411.008,58.667    413.209,57.257 413.684,59.212 427.235,37.446 423.653,47.06 425.416,47.076 424.471,51.584 419.333,62.543 422.686,59.781    427.771,54.629 423.438,63.531 426.998,60.809 434.473,52.893 438.827,49.637 443.154,46.65 447.998,43.239 447.588,46.522    438.501,60.059 449.388,49.695 453.56,47.541 431.155,74.825 444.196,62.721 456.558,52.021 440.099,71.206 436.127,77.093    456.904,58.936 450.188,67.514 450.815,69.013 448.037,73.511 457.024,67.686 465.158,62.956 462.144,67.641 445.558,82.893    462.043,71.888 464.308,72.213 474.058,67.133 462.087,77.793 466.43,76.709 462.6,81.223 448.612,92.132 459.359,86.916    449.207,94.835 453.861,93.574 456.393,93.693 458.039,94.367 473.249,87.781 451.034,101.159 484.143,85.958 475.508,92.107    477.536,92.953 484.326,91.689 478.908,95.956 487.139,94.288 480.958,98.675 486.878,98.169 470.528,106.093 483.396,103.095    463.474,111.641 467.594,111.741 463.637,114.456 490.544,107.934 485.186,111.257 487.755,112.295 463.36,120.146 494.029,114.29    472.27,120.903 484.196,119.92 489.097,120.629 497.793,120.782 466.169,127.789 461.275,129.911 465.913,130.562 481.169,130.058    481.956,131.534 479.942,133.296 497.064,133.457 491.032,135.614 467.245,138.578 481.966,139.348 464.088,141.379    500.456,142.21 473.395,144.011 465.611,145.537 488.129,147.063 475.327,148.589 481.392,150.115 475.953,151.641    476.714,153.167 479.168,154.693 499.786,156.22 480.555,157.747 500.047,159.273 499.903,160.8 498.229,162.328 469.264,163.856    491.605,165.384 466.44,166.913 477.556,168.44 493.825,169.968 462.992,171.495 500.426,173.021 477.275,174.548 463.405,176.075    484.443,177.602 469.62,179.128 461.919,180.655 492.398,182.182 462.3,183.708 489.186,185.235 487.438,186.762 496.731,188.29    484.671,189.816 477.083,191.343 488.954,192.872 474.95,194.4 486.557,195.927 489.898,197.454 491.068,198.979 490.313,200.505    485.678,202.03 465.271,203.554 462.009,205.078 470.146,206.602 500.249,208.125 497.244,209.648 492.863,211.171    478.725,212.694 479.961,214.217 470.732,215.74 483.112,217.263 499.914,218.786 481.423,220.31 461.396,221.833 493.776,223.358    465.821,224.883 499.284,226.408 487.149,227.935 469.366,229.461 487.73,230.989 464.341,232.518 497.554,234.047    489.924,235.576 465.523,237.104 499.822,238.631 467.364,240.158 494.375,241.685 471.902,243.21 467.139,244.735    480.466,246.261 476.484,247.786 487.595,249.312 492.334,250.837 470.425,252.363 494.626,253.889 483.848,255.416    464.481,256.943 463.974,258.471 496.619,260 468.424,261.53 477.302,263.06 473.599,264.589 460.916,266.117 491.374,267.645    485.214,269.172 485.538,270.698 495.358,272.226 466.809,273.752 465.102,275.279 489.415,276.808 474.75,278.336    486.962,279.865 475.027,281.396 475.763,282.927 498.527,284.456 484.736,285.984 461.149,287.513 467.691,289.041    469.742,290.569 481.048,292.098 484.104,293.627 472.938,295.156 476.637,296.688 473.16,298.218 496.066,299.748    462.569,301.276 478.032,302.806 480.302,304.335 499.787,305.864 462.563,307.396 493.804,308.927 482.787,310.457    460.822,311.986 464.541,313.517 481.684,315.047 490.911,316.578 484.222,318.109 481.883,319.634 461.642,321.161    479.855,322.69 466.908,324.223 497.485,325.753 469.093,327.28 466.861,328.808 497.024,330.335 469.412,331.863 498.182,333.395    466.918,334.927 491.478,336.457 460.688,337.986 496.398,339.517 483.217,341.049 462.93,342.581 499.478,344.112 491.77,345.644    468.621,347.178 467.511,348.71 475.894,350.243 473.88,351.776 494.401,353.311 464.455,354.841 481.733,356.371 469.974,357.906    462.486,359.438 498.973,360.974 499.313,362.51 477.375,364.044 477.48,365.582 480.065,368.063  " style="fill:#FF312E;"/><g><g id="Lozenge_2_"><g><path d="M393.533,197.802c0,0-2.744-20.204-11.16-29.071c-10.686-11.647-22.671-11.738-28.142-12.396      c-39.358-2.962-98.33-2.962-98.33-2.962h-0.128c0,0-59.008,0-98.33,2.962c-5.489,0.658-17.455,0.75-28.159,12.396      c-8.417,8.868-11.162,29.071-11.162,29.071s-2.817,23.696-2.817,47.392v22.192c0,23.732,2.817,47.429,2.817,47.429      s2.745,20.167,11.162,29.053c10.704,11.666,24.756,11.281,30.996,12.506c22.487,2.25,95.548,2.944,95.548,2.944      s59.045-0.109,98.403-3.054c5.471-0.676,17.456-0.73,28.142-12.396c8.416-8.886,11.16-29.053,11.16-29.053      s2.818-23.696,2.818-47.429v-22.192C396.352,221.498,393.533,197.802,393.533,197.802z M226.827,294.337l-0.018-82.273      l75.934,41.285L226.827,294.337z" style="fill:#FFFFFF;"/></g></g></g></g><g id="Layer_1"/></svg>