<?xml version="1.0" ?><!DOCTYPE svg  PUBLIC '-//W3C//DTD SVG 1.1//EN'  'http://www.w3.org/Graphics/SVG/1.1/DTD/svg11.dtd'><svg height="512px" style="enable-background:new 0 0 512 512;" version="1.1" viewBox="0 0 512 512" width="512px" xml:space="preserve" xmlns="http://www.w3.org/2000/svg" xmlns:xlink="http://www.w3.org/1999/xlink"><g id="social__x2C__media__x2C__social_media__x2C___technorati__x2C_"><polygon points="498.592,368.68 480.935,370.219 468.693,371.432 479.013,373.222 480.797,374.834    462.581,375.157 485.032,378.268 492.264,380.559 469.283,379.775 469.694,381.227 472.614,383.036 483.38,386.105    468.307,385.241 465.296,386.112 487.051,391.67 488.395,393.636 461.023,389.293 470.056,392.767 458.523,391.339    480.866,398.583 491.386,403.173 492.529,405.346 458.043,396.499 493.686,409.438 466.99,402.257 487.583,411.108    465.662,404.804 462.425,405.072 482.687,414.724 474.062,412.934 463.999,410.257 473.709,416.214 476.907,419.458    465.103,415.545 474.263,421.798 479.373,426.282 471.835,424.166 466.696,423.148 466.517,424.817 454.486,419.49    452.654,419.972 468.335,431.441 451.583,422.505 464.141,432.514 467.568,436.784 445.335,423.042 455.195,431.835    449.389,429.307 462.1,440.864 465.717,445.795 441.941,428.584 458.719,444.356 451.372,440.153 466.079,455.176 441.332,435.045    440.022,435.681 452.499,449.542 451.027,450.328 433.512,434.832 448.783,452.576 451.6,457.92 437.04,444.369 438.491,448.124    453.12,467.353 430.313,442.853 445.535,463.659 426.44,442.235 447.048,471.122 446.937,473.899 425.482,447.44 440.024,470.354    435.897,467.341 432.215,464.751 426.989,459.572 417.49,447.229 429.099,468.723 423.864,463.003 433.813,483.404 425.474,472.08    415.371,456.657 413.813,456.601 421.966,475.885 422.737,481.232 423.962,487.896 415.121,472.66 415.145,476.62 414.135,478.384    415.753,486.752 412.277,482.601 407.789,475.272 400.808,460.23 404.026,473.849 405.421,483.065 401.192,474.953    399.137,473.351 400.544,483.92 397.084,477.244 394.913,474.882 396.373,487.622 394.416,486.508 392.259,484.212    385.899,459.689 391.268,496.992 384.326,465.761 383.209,467.283 383.231,477.59 383.073,488.695 381.06,485.444 379.114,481.917    376.932,474.178 374.859,464.907 374.594,484.702 373.623,500.098 371.102,472.818 369.983,496.021 368.246,489.193    366.719,486.457 365.191,493.629 363.664,480.571 362.137,478.519 360.609,500.169 359.082,485.554 357.555,468.376    356.027,474.874 354.499,484.677 352.971,494.694 351.442,463.702 349.914,486.462 348.385,473.163 346.854,470.712    345.325,484.719 343.797,476.909 342.268,475.79 340.739,491.961 339.211,475.049 337.683,471.499 336.155,494.722    334.627,490.639 333.1,483.843 331.571,491.576 330.044,493.288 328.516,499.282 326.987,470.595 325.459,468.427 323.931,485.55    322.402,499.831 320.874,471 319.345,467.852 317.815,492.483 316.287,496.528 314.759,480.056 313.231,496.694 311.705,491.072    310.179,493.888 308.653,468.692 307.128,462.568 305.604,462.538 304.079,480.998 302.555,490.167 301.03,478.056    299.506,465.953 297.982,463.407 296.458,492.459 294.934,480.575 293.409,483.504 291.884,483.825 290.359,472.959    288.833,479.237 287.308,483.633 285.78,472.906 284.253,471.646 282.725,479.885 281.196,488.342 279.666,471.377    278.135,479.045 276.605,479.585 275.076,490.856 273.547,464.714 272.02,475.196 270.492,461.838 268.965,489.962    267.438,491.674 265.911,475.895 264.385,463.723 262.858,487.205 261.332,467.885 259.805,482.434 258.277,486.259    256.75,473.252 255.221,465.781 253.692,491.124 252.162,479.211 250.63,489.63 249.099,492.103 247.569,498.83 246.04,491.605    244.511,472.108 242.982,464.228 241.454,500.766 239.926,499.196 238.398,481.979 236.869,466.587 235.34,496.803    233.811,480.131 232.28,471.466 230.748,468.402 229.216,462.559 227.686,490.076 226.156,469.533 224.626,464 223.097,461.486    221.567,468.039 220.038,494.334 218.507,496.966 216.976,494.234 215.444,484.15 213.912,478.537 212.381,489.356    210.851,461.519 209.321,480.643 207.791,473.819 206.259,497.258 204.727,476.777 203.195,497.281 201.663,500.724    200.132,473.916 198.602,464.815 197.07,472.51 195.537,470.169 194.005,481.697 192.479,482.733 190.95,491.54 189.419,462.853    187.886,474.111 186.355,499.362 184.826,492.638 183.297,472.789 181.769,469.194 180.239,469.468 178.707,462.876    177.173,461.24 175.642,475.435 174.111,478.979 172.58,494.59 171.046,467.286 169.513,471.556 167.98,477.463 166.447,493.767    164.912,461.289 163.379,481.354 161.844,494.126 160.31,471.665 158.774,487.493 157.243,484.889 155.711,493.587 154.175,490.87    152.641,462.019 151.105,487.22 149.568,487.657 148.032,477.051 146.493,492.501 144.952,486.007 143.41,499.385 141.78,487.675    140.217,485.559 138.078,499.055 137.565,475.465 135.2,488.701 135.208,468.357 133.349,473.367 132.947,463.788 130.691,471.444    129.338,470.936 127.025,476.794 126.349,471.654 123.574,479.127 122.842,474.812 121.578,473.622 118.338,481.502    113.277,496.128 116.787,474.673 112.719,484.218 112.086,480.404 107.227,491.339 109.308,478.647 109.162,473.999    112.591,459.191 102.801,482.866 110.723,456.722 99.053,483.396 101.511,472.764 96.469,480.854 90.991,489.315 94.26,477.657    101.544,458.224 99.096,460.181 86.422,482.383 98.291,455.715 91.688,465.189 83.667,476.579 97.189,449.559 95.113,450.539    81.339,470.685 92.972,449.108 86.407,456.843 75.035,471.326 77.429,464.857 69.06,473.961 67.963,472.465 81.812,451.029    69.75,464.396 61.902,471.665 62.263,468.381 74.874,450.561 74.789,448.429 67.195,454.844 56.115,464.713 72.344,444.723    74.755,440.146 68.503,444.569 65.811,445.18 57.26,451.328 51.703,454.298 69.601,435.697 59.586,442.742 58.566,441.604    42.599,453.002 46.684,447.349 51.845,441.085 68.71,426.068 41.625,444.758 40.595,443.365 51.598,433.453 50.447,432.381    36.016,440.163 38.351,436.545 44.893,430.422 32.153,436.338 35.766,432.119 58.446,417.182 38.674,426.615 43.99,421.903    58.517,412.607 39.856,420.536 30.495,423.317 33.545,419.998 43.14,413.848 29.472,418.161 46.677,409.107 41.803,409.53    21.536,415.778 20.624,414.205 30.215,408.896 39.338,404.061 43.706,401.063 18.992,407.229 29.809,402.178 39.499,397.787    48.912,393.769 33.543,396.242 23.006,397.139 19.958,396.083 21.25,394.052 48.298,387.106 52.095,385.084 42.819,385.324    26.919,386.312 22.627,385.271 22.644,383.589 31.396,380.97 20.6,380.447 31.661,377.86 34.799,376.114 42.517,374.214    16.22,373.884 38.374,371.554 22.357,370.332 12.487,368.68 20.029,367.153 37.156,365.627 14.974,364.102 22.042,362.575    41.804,361.049 25.783,359.522 28.374,357.996 45.567,356.47 50.989,354.942 31.505,353.416 32.441,351.889 41.096,350.36    40.111,348.833 39.648,347.304 31.009,345.776 20.004,344.248 19.613,342.721 14.156,341.193 27.679,339.666 35.52,338.14    28.023,336.612 18.726,335.086 31.265,333.559 48.65,332.032 21.115,330.506 27.227,328.979 34.595,327.452 50.289,325.925    43.793,324.398 32.167,322.872 40.434,321.345 38.246,319.816 28.463,318.288 39.973,316.761 28.242,315.234 27.944,313.708    23.652,312.183 41.802,310.657 15.569,309.133 15.537,307.609 36.591,306.085 28.645,304.562 27.792,303.038 32.201,301.516    13.541,299.992 19.501,298.47 49.957,296.946 48.353,295.423 21.615,293.899 11.321,292.376 14.498,290.853 26.529,289.327    35.815,287.803 19.516,286.277 18.562,284.751 41.706,283.224 35.064,281.695 37.755,280.167 24.671,278.637 47.759,277.108    50.974,275.58 45.814,274.053 38.525,272.525 48.886,271 33.086,269.474 14.217,267.948 17.642,266.423 14.664,264.897    14.367,263.372 34.43,261.847 24.616,260.32 17.553,258.794 40.671,257.268 43.343,255.74 38.734,254.211 11.562,252.682    27.935,251.152 30.808,249.622 19.703,248.093 50.833,246.565 50.876,245.037 38.971,243.51 37.23,241.983 46.907,240.456    26.901,238.929 42.146,237.401 20.223,235.874 23.404,234.345 19.03,232.815 15.992,231.285 19.339,229.754 46.88,228.225    41.513,226.696 44.737,225.167 16.653,223.639 32.6,222.111 31.97,220.582 15.19,219.053 16.174,217.523 43.99,215.991    33.744,214.461 26.314,212.931 48.979,211.402 44.5,209.873 12.244,208.344 23.085,206.813 26.706,205.283 40.656,203.751    29.024,202.221 23.399,200.691 37.156,199.161 15.017,197.631 37.341,196.1 46.781,194.568 15.747,193.043 27.813,191.516    22.954,189.986 33.636,188.454 26.589,186.924 46.004,185.396 33.902,183.869 23.802,182.341 46.911,180.813 38.501,179.282    23.022,177.749 43.144,176.219 48.597,174.689 16.333,173.159 46.944,171.626 46.945,170.094 30.583,168.563 36.455,167.031    25.326,165.497 48.854,163.965 35.873,162.431 48.003,160.898 44.075,159.363 24.116,157.833 46.893,156.303 39.705,154.768    46.293,153.235 35.862,151.7 32.969,150.164 47.222,148.629 14.716,147.091 13.181,145.551 43.673,144.011 39.171,142.585    49.426,141.432 29.854,139.356 21.931,137.378 40.743,136.979 44.647,135.883 32.303,133.355 30.115,131.584 33.05,130.375    47.747,130.843 25.323,126.141 43.229,127.43 27.609,123.232 45.387,125.023 24.797,119.368 43.779,121.873 14.871,113.63    20.205,113.103 26.231,112.897 49.847,117.796 23.529,108.648 18.512,105.3 17.862,103.215 53.272,113.362 34.345,105.248    39.841,105.602 42.761,105.115 21.062,94.776 22.642,93.48 48.955,102.994 35.762,95.49 39.184,95.311 58.96,103.17 28.939,86.649    47.178,94.157 37.754,87.413 32.523,82.63 52.457,92.065 53.763,91.182 40.325,81.313 35.808,76.527 63.37,92.325 39.86,75.063    39.821,72.972 63.315,87.511 36.485,66.303 62.802,83.773 63.648,82.69 67.578,84.051 61.681,77.542 60.447,74.626 45.987,60.212    54.687,65.58 50.847,59.901 52.329,58.945 64.061,67.86 71.455,73.055 61.01,60.484 70.766,68.347 53.092,47.297 56.89,48.797    72.12,63.384 75.489,65.043 58.47,42.481 82.319,68.94 75.453,58.123 69.861,48.4 83.657,64.102 72.654,46.64 77.5,50.653    81.885,54.284 73.034,38.321 86.277,55.605 91.516,61.246 83.773,45.959 86.511,47.516 81.368,35.438 94.766,56.111 93.972,51.721    97.142,54.727 96.804,50.987 100.551,55.473 93.551,37.318 96.886,40.807 92.429,26.656 97.727,34.797 100.563,37.516    98.512,27.848 100.533,28.416 104.175,33.643 106.753,36.258 106.319,29.878 111.731,41.836 110.068,31.01 115.355,43.946    118.498,50.285 117.317,40.102 115.356,25.376 115.565,18.598 123.815,49.865 121.244,29.541 120.131,14.199 125.605,36.453    124.012,15.799 129.751,44.825 128.55,23.718 130.184,23.432 130.82,12.614 135.46,47.562 134.694,16.473 138.244,49.903    138.491,23.994 140.17,25.455 141.938,36.552 143.41,20.404 144.938,15.039 146.465,17.15 147.992,21.162 149.519,12.843    151.046,35.412 152.574,36.88 154.102,38.721 155.629,43.014 157.157,34.839 158.686,19.548 160.214,19.251 161.743,40.157    163.272,43.855 164.801,44.144 166.331,19.309 167.86,42.945 169.388,34.145 170.917,34.623 172.445,46.133 173.973,44.914    175.501,32.349 177.029,37.02 178.557,44.528 180.084,17.932 181.612,40.975 183.14,31.465 184.668,30.242 186.197,22.468    187.726,20.167 189.253,17.895 190.782,13.578 192.312,13.408 193.841,44.1 195.369,14.161 196.897,16.979 198.424,50.164    199.951,45.701 201.477,25.327 203.002,30.366 204.528,39.835 206.053,23.517 207.577,22.884 209.102,47.937 210.626,42.169    212.15,44.421 213.674,32.633 215.198,30.219 216.723,25.056 218.247,35.922 219.772,49.993 221.297,15.102 222.823,19.333    224.349,21.855 225.875,41.482 227.403,21.602 228.931,41.634 230.46,35.167 231.99,31.118 233.521,50.101 235.051,14.022    236.58,41.558 238.109,50.494 239.637,22.839 241.164,49.196 242.691,27.742 244.218,31.266 245.745,48.387 247.271,49.963    248.797,28.066 250.324,18.829 251.851,13.834 253.378,31.78 254.906,43.233 256.435,25.902 257.965,48.487 259.495,37.088    261.026,24.883 262.558,24.786 264.087,22.782 265.616,50.18 267.146,39.796 268.674,37.052 270.202,26.2 271.73,21.383    273.259,27.439 274.787,19.391 276.316,27.897 277.846,49.282 279.377,24.63 280.908,24.392 282.439,23.831 283.971,29.726    285.5,31.062 287.03,14.992 288.56,34.123 290.089,20.411 291.618,29.435 293.148,51.346 294.68,14.396 296.213,29.729    297.744,13.944 299.275,28.859 300.806,44.858 302.336,38.683 303.866,20.887 305.397,46.17 306.929,20.853 308.462,44.59    309.993,15.116 311.523,21.766 313.055,48.67 314.586,15.336 316.119,26.111 317.651,38.058 319.178,50.313 320.706,22.928    322.236,27.41 323.771,31.597 325.301,21.018 326.83,45.085 328.358,33.141 329.888,28.232 331.417,43.26 332.949,23.633    334.483,25.43 336.015,21.931 337.545,20.969 339.076,28.452 340.61,26.394 342.144,16.029 343.676,37.771 345.209,35.706    346.744,48.522 348.277,45.643 349.813,22.917 351.347,49.128 352.882,37.138 354.413,20.003 355.944,28.738 357.48,33.103    359.015,18.742 360.551,43.485 362.089,43.301 363.624,26.299 365.163,48.958 366.704,14.017 368.246,42.078 369.876,24.595    371.793,13.874 372.606,37.788 373.811,42.475 375.222,42.237 376.916,38.58 380.237,18.895 381.336,24.668 383.621,19.48    383.084,36.159 383.751,41.748 385.137,42.048 389.548,25.341 390.01,31.653 392.331,28.152 394.061,27.832 396.141,26.106    395.844,34.114 395.442,41.672 393.319,54.667 403.229,25.467 397.178,50.734 399.66,47.419 401.901,45.124 403.18,45.796    413.797,21.276 402.678,54.994 412.387,34.358 409.347,45.803 411.244,45.08 409.098,53.431 420.835,31.534 424.181,28.507    418.231,44.291 427.167,30.377 428.304,31.969 427.488,37.014 414.322,63.377 416.467,62.256 429.989,42.54 430.971,44.034    422.296,60.412 437.555,39.96 430.331,53.506 425.757,62.575 427.223,62.869 442.855,44.276 439.978,50.796 448.344,42.831    438.181,58.097 438.802,59.711 438.175,62.744 438.026,65.131 440.399,64.651 434.235,73.405 437.132,72.308 433.886,77.537    449.875,63.531 461.696,54.342 459.483,58.824 465.63,55.529 454.192,68.07 440.674,81.781 458.907,68.204 468.807,62.221    463.204,68.914 447.792,82.885 456.678,77.936 472.853,68.019 455.731,82.303 475.67,70.36 446.38,92.062 450.349,91.015    446.756,94.835 453.78,92.051 469.459,84.364 477.085,81.843 470.45,87.48 481.799,83.192 464.253,94.295 475.144,90.473    477.664,91.074 462.567,99.971 453.691,105.552 464.842,102.086 473.295,100.097 458.018,107.922 485.169,98.833 465.638,107.907    473.452,106.635 488.171,103.242 457.65,114.978 464.846,114.086 483.592,110 484.951,111.326 463.133,118.826 481.24,115.667    490.369,115.141 492.691,116.382 484.688,119.827 489.809,120.494 476.118,124.652 466.653,127.725 465.507,129.275    482.666,128.286 483.729,129.747 490.543,130.596 465.729,134.645 468.945,135.719 499.545,135.037 482.475,137.764    480.787,139.395 499.531,140.433 493.55,142.302 471.29,144.011 465.899,145.537 468.081,147.063 469.916,148.589 498.692,150.115    471.606,151.642 500.26,153.168 471.444,154.694 480.095,156.221 483.417,157.748 482.456,159.275 463.589,160.802 468.593,162.33    462.627,163.858 461.47,165.386 485.902,166.915 463.017,168.442 464.531,169.97 466.075,171.497 476.131,173.024 480.91,174.551    490.04,176.078 481.763,177.604 473.442,179.131 477.827,180.658 467.072,182.185 489.916,183.711 487.05,185.239 474.215,186.766    497.972,188.293 462.702,189.82 496.46,191.348 471.124,192.876 489.166,194.404 464.918,195.932 469.629,197.458 475.99,198.984    499.366,200.51 474.023,202.035 465.256,203.559 499.751,205.083 482.517,206.607 469.647,208.13 465.458,209.653 486.535,211.177    481.762,212.7 483.784,214.223 485.09,215.746 477.188,217.269 470.688,218.792 482.947,220.316 483.962,221.84 487.869,223.364    498.071,224.889 493.526,226.415 468.189,227.941 484.977,229.468 492.39,230.996 481.596,232.525 466.935,234.055    497.649,235.583 462.363,237.112 478.427,238.639 490.795,240.166 489.108,241.692 489.749,243.218 462.959,244.744    478.071,246.269 468.062,247.794 490.65,249.32 492.461,250.845 495.188,252.371 461.444,253.897 461.601,255.424 472.654,256.952    477.494,258.48 469.739,260.009 466.659,261.539 498.547,263.069 496.717,264.599 466.114,266.127 481.765,267.654 477.2,269.182    481.289,270.709 480.661,272.235 472.62,273.763 483.716,275.29 495.837,276.818 470.926,278.347 462.325,279.876 481.674,281.407    466.036,282.938 500.061,284.467 485.045,285.996 499.261,287.524 495.135,289.053 483.767,290.58 461.916,292.109    492.371,293.639 498.34,295.169 467.336,296.7 495.509,298.23 465.891,299.76 461.363,301.289 494.017,302.818 499.004,304.348    484.456,305.878 489.356,307.408 465.949,308.939 496.432,310.47 463.892,312 472.472,313.53 498.948,315.061 470.154,316.592    494.625,318.123 494.334,319.648 492.34,321.176 491.861,322.705 468.281,324.237 489.637,325.767 495.142,327.295    493.338,328.822 478.755,330.35 477.137,331.878 469.819,333.409 493.25,334.941 488.964,336.472 474.291,338.002 474.874,339.531    476.189,341.064 494.568,342.597 499.778,344.128 467.495,345.66 500.239,347.193 475.889,348.726 490.163,350.26 467.551,351.793    469.301,353.327 489.28,354.857 496.953,356.388 484.162,357.923 466.44,359.455 469.204,360.99 470.296,362.526 466.089,364.062    484.5,365.599 482.63,355.71  " style="fill:#00BC00;"/><g><path d="M158.652,312.402l-8.197,84.361l75.952-46.917c15.26,4.225,31.508,6.583,48.396,6.583    c48.808,0,92.301-19.289,121.567-49.44V175.313c0-32.747-25.883-59.386-57.655-59.386H165.833    c-30.967,25.396-50.546,61.251-50.546,101.257C115.287,254.081,131.828,287.48,158.652,312.402z M274.803,136.313    c55.725,0,102.83,37.043,102.83,80.87c0,43.863-47.105,80.864-102.83,80.864c-55.733,0-102.84-37.001-102.84-80.864    C171.963,173.356,219.069,136.313,274.803,136.313z" style="fill:#FFFFFF;"/></g></g><g id="Layer_1"/></svg>