<?xml version="1.0" ?><!DOCTYPE svg  PUBLIC '-//W3C//DTD SVG 1.1//EN'  'http://www.w3.org/Graphics/SVG/1.1/DTD/svg11.dtd'><svg height="512px" style="enable-background:new 0 0 512 512;" version="1.1" viewBox="0 0 512 512" width="512px" xml:space="preserve" xmlns="http://www.w3.org/2000/svg" xmlns:xlink="http://www.w3.org/1999/xlink"><g id="social__x2C__media__x2C__social_media__x2C___instagram__x2C_"><polygon points="466.765,368.662 491.354,370.351 480.615,371.732 483.563,373.388 469.379,374.205    477.243,376.122 475.967,377.514 471.183,378.543 490.877,382.101 463.236,380.405 460.812,381.399 462.024,382.877    481.787,387.439 480.401,388.789 480.689,390.431 480.903,392.074 464.813,390.13 471.668,393.123 464.598,392.847    458.828,392.721 465.693,395.966 488.033,404.003 487.752,405.696 474.03,403.037 485.736,408.629 456.283,399.938    487.022,412.726 476.231,410.398 465.101,407.62 471.892,412.01 480.253,417.32 461.573,410.719 463.395,413.108 466.729,416.324    486.087,427.705 479.305,426.221 479.125,428.069 452.694,415.354 461.479,421.911 449.024,416.244 453.306,420.376    464.805,429.202 474.541,437.37 473.369,438.66 450.642,425.129 469.439,440.114 473.783,445.379 470.858,445.397 468.773,445.999    441.412,426.493 445.173,431.224 467.706,451.876 441.507,431.643 464.706,453.945 443.845,437.334 436.495,432.384    456.146,453.029 442.125,441.531 452.411,453.984 452.279,456.209 442.193,447.832 448.639,457.128 442.695,452.868    430.278,440.771 441.937,456.745 444.733,462.663 437.609,456.333 440.437,462.509 429.254,450.266 444.772,473.984    422.427,445.429 432.967,463.05 432.536,465.223 419.446,447.897 435.607,476.083 424.913,461.833 416.821,451.033    416.171,452.557 421.717,465.287 420.429,466.078 416.492,461.775 423.833,479.596 423.188,482.153 418.125,475.396    409.925,461.137 407.342,458.641 410.55,469.796 416.106,487.622 413.29,485.176 412.484,487.931 403.804,468.666 405.491,478.153    408.979,493.969 404.867,486.812 397.074,466.331 403.561,494.705 399.833,487.626 393.902,470.862 398.016,494.591    388.902,461.535 390.976,477.993 391.737,490.021 389.995,489.859 387.49,484.979 382.387,461.908 381.754,466.711    380.538,468.023 380.321,478.624 377.423,464.078 376.908,473.979 375.338,472.06 375.188,495.803 373.604,499.626 371.152,474.72    369.966,493.771 368.246,492.028 366.719,479.367 365.191,485.354 363.664,489.484 362.137,492.33 360.609,466.558    359.082,495.047 357.555,468.228 356.027,500.368 354.499,469.93 352.971,477.527 351.442,486.389 349.914,499.058    348.385,499.538 346.854,498.597 345.325,486.386 343.797,474.858 342.268,471.983 340.739,499.844 339.211,494.959    337.683,496.345 336.155,490.897 334.627,479.896 333.1,477.443 331.571,498.454 330.044,489.076 328.516,494.509 326.987,484.319    325.459,483.711 323.931,478.51 322.402,476.719 320.874,466.276 319.345,471.646 317.815,474.541 316.287,498.343    314.759,474.046 313.231,467.668 311.705,500.428 310.179,474.034 308.653,499.234 307.128,462.636 305.604,498.533    304.079,489.188 302.555,472.447 301.03,494.387 299.506,474.417 297.982,472.908 296.458,474.91 294.934,462.472 293.409,500.061    291.884,477.311 290.359,479.855 288.833,487.341 287.308,462.485 285.78,484.409 284.253,479.935 282.725,465.221    281.196,464.015 279.666,481.813 278.135,476.891 276.605,489.972 275.076,480.419 273.547,488.521 272.02,469.749    270.492,473.116 268.965,463.205 267.438,472.031 265.911,477.764 264.385,473.346 262.858,492.306 261.332,478.041    259.805,494.395 258.277,466.718 256.75,485.387 255.221,473.955 253.692,488.536 252.162,468.807 250.63,470.069 249.099,467.494    247.569,469.278 246.04,500.065 244.511,485.285 242.982,481.618 241.454,490.416 239.926,465.63 238.398,478.007 236.869,467.031    235.34,490.978 233.811,480.838 232.28,461.643 230.748,493.518 229.216,488.031 227.686,473.687 226.156,462.309 224.626,461.343    223.097,497.996 221.567,475.508 220.038,479.241 218.507,474.01 216.976,462.717 215.444,471.089 213.912,465.601 212.381,473.56    210.851,476.566 209.321,499.498 207.791,475.928 206.259,479.729 204.727,470.794 203.195,476.858 201.663,466.47    200.132,474.161 198.602,491.417 197.07,472.335 195.537,494.661 194.005,470.977 192.479,486.847 190.95,468.57 189.419,483.993    187.886,494.884 186.355,461.558 184.826,497.814 183.297,500.524 181.769,488.146 180.239,472.007 178.707,465.021    177.173,467.274 175.642,467.619 174.111,481.067 172.58,469.143 171.046,462.77 169.513,473.114 167.98,467.238 166.447,493.878    164.912,489.974 163.379,468.335 161.844,484.865 160.31,479.11 158.774,461.85 157.243,495.657 155.711,471.615 154.175,484.331    152.641,489.837 151.105,485.968 149.568,499.495 148.032,475.23 146.493,461.438 144.952,464.849 143.41,465.602 141.825,484.753    140.548,473.189 138.993,476.242 137.386,478.753 135.813,479.655 135.467,465.151 132.257,484.95 129.175,498.568    129.094,484.525 130.299,463.774 129.533,460.001 124.374,483.716 121.002,493.627 118.42,497.802 116.792,496.723    117.974,483.143 116.404,482.817 115.962,477.968 117.018,467.946 109.402,490.009 107.661,489.813 116.013,456.975    105.229,486.132 101.211,492.701 103.322,481.392 100.267,484.936 97.04,488.608 106.319,460.797 94.252,486.118 104.949,457.166    104.223,455.562 88.027,487.122 88.736,481.561 91.374,472.474 91.688,468.426 87.716,472.588 88.43,467.97 94.318,454.549    83.503,470.215 87.192,461.063 90.887,452.395 88.338,453.847 83.606,458.452 84.3,454.837 74.724,465.915 87.3,445.874    74.122,461.291 81.869,448.648 85.005,442.471 71.951,456.455 63.667,463.954 59.332,466.372 64.574,457.797 69.946,449.469    53.154,465.27 66.428,448.826 67.313,445.768 68.654,442.365 74.955,434.308 71.173,436.069 51.39,452.241 51.368,450.015    51.188,447.948 44.808,451.13 66.63,431.086 53.04,440.125 39.458,448.604 50.864,437.823 44.589,440.443 49.062,435.233    56.807,428 61.17,423.359 37.107,437.343 61.435,420.012 56.55,421.444 61.663,416.803 55.78,418.682 34.242,429.063    27.292,430.863 39.818,422.323 51.79,414.527 25.229,425.859 56.59,409.19 58.8,406.766 32.911,416.645 56.717,404.884    26.456,415.704 27.224,413.563 48.362,403.898 40.584,405.194 55.4,398.58 51.819,398.415 40.905,400.42 43.766,398.047    48.699,395.195 31.729,398.308 27.921,397.634 33.022,394.76 30.043,393.834 26.736,392.896 50.46,386.675 35.108,388.099    23.452,388.489 23,386.885 29.431,384.327 34.277,382.151 33.019,380.776 21.243,380.371 36.035,377.489 39.115,375.807    30.869,374.819 35.759,373.082 43.251,371.403 41.884,370.054 33.372,368.662 21.722,367.136 49.672,365.61 40.146,364.084    44.314,362.559 14.875,361.032 33.993,359.506 35.872,357.979 22.556,356.453 28.547,354.927 46.259,353.399 25.641,351.872    13.519,350.345 30.279,348.816 44.129,347.289 14.941,345.761 42.775,344.232 22.448,342.705 23.58,341.178 31.035,339.651    30.956,338.124 30.729,336.598 12.695,335.071 47.93,333.545 48.598,332.018 24.018,330.491 37.236,328.965 37.213,327.438    49.649,325.91 49.617,324.383 26.774,322.856 18.5,321.329 42.4,319.801 47.378,318.273 50.123,316.746 43.238,315.22    36.598,313.693 26.6,312.168 48.794,310.644 25.61,309.119 45.46,307.595 29.4,306.071 17.282,304.548 34.319,303.025    41.382,301.502 44.322,299.979 38.87,298.456 38.965,296.934 24.051,295.41 13.924,293.887 45.744,292.363 44.784,290.84    19.745,289.314 20.122,287.79 32.152,286.265 49.502,284.738 50.536,283.212 30.978,281.684 29.365,280.155 36.045,278.625    12.188,277.097 12.766,275.568 11.17,274.041 34.852,272.515 19.458,270.988 30.99,269.463 38.682,267.938 29.565,266.412    37.573,264.887 24.156,263.361 13.177,261.836 19.807,260.311 38.638,258.784 34.017,257.258 25.748,255.73 14.833,254.202    21.704,252.673 16.057,251.143 32.486,249.613 31.791,248.084 15.266,246.556 13.958,245.028 43.979,243.501 32.329,241.975    40.93,240.448 21.805,238.92 37.826,237.393 31.331,235.865 37,234.337 37.772,232.808 22.993,231.277 31.492,229.747    40.737,228.217 33.037,226.688 24.672,225.16 17.519,223.632 28.049,222.104 19.698,220.576 18.465,219.046 23.686,217.517    29.338,215.985 21.402,214.455 22.601,212.925 28.491,211.396 40.28,209.867 50.477,208.338 16.958,206.808 50.182,205.277    26.271,203.746 15.283,202.216 17.627,200.687 36.886,199.157 19.299,197.626 21.562,196.095 15.774,194.564 45.106,193.039    45.989,191.512 31.514,189.982 29.552,188.45 20.317,186.92 45.557,185.393 24.352,183.866 17.798,182.338 33.428,180.81    36.457,179.279 22.102,177.746 24.3,176.216 46.846,174.687 50.433,173.157 44.39,171.624 21.336,170.092 23.915,168.561    12.744,167.029 35.944,165.495 21.274,163.963 15.444,162.43 47.332,160.896 30.602,159.362 44.966,157.832 37.111,156.302    25.62,154.767 35.542,153.234 35.688,151.7 11.465,150.163 37.782,148.629 19.501,147.091 27.375,145.551 28.299,144.011    45.152,142.665 48.764,141.414 16.018,138.802 37.274,138.202 32.78,136.442 34.778,135.086 42.666,134.333 26.168,131.153    40.034,131.231 16.558,126.597 17.25,124.926 38.335,126.625 29.413,123.556 41.579,124.284 30.308,120.508 44.694,122.08    49.948,121.902 51.953,121.054 45.525,118.018 22.813,110.218 20.687,107.809 35.03,110.423 37.976,109.751 51.277,112.682    54.463,112.406 40.927,106.004 25.305,98.358 34.926,100.368 39.772,100.667 24.964,92.553 25.21,90.713 32.357,92.114    38.946,93.448 47.97,96.209 28.723,84.562 31.217,83.893 46.771,90.545 32.28,80.506 48.64,88.146 59.319,92.907 45.465,82.601    33.088,72.693 35.516,72.161 38.005,71.722 42.062,72.46 63.008,85.623 66.637,86.647 49.312,71.633 40.082,62.248 67.924,82.628    69.428,82.16 55.938,68.79 50.361,61.744 72.737,79.822 46.911,53.877 69.869,73.442 58.821,60.576 51.216,50.544 57.906,54.928    63.77,58.745 72.786,66.303 72.411,63.712 62.106,49.487 74.146,61.221 78.413,64.131 80.73,64.792 86.852,70.506 84.813,65.65    83.067,60.967 71.425,42.05 83.426,56.534 76.777,43.939 87.033,56.775 75.208,35.256 90.427,56.897 93.163,58.79 94.171,57.838    93.115,53.13 93.834,51.465 100.71,61.629 98.244,53.868 87.769,29.063 102.242,55.912 96.794,40.603 90.912,23.164 98.69,37.104    105.396,49.547 106.537,48.634 100.154,27.383 100.163,22.316 107.73,39.136 108.531,36.704 106.144,23.765 108.282,24.926    114.06,39.323 111.362,23.315 115.972,34.719 118.796,40.004 120.958,43.015 123.813,49.86 125.313,50.729 124.919,41.1    127.914,50.532 125.657,26.767 130.728,52.062 129.616,32.455 133.28,51.991 131.526,20.059 134.869,40.25 135.805,32.956    137.068,28.116 138.087,14.126 139.937,16.742 141.867,31.162 143.41,19.574 144.938,43.443 146.465,25.418 147.992,16.228    149.519,12.954 151.046,37.535 152.574,38.515 154.102,49.749 155.629,11.976 157.157,50.91 158.686,45.751 160.214,41.807    161.743,43.537 163.272,50.886 164.801,44.147 166.331,34.226 167.86,26.321 169.388,17.465 170.917,47.814 172.445,15.498    173.973,51.385 175.501,49.175 177.029,16.458 178.557,30.947 180.084,43.283 181.612,28.496 183.14,21.327 184.668,11.892    186.197,30.491 187.726,20.684 189.253,27.298 190.782,47.536 192.312,33.882 193.841,39.672 195.369,49.915 196.897,43.333    198.424,41.99 199.951,34.844 201.477,26.084 203.002,49.603 204.528,41.829 206.053,12.42 207.577,37.193 209.102,44.125    210.626,14.003 212.15,25.198 213.674,23.403 215.198,12.458 216.723,20.869 218.247,24.397 219.772,27.866 221.297,29.765    222.823,16.486 224.349,27.378 225.875,29.604 227.403,27.838 228.931,27.125 230.46,34.951 231.99,43.824 233.521,31.151    235.051,51.066 236.58,32.067 238.109,28.39 239.637,25.611 241.164,46.443 242.691,25.593 244.218,35.229 245.745,43.812    247.271,35.89 248.797,12.971 250.324,25.409 251.851,30.51 253.378,16.729 254.906,35.468 256.435,26.62 257.965,32.108    259.495,25.465 261.026,49.791 262.558,11.854 264.087,33.843 265.616,45.308 267.146,11.817 268.674,17.99 270.202,28.474    271.73,25.51 273.259,26.18 274.787,43.056 276.316,40.211 277.846,21.246 279.377,35.458 280.908,40.901 282.439,47.615    283.971,42.787 285.5,22.728 287.03,32.069 288.56,49.236 290.089,22.716 291.618,41.238 293.148,49.558 294.68,15.739    296.213,49.957 297.744,44.919 299.275,18.275 300.806,12.267 302.336,39.327 303.866,33.518 305.397,46.912 306.929,34.773    308.462,25.411 309.993,46.101 311.523,30.974 313.055,44.109 314.586,49.47 316.119,36.632 317.651,45.757 319.178,21.578    320.706,28.132 322.236,45.458 323.771,27.974 325.301,49.738 326.83,12.667 328.358,20.356 329.888,24.815 331.417,42.172    332.949,27.518 334.483,20.98 336.015,29.186 337.545,46.016 339.076,16.911 340.61,40.385 342.144,39.84 343.676,20.945    345.209,48.242 346.744,17.43 348.277,45.223 349.813,18.417 351.347,21.013 352.882,33.789 354.413,49.702 355.944,24.883    357.48,30.083 359.015,29.311 360.551,40.988 362.089,32.742 363.624,31.938 365.163,29.494 366.704,17.48 368.246,42.78    369.633,42.792 371.659,18.876 373.557,14.376 373.842,41.985 375.548,37.402 378.895,14.17 377.577,47.014 381.822,20.193    383.951,16.829 383.931,29.941 385.421,30.615 387.299,28.854 391.563,14.041 386.048,52.25 391.104,34.098 394.063,27.809    395.982,26.755 395.777,34.379 393.562,48.812 397.353,40.226 397.164,46.082 405.789,22.895 404.941,31.143 402.112,44.516    401.619,50.188 408.499,35.544 412.678,29.12 409.726,40.966 408.399,48.071 411.793,43.82 411.749,47.545 416.752,40.264    415.064,47.334 426.677,27.458 411.252,61.054 414.707,57.298 428.709,34.822 423.134,47.994 423.18,50.886 418.242,61.849    419.696,61.989 434.378,41.726 436.528,41.501 422.45,64.99 428.472,58.741 445.273,38.053 424.702,68.542 445.577,43.514    434.415,60.415 433.997,63.239 449.624,46.775 451.22,47.572 443.147,59.332 439.181,65.998 437.215,70.212 456.082,52.542    453.761,57.361 438.129,75.127 437.323,77.764 443.016,74.233 437.969,80.71 438.203,82.233 468.511,57.801 461.099,66.366    444.636,81.92 456.853,73.951 447.275,83.284 472.286,66.246 474.946,66.494 444.248,90.425 452.962,85.981 471.918,75.006    464.345,81.942 464.38,83.767 447.88,95.628 451.373,95.05 475.678,82.646 474.311,85.333 462.572,93.524 451.162,101.098    479.032,88.514 487.073,86.513 483.26,90.288 467.791,99.174 458.392,104.887 476.9,98.586 455.011,109.149 461.854,107.855    478.901,102.984 486.651,101.941 485.864,104.027 486.375,105.637 461.697,115.06 478.507,111.497 467.69,116.15 460.926,119.395    494.042,112.452 463.717,121.438 468.111,121.825 485.833,119.59 472.4,123.845 478.619,124.206 480.611,125.429 460.931,129.964    491.086,127.134 494.042,128.488 486.366,131.059 463.81,134.828 468.66,135.752 463.29,137.499 496.5,137.013 469.942,139.83    461.418,141.45 462.973,142.727 471.538,144.011 463.232,145.537 479.482,147.063 489.675,148.589 477.65,150.115 486.052,151.641    485.267,153.167 496.208,154.693 461.616,156.22 500.508,157.747 489.516,159.273 476.581,160.8 485.754,162.328 478.52,163.856    475.882,165.384 465.338,166.913 484.59,168.44 476.736,169.968 464.828,171.495 497.124,173.021 463.933,174.548 472.371,176.075    488.212,177.602 472.875,179.128 483.769,180.655 476.323,182.182 465.806,183.708 498.913,185.235 466.226,186.762    499.797,188.29 475.03,189.816 485.169,191.343 489.889,192.872 490.691,194.4 485.143,195.927 488.802,197.454 491.668,198.979    496.018,200.505 487.12,202.03 469.456,203.554 477.517,205.078 486.561,206.602 490.501,208.125 462.416,209.648 483.211,211.171    500.073,212.694 478.432,214.217 475.888,215.74 466.465,217.263 499.229,218.786 472.163,220.31 478.689,221.833 491.624,223.358    480.591,224.883 476.246,226.408 464.562,227.935 468.185,229.461 470.854,230.989 495.691,232.518 479.39,234.047    484.397,235.576 466.581,237.104 476.321,238.631 477.552,240.158 477.184,241.685 473.736,243.21 479.583,244.735    493.658,246.261 479.653,247.786 463.207,249.312 463.056,250.837 475.94,252.363 467.426,253.889 478.603,255.416    497.923,256.943 467.526,258.471 485.049,260 472.571,261.53 474.639,263.06 481.854,264.589 473.736,266.117 467.877,267.645    488.048,269.172 478.469,270.698 481.685,272.226 499.497,273.752 473.212,275.279 465.484,276.808 478.218,278.336    493.976,279.865 483.192,281.396 494.91,282.927 493.011,284.456 462.306,285.984 500.025,287.513 497.132,289.041    461.642,290.569 482.573,292.098 490.157,293.627 480.775,295.156 498.728,296.688 488.606,298.218 475.585,299.748    484.226,301.276 499.869,302.806 460.902,304.335 491.951,305.864 485.012,307.396 473.7,308.927 476.065,310.457 484.824,311.986    493.361,313.517 465.245,315.047 491.017,316.578 495.461,318.109 476.121,319.634 471.863,321.161 478.2,322.69 467.246,324.223    497.334,325.753 493.016,327.28 468.081,328.808 464.101,330.335 481.694,331.863 475.12,333.395 475.146,334.927 472.086,336.457    467.16,337.986 492.725,339.517 463.658,341.049 495.467,342.581 472.939,344.112 487.258,345.644 489.454,347.178 478.469,348.71    489.123,350.243 464.621,351.776 493.978,353.311 483.999,354.841 474.213,356.371 472.846,357.906 486.856,359.438    500.563,360.974 466.788,362.51 461.078,364.044 473.223,365.582 478.062,355.374  " style="fill:#2D80A6;"/><path d="M346.474,265.705c0-50.058-40.602-90.594-90.646-90.594   c-50.088,0-90.644,40.536-90.644,90.594c0,50.024,40.556,90.541,90.644,90.541C305.872,356.246,346.474,315.729,346.474,265.705   L346.474,265.705z M344.744,162.789c-8.088,0-14.592,6.582-14.592,14.59c0,8.082,6.504,14.573,14.592,14.573   c8.023,0,14.61-6.491,14.61-14.573C359.354,169.371,352.768,162.789,344.744,162.789L344.744,162.789z M181.752,141.872h148.152   c27.455,0,49.843,22.417,49.843,49.75v148.114c0,27.407-22.388,49.769-49.843,49.769H181.752   c-27.418,0-49.841-22.361-49.841-49.769V191.622C131.911,164.288,154.333,141.872,181.752,141.872L181.752,141.872z    M329.904,125.27H181.752c-36.53,0-66.446,29.894-66.446,66.352v148.114c0,36.55,29.916,66.389,66.446,66.389h148.152   c36.586,0,66.447-29.839,66.447-66.389V191.622C396.352,155.164,366.49,125.27,329.904,125.27L329.904,125.27z M184.021,265.705   c0-39.636,32.157-71.797,71.807-71.797c39.678,0,71.799,32.161,71.799,71.797c0,39.603-32.121,71.746-71.799,71.746   C216.178,337.451,184.021,305.308,184.021,265.705L184.021,265.705z" style="fill-rule:evenodd;clip-rule:evenodd;fill:#FFFFFF;"/></g><g id="Layer_1"/></svg>