<?xml version="1.0" ?><!DOCTYPE svg  PUBLIC '-//W3C//DTD SVG 1.1//EN'  'http://www.w3.org/Graphics/SVG/1.1/DTD/svg11.dtd'><svg height="512px" style="enable-background:new 0 0 512 512;" version="1.1" viewBox="0 0 512 512" width="512px" xml:space="preserve" xmlns="http://www.w3.org/2000/svg" xmlns:xlink="http://www.w3.org/1999/xlink"><g id="social__x2C__media__x2C__social_media__x2C___flicker__x2C_"><polygon points="486.371,368.68 496.373,370.425 493.685,372.099 469.088,372.824 482.81,374.941    480.479,376.355 483.646,378.154 477.219,379.132 495.482,382.617 476.764,382.09 496.14,386.244 478.479,385.367 497.454,390.031    466.522,386.333 474.681,389.29 471.993,390.242 461.05,389.315 466.785,391.987 473.88,395.189 460.763,393.261 468.573,396.788    484.62,403.001 474.583,401.633 461.477,398.972 469.062,402.964 484.03,409.842 456.309,401.324 455.31,402.309 489.287,417.386    460.199,407.122 477.541,416.154 462.674,411.221 487.324,424.342 462.573,414.316 485.771,427.589 484.617,429.002    451.606,413.295 449.634,413.667 456.963,419.341 462.59,424.29 471.41,431.421 451.309,420.726 450.588,421.851 466.44,434.051    468.782,437.619 471.385,441.506 456.822,433.018 471.939,446.233 472.315,448.742 468.641,448.113 441.934,428.578    449.096,436.285 440.878,431.1 448.876,439.939 455.146,447.642 446.051,441.323 451.712,448.787 434.824,434.321 445.058,446.533    446.015,449.689 449.592,455.775 442.098,449.937 436.313,445.65 433.687,444.75 430.256,442.803 437.901,454.283 430.154,446.916    438.559,460.081 441.286,466.361 425.048,446.844 426.482,451.174 436.556,468.303 438.423,474.07 422.859,453.188    425.063,459.284 432.657,474.568 415.387,448.66 415.017,450.531 431.014,482.081 427.131,478.597 419.923,468.391 415.854,463.69    416.05,467.434 410.858,459.874 407.848,456.529 419.17,485.877 405.471,457.665 405.175,460.457 405.808,465.85 412.843,488.906    403.658,468.271 408.868,488.104 403.803,478.076 404.496,485.611 394.55,457.781 397.396,472.661 401.858,495.292    399.951,494.991 390.624,463.184 396.291,494.991 391.909,482.52 392.967,496.424 388.076,479.114 385.667,473.903    383.155,466.935 385.625,495.221 380.729,469.484 379.485,470.931 378.241,472.72 378.132,489.112 375.947,481.162    374.672,486.156 373.093,486.897 371.573,490.463 369.718,476.506 368.246,491.395 366.719,486.888 365.191,467.719    363.664,475.055 362.137,462.976 360.609,497.381 359.082,486.847 357.555,465.29 356.027,462.521 354.499,500.486 352.971,473.69    351.442,480.281 349.914,476.813 348.385,486.513 346.854,479.478 345.325,494.981 343.797,468.78 342.268,471.523    340.739,469.995 339.211,500.606 337.683,470.294 336.155,487.664 334.627,479.822 333.1,492.504 331.571,488.137 330.044,492.644    328.516,472.876 326.987,487.802 325.459,494.438 323.931,484.602 322.402,470.548 320.874,469.059 319.345,472.817    317.815,488.619 316.287,488.66 314.759,490.191 313.231,471.473 311.705,461.114 310.179,484.492 308.653,480.91 307.128,474.473    305.604,498.39 304.079,495.163 302.555,465.923 301.03,482.504 299.506,475.552 297.982,488.554 296.458,495.163 294.934,494.326    293.409,462.092 291.884,468.096 290.359,481.26 288.833,500.164 287.308,480.346 285.78,472.607 284.253,480.552 282.725,498.33    281.196,473.092 279.666,492.475 278.135,493.853 276.605,486.269 275.076,486.55 273.547,463.407 272.02,483.221 270.492,477.328    268.965,495.011 267.438,479.021 265.911,481.024 264.385,494.476 262.858,473.362 261.332,463.493 259.805,487.494    258.277,472.208 256.75,463.759 255.221,485.567 253.692,473.057 252.162,497.939 250.63,482.668 249.099,475.099 247.569,461.675    246.04,484.056 244.511,494.573 242.982,483.472 241.454,491.463 239.926,461.965 238.398,498.56 236.869,489.057 235.34,468.811    233.811,469.313 232.28,474.039 230.748,489.021 229.216,472.274 227.686,461.674 226.156,471.873 224.626,478.701    223.097,482.485 221.567,499.938 220.038,477.127 218.507,499.825 216.976,494.322 215.444,484.648 213.912,489.721    212.381,478.781 210.851,467.594 209.321,488.553 207.791,489.222 206.259,476.243 204.727,472.51 203.195,478.592    201.663,490.021 200.132,469.359 198.602,486.129 197.07,478.607 195.537,473.155 194.005,487.775 192.479,476.108 190.95,483.989    189.419,481.024 187.886,464.726 186.355,467.953 184.826,499.536 183.297,461.236 181.769,464.473 180.239,472.027    178.707,491.76 177.173,465.855 175.642,487.301 174.111,486.593 172.58,466.903 171.046,472.284 169.513,473.349 167.98,493.102    166.447,465.908 164.912,472.036 163.379,466.533 161.844,500.01 160.31,487.576 158.774,493.655 157.243,479.777 155.711,471.362    154.175,491.195 152.641,486.018 151.105,462.826 149.568,476.385 148.032,489.866 146.493,488.279 144.952,473.902    143.41,496.339 141.807,485.767 140.027,492.668 138.188,496.317 138.148,464.762 134.542,498.395 135.37,466.363 132.581,481.539    129.286,497.554 129.885,478.055 125.546,498.827 129.51,460.289 123.359,489.9 124.475,474.072 125.244,462.324 124.15,461.16    119.976,474.083 114.692,490.103 119.106,465.428 113.739,480.346 113.401,475.694 110.582,479.896 115.692,458.022    105.881,484.101 109.797,467.423 108.193,467.69 109.774,459.318 100.267,480.235 103.108,468.791 92.317,490.747 92.386,486.066    91.044,484.788 92.198,478.207 86.967,485.215 91.333,472.564 91.137,469.498 98.915,451.704 95.414,455.373 93.781,455.499    93.832,452.713 89.375,457.483 86.022,460.156 76.333,472.425 73.836,473.125 86.343,451.872 81.936,455.717 88.381,444.375    80.356,452.974 75.235,457.268 65.853,466.664 64.794,465.253 78.088,446.73 71.931,451.746 78.763,441.752 64.333,455.657    65.995,451.524 68.457,446.72 68.401,444.67 72.051,439.008 48.907,459.367 71.493,435.794 71.108,434.326 59.085,443.186    66.913,434.413 66.107,433.284 70.125,428.237 44.369,447.003 54.019,437.396 53.25,436.048 38.045,445.223 59.247,428.035    49.327,433.151 56.855,426.249 41.553,434.477 43.649,431.205 47.905,426.726 39.622,429.852 59.425,416.605 60.88,414.288    34.845,426.817 30.06,427.417 57.974,411.428 36.884,420.218 37.783,418.012 57.428,407.39 50.193,409.142 37.572,412.925    28.749,414.79 40.521,408.426 23.247,413.231 53.77,400.52 26.397,408.462 33.311,404.441 45.12,399.129 25.947,403.319    25.523,401.699 30.195,398.73 41.267,394.309 28.58,395.823 40.021,391.642 38.643,390.449 18.806,392.788 47.209,385.954    15.347,389.841 21.203,387.165 38.285,383.135 20.144,383.898 36.769,380.383 37.58,378.836 15.145,379.195 23.932,376.848    28.274,374.976 39.957,372.931 38.155,371.559 35.497,370.156 42.406,368.68 14.471,367.153 46.341,365.627 34.631,364.102    13.995,362.575 40.875,361.049 22.591,359.522 48.65,357.996 49.603,356.47 50.59,354.942 18.604,353.416 30.289,351.889    33.573,350.36 47.304,348.833 16.868,347.304 42.151,345.776 28.652,344.248 14.007,342.721 19.643,341.193 42.208,339.666    50.436,338.14 30.353,336.612 13.527,335.086 23.944,333.559 14.229,332.032 23.993,330.506 38.322,328.979 44.834,327.452    33.102,325.925 39.668,324.398 48.931,322.872 16.955,321.345 25.842,319.816 49.754,318.288 39.081,316.761 33.443,315.234    13.598,313.708 30.068,312.183 35.566,310.657 24.559,309.133 23.933,307.609 44.649,306.085 31.795,304.562 37.119,303.038    21.057,301.516 23.263,299.992 29.397,298.47 11.037,296.946 20.974,295.423 15.413,293.899 16.604,292.376 26.717,290.853    50.309,289.327 44.568,287.803 12.199,286.277 17.06,284.751 27.551,283.224 26.376,281.695 43.755,280.167 37.833,278.637    25.475,277.108 34.627,275.58 28.911,274.053 50.145,272.525 33.47,271 18.677,269.474 28.459,267.948 28.773,266.423    38.564,264.897 16.13,263.372 39.971,261.847 30.125,260.32 23.842,258.794 44.486,257.268 40.722,255.74 33.523,254.211    23.063,252.682 35.532,251.152 48.665,249.622 29.629,248.093 30.178,246.565 36.22,245.037 30.194,243.51 49.713,241.983    22.533,240.456 39.77,238.929 23.468,237.401 49.537,235.874 16.485,234.345 30.765,232.815 26.014,231.285 21.593,229.754    14.2,228.225 47.982,226.696 15.393,225.167 49.456,223.639 40.361,222.111 48.697,220.582 11.65,219.053 37.996,217.523    47.557,215.991 18.232,214.461 30.327,212.931 33.189,211.402 49.085,209.873 28.491,208.344 34.749,206.813 25.309,205.283    17.94,203.751 49.219,202.221 16.38,200.691 29.2,199.161 30.709,197.631 15.75,196.1 31.969,194.568 15.441,193.043    35.146,191.516 37.001,189.986 46.229,188.454 46.088,186.924 40.163,185.396 47.422,183.869 48.837,182.341 28.795,180.813    27.004,179.282 26.715,177.749 14.458,176.219 43.047,174.689 20.332,173.159 11.01,171.626 14.583,170.094 12.231,168.563    17.985,167.031 19.292,165.497 49.906,163.965 35.344,162.431 18.165,160.898 38.803,159.363 31.991,157.833 32.037,156.303    42.788,154.768 33.18,153.235 43.006,151.7 14.785,150.164 35.761,148.629 37.085,147.091 22.23,145.551 41.903,144.011    14.944,142.261 21.101,140.675 48.21,140.092 45.325,138.637 36.708,136.707 30.733,134.757 45.161,134.568 26.57,131.197    31.201,130.149 42.496,130.127 42.085,128.661 14.551,122.718 27.779,123.265 42.429,124.447 14.664,117.271 38.88,120.791    29.144,116.989 48.89,120.286 34.479,115.086 36.042,113.925 52.202,117.103 26.756,107.857 44.385,111.834 52.129,112.972    39.781,107.18 46.451,108.056 54.155,109.523 33.684,99.867 27.028,95.323 55.003,105.62 40.028,97.417 32.354,92.112    39.004,93.477 33.496,88.938 56.518,99.012 51.384,94.741 37.188,85.226 51.304,91.404 32.701,78.724 49.092,86.664 63.821,94.148    62.414,91.709 56.02,85.854 37.048,71.063 49.567,77.773 40.413,69.164 66.3,86.395 68.558,86.483 67.453,83.951 69.958,84.286    59.169,73.556 43.835,58.356 47.691,59.379 56.275,64.836 47.64,54.559 66.885,70.575 58.805,60.561 75.089,74.774 70.82,68.403    54.325,48.619 64.434,57.109 59.179,48.745 71.55,60.465 62.806,47.671 76.23,61.448 71.559,53.2 70.439,49.145 65.706,40.087    66.3,37.899 77.958,51.302 78.923,49.968 88.438,61.439 91.846,64.219 89.155,57.491 89.305,55.053 79.357,35.393 91.208,52.653    93.346,53.548 90.987,46.153 96.993,54.453 94.087,45.571 90.384,34.468 103.01,57.552 100.314,48.415 100.124,44.381    105.523,53.452 95.652,25.294 100.273,32.423 103.77,37.151 105.947,38.635 107.591,38.728 112.728,49.651 110.201,36.889    108.196,24.634 115.019,42.761 114.794,36.287 114.951,30.63 119.229,41.847 115.886,20.058 120.06,31.686 120.189,24.038    123.948,35.645 124.39,29.05 125.99,28.984 130.621,51.27 129.056,27.865 132.604,45.76 132.065,25.737 133.611,24.7    136.24,39.408 137.136,29.386 138.48,23.804 140.54,39.292 142.031,43.459 143.41,32.809 144.938,48.628 146.465,19.924    147.992,17.813 149.519,22.351 151.046,41.529 152.574,40.805 154.102,20.851 155.629,14.689 157.157,19.751 158.686,41.963    160.214,33.891 161.743,41.128 163.272,36.956 164.801,38.505 166.331,13.361 167.86,26.995 169.388,18.242 170.917,22.438    172.445,17.136 173.973,15.506 175.501,43.65 177.029,15.714 178.557,48.601 180.084,24.678 181.612,33.749 183.14,33.201    184.668,42.225 186.197,46.027 187.726,51.109 189.253,14.304 190.782,34.353 192.312,33.825 193.841,51.362 195.369,42.039    196.897,22.987 198.424,33.651 199.951,17.633 201.477,28.25 203.002,40.298 204.528,18.989 206.053,32.083 207.577,23.766    209.102,21.626 210.626,24.614 212.15,18.297 213.674,12.225 215.198,34.718 216.723,25.543 218.247,28.3 219.772,26.316    221.297,12.939 222.823,30.261 224.349,47.917 225.875,45.197 227.403,36.229 228.931,37.017 230.46,34.248 231.99,31.835    233.521,23.534 235.051,41.893 236.58,39.014 238.109,49.016 239.637,40.486 241.164,27.442 242.691,51.485 244.218,12.777    245.745,46.049 247.271,40.609 248.797,14.794 250.324,22.013 251.851,41.915 253.378,48.701 254.906,49.353 256.435,22.999    257.965,48.372 259.495,42.155 261.026,17.109 262.558,27.594 264.087,30.42 265.616,32.86 267.146,20.45 268.674,43.853    270.202,37.857 271.73,16.762 273.259,49.426 274.787,17.828 276.316,43.111 277.846,29.528 279.377,51.106 280.908,25.277    282.439,20.547 283.971,43.996 285.5,34.795 287.03,12.049 288.56,31.017 290.089,38.184 291.618,46.841 293.148,41.896    294.68,15.388 296.213,22.589 297.744,28.823 299.275,30.444 300.806,20.807 302.336,35.532 303.866,32.837 305.397,44.107    306.929,43.453 308.462,15.301 309.993,47.641 311.523,22.646 313.055,51.511 314.586,37.843 316.119,29.411 317.651,44.179    319.178,12.152 320.706,28.75 322.236,30.863 323.771,31.334 325.301,46.23 326.83,38.295 328.358,22.477 329.888,17.346    331.417,14.464 332.949,28.261 334.483,19.574 336.015,30.819 337.545,18.866 339.076,19.318 340.61,29.022 342.144,37.899    343.676,43.143 345.209,27.707 346.744,29.28 348.277,40.644 349.813,15.834 351.347,39.944 352.882,17.568 354.413,50.28    355.944,39.944 357.48,14.356 359.015,17.887 360.551,34.172 362.089,32.786 363.624,38.138 365.163,43.648 366.704,35.176    368.246,39.839 369.82,28.725 371.396,28.708 372.424,42.271 374.671,26.489 376.153,28.418 376.755,40.607 377.198,51.033    378.504,50.79 381.096,40.147 384.02,29.29 382.14,52.517 388.366,22.336 391.407,14.91 391.187,25.546 391.859,30.448    394.021,28.002 398.436,16.317 393.724,42.595 400.48,22.632 399.142,33.819 394.564,54.916 401.339,37.302 399.355,48.358    409.922,21.529 410.355,25.597 401.114,55.461 406.607,44.826 409.793,40.797 408.363,48.155 407.576,53.515 417.82,34.093    408.635,57.614 410.154,57.468 426.97,26.873 422.763,38.867 413.675,59.221 431.888,29.091 424.787,45.103 417.862,59.893    424.117,52.19 428.459,48.03 430.51,47.709 426.503,56.548 440.147,39.205 434.264,50.538 424.147,67.11 431.564,59.366    430.971,62.511 430.606,65.225 448.782,45.067 442.413,55.396 443.628,56.403 445.732,56.408 451.934,51.951 449.966,56.552    434.632,74.894 444.743,66.507 443.576,69.75 452.326,63.347 448.832,68.793 460.817,59.926 438.321,82.128 466.523,59.513    455.605,70.97 459.624,69.701 443.729,84.357 470.091,65.691 468.362,69.185 473.297,67.696 460.268,79.089 450.195,87.884    466.626,78.541 468.636,79.162 451.89,91.62 476.921,77.944 465.011,86.992 450.783,96.915 460.498,93.008 483.336,82.366    465.533,93.63 484.305,85.861 451.996,103.513 467.926,97.461 479.071,94.071 487.127,92.382 468.192,102.235 471.902,102.333    460.793,108.266 483.441,101.297 491.644,100.166 488.878,103.004 484.464,106.259 469.025,112.79 478.719,111.435 495.23,108.453    469.227,117.199 495.786,112.014 458.987,122.556 484.684,118.164 497.625,117.155 486.301,121.168 473.253,125.163    466.506,127.748 496.439,124.617 479.535,128.714 479.111,130.311 483.915,131.324 498.65,131.522 492.432,133.819    473.017,136.838 495.007,137.093 499.884,138.629 464.188,141.376 464.479,142.706 494.98,144.011 486.647,145.537    483.515,147.063 461.544,148.589 486.57,150.115 499.537,151.642 470.366,153.168 495.085,154.694 475.348,156.221    485.453,157.748 460.72,159.275 488.386,160.802 492.605,162.33 476.313,163.858 467.941,165.386 478.853,166.915 467.501,168.442    490.074,169.97 470.912,171.497 477.416,173.024 469.1,174.551 490.177,176.078 500.319,177.604 472.075,179.131 499.727,180.658    479.75,182.185 494.411,183.711 461.826,185.239 480.92,186.766 466.827,188.293 495.44,189.82 467.233,191.348 493.2,192.876    496.838,194.404 498.068,195.932 483.894,197.458 470.911,198.984 488.596,200.51 480.977,202.035 485.035,203.559    493.406,205.083 470.082,206.607 492.92,208.13 479.514,209.653 473.797,211.177 470.215,212.7 484.491,214.223 491.444,215.746    466.535,217.269 462.901,218.792 476.84,220.316 467.729,221.84 475.084,223.364 499.607,224.889 478.589,226.415 499.722,227.941    460.894,229.468 466.671,230.996 462.204,232.525 485.271,234.055 474.977,235.583 483.666,237.112 491.076,238.639    497.438,240.166 493.304,241.692 498.999,243.218 468.537,244.744 466.07,246.269 477.274,247.794 499.036,249.32 480.111,250.845    478.53,252.371 480.52,253.897 487.006,255.424 480.178,256.952 465.813,258.48 483.281,260.009 487.894,261.539 494.373,263.069    500.31,264.599 495.625,266.127 495.618,267.654 488.925,269.182 471.451,270.709 490.715,272.235 498.727,273.763 478.201,275.29    485.505,276.818 469.442,278.347 460.836,279.876 461.703,281.407 475.747,282.938 497.608,284.467 472.118,285.996    481.767,287.524 489.293,289.053 496.944,290.58 468.022,292.109 473.216,293.639 496.798,295.169 471.217,296.7 491.532,298.23    476.219,299.76 471.323,301.289 468.65,302.818 495.182,304.348 483.599,305.878 462.568,307.408 481.931,308.939 499.084,310.47    493.846,312 492.761,313.53 467.04,315.061 461.237,316.592 481.081,318.123 480.427,319.648 482.171,321.176 476.33,322.705    493.229,324.237 498.307,325.767 487.96,327.295 499.323,328.822 469.635,330.35 491.666,331.878 490.305,333.409 490.046,334.941    469.398,336.472 483.232,338.002 487.02,339.531 495.055,341.064 461.641,342.597 471.044,344.128 499.546,345.66 483.008,347.193    488.996,348.726 485.416,350.26 471.012,351.793 489.813,353.327 475.536,354.857 491.314,356.388 471.861,357.923    489.774,359.455 490.421,360.99 482.363,362.526 474.312,364.062 469.028,365.599 489.126,351.47  " style="fill:#FF0087;"/><g><path d="M172.429,321.872c36.723,0,66.493-29.345,66.493-65.524c0-36.166-29.77-65.53-66.493-65.53    c-36.722,0-66.492,29.364-66.492,65.53C105.938,292.527,135.707,321.872,172.429,321.872z" style="fill:#FFFFFF;"/><path d="M339.245,190.818c-36.722,0-66.474,29.364-66.474,65.53c0,36.18,29.752,65.524,66.474,65.524    c36.723,0,66.475-29.345,66.475-65.524C405.72,220.182,375.968,190.818,339.245,190.818z" style="fill:#FFFFFF;"/></g></g><g id="Layer_1"/></svg>