<?xml version="1.0" ?><!DOCTYPE svg  PUBLIC '-//W3C//DTD SVG 1.1//EN'  'http://www.w3.org/Graphics/SVG/1.1/DTD/svg11.dtd'><svg height="512px" style="enable-background:new 0 0 512 512;" version="1.1" viewBox="0 0 512 512" width="512px" xml:space="preserve" xmlns="http://www.w3.org/2000/svg" xmlns:xlink="http://www.w3.org/1999/xlink"><g id="social__x2C__media__x2C__social_media__x2C___google__x2C_"><polygon points="470.498,368.68 498.259,370.45 494.076,372.109 467.795,372.772 466.39,374.063    500.278,377.701 480.332,377.885 494.202,380.744 472.11,380.083 490.158,383.725 480.141,384.058 466.979,383.64 484.41,387.887    487.444,390.06 486.892,391.638 478.863,391.667 494.498,396.697 489.139,397.264 484.035,397.735 459.906,393.034 488.15,402.279    477.971,401.045 488.119,405.834 481.139,405.361 491.477,410.594 487.498,411.078 464.316,404.3 460.637,404.373 457.562,404.591    476.563,413.982 457.365,407.378 466.662,413.025 457.139,410.188 473.496,419.621 456.29,412.754 476.701,424.887    478.359,427.671 476.591,428.646 448.854,414.693 464.83,425.613 454.957,421.384 458.065,424.976 446.713,419.338    471.634,437.521 474.463,441.529 472.239,442.111 448.341,426.832 454.299,432.992 455.699,435.929 463.9,444.354 460.43,443.68    441.727,430.099 451.35,440.132 441.53,433.428 442.232,435.877 439.569,435.257 459.131,455.931 460.384,459.572 433.322,434.622    439.617,443.019 446.352,452.301 450.96,459.705 455.077,466.906 447.367,460.674 429.597,442.015 439.743,456.548    445.672,466.539 428.063,446.447 429.828,451.034 435.706,461.516 435.833,464.41 427.806,455.532 441.225,478.273    437.548,475.904 436.297,477.193 417.067,448.967 428.618,471.051 428.019,473.284 414.516,452.3 425.622,475.781 421.852,472.104    417.456,466.891 409.213,453.326 412.602,463.6 420.85,485.369 415.867,478.283 408.592,465.126 416.772,489.288 415.78,491.625    402.721,461.601 406.288,475.688 410.424,492.684 405.137,482.191 399.202,468.535 395.6,461.346 402.421,490.642 397.333,478.187    392.768,466.339 391.93,468.735 392,475.567 391.159,478.888 392.585,494.438 388.88,483.622 383.894,463.114 387.7,497.311    383.868,482.287 382.227,481.769 380.129,476.863 378.747,478.058 377.568,482.11 375.481,474.219 375.198,496.004    373.534,497.889 371.789,498.559 369.762,479.568 368.246,497.962 366.719,481.882 365.191,481.65 363.664,497.146    362.137,469.754 360.609,474.316 359.082,491.634 357.555,498.855 356.027,476.721 354.499,494.757 352.971,494.483    351.442,475.619 349.914,500.477 348.385,464.43 346.854,470.499 345.325,475.287 343.797,498.05 342.268,469.422 340.739,496.616    339.211,467.631 337.683,472.784 336.155,486.627 334.627,483.749 333.1,492.845 331.571,488.45 330.044,478.853 328.516,470.482    326.987,489.815 325.459,497.794 323.931,465.316 322.402,474.31 320.874,500.401 319.345,476.811 317.815,473.778    316.287,481.728 314.759,485.982 313.231,495.958 311.705,500.563 310.179,498.394 308.653,492.521 307.128,499.566    305.604,464.724 304.079,480.609 302.555,480.395 301.03,464.726 299.506,482.604 297.982,469.403 296.458,475.237    294.934,470.849 293.409,489.03 291.884,468.407 290.359,476.053 288.833,471.205 287.308,491.396 285.78,466.843 284.253,496.837    282.725,497.649 281.196,482.894 279.666,468.823 278.135,497.971 276.605,489.809 275.076,461.133 273.547,490.224    272.02,463.632 270.492,479.969 268.965,498.396 267.438,464.396 265.911,461.462 264.385,484.916 262.858,469.785    261.332,497.961 259.805,500.758 258.277,475.98 256.75,465.526 255.221,497.907 253.692,465.42 252.162,498.531 250.63,493.633    249.099,491.295 247.569,497.936 246.04,472.181 244.511,499.233 242.982,498.774 241.454,470.596 239.926,462.934    238.398,466.784 236.869,483.182 235.34,480.267 233.811,478.547 232.28,471.429 230.748,474.472 229.216,482.886 227.686,498.337    226.156,485.725 224.626,472.215 223.097,484.011 221.567,468.695 220.038,488.043 218.507,466.935 216.976,481.604    215.444,495.549 213.912,478.833 212.381,461.52 210.851,497.363 209.321,485.036 207.791,471.043 206.259,473.96 204.727,492.776    203.195,463.622 201.663,500.922 200.132,482.666 198.602,466.239 197.07,468.928 195.537,485.467 194.005,495.615    192.479,487.404 190.95,482.512 189.419,492.764 187.886,464.569 186.355,485.058 184.826,495.841 183.297,491.457 181.769,465.64    180.239,464.765 178.707,500.734 177.173,465.625 175.642,467.403 174.111,492.52 172.58,495.5 171.046,481.287 169.513,467.866    167.98,480.677 166.447,498.021 164.912,470.799 163.379,481.502 161.844,472.384 160.31,497.056 158.774,481.396 157.243,477.609    155.711,500.792 154.175,492.976 152.641,474.13 151.105,471.264 149.568,479.263 148.032,479.229 146.493,499.425 144.952,468.08    143.41,478.869 141.951,475.72 139.952,495.506 139.485,463.984 136.817,489.21 136.792,465.255 132.974,495.812 132.605,481.284    129.098,499.291 131.492,464.879 126.408,492.473 126.114,482.873 125.812,474.97 126.51,462.655 125.452,461.24 123.372,464.93    121.578,466.824 114.618,490.42 117.495,471.856 111.841,487.498 115.463,468.314 108.04,488.535 109.547,477.876 109.301,473.575    112.659,458.995 109.166,464.954 108.434,462.928 101.047,478.217 97.21,483.46 95.601,482.906 91.424,488.277 94.924,476.187    98.941,463.795 86.308,486.574 90.087,475.05 84.8,481.726 87.179,473.598 92.06,461.429 95.462,452.56 95.136,450.5    84.752,465.08 88.06,456.91 89.063,452.737 74.966,471.43 80.907,459.791 73.611,467.508 75.536,462.047 73.553,462.063    66.998,467.967 77.152,452.384 68.612,460.564 80.472,443.884 71.343,452.43 77.891,442.738 62.859,457.279 74.681,442.219    70.858,444.216 70.349,442.693 72.504,438.56 64.945,443.944 64.07,442.732 68.901,436.334 68.544,434.801 56.874,443.062    45.253,450.774 55.053,440.525 50.009,442.535 42.552,446.238 45.704,441.7 67.977,423.419 48.901,435.362 40.691,439.089    35.716,440.374 55.359,425.531 35.248,436.491 63.506,417.217 47.042,425.463 30.852,432.982 61.663,413.853 40.762,423.638    46.349,418.939 55.51,412.666 53.085,412.357 57.814,408.63 30.708,419.462 56.923,406.214 25.377,418.037 57.418,403.242    24.691,414.55 34.103,409.202 19.943,412.549 41.134,403.448 55.02,397.386 54.612,396.189 19.004,405.367 26.984,401.29    27.131,399.542 50.96,391.88 34.254,394.485 34.144,392.941 29.349,392.374 17.652,393.011 48.209,385.775 39.877,385.808    38.422,384.58 23.304,385.178 25.161,383.283 26.438,381.509 36.14,378.973 44.894,376.79 12.041,377.649 22.399,375.293    11.759,374.062 28.682,371.815 43.502,370.049 13.977,368.68 25.628,367.153 17.05,365.627 19.51,364.102 23.342,362.575    17.2,361.049 25.663,359.522 33.934,357.996 35.468,356.47 22.485,354.942 19.616,353.416 46.99,351.889 31.056,350.36    44.112,348.833 37.423,347.304 14.026,345.776 44.014,344.248 37.725,342.721 11.856,341.193 45.423,339.666 22.772,338.14    18.714,336.612 16.399,335.086 31.078,333.559 14.034,332.032 32.939,330.506 45.976,328.979 23.295,327.452 47.692,325.925    35.17,324.398 20.732,322.872 11.745,321.345 41.66,319.816 19.034,318.288 41.631,316.761 24.305,315.234 25.397,313.708    42.184,312.183 26.564,310.657 27.505,309.133 40.832,307.609 50.447,306.085 35.788,304.562 40.329,303.038 19.459,301.516    24.724,299.992 15.384,298.47 15.124,296.946 34.386,295.423 34.359,293.899 27.545,292.376 19.386,290.853 26.013,289.327    40.746,287.803 16.372,286.277 32.125,284.751 40.161,283.224 34.924,281.695 17.996,280.167 48.619,278.637 37.365,277.108    32.904,275.58 23.74,274.053 47.255,272.525 32.081,271 32.48,269.474 45.065,267.948 32.25,266.423 20.582,264.897    15.274,263.372 29.082,261.847 25.957,260.32 16.253,258.794 17.771,257.268 13.345,255.74 24.557,254.211 11.084,252.682    35.074,251.152 48.709,249.622 30.836,248.093 22.062,246.565 21.166,245.037 38.957,243.51 17.84,241.983 41.243,240.456    29.377,238.929 26,237.401 17.129,235.874 48.257,234.345 36.873,232.815 29.373,231.285 25.393,229.754 23.967,228.225    16.835,226.696 48.747,225.167 43.177,223.639 44.059,222.111 42.166,220.582 18.279,219.053 19.465,217.523 31.305,215.991    24.396,214.461 41.486,212.931 15.881,211.402 45.243,209.873 31.598,208.344 15.411,206.813 44.237,205.283 48.033,203.751    29.021,202.221 12.854,200.691 11.192,199.161 25.233,197.631 26.218,196.1 11.394,194.568 23.785,193.043 40.249,191.516    34.405,189.986 17.934,188.454 49.561,186.924 21.202,185.396 17.798,183.869 17.592,182.341 25.056,180.813 18.972,179.282    42.698,177.749 35.586,176.219 46.413,174.689 15.161,173.159 48.043,171.626 20.953,170.094 15.826,168.563 18.729,167.031    41.216,165.497 40.798,163.965 17.62,162.431 50.053,160.898 22.813,159.363 13.845,157.833 37.678,156.303 31.152,154.768    44.169,153.235 32.034,151.7 19.972,150.164 20.844,148.629 21.345,147.091 18.909,145.551 33.968,144.011 13.581,142.243    29.415,140.897 13.675,138.708 26.803,137.637 20.91,135.643 20.871,133.955 29.41,133.082 13.559,129.78 13.579,127.991    50.833,131.262 14.295,124.482 19.286,123.496 43.291,126.029 35.793,123.171 24.04,119.211 27.751,118.324 45.448,120.839    44.209,119.113 17.141,110.484 48.884,117.523 36.23,112.393 31.294,109.265 53.85,114.91 42.589,109.723 45.987,109.389    48.189,108.702 46.186,106.439 42.537,103.436 33.774,98.152 50.487,103.655 53.035,103.3 30.582,91.282 59.747,103.551    43.407,93.917 54.284,97.85 51.629,94.873 41.474,87.605 46.134,88.442 35.616,80.447 61.477,94.224 33.646,75.166 41.354,78.053    38.903,74.423 50.864,80.568 41.591,72.127 65.35,87.329 42.292,68.4 48.953,71.356 48.273,68.743 65.822,80.914 57.956,72.539    54.91,67.904 58.391,68.858 51.892,60.847 61.299,67.335 74.472,77.865 50.629,52.489 61.856,61.343 55.255,52.162 63.748,58.721    81.221,75.587 66.904,57.482 62.395,49.823 78.87,66.865 64.945,47.577 68.135,48.874 71.405,50.401 64.932,39.051 70.412,43.555    72.73,43.899 90.303,66.563 87.217,59.608 92.95,65.926 80.752,44.095 77.577,35.774 88.518,50.918 92.198,54.384 92.669,52.326    91.643,47.377 98.031,56.456 85.49,28.415 94.368,42.701 91.872,33.733 102.319,52.864 103.498,52.149 105.805,54.125    96.345,27.018 109.712,56.853 103.036,35.168 111.832,55.239 107.89,39.606 111.725,46.556 110.729,38.594 108.977,27.291    111.122,28.786 112.688,28.327 119.692,49.616 116.309,29.427 122.681,50.816 119.146,27.263 119.094,18.332 122.116,25.349    122.47,17.34 128.294,44.347 130.492,50.319 127.242,13.003 130.415,25.578 130.868,13.114 134.805,39.458 135.248,24.695    138.08,46.856 138.01,12.218 139.908,15.659 141.862,30.825 143.41,34.49 144.938,51.491 146.465,29.552 147.992,51.286    149.519,15.517 151.046,37.203 152.574,19.267 154.102,40.866 155.629,50.163 157.157,36.842 158.686,23.489 160.214,51.04    161.743,47.742 163.272,13.967 164.801,37.66 166.331,31.475 167.86,47.968 169.388,27.603 170.917,32.685 172.445,15.743    173.973,36.683 175.501,30.109 177.029,34.838 178.557,14.771 180.084,24.641 181.612,17.15 183.14,25.613 184.668,41.774    186.197,18.094 187.726,23.542 189.253,40.228 190.782,32.429 192.312,49.917 193.841,38.682 195.369,23.557 196.897,44.034    198.424,20.032 199.951,15.361 201.477,22.24 203.002,17.387 204.528,33.879 206.053,45.681 207.577,31.702 209.102,45.176    210.626,27.691 212.15,37.811 213.674,36.857 215.198,30.569 216.723,49.302 218.247,47.387 219.772,45.227 221.297,39.821    222.823,23.259 224.349,37.245 225.875,51.23 227.403,32.595 228.931,48.991 230.46,19.269 231.99,50.398 233.521,33.776    235.051,20.752 236.58,32.108 238.109,42.266 239.637,30.514 241.164,18.132 242.691,28.488 244.218,20.669 245.745,18.254    247.271,15.856 248.797,45.896 250.324,50.232 251.851,39.508 253.378,41.632 254.906,14.367 256.435,27.765 257.965,39.093    259.495,50.788 261.026,15.129 262.558,27.34 264.087,19.621 265.616,46.465 267.146,23.863 268.674,27.785 270.202,40.971    271.73,34.113 273.259,32.317 274.787,41.347 276.316,27.476 277.846,19.011 279.377,22.032 280.908,42.288 282.439,46.628    283.971,35.61 285.5,43.93 287.03,34.141 288.56,22.986 290.089,17.406 291.618,37.501 293.148,14.393 294.68,31.086    296.213,16.109 297.744,43.367 299.275,15.343 300.806,51.083 302.336,18.879 303.866,42.934 305.397,19.872 306.929,50.867    308.462,32.331 309.993,38.924 311.523,50.898 313.055,38.431 314.586,42.105 316.119,50.5 317.651,33.239 319.178,28.207    320.706,36.731 322.236,36.762 323.771,46.665 325.301,45.147 326.83,24.536 328.358,22.346 329.888,48.848 331.417,30.281    332.949,32.351 334.483,38.882 336.015,47.014 337.545,51.518 339.076,14.759 340.61,36.065 342.144,36.986 343.676,43.418    345.209,22.654 346.744,16.083 348.277,48.423 349.813,39.72 351.347,39.83 352.882,25.157 354.413,14.965 355.944,42.325    357.48,36.375 359.015,15.938 360.551,48.064 362.089,50.539 363.624,47.617 365.163,14.511 366.704,33.22 368.246,34.293    369.839,27.365 370.939,45.801 372.212,47.486 375.271,15.276 375.078,44.38 375.899,51.172 378.533,36.882 379.776,39.056    379.876,50.104 381.002,51.446 382.241,51.837 385.001,42.885 389.108,27.802 390.261,30.356 389.548,41.62 390.855,42.345    395.397,29.244 396.967,29.624 400.324,23.225 397.213,40.726 401.256,32.174 396.545,52.823 406.986,24.84 402.083,44.602    404.548,41.944 409.084,33.967 413.665,26.565 413.357,31.939 407.204,50.928 410.972,45.709 411.798,47.437 414.117,45.896    417.533,42.241 420.136,40.497 414.965,53.896 421.869,43.958 425.825,40.023 433.79,29.362 416.022,63.009 428.286,45.336    426.764,50.731 421.254,62.022 429.167,52.549 425.867,60.011 430.842,55.384 445.918,37.166 423.652,69.944 438.479,52.745    429.202,66.999 440.719,54.978 450.661,45.535 437.835,63.141 441.54,61.15 441.978,62.917 442.266,64.801 433.16,76.428    447.011,64.207 438.52,74.743 458.388,57.522 438.779,78.196 461.857,58.979 452.01,70.001 464.562,61.203 453.588,72.661    463.463,66.571 444.45,83.785 442.989,86.588 460.849,74.812 449.45,85.067 450.128,86.264 475.948,70.169 470.034,76.265    454.107,88.578 450.104,92.742 453.356,92.293 469.629,84.263 461.449,90.801 477.951,83.31 476.072,86.27 458.425,97.324    452.456,101.887 466.403,96.531 475.96,93.703 462.873,101.398 465.361,101.854 484.758,95.293 475.181,101.01 475.339,102.638    489.033,99.218 485.148,102.475 459.381,113.024 487.846,105.16 459.48,115.746 478.442,111.516 489.792,109.973 459.646,119.734    468.34,118.899 490.757,115.049 483.865,118.345 480.34,120.725 485.564,121.311 472.258,125.341 461.655,128.545 487.812,125.917    473.438,129.547 462.928,132.286 483.668,131.351 461.037,135.09 480.305,134.805 478.188,136.487 494.742,137.107    495.464,138.807 476.988,141.035 485.453,142.405 498.664,144.011 464.05,145.537 481.248,147.063 484.863,148.589    472.006,150.115 479.582,151.642 467.476,153.168 479.899,154.694 472.5,156.221 478.216,157.748 489.77,159.275 462.424,160.802    465.043,162.33 498.668,163.858 471.368,165.386 480.021,166.915 486.971,168.442 493.859,169.97 490.912,171.497 471.026,173.024    473.218,174.551 490.984,176.078 496.857,177.604 493.696,179.131 482.805,180.658 496.338,182.185 481.348,183.711    475.756,185.239 487.906,186.766 481.157,188.293 484.794,189.82 470.609,191.348 466.747,192.876 484.743,194.404    462.398,195.932 466.41,197.458 481.577,198.984 491.067,200.51 463.888,202.035 494.303,203.559 482.972,205.083 475.185,206.607    477.699,208.13 482.028,209.653 481.711,211.177 475.624,212.7 470.86,214.223 479.197,215.746 469.486,217.269 489.07,218.792    495.846,220.316 500.426,221.84 489.693,223.364 483.55,224.889 475.602,226.415 492.633,227.941 479.536,229.468 486.386,230.996    498.062,232.525 472.721,234.055 484.729,235.583 483.166,237.112 471.328,238.639 461.894,240.166 468.013,241.692    483.978,243.218 490.844,244.744 462.872,246.269 472.75,247.794 493.165,249.32 489.734,250.845 466.242,252.371 482.86,253.897    498.835,255.424 483.627,256.952 492.205,258.48 500.316,260.009 498.399,261.539 461.156,263.069 493.952,264.599    461.479,266.127 476.365,267.654 471.436,269.182 488.944,270.709 473.517,272.235 470.658,273.763 479.724,275.29    464.328,276.818 472.135,278.347 483.687,279.876 462.543,281.407 462.743,282.938 461.895,284.467 494.454,285.996    473.512,287.524 474.76,289.053 480.364,290.58 487.899,292.109 471.122,293.639 464.221,295.169 487.335,296.7 477.795,298.23    479.711,299.76 472.726,301.289 480.379,302.818 479.369,304.348 474.907,305.878 489.489,307.408 477.977,308.939 487.977,310.47    484.765,312 472.85,313.53 471.475,315.061 500.012,316.592 497.852,318.123 489.679,319.648 467.123,321.176 472.354,322.705    469.541,324.237 478.911,325.767 479.438,327.295 496.57,328.822 497.773,330.35 485.482,331.878 477.145,333.409 484.131,334.941    499.484,336.472 470.894,338.002 462.948,339.531 478.899,341.064 499.025,342.597 466.679,344.128 488.385,345.66    493.133,347.193 499.766,348.726 497.003,350.26 464.987,351.793 463.246,353.327 490.144,354.857 476.66,356.388 493.063,357.923    461.594,359.455 475.444,360.99 470.706,362.526 489.249,364.062 480.526,365.599 482.358,372.727  " style="fill:#00B670;"/><g><path d="M283.512,312.311l59.22-1.719v50.227c0,7.112,0.101,8.264-11.921,12.067    c-16.889,4.333-35.972,5.192-53.409,3.748c-59.137-4.81-104.203-50.52-114.898-107.528    c-10.109-54.08,15.964-105.257,60.042-126.375c21.536-10.293,47.371-15.139,75.376-6.362c17.574,5.485,33.502,15.377,47.39,29.035    l-9.661,17.206l18.188-5.046l28.059-27.993c-47.628-38.58-129.361-43.644-183.503-16.858    c-47.088,23.275-81.341,69.534-83.024,121.204c-1.756,54.373,30.566,97.358,63.318,118.989    c54.142,35.708,147.989,27.736,204.518-0.146l-0.019-5.192h0.019v-56.974l13.146-15.085h-82.348L283.512,312.311z" style="fill:#FFFFFF;"/></g></g><g id="Layer_1"/></svg>