<?xml version="1.0" ?><!DOCTYPE svg  PUBLIC '-//W3C//DTD SVG 1.1//EN'  'http://www.w3.org/Graphics/SVG/1.1/DTD/svg11.dtd'><svg height="512px" style="enable-background:new 0 0 512 512;" version="1.1" viewBox="0 0 512 512" width="512px" xml:space="preserve" xmlns="http://www.w3.org/2000/svg" xmlns:xlink="http://www.w3.org/1999/xlink"><g id="social__x2C__media__x2C__social_media__x2C___google_chrome__x2C_"><polygon points="488.556,368.68 471.317,370.09 496.18,372.166 476.332,373.114 486.924,375.162    461.905,375.112 494.848,379.065 461.776,377.668 476.091,380.514 462.746,380.378 487.124,385.005 477.038,385.151    463.544,384.459 461.587,385.451 495.037,393.207 464.608,388.721 495.801,397.002 469.311,392.592 474.309,395.297    480.452,398.474 483.613,401 472.584,399.458 491.514,406.888 485.239,406.694 457.423,398.997 475.214,406.697 489.808,413.77    469.421,407.779 487.476,416.655 453.815,404.454 459.747,408.402 465.614,412.552 455.246,409.301 456.324,411.281    475.845,422.594 469.329,421.056 473.11,424.851 452.842,415.45 470.132,426.894 450.425,417.086 472.624,432.169 460.104,426.254    450.168,421.588 450.385,423.332 463.586,434.044 445.695,423.298 452.664,429.99 447.195,427.661 473.111,449.355 469.18,448.541    453.322,437.877 452.033,438.753 465.4,452.238 444.687,436.235 455.498,447.965 450.794,445.762 461.47,458.169 434.469,433.971    437.391,438.764 435.362,438.581 432.156,437.09 432.447,439.314 436.574,445.955 439.771,451.834 428.188,440.31 437.821,454.186    433.106,450.656 434.252,454.481 442.119,467.463 427.422,450.11 432.534,459.739 428.789,456.965 425.066,454.021    418.708,446.766 420.461,451.959 430.704,471.358 416.501,450.527 429.345,475.595 418.461,459.422 428.757,481.616    421.635,471.693 418.086,468.149 418.645,472.787 419.099,477.491 413.316,468.661 417.95,483.07 406.283,459.59 414.328,483.209    405.97,466.237 407.045,473.264 401.376,461.834 404.036,473.878 397.251,457.873 405.247,488.046 398.174,470.081    394.896,463.716 400.261,489.25 397.61,485.68 396.38,487.646 394.726,487.908 389.891,472.752 388.714,474.318 390.213,491.081    389.023,494.302 383,465.891 381.154,462.297 383.325,490.759 379.506,471.114 378.815,478.774 379.018,500.137 376.846,494.585    375.236,496.71 372.241,465.649 371.854,500.951 369.579,465.692 368.246,473.604 366.719,500.305 365.191,497.779    363.664,472.623 362.137,497.054 360.609,500.74 359.082,463.942 357.555,488.294 356.027,473.766 354.499,486.498    352.971,472.475 351.442,473.144 349.914,499.182 348.385,497.062 346.854,479.116 345.325,479.973 343.797,485.99    342.268,476.877 340.739,469.023 339.211,495.803 337.683,474.409 336.155,493.201 334.627,488.483 333.1,477.264 331.571,475.664    330.044,473.066 328.516,462.966 326.987,495.73 325.459,479.924 323.931,465.661 322.402,482.762 320.874,488.479    319.345,479.938 317.815,496.328 316.287,497.429 314.759,492.108 313.231,461.63 311.705,498.469 310.179,500.334    308.653,494.487 307.128,492.884 305.604,469.583 304.079,464.519 302.555,461.446 301.03,461.802 299.506,497.702    297.982,471.144 296.458,474.507 294.934,475.645 293.409,484.453 291.884,491.751 290.359,495.865 288.833,471.743    287.308,491.029 285.78,465.616 284.253,496.883 282.725,491.6 281.196,493.288 279.666,493.434 278.135,466.372 276.605,489.445    275.076,472.239 273.547,468.553 272.02,474.863 270.492,486.511 268.965,466.191 267.438,487.083 265.911,471.157    264.385,462.233 262.858,470.766 261.332,478.037 259.805,467.389 258.277,473.686 256.75,493.064 255.221,474.833    253.692,468.856 252.162,474.438 250.63,486.225 249.099,489.353 247.569,484.866 246.04,484.136 244.511,470.621 242.982,489.84    241.454,496.843 239.926,500.035 238.398,487.946 236.869,483.875 235.34,479.955 233.811,481.724 232.28,494.437 230.748,487.68    229.216,474.507 227.686,480.314 226.156,479.499 224.626,462.988 223.097,483.348 221.567,483.328 220.038,475.961    218.507,482.767 216.976,471.538 215.444,486.534 213.912,468.229 212.381,486.989 210.851,484.549 209.321,483.994    207.791,464.567 206.259,489.755 204.727,481.203 203.195,487.566 201.663,499.79 200.132,478.984 198.602,497.658 197.07,467.095    195.537,474.57 194.005,469.939 192.479,498.63 190.95,482.571 189.419,477.668 187.886,473.813 186.355,492.151 184.826,499.484    183.297,497.266 181.769,482.671 180.239,464.087 178.707,478.636 177.173,487.721 175.642,471.941 174.111,468.663 172.58,471.65    171.046,497.951 169.513,481.757 167.98,471.268 166.447,473.442 164.912,467.702 163.379,498.367 161.844,479.764 160.31,482.881    158.774,477.972 157.243,476.87 155.711,480.568 154.175,482.918 152.641,461.802 151.105,466.535 149.568,475.745 148.032,471.41    146.493,481.741 144.952,499.952 143.41,497.369 141.691,493.883 139.828,500.12 138.556,487.143 136.489,495.213 135.16,489.302    135.201,468.443 131.219,496.048 129.609,494.576 131.957,461.068 130.48,462.568 129.314,461.479 124.937,480.302    126.536,462.506 120.205,488.522 124.259,460.633 118.254,481.883 119.337,470.349 113.309,488.596 113.635,480.754    112.514,478.872 111.691,476.124 106.461,487.844 113.59,460.33 105.831,479.103 108.277,467.451 110.941,456.133 103.327,472.313    102.479,470.354 102.26,466.993 105.453,455.971 102.137,460.194 93.932,474.502 94.957,468.728 92.757,469.727 84.219,482.823    96.543,456.149 85.613,473.064 87.039,467.289 82.26,472.344 93.501,450.712 85.133,461.576 72.39,478.521 79.944,463.959    86.077,452.259 76.797,462.996 78.459,458.024 85.688,445.851 74.213,458.594 69.945,461.494 65.966,463.826 59.495,468.948    57.195,468.864 57.087,466.276 56.907,463.84 78.095,438.562 73.242,441.726 76.796,436.158 66.908,444.097 71.968,437.204    47.021,458.677 69.92,435.406 45.907,454.853 53.215,446.214 49.131,447.523 43.568,449.889 60.245,434.425 56.659,435.361    50.991,437.741 67.985,423.413 54.756,431.216 51.113,431.923 63.304,421.95 43.034,433.514 36.525,435.681 62.441,417.856    50.25,423.57 40.584,427.398 51.048,419.746 53.937,416.559 52.924,415.519 54.735,413.057 24.759,426.101 44.596,414.822    45.934,412.586 31.59,417.238 57.115,404.731 52.999,405.017 34.511,410.753 31.111,410.313 32.414,408.115 18.602,411.105    43.005,401.291 27.348,404.638 26.251,403.226 29.166,400.68 15.925,402.512 40.427,394.52 17.661,398.398 29.498,393.971    39.777,390.215 44.25,387.886 14.872,391.728 40.302,385.738 48.356,383.084 30.794,384.158 38.142,381.696 18.708,382.346    30.78,379.482 33.425,377.718 39.106,375.824 32.137,374.769 19.33,373.759 32.793,371.705 30.647,370.222 36.462,368.68    26.09,367.153 12.598,365.627 45.136,364.102 29.219,362.575 13.453,361.049 17.138,359.522 30.75,357.996 22.446,356.47    44.987,354.942 38.352,353.416 21.843,351.889 11.127,350.36 18.564,348.833 20.375,347.304 15.903,345.776 16.302,344.248    45.901,342.721 11.025,341.193 11.582,339.666 22.006,338.14 42.397,336.612 28.865,335.086 41.313,333.559 44.656,332.032    30.992,330.506 34.562,328.979 12.312,327.452 33.574,325.925 43.739,324.398 15.3,322.872 29.673,321.345 41.469,319.816    44.86,318.288 50.985,316.761 15.328,315.234 43.56,313.708 39.05,312.183 10.997,310.657 16.619,309.133 44.139,307.609    28.753,306.085 30.244,304.562 18.227,303.038 49.3,301.516 24.178,299.992 13.249,298.47 11.206,296.946 24.587,295.423    49.799,293.899 35.055,292.376 12.881,290.853 16.326,289.327 31.083,287.803 47.659,286.277 31.363,284.751 35.359,283.224    25.213,281.695 40.749,280.167 28.402,278.637 41.965,277.108 39.545,275.58 25.49,274.053 34.374,272.525 30.707,271    21.53,269.474 30.108,267.948 29.11,266.423 33.928,264.897 23.897,263.372 36.013,261.847 22.341,260.32 42.698,258.794    48.808,257.268 43.223,255.74 27.506,254.211 23.906,252.682 14.734,251.152 33.84,249.622 42.658,248.093 32.296,246.565    29.854,245.037 22.318,243.51 12.238,241.983 36.161,240.456 15.635,238.929 41.276,237.401 43.467,235.874 15.462,234.345    24.448,232.815 11.611,231.285 11.07,229.754 31.124,228.225 14.878,226.696 25.659,225.167 24.144,223.639 24.245,222.111    28.552,220.582 32.148,219.053 48.853,217.523 43.988,215.991 12.167,214.461 11.706,212.931 40.757,211.402 22.879,209.873    28.536,208.344 31.654,206.813 40.487,205.283 38.297,203.751 20.341,202.221 28.856,200.691 26.535,199.161 18.869,197.631    30.393,196.1 29.366,194.568 18.898,193.043 34.547,191.516 42.102,189.986 13.613,188.454 27.341,186.924 49.098,185.396    23.957,183.869 15.889,182.341 18.003,180.813 33.773,179.282 21.723,177.749 26.888,176.219 12.137,174.689 40.903,173.159    42.128,171.626 48.033,170.094 50.682,168.563 16.148,167.031 11.779,165.497 26.349,163.965 18.457,162.431 28.188,160.898    35.079,159.363 18.652,157.833 21.732,156.303 14.573,154.768 34.857,153.235 33.757,151.7 32.87,150.164 42.504,148.629    39.492,147.091 21.503,145.551 15.861,144.011 23.283,142.373 40.314,141.188 17.42,138.858 46.597,138.698 39.385,136.888    43.09,135.757 31.58,133.287 41.244,132.792 22.297,129.063 36.801,129.353 50.066,129.863 46.563,127.978 20.197,121.908    24.397,120.976 20.049,118.385 27.275,118.221 34.555,118.267 37.661,117.469 21.175,111.555 20.497,109.568 25.865,109.336    43.968,113.196 22.294,104.655 35.594,107.341 21.059,100.525 23.826,99.652 21.522,96.891 52.498,107.454 48.114,104.168    38.436,98.413 42.537,98.551 49.591,100.19 43.903,95.857 36.375,90.385 46.063,93.578 50.496,94.26 59.239,97.476 56.744,94.521    40.04,83.057 58.597,92.466 42.413,80.682 53.718,86.07 57.842,87.071 61.549,87.919 36.567,68.563 53.684,78.832 51.622,75.393    40.723,65.013 54.618,73.775 44.184,63.267 71.246,83.676 70.192,81.077 67.42,76.852 63.871,71.749 56.575,62.916 51.521,55.81    66.198,67.861 74.167,73.838 57.147,54.137 74.057,69.773 65.462,58.238 71.245,62.394 79.919,70.193 65.169,50.49 73.525,58.124    85.277,70.538 64.017,40.805 65.347,39.605 67.212,39.153 68.235,37.533 78.092,48.758 90.282,64.208 71.646,32.978 92.425,62.694    89.192,54.866 92.56,57.767 91.643,53.408 93.565,53.942 94.251,52.242 94.074,48.812 101.864,61.075 87.089,27.664 98.77,48.491    100.7,49.257 90.743,22.774 104.761,51.627 102.378,42.036 101.417,35.375 99.447,25.484 111.013,52.897 108.057,40.096    109.34,39.198 106.576,25.16 112.781,40.226 113.545,37.471 112.976,29.411 120.803,54.052 114.85,23.225 119.758,37.588    117.532,19.444 123.333,40.4 125.354,43.546 124.616,30.421 128.414,45.14 130.669,51.563 127.697,16.732 133.234,51.575    132.646,31.868 134.233,32.387 136.155,38.152 137.474,35.638 139.266,43.309 140.318,31.023 141.637,13.981 143.41,26.772    144.938,35.879 146.465,47.752 147.992,24.097 149.519,21.553 151.046,42.489 152.574,37.445 154.102,31.068 155.629,48.315    157.157,25.293 158.686,28.424 160.214,34.936 161.743,33.917 163.272,48.626 164.801,14.239 166.331,37.88 167.86,25.653    169.388,46.542 170.917,18.001 172.445,43.055 173.973,37.609 175.501,38.816 177.029,27.927 178.557,51.162 180.084,50.074    181.612,29.037 183.14,42.794 184.668,38.516 186.197,30.745 187.726,38.572 189.253,46.084 190.782,40.34 192.312,26.485    193.841,30.134 195.369,27.539 196.897,43.042 198.424,34.368 199.951,14.71 201.477,30.889 203.002,49.234 204.528,20.774    206.053,15.603 207.577,26.504 209.102,19.226 210.626,37.288 212.15,23.321 213.674,27.719 215.198,12.768 216.723,42.138    218.247,15.095 219.772,49.575 221.297,34.757 222.823,15.929 224.349,12.734 225.875,48.741 227.403,28.698 228.931,20.435    230.46,12.612 231.99,43.351 233.521,41.634 235.051,29.17 236.58,41.491 238.109,31.511 239.637,44.321 241.164,18.526    242.691,11.975 244.218,27.24 245.745,30.382 247.271,28.191 248.797,31.31 250.324,32.565 251.851,38.2 253.378,39.621    254.906,37.295 256.435,24.553 257.965,39.284 259.495,21.312 261.026,15.057 262.558,16.008 264.087,16.883 265.616,29.616    267.146,28.435 268.674,28.594 270.202,18.583 271.73,33.847 273.259,39.717 274.787,37.117 276.316,26.621 277.846,34.445    279.377,31.491 280.908,43.754 282.439,29.712 283.971,22.932 285.5,44.356 287.03,20.925 288.56,20.082 290.089,32.417    291.618,44.245 293.148,41.61 294.68,19.508 296.213,27.388 297.744,33.097 299.275,15.822 300.806,18.076 302.336,41.565    303.866,36.648 305.397,32.016 306.929,49.434 308.462,32.545 309.993,23.082 311.523,42.149 313.055,46.272 314.586,21.986    316.119,26.282 317.651,49.191 319.178,19.793 320.706,30.102 322.236,47.449 323.771,15.781 325.301,46.915 326.83,13.188    328.358,48.828 329.888,12.823 331.417,48.953 332.949,32.96 334.483,13.29 336.015,26.738 337.545,45.545 339.076,26.429    340.61,23.534 342.144,24.155 343.676,27.557 345.209,45.075 346.744,14.631 348.277,12.762 349.813,12.719 351.347,12.066    352.882,33.694 354.413,17.083 355.944,27.753 357.48,26.288 359.015,20.393 360.551,27.925 362.089,20.728 363.624,21.896    365.163,22.1 366.704,44.248 368.246,47.404 370.042,12.197 371.698,17.41 373.072,26.306 375.267,15.498 374.92,46.723    378.271,21.929 378.368,38.603 378.604,49.865 382.362,29.789 381.328,49.049 383.823,41.269 384.862,43.728 385.313,49.086    388.01,42.061 387.998,49.141 396.136,18.451 391.497,45.801 397.424,27.801 396.446,37.884 393.726,53.212 401.85,30.154    398.413,46.744 404.528,32.415 409.479,22.854 407.603,33.345 406.626,40.594 407.987,41.253 413.153,32.455 408.131,48.71    416.458,33.093 417.026,35.846 423.255,26.362 423.909,29.067 421.755,37.273 412.165,59.293 426.24,35.814 422.053,46.825    429.695,36.53 418.067,59.545 419.998,58.948 418.598,63.721 434.181,42.032 430.938,49.893 440.679,38.429 433.083,52.209    442.195,42.298 441.624,45.921 426.988,67.688 450.127,40.581 431.443,66.377 441.549,56.431 435.791,65.516 434.322,69.326    445.15,59.424 448.456,58.169 440.355,68.942 436.945,74.43 454,59.458 458.273,57.631 456.896,61.246 461.053,59.699    453.513,68.671 444.881,78.157 466,62.26 458.641,70.504 451.258,78.387 449.173,81.82 453.146,80.581 452.534,82.82    461.961,77.89 452.903,86.022 461.629,81.878 454.705,88.191 470.006,80.234 467.489,83.683 478.94,78.762 455.898,93.979    463.109,91.557 480.149,84.079 484.748,83.65 451.085,102.574 471.335,94.141 455.399,103.327 481.319,93.055 463.058,102.864    466.588,102.908 482.364,98.123 475.864,102.435 459.434,110.207 462.317,110.595 464.74,111.206 478.014,108.356 482.435,108.636    469.73,114.082 481.758,112.219 493.021,110.889 489.057,113.714 468.757,120.247 485.438,117.991 467.548,123.367 486.73,121.086    483.426,123.348 482.426,125.131 478.281,127.352 490.668,127.192 478.083,130.437 473.243,132.489 497.691,131.614    476.602,135.103 468.127,137.171 489.704,137.377 489.221,139.057 463.031,141.408 481.61,142.461 476.754,144.011    484.973,145.537 477.27,147.063 491.712,148.589 498.8,150.115 496.839,151.642 493.668,153.168 468.615,154.694 492.952,156.221    495.963,157.748 496.238,159.275 476.655,160.802 489.402,162.33 478.977,163.858 477.479,165.386 483.498,166.915    481.048,168.442 496.524,169.97 483.991,171.497 487.058,173.024 463.037,174.551 500.202,176.078 480.286,177.604    466.533,179.131 463.625,180.658 484.26,182.185 462.021,183.711 483.842,185.239 487.624,186.766 498.325,188.293 469.955,189.82    481.688,191.348 473.663,192.876 487.382,194.404 495.852,195.932 464.521,197.458 466.55,198.984 495.281,200.51 491.583,202.035    488.65,203.559 465.938,205.083 467.997,206.607 472.69,208.13 467.726,209.653 472.586,211.177 472.915,212.7 487.649,214.223    499.876,215.746 473.438,217.269 490.383,218.792 484.085,220.316 482.733,221.84 486.789,223.364 473.761,224.889    483.184,226.415 482.602,227.941 488.767,229.468 474.271,230.996 493.58,232.525 464.005,234.055 462.406,235.583 486.82,237.112    495.914,238.639 485.892,240.166 470.542,241.692 493.131,243.218 489.373,244.744 490.714,246.269 473.784,247.794    478.347,249.32 491.42,250.845 472.66,252.371 474.815,253.897 497.443,255.424 481.975,256.952 471.272,258.48 470.276,260.009    487.624,261.539 463.302,263.069 496.705,264.599 471.469,266.127 462.993,267.654 466.856,269.182 472.871,270.709    475.146,272.235 467.751,273.763 478.323,275.29 464.74,276.818 485.623,278.347 484.143,279.876 472.115,281.407 476.006,282.938    469.472,284.467 471.424,285.996 486.575,287.524 483.425,289.053 464.042,290.58 492.108,292.109 491.126,293.639    474.009,295.169 481.059,296.7 461.71,298.23 496.629,299.76 471.396,301.289 466.548,302.818 478.259,304.348 500.196,305.878    477.58,307.408 478.342,308.939 467.837,310.47 475.694,312 476.301,313.53 462.414,315.061 462.375,316.592 481.225,318.123    464.317,319.648 469.29,321.176 485.97,322.705 494.776,324.237 496.824,325.767 491.783,327.295 485.953,328.822 489.359,330.35    473.253,331.878 485.316,333.409 484.994,334.941 478.826,336.472 489.725,338.002 472.064,339.531 470.462,341.064    485.65,342.597 484.379,344.128 490.182,345.66 477.295,347.193 481.906,348.726 481.86,350.26 489.348,351.793 500.648,353.327    494.707,354.857 483.181,356.388 493.902,357.923 494.542,359.455 487.337,360.99 467.228,362.526 494.801,364.062    492.797,365.599 483.098,360.91  " style="fill:#FF4C24;"/><path d="M255.828,396.764c-3.183,0-6.367-0.109-9.514-0.311   l58.789-101.769c8.253-10.604,13.175-23.934,13.175-38.41c0-23.422-12.882-43.845-31.966-54.597h99.007   c7.1,16.803,11.033,35.289,11.033,54.669C396.352,333.903,333.445,396.764,255.828,396.764z M255.554,193.615   c-34.417,0-62.357,27.719-62.687,62.038l-48.78-84.417c25.67-33.624,66.181-55.309,111.741-55.309   c54.984,0,102.557,31.54,125.647,77.506H255.554V193.615z M256.176,309.056c-29.056,0-52.604-23.531-52.604-52.562   c0-29.035,23.548-52.566,52.604-52.566s52.623,23.531,52.623,52.566C308.799,285.524,285.232,309.056,256.176,309.056z    M255.554,318.947c11.125,0,21.554-2.889,30.611-7.972l-48.872,84.581c-68.834-9.068-121.987-67.942-121.987-139.209   c0-28.743,8.673-55.492,23.512-77.744l58.917,101.965C207.231,303.113,229.554,318.947,255.554,318.947z" style="fill-rule:evenodd;clip-rule:evenodd;fill:#FFFFFF;"/></g><g id="Layer_1"/></svg>