<?xml version="1.0" ?><!DOCTYPE svg  PUBLIC '-//W3C//DTD SVG 1.1//EN'  'http://www.w3.org/Graphics/SVG/1.1/DTD/svg11.dtd'><svg height="512px" style="enable-background:new 0 0 512 512;" version="1.1" viewBox="0 0 512 512" width="512px" xml:space="preserve" xmlns="http://www.w3.org/2000/svg" xmlns:xlink="http://www.w3.org/1999/xlink"><g id="social__x2C__media__x2C__social_media__x2C___tumblr__x2C_"><polygon points="476.365,368.68 496.543,370.427 495.384,372.145 471.255,372.911 477.203,374.642    486.379,376.757 466.366,376.75 496.646,380.978 494.1,382.468 463.441,380.464 488.043,385.139 479.107,385.464 496.08,389.805    497.646,391.879 461.681,386.777 471.71,390.186 485.628,394.751 490.616,397.617 483.231,397.537 469.852,395.663    486.963,401.946 479.571,401.52 473.324,401.245 465.403,400.241 458.515,399.372 467.55,403.974 476.95,409.002 488.757,415.264    462.148,406.449 474.537,413.139 453.825,405.843 483.106,420.469 479.643,420.744 461.479,413.798 463.218,416.25    474.167,423.578 481.189,429.197 481.395,431.321 483.202,434.385 460.496,423.059 473.66,432.807 473.324,434.592    448.513,420.522 450.174,423.198 450.511,425.059 443.976,422.1 465.321,439.219 448.569,428.709 459.948,439.217 450.145,433.457    448.865,434.253 447.003,434.547 447.554,436.873 439.255,431.42 462.453,454.307 436.265,432.174 463.655,460.262    453.803,453.083 446.127,447.627 445.494,449.158 457.841,464.619 453.455,462.469 449.342,460.412 432.251,443.093    444.133,459.401 439.878,456.727 434.279,452.146 431.047,450.33 440.262,464.999 434.519,459.896 433.775,461.516    442.474,476.956 421.633,448.874 426.424,458.72 435.514,475.952 427.28,465.759 429.75,473.001 421.07,461.16 425.153,471.533    421.92,468.895 421.576,471.599 414.65,461.311 418.123,471.743 412.167,462.682 415.221,472.918 405.081,453.517 411.663,472.505    405.523,461.359 407.143,469.325 405.973,470.412 410.382,487.237 402.941,470.687 398.722,462.442 401.541,476.127    395.68,461.668 398.014,474.917 400.095,488.684 397.448,485.096 395.813,485.314 391.882,475.104 393.176,488.723    390.466,483.509 384.582,459.626 389.271,495.926 386.494,489.355 384.913,490.102 379.929,463.082 381.346,488.237    378.01,470.453 376.561,469.793 377.222,500.438 374.033,474.546 372.101,462.563 371.657,494.31 370.021,498.932 368.229,477.32    366.701,471.236 365.174,496.702 363.646,482.622 362.119,494.261 360.592,470.537 359.064,496.678 357.537,498.406    356.01,494.495 354.481,493.454 352.953,480.268 351.425,487.814 349.896,466.905 348.366,465.425 346.837,494.788    345.308,483.259 343.778,491.892 342.25,487.025 340.722,500.059 339.193,483.812 337.665,467.424 336.138,491.952    334.609,497.159 333.082,466.984 331.554,500.82 330.026,466.666 328.498,476.014 326.97,492.784 325.441,477.443 323.913,477.912    322.385,463.049 320.856,476.26 319.327,497.637 317.798,494.385 316.27,490.189 314.741,464.853 313.214,493.086 311.688,488.781    310.161,486.413 308.636,476.724 307.11,473.896 305.586,486.506 304.062,473.159 302.537,496.377 301.013,477.625    299.488,487.247 297.964,464.797 296.44,483.772 294.916,471.51 293.392,485.711 291.866,495.428 290.342,473.23 288.815,479.15    287.29,477.739 285.763,493.26 284.235,498.331 282.707,462.902 281.178,478.065 279.648,463.827 278.117,499.088 276.587,473.214    275.058,475.965 273.529,463.266 272.002,467.638 270.474,476.17 268.947,475.047 267.42,462.932 265.894,468.699 264.367,490.489    262.841,463.433 261.314,466.597 259.787,471.03 258.26,485.227 256.732,500.581 255.203,461.462 253.674,466.177 252.144,469.426    250.612,486.991 249.081,484.263 247.551,490.717 246.021,464.976 244.493,483.069 242.964,463.69 241.436,468.275    239.908,473.915 238.38,463.356 236.851,480.4 235.322,487.564 233.792,491.453 232.262,492.426 230.73,465.845 229.198,472.671    227.667,475.932 226.138,488.646 224.608,461.182 223.079,461.879 221.549,486.991 220.02,482.102 218.489,497.52 216.958,491.243    215.425,463.2 213.894,492.901 212.363,498.724 210.833,499.188 209.302,490.373 207.772,496.118 206.241,468.076 204.708,488.36    203.176,471.851 201.645,479.632 200.114,479.989 198.583,481.015 197.051,491.985 195.519,461.101 193.986,498.06 192.46,464.151    190.932,464.069 189.401,470.34 187.868,500.699 186.336,500.672 184.808,473.979 183.279,483.313 181.75,495.592 180.221,482.801    178.688,490.761 177.155,474.049 175.623,464.23 174.093,464.028 172.562,495.427 171.027,490.675 169.494,497.786    167.962,485.816 166.429,499.2 164.894,481.843 163.36,485.536 161.825,475.304 160.291,462.47 158.756,499.808 157.224,497.151    155.693,490.316 154.157,465.689 152.623,486.388 151.087,500.034 149.549,487.843 148.014,463.487 146.475,468.061    144.933,472.997 143.392,492.315 141.693,493.209 140.176,486.425 138.927,477.434 136.228,499.698 136.519,469.012    133.418,490.138 133.905,467.397 131.783,474.369 130.444,473.334 128.689,475.53 126.552,479.846 122.73,493.712 124.054,476.343    125.585,460.455 122.981,466.746 118.803,479.322 118.272,474.811 120.85,458.408 111.968,486.959 110.708,485.285    115.848,461.953 109.053,479.424 104.617,487.981 108.906,470.019 111.777,457.566 99.522,486.89 105.497,466.668 101.579,472.561    107.466,454.5 91.646,487.728 95.879,474.038 87.56,488.1 96.506,465.503 99.873,455.521 85.006,481.299 98.491,452.469    95.638,454.952 78.105,482.861 87.516,463.409 90.183,456.139 76.95,474.591 90.182,450.993 80.718,462.777 84.081,455.149    89.159,445.483 87.248,445.916 78.515,455.417 84.263,445.524 80.973,447.538 80.65,445.75 58.809,469.755 64.815,459.995    58.822,464.301 62,458.217 77.248,439.473 63.239,452.149 74.285,438.694 51.017,459.766 54.706,453.771 58.319,448.096    46.161,457.01 50.201,451.045 52.365,446.936 63.655,435.335 57.634,438.412 49.332,443.059 54.718,436.849 64.705,427.466    61.954,427.803 48.695,435.5 47.221,434.59 43.268,435.316 42.834,433.64 64.835,417.88 50.562,425.098 36.947,431.427    39.397,428.074 54.198,417.991 36.55,425.892 27.841,428.55 29.972,425.483 55.848,411.013 24.088,424.422 45.206,412.909    40.694,413.27 21.759,419.542 40.591,410.015 46.463,406.123 46.102,404.745 22.112,411.774 32.813,406.277 53.625,397.845    33.95,402.585 18.538,405.502 50.939,394.576 46.522,394.399 35.894,395.651 33.69,394.616 35.022,392.744 34.003,391.408    26.363,391.325 31.614,388.736 47.169,384.606 50.176,382.816 44.652,382.269 29.298,382.776 32.521,380.846 50.972,377.564    26.918,378.243 30.821,376.383 16.019,375.638 32.372,373.234 22.667,371.979 47.751,369.992 33.726,368.68 41.645,367.153    35.205,365.627 23.38,364.102 47.191,362.575 39.526,361.049 47.25,359.522 14.283,357.996 43.741,356.47 39.353,354.942    24.902,353.416 43.063,351.889 20.563,350.36 46.332,348.833 26.419,347.304 15.139,345.776 50.778,344.248 20.663,342.721    45.406,341.193 34.111,339.666 50.85,338.14 28.499,336.612 37.1,335.086 29.232,333.559 47.924,332.032 44.371,330.506    36.454,328.979 28.74,327.452 45.841,325.925 48.871,324.398 16.762,322.872 32.805,321.345 48.57,319.816 45.301,318.288    37.587,316.761 19.837,315.234 19.806,313.708 39.062,312.183 50.724,310.657 39.892,309.133 17.508,307.609 43.529,306.085    32.983,304.562 48.944,303.038 42.086,301.516 36.162,299.992 14.492,298.47 37.777,296.946 37.03,295.423 48.598,293.899    31.314,292.376 29.214,290.853 20.692,289.327 34.471,287.803 11.108,286.277 17.475,284.751 28.01,283.224 18.735,281.695    20.582,280.167 23.386,278.637 40.89,277.108 12.203,275.58 43.494,274.053 19.195,272.525 26.012,271 35.078,269.474    37.959,267.948 16.755,266.423 18.807,264.897 13.216,263.372 41.789,261.847 32.809,260.32 12.368,258.794 50.884,257.268    34.639,255.74 25.138,254.211 30.015,252.682 43.727,251.152 45.7,249.622 33.318,248.093 20.289,246.565 15.751,245.037    15.679,243.51 17.837,241.983 33.126,240.456 24.024,238.929 21.843,237.401 31.326,235.874 35.942,234.345 14.848,232.815    14.841,231.285 15.625,229.754 28.394,228.225 35.198,226.696 36.089,225.167 18.504,223.639 14.558,222.111 23.115,220.582    24.437,219.053 43.697,217.523 11.294,215.991 20.851,214.461 20.9,212.931 48.067,211.402 11.514,209.873 34.493,208.344    40.172,206.813 19.641,205.283 41.133,203.751 23.819,202.221 17.686,200.691 50.23,199.161 28.438,197.631 46.143,196.1    20.988,194.568 16.42,193.043 24.628,191.516 37.891,189.986 14.136,188.454 22.685,186.924 14.289,185.396 17.661,183.869    43.912,182.341 20.331,180.813 14.511,179.282 34.525,177.749 16.568,176.219 36.073,174.689 21.466,173.159 45.299,171.626    13.887,170.094 23.967,168.563 23.117,167.031 44.571,165.497 37.272,163.965 14.443,162.431 36.891,160.898 31.184,159.363    48.636,157.833 14.202,156.303 30.98,154.768 14.983,153.235 36.852,151.7 50.728,150.164 48.106,148.629 47.532,147.091    18.483,145.551 15.147,144.011 30.434,142.468 40.589,141.196 21.673,139.029 17.395,137.13 24.64,135.895 36.229,135.206    41.68,134.246 26.814,131.228 25.047,129.396 51.459,131.349 17.125,124.916 32.485,125.666 14.772,120.949 43.118,124.583    14.652,117.272 17.673,116.093 22.197,115.352 34.099,116.581 32.672,114.61 19.225,109.222 33.832,111.689 26.97,107.931    52.487,114.471 49.576,112.101 21.303,100.607 27.23,100.92 26.731,98.912 38.898,101.974 33.851,98.191 40.686,99.397    56.545,104.885 29.737,90.893 36.352,92.193 51.151,97.814 57.337,99.437 47.221,92.505 58.375,96.994 37.938,83.751    62.019,96.059 51.099,87.896 39.701,78.982 62.93,92.047 51.518,82.855 54.909,83.359 53.322,80.439 39.071,68.195 38.914,65.876    66.59,84.967 48.146,68.652 70.518,84.752 50.586,66.372 68.363,79.505 71.822,80.76 74.184,81.141 49.079,55.924 68.269,71.916    57.532,59.312 73.231,72.9 75.999,73.813 59.263,53.931 61.959,54.397 70.367,61.415 62.135,49.528 78.689,66.67 77.87,63.474    84.81,69.964 68.156,46.202 85.766,66.933 70.134,43.199 79.202,53.081 72.5,40.628 77.362,44.836 80.468,46.643 85,50.885    88.013,52.946 89.882,53.253 95.178,59.604 89.412,46.462 94.572,52.866 97.738,55.899 94.559,46.539 87.273,28.073 88.306,26.146    90.367,26.367 98.648,41.014 97.429,34.12 102.34,41.973 99.621,30.772 103.793,37.257 100.935,24.582 101.289,20.228    112.107,47.766 107.988,29.79 111.754,36.792 112.188,32.67 116.924,44.396 119.924,50.604 120.133,45.749 121.358,44.906    118.818,25.747 123.622,41.98 122.689,28.679 127.822,50.037 125.305,24.537 129.925,46.223 128.244,21.396 132.535,45.28    131.347,18.279 132.823,15.172 135.285,25.495 136.926,25.813 138.579,26.613 140.479,37.729 142.024,44.387 143.392,46.438    144.919,28.654 146.446,36.479 147.974,37.211 149.5,19.774 151.028,29.921 152.556,25.316 154.083,33.206 155.611,20.139    157.139,34.86 158.667,51.521 160.195,30.277 161.724,42.054 163.253,17.127 164.783,37.94 166.313,40.729 167.841,21.362    169.37,41.974 170.898,45.296 172.427,28.684 173.955,28.311 175.482,34.57 177.011,13.192 178.538,22.762 180.066,41.173    181.594,27.959 183.122,18.543 184.65,27.729 186.179,49.178 187.707,24.356 189.235,30.187 190.764,18.885 192.293,13.48    193.822,23.564 195.351,38.401 196.879,42.952 198.406,34.929 199.933,32.244 201.458,18.109 202.984,29.162 204.509,17.386    206.034,47.797 207.559,44.499 209.083,14.365 210.607,15.331 212.131,30.607 213.656,19.812 215.18,25.853 216.704,34.526    218.229,18.388 219.753,50.061 221.279,45.669 222.804,34.474 224.331,36.402 225.857,50.41 227.385,20.149 228.913,21.414    230.442,37.267 231.972,17.987 233.503,18.464 235.033,20.628 236.562,44.144 238.09,30.867 239.619,23.873 241.146,16.784    242.673,51.021 244.2,11.961 245.726,21.479 247.253,51.082 248.779,13.863 250.306,36.603 251.833,26.209 253.36,43.94    254.888,46.373 256.417,22.533 257.946,34.784 259.477,11.983 261.008,34.091 262.539,21.074 264.069,25.418 265.599,48.088    267.128,20.643 268.656,28.217 270.185,29.01 271.712,13.19 273.24,19.81 274.77,14.376 276.298,35.558 277.828,28.69    279.358,47.227 280.891,51.583 282.422,39.569 283.952,38.108 285.482,25.435 287.012,36.83 288.541,28.198 290.07,46.811    291.601,36.05 293.131,50.356 294.662,15.871 296.194,28.534 297.727,12.778 299.257,47.585 300.787,49.146 302.317,27.445    303.848,29.052 305.379,43.504 306.911,45.547 308.444,44.506 309.976,34.019 311.506,48.201 313.037,30.156 314.568,36.879    316.102,30.644 317.634,32.333 319.16,33.661 320.688,19.139 322.219,29.668 323.753,21.256 325.283,15.658 326.813,35.024    328.341,13.181 329.87,36.586 331.399,36.932 332.932,28.48 334.466,41.544 335.997,23.927 337.527,44.47 339.059,22.765    340.593,17.434 342.126,45.525 343.658,12.955 345.191,36.337 346.727,40.736 348.26,36.591 349.795,46.514 351.329,24.299    352.864,28.053 354.396,44.04 355.927,24.419 357.464,34.133 358.997,50.574 360.533,46.418 362.071,34.548 363.606,24.486    365.146,24.042 366.687,33.729 368.229,18.32 369.977,15.76 370.953,44.635 372.254,46.042 374.41,31.035 376.605,21.467    376.42,44.552 377.333,49.431 381.726,20.917 382.535,28.229 385.171,20.673 385.787,28.06 383.77,50.301 387.926,34.342    390.352,29.798 387.773,50.152 394.417,26.151 398.551,15.802 392.799,46.242 392.939,51.106 393.477,54.051 403.438,24.699    402.205,34.453 400.558,44.61 410.467,19.86 399.465,56.21 405.241,44.299 413.085,28.025 408.273,44.543 407.152,51.017    405.621,57.978 409.994,51.412 409.998,54.682 415.678,46.038 425.183,30.409 415.134,53.545 419.574,48.211 429.922,32.596    418.285,56.445 419.274,57.479 431.297,40.374 434.625,38.18 435.48,40.011 437.743,39.659 437.264,43.387 443.812,37.012    445.216,38.114 437.914,50.856 430.931,62.545 430.978,64.753 446.847,47.433 444.913,52.392 450.787,48.068 432.284,71.621    456.626,46.769 436.496,70.982 442.881,66.291 445.947,65.275 440.165,73.118 449.99,65.581 445.057,72.314 464.324,56.708    451.907,70.082 456.718,67.951 447.138,78.058 465.721,64.722 455.423,75.076 464.813,69.749 461.97,73.959 468.759,70.994    464.161,76.329 475.648,70.368 470.114,76.205 475.095,74.97 458.03,87.754 464.229,85.667 468.878,84.697 467.709,87.208    464.806,90.609 466.735,91.282 456.367,98.385 458.075,99.041 477.617,91.083 454.978,103.516 475.087,95.87 472.752,98.633    472.223,100.542 473.549,101.666 480.683,100.567 475.879,104.105 458.703,111.877 465.781,110.857 460.867,113.931    479.835,109.44 460.978,116.658 472.326,114.856 473.101,116.176 493.419,112.622 477.047,118.287 491.952,116.558    462.714,124.378 472.803,123.771 465.764,126.511 478.811,125.725 492.947,125.143 488.754,127.462 469.963,131.427    474.821,132.31 499.347,131.456 475.669,135.178 488.722,135.772 483.084,137.731 476.275,139.576 473.918,141.117    473.122,142.582 492.479,144.011 469.871,145.537 492.949,147.063 499.473,148.589 461.615,150.115 464.824,151.642    477.558,153.168 464.297,154.694 481.425,156.221 482.772,157.748 491.337,159.275 466.366,160.802 477.614,162.33    469.999,163.858 488.748,165.386 463.571,166.915 474.818,168.442 489.859,169.97 466.535,171.497 490.002,173.024 463.17,174.551    476.123,176.078 485.803,177.604 499.63,179.131 488.699,180.658 463.584,182.185 476.039,183.711 482.908,185.239    488.802,186.766 472.187,188.293 472.352,189.82 482.493,191.348 494.041,192.876 480.916,194.404 477.151,195.932 474.36,197.458    477.533,198.984 467.707,200.51 477.538,202.035 500.57,203.559 473.147,205.083 471.62,206.607 489.645,208.13 499.907,209.653    483.798,211.177 493.521,212.7 481.175,214.223 462.682,215.746 481.059,217.269 471.542,218.792 483.41,220.316 475.902,221.84    497.351,223.364 467.553,224.889 463.897,226.415 485.101,227.941 471.966,229.468 460.889,230.996 471.118,232.525    499.04,234.055 492.165,235.583 485.609,237.112 462.328,238.639 463.57,240.166 490.607,241.692 467.507,243.218 485.877,244.744    490.876,246.269 480.349,247.794 497.15,249.32 469.22,250.845 470.348,252.371 468.682,253.897 495.169,255.424 483.882,256.952    467.372,258.48 491.043,260.009 486.076,261.539 498.625,263.069 496.23,264.599 466.251,266.127 476.845,267.654 492.076,269.182    473.417,270.709 474.331,272.235 476.506,273.763 496.045,275.29 497.581,276.818 478.151,278.347 492.999,279.876    480.806,281.407 462.362,282.938 490.149,284.467 483.559,285.996 493.584,287.524 468.37,289.053 485.388,290.58 494.854,292.109    481.479,293.639 480.552,295.169 462.182,296.7 489.139,298.23 490.113,299.76 497.202,301.289 471.556,302.818 492.686,304.348    469.217,305.878 476.857,307.408 496.78,308.939 482.713,310.47 496.422,312 489.344,313.53 484.236,315.061 489.098,316.592    490.514,318.123 497.202,319.648 486.859,321.176 487.091,322.705 465.373,324.237 473.76,325.767 461.406,327.295    477.303,328.822 475.892,330.35 464.097,331.878 480.81,333.409 489.208,334.941 467.064,336.472 495.144,338.002 462.847,339.531    464.406,341.064 497.56,342.597 461.173,344.128 496.402,345.66 475.909,347.193 468.976,348.726 490.943,350.26 466.543,351.793    479.688,353.327 472.063,354.857 482.709,356.388 499.692,357.923 494.731,359.455 481.137,360.99 473.399,362.526 490.1,364.062    487.878,365.599 473.259,356.804  " style="fill:#0F4260;"/><g><path d="M211.869,358.897c2.571,6.766,7.164,13.146,13.86,19.145c6.642,5.96,14.684,10.604,24.125,13.877    c9.424,3.218,16.659,4.845,28.955,4.845c10.805,0,20.859-1.151,30.163-3.419c9.313-2.267,19.716-6.253,31.17-11.903v-44.265    c-13.448,9.233-26.979,13.858-40.565,13.858c-7.657,0-14.418-1.883-20.383-5.612c-4.474-2.743-8.6-7.516-10.229-12.104    c-1.647-4.607-1.445-14.006-1.445-30.296v-72.016h62.083v-50.135h-62.083v-64.944h-38.187c-1.72,14.481-4.867,26.42-9.423,35.782    c-4.546,9.379-10.576,17.406-18.114,24.116c-7.502,6.692-19.743,11.83-30.282,15.414v39.768h36.484v98.491    C207.999,342.333,209.28,352.133,211.869,358.897z" style="fill:#FFFFFF;"/></g></g><g id="Layer_1"/></svg>