<?xml version="1.0" ?><!DOCTYPE svg  PUBLIC '-//W3C//DTD SVG 1.1//EN'  'http://www.w3.org/Graphics/SVG/1.1/DTD/svg11.dtd'><svg height="512px" style="enable-background:new 0 0 512 512;" version="1.1" viewBox="0 0 512 512" width="512px" xml:space="preserve" xmlns="http://www.w3.org/2000/svg" xmlns:xlink="http://www.w3.org/1999/xlink"><g id="social__x2C__media__x2C__social_media__x2C___myspace__x2C_"><polygon points="486.623,368.68 492.326,370.371 479.33,371.716 488.876,373.617 490.538,375.355    476.685,376.102 462.44,376.43 485.498,379.917 469.798,379.832 474.992,381.873 484.935,384.708 468.861,383.922 464.641,384.64    484.394,389.517 471.297,388.639 472.865,390.427 461.426,389.382 465.617,391.724 492.591,399.881 484.638,399.585    464.187,395.571 456.984,394.853 474.719,401.675 461.091,398.847 488.588,409.615 485.083,410.217 478.742,409.66    460.837,404.458 471.406,410.175 460.884,407.414 456.808,407.121 463.183,411.452 477.77,419.862 467.192,416.56 462.927,416.093    463.232,417.883 475.625,426.202 479.2,430.097 479.946,432.529 448.816,416.134 474.984,433.61 466.023,429.984 448.809,420.708    454.45,426.046 458.563,430.586 462.401,435.139 461.679,436.558 443.278,424.721 468.378,445.706 453.725,436.286    462.653,445.495 468.286,452.374 465.138,452.012 438.666,430.905 443.879,437.367 445.614,440.914 462.476,459.136    452.987,452.265 451.204,452.766 441.433,444.91 435.06,440.2 440.514,448.194 444.177,454.555 435.052,446.348 436.485,450.237    436.2,452.195 428.263,444.537 431.712,451.179 431.436,453.19 434.501,459.855 430.438,456.769 430.177,458.991 431.731,464.024    438.647,477.604 424.922,459.063 431.853,473.246 430.826,474.798 428.161,473.525 416.208,455.354 412.843,451.942    415.801,460.437 411.446,454.913 412.023,459.125 423.026,485.896 416.348,475.38 409.293,463.165 416.947,485.117    405.107,460.287 414.186,487.55 404.685,466.896 403.339,467.368 407.244,483.32 398.836,462.761 398.657,466.766 399.685,475.212    394.039,460.648 397.16,477.532 400.08,495.569 390.365,462.086 390.156,467.205 393.371,489.595 389.396,477.858 387.271,474.594    389.824,499.168 387.005,492.655 385.816,496.616 380.712,469.358 379.702,472.925 378.775,478.354 377.232,477.918 374.778,463.7    374.715,486.961 372.654,475.955 370.894,465.041 369.95,493.483 368.246,480.271 366.719,498.914 365.191,483.645    363.664,485.831 362.137,466.943 360.609,483.623 359.082,469.081 357.555,465.723 356.027,486.292 354.499,487.448    352.971,480.441 351.442,492.17 349.914,496.792 348.385,472.388 346.854,482.603 345.325,500.772 343.797,466.138    342.268,500.436 340.739,476.99 339.211,488.409 337.683,488.09 336.155,466.714 334.627,462.344 333.1,496.428 331.571,497.513    330.044,476.777 328.516,486.85 326.987,468.594 325.459,494.874 323.931,474.285 322.402,472.82 320.874,480.07 319.345,491.444    317.815,465.322 316.287,475.224 314.759,493.638 313.231,486.453 311.705,465.619 310.179,495.276 308.653,499.458    307.128,487.442 305.604,476.895 304.079,470.369 302.555,474.585 301.03,485.075 299.506,498.606 297.982,481.58 296.458,498.504    294.934,473.651 293.409,481.328 291.884,479.999 290.359,500.915 288.833,468.574 287.308,468.031 285.78,493.143    284.253,498.063 282.725,492.016 281.196,469.496 279.666,492.691 278.135,473.802 276.605,478.039 275.076,480.114    273.547,484.812 272.02,481.704 270.492,468.425 268.965,500.343 267.438,484.295 265.911,484.409 264.385,490.453    262.858,492.033 261.332,493.786 259.805,466.505 258.277,487.878 256.75,492.916 255.221,469.334 253.692,497.169    252.162,496.367 250.63,496.462 249.099,473.52 247.569,478.82 246.04,474.634 244.511,483.396 242.982,477.418 241.454,498.054    239.926,462.539 238.398,491.097 236.869,492.629 235.34,475.067 233.811,477.372 232.28,467.131 230.748,494.645 229.216,467.872    227.686,499.607 226.156,473.191 224.626,498.794 223.097,487.513 221.567,479.349 220.038,465.663 218.507,490.006    216.976,500.544 215.444,474.735 213.912,499.087 212.381,487.669 210.851,475.043 209.321,493.548 207.791,498.761    206.259,486.798 204.727,466.372 203.195,469.269 201.663,488.738 200.132,476.792 198.602,478.958 197.07,462.844    195.537,461.453 194.005,479.021 192.479,500.343 190.95,481.398 189.419,495.255 187.886,484.484 186.355,483.743    184.826,485.155 183.297,466.061 181.769,472.796 180.239,475.387 178.707,493.81 177.173,479.426 175.642,473.759    174.111,462.853 172.58,483.599 171.046,489.223 169.513,492.758 167.98,500.68 166.447,466.339 164.912,469.248 163.379,461.23    161.844,489.494 160.31,481.649 158.774,483.933 157.243,473.472 155.711,484.904 154.175,493.639 152.641,464.468    151.105,471.015 149.568,472.403 148.032,483.293 146.493,476.565 144.952,475.835 143.41,484.549 141.778,487.809    140.204,486.059 138.299,493.538 137.51,476.479 135.931,477.936 133.567,488.516 133.85,468.034 131.565,476.538 131.429,465.395    126.754,489.849 125.259,488.607 126.945,468.004 121.654,489.896 121.246,483.111 121.909,472.017 119.311,477.093    116.95,480.501 118.408,468.18 114.805,476.326 110.511,486.045 111.702,476.085 115.101,459.931 108.565,475.84 103.761,485.199    102.551,483.57 98.083,490.841 104.296,469.801 98.504,480.241 103.406,464.25 92.631,485.534 97.569,470.321 103.151,454.788    96.734,465.058 95.525,464.197 98.469,455.37 99.061,451.462 94.052,457.832 95.812,451.965 94.8,451.07 80.155,472.628    77.163,474.253 90.415,450.645 87.841,452.105 88.997,448.003 75.779,464.438 81.413,453.961 78.359,455.641 82.334,448.04    64.411,468.493 60.467,470.59 64.96,462.414 73.984,449.364 62.879,459.725 67.476,452.198 78.593,438.027 78.709,436.021    56.446,456.799 68.606,442.42 65.176,443.727 51.465,454.521 48.242,455.126 64.847,438.084 54.821,444.83 52.571,444.638    64.54,432.792 54.868,438.688 63.152,430.354 64.965,427.273 47.187,438.563 62.072,426.035 64.64,422.612 43.895,434.904    47.108,430.877 40.638,433.096 36.89,433.447 61.691,416.816 30.249,433.311 61.227,414.097 39.889,424.107 30.925,426.967    57.86,411.486 45.947,415.821 40.821,416.59 26.955,421.151 40.047,413.556 36.756,413.267 44.997,408.243 32.697,411.455    36.285,408.393 41.747,404.796 24.344,409.154 45.799,400.383 39.918,400.738 47.456,396.98 49.076,395.105 35.62,397.292    27.704,397.704 26.722,396.263 21.959,395.64 24.653,393.347 28.378,390.939 32.745,388.537 20.758,388.955 33.022,385.393    17.913,385.914 20.102,383.899 25.594,381.599 17.053,380.784 17.109,379.037 28.867,376.514 46.217,374.016 49.239,372.559    11.505,372.284 22.863,370.325 29.858,368.68 48.357,367.153 35.947,365.627 25.335,364.102 41.715,362.575 16.854,361.049    35.419,359.522 30.67,357.996 38.461,356.47 14.263,354.942 50.592,353.416 24.425,351.889 12.561,350.36 27.359,348.833    15.815,347.304 24.97,345.776 26.346,344.248 41.884,342.721 39.016,341.193 41.189,339.666 34.896,338.14 39.596,336.612    12.207,335.086 19.791,333.559 16.342,332.032 24.303,330.506 21.284,328.979 36,327.452 28.359,325.925 40.624,324.398    43.876,322.872 41.332,321.345 29.552,319.816 49.236,318.288 43.982,316.761 22.25,315.234 44.54,313.708 22.36,312.183    32.169,310.657 43.423,309.133 31.445,307.609 43.234,306.085 40.056,304.562 29.329,303.038 30.566,301.516 13.301,299.992    17.845,298.47 37.996,296.946 32.96,295.423 30.914,293.899 43.659,292.376 40.578,290.853 27.705,289.327 45.24,287.803    13.411,286.277 40.551,284.751 26.588,283.224 49.174,281.695 39.992,280.167 26.271,278.637 44.953,277.108 14.979,275.58    50.475,274.053 30.628,272.525 37.477,271 36.408,269.474 50.152,267.948 31.58,266.423 47.625,264.897 41.06,263.372    22.083,261.847 47.273,260.32 49.516,258.794 16.727,257.268 50.974,255.74 39.542,254.211 20.959,252.682 35.473,251.152    40.067,249.622 19.508,248.093 46.432,246.565 19.183,245.037 49.869,243.51 49.032,241.983 28.701,240.456 50.38,238.929    27.384,237.401 11.796,235.874 47.89,234.345 11.98,232.815 34.678,231.285 47.725,229.754 26.701,228.225 39.834,226.696    25.465,225.167 44.521,223.639 20.576,222.111 11.699,220.582 38.51,219.053 40.067,217.523 31.509,215.991 36.496,214.461    16.557,212.931 49.438,211.402 24.299,209.873 47.509,208.344 39.583,206.813 50.252,205.283 43.965,203.751 23.351,202.221    21.064,200.691 40.161,199.161 33.081,197.631 20.393,196.1 16.074,194.568 20.177,193.043 47.796,191.516 20.436,189.986    29.896,188.454 17.62,186.924 31.252,185.396 17.365,183.869 35.959,182.341 42.422,180.813 43.207,179.282 26.545,177.749    11.805,176.219 50.536,174.689 24.543,173.159 40.688,171.626 21.857,170.094 48.213,168.563 35.479,167.031 15.962,165.497    35.737,163.965 50.883,162.431 46.18,160.898 32.092,159.363 30.876,157.833 30.392,156.303 18.557,154.768 30.172,153.235    28.172,151.7 44.361,150.164 37.978,148.629 31.993,147.091 49.454,145.551 41.386,144.011 33.659,142.511 44.614,141.304    45.55,139.986 16.052,137.064 46.656,137.378 34.076,135.028 23.742,132.543 46.749,133.389 23.714,129.235 51.082,131.296    22.564,125.725 51.198,128.74 15.839,121.129 15.062,119.176 43.858,123.313 32.936,119.474 40.391,119.642 33.883,116.524    32.346,114.521 49.903,117.811 48.314,115.957 54.869,116.577 43.702,111.612 47.991,111.563 48.268,110.196 39.792,105.583    25.927,98.596 56.966,109.256 34.095,98.286 44.128,100.892 54.521,103.966 25.964,89.111 44.623,96.206 29.246,86.803    40.376,90.621 50.586,94.308 54.607,94.901 30.326,79.387 58.206,93.812 45.268,84.331 49.555,85.175 47.925,82.315 52.437,83.462    56.316,84.319 52.076,79.549 60.408,83.73 67.384,87.208 41.031,65.25 58.064,76.507 43.772,62.931 58.396,72.907 53.072,66.32    55.84,66.601 72.417,79.523 57.059,63.369 71.313,74.83 64.221,65.909 51.379,50.709 67.532,64.972 65.861,60.986 71.55,64.944    71.574,62.766 82.651,73.369 59.265,43.431 74.404,59.205 73.406,55.535 66.744,44.35 75.36,53.002 85.597,64.447 67.416,36.373    71.811,39.606 71.063,35.361 86.49,55.934 92.56,62.909 89.569,55.486 92.369,57.443 92.045,54.112 84.565,37.68 85.68,36.25    96.688,53.852 98.011,53.392 93.035,39.947 88.736,27.01 103.735,55.982 101.999,48.697 99.672,39.452 98.112,31.417    107.211,50.393 108.442,49.765 106.391,39.883 113.57,56.325 107.911,34.789 111.044,39.613 108.472,25.587 108.952,21.036    118.238,49.303 118.145,43.414 117.19,33.174 118.179,30.435 124.339,52.405 124.064,44.198 123.147,31.143 127.426,47.56    127.341,37.989 127.294,26.791 129.546,31.879 131.697,37.395 134.252,48.795 134.868,40.229 136.098,37.305 138.156,48.282    139.508,49.342 139.889,14.924 141.611,11.995 143.41,29.379 144.938,50.732 146.465,49.205 147.992,30.64 149.519,49.62    151.046,25.897 152.574,29.213 154.102,43.453 155.629,51.315 157.157,46.629 158.686,18.31 160.214,43.253 161.743,45.186    163.272,16.237 164.801,34.836 166.331,37.33 167.86,35.726 169.388,31.811 170.917,17.374 172.445,48.454 173.973,25.997    175.501,29.875 177.029,36.232 178.557,28.645 180.084,30.486 181.612,29.194 183.14,29.841 184.668,29.424 186.197,44.734    187.726,24.417 189.253,44.832 190.782,32.288 192.312,20.538 193.841,44.332 195.369,18.526 196.897,23.186 198.424,35.435    199.951,28.474 201.477,42.609 203.002,34.719 204.528,25.233 206.053,35.871 207.577,26.71 209.102,19.824 210.626,28.347    212.15,39.607 213.674,20.672 215.198,40.7 216.723,30.674 218.247,21.033 219.772,34.23 221.297,36.706 222.823,39.767    224.349,17.309 225.875,12.863 227.403,15.004 228.931,37.061 230.46,36.076 231.99,48.576 233.521,47.692 235.051,36.885    236.58,50.97 238.109,44.343 239.637,39.142 241.164,21.033 242.691,31.763 244.218,30.979 245.745,47.365 247.271,17.625    248.797,22.845 250.324,35.188 251.851,43.073 253.378,13.016 254.906,23.834 256.435,17.516 257.965,50.245 259.495,45.5    261.026,46.028 262.558,18.991 264.087,31.925 265.616,49.563 267.146,18.476 268.674,35.189 270.202,25.002 271.73,39.439    273.259,37.413 274.787,36.448 276.316,47.723 277.846,40.697 279.377,32.786 280.908,13.031 282.439,43.689 283.971,38.646    285.5,25.665 287.03,23.948 288.56,26.094 290.089,32.26 291.618,50.242 293.148,48.195 294.68,45.942 296.213,22.432    297.744,34.197 299.275,17.177 300.806,27.995 302.336,23.247 303.866,31.174 305.397,27.046 306.929,18.212 308.462,45.069    309.993,19.123 311.523,29.706 313.055,46.426 314.586,18.163 316.119,18.233 317.651,41.256 319.178,27.986 320.706,45.627    322.236,22.244 323.771,46.585 325.301,28.157 326.83,34.355 328.358,16.855 329.888,38.903 331.417,32.992 332.949,12.817    334.483,19.003 336.015,12.936 337.545,30.437 339.076,24.364 340.61,50.737 342.144,30.553 343.676,25.428 345.209,24.842    346.744,21.462 348.277,17.55 349.813,32.717 351.347,33.261 352.882,32.295 354.413,50.368 355.944,31.182 357.48,44.234    359.015,36.266 360.551,31.477 362.089,43.373 363.624,30.996 365.163,48.145 366.704,32.188 368.246,44.043 369.834,27.707    371.157,37.654 372.447,41.71 374.938,21.594 376.719,20.028 378.43,19.975 378.132,41.097 382.31,15.685 382.117,31.797    383.074,36.233 386.903,20.73 389.575,14.947 390.815,18.23 392.205,20.237 394.053,19.813 395.991,19.107 394.828,31.673    394.242,40.512 393.937,47.355 400.587,28.639 400.775,33.805 400.442,40.191 400.022,46.302 408.099,26.91 400.128,54.385    408.422,35.755 412.369,29.913 412.447,34.207 411.761,40.032 405.811,57.573 416.576,36.845 422.773,27.391 420.674,35.751    413.482,53.749 416.751,50.454 428.574,31.465 415.094,59.387 426.862,41.477 415.308,64.221 436.593,31.696 427.064,50.25    439.751,33.416 431.492,49.06 438.855,41.085 430.838,55.385 423.306,68.25 426.986,65.477 436.614,55.169 441.391,51.606    441.356,54.193 433.035,66.597 453.555,44.864 433.399,70.371 436.729,68.688 444.462,62.449 453.69,55.019 459.716,51.303    455.909,57.573 460.217,55.764 444.294,73.042 437.004,81.606 447.313,74.156 446.088,77.117 457.523,69.364 463.957,66.173    471.847,62.061 455.857,76.666 447.146,85.075 471.619,68.917 473.885,69.443 467.957,75.666 460.933,82.344 464.838,81.624    471.603,79.232 448.391,95.34 477.715,79.486 459.803,91.744 459.142,93.761 465.709,91.839 468.899,91.882 462.35,96.908    467.038,96.224 480.714,91.477 486.611,90.661 457.711,105.195 456.341,107.201 488.008,95.852 455.24,110.418 463.681,108.632    492.77,99.766 456.396,114.042 489.298,104.688 456.846,116.565 483.956,109.893 494.521,108.651 477.77,114.939 474.949,117.239    458.546,122.66 468.998,121.637 484.419,119.883 475.725,123.205 472.126,125.365 484.128,124.851 484.982,126.343 495.215,126.57    481.496,130.02 486.928,130.991 492.897,132.068 481.216,134.732 478.631,136.458 496.865,136.994 478.234,139.498 475.697,141.07    482.686,142.447 473.714,144.011 466.812,145.537 468.272,147.063 468.422,148.589 493.133,150.115 479.001,151.642    485.686,153.168 498.313,154.694 493.709,156.221 462.075,157.748 471,159.275 464.911,160.802 476.408,162.33 474.3,163.858    483.986,165.386 470.382,166.915 498.288,168.442 476.252,169.97 493.304,171.497 488.714,173.024 461.09,174.551 465.572,176.078    491.867,177.604 497.077,179.131 476.175,180.658 471.485,182.185 486.648,183.711 482.563,185.239 487.02,186.766    465.328,188.293 494.195,189.82 470.571,191.348 490.554,192.876 463.346,194.404 493.09,195.932 461.086,197.458 478.572,198.984    478.013,200.51 464.628,202.035 499.087,203.559 480.471,205.083 474.103,206.607 472.931,208.13 485.35,209.653 468.565,211.177    465.792,212.7 475.777,214.223 473.907,215.746 467.242,217.269 471.014,218.792 497.38,220.316 462.373,221.84 467.17,223.364    499.336,224.889 494.361,226.415 461.426,227.941 485.865,229.468 489.601,230.996 466.197,232.525 489.676,234.055    495.808,235.583 493.59,237.112 461.354,238.639 480.169,240.166 481.411,241.692 461.935,243.218 470.371,244.744    464.796,246.269 466.057,247.794 488.567,249.32 497.16,250.845 462.824,252.371 490.452,253.897 469.917,255.424 479.751,256.952    479.833,258.48 463.575,260.009 475.13,261.539 471.747,263.069 483.28,264.599 467.447,266.127 463.557,267.654 475.721,269.182    480.969,270.709 476.982,272.235 485.758,273.763 499.822,275.29 488.648,276.818 476.161,278.347 484.258,279.876    468.844,281.407 473.006,282.938 491.785,284.467 470.342,285.996 480.979,287.524 496.302,289.053 486.063,290.58    473.095,292.109 481.532,293.639 468.895,295.169 469.272,296.7 476.965,298.23 484.852,299.76 495.905,301.289 493.743,302.818    464.096,304.348 495.688,305.878 464.268,307.408 490.429,308.939 497.672,310.47 461.276,312 496.44,313.53 489.304,315.061    482.526,316.592 485.368,318.123 476.971,319.648 464.833,321.176 499.266,322.705 475.449,324.237 478.242,325.767    467.778,327.295 468.165,328.822 494.441,330.35 491.586,331.878 484.574,333.409 479.076,334.941 468.075,336.472    490.036,338.002 485.536,339.531 463.594,341.064 479.24,342.597 468.979,344.128 463.148,345.66 465.751,347.193 500.527,348.726    490.953,350.26 481.679,351.793 467.47,353.327 476.22,354.857 460.815,356.388 499.371,357.923 465.03,359.455 485.004,360.99    497.575,362.526 464.459,364.062 472.811,365.599 487.073,354.748  " style="fill:#00309C;"/><g><path d="M302.45,215.831c0,24.171,20.035,43.753,44.736,43.753c24.684,0,44.719-19.583,44.719-43.753    c0-24.154-20.035-43.735-44.719-43.735C322.485,172.095,302.45,191.677,302.45,215.831z" style="fill:#FFFFFF;"/><path d="M246.442,267.679c22.232,0,40.273-17.639,40.273-39.36c0-21.758-18.041-39.365-40.273-39.365    c-22.231,0-40.235,17.607-40.235,39.365C206.207,250.04,224.211,267.679,246.442,267.679z" style="fill:#FFFFFF;"/><path d="M155.102,274.957c19.999,0,36.229-15.849,36.229-35.413c0-19.563-16.23-35.416-36.229-35.416    c-20.017,0-36.228,15.853-36.228,35.416C118.874,259.108,135.085,274.957,155.102,274.957z" style="fill:#FFFFFF;"/><path d="M191.276,340.596c2.013,0,3.641-1.591,3.641-3.528V323.28c0-20.423-16.852-40.225-39.815-40.225    c-22.962,0-39.796,19.802-39.796,40.225v13.787c0,1.938,1.61,3.528,3.605,3.528h1.299h69.804H191.276z" style="fill:#FFFFFF;"/><path d="M286.659,340.596c2.214,0,4.025-1.773,4.025-3.949V321.36c0-22.727-18.699-44.704-44.243-44.704    c-25.506,0-44.224,21.978-44.224,44.704v15.286c0,2.176,1.793,3.949,4.025,3.949h1.427h77.58H286.659z" style="fill:#FFFFFF;"/><path d="M347.187,269.545c-28.36,0-49.146,24.427-49.146,49.694v16.986c0,2.396,1.995,4.37,4.465,4.37    h1.573h86.199h1.572c2.471,0,4.502-1.975,4.502-4.37v-16.986C396.352,293.972,375.548,269.545,347.187,269.545z" style="fill:#FFFFFF;"/></g></g><g id="Layer_1"/></svg>