<?xml version="1.0" ?><!DOCTYPE svg  PUBLIC '-//W3C//DTD SVG 1.1//EN'  'http://www.w3.org/Graphics/SVG/1.1/DTD/svg11.dtd'><svg height="512px" style="enable-background:new 0 0 512 512;" version="1.1" viewBox="0 0 512 512" width="512px" xml:space="preserve" xmlns="http://www.w3.org/2000/svg" xmlns:xlink="http://www.w3.org/1999/xlink"><g id="social__x2C__media__x2C__social_media__x2C___add_this__x2C_"><polygon points="470.167,368.662 471.643,370.077 468.428,371.406 492.761,373.757 488.806,375.246    485.815,376.701 487.637,378.463 467.836,378.226 494.657,382.512 486.792,383.305 495.46,386.136 479.546,385.515    465.177,384.713 491.803,390.837 488.369,391.917 486.236,393.175 475.452,392.478 461.646,390.776 489.537,399.103    469.704,395.608 482.915,400.793 487.612,403.882 485.582,405.027 459.438,398.298 484.35,408.157 469.162,404.532    458.958,402.304 465.036,406.063 475.932,411.989 469.89,411.176 465.974,411.107 467.099,413.214 460.239,411.633    474.171,419.941 478.484,423.896 471.167,422 482.255,429.772 456.084,417.243 478.263,431.541 467.208,427.015 453.798,420.67    476.1,436.314 471.948,435.689 454.515,426.076 461.755,432.777 450.984,427.049 467.618,440.89 447.678,428.026 470.653,447.456    461.707,442.606 465.825,448.069 444.517,432.45 466.014,452.764 457.374,447.471 459.96,452.024 448.625,443.732 441.378,438.857    435.129,434.64 455.56,457.19 455.754,459.845 450.354,456.586 432.781,439.685 445.6,456.167 435.743,447.155 445.514,461.032    436.861,453.01 442.356,462.342 443.352,466.32 438.3,462.366 422.567,443.453 425.494,449.785 431.056,460.282 432.535,465.24    433.876,470.232 423.268,456.431 427.698,466.436 419.587,455.75 424.164,466.553 425.688,472.491 430.441,484.791    415.685,460.219 420.723,473.423 417.072,469.561 412.937,464.326 408.979,459.03 406.79,457.4 404.814,456.101 409.289,470.703    406.65,468.052 412.467,487.938 401.389,461.887 401.52,466.494 398.868,462.924 402.671,479.779 398.928,472.671 400.191,482.706    396.616,475.521 398.129,487.814 395.291,483.077 390.072,466.889 391.156,478.939 386.634,463.583 388.489,481.509    385.45,472.675 385.201,480.704 384.819,489.34 383.745,494.332 379.899,474.886 377.971,470.032 376.67,471.137 376.475,489.284    375.192,496.198 373.401,495.015 370.884,465.337 369.611,469.418 368.229,471.736 366.701,500.151 365.174,479.57    363.646,479.136 362.119,476.816 360.592,488.287 359.064,497.563 357.537,495.104 356.01,490.704 354.481,474.635    352.953,473.358 351.425,479.32 349.896,486.897 348.366,478.615 346.837,496.032 345.308,491.296 343.778,462.111 342.25,499.993    340.722,465.577 339.193,494.752 337.665,474.525 336.138,485.313 334.609,481.355 333.082,475.348 331.554,462.729    330.026,470.97 328.498,484.363 326.97,465.67 325.441,476.631 323.913,469.171 322.385,474.579 320.856,493.728 319.327,491.561    317.798,483.04 316.27,484.647 314.741,491.218 313.214,476.829 311.688,497.104 310.161,471.128 308.636,497.811 307.11,489.993    305.586,469.434 304.062,464.577 302.537,477.698 301.013,468.07 299.488,491.668 297.964,499.717 296.44,484.658 294.916,486.96    293.392,463.174 291.866,466.909 290.342,491.881 288.815,480.308 287.29,485.606 285.763,486.246 284.235,462.808    282.707,469.093 281.178,484.104 279.648,465.421 278.117,499.26 276.587,493.147 275.058,461.372 273.529,482.723    272.002,483.041 270.474,495.887 268.947,490.92 267.42,496.32 265.894,487.352 264.367,473.501 262.841,495.664 261.314,461.152    259.787,494.177 258.26,499.84 256.732,478.2 255.203,474.64 253.674,493.971 252.144,498.252 250.612,488.948 249.081,472.457    247.551,463.842 246.021,491.625 244.493,478.44 242.964,495.661 241.436,500.509 239.908,481.897 238.38,480.003 236.851,490.373    235.322,484.265 233.792,490.24 232.262,469.081 230.73,461.305 229.198,470.219 227.667,469.221 226.138,465.443 224.608,500.359    223.079,463.043 221.549,498.161 220.02,464.541 218.489,471.548 216.958,491.495 215.425,492.939 213.894,484.248    212.363,473.506 210.833,478.938 209.302,481.506 207.772,473.247 206.241,500.821 204.708,466.153 203.176,476.354    201.645,487.302 200.114,465.44 198.583,482.645 197.051,475.182 195.519,479.668 193.986,479.421 192.46,462.717 190.932,461.021    189.401,471.91 187.868,480.231 186.336,462.578 184.808,493.053 183.279,491.341 181.75,499.914 180.221,494.693 178.688,479.395    177.155,481.353 175.623,499.297 174.093,475.658 172.562,483.081 171.027,490.907 169.494,468.546 167.962,483.852    166.429,472.493 164.894,469.394 163.36,475.307 161.825,463.082 160.291,487.499 158.756,493.143 157.224,481.645    155.693,488.518 154.157,492.547 152.623,469.823 151.087,491.096 149.549,491.115 148.014,487.953 146.475,466.984    144.933,487.024 143.392,476.838 141.995,470.648 140.589,470.951 138.685,483.472 136.407,496.675 134.742,495.377    134.064,482.197 133.663,469.939 130.695,484.39 131.007,468.708 128.854,474.343 124.841,491.21 122.121,497.332 122.552,484.762    121.595,481.202 119.344,484.33 119.042,478.231 112.974,497.25 120.188,461.041 116.098,471.39 114.982,469.97 117.065,457.809    109.611,477.616 103.751,490.644 103.79,485.061 110.011,462.521 109.555,459.82 102.103,475.437 95.993,486.406 103.674,463.57    104.275,458.674 94.089,477.996 97.308,467.243 97.018,464.437 87.593,479.979 87.822,475.856 99.067,451.382 85.833,472.633    87.771,465.977 85.207,467.307 90.707,455.269 75.465,476.945 72.162,478.836 73.594,473.459 76.06,466.823 81.52,456.283    89.014,443.484 84.509,447.398 66.163,469.03 63.347,469.804 68.836,460.262 70.655,455.578 74.212,449.072 70.437,451.151    59.752,460.669 62.195,455.571 64.805,450.503 67.9,445.16 70.49,440.532 51.204,457.121 63.079,443.635 47.142,456.105    51.22,450.13 62.446,438.239 61.5,437.135 65.022,432.386 55.612,438.076 48.849,441.358 45.347,441.947 62.094,427.692    60.581,427.083 59.889,425.876 55.34,427.244 42.545,433.813 37.513,435.046 47.589,426.898 36.956,431.408 55.824,418.656    54.449,417.85 35.458,426.469 30.268,427.275 31.136,424.893 40.171,418.604 53.928,410.431 36.878,416.654 54.687,407.168    39.406,412.137 25.203,416.2 55.226,402.718 20.117,414.376 31.71,408.346 50.069,400.397 38.602,402.704 24.06,405.634    16.873,405.969 16.815,404.11 37.93,396.663 34.185,396.064 52.912,390.068 43.804,390.788 24.142,393.43 21.825,392.188    13.31,391.978 49.913,384.141 33.91,385.241 27.426,384.599 31.292,382.515 44.667,379.513 13.133,381.14 15.513,379.147    49.617,375.098 49.897,373.802 23.836,373.561 39.333,371.51 27.039,370.252 28.897,368.662 50.052,367.136 33.308,365.61    40.783,364.084 46.374,362.559 38.147,361.032 36.732,359.506 29.74,357.979 19.188,356.453 40.609,354.927 40.645,353.399    33.57,351.872 35.607,350.345 24.242,348.816 24.348,347.289 41.099,345.761 41.72,344.232 47.347,342.705 11.42,341.178    22.238,339.651 34.168,338.124 49.743,336.598 33.811,335.071 17.028,333.545 37.794,332.018 39.263,330.491 32.73,328.965    15.532,327.438 46.967,325.91 38.484,324.383 25.099,322.856 22.338,321.329 49.325,319.801 15.451,318.273 44.278,316.746    39.438,315.22 30.701,313.693 42.125,312.168 23.854,310.644 41.188,309.119 39.948,307.595 24.318,306.071 13.222,304.548    35.153,303.025 12.458,301.502 46.871,299.979 13.715,298.456 42.55,296.934 31.097,295.41 37.798,293.887 24.025,292.363    12.051,290.84 43.304,289.314 35.19,287.79 23.676,286.265 20.694,284.738 33.116,283.212 40.575,281.684 43.292,280.155    15.657,278.625 26.876,277.097 22.538,275.568 50.413,274.041 50.643,272.515 11.34,270.988 14.301,269.463 39.611,267.938    30.61,266.412 22.982,264.887 29.068,263.361 15.64,261.836 38.64,260.311 47.195,258.784 16.816,257.258 18.404,255.73    18.632,254.202 26.186,252.673 26.358,251.143 38.45,249.613 47.633,248.084 14.283,246.556 36.364,245.028 11.771,243.501    11.504,241.975 19.411,240.448 19.125,238.92 22.655,237.393 37.725,235.865 49.494,234.337 20.809,232.808 23.326,231.277    19.024,229.747 22.525,228.217 21.94,226.688 39.135,225.16 21.652,223.632 19.074,222.104 41.867,220.576 48.047,219.046    31.985,217.517 15.94,215.985 50.959,214.455 23.176,212.925 35.255,211.396 19.748,209.867 34.305,208.338 47.117,206.808    40.137,205.277 19.204,203.746 50.626,202.216 26.821,200.687 42.938,199.157 34.786,197.626 30.179,196.095 37.771,194.564    25.16,193.039 44.591,191.512 35.404,189.982 26.206,188.45 18.149,186.92 25.116,185.393 48.041,183.866 18.135,182.338    48.632,180.81 45.702,179.279 46.49,177.746 43.91,176.216 38.838,174.687 15.408,173.157 37.157,171.624 47.077,170.092    34.998,168.561 21.054,167.029 43.529,165.495 26.295,163.963 37.935,162.43 15.175,160.896 36.736,159.362 39.038,157.832    49.535,156.302 32.673,154.767 11.342,153.234 35.85,151.7 48.809,150.163 14.859,148.629 30.137,147.091 33.892,145.551    31.326,144.011 19.705,142.325 41.674,141.225 38.625,139.708 25.919,137.59 17.218,135.394 14.522,133.438 22.322,132.409    21.944,130.7 47.664,132.16 30.774,128.533 47.221,129.429 40.796,127.031 23.864,122.564 44.754,124.902 45.024,123.557    47.159,122.623 31.604,117.574 29.762,115.495 17.901,110.695 50.875,118.078 53.598,117.517 52.067,115.708 47.505,112.851    55.377,114.072 52.078,111.554 50.11,109.42 20.173,96.372 46.832,105.168 43.842,102.377 40.169,99.172 49.791,101.833    33.458,92.634 36.197,92.122 50.199,97.335 45.018,93.038 50.514,94.275 53.458,94.264 48.875,90.019 34.557,79.824 44.206,83.688    52.004,86.722 47.275,81.901 53.961,84.484 53.459,82.361 41.902,72.356 64.374,86.626 53.085,76.498 61.777,81.255 68.098,84.472    49.546,67.654 50.577,66.367 48.231,62.163 49.975,61.419 63.165,71.119 49.556,56.363 54.576,58.757 55.117,56.926 76.096,75.808    63.309,60.58 60.8,55.578 58.073,50.113 82.065,74.646 81.012,71.487 79.111,67.176 76.144,61.357 75.001,57.568 74.354,54.258    73.311,50.28 77.136,52.824 88.821,66.693 71.077,38.557 70.098,33.935 87.028,56.784 80.619,43.905 75.263,32.01 84.98,44.945    85.198,42.163 81.605,32.379 91.692,47.496 84.074,29.563 90.505,38.455 89.154,31.973 90.624,31.096 91.727,29.401 92.497,26.857    99.426,38.899 98.121,31.482 102.543,38.337 110.446,55.216 110.483,51.452 112.784,54.059 111.276,45.206 111.692,41.76    106.227,17.994 113.571,37.62 115.378,38.554 111.979,18.802 117.839,36.004 116.985,25.107 121.458,38.536 123.766,42.731    121.553,22.312 122.855,19.785 129.484,52.379 127.364,27.428 131.095,44.712 130.239,24.118 131.612,21.151 133.351,21.692    135.457,28.062 136.938,26.04 138.079,14.17 140.794,49.493 142.062,47.199 143.392,18.204 144.919,29.319 146.446,13.93    147.974,46.824 149.5,39.291 151.028,45.467 152.556,51.237 154.083,24.027 155.611,45.91 157.139,46.702 158.667,12.914    160.195,21.068 161.724,43.807 163.253,29.248 164.783,13.238 166.313,50.169 167.841,46.785 169.37,25.391 170.898,41.878    172.427,14.999 173.955,12.6 175.482,38.375 177.011,20.213 178.538,32.416 180.066,44.402 181.594,41.911 183.122,20.084    184.65,18.178 186.179,46.47 187.707,18.048 189.235,23.706 190.764,20.398 192.293,42.997 193.822,27.14 195.351,23.508    196.879,44.48 198.406,28.671 199.933,43.686 201.458,40.646 202.984,13.288 204.509,39.804 206.034,31.774 207.559,20.933    209.083,46.308 210.607,34.756 212.131,33.882 213.656,26.943 215.18,21.526 216.704,32.406 218.229,26.797 219.753,45.042    221.279,43.814 222.804,17.423 224.331,38.379 225.857,26.079 227.385,23.531 228.913,21.078 230.442,38.951 231.972,38.515    233.503,29.12 235.033,46.358 236.562,21.034 238.09,32.705 239.619,17.43 241.146,46.126 242.673,21.201 244.2,15.119    245.726,45.535 247.253,23.075 248.779,17.788 250.306,51.23 251.833,47.769 253.36,20.234 254.888,18.21 256.417,15.808    257.946,41.769 259.477,30.767 261.008,29.641 262.539,29.418 264.069,47.229 265.599,35.813 267.128,26.803 268.656,19.806    270.185,21.158 271.712,39.142 273.24,50.611 274.77,26.982 276.298,13.356 277.828,27.333 279.358,31.433 280.891,50.712    282.422,45.886 283.952,44.272 285.482,30.706 287.012,19.179 288.541,40.271 290.07,28.676 291.601,14.658 293.131,37.586    294.662,16.188 296.194,43.433 297.727,13.897 299.257,15.399 300.787,45.388 302.317,25.475 303.848,22.605 305.379,31.046    306.911,24.591 308.444,44.956 309.976,51.087 311.506,12.761 313.037,31.138 314.568,42.465 316.102,45.438 317.634,14.364    319.16,45.112 320.688,33.058 322.219,48.066 323.753,24.709 325.283,41.688 326.813,25.814 328.341,32.825 329.87,29.555    331.399,37.487 332.932,47.701 334.466,28.5 335.997,24.604 337.527,14.649 339.059,40.48 340.593,44.416 342.126,18.471    343.658,26.394 345.191,19.42 346.727,11.887 348.26,44.318 349.795,47.815 351.329,22.546 352.864,15.299 354.396,18.902    355.927,35.663 357.464,39.185 358.997,26.527 360.533,27.824 362.071,40.858 363.606,46.569 365.146,16.479 366.687,35.659    368.229,37.496 369.877,23.235 371.678,17.54 372.504,39.883 374.346,32.231 376.151,28.183 375.927,50.653 379.43,27.203    379.948,37.321 384.289,13.858 381.12,50.471 385.425,30.481 386.839,31.561 390.116,22.049 391.595,23.342 388.597,46.17    388.692,52.074 394.613,32.515 392.273,48.32 398.054,31.755 401.583,25.021 401.305,31.959 398.947,45 397.206,54.938    408.311,26.213 401.738,49.813 412.078,25.854 411.459,32.227 411.662,36.118 404.127,58.249 414.709,37.078 407.161,57.715    419.128,35.155 421.241,34.56 415.132,50.444 420.026,44.116 421.264,45.062 431.334,30.048 417.41,57.974 435.104,30.667    432.718,38.04 420.966,59.944 433.99,42.313 430.378,50.714 438.577,41.474 431.182,54.885 424.016,67.288 430.842,60.319    429.249,64.733 444.762,47.328 432.822,64.668 438.358,60.229 454.021,44.309 447.764,54.097 454.571,49.033 442.528,64.508    450.793,58.036 442.049,69.229 455.584,57.883 435.94,79.082 453.871,64.075 454.358,65.791 446.484,74.886 462.326,63.119    468.303,60.32 454.979,73.479 443.601,84.443 468.215,67.128 474.101,64.878 474.828,66.572 444.008,90.599 457.381,82.934    465.13,79.533 458.003,86.046 446.944,94.722 448.169,95.469 457.409,91.478 457.765,92.907 470.902,87.223 452.449,98.958    469.489,91.569 453.111,101.531 478.054,90.871 469.425,96.756 465.993,99.982 458.05,105.028 489.348,93.362 462.995,105.923    462.085,107.762 473.338,105.049 460.525,111.229 492.312,101.815 469.912,110.987 470.62,112.293 460.341,116.86 477.503,113.405    469.104,117.229 466.313,119.405 477.989,118.063 473.935,120.536 482.705,120.229 488.938,120.66 492.299,121.762 485.498,124.63    467.434,128.983 478.681,128.828 460.775,132.547 470.184,132.821 478.375,133.445 468.825,135.728 466.335,137.292    478.321,137.985 499.227,138.655 472.814,141.146 490.976,142.336 465.367,144.011 482.075,145.537 496.523,147.063    495.184,148.589 494.456,150.115 460.863,151.641 492.256,153.167 476.621,154.693 473.833,156.22 491.075,157.747    484.392,159.273 470.768,160.8 469.008,162.328 473.198,163.856 478.633,165.384 481.195,166.913 491.588,168.44 496.104,169.968    465.601,171.495 465.069,173.021 485.534,174.548 476.312,176.075 490.097,177.602 480.285,179.128 492.243,180.655    489.56,182.182 497.324,183.708 480.491,185.235 475.713,186.762 490.856,188.29 487.298,189.816 464.254,191.343 469.025,192.872    499.307,194.4 488.728,195.927 464.616,197.454 483.421,198.979 463.962,200.505 483.587,202.03 485.292,203.554 481.184,205.078    486.933,206.602 473.638,208.125 469.746,209.648 493.629,211.171 500.008,212.694 500.174,214.217 489.437,215.74 465.39,217.263    471.049,218.786 488.189,220.31 477.417,221.833 466.313,223.358 476.401,224.883 486.28,226.408 493.611,227.935 492.151,229.461    475.563,230.989 493.478,232.518 487.946,234.047 495.362,235.576 484.371,237.104 484.295,238.631 467.653,240.158    467.213,241.685 462.959,243.21 463.223,244.735 474.951,246.261 492.481,247.786 494.731,249.312 479.935,250.837    481.352,252.363 477.968,253.889 492.585,255.416 476.429,256.943 484.891,258.471 476.1,260 488.676,261.53 497.396,263.06    476.465,264.589 464.858,266.117 463.927,267.645 495.025,269.172 481.589,270.698 465.278,272.226 493.562,273.752    499.515,275.279 463.766,276.808 497.786,278.336 484.899,279.865 466.538,281.396 495.772,282.927 498.61,284.456    483.675,285.984 492.917,287.513 465.063,289.041 497.517,290.569 465.113,292.098 471.738,293.627 479.593,295.156    498.133,296.688 466.026,298.218 478.184,299.748 480.243,301.276 482.085,302.806 494.173,304.335 477.303,305.864    466.171,307.396 498.233,308.927 471.129,310.457 484.999,311.986 479.286,313.517 498.206,315.047 484.941,316.578    493.464,318.109 474.116,319.634 479.551,321.161 488.775,322.69 492.312,324.223 499.314,325.753 477.675,327.28 481.836,328.808    496.673,330.335 477.063,331.863 487.89,333.395 468.818,334.927 473.486,336.457 486.609,337.986 498.775,339.517    474.101,341.049 477.251,342.581 478.201,344.112 478.118,345.644 466.964,347.178 486.469,348.71 483.652,350.243    492.688,351.776 474.088,353.311 492.052,354.841 489.811,356.371 483.08,357.906 495.54,359.438 488.93,360.974 481.151,362.51    474.896,364.044 500.547,365.582 481.071,368.507  " style="fill:#FF6C49;"/><polygon points="396.352,228.263 283.933,228.263 283.933,115.927 227.724,115.927 227.724,228.263    115.306,228.263 115.306,284.427 227.724,284.427 227.724,396.764 283.933,396.764 283.933,284.427 396.352,284.427  " style="fill:#FFFFFF;"/></g><g id="Layer_1"/></svg>