<?xml version="1.0" ?><!DOCTYPE svg  PUBLIC '-//W3C//DTD SVG 1.1//EN'  'http://www.w3.org/Graphics/SVG/1.1/DTD/svg11.dtd'><svg height="512px" style="enable-background:new 0 0 512 512;" version="1.1" viewBox="0 0 512 512" width="512px" xml:space="preserve" xmlns="http://www.w3.org/2000/svg" xmlns:xlink="http://www.w3.org/1999/xlink"><g id="social__x2C__media__x2C__social_media__x2C___imdb__x2C_"><polygon points="473.009,368.68 480.966,370.219 493.765,372.102 469.373,372.836 461.152,373.782    470.351,375.679 496.198,379.177 497.95,381.1 465.224,379.337 497.604,384.65 481.497,384.244 483.095,386.064 477.98,386.831    474.33,387.725 473.701,389.1 483.171,392.563 462.505,389.624 473.076,393.475 460.391,391.813 478.238,397.889 494.78,404.143    461.304,396.13 493.924,407.645 480.645,405.211 462.994,400.899 477.271,407.431 470.167,406.479 483.534,413.25 475.923,412    483.733,416.988 466.573,411.384 475.629,417.087 479.429,420.646 482.133,423.822 464.645,416.963 453.21,412.672    454.708,414.968 482.087,431.697 452.217,416.611 455.603,420.168 462.175,425.794 451.098,420.6 453.783,423.92 460.635,430.18    473.621,440.948 465.324,437.219 462.749,437.349 453.959,432.748 461.339,440.286 447.647,431.466 467.613,449.54    457.573,443.409 462.994,450.196 457.314,447.437 458.538,450.732 458.164,452.671 451.862,448.94 437.168,436.664    457.913,459.606 441.086,444.562 447.443,453.479 432.007,438.845 429.57,438.046 440.631,452.846 432.62,445.627 438.604,455.159    446.463,467.542 430.132,449.149 425.59,445.377 432.581,457.229 430.587,456.996 432.238,462.019 426.248,455.804    424.224,455.315 431.392,469.393 426.055,463.746 426.457,467.414 432.969,481.97 429.033,478.553 427.346,479.023    424.068,476.408 417.306,466.615 413.038,461.217 417.708,474.542 413.693,469.523 416.724,480.29 407.895,463.489    403.242,455.639 413.568,485.954 410.716,483.205 412.208,492.437 406.057,479.868 407.31,488.905 397.706,463.703    398.388,470.858 400.425,483.549 400.51,490.25 398.691,490.057 394.813,481.052 388.675,460.581 390.896,477.695 389.958,480.869    390.488,492.729 385.17,470.928 385.669,483.841 381.776,466.988 384.105,497.299 379.176,468.217 378.595,476.622    377.793,485.121 375.814,479.455 374.92,491.125 372.317,467.987 371.257,479.296 369.631,470.883 368.229,484.516    366.701,475.142 365.174,478.459 363.646,483.915 362.119,492.464 360.592,495.923 359.064,493.672 357.537,500.425    356.01,477.723 354.481,485.609 352.953,472.583 351.425,473.144 349.896,477.642 348.366,462.032 346.837,474.775    345.308,475.948 343.778,468.765 342.25,484.813 340.722,488.294 339.193,478.689 337.665,490.697 336.138,474.925    334.609,488.712 333.082,483.034 331.554,480.684 330.026,500.883 328.498,482.025 326.97,495.582 325.441,490.14 323.913,497.834    322.385,492.637 320.856,474.492 319.327,494.376 317.798,485.789 316.27,477.641 314.741,485.868 313.214,466.788    311.688,493.235 310.161,488.717 308.636,486.174 307.11,488.747 305.586,492.396 304.062,462.831 302.537,486.894    301.013,486.432 299.488,472.382 297.964,483.026 296.44,477.738 294.916,485.878 293.392,476.479 291.866,490.533    290.342,464.581 288.815,497.478 287.29,489.833 285.763,489.46 284.235,478.442 282.707,481.171 281.178,483.763 279.648,465.322    278.117,471.715 276.587,463.61 275.058,462.98 273.529,498.634 272.002,477.92 270.474,498.512 268.947,461.942 267.42,494.832    265.894,471.221 264.367,461.455 262.841,496.59 261.314,491.793 259.787,461.958 258.26,490.418 256.732,497.73 255.203,486.151    253.674,464.447 252.144,463.222 250.612,472.32 249.081,499.722 247.551,473.286 246.021,483.211 244.493,478.874    242.964,467.231 241.436,484.445 239.908,484.369 238.38,463.267 236.851,466.643 235.322,497.352 233.792,487.154    232.262,461.191 230.73,473.296 229.198,494.255 227.667,496.262 226.138,493.484 224.608,479.134 223.079,493.102 221.549,491.62    220.02,500.607 218.489,478.247 216.958,470.179 215.425,463.818 213.894,482.519 212.363,480.019 210.833,488.768    209.302,465.245 207.772,470.177 206.241,491.067 204.708,470.069 203.176,468.18 201.645,494.944 200.114,467.29 198.583,462.643    197.051,481.084 195.519,462.121 193.986,497.229 192.46,486.609 190.932,474.354 189.401,494.888 187.868,498.006    186.336,488.869 184.808,486.766 183.279,494.859 181.75,485.1 180.221,485.59 178.688,463.881 177.155,485.563 175.623,497.193    174.093,468.208 172.562,479.651 171.027,485.033 169.494,477.349 167.962,469.194 166.429,492.482 164.894,473.807    163.36,471.764 161.825,483.835 160.291,486.989 158.756,484.55 157.224,487.356 155.693,484.279 154.157,472.72 152.623,499.598    151.087,489.417 149.549,462.106 148.014,471.072 146.475,462.602 144.933,480.612 143.392,495.655 141.848,481.648    140.065,490.556 139.527,462.461 136.31,498.168 135.831,479.14 134.864,472.36 134.539,460.714 130.772,483.686 130.517,472.729    130.682,460.832 124.168,495.69 123.968,486.091 123.745,478.072 121.321,482.632 120.145,480.484 116.867,488.094    118.367,474.406 111.548,495.582 113.091,482.727 107.775,495.787 111.679,476.111 109.842,476.869 113.272,461.306    106.278,477.741 106.241,473.141 100.522,484.221 106.458,464.181 107.692,457.353 94.222,486.163 105.804,455.167 89.914,487.26    90.971,480.804 98.448,461.493 92.341,470.526 91.909,467.979 96.729,455.753 91.553,462.316 93.63,455.736 95.426,449.982    82.663,468.488 93.035,448.995 77.186,471.082 90.277,448.437 73.527,470.524 78.856,460.061 80.604,455.056 84.648,447.204    78.852,452.552 62.268,471.187 76.354,451.036 81.2,442.981 64.93,459.866 81.2,438.987 75.485,443.361 67.774,449.605    65.028,450.283 63.439,449.693 61.512,449.41 64.247,444.607 63.593,443.169 53.613,450.23 65.917,437.123 48.227,450.501    47.257,449.08 55.907,439.82 64.503,431.038 60.361,432.501 59.023,431.714 39.144,444.415 65.505,423.615 40.199,439.414    50.614,430.413 47.131,430.855 42.898,431.669 60.125,419.278 48.649,424.508 45.364,424.658 29.161,431.881 60.91,412.806    48.998,417.562 51.782,414.545 41.852,417.803 51.004,411.815 28.418,420.493 22.808,421.058 39.568,412.084 39.139,410.602    32.605,411.484 51.351,402.797 26.212,410.316 20.205,410.572 29.937,405.535 38.703,401.115 31.781,401.594 45.059,396.227    41.874,395.632 17.361,400.294 20.244,397.78 30.856,393.668 22.553,393.78 16.385,393.248 49.051,385.625 16.364,389.666    17.911,387.659 19.541,385.69 20.125,383.9 22.808,381.899 12.468,381.218 18.737,378.904 48.078,375.218 28.554,374.96    48.38,372.593 16.107,372.158 25.069,370.295 26.933,368.68 11.836,367.153 39.941,365.627 15.659,364.102 26.518,362.575    45.914,361.049 23.221,359.522 47.829,357.996 31.131,356.47 16.246,354.942 14.654,353.416 28.878,351.889 18.491,350.36    31.013,348.833 49.612,347.304 20.707,345.776 35.971,344.248 40.01,342.721 30.518,341.193 48.609,339.666 32.71,338.14    36.538,336.612 25.312,335.086 37.178,333.559 26.635,332.032 45.78,330.506 12.728,328.979 47.093,327.452 25.16,325.925    23.409,324.398 43.099,322.872 46.483,321.345 18.304,319.816 48.179,318.288 43.472,316.761 30.686,315.234 22.988,313.708    12.251,312.183 35.775,310.657 44.088,309.133 17.246,307.609 33.014,306.085 36.764,304.562 37.834,303.038 23.106,301.516    30.112,299.992 48.529,298.47 37.155,296.946 16.91,295.423 11.496,293.899 48.296,292.376 32.034,290.853 45.78,289.327    32.173,287.803 26.268,286.277 25.006,284.751 29.027,283.224 49.463,281.695 20.275,280.167 49.801,278.637 23.221,277.108    38.479,275.58 35.964,274.053 34.6,272.525 29.69,271 31.594,269.474 41.277,267.948 43.65,266.423 43.184,264.897 45.65,263.372    44,261.847 10.992,260.32 20.462,258.794 40.631,257.268 41.077,255.74 20.047,254.211 27.56,252.682 33.6,251.152 48.506,249.622    42.809,248.093 44.463,246.565 31.594,245.037 40.502,243.51 32.394,241.983 45.97,240.456 27.263,238.929 46.718,237.401    42.712,235.874 37.462,234.345 41.003,232.815 36.272,231.285 28.985,229.754 24.355,228.225 13.303,226.696 37.306,225.167    42.876,223.639 33.973,222.111 11.096,220.582 40.849,219.053 35.985,217.523 48.58,215.991 31.834,214.461 17.727,212.931    25.445,211.402 48.353,209.873 29.049,208.344 37.27,206.813 35.39,205.283 23.011,203.751 43.147,202.221 16.562,200.691    48.012,199.161 30.884,197.631 21.191,196.1 49,194.568 18,193.043 44.127,191.516 49.416,189.986 40.871,188.454 24.077,186.924    18.882,185.396 22.225,183.869 44.77,182.341 11.391,180.813 49.102,179.282 31.427,177.749 18.52,176.219 38.529,174.689    42.783,173.159 19.449,171.626 38.427,170.094 42.878,168.563 19.399,167.031 20.292,165.497 15.542,163.965 38.104,162.431    27.23,160.898 11.97,159.363 23.771,157.833 37.484,156.303 19.374,154.768 24.172,153.235 48.472,151.7 16.855,150.164    47.179,148.629 44.927,147.091 24.403,145.551 50.915,144.011 29.864,142.46 50.022,141.448 11.793,138.632 16.815,137.099    19.27,135.533 19.119,133.813 19.131,132.107 38.142,132.457 17.688,128.495 21.279,127.241 40.91,128.482 24.129,124.29    28.322,123.364 35.157,123.052 21.581,118.706 35.864,120.125 37.518,118.97 27.816,115.006 28.731,113.566 37.428,114.316    46.281,115.36 32.044,109.502 33.395,108.267 39.524,108.683 50.948,111.16 33.161,103.124 55.094,109.894 35.561,100.628    50.849,105.314 40.462,99.3 36.427,95.795 55.992,103.19 24.672,86.517 36.714,90.561 61.226,101.457 36.071,86.514 54.848,95.036    53.41,92.62 53.652,91.115 56.421,91.145 43.365,81.287 48.58,82.747 65.56,92.232 49.531,79.66 54.239,81.088 37.528,67.071    57.634,79.908 53.388,74.788 56.014,74.892 48.242,66.591 65.27,78.678 56.98,69.699 48.706,60.295 48.298,57.593 57.001,63.33    72.546,76.026 61.424,63.157 57.525,56.959 79.205,77.156 66.414,61.592 78.696,72.821 56.467,45.681 64.354,52.109 61.45,46.06    63.11,45.345 85.82,71.24 67.5,45.349 78.003,56.554 66.023,37.547 82.919,58.344 71.951,39.83 70.406,34.397 82.745,50.162    87.047,54.147 93.125,61.342 95.043,62 89.107,48.996 84.38,37.376 81.757,28.958 90.774,42.476 100.637,58.655 94.161,42.301    95.657,41.859 100.129,48.035 99.908,43.915 96.176,31.123 97.585,30.159 101.35,35.247 105.456,41.743 104.269,33.955    102.464,23.685 102.917,19.455 114.742,51.6 115.151,48.325 118.034,53.598 111.823,25.115 120.562,53.16 113.184,16.213    117.715,28.408 122.941,45.711 125.537,51.928 123.663,34.131 121.814,13.496 126.334,31.396 125.409,13.076 128.155,20.671    131.701,37.59 131.671,21.72 134.282,33.211 135.509,28.827 136.65,20.708 139.186,41.751 139.963,18.393 141.945,38.43    143.392,46.306 144.919,25.789 146.446,15.938 147.974,34.625 149.5,48.339 151.028,27.778 152.556,29.096 154.083,23.384    155.611,36.983 157.139,32.406 158.667,28.146 160.195,45.955 161.724,14.327 163.253,18.774 164.783,17.36 166.313,35.544    167.841,27.67 169.37,31.226 170.898,36.994 172.427,20.674 173.955,29.784 175.482,31.117 177.011,38.968 178.538,38.794    180.066,34.734 181.594,43.205 183.122,35.005 184.65,23.872 186.179,37.987 187.707,50.383 189.235,15.91 190.764,31.724    192.293,29.575 193.822,30.531 195.351,40.792 196.879,26.824 198.406,49.047 199.933,29.231 201.458,34.943 202.984,34.35    204.509,50.974 206.034,22.083 207.559,15.148 209.083,41.214 210.607,49.748 212.131,20.379 213.656,41.172 215.18,49.825    216.704,32.429 218.229,13.903 219.753,12.147 221.279,28.344 222.804,28.391 224.331,44.566 225.857,46.658 227.385,41.16    228.913,24.509 230.442,44.668 231.972,45.229 233.503,23.363 235.033,34.645 236.562,13.518 238.09,13.995 239.619,42.945    241.146,12.187 242.673,46.153 244.2,28.296 245.726,34.482 247.253,34.38 248.779,27.925 250.306,14.921 251.833,48.064    253.36,47.195 254.888,28.7 256.417,31.813 257.946,37.191 259.477,39.516 261.008,50.406 262.539,23.9 264.069,29.418    265.599,15.354 267.128,41.695 268.656,13.893 270.185,23.478 271.712,32.869 273.24,33.473 274.77,26.717 276.298,16.639    277.828,38.932 279.358,29.026 280.891,26.395 282.422,26.051 283.952,47.991 285.482,22.511 287.012,44.079 288.541,27.814    290.07,33.977 291.601,19.558 293.131,16.017 294.662,37.552 296.194,44.014 297.727,33.733 299.257,30.197 300.787,16.196    302.317,22.668 303.848,12.601 305.379,20.391 306.911,24.779 308.444,15.498 309.976,27.162 311.506,46.394 313.037,31.934    314.568,40.653 316.102,38.379 317.634,39.171 319.16,37.906 320.688,17.268 322.219,14.587 323.753,29.685 325.283,38.78    326.813,39.398 328.341,33.494 329.87,20.135 331.399,14.697 332.932,24.264 334.466,22.545 335.997,36.382 337.527,25.814    339.059,23.526 340.593,51.403 342.126,40.276 343.658,39.732 345.191,26.379 346.727,30.278 348.26,40.679 349.795,14.166    351.329,23.165 352.864,47.879 354.396,41.89 355.927,18.613 357.464,38.31 358.997,42.709 360.533,48.252 362.071,38.729    363.606,21.287 365.146,41.485 366.687,43.677 368.229,47.202 369.861,24.403 371.653,18.451 372.3,44.929 374.73,25.047    375.605,36.304 376.031,49.354 379.415,27.359 380.041,36.454 383.614,19.388 386.108,13.763 386.805,21.261 385.202,41.556    386.949,39.818 388.768,38.037 394.248,18.788 393.301,31.198 392.508,41.456 399.656,18.784 398.785,28.986 396.022,44.935    402.435,28.112 398.354,46.899 401.625,41.32 409.126,23.812 404,43.446 403.447,49.143 410.154,35.607 408.989,42.763    408.804,47.068 408.793,50.683 418.469,32.615 407.775,59.438 411.056,55.576 410.743,59.194 416.013,51.85 428.741,31.117    414.85,59.804 429.61,36.645 418.243,59.227 422.485,54.844 426.555,51.045 421.881,61.025 424.637,59.331 428.285,56.469    437.494,45.95 440.132,45.107 444.071,42.613 446.943,41.722 428.621,67.732 434.665,62.404 447.424,49.391 449.109,50.018    433.161,70.628 453.24,50.499 451.948,54.406 438.699,70.653 433.876,77.536 451.467,61.945 441.737,73.517 437.492,79.389    456.999,63.381 456.832,65.719 441.934,80.687 454.629,71.78 463.107,66.852 446.036,82.519 448.65,82.219 470.129,67.834    466.78,72.435 448.4,87.475 458.742,81.998 454.66,86.525 468.852,79.016 467.441,81.833 448.555,95.234 466.807,85.923    479.609,80.387 450.283,98.675 462.919,93.332 465.826,93.473 456.518,99.823 455.828,101.666 459.179,101.551 465.394,100.254    460.291,104.066 474.324,99.662 487.816,95.909 483.785,99.367 479.812,102.643 457.912,112.158 459.941,112.848 472.393,110.182    471.485,112.025 457.671,117.631 477.412,113.43 472.437,116.353 467.871,119.005 472.168,119.439 491.726,116.608    474.017,122.033 474.491,123.444 492.31,121.75 481.104,125.348 475.716,127.738 461.775,131.125 473.476,130.998 463.214,133.568    481.791,133.122 494.655,133.651 474.591,136.731 486.863,137.529 487.395,139.13 494.346,140.571 474.786,142.558    463.159,144.011 488.26,145.537 495.265,147.063 466.509,148.589 478.869,150.115 491.878,151.642 495.934,153.168    497.065,154.694 494.756,156.221 485.243,157.748 489.747,159.275 462.373,160.802 468.243,162.33 496.492,163.858    489.887,165.386 480.395,166.915 482.897,168.442 466.397,169.97 498.562,171.497 489.75,173.024 485.296,174.551 465.776,176.078    471.88,177.604 499.991,179.131 490.748,180.658 495.162,182.185 471.712,183.711 499.736,185.239 499.07,186.766 482.987,188.293    495.711,189.82 488.972,191.348 461.708,192.876 478.55,194.404 496.826,195.932 481.729,197.458 461.426,198.984 495.975,200.51    483.498,202.035 465.404,203.559 485.827,205.083 485.443,206.607 491.81,208.13 482.971,209.653 475.951,211.177 487.962,212.7    480.847,214.223 464.331,215.746 471.204,217.269 489.86,218.792 462.501,220.316 493.066,221.84 491.861,223.364 473.334,224.889    476.996,226.415 494.807,227.941 500.397,229.468 499.243,230.996 485.335,232.525 473.521,234.055 482.904,235.583    478.413,237.112 469.983,238.639 481.921,240.166 471.826,241.692 467.734,243.218 494.986,244.744 492.272,246.269    471.277,247.794 467.24,249.32 496.792,250.845 473.838,252.371 466.186,253.897 474.471,255.424 477.035,256.952 483.218,258.48    476.521,260.009 492.356,261.539 468.514,263.069 473.824,264.599 477.845,266.127 486.849,267.654 465.624,269.182    470.752,270.709 469.434,272.235 470.586,273.763 490.502,275.29 497.282,276.818 471.253,278.347 468.813,279.876    466.109,281.407 499.288,282.938 490.975,284.467 463.819,285.996 467.53,287.524 493.772,289.053 482.354,290.58 474.142,292.109    462.72,293.639 467.798,295.169 496.167,296.7 464.786,298.23 473.949,299.76 494.059,301.289 484.983,302.818 484.717,304.348    471.214,305.878 469.341,307.408 483.011,308.939 487.849,310.47 488.836,312 462.128,313.53 462.279,315.061 473.818,316.592    476.529,318.123 475.594,319.648 466.387,321.176 484.77,322.705 496.159,324.237 492.23,325.767 483.09,327.295 494.396,328.822    495.452,330.35 486.383,331.878 496.96,333.409 485.505,334.941 469.928,336.472 470.902,338.002 463.375,339.531 472.352,341.064    484.261,342.597 464.213,344.128 485.088,345.66 483.978,347.193 484.357,348.726 484.002,350.26 492.618,351.793 464.825,353.327    491.386,354.857 493.807,356.388 469.727,357.923 468.863,359.455 469.012,360.99 488.742,362.526 485.223,364.062    463.476,365.599 486.044,380.506  " style="fill:#F4AD2C;"/><g><rect height="112.333" style="fill:#FFFFFF;" width="27.3" x="115.306" y="200.179"/><polygon points="180.865,249.473 192.447,312.512 209.317,312.512 220.588,249.473 220.588,312.512     243.898,312.512 243.898,200.179 206.883,200.179 200.553,253.166 191.404,200.179 156.273,200.179 156.273,312.512     180.865,312.512   " style="fill:#FFFFFF;"/><path d="M288.854,200.179h-30.538v112.333h30.703c17.456,0,23.311-1.938,28.16-5.832    c4.866-3.895,7.3-9.344,7.3-16.347v-67.975c0-7.534-2.599-13.11-7.795-16.73C311.471,202.008,307.061,200.179,288.854,200.179z     M295.168,288.943c0,5.32-5.892,4.607-10.558,4.607v-75.454c4.666,0,10.558-0.494,10.558,4.974V288.943z" style="fill:#FFFFFF;"/><path d="M379.445,218.097c-7.611-0.347-15.461,4.626-18.279,7.808v-25.726h-27.939v112.333h22.561    c0,0,1.719-6.692,3.622-5.851c1.922,0.822,11.601,4.954,18.279,4.954c6.678,0,9.423-0.438,12.625-1.847    c3.988-2.669,6.001-6.29,6.001-10.879v-65.324C397.01,224.131,387.057,218.463,379.445,218.097z M368.832,293.112    c0,2.761-1.262,4.681-3.787,4.681c-2.598,0-3.897-1.92-3.897-4.681l0.019-56.749c0-2.651,1.299-3.986,3.879-3.986    c2.543,0,3.824,1.372,3.824,4.15L368.832,293.112z" style="fill:#FFFFFF;"/></g></g><g id="Layer_1"/></svg>