<?xml version="1.0" ?><!DOCTYPE svg  PUBLIC '-//W3C//DTD SVG 1.1//EN'  'http://www.w3.org/Graphics/SVG/1.1/DTD/svg11.dtd'><svg height="512px" style="enable-background:new 0 0 512 512;" version="1.1" viewBox="0 0 512 512" width="512px" xml:space="preserve" xmlns="http://www.w3.org/2000/svg" xmlns:xlink="http://www.w3.org/1999/xlink"><g id="social__x2C__media__x2C__social_media__x2C___yelp__x2C_"><polygon points="461.481,368.662 489.495,370.324 497.969,372.196 487.637,373.551 500.455,375.869    490.271,376.994 477.615,377.647 485.814,379.932 493.918,382.431 462.808,380.353 476.665,383.566 474.733,384.788    485.588,388.063 491.092,390.693 480.354,390.366 477.909,391.453 493.345,396.427 467.682,392.182 472.476,394.822    466.977,394.882 468.626,396.788 458.903,395.403 487.869,405.732 472.354,402.492 462.717,400.786 480.358,408.515    465.64,404.778 472.184,408.834 478.741,413.115 463.569,408.516 476.266,415.586 479.587,418.849 452.725,408.104    470.854,418.324 460.339,414.79 455.607,413.913 479.661,428.357 467.257,423.446 457.903,419.857 448.249,415.785    454.045,420.826 474.711,435.435 447.408,419.775 455.903,427.002 453.381,427.012 464.22,436.415 451.536,429.147    451.043,430.542 469.538,446.589 451.816,434.756 459.629,443.009 448.039,435.394 449.987,438.949 463.865,453.2 446.882,440.1    446.408,441.65 437.48,435.104 462.313,461.448 449.423,450.952 459.056,463.275 458.121,464.896 451.81,460.618 430.466,439.036    437.381,449.039 447.858,463.821 428.067,442.196 446.952,468.147 434.17,454.369 426.066,446.008 423.324,444.459 441.192,471.98    421.896,446.92 434.45,468.096 434.853,471.725 426.176,461.047 423.582,459.645 427.428,469.036 422.523,463.661 415.33,453.759    428.366,480.879 419.836,468.214 423.677,479.285 413.372,461.899 409.699,457.386 411.345,464.285 407.451,458.894    411.046,470.982 409.012,469.986 402.236,456.607 401.049,457.08 403.972,469.141 403.518,472.343 407.312,488.844 395.64,457.018    404.063,490.085 399.646,480.698 400.296,489.376 395.854,478.643 396.989,490.229 390.774,470.011 387.413,460.753    392.004,491.406 387.03,473.246 387.331,484.015 383.113,466.732 382.075,469.077 380.089,464.373 379.618,472.139    380.786,499.547 379.038,500.138 375.626,476.349 373.688,467.77 372.488,471.8 371.094,472.538 369.84,484.983 368.246,493.102    366.719,488.259 365.191,466.992 363.664,492.708 362.137,493.148 360.609,482.048 359.082,469.638 357.555,496.257    356.027,473.561 354.499,477.5 352.971,498.6 351.442,473.27 349.914,472.803 348.385,489.572 346.854,469.238 345.325,485.524    343.797,500.324 342.268,484.805 340.739,498.028 339.211,494.238 337.683,471.515 336.155,490.105 334.627,486.457 333.1,463.884    331.571,470.88 330.044,475.657 328.516,486.277 326.987,470.774 325.459,494.664 323.931,498.226 322.402,487.316    320.874,472.646 319.345,484.167 317.815,491.109 316.287,489.12 314.759,495.529 313.231,481.033 311.705,466.97 310.179,497.686    308.653,494.117 307.128,475.728 305.604,479.818 304.079,468.501 302.555,481.912 301.03,500.47 299.506,472.372 297.982,477.189    296.458,467.384 294.934,497.872 293.409,475.074 291.884,498.952 290.359,472.388 288.833,476.531 287.308,482.988    285.78,478.115 284.253,489.104 282.725,484.823 281.196,476.835 279.666,468.992 278.135,491.746 276.605,474.149    275.076,474.432 273.547,489.319 272.02,479.275 270.492,462.885 268.965,478.752 267.438,467.535 265.911,465.388    264.385,472.285 262.858,488.899 261.332,485.126 259.805,472.02 258.277,485.59 256.75,480.203 255.221,495.3 253.692,482.606    252.162,461.582 250.63,479.71 249.099,479.245 247.569,491.371 246.04,493.858 244.511,483.327 242.982,461.209 241.454,484.867    239.926,467.027 238.398,500.832 236.869,463.667 235.34,492.049 233.811,461.152 232.28,475.052 230.748,463.803 229.216,499.092    227.686,495.604 226.156,481.41 224.626,472.581 223.097,485.242 221.567,463.642 220.038,474.127 218.507,477.641    216.976,495.931 215.444,488.946 213.912,465.304 212.381,491.271 210.851,489.392 209.321,475.343 207.791,483.156    206.259,484.709 204.727,473.058 203.195,480.998 201.663,475.619 200.132,490.025 198.602,465.971 197.07,488.293    195.537,465.622 194.005,490.826 192.479,483.445 190.95,480.673 189.419,484.23 187.886,463.043 186.355,480.266 184.826,477.692    183.297,467.93 181.769,467.05 180.239,488.639 178.707,479.505 177.173,486.32 175.642,472.347 174.111,487.157 172.58,492.071    171.046,486.424 169.513,496.087 167.98,477.046 166.447,464.304 164.912,479.907 163.379,496.675 161.844,461.903 160.31,468.437    158.774,479.429 157.243,483.69 155.711,487.223 154.175,474.818 152.641,470.382 151.105,485.398 149.568,475.918    148.032,492.438 146.493,484.28 144.952,475.074 143.41,496.138 142.07,466.372 139.832,499.983 138.148,497.32 137.459,477.396    136.924,463.296 134.342,478.984 131.232,495.747 129.915,491.742 127.618,496.625 130.58,461.703 125.975,483.813    122.328,496.174 122.842,483.249 123.912,469.232 120.58,478.45 116.04,491.907 117.098,479.864 120.481,459.873 114.006,479.338    112.942,477.326 106.356,494.251 108.64,480.796 108.829,475.016 109.037,469.652 109.305,464.552 104.474,473.581    102.341,474.861 108.46,455.472 97.014,479.525 103.855,459.68 96.601,472.459 101.657,457.975 92.982,472.794 101.874,451.542    97.104,457.997 88.927,470.327 89.979,465.175 88.418,464.867 91.68,456.37 75.682,479.965 77.414,473.863 88.472,453.64    87.986,451.879 88.031,449.401 84.509,452.07 72.163,466.666 70.2,466.531 80.481,450.45 61.536,472.086 79.517,447.155    75.949,449.261 60.137,465.438 59.901,463.083 77.776,440.856 64.32,453.308 77.52,437.276 60.726,452.443 57.797,453.076    48.873,459.388 75.093,432.4 67.519,437.588 51.576,449.83 56.801,443.112 44.788,451.146 67.921,430.034 50.186,442.389    53.369,437.885 57.546,432.817 56.882,431.489 64.989,423.967 43.664,437.028 40.228,437.341 50.312,428.79 37.185,435.254    63.711,417.08 48.749,424.44 39.295,428.13 54.23,417.967 39.272,424.425 38.69,422.909 57.87,411.475 39.64,418.867    30.906,421.221 50.227,410.635 49.482,409.437 31.897,415.29 34.047,412.644 43.868,407.114 27.218,411.739 34.287,407.434    41.207,403.409 28.901,405.858 32.703,402.96 21.851,404.513 48.505,395.25 32.981,397.976 21.945,399.129 50.502,390.639    33.487,393.072 28.84,392.461 18.171,392.888 16.643,391.395 38.522,386.019 19.197,387.458 49.977,381.526 25.705,383.198    47.51,379.205 37.196,378.856 43.381,376.895 24.911,376.765 22.161,375.289 18.249,373.784 39.74,371.499 18.561,370.365    26.246,368.662 46.414,367.136 15.11,365.61 20.487,364.084 13.655,362.559 23.161,361.032 22.04,359.506 49.618,357.979    38.047,356.453 19.331,354.927 46.959,353.399 24.458,351.872 24.337,350.345 34.854,348.816 30.083,347.289 29.098,345.761    19.608,344.232 29.85,342.705 37.199,341.178 45.289,339.651 22.871,338.124 31.033,336.598 32.043,335.071 24.132,333.545    32.251,332.018 17.131,330.491 37.983,328.965 31.141,327.438 48.333,325.91 27.018,324.383 17.729,322.856 18.398,321.329    32.447,319.801 34.336,318.273 19.863,316.746 37.581,315.22 38.617,313.693 32.362,312.168 40.893,310.644 47.586,309.119    37.919,307.595 32.843,306.071 31.625,304.548 50.533,303.025 14.036,301.502 22.575,299.979 16.565,298.456 29.854,296.934    48.721,295.41 21.468,293.887 35.134,292.363 24.262,290.84 15.917,289.314 45.835,287.79 33.411,286.265 11.312,284.738    43.343,283.212 40.68,281.684 15.186,280.155 14.334,278.625 40.189,277.097 24.708,275.568 21.062,274.041 26.477,272.515    49.8,270.988 31.825,269.463 44.341,267.938 45.591,266.412 45.978,264.887 12.871,263.361 12.468,261.836 13.75,260.311    11.731,258.784 41.339,257.258 22.771,255.73 35.111,254.202 39.201,252.673 26.826,251.143 41.239,249.613 25.886,248.084    49.486,246.556 39.971,245.028 13.105,243.501 50.185,241.975 31.165,240.448 12.623,238.92 33.982,237.393 15.452,235.865    36.222,234.337 37.001,232.808 50.275,231.277 21.28,229.747 32.153,228.217 27.576,226.688 17.658,225.16 35.313,223.632    48.998,222.104 49.456,220.576 26.35,219.046 30.017,217.517 40.024,215.985 36.981,214.455 41.916,212.925 14.078,211.396    14.866,209.867 46.331,208.338 50.391,206.808 12.126,205.277 23.802,203.746 45.839,202.216 16.435,200.687 26.595,199.157    31.975,197.626 27.81,196.095 43.29,194.564 35.427,193.039 22.272,191.512 45.568,189.982 23.278,188.45 19.396,186.92    45.646,185.393 39.481,183.866 47.611,182.338 32.789,180.81 37.575,179.279 15.728,177.746 24.227,176.216 31.184,174.687    39.482,173.157 41.554,171.624 12.439,170.092 30.107,168.561 43.797,167.029 20.739,165.495 43.129,163.963 28.287,162.43    21.456,160.896 33.083,159.362 13.223,157.832 29.268,156.302 30.567,154.767 41.596,153.234 23.241,151.7 35.138,150.163    45.004,148.629 31.187,147.091 26.613,145.551 26.114,144.011 41.665,142.618 22.633,140.716 39.658,139.75 39.889,138.344    25.391,135.944 25.65,134.343 20.865,132.275 44.009,133.097 49.26,132.361 14.222,126.278 27.532,126.473 35.572,126.171    31.221,123.878 28.313,121.733 40.104,122.536 21.8,117.004 22.394,115.395 46.91,119.79 22.907,112.014 34.03,113.361    48.402,115.982 54.745,116.535 43.858,111.663 34.092,106.83 28.019,102.993 27.521,101.024 38.992,103.655 55.255,108.562    25.981,94.884 48.589,102.83 24.287,90.295 51.621,101.136 50.735,99.174 37.849,91.124 60.345,101.001 58.235,98.426    58.946,97.304 49.465,90.351 63.137,96.716 39.241,80.651 52.349,86.931 62.478,91.751 38.918,74.433 39.913,73.035 47.365,76.214    63.961,86.317 66.055,86.211 47.999,70.62 51.666,71.434 55.548,72.538 48.921,64.96 54.38,67.447 47.428,59.146 45.941,55.429    70.211,75.671 71.279,74.797 52.181,54.021 63.801,63.317 57.81,54.828 57.212,51.715 68.307,61.372 67.058,57.656 76.094,65.747    75.193,62.471 70.996,55.015 66.416,46.701 74.273,54.134 84.329,65.001 72.054,45.814 68.802,38.336 89.484,65.369 80.047,48.847    81.505,48.225 82.761,47.297 90.788,57.49 85.855,46.406 89.318,49.345 95.372,57.209 81.36,28.194 97.262,54.973 90.415,38.244    92.529,38.9 94.385,39.108 91.727,29.355 96.042,34.979 93.02,23.539 94.249,21.802 107.77,51.824 97.846,21.148 110.581,51.71    102.197,22.848 113.161,50.988 105.932,23.081 112.114,37.964 109.039,21.317 111.319,23.15 116.974,38.729 113.547,17.685    121.926,47.401 120.598,34.289 119.999,23.046 126.886,52.154 125.39,35.143 125.233,23.938 128.917,38.727 130.058,36.072    131.111,31.997 132.759,33.058 133.271,20.501 135.831,33.333 136.403,15.799 138.086,14.101 140.394,33.834 142.052,45.083    143.41,30.509 144.938,40.187 146.465,41.889 147.992,14.901 149.519,38.416 151.046,14.709 152.574,30.679 154.102,43.648    155.629,15.15 157.157,32.649 158.686,15.821 160.214,36.019 161.743,36.793 163.272,47.69 164.801,27.091 166.331,21.759    167.86,47.063 169.388,38.805 170.917,30.559 172.445,16.061 173.973,13.991 175.501,50.318 177.029,46.95 178.557,22.7    180.084,44.65 181.612,19.054 183.14,24.916 184.668,43.66 186.197,46.657 187.726,42.374 189.253,47.993 190.782,18.993    192.312,25.255 193.841,40.799 195.369,33.957 196.897,40.661 198.424,44.667 199.951,29.004 201.477,25.378 203.002,44.114    204.528,22.506 206.053,28.921 207.577,30.08 209.102,41.349 210.626,25.984 212.15,38.693 213.674,30.275 215.198,19.208    216.723,38.66 218.247,51.247 219.772,39.12 221.297,46.663 222.823,26.493 224.349,16.223 225.875,23.453 227.403,34.817    228.931,31.941 230.46,19.012 231.99,51.438 233.521,13.415 235.051,44.851 236.58,50.655 238.109,43.889 239.637,47.58    241.164,18.895 242.691,42.34 244.218,48.013 245.745,18.513 247.271,22.322 248.797,18.286 250.324,12.337 251.851,31.969    253.378,11.723 254.906,40.701 256.435,21.538 257.965,38.174 259.495,17.63 261.026,40.626 262.558,49.954 264.087,27.005    265.616,30.631 267.146,48.383 268.674,32.517 270.202,22.145 271.73,16.799 273.259,37.365 274.787,31.863 276.316,37.97    277.846,31.168 279.377,14.964 280.908,20.352 282.439,22.923 283.971,17.995 285.5,14.335 287.03,15.766 288.56,33.127    290.089,26.58 291.618,20.781 293.148,49.439 294.68,19.973 296.213,31.372 297.744,46.491 299.275,25.533 300.806,35.447    302.336,45.139 303.866,27.394 305.397,30.268 306.929,38.946 308.462,33.913 309.993,35.867 311.523,29.792 313.055,29.318    314.586,42.5 316.119,43.056 317.651,35.505 319.178,45.898 320.706,39.278 322.236,44.554 323.771,35.526 325.301,42.267    326.83,49.041 328.358,23.187 329.888,51.099 331.417,16.507 332.949,42.646 334.483,42.665 336.015,16.666 337.545,41.683    339.076,32.201 340.61,25.836 342.144,42.365 343.676,20.301 345.209,40.557 346.744,31.304 348.277,37.688 349.813,46.529    351.347,33.832 352.882,22.153 354.413,15.082 355.944,39.862 357.48,45.756 359.015,20.535 360.551,12.201 362.089,14.063    363.624,22.537 365.163,41.859 366.704,31.589 368.246,45.057 369.977,17.052 371.565,22.394 373.464,16.646 374.925,21.744    376.634,21.297 378.897,14.14 379.897,22.423 379.365,42.845 382.951,24.995 385.313,19.792 384.082,39.552 387.988,24.642    388.68,30.207 391.64,23.193 391.529,32.041 395.462,21.472 390.532,49.94 397.438,27.738 394.904,43.728 401.47,25.479    404.022,22.772 407.371,17.771 408.588,19.907 407.926,27.405 412.208,20.383 402.885,50.685 413.589,26.763 417.212,22.359    405.422,55.188 407.675,53.29 409.776,51.916 407.858,59.273 421.467,34.125 410.808,59.094 427.301,30.121 420.479,46.547    413.158,62.862 424.691,45.269 416.219,62.677 436.902,31.17 436.076,35.898 425.275,55.803 419.589,66.925 421.024,67.067    441.771,39.907 427.422,62.607 446.747,39.065 433.306,59.474 434.037,60.892 427.464,71.269 432.767,66.929 437.298,63.766    433.774,69.933 453.542,50.178 451.572,54.832 450.228,58.643 438.82,72.515 434.234,78.973 437.479,77.615 457.979,60.237    442.357,76.718 441.016,79.741 438.967,83.252 450.46,75.282 453.148,74.98 468.097,65.035 472.314,63.977 468.149,69.344    474.4,66.892 461.027,78.552 445.842,90.879 470.507,75.949 470.456,77.982 478.231,75.058 452.827,92.616 456.131,92.239    452.646,95.847 455.755,95.644 466.452,91.439 457.676,97.713 472.439,91.832 472.311,93.668 465.824,98.445 480.053,93.626    487.872,92.057 489.545,93.287 469.026,103.494 463.723,107.132 470.379,106.152 467.68,108.688 466.606,110.569 468.819,111.346    481.43,108.948 472.7,113.207 473.571,114.506 466.34,117.963 484.309,114.894 478.089,118.042 464.061,122.72 465.97,123.693    482.826,121.837 465.174,126.605 493.104,123.375 481.663,126.842 477.723,128.961 482.802,129.86 484.18,131.295 473.737,133.886    493.662,133.719 464.325,137.428 464.255,138.738 485.399,139.21 492.592,140.618 460.723,142.759 485.685,144.011    494.543,145.537 482.995,147.063 466.132,148.589 464.496,150.115 472.061,151.641 478.778,153.167 495.133,154.693 480.3,156.22    485.277,157.747 496.287,159.273 480.886,160.8 499.072,162.328 462.536,163.856 482.82,165.384 500.262,166.913 499.952,168.44    495.162,169.968 486.956,171.495 491.688,173.021 486.96,174.548 492.826,176.075 482.028,177.602 492.121,179.128    487.055,180.655 468.702,182.182 474.063,183.708 479.417,185.235 495.758,186.762 470.611,188.29 465.425,189.816    486.342,191.343 471.61,192.872 474.454,194.4 465.391,195.927 472.471,197.454 460.718,198.979 496.143,200.505 478.958,202.03    500.227,203.554 472.605,205.078 478.304,206.602 465.085,208.125 461.309,209.648 468.664,211.171 488.009,212.694    475.647,214.217 499.771,215.74 484.423,217.263 461.744,218.786 486.33,220.31 497.972,221.833 486.894,223.358 473.929,224.883    490.744,226.408 491.693,227.935 468.25,229.461 485.163,230.989 488.983,232.518 500.622,234.047 497.082,235.576    466.527,237.104 461.886,238.631 480.481,240.158 468.479,241.685 496.119,243.21 482.253,244.735 483.068,246.261 474.19,247.786    484.12,249.312 494.26,250.837 490.404,252.363 494.118,253.889 482.625,255.416 472.338,256.943 489.304,258.471 490.377,260    476.488,261.53 490.746,263.06 492.557,264.589 485.194,266.117 491.432,267.645 495.096,269.172 473.028,270.698 463.889,272.226    475.669,273.752 467.086,275.279 476.883,276.808 484.164,278.336 471.303,279.865 493.688,281.396 482.194,282.927    472.991,284.456 491.727,285.984 472.031,287.513 469.213,289.041 492.316,290.569 461.301,292.098 481.247,293.627    468.517,295.156 474.849,296.688 473.543,298.218 472.505,299.748 493.293,301.276 491.175,302.806 484.071,304.335    468.521,305.864 482.024,307.396 469.449,308.927 494.592,310.457 483.753,311.986 477.812,313.517 468.915,315.047    464.115,316.578 476.546,318.109 490.582,319.634 468.504,321.161 483.724,322.69 464.502,324.223 468.438,325.753 491.762,327.28    491.076,328.808 474.282,330.335 464.416,331.863 469.352,333.395 460.945,334.927 497.121,336.457 464.853,337.986    500.396,339.517 468.021,341.049 481.288,342.581 485.665,344.112 473.871,345.644 478.208,347.178 492.767,348.71    482.768,350.243 471.365,351.776 464.723,353.311 475.365,354.841 482.883,356.371 472.379,357.906 465.176,359.438    461.55,360.974 480.976,362.51 463.485,364.044 495.938,365.582 478.217,351.873  " style="fill:#E93921;"/><g><path d="M333.427,376.049c5.462,0,10.868-4.169,10.868-4.169l30.21-40.316c0,0,3.055-5.101,3.11-9.563    c0.118-6.325-10.109-8.081-10.109-8.081l-71.542-21.446c0,0-7.018-1.719-11.674,2.669c-5.077,4.791-0.787,13.475-0.787,13.475    l38.232,59.569C321.735,368.186,328.002,376.049,333.427,376.049z" style="fill:#FFFFFF;"/><path d="M294.417,269.233l71.387-19.468c0,0,9.717-3.693,11.107-8.611c1.354-4.918-1.61-10.879-1.61-10.879    l-34.115-37.5c0,0-2.938-4.754-9.085-5.229c-6.761-0.549-10.914,7.113-10.914,7.113l-40.328,59.24c0,0-3.567,5.888-0.191,11.24    C284.327,270.916,294.417,269.233,294.417,269.233z" style="fill:#FFFFFF;"/><path d="M246.936,242.031c8.398-1.938,9.752-13.329,9.752-13.329l-0.585-94.857    c0,0-1.253-11.703-6.898-14.884c-8.828-5.009-11.436-2.395-13.979-2.029l-59.274,20.533c0,0-5.791,1.811-8.81,6.327    c-4.309,6.399,4.392,15.779,4.392,15.779l61.598,78.383C233.131,237.954,239.196,243.805,246.936,242.031z" style="fill:#FFFFFF;"/><path d="M145.185,237.57c-3.504,1.938-6.624,5.449-6.935,8.539l-4.126,47.662c0,0-0.631,8.264,1.666,12.013    c3.248,5.339,13.924,1.627,13.924,1.627l74.369-15.34c2.873-1.829,7.95-1.976,8.225-11.647c0.21-7.332-9.405-11.72-9.405-11.72    l-63.693-30.037C159.209,238.667,149.768,235.029,145.185,237.57z" style="fill:#FFFFFF;"/><path d="M189.803,381.533l49.988,14.737c0,0,6.066,1.17,10.667-0.073    c6.504-1.755,5.288-11.281,5.288-11.281l1.144-69.278c0,0-0.256-6.674-6.093-9.508c-6.386-3.053-14.024,3.291-14.024,3.291    l-49.77,51.159c0,0-6.229,7.844-4.647,12.634C183.847,377.73,186.299,379.961,189.803,381.533z" style="fill:#FFFFFF;"/></g></g><g id="Layer_1"/></svg>