<?xml version="1.0" ?><!DOCTYPE svg  PUBLIC '-//W3C//DTD SVG 1.1//EN'  'http://www.w3.org/Graphics/SVG/1.1/DTD/svg11.dtd'><svg height="512px" style="enable-background:new 0 0 512 512;" version="1.1" viewBox="0 0 512 512" width="512px" xml:space="preserve" xmlns="http://www.w3.org/2000/svg" xmlns:xlink="http://www.w3.org/1999/xlink"><g id="social__x2C__media__x2C__social_media__x2C___skype__x2C_"><polygon points="481.976,368.68 474.182,370.128 484.898,371.864 496.525,373.925 472.604,374.396    461.319,375.056 489.215,378.608 477.484,379.158 466.264,379.449 468.718,381.108 476.555,383.569 487.284,386.694    476.777,386.634 474.486,387.754 473.681,389.096 459.657,387.686 470.246,391.338 477.22,394.452 480.153,396.766    463.801,394.058 464.874,395.758 482.557,402.399 487.589,405.672 473.779,402.971 457.744,399.109 459.615,401.152    484.983,411.992 489.482,415.545 479.902,413.602 476.733,414.061 484.221,419.064 488.421,422.873 479.852,420.843    486.535,425.94 469.029,419.169 453.112,412.621 474.242,425.464 465.82,422.667 451.098,415.984 454.73,419.651 479.936,436.64    479.103,438.233 459.04,427.342 454.251,425.919 452.971,426.75 460.896,434.078 469.113,441.98 455.43,433.853 465.554,443.546    446.745,430.761 462.567,445.427 446.385,434.028 440.217,430.553 466.604,455.665 456.908,449.255 437.587,433.412    436.619,434.299 444.391,443.783 440.487,441.896 438.202,441.555 440.262,445.785 452.43,461.338 452.487,463.97 436.157,447.641    433.432,446.598 432.236,447.341 443.271,463.518 439.49,461.31 432.133,454.139 443.729,472.561 441.752,472.819 435.076,466.159    430.33,461.94 422.134,452.085 437.354,478.884 431.596,472.846 429.833,473.142 414.893,450.37 413.641,450.711 428.146,480.502    427.312,482.642 427.071,486.126 420.775,477.229 419.175,477.693 407.113,454.894 410.654,466.33 412.585,474.712    415.296,485.653 415.389,490.694 408.936,478.406 399.891,457.738 403.015,470.902 402.737,474.838 403.005,480.87    397.646,468.346 400.746,484.729 400.858,491.569 393.432,469.013 392.75,472.284 393.752,483.566 392.464,485.279    392.533,494.251 391.357,497.591 389.629,498.104 384.298,474.676 383.13,476.971 384.085,497.119 380.169,477.383    378.964,480.512 375.968,462.43 375.21,470.405 375.214,496.626 372.438,471.012 370.807,462.442 369.667,474.132 368.229,473.802    366.701,476.183 365.174,487.713 363.646,470.361 362.119,496.818 360.592,479.009 359.064,499.151 357.537,470.299    356.01,498.185 354.481,467.099 352.953,497.74 351.425,490.726 349.896,465.934 348.366,492.793 346.837,474.837 345.308,499.245    343.778,483.23 342.25,487.411 340.722,483.701 339.193,464.121 337.665,467.236 336.138,475.814 334.609,473.563 333.082,485.134    331.554,498.698 330.026,497.591 328.498,467.505 326.97,481.673 325.441,493.459 323.913,481.151 322.385,485.457    320.856,494.377 319.327,467.202 317.798,496.955 316.27,473.479 314.741,476.518 313.214,464.635 311.688,476.126    310.161,480.653 308.636,471.415 307.11,484.372 305.586,500.711 304.062,464.785 302.537,492.098 301.013,470.774    299.488,471.832 297.964,488.196 296.44,479.505 294.916,464.001 293.392,461.977 291.866,484.828 290.342,495.43 288.815,499.503    287.29,477.674 285.763,479.948 284.235,486.495 282.707,468.215 281.178,498.82 279.648,483.655 278.117,495.389 276.587,488.725    275.058,480.888 273.529,499.493 272.002,495.612 270.474,482.614 268.947,466.283 267.42,469.364 265.894,485.997    264.367,464.279 262.841,491.081 261.314,476.045 259.787,461.237 258.26,476.439 256.732,473.418 255.203,464.513    253.674,494.694 252.144,482.601 250.612,489.759 249.081,483.359 247.551,469.695 246.021,467.727 244.493,465.317    242.964,467.525 241.436,495.63 239.908,498.365 238.38,484.859 236.851,483.627 235.322,465.025 233.792,473.462 232.262,470.146    230.73,499.093 229.198,467.931 227.667,477.152 226.138,470.277 224.608,476.391 223.079,479.771 221.549,464.733 220.02,471.167    218.489,493.582 216.958,479.001 215.425,473.104 213.894,490.408 212.363,492.448 210.833,490.756 209.302,486.898    207.772,463.783 206.241,475.447 204.708,472.782 203.176,471.578 201.645,489.667 200.114,472.757 198.583,499.868    197.051,464.729 195.519,497.56 193.986,500.631 192.46,483.051 190.932,476.803 189.401,467.023 187.868,472.344 186.336,479.839    184.808,492.574 183.279,463.256 181.75,482.967 180.221,471.693 178.688,484.534 177.155,495.54 175.623,469.208 174.093,465.029    172.562,489.511 171.027,464.86 169.494,465.595 167.962,471.986 166.429,499.714 164.894,486.891 163.36,498.229 161.825,467.204    160.291,499.509 158.756,496.623 157.224,497.364 155.693,476.879 154.157,479.125 152.623,500.902 151.087,470.071    149.549,496.319 148.014,476.578 146.475,465.079 144.933,474.229 143.392,472.275 141.883,479.035 140.347,480.04    139.024,475.005 136.967,486.124 136.134,474.69 134.59,475.735 134.11,465.242 129.592,494.574 128.773,487.024 126.992,488.039    124.903,490.878 124.274,484.258 122.984,482.344 124.693,465.092 119.484,483.684 119.738,475.087 121.421,461.422    111.516,495.652 119.157,459.874 114.923,470.188 114.894,465.192 115.436,458.8 111.645,466.289 109.53,468.187 100.082,490.472    104.976,472.2 99.535,482.088 101.214,473.467 94.196,486.262 90.825,489.614 89.527,488.12 98.715,464.244 85.885,487.418    99.69,455.885 91.163,469.422 83.231,480.938 98.583,449.64 81.75,476.498 77.216,480.85 83.59,466.966 75.94,476.199    88.467,453.643 81.067,462.254 84.487,454.557 86.621,449.075 76.196,461.121 78.429,455.532 84.653,445.019 76.18,453.596    77.073,450.15 73.433,452.27 63.529,461.489 67.986,453.935 68.333,451.24 67.718,449.668 75.663,439.194 70.909,442.118    74.074,437.018 70.665,438.444 51.393,454.565 55.514,448.501 57.911,444.215 66.884,434.429 45.921,450.197 50.705,444.062    45.257,446.284 51.207,439.554 40.706,445.43 66.869,424.227 49.173,435.162 38.767,440.396 35.72,440.356 60.691,422.071    63.809,418.525 37.547,433.039 36.34,431.786 57.082,417.948 58.975,415.34 61.235,412.64 45.248,419.51 42.866,419.017    42.35,417.561 47.633,413.394 47.063,412.07 44.336,411.685 29.653,416.235 53.477,404.819 26.272,413.935 23.86,413.001    48.046,402.551 52.04,399.729 46.867,400.038 50.645,397.415 39.57,399.297 19.133,403.49 16.073,402.47 16.286,400.559    37.483,393.723 38.323,392.014 21.703,393.955 49.629,386.849 27.752,389.426 43.75,385.169 37.664,384.694 39.808,382.929    14.49,384.59 48.02,379.157 43.189,378.304 24.535,378.436 40.731,375.715 27.567,375.015 30.507,373.31 22.244,371.991    33.236,370.186 45.736,368.68 36.223,367.153 31.614,365.627 44.253,364.102 37.91,362.575 39.547,361.049 14.954,359.522    47.23,357.996 16.135,356.47 32.369,354.942 14.354,353.416 17.769,351.889 32.911,350.36 24.453,348.833 47.627,347.304    13.885,345.776 21.965,344.248 47.486,342.721 13.699,341.193 29.795,339.666 15.341,338.14 41.977,336.612 16.08,335.086    16.833,333.559 15.44,332.032 50.628,330.506 13.128,328.979 45.228,327.452 20.712,325.925 41.945,324.398 43.869,322.872    40.473,321.345 43.775,319.816 27.825,318.288 18.105,316.761 28.08,315.234 20.707,313.708 38.889,312.183 39.582,310.657    40.424,309.133 50.265,307.609 21.291,306.085 50.931,304.562 19.452,303.038 21.765,301.516 18.762,299.992 49.185,298.47    29.005,296.946 30.393,295.423 23.645,293.899 20.573,292.376 30.496,290.853 38.683,289.327 20.654,287.803 43.367,286.277    15.696,284.751 22.918,283.224 47.129,281.695 27.525,280.167 30.388,278.637 23.205,277.108 33.513,275.58 19.882,274.053    42.614,272.525 15.969,271 47.829,269.474 23.639,267.948 29.295,266.423 27.618,264.897 27.867,263.372 20.893,261.847    34.965,260.32 48.139,258.794 24.891,257.268 26.974,255.74 16.342,254.211 43.345,252.682 42.539,251.152 25.316,249.622    26.534,248.093 24.574,246.565 14.743,245.037 11.639,243.51 32.585,241.983 34.535,240.456 46.365,238.929 36.164,237.401    40.143,235.874 48.08,234.345 20.313,232.815 32.635,231.285 18.977,229.754 46.663,228.225 14.915,226.696 42.888,225.167    23.116,223.639 25.201,222.111 35.246,220.582 25.704,219.053 39.336,217.523 30.122,215.991 22.213,214.461 18.726,212.931    37.759,211.402 27.324,209.873 43.119,208.344 42.165,206.813 38.317,205.283 18.813,203.751 27.452,202.221 33.044,200.691    26.816,199.161 46.766,197.631 31.671,196.1 38.762,194.568 14.375,193.043 23.745,191.516 36.716,189.986 38.679,188.454    33.95,186.924 27.87,185.396 22.01,183.869 22.512,182.341 47.742,180.813 41.623,179.282 39.695,177.749 14.28,176.219    39.201,174.689 13.101,173.159 32.842,171.626 30.541,170.094 23.388,168.563 18.439,167.031 41.41,165.497 21.664,163.965    49.461,162.431 44.14,160.898 19.677,159.363 24.928,157.833 48.996,156.303 48.084,154.768 28.922,153.235 18.14,151.7    43.943,150.164 17.969,148.629 29.065,147.091 22.56,145.551 47.924,144.011 45.925,142.675 33.105,140.996 23.97,139.121    14.835,136.992 18.267,135.465 48.112,136.172 20.514,132.238 47.747,133.498 18.308,128.571 46.053,130.613 45.315,129.143    23.442,124.176 41.662,125.741 29.23,121.912 35.426,121.57 42.818,121.667 44.263,120.563 32.116,116.083 30.914,114.145    28.861,111.919 38.116,112.953 46.541,113.992 18.83,103.533 31.997,106.123 55.196,112.672 33.417,103.219 23.732,97.751    52.785,107.574 27.645,95.59 35.075,96.954 42.181,98.395 30.724,91.355 49.763,98.71 51.399,97.938 28.017,84.209 46.524,92.131    46.666,90.494 50.998,91.237 51.329,89.742 56.357,91.106 57.432,90.137 33.318,72.855 33.68,70.942 38.113,71.805 63.153,87.397    50.351,76.412 42.374,68.47 63.832,82.841 67.932,84.341 40.744,60.478 64.816,78.297 58.157,70.713 73.196,81.976 53.084,61.947    61.005,67.072 68.609,72.243 70.813,72.433 72.176,71.83 63,60.258 68.638,63.975 77.374,71.366 63.378,53.504 80.153,70.488    68.918,54.988 78.97,64.826 71.775,53.49 79.08,60.399 66.874,41.673 85.983,64.987 79.56,53.587 80.71,52.591 79.912,48.663    88.45,58.981 91.674,61.521 91.769,59.114 80.398,37.178 95.283,59.786 88.786,45.332 92.379,48.775 94.783,50.203 97.893,53.184    89.28,32.219 98.867,48.72 105.349,59.62 96.15,35.264 92.933,23.365 95.173,24.167 97.379,24.971 100.166,27.47 103.114,30.708    105.786,33.458 112.536,49.084 105.976,23.291 116.021,51.28 113.17,36.188 113.264,30.563 115.167,31.559 121.401,51.137    115.864,20.024 122.268,42.451 121.541,31.17 121.899,24.25 126.02,39.073 125.045,22.805 129.767,45.06 127.628,16.376    131.877,39.213 132.087,26.123 133.321,21.335 134.409,12.513 138.202,49.474 139.333,45.425 140.843,51.321 142.077,48.278    143.392,43.063 144.919,20.35 146.446,51.005 147.974,15.167 149.5,47.205 151.028,13.159 152.556,38.346 154.083,40.695    155.611,34.555 157.139,24.652 158.667,49.985 160.195,28.005 161.724,23.706 163.253,22.856 164.783,33.102 166.313,37.511    167.841,37.525 169.37,18.854 170.898,32.424 172.427,15.252 173.955,28.412 175.482,43.554 177.011,50.913 178.538,31.514    180.066,19.123 181.594,19.073 183.122,22.882 184.65,13.405 186.179,47.881 187.707,18.482 189.235,38.301 190.764,15.201    192.293,46.531 193.822,27.651 195.351,16.999 196.879,50.146 198.406,40.503 199.933,22.962 201.458,51.555 202.984,47.498    204.509,39.31 206.034,38.626 207.559,17.601 209.083,38.563 210.607,46.347 212.131,37.364 213.656,30.31 215.18,15.458    216.704,36.74 218.229,18.193 219.753,25.79 221.279,46.365 222.804,11.993 224.331,15.079 225.857,46.159 227.385,51.004    228.913,20.171 230.442,20.187 231.972,27.04 233.503,20.108 235.033,50.391 236.562,45.498 238.09,26.228 239.619,42.63    241.146,50.358 242.673,36.536 244.2,12.284 245.726,44.412 247.253,15.692 248.779,11.959 250.306,31.786 251.833,42.125    253.36,39.811 254.888,22.744 256.417,34.019 257.946,16.167 259.477,33.1 261.008,24.742 262.539,11.825 264.069,46.298    265.599,40.137 267.128,18.348 268.656,17.386 270.185,13.771 271.712,23.709 273.24,29.018 274.77,31.667 276.298,33.687    277.828,44.382 279.358,42.396 280.891,46.281 282.422,41.338 283.952,24.354 285.482,27.82 287.012,16.542 288.541,16.283    290.07,24.376 291.601,43.908 293.131,44.428 294.662,27.915 296.194,22.449 297.727,40.025 299.257,50.205 300.787,26.249    302.317,43.08 303.848,27.349 305.379,51.492 306.911,41.709 308.444,25.833 309.976,33.306 311.506,28.496 313.037,37.637    314.568,41.924 316.102,33.1 317.634,14.157 319.16,39.298 320.688,47.614 322.219,32.114 323.753,27.973 325.283,23.106    326.813,23.152 328.341,12.919 329.87,12.236 331.399,29.854 332.932,46.013 334.466,40.639 335.997,29.47 337.527,25.647    339.059,27.171 340.593,40.42 342.126,39.75 343.658,14.359 345.191,19.201 346.727,20.779 348.26,36.719 349.795,45.29    351.329,24.889 352.864,16.533 354.396,21.025 355.927,19.827 357.464,15.161 358.997,45.114 360.533,29.923 362.071,20.833    363.606,45.061 365.146,29.976 366.687,21.797 368.229,28.521 369.966,16.52 371.48,24.913 372.725,34.453 374.641,26.732    376.912,16.921 378.959,13.156 380.5,15.867 379.356,42.77 383.385,21.271 386.063,14.091 386.197,25.319 384.592,45.28    385.562,47.601 386.051,52.168 388.754,45.404 390.554,43.617 393.774,36.079 393.195,44.654 400.072,24.118 399.445,32.674    394.944,53.586 402.562,33.3 408.936,18.789 402.111,44.479 409.646,27.553 412.783,23.933 411.369,32.465 410.449,39.13    415.638,30.732 405.617,57.986 409.06,53.487 416.212,41.387 425.816,25.117 423.141,34.479 421.247,41.762 429.155,30.345    431.37,29.981 421.594,50.661 428.941,41.101 423.069,53.886 422.935,56.817 420.783,62.722 438.218,38.946 422.46,64.956    429.887,56.714 445.739,37.394 443.161,43.831 425.828,69.181 432.718,62.552 431.648,66.111 430.242,69.932 443.569,56.459    443.159,59.304 455.878,47.593 456.975,49.014 432.637,76.979 434.448,76.954 445.574,67.771 443.914,71.424 453.82,64.117    451.953,67.978 439.51,81.065 442.459,80.234 448.759,76.699 461.206,68.402 441.965,85.747 444.182,85.667 448.823,83.827    475.058,66.405 459.171,79.858 447.547,89.699 452.39,88.042 463.403,82.547 473.229,78.193 450.857,93.829 475.938,80.518    454.037,95.044 478.921,82.77 451.901,99.249 456.608,98.26 456.893,99.634 478.454,90.677 475.95,93.704 479.24,93.991    454.102,106.765 465.476,103.369 489.592,95.192 472.564,103.708 484.502,100.9 459.888,111.456 466.831,110.5 456.435,115.373    483.544,108.291 492.187,107.466 479.952,112.717 478.168,114.831 476.58,116.829 477.043,118.288 481.428,118.882    460.079,124.925 492.041,120.05 486.722,122.752 498.504,122.487 487.669,125.938 490.571,127.215 489.599,129.03 463.724,133.513    490.686,132.278 467.959,135.798 479.854,136.374 496.721,137.001 497.425,138.728 471.322,141.186 487.915,142.37 474.08,144.011    482.075,145.537 473.138,147.063 470.196,148.589 476.186,150.115 490.253,151.642 475.357,153.168 465.087,154.694    460.903,156.221 481.748,157.748 475.805,159.275 461.771,160.802 481.186,162.33 467.182,163.858 468.032,165.386    488.656,166.915 469.561,168.442 494.494,169.97 465.553,171.497 487.003,173.024 470.011,174.551 461.354,176.078    481.729,177.604 476.181,179.131 498.684,180.658 469.843,182.185 496.606,183.711 496.828,185.239 474.674,186.766    499.622,188.293 461.964,189.82 478.125,191.348 482.143,192.876 475.906,194.404 495.811,195.932 475.493,197.458    485.006,198.984 468.424,200.51 477.577,202.035 464.899,203.559 475.453,205.083 497.657,206.607 475.287,208.13 500.083,209.653    497.559,211.177 484.584,212.7 495.892,214.223 498.892,215.746 487.187,217.269 500.207,218.792 470.097,220.316 465.041,221.84    489.518,223.364 491.076,224.889 482.866,226.415 491.495,227.941 475.366,229.468 477.092,230.996 480.891,232.525    471.725,234.055 477.603,235.583 477.815,237.112 468.254,238.639 465.146,240.166 468.883,241.692 483.552,243.218    461.563,244.744 482.91,246.269 461.977,247.794 487.439,249.32 495.762,250.845 480.355,252.371 493.901,253.897 494.814,255.424    471.915,256.952 482.342,258.48 495.152,260.009 486.082,261.539 498.195,263.069 467.729,264.599 465.254,266.127    489.367,267.654 475.306,269.182 499.253,270.709 475.892,272.235 499.162,273.763 497.63,275.29 485.014,276.818 482.864,278.347    477.254,279.876 461.311,281.407 497.902,282.938 468.125,284.467 492.161,285.996 490.556,287.524 479.116,289.053    493.143,290.58 473.341,292.109 493.377,293.639 492.107,295.169 464.846,296.7 476.406,298.23 498.043,299.76 473.143,301.289    475.395,302.818 495.611,304.348 481.481,305.878 484.771,307.408 477.023,308.939 479.851,310.47 460.887,312 498.425,313.53    473.226,315.061 468.432,316.592 479.783,318.123 472.412,319.648 467.504,321.176 462.852,322.705 499.777,324.237    471.554,325.767 470.953,327.295 470.848,328.822 469.282,330.35 474.702,331.878 489.924,333.409 498.958,334.941 500.44,336.472    496.413,338.002 475.006,339.531 489.856,341.064 465.479,342.597 468.992,344.128 472.606,345.66 460.688,347.193    463.808,348.726 471.201,350.26 480.335,351.793 478.691,353.327 471.025,354.857 469.842,356.388 487.481,357.923    490.313,359.455 461.167,360.99 480.478,362.526 481.815,364.062 480.104,365.599 473.963,369.99  " style="fill:#00ABF3;"/><g><path d="M391.356,257.828c0-72.935-60.016-132.064-134.046-132.064c-7.813,0-15.452,0.676-22.917,1.938    c-11.985-7.442-26.147-11.775-41.352-11.775c-42.944,0-77.736,34.301-77.736,76.61c0,14.134,3.897,27.371,10.667,38.744    c-1.774,8.575-2.708,17.461-2.708,26.548c0,72.949,60.015,132.062,134.045,132.062c8.39,0,16.596-0.75,24.537-2.194    c10.969,5.777,23.475,9.068,36.759,9.068c42.952,0,77.745-34.282,77.745-76.592c0-12.213-2.909-23.75-8.069-34.008    C390.305,277.021,391.356,267.551,391.356,257.828z M326.071,320.94c-6.202,8.648-15.369,15.504-27.244,20.368    c-11.747,4.809-25.836,7.259-41.865,7.259c-19.267,0-35.414-3.346-48.011-9.929c-9.002-4.79-16.44-11.281-22.085-19.308    c-5.681-8.063-8.572-16.107-8.572-23.86c0-4.827,1.894-9.032,5.608-12.451c3.65-3.42,8.362-5.138,13.988-5.138    c4.602,0,8.572,1.353,11.802,4.041c3.083,2.577,5.736,6.398,7.85,11.317c2.396,5.376,4.977,9.892,7.703,13.439    c2.635,3.437,6.423,6.325,11.244,8.574c4.867,2.268,11.417,3.419,19.468,3.419c11.08,0,20.172-2.321,27.007-6.929    c6.679-4.48,9.907-9.874,9.907-16.475c0-5.211-1.675-9.307-5.16-12.524c-3.659-3.364-8.479-5.96-14.308-7.788    c-6.085-1.866-14.363-3.896-24.592-5.998c-13.915-2.926-25.735-6.413-35.131-10.345c-9.615-4.041-17.364-9.617-23.027-16.602    c-5.754-7.112-8.691-15.998-8.691-26.475c0-9.983,3.065-18.979,9.112-26.73c5.984-7.698,14.757-13.696,26.019-17.791    c11.143-4.041,24.372-6.106,39.348-6.106c11.967,0,22.479,1.371,31.27,4.059c8.838,2.706,16.276,6.363,22.14,10.879    c5.901,4.534,10.302,9.38,13.027,14.426c2.781,5.084,4.2,10.148,4.2,15.048c0,4.735-1.857,9.014-5.498,12.762    c-3.679,3.767-8.316,5.668-13.77,5.668c-4.977,0-8.855-1.207-11.545-3.529c-2.508-2.212-5.124-5.613-7.996-10.513    c-3.357-6.253-7.411-11.19-12.03-14.664c-4.529-3.383-12.04-5.083-22.396-5.083c-9.597,0-17.428,1.901-23.219,5.649    c-5.581,3.602-8.316,7.734-8.316,12.652c0,3.017,0.879,5.522,2.699,7.68c1.884,2.304,4.583,4.296,7.978,5.997    c3.522,1.737,7.163,3.126,10.777,4.114c3.733,1.024,9.991,2.523,18.563,4.479c10.841,2.304,20.821,4.863,29.623,7.643    c8.938,2.834,16.641,6.271,22.936,10.33c6.441,4.114,11.509,9.38,15.123,15.702c3.622,6.344,5.452,14.169,5.452,23.274    C335.458,302.346,332.284,312.273,326.071,320.94z" style="fill:#FFFFFF;"/></g></g><g id="Layer_1"/></svg>