<?xml version="1.0" ?><!DOCTYPE svg  PUBLIC '-//W3C//DTD SVG 1.1//EN'  'http://www.w3.org/Graphics/SVG/1.1/DTD/svg11.dtd'><svg height="512px" style="enable-background:new 0 0 512 512;" version="1.1" viewBox="0 0 512 512" width="512px" xml:space="preserve" xmlns="http://www.w3.org/2000/svg" xmlns:xlink="http://www.w3.org/1999/xlink"><g id="social__x2C__media__x2C__social_media__x2C___envato__x2C_"><polygon points="484.071,368.662 484.526,370.253 475.108,371.585 475.33,373.058 493.732,375.509    491.885,377.103 483.307,378.11 469.85,378.416 476.991,380.595 482.895,382.825 477.762,383.717 481.512,385.808 481.973,387.47    479.95,388.709 467.574,387.909 463.938,388.556 481.119,393.729 463.26,391.137 481.888,397.182 486.143,399.967 487.472,402.074    486.405,403.522 458.357,396.593 485.078,406.627 478.652,406.216 468.568,404.314 486.083,412.377 465.924,406.414    468.624,409.04 459.849,406.954 473.494,414.38 469.823,414.442 460.688,411.839 452.435,409.396 482.329,425.82 452.572,412.337    462.528,419.15 453.135,415.599 472.027,427.968 466.326,426.486 456.739,422.467 471.504,433.417 446.177,418.977    461.475,430.721 456.778,429.348 455.653,430.344 466.485,440.055 456.031,434.282 443.19,426.272 442.844,427.63 445.938,431.847    442.9,431.087 442.053,432.112 463.144,452.563 466.016,457.531 444.818,440.165 450.735,447.833 461.569,460.716 434.002,435.301    433.917,437.062 438.331,443.694 446.738,455.036 454.61,466.346 443.111,455.709 431.158,443.865 432.033,447.067 432.01,449.251    438.942,460.567 445.433,471.881 440.174,467.654 423.314,446.686 431.691,461.192 440.799,477.625 418.976,447.169    436.569,477.617 435.705,479.59 433.411,479.192 427.735,472.771 419.304,460.932 414.989,455.936 427.09,482.181 423.244,478.422    409.377,453.654 409.918,457.853 414.326,470.89 411.295,467.752 406.94,461.155 407.31,465.754 403.615,460.17 411.185,484.423    402.264,464.317 399.426,460.298 407.64,489.854 405.042,487.377 399.444,474.384 397.538,473.157 397.662,479.42 394.782,474.368    393.582,475.748 393.843,483.898 388.451,465.779 388.49,473.149 387.556,476.188 389.066,494.56 384.518,476.056 381.294,463.326    383.541,492.42 381.73,491.621 377.566,465.586 377.981,487.16 374.632,461.515 374.219,477.693 373.531,497.845 371.287,479.779    369.973,494.258 368.246,467.399 366.719,477.553 365.191,472.836 363.664,471.279 362.137,477.18 360.609,476.77 359.082,498.049    357.555,472.694 356.027,480.454 354.499,483.343 352.971,487.854 351.442,480.854 349.914,480.031 348.385,497.1 346.854,497.017    345.325,491.824 343.797,468.918 342.268,480.361 340.739,465.4 339.211,471.473 337.683,470.462 336.155,488.753 334.627,483.294    333.1,492.571 331.571,469.154 330.044,488.648 328.516,500.547 326.987,489.144 325.459,463.428 323.931,467.504 322.402,480.799    320.874,484.354 319.345,491.628 317.815,463.344 316.287,462.032 314.759,488.139 313.231,462.446 311.705,479.619    310.179,484.701 308.653,480.872 307.128,481.067 305.604,471.724 304.079,488.688 302.555,479.281 301.03,462.248 299.506,491.39    297.982,500.338 296.458,500.89 294.934,481.621 293.409,495.228 291.884,490.828 290.359,463.219 288.833,496.438    287.308,463.661 285.78,467.105 284.253,474.012 282.725,487.014 281.196,496.492 279.666,496.665 278.135,468.713    276.605,490.145 275.076,491.368 273.547,467.383 272.02,491.476 270.492,495.699 268.965,471.381 267.438,483.711    265.911,495.918 264.385,477.686 262.858,488.063 261.332,500.422 259.805,481.918 258.277,491.019 256.75,486.017    255.221,495.191 253.692,484.655 252.162,465.221 250.63,495.444 249.099,461.262 247.569,472.172 246.04,466.358 244.511,498.811    242.982,481.438 241.454,467.705 239.926,498.404 238.398,497.896 236.869,484.638 235.34,473.033 233.811,495.31 232.28,487.498    230.748,466.308 229.216,469.083 227.686,495.041 226.156,462.013 224.626,493.882 223.097,470.055 221.567,486.81    220.038,481.166 218.507,478.586 216.976,467.319 215.444,482.751 213.912,481.13 212.381,474.827 210.851,479.319    209.321,465.316 207.791,497.283 206.259,488.388 204.727,463.742 203.195,481.615 201.663,464.858 200.132,474.722    198.602,468.219 197.07,495.955 195.537,463.735 194.005,468.566 192.479,495.763 190.95,471.841 189.419,493.619 187.886,486.135    186.355,461.247 184.826,494.676 183.297,485.856 181.769,461.127 180.239,475.145 178.707,486.41 177.173,478.159 175.642,495.85    174.111,470.77 172.58,483.407 171.046,498.452 169.513,488.62 167.98,491.301 166.447,468.742 164.912,484.106 163.379,498.786    161.844,492.811 160.31,490.223 158.774,462.841 157.243,470.555 155.711,499.563 154.175,495.347 152.641,481.481    151.105,476.899 149.568,487.831 148.032,494.482 146.493,468.882 144.952,464.807 143.41,474.469 141.842,483.466    140.388,479.193 139.523,463.009 138.06,466.371 134.656,496.704 135.749,461.695 133.338,473.55 132.549,467.456 131.71,463.085    127.595,483.712 125.238,488.744 125.139,479.06 124.564,473.534 123.127,473.316 117.281,494.364 116.431,490.136 113.64,494.577    114.218,484.949 118.793,461.235 113.777,474.338 116.608,459.405 108.573,481.013 113.525,460.515 110.297,465.941    105.56,475.092 106.951,466.896 101.355,477.42 107.022,459.048 101.472,468.879 91.286,488.579 104.204,455.603 93.208,476.043    98.663,461.066 89.286,476.638 88.348,474.856 84.687,478.242 86.842,470.835 81.868,476.324 87.258,463.857 93.235,451.139    74.665,478.243 86.693,456.392 73.535,473.567 90.289,446.112 88.913,445.84 83.94,450.488 83.734,448.45 79.109,452.23    84.118,443.589 65.424,464.478 81.489,442.633 65.38,459.347 60.917,461.934 56.832,463.895 69.317,447.955 56.072,459.61    60.447,452.727 53.44,457.375 64.205,444.646 66.232,440.693 67.726,437.4 55.012,446.784 58.024,442.06 47.686,448.718    53.493,441.782 52.096,440.874 58.591,433.861 53.459,435.879 41.718,442.535 51.833,433.273 58.201,427.043 50.536,430.459    40.583,435.091 48.53,428.123 40.621,431.153 50.697,423.288 29.872,433.53 40.163,425.775 55.712,415.591 51.557,416.221    32.992,423.966 25.952,425.509 46.593,413.873 50.075,410.703 22.928,420.987 29.404,416.335 28.549,414.86 38.22,409.302    49.741,403.388 32.015,408.241 41.415,403.339 37.633,403.022 43.554,399.6 47.89,396.83 43.038,396.78 26.971,399.568    31.828,396.656 41.518,392.757 14.731,397.225 47.054,388.697 24.889,391.596 38.331,387.524 44.417,385.053 30.37,385.775    16.992,386.023 41.839,381.228 19.437,382.25 35.309,379.036 25.026,378.38 35.869,376.025 48.799,373.852 31.233,373.264    14.237,372.191 32.501,370.18 40.706,368.662 40.844,367.136 17.144,365.61 18.999,364.084 33.831,362.559 12.742,361.032    16.296,359.506 36.316,357.979 11.844,356.453 45.362,354.927 18.926,353.399 44.053,351.872 15.645,350.345 45.855,348.816    11.677,347.289 44.456,345.761 32.896,344.232 47.923,342.705 24.715,341.178 39.962,339.651 43.882,338.124 32.438,336.598    33.97,335.071 17.857,333.545 22.286,332.018 34.579,330.491 50.137,328.965 15.804,327.438 29.639,325.91 21.186,324.383    43.253,322.856 21.972,321.329 42.187,319.801 42.102,318.273 11.555,316.746 43.526,315.22 48.934,313.693 19.249,312.168    43.39,310.644 17.227,309.119 19.606,307.595 37.195,306.071 40.917,304.548 15.901,303.025 41.293,301.502 18.943,299.979    34.368,298.456 24.497,296.934 22.491,295.41 50.721,293.887 35.592,292.363 19.516,290.84 23.348,289.314 39.48,287.79    39.651,286.265 25.563,284.738 50.809,283.212 46.913,281.684 43.219,280.155 42.726,278.625 17.431,277.097 23.674,275.568    48.517,274.041 38.595,272.515 22.647,270.988 47.602,269.463 41.55,267.938 18.624,266.412 15.163,264.887 29.668,263.361    33.399,261.836 48.61,260.311 35.313,258.784 31.422,257.258 33.292,255.73 43.019,254.202 16.053,252.673 37.654,251.143    42.24,249.613 32.943,248.084 21.413,246.556 48.048,245.028 15.953,243.501 47.396,241.975 21.087,240.448 11.583,238.92    45.823,237.393 41.723,235.865 39.963,234.337 27.397,232.808 26.683,231.277 46.884,229.747 21.325,228.217 15.896,226.688    20.126,225.16 13.326,223.632 42.47,222.104 43.855,220.576 22.119,219.046 43.233,217.517 21.498,215.985 27.232,214.455    23.659,212.925 44.865,211.396 34.028,209.867 35.495,208.338 33.232,206.808 22.778,205.277 18.589,203.746 41.151,202.216    29.812,200.687 37.639,199.157 29.419,197.626 18.293,196.095 35.165,194.564 49.406,193.039 15.446,191.512 33.854,189.982    34.194,188.45 37.612,186.92 44.196,185.393 35.356,183.866 12.081,182.338 12.524,180.81 29.358,179.279 18.899,177.746    36.98,176.216 30.884,174.687 40.785,173.157 41.127,171.624 17.002,170.092 30.035,168.561 15.657,167.029 38.923,165.495    20.255,163.963 34.149,162.43 29.575,160.896 40.61,159.362 26.664,157.832 26.301,156.302 26.314,154.767 12.358,153.234    40.358,151.7 40.175,150.163 45.014,148.629 43.595,147.091 31.343,145.551 45.109,144.011 43.536,142.643 35.188,141.051    35.312,139.575 18.448,137.186 36.944,136.723 34.229,135.041 40.183,134.099 18.387,130.306 49.025,132.332 18.636,126.879    28.023,126.546 50.977,128.701 37.155,124.935 35.417,123.099 40.863,122.692 28.253,118.435 46.764,121.15 19.299,112.867    41.526,116.957 42.236,115.661 38.945,113.193 27.153,107.98 33.877,108.419 25.093,103.765 41.603,107.829 25.753,100.367    52.431,108.856 43.639,103.879 34.568,98.485 39.227,98.757 23.009,89.717 38.669,95.07 51.367,99.481 40.281,92.346    58.779,100.188 36.786,86.888 43.659,88.818 62.075,97.574 35.931,80.634 49.922,87.171 42.021,80.434 56.695,88.001 62.109,89.92    43.362,75.407 61.51,86.226 58.561,82.383 67.331,87.167 69.135,86.928 40.458,62.547 56.509,73.321 49.185,65.182 59.837,72.152    51.107,62.405 50.272,59.372 68.915,74.458 52.87,57.106 56.088,57.879 76.648,76.356 62.96,60.202 55.026,49.371 78.418,72.502    66.108,56.582 83.05,73.833 80.025,68.244 80.057,66.153 72.438,54.313 80.889,62.745 83.135,63.404 78.55,54.752 68.562,37.997    88.714,64.245 90.047,63.856 87.249,57.109 88.113,55.829 89.285,55.019 77.653,32.505 91.748,53.597 82.67,34.258 92.797,49.53    85.131,31.553 98.712,54.803 100.472,55.317 99.704,50.482 95.979,38.791 100.872,46.102 107.56,58.323 96.778,28.098    97.82,26.075 99.113,24.571 101.317,25.575 101.683,21.336 110.52,42.839 107.962,29.647 110.611,32.853 108.535,19.508    115.901,40.472 113.95,26.621 114.566,22.019 118.842,33.441 119.393,28.456 119.408,19.965 125.082,42.014 128.192,52.23    124.376,18.23 129.293,41.491 132.029,52.229 132.228,42.288 133.993,46.075 134.757,38.862 136.135,37.842 136.716,21.595    138.12,14.936 140.613,42.027 141.698,18.55 143.41,18.592 144.938,26.578 146.465,13.353 147.992,47.48 149.519,20.79    151.046,22.423 152.574,34.262 154.102,44.602 155.629,44.628 157.157,42.482 158.686,30.327 160.214,50.068 161.743,34.946    163.272,37.999 164.801,11.972 166.331,19.655 167.86,42.025 169.388,31.005 170.917,30.207 172.445,26.883 173.973,25.605    175.501,34.849 177.029,26.067 178.557,35.368 180.084,14.453 181.612,49.318 183.14,12.503 184.668,25.166 186.197,50.227    187.726,24.138 189.253,47.405 190.782,36.854 192.312,44.372 193.841,24.568 195.369,36.575 196.897,37.089 198.424,16.845    199.951,12.863 201.477,25.357 203.002,49.402 204.528,45.362 206.053,39.346 207.577,17.705 209.102,13.98 210.626,33.932    212.15,16.827 213.674,21.4 215.198,20.187 216.723,29.478 218.247,32.155 219.772,38.209 221.297,15.548 222.823,35.215    224.349,48.603 225.875,17.707 227.403,34.997 228.931,49.594 230.46,32.881 231.99,13.52 233.521,14.084 235.051,39.542    236.58,40.503 238.109,40.745 239.637,29.941 241.164,16.738 242.691,13.26 244.218,33.285 245.745,33.7 247.271,45.711    248.797,22.556 250.324,39.865 251.851,38.18 253.378,32.445 254.906,32.35 256.435,17.457 257.965,24.534 259.495,42.325    261.026,35.464 262.558,40.896 264.087,51.638 265.616,36.094 267.146,36.993 268.674,47.395 270.202,31.97 271.73,12.628    273.259,18.576 274.787,14.746 276.316,17.718 277.846,47.254 279.377,37.288 280.908,11.945 282.439,20.868 283.971,14.353    285.5,32.863 287.03,20.984 288.56,51.032 290.089,43.03 291.618,17.062 293.148,48.554 294.68,34.766 296.213,14.56    297.744,18.874 299.275,26.443 300.806,20.107 302.336,30.403 303.866,19.337 305.397,19.339 306.929,50.113 308.462,39.491    309.993,49.717 311.523,38.81 313.055,29.115 314.586,33.581 316.119,46.796 317.651,22.202 319.178,45.479 320.706,39.397    322.236,39.019 323.771,35.219 325.301,34.58 326.83,36.329 328.358,17.253 329.888,16.911 331.417,45.778 332.949,28.401    334.483,23.9 336.015,45.848 337.545,37.111 339.076,39.327 340.61,14.125 342.144,46.199 343.676,21.485 345.209,19.325    346.744,22.94 348.277,32.507 349.813,48.104 351.347,32.506 352.882,31.899 354.413,11.857 355.944,42.858 357.48,33.544    359.015,29.148 360.551,42.242 362.089,31.477 363.624,42.396 365.163,16.595 366.704,45.828 368.246,49.148 369.859,25.836    371.684,17.974 372.679,36.003 374.988,20.558 377.074,14.76 376.676,41.586 378.543,36.782 380.381,33.483 380.511,44.92    381.074,50.918 385.055,33.058 383.808,50.17 384.809,51.92 392.512,18.659 391.708,31.178 391.088,41.292 395.724,27.856    396.112,33.042 393.898,47.537 402.037,23.449 397.492,44.967 406.341,21.108 405.898,28.195 408.64,25.302 409.359,28.403    405.471,43.712 414.059,25.547 414.071,30.165 419.319,21.964 419.626,25.813 410.934,49.352 420.872,31.458 417.537,42.232    416.194,48.355 419.652,44.861 420.394,46.706 424.432,42.535 414.182,63.645 422.771,51.577 427.641,46.397 437.938,32.932    423.921,57.898 429.201,52.499 432.249,50.712 422.488,67.213 435.654,51.284 431.981,58.809 434.481,57.944 442.72,49.926    429.158,69.186 443.698,53.859 440.853,59.631 446.468,55.575 445.73,58.783 441.626,65.486 456.143,52.479 449.397,61.786    449.081,64.315 452.134,63.532 440.644,76.452 460.368,60.334 457.424,65.205 442.581,80.139 449.6,76.004 462.466,67.384    456.241,74.435 467.495,67.692 470.265,67.76 474.889,66.536 466.412,74.742 467.62,75.897 464.749,79.794 460.203,84.627    471.525,79.274 451.493,93.428 448.166,96.946 475.697,82.635 483.222,80.381 466.34,91.499 475.032,88.694 461.671,97.25    480.757,89.575 459.874,101.229 468.682,98.771 456.729,105.61 459.507,105.875 465.274,105.008 482.408,99.903 475.772,104.147    484.852,102.581 468.818,109.818 474.217,109.59 474.703,111.031 484.881,109.62 485.075,111.291 461.005,119.374 471.81,118.029    477.656,118.145 461.623,123.258 474.51,121.929 479.332,122.51 462.539,127.075 469.937,127.184 467.989,128.901 473.346,129.56    481.682,129.997 469.453,132.893 489.597,132.381 479.455,134.875 472.751,136.856 498.979,136.881 472.063,139.745    469.975,141.222 491.918,142.313 496.232,144.011 461.915,145.537 498.289,147.063 481.356,148.589 497.679,150.115    472.815,151.641 485.146,153.167 481.221,154.693 482.952,156.22 474.17,157.747 485.945,159.273 494.744,160.8 463.718,162.328    494.122,163.856 491.905,165.384 472.895,166.913 479.427,168.44 472.275,169.968 475.526,171.495 464.263,173.021    500.431,174.548 478.361,176.075 491.739,177.602 476.567,179.128 499.952,180.655 493.147,182.182 465.983,183.708    496.051,185.235 496.115,186.762 487.892,188.29 480.516,189.816 491.023,191.343 465.313,192.872 478.529,194.4 470.14,195.927    485.795,197.454 488.144,198.979 490.912,200.505 498.675,202.03 491.243,203.554 469.189,205.078 473.275,206.602    487.346,208.125 498.274,209.648 471.858,211.171 492.253,212.694 486.393,214.217 480.433,215.74 489.564,217.263    488.632,218.786 481.135,220.31 491.886,221.833 494.482,223.358 489.147,224.883 463.727,226.408 487.06,227.935 465.128,229.461    470.518,230.989 481.884,232.518 468.17,234.047 474.024,235.576 492.019,237.104 475.786,238.631 466.881,240.158    496.687,241.685 492.806,243.21 494.468,244.735 486.358,246.261 463.188,247.786 490.261,249.312 462.875,250.837    469.974,252.363 493.562,253.889 495.604,255.416 490.911,256.943 462.883,258.471 478.271,260 483.016,261.53 495.654,263.06    472.767,264.589 465.007,266.117 488.536,267.645 488.051,269.172 475.929,270.698 493.079,272.226 494.961,273.752    495.299,275.279 475.074,276.808 496.609,278.336 499.025,279.865 470.188,281.396 494.949,282.927 477.829,284.456    497.085,285.984 478.651,287.513 462.128,289.041 491.69,290.569 465.572,292.098 476.748,293.627 495.205,295.156    483.054,296.688 472.472,298.218 488.381,299.748 471.602,301.276 477.719,302.806 476.044,304.335 494.934,305.864    477.292,307.396 488.512,308.927 467.084,310.457 488.139,311.986 485.647,313.517 477.719,315.047 470.938,316.578    477.38,318.109 471.679,319.634 497.09,321.161 465.536,322.69 462.71,324.223 467.926,325.753 466.667,327.28 491.686,328.808    484.814,330.335 488.23,331.863 473.709,333.395 491.887,334.927 483.179,336.457 465.642,337.986 492.911,339.517    473.914,341.049 473.714,342.581 490.741,344.112 489.237,345.644 495.41,347.178 497.077,348.71 496.568,350.243 484.563,351.776    465.739,353.311 488.956,354.841 476.47,356.371 469.389,357.906 461.381,359.438 483.542,360.974 461.076,362.51 460.91,364.044    471.048,365.582 467.794,381.356  " style="fill:#64B631;"/><g><path d="M151.818,343.979l84.433-189.655C138.836,194.84,111.912,258.468,151.818,343.979z" style="fill:#FFFFFF;"/><path d="M328.706,136.515c-63.747,70.137-118.593,145.444-157.457,230.063    c3.906,4.809,8.591,9.087,13.851,12.799c34.563,24.263,94.89,24.317,133.552-7.313c42.651-37.008,56.153-119.298,58.569-218.819    c0.184-7.99,0.32-16.071,0.394-24.262C376.646,108.046,345.522,113.568,328.706,136.515z" style="fill:#FFFFFF;"/></g></g><g id="Layer_1"/></svg>