<?xml version="1.0" ?><!DOCTYPE svg  PUBLIC '-//W3C//DTD SVG 1.1//EN'  'http://www.w3.org/Graphics/SVG/1.1/DTD/svg11.dtd'><svg height="512px" style="enable-background:new 0 0 512 512;" version="1.1" viewBox="0 0 512 512" width="512px" xml:space="preserve" xmlns="http://www.w3.org/2000/svg" xmlns:xlink="http://www.w3.org/1999/xlink"><g id="social__x2C__media__x2C__social_media__x2C___dribble__x2C_"><polygon points="488.429,368.68 463.985,369.977 496.658,372.179 483.52,373.402 486.656,375.147    463.294,375.205 470.36,377.073 461.204,377.614 488.284,381.838 497.026,384.58 470.409,382.729 461.431,382.804 461.385,384.104    463.481,385.792 464.349,387.305 493.767,394.759 475.645,392.535 488.591,397.135 494.507,400.362 479.969,398.343    492.393,403.466 463.391,396.744 457.522,396.333 472.734,402.632 486.573,408.931 479.612,408.26 485.012,412.001    486.561,414.426 457.231,404.459 470.41,411.404 461.91,409.357 460.914,410.428 459.508,411.301 464.647,415.326 472.904,421.116    469.738,421.269 473.509,425.067 481.563,431.396 472.938,428.499 476.51,432.531 463.191,426.411 471.856,433.654    449.293,421.015 471.874,437.685 456.579,429.224 459.168,432.851 468.451,441.505 469.961,444.752 459.13,438.578    465.535,445.656 458.609,442.193 468.416,452.488 450.477,439.387 444.743,436.288 460.662,452.669 443.038,438.518    458.548,455.377 436.688,436.152 443.935,445.402 440.169,443.599 435.237,440.397 432.751,439.641 433.706,442.72    442.566,455.091 450.191,466.643 435.03,450.758 439.604,458.872 447.463,471.67 430.654,452.157 425.419,447.363 421.799,444.533    429.791,458.438 423.22,451.259 438.451,477.31 431.414,469.419 436.003,480.073 429.95,473.325 422.31,463.309 426.598,474.121    416.503,458.78 411.634,452.41 422.8,477.563 421.949,479.621 414.396,467.444 421.532,486.884 417.961,483.111 415.055,480.604    415.562,486.296 410.129,477.046 414.271,492.781 404.062,469.442 407.954,485.433 398.163,460.709 405.8,489.858 398.044,469.661    396.974,471.174 402.178,496.527 393.702,470.078 396.089,486.409 390.132,467.147 394.15,493.405 392.703,495.096 389.87,489.212    383.815,462.694 385.474,482.485 384.742,488.787 384.23,498.26 379.249,468.814 379.309,484.063 376.679,471.146 374.916,465.881    374.868,489.991 372.672,476.617 370.845,463.557 369.904,490.76 368.237,468.573 366.71,473.549 365.183,481.6 363.655,497.588    362.128,484.848 360.601,484.729 359.073,471.475 357.546,483.865 356.018,473.285 354.49,476.84 352.962,500.821 351.434,462.857    349.904,496.001 348.376,470.225 346.846,495.642 345.316,488.388 343.788,475.516 342.259,488.033 340.73,474.058    339.202,487.374 337.674,467.416 336.146,493.774 334.618,488.229 333.091,486.498 331.563,494.349 330.035,473.655    328.507,465.715 326.979,479.263 325.45,462.578 323.922,479.922 322.395,481.57 320.865,479.682 319.336,462.392 317.807,471.471    316.278,492.352 314.75,488.871 313.223,493.567 311.696,487.973 310.17,463.361 308.645,480.775 307.12,477.178 305.595,473.765    304.07,480.334 302.546,493.285 301.021,474.971 299.498,487.758 297.974,496.81 296.449,490.998 294.925,497.575 293.4,495.612    291.876,468.494 290.351,485.866 288.825,462.785 287.299,480.422 285.772,485.787 284.245,461.984 282.717,485.185    281.188,468.171 279.657,495.789 278.127,470.78 276.597,498.327 275.067,484.206 273.539,464.994 272.011,482.82 270.483,470.761    268.956,476.962 267.43,493.951 265.903,482.533 264.376,497.134 262.85,465.226 261.323,495.113 259.796,472.06 258.269,465.605    256.741,465.143 255.212,465.148 253.683,470.494 252.153,462.871 250.621,493.256 249.09,482.961 247.56,494.773 246.031,497.979    244.502,481.799 242.974,464.641 241.445,488.439 239.917,466.247 238.389,482.509 236.86,486.652 235.331,464.567    233.801,494.507 232.271,475.214 230.739,468.435 229.208,469.066 227.677,468.907 226.147,477.416 224.617,465.748    223.088,470.623 221.559,486.583 220.029,471.161 218.499,485.939 216.967,463.541 215.435,472.349 213.903,483.411    212.372,476.422 210.842,489.723 209.312,461.778 207.781,496.182 206.25,477.621 204.718,466.021 203.186,471.82 201.654,482.707    200.123,471.603 198.592,483.278 197.061,500.254 195.528,485.858 193.996,477.668 192.469,463.189 190.941,495.234    189.41,475.084 187.877,466.144 186.346,479.373 184.816,476.147 183.288,498.111 181.76,481.635 180.23,468.78 178.698,487.067    177.164,463.666 175.632,466.969 174.102,479.783 172.57,484.004 171.037,471.463 169.503,499.107 167.971,463.12 166.438,477.273    164.903,465.7 163.37,488.239 161.835,472.013 160.301,470.162 158.765,488.333 157.233,491.355 155.702,477.65 154.166,475.187    152.632,468.346 151.096,491.498 149.559,466.325 148.023,469.174 146.484,463.312 144.942,473.988 143.401,464.463    141.767,488.413 140.105,489.403 138.403,490.735 137.439,477.616 135.447,484.934 132.962,496.024 134.219,464.183    132.241,470.229 131.34,466.064 130.474,462.445 129.246,461.99 123.074,491.587 120.502,496.414 120.049,489.293 121.64,473.281    119.515,476.143 115.19,487.953 118.332,468.452 119.211,459.632 117.793,459.944 112.871,472.093 110.623,474.375    111.678,466.209 110.927,464.073 103.543,480.754 105.12,471.826 109.489,456.365 101.823,471.97 103.969,462.886 96.647,476.244    92.984,480.467 99.265,463.088 101.078,456.084 87.605,479.983 92.813,466.254 82.563,482.167 90.432,464.356 95.065,453.24    77.743,479.968 84.284,465.839 82.448,465.841 86.755,456.3 70.803,477.669 80.311,460.65 86.954,448.619 88.983,443.537    83.654,448.56 79.079,452.264 65.146,467.534 62.661,467.877 82.558,441.365 61.161,464.267 64.551,457.826 79.894,438.531    58.32,459.74 58.244,457.358 61.736,451.425 65.249,445.729 65.686,443.23 71.808,435.488 66.655,438.366 73.642,430.302    60.139,440.244 61.633,437.035 50.483,444.247 63.892,431.528 56.403,435.554 52.471,436.627 59.635,429.491 53.218,432.302    40.741,439.053 53.314,428.613 38.758,436.284 61.278,420.119 53.743,423.164 50.843,423.215 58.695,417.021 57.587,416.12    43.118,422.369 27.42,428.771 53.068,413.896 49.681,414.007 37.969,417.923 57.378,407.409 30.251,417.818 50.037,407.696    54.035,404.603 38.804,409.087 34.964,408.882 30.396,408.836 42.608,402.945 42.542,401.44 53.871,396.412 22.194,404.425    21.068,402.945 50.578,393.325 17.101,400.355 15.515,398.903 43.833,390.797 32.262,391.77 47.332,387.291 30.191,388.991    40.121,385.769 39.356,384.437 19.06,385.757 42.728,381.131 19.784,382.234 49.921,377.666 35.898,377.517 41.951,375.632    39.014,374.396 21.827,373.657 33.109,371.695 43.863,370.044 18.731,368.68 20.748,367.153 13.208,365.627 26.071,364.102    27.296,362.575 12.431,361.049 48.045,359.522 45.739,357.996 19.466,356.47 13.01,354.942 21.44,353.416 25.861,351.889    37.727,350.36 31.563,348.833 31.384,347.304 32.516,345.776 25.213,344.248 18.339,342.721 30.994,341.193 47.525,339.666    19.342,338.14 12.709,336.612 26.949,335.086 20.104,333.559 34.731,332.032 24.469,330.506 14.104,328.979 41.266,327.452    44.178,325.925 42.246,324.398 45.004,322.872 24.674,321.345 46.419,319.816 22.782,318.288 13.084,316.761 17.771,315.234    29.458,313.708 14.804,312.183 28.302,310.657 46.861,309.133 18.165,307.609 31.277,306.085 43.913,304.562 19.934,303.038    14.946,301.516 23.741,299.992 13.191,298.47 30.987,296.946 22.189,295.423 12.536,293.899 34.824,292.376 29.563,290.853    35.28,289.327 46.609,287.803 45.704,286.277 39.281,284.751 34.885,283.224 46.7,281.695 39.915,280.167 49.108,278.637    27.318,277.108 45.623,275.58 12.639,274.053 41.096,272.525 41.665,271 39.424,269.474 47.724,267.948 38.378,266.423    12.487,264.897 43.129,263.372 27.677,261.847 37.126,260.32 16.804,258.794 44.861,257.268 24.835,255.74 26.259,254.211    34.125,252.682 12.072,251.152 12.454,249.622 38.628,248.093 18.282,246.565 43.624,245.037 34.468,243.51 37.434,241.983    49.815,240.456 21.473,238.929 32.669,237.401 21.638,235.874 37.631,234.345 15.747,232.815 30.069,231.285 34.099,229.754    18.742,228.225 36.886,226.696 29.17,225.167 16.193,223.639 44.774,222.111 28.673,220.582 43.913,219.053 32.683,217.523    24.033,215.991 15.869,214.461 24.049,212.931 50.548,211.402 27.872,209.873 20.201,208.344 50.685,206.813 35.569,205.283    30.096,203.751 18.461,202.221 41.74,200.691 30.391,199.161 28.17,197.631 36.471,196.1 26.086,194.568 17.81,193.043    34.968,191.516 12.645,189.986 25.106,188.454 33.066,186.924 49.833,185.396 44.926,183.869 40.42,182.341 48.848,180.813    17.658,179.282 14.814,177.749 26.539,176.219 16.795,174.689 44.796,173.159 42.277,171.626 27.188,170.094 29.234,168.563    40.49,167.031 45.245,165.497 34.051,163.965 24.89,162.431 12.61,160.898 17.481,159.363 26.686,157.833 42.346,156.303    26.446,154.768 18.563,153.235 32.367,151.7 44.975,150.164 15.278,148.629 49.706,147.091 24.592,145.551 41.11,144.011    11.525,142.215 49.251,141.427 19.121,138.926 43.35,138.531 27.371,136.078 21.696,134.022 26.095,132.767 30.38,131.614    32.855,130.352 13.146,126.131 16.866,124.868 15.198,122.825 21.465,122.14 27.858,121.645 43.946,123.332 23.229,117.328    49.573,121.808 40.392,118.154 36.735,115.685 45.418,116.55 45.169,115.03 35.667,110.622 42.006,111.063 50.05,112.259    22.871,101.164 29.348,101.705 41.709,104.709 33.38,99.746 21.962,93.21 44.595,101.095 34.21,94.787 32.95,92.394    58.382,102.882 45.597,95.02 59.703,100.676 57.023,97.77 47.504,90.955 58.516,95.542 53.331,90.925 52.31,88.628 54.561,88.327    35.18,74.053 61.745,89.681 58.578,85.877 38.963,70.272 42.201,70.471 53.306,76.66 63.023,82.217 60.33,78.311 41.119,60.778    60.43,74.618 69.662,80.626 44.837,56.856 57.533,65.987 56.005,62.386 72.408,75.888 68.638,70.274 64.67,64.205 55.663,52.601    56.576,51.046 72.955,66.495 75.309,67 73.168,62.353 75.09,62.357 69.083,52.67 69.132,50.139 73.696,53.394 67.669,42.729    84.447,62.875 79.51,53.509 80.64,52.48 71.678,36.296 77.899,42.663 89.89,58.667 91.954,59.417 88.933,51.63 86.227,43.95    89.934,47.395 92.774,49.504 83.892,29.198 85.687,28.829 90.336,34.397 88.362,26.252 103.931,56.45 91.25,23.971 99.291,38.561    100.743,37.988 109.21,55.572 102.182,32.887 110.079,50.316 105.835,33.582 114.193,54.195 108.494,31.393 115.328,48.898    107.908,17.323 119.158,52.812 115.425,32.564 116.957,32.22 119.012,34.246 122.047,41.349 119.351,19.712 123.437,32.82    122.793,19.366 126.249,30.768 126.433,20.495 129.496,31.545 129.902,20.924 133.707,43.141 135.036,42.354 134.749,17.422    137.646,38.991 138.355,20.815 140.291,30.33 141.914,35.36 143.401,19.895 144.928,38.668 146.456,39.997 147.982,31.648    149.51,33.623 151.037,25.704 152.565,34.231 154.092,51.098 155.62,31.584 157.148,17.489 158.676,51.421 160.205,40.884    161.733,42.657 163.263,23.872 164.792,33.962 166.321,13.249 167.851,46.472 169.379,15.536 170.908,26.141 172.436,21.795    173.964,23.015 175.492,33.39 177.02,30.111 178.547,24.898 180.075,17.16 181.603,44.444 183.131,28.654 184.659,49.983    186.188,36.857 187.716,27.914 189.244,23.499 190.772,12.397 192.302,23.755 193.832,35.32 195.36,37.938 196.888,42.664    198.415,35 199.942,28.305 201.468,12.479 202.993,35.822 204.519,34.944 206.043,37.955 207.568,22.307 209.092,36.641    210.617,35.529 212.141,49.34 213.665,25.284 215.189,14.44 216.713,24.099 218.238,35.045 219.763,49.25 221.288,41.269    222.813,17.379 224.339,21.438 225.866,27.368 227.394,27.188 228.922,40.373 230.451,51.414 231.981,30.271 233.512,26.427    235.042,48.936 236.571,47.38 238.1,23.75 239.627,28.131 241.155,34.779 242.682,38.223 244.209,20.741 245.735,45.485    247.262,51.627 248.788,34.016 250.315,36.359 251.842,16.933 253.369,41.305 254.897,12.198 256.426,34.733 257.955,13.27    259.485,38.512 261.017,19 262.548,36.376 264.078,24.331 265.607,32.99 267.137,49.847 268.665,14.87 270.193,19.044    271.721,27.886 273.249,32.497 274.778,31.58 276.307,32.599 277.837,13.024 279.367,16.669 280.899,37.173 282.431,14.461    283.961,31.863 285.491,13.903 287.021,28.688 288.55,31.015 290.079,20.848 291.609,31.393 293.14,30.895 294.671,36.544    296.203,39.976 297.735,23.572 299.266,30.705 300.796,46.337 302.326,13.236 303.856,25.173 305.388,13.374 306.92,45.647    308.452,37.767 309.984,29.524 311.515,29.259 313.046,28.263 314.577,20.396 316.11,35.827 317.643,39.87 319.169,18.434    320.697,20.383 322.228,29.171 323.762,31.956 325.292,29.909 326.821,17.064 328.35,37.039 329.878,28.411 331.408,15.836    332.94,41.173 334.475,26.033 336.006,44.71 337.536,43.268 339.067,28.594 340.602,22.593 342.135,19.642 343.667,26.028    345.2,15.272 346.735,21.455 348.269,49.101 349.804,49.687 351.338,32.056 352.873,25.58 354.404,31.659 355.936,22.394    357.473,38.206 359.006,21.332 360.542,14.706 362.08,45.329 363.615,12.325 365.154,32.625 366.695,29.861 368.237,36.498    369.936,19.485 371.678,17.866 373.055,26.55 373.843,41.8 377.152,13.48 377.325,33.463 380.839,12.381 378.946,46.625    382.085,31.995 384.304,27.145 382.8,48.042 385.096,42.223 389.551,25.271 387.406,45.153 388.023,48.982 391.282,40.376    389.576,53.957 399.438,19.72 396.531,37.54 400.002,30.72 403.961,22.956 403.241,31.135 402.959,37.23 399.875,51.082    408.636,30.418 411.888,26.387 415.783,21.066 403.971,55.25 410.906,42.06 416.242,33.567 411.34,48.438 410.598,53.416    418.604,40.017 411.033,58.632 424.518,35.462 415.453,55.91 418.239,53.697 425.254,44.273 429.311,40.488 435.668,33.208    436.902,34.56 424.713,56.659 437.379,40.217 430.778,52.846 422.852,66.689 435.956,50.861 429.592,61.989 437.941,53.441    431.975,63.494 434.635,62.448 450.343,45.909 429.861,72.419 430.964,73.106 450.179,53.883 449.779,56.747 445.691,63.365    444.125,67.133 435.787,77.451 436.037,78.994 441.41,75.73 454.506,65.662 464.21,59.188 453.956,70.334 459.092,68.044    457.068,71.78 469.3,64.077 455.98,76.565 445.792,86.1 470.103,70.019 458.733,80.171 445.932,90.814 451.804,88.437    469.087,78.874 475.287,76.901 461.901,87.089 471.137,83.369 467.802,87.157 478.348,83.087 459.066,95.405 484.519,83.749    482.463,86.789 456.437,101.358 466.491,98.131 475.737,95.577 459.822,104.272 469.232,101.798 455.654,108.888 473.445,103.369    487.431,99.813 480.577,104.099 461.721,112.241 474.405,109.527 490.083,106.25 467.567,114.725 471.197,115.174 488.604,112.061    485.194,114.677 493.47,114.407 464.484,122.639 494.67,117.764 487.942,120.852 473.259,125.161 486.709,124.425 480.134,127.072    482.026,128.373 478.764,130.353 497.76,129.823 460.364,135.154 466.803,135.891 477.866,136.509 480.569,137.865    499.051,138.663 485.605,140.804 475.175,142.552 491.229,144.011 495.452,145.537 473.499,147.063 485.535,148.589    496.287,150.115 485.545,151.642 466.042,153.168 491.293,154.694 468.536,156.221 464.326,157.748 490.697,159.275    480.313,160.802 474.019,162.33 474.383,163.858 482.341,165.386 481.78,166.915 461.228,168.442 487.595,169.97 463.776,171.497    495.348,173.024 483.34,174.551 465.852,176.078 492.546,177.604 470.019,179.131 464.89,180.658 487.186,182.185 495.294,183.711    469.063,185.239 484.174,186.766 483.516,188.293 490.99,189.82 497.183,191.348 482.575,192.876 476.307,194.404 484.212,195.932    486.2,197.458 492.116,198.984 496.354,200.51 489.752,202.035 475.521,203.559 492.454,205.083 473.968,206.607 489.817,208.13    483.594,209.653 468.583,211.177 485.792,212.7 465.048,214.223 466.649,215.746 500.482,217.269 484.518,218.792 500.616,220.316    460.953,221.84 495.977,223.364 497.732,224.889 468.65,226.415 464.819,227.941 478.044,229.468 462.169,230.996 488.244,232.525    476.646,234.055 477.831,235.583 479.585,237.112 464.287,238.639 485.209,240.166 464.618,241.692 500.541,243.218    466.377,244.744 468.478,246.269 483.983,247.794 462.305,249.32 489.055,250.845 477.196,252.371 475.43,253.897 487.176,255.424    474.629,256.952 499.476,258.48 460.711,260.009 487.414,261.539 499.816,263.069 462.65,264.599 494.107,266.127 463.083,267.654    487.465,269.182 468.663,270.709 465.904,272.235 479.036,273.763 464.61,275.29 499.202,276.818 470.337,278.347 487.267,279.876    488.104,281.407 486.854,282.938 469.215,284.467 460.932,285.996 499.064,287.524 468.531,289.053 482.524,290.58    486.247,292.109 467.424,293.639 477.415,295.169 477.212,296.7 478.525,298.23 487.79,299.76 489.65,301.289 465.441,302.818    488.607,304.348 467.877,305.878 482.067,307.408 463.54,308.939 465.937,310.47 470.794,312 477.176,313.53 462.896,315.061    484.518,316.592 472.382,318.123 471.651,319.648 464.077,321.176 498.016,322.705 474.891,324.237 484.621,325.767    485.377,327.295 470.26,328.822 498.239,330.35 461.92,331.878 477.086,333.409 467.368,334.941 470.096,336.472 472.669,338.002    492.709,339.531 477.773,341.064 496.037,342.597 494.313,344.128 488.376,345.66 466.391,347.193 491.043,348.726 462.46,350.26    461.721,351.793 469.172,353.327 493.557,354.857 481.732,356.388 461.454,357.923 474.302,359.455 483.384,360.99    473.866,362.526 498.894,364.062 496.286,365.599 474.766,382.004  " style="fill:#FF73A5;"/><g><g><path d="M385.301,201.697c-3.532-8.337-7.888-16.364-12.974-23.861     c-5.014-7.423-10.777-14.426-17.126-20.771c-6.367-6.345-13.357-12.122-20.786-17.132c-7.52-5.083-15.552-9.435-23.878-12.963     c-8.49-3.565-17.382-6.344-26.421-8.173c-9.24-1.902-18.755-2.871-28.288-2.871c-9.514,0-19.047,0.969-28.306,2.871     c-9.021,1.829-17.913,4.607-26.385,8.173c-8.343,3.529-16.375,7.88-23.878,12.963c-7.447,5.01-14.436,10.787-20.804,17.132     c-6.331,6.345-12.113,13.348-17.145,20.771c-5.068,7.497-9.441,15.523-12.936,23.861c-3.604,8.483-6.367,17.37-8.216,26.383     c-1.884,9.233-2.854,18.76-2.854,28.268c0,9.521,0.97,19.029,2.854,28.281c1.849,9.031,4.611,17.899,8.216,26.383     c3.495,8.319,7.868,16.364,12.936,23.861c5.032,7.423,10.813,14.407,17.145,20.771c6.368,6.345,13.357,12.104,20.804,17.132     c7.502,5.064,15.535,9.435,23.878,12.945c8.472,3.602,17.364,6.344,26.385,8.191c9.259,1.901,18.792,2.852,28.306,2.852     c9.533,0,19.048-0.95,28.288-2.852c9.039-1.848,17.931-4.59,26.421-8.191c8.326-3.511,16.358-7.881,23.878-12.945     c7.429-5.028,14.419-10.787,20.786-17.132c6.349-6.363,12.112-13.348,17.126-20.771c5.086-7.497,9.441-15.542,12.974-23.861     c3.586-8.483,6.348-17.352,8.196-26.383c1.885-9.252,2.854-18.76,2.854-28.281c0-9.508-0.97-19.034-2.854-28.268     C391.648,219.066,388.887,210.18,385.301,201.697z M255.828,136.441c30.392,0,58.112,11.318,79.264,29.912     c-0.292,0.476-17.383,26.476-62.686,43.425c-20.512-37.665-43.054-67.578-44.865-69.954     C236.617,137.63,246.076,136.441,255.828,136.441z M227.102,139.915c-0.019,0.019-0.037,0.019-0.037,0.019     s-0.128,0.037-0.366,0.091C226.827,139.988,226.974,139.97,227.102,139.915z M204.633,147.887     c1.592,2.157,23.787,32.216,44.554,69.095c-57.618,15.304-107.625,14.719-110.79,14.664     C146.191,194.493,171.148,163.684,204.633,147.887z M166.575,336.481c-19.103-21.246-30.74-49.33-30.74-80.134     c0-1.28,0.037-2.542,0.092-3.785c2.122,0.037,61.405,1.39,123.195-17.095c3.439,6.729,6.733,13.566,9.734,20.386     c-1.574,0.439-3.147,0.915-4.721,1.427c-64.754,20.911-97.598,79.146-97.598,79.146S166.575,336.463,166.575,336.481z      M255.828,376.268c-27.812,0-53.373-9.544-73.737-25.414v0.036c0,0-1.116-0.823-2.708-2.103c0.878,0.731,1.811,1.353,2.708,2.066     c0.22-0.476,23.329-50.227,94.157-74.873c0.275-0.11,0.531-0.184,0.805-0.257c16.889,43.846,23.86,80.56,25.635,91.055     C288.288,372.886,272.442,376.268,255.828,376.268z M322.888,355.808c-1.226-7.24-7.611-42.437-23.365-85.66     c38.754-6.176,72.329,4.425,74.8,5.229C368.979,308.8,349.821,337.634,322.888,355.808z M292.222,251.228     c-0.86-2.048-1.701-4.114-2.598-6.198c-2.488-5.852-5.179-11.684-7.978-17.389c47.39-19.326,66.639-47.136,66.876-47.465     c16.814,20.423,26.988,46.532,27.263,74.982C374.065,254.775,333.445,246.054,292.222,251.228z" style="fill:#FFFFFF;"/></g></g></g><g id="Layer_1"/></svg>