<?xml version="1.0" ?><!DOCTYPE svg  PUBLIC '-//W3C//DTD SVG 1.1//EN'  'http://www.w3.org/Graphics/SVG/1.1/DTD/svg11.dtd'><svg height="512px" style="enable-background:new 0 0 512 512;" version="1.1" viewBox="0 0 512 512" width="512px" xml:space="preserve" xmlns="http://www.w3.org/2000/svg" xmlns:xlink="http://www.w3.org/1999/xlink"><g id="social__x2C__media__x2C__social_media__x2C___snapchat__x2C_"><polygon points="464.669,368.662 484.95,370.255 472.036,371.503 463.375,372.578 492.247,375.43    467.433,375.466 499.532,379.43 472.176,378.638 498.714,382.952 485.076,383.094 477.173,383.636 482.626,385.977    468.692,385.279 494.903,391.376 485.716,391.403 477.882,391.448 485.986,394.804 496.131,398.904 466.822,393.405    478.069,397.825 462.895,395.187 487.976,403.979 470.884,400.475 457.156,397.555 479.273,406.43 488.803,411.511    491.536,414.405 464.081,405.705 464.857,407.524 482.668,416.525 478.637,416.627 476.48,417.455 472.422,417.342    485.105,425.232 453.81,411.502 462.223,417.352 456.354,415.836 482.963,432.167 461.037,421.665 472.522,430.149    464.782,427.368 474.85,435.524 460.32,428.154 463.968,432.39 461.833,432.827 446.712,424.021 470.986,443.329 448.399,428.556    467.742,445.207 454.438,436.845 452.638,437.311 442.438,430.688 445.307,434.921 439.555,431.685 461.242,453.187    462.653,456.855 437.844,435.443 457.242,456.463 448.665,450.188 452.755,456.712 434.82,439.938 447.499,455.886 454.9,466.681    451.983,466.043 444.379,459.672 439.029,455.666 445.65,466.509 430.316,449.36 429.622,450.766 425.665,447.69 435.642,464.136    437.204,469.232 434,467.429 435.644,472.958 426.616,461.763 434.069,476.908 430.793,474.749 422.307,463.29 413.163,449.879    415.784,457.45 426.278,480.631 415.142,462.27 417.661,470.763 407.359,452.38 414.814,471.99 419.315,486.214 405.146,456.918    416.839,489.501 414.516,488.417 407.206,473.711 401.036,460.911 410.048,491.636 399.545,464.961 403.82,483.456 404.639,492.05    396.092,468.01 396.483,474.993 394.571,473.534 390.265,461.666 394.353,486.205 388.904,468.007 392.901,496.203    390.229,491.211 384.101,464.33 385.801,484.664 383.552,480.003 381.043,472.118 378.713,463.865 380.818,499.978    376.336,466.872 374.673,462.24 373.535,465.083 372.666,476.46 371.532,489.293 369.999,496.69 368.237,492.14 366.71,464.624    365.183,493.73 363.655,466.831 362.128,490.685 360.601,473.774 359.073,477.819 357.546,491.84 356.018,485.463 354.49,498.069    352.962,461.229 351.434,497.256 349.904,489.816 348.376,466.369 346.846,491.867 345.316,497.393 343.788,498.679    342.259,461.186 340.73,468.345 339.202,497.359 337.674,475.887 336.146,492.923 334.618,499.991 333.091,471.102    331.563,467.196 330.035,495.759 328.507,465.679 326.979,491.692 325.45,470.245 323.922,471.425 322.395,492.74 320.865,470.149    319.336,472.725 317.807,487.116 316.278,497.2 314.75,499.012 313.223,489.996 311.696,493.797 310.17,466.603 308.645,496.937    307.12,493.42 305.595,471.153 304.07,466.649 302.546,470.558 301.021,500.639 299.498,465.422 297.974,492.923 296.449,489.865    294.925,479.045 293.4,466.373 291.876,468.941 290.351,493.341 288.825,493.735 287.299,489.677 285.772,471.79 284.245,499.118    282.717,471.127 281.188,490.911 279.657,486.575 278.127,498.411 276.597,489.566 275.067,477.461 273.539,490.963    272.011,487.443 270.483,488.109 268.956,484.563 267.43,491.039 265.903,474.156 264.376,464.78 262.85,461.73 261.323,469.761    259.796,475.933 258.269,495.515 256.741,495.827 255.212,469.218 253.683,464.572 252.153,485.059 250.621,497.029    249.09,487.984 247.56,474.805 246.031,461.091 244.502,493.927 242.974,494.796 241.445,472.544 239.917,482.766 238.389,464.016    236.86,479.805 235.331,479.184 233.801,494.981 232.271,485.842 230.739,484.665 229.208,468.131 227.677,479.602    226.147,499.005 224.617,492.688 223.088,489.885 221.559,474.866 220.029,498.346 218.499,480.335 216.967,461.847    215.435,494.27 213.903,488.484 212.372,471.287 210.842,479.188 209.312,476.131 207.781,465.029 206.25,494.336 204.718,482.941    203.186,495.125 201.654,468.658 200.123,486.356 198.592,461.633 197.061,487.014 195.528,498.345 193.996,481.618    192.469,462.678 190.941,477.831 189.41,489.974 187.877,488.653 186.346,469.783 184.816,488.769 183.288,466.613 181.76,475.972    180.23,462.621 178.698,468.018 177.164,466.65 175.632,467.847 174.102,475.02 172.57,500.817 171.037,476.087 169.503,491.427    167.971,487.913 166.438,488.939 164.903,491.217 163.37,496.426 161.835,493.317 160.301,470.904 158.765,497.952    157.233,468.651 155.702,485.558 154.166,494.124 152.632,494.033 151.096,498.599 149.559,476.025 148.023,490.261    146.484,500.379 144.942,466.372 143.401,487.696 142.079,465.027 140.148,487.789 139.469,464.125 138.083,465.51    134.879,493.463 133.835,485.158 131.086,497.192 129.105,499.128 130.498,472.952 128.603,476.247 128.551,466.519    122.534,494.956 122.834,483.223 123.793,469.806 118.322,489.346 116.126,491.47 119.925,467.807 117.891,470.209    111.819,487.579 113.017,477.032 109.974,481.926 104.491,494.175 102.762,493.665 111.197,463.268 107.222,470.394    100.095,485.387 97.275,487.946 101.849,471.895 94.408,485.729 104.166,458.913 102.849,458.591 92.922,476.623 102.826,452.468    100.613,454.041 85.895,479.596 91.842,464.874 88.279,468.231 97.481,449.038 82.449,471.988 88.516,458.878 91.186,451.931    86.264,457.059 90.291,448.409 89.006,447.994 80.405,457.867 74.856,462.958 82.335,450.311 63.443,472.565 66.843,465.386    70.262,458.522 68.869,457.72 82.578,439.343 81.729,438.377 66.498,453.257 68.917,448.381 77.098,437.692 73.362,439.624    69.688,441.339 53.542,454.882 53.626,452.473 47.079,456.167 66.265,436.817 56.077,443.732 58.376,439.753 59.677,436.739    62.59,432.549 66.863,427.472 43.456,443.378 54.421,433.277 37.375,443.488 44.757,436.278 53.884,428.224 42.297,433.979    44.006,430.965 55.045,422.357 59.622,418.014 28.612,434.25 60.698,414.373 47.306,420.105 45.886,419.167 45.954,417.457    24.565,426.179 56.31,409.319 50.215,410.638 54.713,407.153 36.296,413.44 47.403,407.26 56.672,402.16 32.947,409.615    35.042,407.164 54.151,399.005 51.634,398.473 49.235,397.838 23.623,403.983 20.117,403.189 40.207,396.06 45.738,393.174    25.831,396.456 45.848,390.334 38.23,390.519 36.77,389.309 25.699,389.777 35.817,386.46 40.792,384.206 20.569,385.533    43.832,380.986 47.372,379.222 30.281,379.512 45.582,376.718 14.358,377.476 47.91,373.899 30.824,373.28 49.29,371.239    48.179,369.97 50.277,368.662 32.491,367.136 13.991,365.61 22.645,364.084 17.341,362.559 26.923,361.032 12.98,359.506    45.873,357.979 50.879,356.453 20.555,354.927 12.83,353.399 13.525,351.872 44.288,350.345 27.554,348.816 40.935,347.289    49.319,345.761 37.438,344.232 26.688,342.705 27.456,341.178 44.135,339.651 12.842,338.124 46.038,336.598 50.362,335.071    47.237,333.545 11.749,332.018 39.176,330.491 12.253,328.965 43.366,327.438 28.888,325.91 36.589,324.383 37.751,322.856    29.424,321.329 44.667,319.801 36.088,318.273 20.16,316.746 44.539,315.22 13.522,313.693 35.938,312.168 46.198,310.644    27.217,309.119 47.195,307.595 34.491,306.071 47.508,304.548 33.373,303.025 11.677,301.502 40.042,299.979 47.731,298.456    48.958,296.934 16.584,295.41 34.669,293.887 33.862,292.363 50.953,290.84 15.695,289.314 15.815,287.79 20.665,286.265    30.465,284.738 37.422,283.212 19.344,281.684 16.872,280.155 31.695,278.625 23.934,277.097 47.843,275.568 21.944,274.041    40.502,272.515 37.729,270.988 47.895,269.463 42.113,267.938 16.326,266.412 14.351,264.887 20.099,263.361 14.484,261.836    21.242,260.311 20.053,258.784 45.569,257.258 27.926,255.73 19.841,254.202 33.108,252.673 32.665,251.143 49.515,249.613    23.746,248.084 47.564,246.556 47.711,245.028 25.266,243.501 34.475,241.975 38.153,240.448 33.45,238.92 43.925,237.393    18.42,235.865 25.139,234.337 18.976,232.808 32.542,231.277 47.677,229.747 17.82,228.217 24.909,226.688 32.606,225.16    40.493,223.632 35.47,222.104 47.55,220.576 45.467,219.046 35.069,217.517 24.43,215.985 45.766,214.455 15.8,212.925    30.479,211.396 30.146,209.867 34.366,208.338 21.891,206.808 48.429,205.277 42.868,203.746 47.719,202.216 41.435,200.687    49.651,199.157 35.756,197.626 37.328,196.095 41.658,194.564 38.642,193.039 14.188,191.512 27.175,189.982 42.475,188.45    30.508,186.92 34.97,185.393 30.522,183.866 21.44,182.338 13.681,180.81 14.211,179.279 11.961,177.746 29.259,176.216    22.24,174.687 42.646,173.157 38.444,171.624 24.583,170.092 11.579,168.561 27.105,167.029 23.044,165.495 36.854,163.963    11.204,162.43 16.918,160.896 45.211,159.362 45.954,157.832 48.383,156.302 33.99,154.767 11.247,153.234 27.388,151.7    36.389,150.163 45.292,148.629 38.783,147.091 31.778,145.551 41.134,144.011 16.539,142.282 49.007,141.421 27.493,139.262    40.033,138.352 45.956,137.332 30.557,134.743 15.072,131.721 26.526,131.196 36.319,130.774 18.08,126.803 21.547,125.572    14.073,122.64 24.64,122.706 49.443,125.804 44.672,123.481 33.082,119.507 27.646,116.64 29.307,115.379 36.776,115.696    37.505,114.335 42.822,114.338 31.406,109.301 31.168,107.541 48.041,111.576 25.469,102.088 21.162,98.664 28.296,99.515    54.336,108.197 28.663,96.017 40.371,99.257 24.617,90.447 43.715,97.436 29.296,88.771 46.087,95.267 32.526,86.539    28.842,82.626 48.534,91.526 34.441,81.743 46.897,87.12 49.928,87.176 58.237,90.64 32.589,72.373 42.664,76.938 50.799,80.527    41.027,71.732 64.799,86.933 53.642,76.912 53.432,74.816 60.271,78.264 41.201,60.845 70.81,83.324 65.764,77.266 59.967,70.26    58.817,67.156 63.704,69.591 60.258,64.213 60.001,61.748 61.437,60.926 72.316,69.966 59.18,53.836 59.535,51.722 59.71,49.346    70.726,59.514 64.618,49.844 81.17,67.528 81.411,65.667 83.092,65.605 76.622,54.698 70.333,43.457 70.753,41.108 85.246,59.191    87.126,59.482 74.404,37.261 94.319,65.725 80.136,39.993 77.015,31.442 86.952,45.218 87.87,43.668 90.538,45.329 96.786,54.052    90.581,38.591 90.463,34.659 89.801,29.327 89.152,23.665 91.446,24.421 107.19,57.435 95.673,25.384 97.179,24.434    102.987,35.061 105.221,36.61 109.994,45.823 112.989,50.481 108.215,30.489 109.357,28.626 116.346,47.53 112.171,26.4    115.766,33.926 114.756,22.865 117.196,26.024 124.274,52.131 118.65,16.062 124.442,38.468 126.37,41.175 125.927,28.629    128.534,35.965 130.058,36.148 129.14,13.9 133.978,46 133.066,18.158 134.544,14.397 137.327,33.094 138.864,33.502    140.756,47.737 141.74,22.376 143.401,39.56 144.928,36.526 146.456,36.585 147.982,27.5 149.51,21.168 151.037,28.755    152.565,49.802 154.092,42.947 155.62,16.381 157.148,47.94 158.676,16.419 160.205,20.193 161.733,31.281 163.263,30.016    164.792,40.342 166.321,28.468 167.851,39.437 169.379,15.246 170.908,31.386 172.436,25.935 173.964,13.747 175.492,20.303    177.02,35.045 178.547,26.109 180.075,38.812 181.603,49.963 183.131,19.679 184.659,43.265 186.188,12.6 187.716,22.157    189.244,19.858 190.772,20.57 192.302,26.188 193.832,40.142 195.36,34.648 196.888,44.717 198.415,50.263 199.942,25.514    201.468,19.554 202.993,50.778 204.519,17.194 206.043,25.847 207.568,50.889 209.092,41.046 210.617,47.398 212.141,50.678    213.665,41.32 215.189,21.615 216.713,28.739 218.238,29.614 219.763,45.33 221.288,40.442 222.813,17.745 224.339,26.287    225.866,13.353 227.394,50.637 228.922,31.357 230.451,21.925 231.981,33.336 233.512,22.749 235.042,17.975 236.571,42.282    238.1,38.462 239.627,29.782 241.155,16.56 242.682,21.673 244.209,19.802 245.735,48.688 247.262,12.521 248.788,17.878    250.315,42.645 251.842,42.105 253.369,19.168 254.897,51.639 256.426,25.235 257.955,24.07 259.485,13.435 261.017,24.531    262.548,18.697 264.078,33.48 265.607,14.669 267.137,28.943 268.665,26.864 270.193,39.02 271.721,15.216 273.249,23.905    274.778,24.798 276.307,19.335 277.837,51.546 279.367,30.536 280.899,14.719 282.431,42.191 283.961,44.672 285.491,20.846    287.021,18.109 288.55,26.358 290.079,18.631 291.609,13.651 293.14,42.737 294.671,49.988 296.203,45.749 297.735,31.345    299.266,43.36 300.796,49.221 302.326,47.452 303.856,31.281 305.388,34.844 306.92,50.779 308.452,39.383 309.984,25.509    311.515,16.451 313.046,22.296 314.577,29.561 316.11,22.639 317.643,26.06 319.169,44.123 320.697,38.338 322.228,45.533    323.762,23.043 325.292,46.38 326.821,48.896 328.35,18.639 329.878,38.584 331.408,14.981 332.94,37.056 334.475,18.661    336.006,12.15 337.536,30.408 339.067,49.114 340.602,42.354 342.135,32.897 343.667,42.943 345.2,36.496 346.735,25.164    348.269,44.737 349.804,28.171 351.338,15.937 352.873,24.49 354.404,13.841 355.936,26.436 357.473,23.979 359.006,21.3    360.542,17.306 362.08,30.043 363.615,34.499 365.154,13.854 366.695,11.732 368.237,21.951 369.821,28.046 371.691,17.337    373.296,20.601 373.413,49.827 376.581,21.959 376.541,43.158 380.214,19 379.787,38.88 380.014,48.954 383.733,31.331    387.883,14.146 387.539,27.351 391.292,15.494 386.561,49.545 389.741,40.661 389.61,47.951 396.774,23.363 400.305,16.26    392.776,51.736 402.059,23.367 395.649,51.202 397.66,49.154 408.093,21.387 401.75,45.561 411.572,22.152 406.761,40.213    411.998,30.86 413.646,31.207 408.676,47.393 409.92,48.119 414.531,41.366 411.271,51.974 416.212,44.952 415.29,50.145    412.304,59.03 421.678,44.303 429.822,32.789 423.138,47.974 427.951,42.791 426.013,49.063 423.487,55.947 433.405,43.226    431.152,49.562 427.041,58.292 436.403,47.5 427.187,62.92 438.704,49.815 443.977,45.607 444.913,47.144 446.806,47.49    437.994,60.672 446.207,53.393 441.908,60.726 452.206,51.651 432.269,75.507 437.278,72.143 435.843,75.544 458.842,54.66    462.83,53.248 437.732,79.17 458.152,62.345 438.585,81.89 438.423,83.716 448.596,76.842 468.657,62.332 462.069,69.81    453.573,78.419 455.202,79.041 444.067,88.984 457.735,80.877 475.629,70.385 468.563,77.245 452.971,89.3 471.718,79.146    478.207,77.143 471.09,83.397 450.521,97.061 461.223,92.603 457.899,96.033 468.447,92.113 451.834,102.193 455.249,101.934    458.534,101.854 488.013,90.024 470.31,99.7 474.498,99.59 455.809,108.825 487.759,97.813 476.809,103.761 484.586,102.674    479.154,106.3 464.46,112.761 494.747,104.801 477.3,111.85 471.336,115.135 459.166,119.877 472.016,117.97 488.213,115.649    495.745,115.702 477.383,121.334 483.611,121.686 466.737,126.325 460.861,128.677 492.297,125.242 474.34,129.423    491.528,128.794 496.074,130.006 497.03,131.675 496.339,133.515 480.834,136.308 461.29,138.896 463.162,140.102 480.306,140.946    482.165,142.453 498.483,144.011 477.86,145.537 476.227,147.063 483.742,148.589 489.725,150.115 477.27,151.641 462.403,153.167    484.795,154.693 469.863,156.22 491.085,157.747 469.7,159.273 474.077,160.8 480.511,162.328 496.554,163.856 474.925,165.384    462.982,166.913 485.407,168.44 477.133,169.968 493.499,171.495 498.864,173.021 468.247,174.548 462.086,176.075    482.781,177.602 484.979,179.128 494.322,180.655 463.341,182.182 487.346,183.708 493.33,185.235 497.242,186.762 485.866,188.29    477.459,189.816 476.631,191.343 491.993,192.872 487.811,194.4 472.021,195.927 465.69,197.454 495.559,198.979 466.667,200.505    477.201,202.03 478.413,203.554 496.388,205.078 467.69,206.602 472.024,208.125 466.694,209.648 473.921,211.171 490.834,212.694    492.172,214.217 487.472,215.74 489.462,217.263 492.459,218.786 483.223,220.31 464.141,221.833 489.62,223.358 498.05,224.883    494.609,226.408 484.643,227.935 483.571,229.461 462.203,230.989 485.515,232.518 482.415,234.047 495.421,235.576    492.129,237.104 473.984,238.631 486.497,240.158 472.867,241.685 470.906,243.21 500.483,244.735 487.022,246.261    473.467,247.786 496.787,249.312 497.156,250.837 462.355,252.363 469.712,253.889 494.72,255.416 494.05,256.943 494.117,258.471    494.192,260 496.434,261.53 493.525,263.06 476.34,264.589 466.084,266.117 465.25,267.645 484.134,269.172 465.034,270.698    500.22,272.226 481.945,273.752 485.193,275.279 494.383,276.808 479.979,278.336 487.843,279.865 493.312,281.396    465.821,282.927 495.27,284.456 481.45,285.984 462.12,287.513 496.275,289.041 486.82,290.569 484.853,292.098 466.464,293.627    491.769,295.156 498.069,296.688 496.111,298.218 462.277,299.748 492.689,301.276 475.865,302.806 463.94,304.335 473.44,305.864    476.938,307.396 461.257,308.927 460.898,310.457 496.807,311.986 487.216,313.517 471.61,315.047 491.341,316.578    476.711,318.109 488.703,319.634 475.291,321.161 470.384,322.69 480.169,324.223 463.388,325.753 480.195,327.28 490.149,328.808    464.025,330.335 467.27,331.863 497.347,333.395 469.51,334.927 485.315,336.457 476.717,337.986 480.815,339.517 463.604,341.049    466.068,342.581 470.211,344.112 485.233,345.644 489.378,347.178 483.828,348.71 491.727,350.243 462.12,351.776 463.369,353.311    499.114,354.841 462.004,356.371 496.3,357.906 468.029,359.438 491.088,360.974 483.975,362.51 463.628,364.044 462.807,365.582    479.155,359.283  " style="fill:#F5E200;"/><g id="path12604_1_"><path d="M254.584,125.306c-17.016,0.11-34.6,4.571-48.396,15.359    c-10.329,8.044-18.453,18.741-23.567,30.662c-0.018,0.037-0.018,0.055-0.027,0.091c-4.876,12.305-4.419,25.378-3.76,37.5    c0,0.018,0,0.018,0,0.018c0.403,8.539,1.354,16.785,0.549,24.61c-0.064,0.311-0.073,0.384-0.11,0.567    c-3.842,0.695-8.014,0.439-12.149-0.347c-0.018,0-0.046,0-0.073,0c-2.827-0.476-5.854-1.646-9.276-2.597    c-0.064,0-0.119-0.018-0.183-0.036c-3.321-0.75-6.587,0.201-9.084,2.047c-0.028,0.019-0.082,0.037-0.109,0.073    c-0.055,0.037-0.101,0.055-0.156,0.091c-2.041,1.334-4.831,3.584-4.977,7.479c0,0.238,0.018,0.493,0.073,0.75    c0.439,2.286,1.857,3.968,3.12,5.046c1.263,1.097,2.461,1.811,3.193,2.377c0.055,0.036,0.11,0.091,0.174,0.128    c6.194,4.132,13.055,5.942,19.02,8.246h0.019c4.135,1.811,7.721,4.626,8.544,8.15c1.025,4.479-0.878,9.617-3.375,14.591    c0,0,0.009,0.019,0,0.037c-6.706,13.219-16.678,24.701-28.937,33.13c-6.422,4.37-13.678,7.643-21.243,9.672    c-0.101,0.037-0.202,0.074-0.302,0.11c-1.556,0.585-5.233,0.95-7.547,4.442c-0.165,0.238-0.302,0.512-0.403,0.787    c-0.777,2.23,0.11,4.644,1.208,5.96c1.062,1.262,2.232,1.993,3.239,2.523c0.055,0.019,0.11,0.055,0.155,0.092    c6.376,3.619,13.33,5.21,19.679,6.819c0.027,0.019,0.055,0.019,0.092,0.019c4.574,1.042,8.792,1.591,12.231,3.054    c0.174,0.273,0.512,1.426,1.317,3.346c1.125,3.474,1.637,7.587,2.955,11.902c0.348,1.188,1.409,2.157,2.635,2.414    c2.891,0.603,4.483-0.366,4.74-0.384c0.11-0.019,0.228-0.037,0.347-0.056c10.631-1.846,21.243-3.474,30.986-1.042    c0.009,0,0.009,0,0.027,0c10.219,2.669,19.103,9.69,29.111,15.725c0.018,0.019,0.027,0.037,0.045,0.054v-0.035    c6.642,4.168,14.317,8.264,23.192,8.557v0.019c0.037,0,0.064,0,0.092,0c6.696,0.384,13.284-0.037,19.696-0.477    c0.037,0,0.073,0,0.11,0c5.498-0.529,10.832-2.34,15.489-5.302c0.073-0.037,0.138-0.073,0.2-0.11    c10.531-5.96,19.881-13.146,30.137-17.644c0.009,0,0.027-0.019,0.036-0.019c3.33-1.188,7.483-1.133,12.113-1.443    c0.035,0,0.081,0,0.127,0c8.49-0.257,16.999,0.2,25.415,1.316c0.293,0.036,0.596,0.036,0.879,0    c1.116-0.146,2.324-0.878,2.909-1.609c0.586-0.75,0.76-1.354,0.879-1.792c0.247-0.859,0.476-1.28,0.073-0.566    c0.128-0.22,0.229-0.458,0.311-0.695c1.536-5.064,2.379-9.654,4.886-12.506c1.115-1.079,3.047-1.627,5.232-1.591    c0.165,0,0.33,0,0.485-0.019c7.328-0.859,13.951-3.474,20.227-5.705c0.073-0.019,0.146-0.055,0.22-0.091    c2.324-1.006,5.801-2.157,8.18-5.448c0.019-0.019,0.036-0.037,0.055-0.055l-0.027-0.019c2.003-2.762,1.07-6.564-1.766-8.282    l0.055-0.055c-0.092-0.056-0.184-0.092-0.274-0.146c-0.018-0.019-0.036-0.037-0.063-0.037v0.019    c-3.395-2.158-6.799-2.469-8.957-3.236c-0.037-0.019-0.092-0.037-0.129-0.055c-14.573-4.607-27.171-14.555-36.575-26.677    c-5.233-6.729-9.644-14.061-12.57-21.904c-0.009-0.019-0.018-0.055-0.018-0.073c-1.154-3.4-1.209-7.112,0.475-9.356    c0.027-0.018,0.055-0.036,0.073-0.073c2.635-3.73,7.457-6.125,12.607-8.026c0.019,0,0.046,0,0.073-0.019    c5.689-1.956,11.91-4.242,17.052-8.74c0.019-0.019,0.037-0.037,0.064-0.073c0.796-0.731,1.747-1.7,2.462-3.145    c0.713-1.445,1.061-3.694,0.108-5.668c0,0,0,0,0-0.018c-1.481-3.017-4.061-4.571-5.982-5.687h-0.019    c-3.22-1.865-6.962-1.975-10.209-0.951c-0.01,0.019-0.019,0-0.028,0c-0.027,0.019-0.045,0.019-0.063,0.037    c-3.513,1.042-6.386,2.322-9.048,2.651c-0.064,0-0.119,0.018-0.174,0.037c-3.788,0.676-7.447,0.823-10.302-0.219    c-0.027-0.421-0.036-1.244-0.155-2.268h0.027c-0.22-6.198,0.312-12.598,0.421-19.217c0-0.018,0-0.037,0-0.055    c0.283-10.056,0.695-20.423-0.806-30.863c0-0.055-0.009-0.11-0.018-0.146c-3.249-17.607-14.565-32.765-28.91-42.857    c-10.438-7.313-22.816-11.409-35.396-12.561h-0.009C263.001,125.398,258.783,125.252,254.584,125.306L254.584,125.306z" style="fill:#FFFFFF;"/></g></g><g id="Layer_1"/></svg>