<?xml version="1.0" ?><!DOCTYPE svg  PUBLIC '-//W3C//DTD SVG 1.1//EN'  'http://www.w3.org/Graphics/SVG/1.1/DTD/svg11.dtd'><svg height="512px" style="enable-background:new 0 0 512 512;" version="1.1" viewBox="0 0 512 512" width="512px" xml:space="preserve" xmlns="http://www.w3.org/2000/svg" xmlns:xlink="http://www.w3.org/1999/xlink"><g id="social__x2C__media__x2C__social_media__x2C___sound_cloud__x2C_"><polygon points="485.715,368.662 493.484,370.381 494.649,372.107 480.869,373.279 478.51,374.694    464.448,375.266 480.074,377.848 483.728,379.733 489.629,381.966 474.272,381.764 460.013,381.291 483.574,386.118    493.552,389.371 475.234,387.869 493.191,392.834 478.021,391.477 475.883,392.573 480.306,395.164 468.742,393.886    465.214,394.415 486.313,401.749 480.318,401.726 472.424,400.949 482.188,405.688 470.716,403.512 484.813,410.103    477.214,409.08 464.528,405.875 490.419,417.82 472.474,412.254 458.189,407.724 455.149,407.819 486.318,423.857 480.583,423.038    465.775,417.517 480.592,426.889 454.913,415.059 479.157,430.059 480.014,432.554 448.915,416.18 460.878,424.987    476.998,436.873 471.866,435.636 450.176,423.18 465.732,435.504 471.915,441.869 467.691,440.935 461.206,438.161 468.4,445.711    466.995,446.81 468.036,449.862 463.395,448.263 448.481,437.65 463.752,453.1 463.027,454.808 458.156,452.631 454.584,451.529    439.064,438.512 447.998,449.506 438.135,441.46 454.467,460.981 435.064,442.187 434.818,443.959 454.014,468.398    445.209,460.655 441.052,458.143 443.737,464.082 428.493,446.995 435.691,458.866 442.667,471.086 433.825,461.557    434.988,465.996 437.202,472.227 424.28,455.373 427.87,463.748 422.883,458.494 432.976,478.454 431.723,479.742 422.301,466.342    427.671,479.583 419.102,466.8 421.983,475.91 423.131,482.036 408.433,454.678 421.806,487.463 409.313,463.182 417.237,485.803    404.837,459.607 409.859,476.311 402.486,460.958 407.037,477.792 402.432,469.146 408.309,491.909 399.069,468.091    403.446,487.987 399.268,479.348 394.04,465.729 397.861,486.64 396.507,488.179 394.195,485.492 392.571,485.716 393.329,498.293    387.503,475.893 387.329,484.004 386.326,488.066 382.08,469.113 382.57,484.536 379.679,472.697 379.927,490.482 377.916,486.354    375.039,467.6 374.361,480.353 373.154,488.435 371.054,471.034 369.637,470.728 368.246,477.205 366.719,463.876 365.191,478.797    363.664,494.201 362.137,476.688 360.609,477.732 359.082,479.746 357.555,497.229 356.027,480.901 354.499,470.825    352.971,472.74 351.442,462.285 349.914,500.218 348.385,500.679 346.854,498.096 345.325,495.826 343.797,498.957    342.268,479.995 340.739,488.948 339.211,481.088 337.683,497.852 336.155,462.939 334.627,482.681 333.1,499.412 331.571,484.717    330.044,465.542 328.516,493.652 326.987,496.316 325.459,484.577 323.931,466.514 322.402,488.514 320.874,488.592    319.345,480.48 317.815,494.69 316.287,485.358 314.759,468.663 313.231,496.29 311.705,489.364 310.179,497.945 308.653,462.468    307.128,492.652 305.604,479.769 304.079,466.246 302.555,497.093 301.03,467.441 299.506,489.943 297.982,494.586    296.458,494.432 294.934,491.897 293.409,475.24 291.884,498.585 290.359,487.111 288.833,473.704 287.308,496.73 285.78,462.207    284.253,492.93 282.725,498.302 281.196,479.733 279.666,486.124 278.135,484.057 276.605,499.617 275.076,482.759    273.547,468.647 272.02,467.258 270.492,471.526 268.965,463.07 267.438,480.513 265.911,471.377 264.385,491.251 262.858,465.15    261.332,474.718 259.805,498.34 258.277,485.964 256.75,498.303 255.221,472.705 253.692,473.912 252.162,493.857 250.63,469.644    249.099,468.111 247.569,494.5 246.04,470.894 244.511,478.74 242.982,469.357 241.454,486.176 239.926,474.532 238.398,480.13    236.869,482.305 235.34,492.258 233.811,475.641 232.28,499.985 230.748,494.246 229.216,465.631 227.686,469.869 226.156,493.175    224.626,500.471 223.097,462.099 221.567,499.729 220.038,466.955 218.507,474.662 216.976,470.984 215.444,498.613    213.912,477.562 212.381,484.374 210.851,499.263 209.321,488.035 207.791,485.929 206.259,492.828 204.727,465.45    203.195,479.315 201.663,478.815 200.132,488.293 198.602,479.516 197.07,490.958 195.537,481.56 194.005,482.295 192.479,465.048    190.95,473.001 189.419,468.732 187.886,497.908 186.355,499.944 184.826,469.556 183.297,478.923 181.769,489.358 180.239,471.87    178.707,490.81 177.173,499.92 175.642,474.225 174.111,464.726 172.58,465.719 171.046,470.536 169.513,499.456 167.98,472.376    166.447,466.665 164.912,485.319 163.379,482.469 161.844,495.913 160.31,497.314 158.774,468.398 157.243,468.576    155.711,500.661 154.175,474.921 152.641,482.737 151.105,465.995 149.568,489.218 148.032,498.348 146.493,501.013    144.952,479.671 143.41,486.746 141.982,473.014 140.25,484.344 139.439,465.116 136.523,494.605 136.883,463.903 134.66,475.072    134.28,463.62 130.197,489.143 128.637,488.273 129.393,470.458 126.522,480.152 124.74,481.484 123.483,479.632 125.202,462.525    119.154,485.326 119.959,474.15 114.341,491.592 113.039,489.672 118.438,462.579 109.25,490.553 110.892,478.833 105.184,491.962    107.995,477.594 106,478.598 105.076,476.455 100.161,485.222 105.631,466.331 94.513,490.162 96.329,481.16 90.772,489.76    103.785,456.531 91.776,479.104 99.326,459.698 95.66,463.929 100.626,451.215 94.653,459.64 82.359,478.923 80.883,478.048    90.813,457.838 94.407,449.215 93.303,448.546 92.563,447.314 73.486,473.641 91.146,444.863 85.015,451.354 86.877,446.455    80.399,452.905 74.673,457.986 77.856,451.492 77.52,449.61 76.771,448.276 70.549,453.344 77.885,442.741 60.333,460.043    66.647,450.814 66.841,448.396 53.07,460.204 58.958,451.932 74.789,434.467 74.499,432.956 63.631,441.12 67.184,435.994    71.757,430.229 48.81,447.775 49.505,445.03 59.583,434.937 50.5,440.096 52.261,436.777 47.024,438.67 45.957,437.43    60.78,425.271 41.831,436.271 48.737,429.81 37.61,434.986 41.144,430.834 48.134,424.805 41.865,426.656 50.204,420.201    51.39,417.913 44.527,419.875 37.855,421.524 41.652,417.892 59.027,408.049 32.053,418.836 39.729,413.679 44.165,410.146    51.186,405.733 56.601,402.181 55.429,401.278 29.364,409.184 45.783,401.853 49.28,399.239 40.965,400.401 49.897,396.238    36.178,398.701 52.418,392.823 44.705,393.434 29.277,395.644 17.311,396.653 40.184,390.117 52.5,386.282 40.798,387.084    43.141,385.262 44.305,383.677 28.292,384.482 40.666,381.371 35.444,380.514 38.422,378.74 38.329,377.304 27.921,376.562    30.338,374.848 49.684,372.524 26.687,371.854 49.048,369.958 37.89,368.662 49.994,367.136 22.822,365.61 11.5,364.084    41.147,362.559 25.925,361.032 37.373,359.506 21.639,357.979 18.833,356.453 13.66,354.927 31.895,353.399 21.809,351.872    49.191,350.345 21.113,348.816 11.259,347.289 38.845,345.761 13.415,344.232 21.532,342.705 27.944,341.178 18.647,339.651    37.912,338.124 22.428,336.598 26.908,335.071 40.377,333.545 33.976,332.018 33.474,330.491 39.767,328.965 44.008,327.438    33.65,325.91 17.146,324.383 17.017,322.856 24.991,321.329 40.5,319.801 45.85,318.273 47.052,316.746 29.78,315.22    14.065,313.693 29.273,312.168 50.729,310.644 25.954,309.119 26.726,307.595 35.74,306.071 20.228,304.548 20.721,303.025    11.741,301.502 11.272,299.979 50.967,298.456 21.506,296.934 21.223,295.41 40.165,293.887 35.302,292.363 12.421,290.84    12.764,289.314 30.772,287.79 26.783,286.265 20.331,284.738 43.499,283.212 50.297,281.684 23.706,280.155 44.278,278.625    50.33,277.097 32.296,275.568 20.703,274.041 42.025,272.515 15.083,270.988 40.685,269.463 37.143,267.938 27.455,266.412    13.33,264.887 13.969,263.361 11.066,261.836 32.569,260.311 25.631,258.784 13.466,257.258 27.427,255.73 27.862,254.202    49.952,252.673 19.251,251.143 49.372,249.613 34.793,248.084 34.005,246.556 17.596,245.028 21.325,243.501 44.12,241.975    46.263,240.448 23.642,238.92 32.62,237.393 13.846,235.865 44.38,234.337 23.055,232.808 50.412,231.277 40.525,229.747    19.813,228.217 36.411,226.688 30.66,225.16 17.667,223.632 37.332,222.104 50.076,220.576 35.896,219.046 35.021,217.517    28.228,215.985 17.307,214.455 48.532,212.925 32.449,211.396 15.927,209.867 33.354,208.338 28.48,206.808 42.169,205.277    32.794,203.746 48.282,202.216 23.807,200.687 13.11,199.157 46.83,197.626 21.278,196.095 43.196,194.564 31.117,193.039    37.067,191.512 40.209,189.982 18.938,188.45 48.769,186.92 16.376,185.393 30.138,183.866 49.25,182.338 18.562,180.81    20.448,179.279 14.6,177.746 48.598,176.216 23.198,174.687 21.687,173.157 33.348,171.624 34.864,170.092 16.727,168.561    26.793,167.029 40.331,165.495 22.022,163.963 50.311,162.43 36.75,160.896 45.667,159.362 27.13,157.832 36.327,156.302    47.997,154.767 25.345,153.234 40.36,151.7 44.612,150.163 13.514,148.629 22.412,147.091 26.838,145.551 24.533,144.011    22.601,142.363 43.427,141.271 49.091,140.128 26.857,137.64 18.28,135.465 14.111,133.405 18.894,132.089 18.687,130.339    30.184,130.024 36.714,129.34 46.072,129.26 44.97,127.715 42.934,125.965 15.923,119.352 17.027,117.76 33.236,119.54    38.682,119.242 50.688,120.737 42.652,117.255 29,111.952 49.933,116.433 29.725,108.778 22.084,104.586 42.425,109.667    47.86,110.056 47.531,108.458 22.555,97.293 20.738,94.649 54.099,106.675 26.484,93.214 55.427,104.382 58.073,104.159    31.414,89.79 50.805,97.634 47.017,94.072 54.826,96.592 41.097,87.396 35.889,82.574 41.001,83.631 31.14,75.706 57.754,90.332    33.374,72.878 56.492,86.169 39.82,72.971 65.657,89.161 57.806,81.833 47.312,72.163 52.182,73.848 47.293,67.966 69.684,84.063    46.025,62.532 70.764,81.572 66.119,75.705 72.337,79.458 50.265,57.014 71.477,74.987 55.66,57.455 63.961,63.48 63.442,60.705    65.021,60.086 58.748,50.85 62.077,52.022 80.504,70.873 66.726,52.355 66.297,49.239 79.284,62.964 66.52,44.043 73.498,50.512    69.625,42.474 82.329,57.491 86.903,61.604 79.336,47.78 84.049,52.161 78.36,40.281 78.585,37.433 89.971,53.381 88.693,48.251    81.718,32.538 85.07,35.115 84.535,30.402 99.845,57.064 87.137,27.756 99.16,49.32 103.061,54.509 92.223,26.184 94.271,26.533    103.813,45.607 102.893,39.203 109.618,52.951 112.386,56.803 102.007,22.29 113.303,51.427 111.664,41.618 113.799,43.701    115.211,43.452 117.065,44.872 118.919,46.521 114.581,22.081 122.213,48.7 118.432,23.803 125.037,49.292 125.258,43.004    126.437,41.525 125.849,28.045 129.009,39.403 128.472,23.079 130.025,21.978 132.68,32.225 133.747,26.375 136.546,43.943    137.226,31.04 137.999,11.954 140.437,35.458 142.013,42.126 143.41,41.089 144.938,17.835 146.465,44.815 147.992,16.361    149.519,39.418 151.046,27.102 152.574,43.807 154.102,45.513 155.629,36.339 157.157,47.478 158.686,12.162 160.214,17.409    161.743,24.622 163.272,46.794 164.801,37.046 166.331,32.59 167.86,19.205 169.388,22.083 170.917,47.707 172.445,27.191    173.973,46.375 175.501,22.131 177.029,26.321 178.557,18.592 180.084,50.981 181.612,37.133 183.14,13.781 184.668,37.538    186.197,30.46 187.726,49.224 189.253,49.139 190.782,30.497 192.312,44.4 193.841,37.608 195.369,41.468 196.897,36.001    198.424,48.4 199.951,32.046 201.477,32.919 203.002,38.731 204.528,40.982 206.053,48.466 207.577,11.677 209.102,45.069    210.626,32.295 212.15,40.409 213.674,13.597 215.198,23.895 216.723,43.372 218.247,20.111 219.772,31.262 221.297,16.379    222.823,44.673 224.349,42.925 225.875,29.211 227.403,18.48 228.931,42.688 230.46,48.86 231.99,24.097 233.521,19.954    235.051,23.328 236.58,14.98 238.109,48.499 239.637,43.583 241.164,40.865 242.691,12.412 244.218,37.178 245.745,48.399    247.271,41.168 248.797,21.704 250.324,14.487 251.851,20.627 253.378,27.995 254.906,20.313 256.435,21.714 257.965,36.134    259.495,41.059 261.026,35.933 262.558,43.091 264.087,18.085 265.616,34.672 267.146,39.435 268.674,49.224 270.202,13.613    271.73,45.661 273.259,51.182 274.787,16.701 276.316,33.193 277.846,19.338 279.377,14.431 280.908,42.624 282.439,36.534    283.971,42.281 285.5,49.615 287.03,12.789 288.56,28.669 290.089,30.63 291.618,43.216 293.148,22.328 294.68,50.065    296.213,22.715 297.744,25.012 299.275,47.487 300.806,24.435 302.336,44.711 303.866,47.427 305.397,27.341 306.929,48.061    308.462,18.088 309.993,20.738 311.523,14.187 313.055,44.332 314.586,37.626 316.119,17.897 317.651,31.345 319.178,47.28    320.706,48.702 322.236,22.711 323.771,17.141 325.301,37.841 326.83,12.641 328.358,35.125 329.888,13.805 331.417,36.605    332.949,28.871 334.483,27.373 336.015,20.046 337.545,16.803 339.076,22.591 340.61,24.735 342.144,26.05 343.676,21.266    345.209,26.78 346.744,44.655 348.277,49.641 349.813,47.136 351.347,27.214 352.882,47.959 354.413,12.375 355.944,42.047    357.48,39.314 359.015,35.949 360.551,34.301 362.089,15.55 363.624,25.505 365.163,47.093 366.704,26.135 368.246,49.519    369.645,41.92 371.439,27.118 372.608,37.717 373.338,51.416 376.496,23.332 376.295,46.295 378.117,41.299 380.336,33.896    381.82,34.224 382.936,37.245 382.796,48.137 384.799,44.12 387.629,36.101 387.017,47.218 390.202,38.456 389.535,48.327    393.167,38.731 399.158,20.856 395.634,40.969 393.802,52.944 397.615,44.55 406.802,19.614 400.614,44.479 400.795,48.395    399.965,54.846 412.644,24.368 409.533,37.256 403.961,55.293 416.007,29.883 420.748,23.234 410.672,49.931 422.393,28.208    412.657,52.301 420.439,39.893 423.5,37.447 428.69,31.25 428.442,35.303 431.924,32.625 428.403,42.038 431.022,40.837    436.872,34.63 436.681,38.164 420.738,65.2 435.515,45.954 444.17,36.511 436.752,49.774 430.884,60.276 436.535,55.273    444.509,47.665 451.327,41.939 431.139,68.875 438.789,62.031 438.725,64.333 431.089,74.911 432.676,75.075 454.337,54.36    454.112,57.004 448.875,64.519 454.176,61.57 456.483,61.637 465.342,55.809 451.631,70.337 446.038,77.161 442.71,81.778    468.333,62.6 448.866,80.283 465.887,68.933 452.655,80.948 467.981,71.568 463.916,76.508 463.202,78.937 465.481,79.305    454.643,88.23 449.569,93.078 456.141,90.598 452.61,94.319 465.699,88.366 453.217,97.054 476.59,85.991 468.71,91.979    476.765,89.655 466.732,96.372 453.94,104.005 486.25,90.823 480.666,95.193 484.722,95.309 480.274,98.955 461.04,108.17    467.1,107.371 464.946,109.66 481.866,105.386 482.001,107.06 465.146,113.991 486.115,109.256 475.417,113.99 483.081,113.534    474.12,117.449 489.974,115.234 458.52,123.944 480.795,120.631 497.159,119.078 474.686,124.908 480.627,125.426 461.7,129.848    462.55,131.036 495.518,128.308 495.854,130.03 479.887,133.302 495.33,133.583 498.473,135.11 466.684,138.608 474.315,139.655    483.026,140.874 490.786,142.329 471.782,144.011 474.569,145.537 469.293,147.063 463.725,148.589 493.126,150.115    498.46,151.641 461.367,153.167 487.784,154.693 462.93,156.22 492.511,157.747 474.366,159.273 468.072,160.8 494.002,162.328    494.119,163.856 467.34,165.384 466.999,166.913 474.023,168.44 491.005,169.968 481.081,171.495 479.622,173.021 464.781,174.548    474.082,176.075 469.11,177.602 488.119,179.128 487.714,180.655 480.106,182.182 493.109,183.708 481.668,185.235    497.043,186.762 480.327,188.29 494.063,189.816 467.945,191.343 481.733,192.872 471.417,194.4 470.341,195.927 482.533,197.454    497.526,198.979 464.901,200.505 474.002,202.03 462.452,203.554 490.306,205.078 491.369,206.602 496.534,208.125    470.098,209.648 472.037,211.171 475.691,212.694 495.308,214.217 493.809,215.74 470.547,217.263 499.504,218.786 471.977,220.31    471.324,221.833 494.36,223.358 467.212,224.883 494.09,226.408 482.404,227.935 493.882,229.461 491.755,230.989 491.144,232.518    476.797,234.047 480.15,235.576 496.388,237.104 476.348,238.631 483.896,240.158 462.431,241.685 468.727,243.21 465.346,244.735    470.249,246.261 485.858,247.786 463.325,249.312 463.124,250.837 471.229,252.363 470.442,253.889 468.983,255.416    470.396,256.943 483.091,258.471 492.623,260 477.108,261.53 480.663,263.06 461.666,264.589 490.676,266.117 467.316,267.645    499.258,269.172 473.95,270.698 475.18,272.226 486.568,273.752 475.562,275.279 468.827,276.808 465.82,278.336 498.043,279.865    499.704,281.396 473.193,282.927 475.772,284.456 496.066,285.984 474.933,287.513 479.714,289.041 484.901,290.569    483.269,292.098 496.975,293.627 472.465,295.156 483.056,296.688 486.281,298.218 471.559,299.748 496.739,301.276    484.678,302.806 486.185,304.335 481.431,305.864 499.212,307.396 475.999,308.927 479.983,310.457 474.043,311.986    484.769,313.517 476.058,315.047 469.339,316.578 461.213,318.109 476.219,319.634 472.798,321.161 472.821,322.69    481.976,324.223 463.142,325.753 495.499,327.28 477.925,328.808 479.896,330.335 466.14,331.863 464.776,333.395 469.102,334.927    466.08,336.457 462.71,337.986 481.42,339.517 488.058,341.049 479.144,342.581 461.027,344.112 475.297,345.644 462.564,347.178    473.377,348.71 467.858,350.243 475.601,351.776 480.051,353.311 486.369,354.841 476.867,356.371 463.661,357.906    482.177,359.438 497.334,360.974 463.552,362.51 469.594,364.044 496.711,365.582 484.165,361.383  " style="fill:#FF5E00;"/><g><path d="M361.788,247.645c-4.739,0-9.277,1.023-13.376,2.87c-2.763-33.459-28.873-59.697-60.729-59.697    c-7.813,0-15.424,1.664-22.121,4.443c-2.616,1.079-3.294,2.194-3.33,4.37V317.43c0.036,2.286,1.665,4.188,3.733,4.406    c0.091,0.019,95.2,0.036,95.822,0.036c19.084,0,34.563-16.601,34.563-37.098C396.352,264.264,380.872,247.645,361.788,247.645z" style="fill:#FFFFFF;"/><path d="M178.193,287.17l-2.488-49.856c-0.055-1.28-0.988-2.267-2.123-2.267    c-1.135,0-2.068,0.987-2.123,2.267l-2.195,49.856l2.195,32.253c0.055,1.261,0.988,2.268,2.123,2.268    c1.134,0,2.067-1.007,2.123-2.286v0.019L178.193,287.17z" style="fill:#FFFFFF;"/><path d="M166.813,287.17l-2.653-30.658c-0.073-1.151-0.878-2.011-1.884-2.011    c-1.006,0-1.83,0.896-1.885,2.03l-2.342,30.64l2.342,32.234c0.055,1.133,0.879,1.975,1.885,1.975c1.006,0,1.811-0.842,1.884-1.975    l0,0L166.813,287.17z" style="fill:#FFFFFF;"/><path d="M189.684,287.188l-2.323-61.266c-0.073-1.426-1.116-2.523-2.378-2.523    c-1.263,0-2.306,1.098-2.361,2.523l-2.049,61.266l2.049,32.032c0.055,1.391,1.098,2.506,2.361,2.506    c1.262,0,2.305-1.115,2.378-2.523v0.018L189.684,287.188z" style="fill:#FFFFFF;"/><path d="M128.882,314.889c0.586,0,1.08-0.494,1.153-1.226l3.147-26.512l-3.129-27.11    c-0.091-0.695-0.585-1.207-1.171-1.207c-0.604,0-1.098,0.512-1.171,1.207l-2.781,27.11l2.781,26.512    C127.784,314.377,128.278,314.889,128.882,314.889z" style="fill:#FFFFFF;"/><path d="M139.916,319.643c0.731,0,1.317-0.641,1.409-1.481l2.982-31.01l-2.982-32.157    c-0.092-0.841-0.678-1.481-1.409-1.481c-0.732,0-1.335,0.64-1.409,1.481c0,0.018-2.617,32.157-2.617,32.157l2.617,31.01    C138.58,319.002,139.183,319.643,139.916,319.643z" style="fill:#FFFFFF;"/><path d="M210.909,218.591c-0.055-1.719-1.281-3.053-2.836-3.053c-1.555,0-2.799,1.334-2.854,3.053    l-1.774,68.598l1.774,31.503c0.055,1.7,1.299,3.035,2.854,3.035c1.556,0,2.781-1.335,2.836-3.035l0,0l2.013-31.503    L210.909,218.591z" style="fill:#FFFFFF;"/><path d="M151.059,320.867c0.86,0,1.555-0.731,1.646-1.736l2.799-31.961l-2.799-33.035    c-0.092-1.005-0.787-1.755-1.646-1.755c-0.878,0-1.592,0.75-1.646,1.755l-2.489,33.035l2.489,31.961    C149.466,320.136,150.18,320.867,151.059,320.867z" style="fill:#FFFFFF;"/><path d="M201.248,287.188l-2.16-66.385c-0.055-1.554-1.208-2.779-2.598-2.779    c-1.427,0-2.562,1.225-2.616,2.779c0,0.019-1.921,66.385-1.921,66.385l1.921,31.704c0.055,1.555,1.189,2.761,2.616,2.761    c1.391,0,2.543-1.206,2.598-2.779v0.037L201.248,287.188z" style="fill:#FFFFFF;"/><path d="M224.65,287.188l-1.83-66.878c-0.037-1.829-1.391-3.273-3.092-3.273    c-1.683,0-3.037,1.444-3.074,3.273l-1.629,66.878l1.629,31.211c0.037,1.828,1.391,3.309,3.074,3.309    c1.702,0,3.056-1.48,3.092-3.309l0,0L224.65,287.188z" style="fill:#FFFFFF;"/><path d="M118.489,269.215c-0.585,0-1.043,0.493-1.134,1.188l-2.049,16.748l2.049,16.492    c0.091,0.695,0.549,1.17,1.134,1.17c0.567,0,1.024-0.475,1.116-1.17l2.433-16.492l-2.433-16.748    C119.514,269.708,119.057,269.215,118.489,269.215z" style="fill:#FFFFFF;"/><path d="M248.437,287.225l-1.5-76.696c-0.037-2.085-1.647-3.785-3.568-3.785c-1.958,0-3.55,1.7-3.568,3.785    l-1.354,76.66c0,0.073,1.354,30.826,1.354,30.826c0.018,2.066,1.61,3.803,3.568,3.803c1.921,0,3.531-1.736,3.568-3.84v0.056    L248.437,287.225z" style="fill:#FFFFFF;"/><path d="M255.17,199.521c-2.068,0-3.788,1.829-3.824,4.077l-1.555,83.626l1.555,30.352    c0.037,2.213,1.756,4.041,3.824,4.041c2.049,0,3.77-1.828,3.806-4.06v0.019l1.702-30.352l-1.702-83.626    C258.939,201.35,257.219,199.521,255.17,199.521z" style="fill:#FFFFFF;"/><path d="M236.507,287.188l-1.684-64.411c-0.037-1.993-1.5-3.565-3.312-3.565    c-1.848,0-3.293,1.572-3.33,3.565l-1.482,64.411l1.482,31.027c0.037,1.956,1.482,3.529,3.33,3.529    c1.812,0,3.275-1.573,3.312-3.548v0.019L236.507,287.188z" style="fill:#FFFFFF;"/></g></g><g id="Layer_1"/></svg>