<?xml version="1.0" ?><!DOCTYPE svg  PUBLIC '-//W3C//DTD SVG 1.1//EN'  'http://www.w3.org/Graphics/SVG/1.1/DTD/svg11.dtd'><svg height="512px" style="enable-background:new 0 0 512 512;" version="1.1" viewBox="0 0 512 512" width="512px" xml:space="preserve" xmlns="http://www.w3.org/2000/svg" xmlns:xlink="http://www.w3.org/1999/xlink"><g id="social__x2C__media__x2C__social_media__x2C___blogger__x2C_"><polygon points="492.285,368.68 486.415,370.292 463.427,371.291 479.737,373.251 484.738,375.045    498.079,377.533 493.56,378.961 475.798,378.998 475.961,380.5 480.178,382.507 491.75,385.633 476.941,385.137 478.696,386.948    464.522,385.974 482.555,390.805 471.627,390.171 478.133,393.085 474.1,393.718 463.079,392.481 488.308,400.56 487.793,402.169    491.013,404.898 457.72,396.398 481.404,405.447 485.512,408.567 475.35,406.745 473.022,407.537 469.241,407.71 489.431,417.444    486.489,418.139 470.548,413.112 483.567,420.673 471.567,416.954 457.407,411.808 479.669,424.518 470.8,421.821 473.994,425.326    467.77,423.744 474.366,429.325 461.266,423.504 452.827,420.078 477.928,437.486 474.147,437.12 463.191,431.88 454.007,427.45    465.801,437.548 464.795,438.827 450.285,429.979 450.024,431.554 443.873,428.475 440.585,427.477 465.633,450.151    455.214,443.463 454.862,445.244 446.818,440.049 449.131,444.205 447.058,444.31 437.372,436.838 460.451,462.138    435.652,438.883 440.957,446.519 455.571,464.77 453.606,465.221 448.506,461.988 440.45,454.98 430.351,445.011 442.416,462.415    440.434,462.521 441.965,467.258 423.019,444.049 423.01,446.24 431.668,461.168 435.064,469.027 436.591,474.424 422.397,455.043    424.788,461.644 434.006,480.184 433.523,482.899 414.898,452.991 420.27,465.792 413.163,455.347 411.964,455.945 413.131,461.41    407.494,452.663 413.035,468.039 409.006,462.507 413.728,477.41 417.486,491.061 402.241,456.564 404.048,465.179    411.317,489.867 408.464,486.913 400.871,469.035 396.51,459.833 405.114,493.646 395.856,467.15 399.495,486.358 399.063,491.494    393.948,477.316 390.169,467.262 394.754,496.285 387.307,467.001 391.003,495.512 386.031,476.121 387.966,499.082    381.579,465.429 383.311,490.645 378.383,460.765 377.261,462.394 377.76,484.482 376.191,484.819 373.725,468.459    372.406,469.774 371.074,471.813 369.977,495.524 368.246,496.284 366.719,492.933 365.191,478.952 363.664,480.417    362.137,475.238 360.609,469.298 359.081,495.979 357.554,491.116 356.026,463.612 354.498,475.117 352.97,466.125    351.441,471.483 349.912,479.404 348.383,478.757 346.853,483.793 345.323,477.42 343.794,463.8 342.266,500.74 340.737,476.224    339.209,473.744 337.681,486.451 336.152,466.583 334.624,490.231 333.097,484.566 331.568,483.952 330.04,498.771    328.513,485.252 326.984,493.428 325.455,482.782 323.929,494.126 322.4,473.978 320.872,469.458 319.342,477.938 317.813,492.813    316.284,471.806 314.756,475.805 313.229,478.522 311.702,485.25 310.176,496.384 308.65,476.562 307.125,491.546 305.6,483.133    304.075,478.466 302.551,478.48 301.026,475.166 299.502,500.883 297.978,485.364 296.453,463.688 294.929,472.642    293.404,473.696 291.879,478.21 290.354,469.669 288.828,478.235 287.302,478.533 285.775,484.31 284.247,472.773 282.719,486.32    281.19,484.196 279.66,485.817 278.129,471.476 276.599,474.937 275.069,476.835 273.541,465.99 272.013,465.663 270.485,495.063    268.958,467.08 267.431,474.273 265.904,488.178 264.378,496.819 262.852,465.065 261.324,471.463 259.797,464.888 258.27,463.897    256.742,489.593 255.213,496.185 253.684,499.509 252.153,487.428 250.622,497.687 249.09,473.974 247.56,479.451 246.03,470.552    244.501,500.793 242.973,490.168 241.445,478.934 239.917,494.961 238.388,473.866 236.859,487.872 235.33,495.606 233.8,500.611    232.27,483.596 230.737,492.273 229.206,476.938 227.675,469.925 226.145,482.023 224.615,482.509 223.086,492.638    221.556,487.668 220.026,471.801 218.496,492.384 216.964,489.306 215.432,467.794 213.9,489.345 212.369,461.147 210.839,483.643    209.309,478.49 207.778,472.12 206.247,495.618 204.714,470.395 203.182,496.667 201.65,496.328 200.119,464.868 198.588,461.319    197.056,483.168 195.523,491.217 193.991,468.745 192.464,491.429 190.936,489.915 189.405,476.303 187.872,461.475    186.341,488.734 184.811,490.272 183.283,467.722 181.754,491.583 180.224,483.77 178.692,483.848 177.158,499.972    175.626,479.402 174.096,495.115 172.564,487.014 171.03,469.287 169.497,473.406 167.964,487.204 166.431,480.365    164.896,484.931 163.362,466.62 161.827,496.628 160.293,484.395 158.757,474.596 157.226,474.356 155.694,483.221    154.158,474.613 152.624,490.216 151.087,474.54 149.55,482.155 148.014,467.37 146.475,500.407 144.933,471.846 143.392,493.298    141.768,487.632 140.46,475.774 138.55,486.828 137.086,483.916 136.468,469.77 134.793,473.231 131.627,491.406 133.165,461.622    129.239,483.203 127.251,486.124 124.663,492.397 126.169,472.689 120.97,493.637 120.684,485.951 123.577,463.855    117.909,483.372 114.384,491.344 119.924,462.048 112.151,486.267 112.282,479.645 111.318,477.338 108.296,481.866    105.485,485.27 111.914,461.144 111.352,458.755 104.991,472.151 102.959,473.229 105.14,463.7 103.763,463.384 94.993,480.032    89.956,487.167 101.764,457.722 101.863,454.446 98.597,458.062 88.786,474.005 86.146,475.498 96.362,453.636 85.938,469.191    85.358,467.063 75.833,479.705 89.984,453.845 79.387,467.679 79.421,464.721 76.563,466.101 74.988,465.529 87.873,445.055    64.99,473.51 71.435,462.186 85.32,442.034 67.631,461.759 61.72,466.272 69.638,454.396 67.84,454.1 64.354,455.623    76.681,440.063 77.154,437.639 51.275,462.03 72.203,438.862 75.696,433.613 52.178,453.831 65.147,439.738 53.877,447.788    51.771,447.448 64.873,434.316 67.972,429.983 42.563,448.436 65.52,428.526 45.857,441.581 57.553,431.005 60.77,426.963    55.624,428.818 54.179,428.033 59.04,423.141 60.051,420.888 39.862,431.617 41.661,428.638 40.726,427.316 50.076,420.283    57.982,414.379 39.638,422.423 38.815,421.049 59.534,409.225 34.913,419.353 57.597,407.309 50.864,408.84 45.935,409.415    57.63,403.163 41.44,408.066 32.623,409.748 46.719,403.023 37.99,404.515 46.155,400.264 49.284,397.843 47.345,397.01    30.307,400.357 35.404,397.347 24.067,398.614 24.999,396.661 43.254,390.923 27.997,392.652 48.435,387.075 48.225,385.772    13.381,390.154 40.542,384.263 48.168,381.788 29.085,382.802 40.76,379.953 28.967,379.653 21.667,378.668 40.308,375.742    36.256,374.547 36.489,373.069 13.388,372.231 16,370.416 38.242,368.68 16.436,367.153 35.667,365.627 31.755,364.102    34.146,362.575 47.737,361.049 30.222,359.522 46.873,357.996 37.365,356.47 50.863,354.942 20.488,353.416 39.625,351.889    40.79,350.36 45.901,348.833 21.17,347.304 49.245,345.776 44.931,344.248 17.08,342.721 14.715,341.193 18.929,339.666    19.863,338.14 27.635,336.612 43.375,335.086 33.48,333.559 39.597,332.032 48.65,330.506 45.572,328.979 45.286,327.452    47.619,325.925 25.633,324.398 45.307,322.872 42.428,321.345 12.356,319.816 46.579,318.288 43.363,316.761 32.643,315.234    11.316,313.708 15.262,312.183 19.063,310.657 36.884,309.133 42.639,307.609 13.522,306.085 31.318,304.562 26.254,303.038    22.826,301.516 36.276,299.992 27.72,298.47 36.051,296.946 49.397,295.423 43.014,293.899 30.437,292.376 30.65,290.853    27.208,289.327 49.539,287.803 27.66,286.277 33.022,284.751 17.203,283.224 43.678,281.695 39.33,280.167 12.596,278.637    46.322,277.108 48.741,275.58 45.931,274.053 45.236,272.525 17.346,271 38.45,269.474 49.063,267.948 39.071,266.423    17.407,264.897 27.118,263.372 32.578,261.847 19.948,260.32 23.92,258.794 38.796,257.268 13.001,255.74 30.23,254.211    26.688,252.682 39.172,251.152 28.001,249.622 34.709,248.093 44.926,246.565 13.934,245.037 11.658,243.51 47.381,241.983    17.958,240.456 37.389,238.929 45.285,237.401 32.822,235.874 48.35,234.345 35.046,232.815 12.529,231.285 35.94,229.754    16.181,228.225 43.953,226.696 27.546,225.167 13.814,223.639 43.275,222.111 34.5,220.582 24.942,219.053 23.414,217.523    26.078,215.991 17.473,214.461 40.287,212.931 38.911,211.402 35.966,209.873 20.074,208.344 49.903,206.813 12.363,205.283    45.727,203.751 14.697,202.221 18.724,200.691 11.499,199.161 20.96,197.631 24.166,196.1 24.93,194.568 48.368,193.043    35.153,191.516 47.229,189.986 30.144,188.454 32.595,186.924 47.168,185.396 28.018,183.869 43.912,182.341 23,180.813    39.923,179.282 33.253,177.749 11.24,176.219 11.32,174.689 38.965,173.159 20.932,171.626 11.932,170.094 11.795,168.563    29.741,167.031 44.249,165.497 20.46,163.965 50.363,162.431 12.278,160.898 34.495,159.363 15.136,157.833 27.212,156.303    12.039,154.768 46.708,153.235 45.347,151.7 46.448,150.164 45.696,148.629 31.786,147.091 45.557,145.551 26.61,144.011    20.586,142.336 18.901,140.617 44.967,139.963 25.983,137.594 46.764,137.387 12.042,133.237 41.425,134.222 15.969,130.052    19.947,128.771 43.306,130.24 28.143,126.568 16.366,123.011 33.717,124.325 49.429,125.797 41.861,122.902 46.431,122.467    42.326,120.105 51.929,121.052 43.558,117.494 48.286,117.354 49.111,116.194 28.32,108.349 55.09,115.317 29.473,105.265    42.629,108.199 30.316,102.067 48.869,107.484 22.719,95.449 35.141,98.732 28.938,94.282 46.917,100.535 39.612,95.518    27.611,87.945 29.323,86.847 52.383,96.864 51.957,95.05 51.249,93.038 52.375,92.026 37.04,81.298 44.604,83.932 50.455,85.748    40.437,77.469 51.456,82.814 53.567,82.436 65.98,89.398 50.449,76.483 65.948,86.14 40.782,65.067 66.577,83.267 45.75,64.559    44.965,61.661 69.444,80.436 55.075,65.933 59.539,67.819 72.824,78.118 70.295,73.863 75.947,77.504 66.844,66.418 66.19,63.585    58.982,53.63 65.667,58.479 68.47,59.267 71.973,60.972 74.251,61.364 76.275,61.515 70.202,51.501 67.174,44.925 66.633,41.351    66.294,37.921 75.388,47.68 76.907,47.05 91.434,65.957 78.023,42.865 89.42,57.928 88.059,53.022 88.451,50.827 89.149,49.069    84.033,36.75 94.624,52.963 90.606,42.152 86.357,30.188 89.006,31.654 95.284,41.061 97.55,42.311 103.456,52.081 105.139,52.564    106.02,51.116 98.882,28.859 106.354,44.167 100.887,24.447 112.177,52.262 113.538,52.17 111.389,40.772 107.349,21.833    108.987,21.21 117.131,45.178 119.51,48.947 119.278,42.117 117.969,29.56 123.763,49.689 123.358,40.61 123.795,34.875    122.016,14.721 128.403,45.176 127.2,26.219 128.541,23.819 129.375,16.146 131.15,16.201 132.65,13.042 135.365,26.693    136.431,16.649 139.523,50.163 139.994,19.534 142.044,45.885 143.392,18.16 144.919,14.816 146.446,27.264 147.974,38.3    149.501,28.635 151.029,26.917 152.556,48.967 154.084,28.683 155.612,46.948 157.14,30.358 158.668,32.429 160.197,29.596    161.726,34.585 163.255,14.025 164.785,17.237 166.314,51.053 167.843,42.532 169.372,24.338 170.901,24.102 172.429,24.349    173.957,42.628 175.485,26.246 177.013,15.395 178.541,43.646 180.069,31.979 181.597,46.329 183.125,45.622 184.653,29.028    186.182,39.163 187.71,11.75 189.238,20.547 190.767,14.798 192.297,40.982 193.826,38.839 195.355,23.76 196.883,46.762    198.41,18.513 199.937,25.008 201.463,29.401 202.989,12.233 204.514,41.207 206.039,17.796 207.564,39.813 209.088,26.549    210.613,47.773 212.137,14.767 213.661,26.866 215.186,19.784 216.71,12.631 218.234,28.009 219.759,35.701 221.285,27.484    222.811,46.645 224.337,27.012 225.864,29.644 227.391,29.108 228.919,40.897 230.449,33.634 231.979,35.053 233.51,37.972    235.04,42.289 236.569,22.94 238.098,44.82 239.626,46.413 241.153,49.648 242.681,23.65 244.208,39.308 245.734,49.948    247.261,19.166 248.788,31.93 250.314,23.458 251.841,34.165 253.369,47.869 254.897,12.32 256.426,38.809 257.955,28.096    259.485,43.881 261.018,39.501 262.548,49.199 264.078,27.821 265.608,12.242 267.137,14.67 268.665,18.888 270.193,14.068    271.722,25.023 273.25,50.293 274.779,41.847 276.309,27.535 277.838,44.482 279.369,36.947 280.9,40.972 282.433,45.705    283.963,28.018 285.493,46.032 287.023,15.969 288.553,24.884 290.082,43.679 291.612,42.091 293.143,38.667 294.674,51.247    296.206,24.958 297.738,38.493 299.27,14.487 300.8,44.584 302.33,13.645 303.86,50.21 305.392,48.857 306.924,38.563    308.456,39.462 309.988,17.478 311.519,37.271 313.05,41.209 314.582,45.262 316.114,14.04 317.646,37.794 319.174,19.366    320.702,46.507 322.232,33.777 323.767,44.729 325.297,50.911 326.826,13.813 328.355,29.42 329.884,42.198 331.414,28.427    332.946,27.276 334.48,17.143 336.012,36.41 337.542,38.136 339.074,31.345 340.607,40.757 342.142,25.34 343.674,37.798    345.207,19.005 346.742,49.257 348.275,44.59 349.811,37.349 351.345,13.993 352.881,41.495 354.412,48.152 355.943,46.03    357.48,39.82 359.014,11.694 360.55,42.869 362.088,29.743 363.623,44.334 365.163,49.587 366.704,35.3 368.246,22.393    369.556,48.593 370.856,48.935 372.117,49.842 374.207,35.126 374.77,48.949 378.56,18.375 380.429,16.871 381.106,26.784    383.476,20.669 381.601,47.052 385.723,28.6 388.828,19.507 388.458,31.451 388.047,41.865 389.119,43.711 395.041,23.401    398.369,16.656 392.979,45.562 401.474,18.918 393.638,53.527 405.297,18.438 396.122,54.142 408.561,19.987 407.465,28.771    403.447,45.041 411.791,26.679 414.238,25.074 404.496,53.948 411.945,39.592 418.287,28.889 413.885,42.813 418.283,36.989    414.689,48.111 423.463,33.872 412.832,58.008 417.776,51.581 429.395,33.572 418.277,56.47 431.482,36.818 431.48,40.091    437.448,33.728 437.4,37.052 421.18,64.538 438.754,41.233 437.254,46.308 444.794,38.727 425.525,67.429 435.384,56.77    427.801,68.758 427.377,71.375 432.352,67.413 433.439,68.249 447.781,54.083 456.324,47.132 438.601,68.729 438.244,71.147    455.498,55.587 435.52,77.704 437.896,77.213 451.49,66.306 448.995,70.683 467.333,56.445 438.537,83.622 466.149,62.134    442.607,83.568 443.182,84.791 446.051,84.228 446.175,85.802 453.758,81.929 469.938,72.239 464.694,77.911 467.542,77.93    450.002,91.239 468.221,81.355 475.261,78.939 473.408,82.031 449.846,97.447 450.373,98.63 455.118,97.53 481.453,85.362    467.518,94.309 463.207,98.08 470.201,96.398 477.256,94.893 474.461,97.892 480.665,97.009 479.032,99.464 458.439,109.18    471.654,105.677 458.799,111.846 463.08,111.77 466.871,111.979 491.011,105.979 473.677,112.92 478.633,113.092 464.794,118.385    484.233,114.919 464.989,121.137 475.948,120.096 465.486,123.793 473.829,123.57 495.067,121.271 497.813,122.6 486.505,126.114    486.805,127.72 485.927,129.479 476.14,132.172 463.317,134.874 481.892,134.678 481.342,136.273 480.609,137.863 461.716,140.16    485.995,140.794 485.536,142.409 498.374,144.011 472.079,145.537 495.801,147.063 469.925,148.589 494.419,150.115    473.696,151.642 471.023,153.168 500.166,154.694 499.813,156.221 489.855,157.748 491.993,159.275 468.229,160.802    487.146,162.33 489.044,163.858 493.45,165.386 496.609,166.915 495.158,168.442 488.448,169.97 485.187,171.497 500.23,173.024    483.271,174.551 475.895,176.078 470.828,177.604 492.491,179.131 497.461,180.658 466.553,182.185 496.094,183.711    481.694,185.239 468.683,186.766 470.653,188.293 477.738,189.82 464.118,191.348 465.166,192.876 488.478,194.404    484.457,195.932 479.979,197.458 479.739,198.984 468.852,200.51 480.995,202.035 478.529,203.559 493.523,205.083    467.421,206.607 486.702,208.13 478.557,209.653 497.179,211.177 460.926,212.7 479.8,214.223 490.516,215.746 490.988,217.269    493.756,218.792 478.597,220.316 486.551,221.84 465.023,223.364 493.005,224.889 490.901,226.415 484.662,227.941 500.63,229.468    468.307,230.996 482.902,232.525 473.265,234.055 474.492,235.583 472.681,237.112 498.742,238.639 482.376,240.166    466.539,241.692 480.637,243.218 482.038,244.744 487.714,246.269 472.903,247.794 479.803,249.32 490.626,250.845    493.914,252.371 485.235,253.897 492.321,255.424 495.73,256.952 483.157,258.48 497.575,260.009 462.25,261.539 496.866,263.069    495.421,264.599 462.066,266.127 485.238,267.654 463.671,269.182 486.629,270.709 474.739,272.235 476.715,273.763    475.948,275.29 470.95,276.818 492.624,278.347 474.842,279.876 493.175,281.407 473.467,282.938 463.444,284.467 474.485,285.996    484.684,287.524 479.507,289.053 489.144,290.58 468.447,292.109 471.834,293.639 466.848,295.169 464.467,296.7 472.223,298.23    493.36,299.76 467.074,301.289 491.91,302.818 488.513,304.348 485.179,305.878 462.315,307.408 474.207,308.939 467.75,310.47    485.906,312 463.638,313.53 465.67,315.061 460.914,316.592 479.324,318.123 497.313,319.648 463.603,321.176 460.826,322.705    485.045,324.237 485.231,325.767 461.032,327.295 488.239,328.822 488.637,330.35 465.714,331.878 482.035,333.409    498.929,334.941 462.448,336.472 460.953,338.002 460.877,339.531 468.054,341.064 468.387,342.597 477.355,344.128    486.237,345.66 468.037,347.193 493.897,348.726 465.009,350.26 471.761,351.793 496.198,353.327 492.4,354.857 482.565,356.388    494.191,357.923 468.414,359.455 479.431,360.99 493.735,362.526 500.324,364.062 495.051,365.599 479.398,371.917  " style="fill:#FF6600;"/><g><path d="M204.367,396.764h102.355c49,0,88.824-39.895,89.099-88.586l0.53-71.687l-0.805-3.913l-2.388-4.882    l-3.953-3.09c-5.178-4.04-31.389,0.256-38.441-6.125c-5.015-4.589-5.782-12.854-7.292-24.007    c-2.809-21.703-4.611-22.818-7.987-30.132c-12.342-26.091-45.825-45.691-68.825-48.416h-62.293    c-49.009,0-89.062,39.968-89.062,88.75v103.5C115.306,356.869,155.358,396.764,204.367,396.764z M205.501,188.441h49.394    c9.414,0,17.062,7.625,17.062,16.931c0,9.27-7.647,16.968-17.062,16.968h-49.394c-9.422,0-17.062-7.698-17.062-16.968    C188.439,196.065,196.079,188.441,205.501,188.441z M205.501,289.985h100.362c9.376,0,16.969,7.588,16.969,16.895    c0,9.179-7.593,16.895-16.969,16.895H205.501c-9.422,0-17.062-7.716-17.062-16.895    C188.439,297.573,196.079,289.985,205.501,289.985z" style="fill:#FFFFFF;"/></g></g><g id="Layer_1"/></svg>