<?xml version="1.0" ?><!DOCTYPE svg  PUBLIC '-//W3C//DTD SVG 1.1//EN'  'http://www.w3.org/Graphics/SVG/1.1/DTD/svg11.dtd'><svg height="512px" style="enable-background:new 0 0 512 512;" version="1.1" viewBox="0 0 512 512" width="512px" xml:space="preserve" xmlns="http://www.w3.org/2000/svg" xmlns:xlink="http://www.w3.org/1999/xlink"><g id="social__x2C__media__x2C__social_media__x2C___stack_overflow__x2C_"><polygon points="497.783,368.662 467.49,370.009 479.237,371.695 478.34,373.178 494.886,375.571    461.375,375.061 466.565,376.749 494.727,380.777 490.444,382.054 466.147,380.764 475.108,383.354 476.358,385.033    467.336,385.065 469.473,386.843 492.221,392.646 471.798,390.186 474.124,392.186 488.149,397.018 479.479,396.578    480.314,398.421 475.418,398.693 485.216,403.172 485.499,404.998 481.893,405.592 472.438,404.099 468.813,404.401    460.234,402.769 459.806,404.05 482.668,414.697 476.567,413.973 464.754,410.579 480.001,419.035 470.976,416.663 458.72,412.442    484.763,427.041 470.038,421.408 477.425,427.155 484.01,432.756 462.54,422.52 468.886,428.002 466.871,428.637 463.369,428.299    460.489,428.258 467.932,435.03 471.839,439.702 456.077,430.644 464.417,438.545 463.689,440.023 462.52,441.176 454.563,436.938    451.401,436.302 440.104,428.743 454.505,442.84 449.109,440.139 450.735,443.61 437.183,433.026 449.063,446.227 447.36,446.697    435.603,436.925 435.793,439.019 435.134,440.269 445,453.123 443.966,454.306 428.503,438.705 440.52,455.052 441.373,458.537    435.301,453.412 425.334,442.892 433.776,456.308 426.196,448.412 423.835,447.421 431.383,460.743 433.731,467.017    437.022,475.08 418.846,449.361 436.096,480.231 420.465,457.219 421.391,461.682 426.755,474.382 427.767,479.761 423.412,475.1    427.386,486.679 409.286,453.468 407.765,453.251 418.949,481.133 410.239,465.318 415.788,482.333 412.268,478.078    405.221,464.319 401.278,457.698 400.998,460.744 400.018,462.041 398.844,462.813 400.853,473.851 400.771,478.894    399.492,480.149 396.211,473.933 394.435,472.984 393.654,476.057 388.825,461.188 388.047,463.819 392.137,492.1 391.449,498.006    387.3,483.821 387.591,496.465 383.158,477.053 381.649,477.057 379.945,475.162 380.377,495.223 378.522,493.8 376.793,493.785    373.423,462.813 372.194,464.484 371.837,500.349 369.746,478.443 368.246,496.769 366.719,495.378 365.191,487.053    363.664,493.994 362.137,499.723 360.609,471.454 359.081,474.869 357.554,465.337 356.026,500.975 354.498,463.183    352.97,468.441 351.441,467.076 349.912,484.915 348.383,498.608 346.853,487.532 345.323,468.021 343.794,465.427    342.266,495.566 340.737,497.151 339.209,487.756 337.681,497.11 336.152,481.709 334.624,477.722 333.097,461.694    331.568,474.686 330.04,488.675 328.513,496.564 326.984,490.92 325.455,471.883 323.929,486.629 322.4,461.967 320.872,493.016    319.342,471.005 317.813,465.476 316.284,461.082 314.756,490.191 313.229,474.463 311.702,468.94 310.176,482.898 308.65,470.894    307.125,489.503 305.6,487.792 304.075,467.536 302.551,461.211 301.026,497.391 299.502,498.469 297.978,483.146 296.453,462.271    294.929,498.306 293.404,473.328 291.879,491.591 290.354,489.919 288.828,463.171 287.302,488.807 285.775,464.255    284.247,492.902 282.719,483.709 281.19,477.702 279.66,469.146 278.129,465.83 276.599,471.93 275.069,471.856 273.541,490.589    272.013,493.138 270.485,500.338 268.958,481.481 267.431,482.751 265.904,480.322 264.378,494.075 262.852,497.359    261.324,498.233 259.797,468.701 258.27,486.292 256.742,482.209 255.213,473.003 253.684,489.918 252.153,467.943    250.622,477.417 249.09,468.898 247.56,496.479 246.03,483.313 244.501,491.437 242.973,474.961 241.445,484.557 239.917,482.469    238.388,496.04 236.859,488.842 235.33,465.29 233.8,461.938 232.27,476.756 230.737,499.549 229.206,480.883 227.675,484.826    226.145,463.661 224.615,492.756 223.086,481.679 221.556,471.648 220.026,488.832 218.496,499.956 216.964,500.532    215.432,473.099 213.9,476.68 212.369,492.68 210.839,500.685 209.309,476.038 207.778,493.431 206.247,463.051 204.714,493.4    203.182,493.928 201.65,481.989 200.119,491.913 198.588,461.631 197.056,472.962 195.523,468.451 193.991,465.787    192.464,485.935 190.936,485.168 189.405,486.505 187.872,483.914 186.341,488.91 184.811,499.69 183.283,485.96 181.754,496.608    180.224,474.409 178.692,483.548 177.158,471.695 175.626,496.209 174.096,477.752 172.564,483.074 171.03,499.219    169.497,481.848 167.964,463.209 166.431,477.326 164.896,493.125 163.362,479.296 161.827,465.014 160.293,494.692    158.757,474.712 157.226,477.144 155.694,488.114 154.158,463.944 152.624,484.965 151.087,480.555 149.55,464.965 148.014,491.01    146.475,469.19 144.933,463.845 143.392,464.571 141.968,472.673 140.093,489.501 139.503,463.073 136.771,489.88 134.55,498.246    133.333,491.288 133.662,469.955 128.979,500.212 130.66,471.551 129.321,470.922 125.234,488.594 125.742,475.284    123.008,482.204 123.991,468.736 116.896,496.129 119.881,474.445 116.875,480.732 116.473,475.864 116.748,468.94    114.371,472.158 114.843,465.354 108.769,480.346 104.025,489.796 105.336,480.505 100.1,490.419 109.722,459.369 101.619,476.687    105.559,462.677 95.589,482.91 105.092,456.794 93.431,479.454 101.633,457.994 95.864,466.817 84.177,486.785 91.449,468.858    85.458,476.772 83.97,475.997 94.797,453.71 80.556,475.182 79.553,473.586 80.688,468.624 79.485,467.517 90.418,448.209    74.635,468.9 82.007,455.595 85.503,448.313 75.167,459.879 71.337,462.307 61.372,472.301 64.559,465.511 67.098,459.824    80.767,441.459 57.194,466.131 60.606,459.729 66.293,451.182 53.579,462.193 74.48,438.49 58.036,452.836 67.034,441.919    50.03,455.84 58.294,445.961 50.694,450.597 68.782,432.781 44.959,450.979 53.82,441.507 54.47,438.982 58.975,433.557    45.062,442.161 51.591,435.334 44.624,438.361 39.264,440.043 39.955,437.516 55.531,425.401 62.953,419.042 39.255,431.984    59.456,418.101 56.958,418.007 29.093,431.896 57.603,414.569 50.034,417.011 36.732,422.083 42.072,417.682 59.229,407.948    25.792,421.657 29.917,417.942 35.828,413.636 24.188,416.608 32.058,411.682 45.509,404.951 51.692,401.24 54.297,398.961    18.254,409.313 35.151,402.199 21.522,404.6 18.86,403.538 42.512,395.451 47.898,392.629 33.669,394.605 52.768,388.805    48.602,388.376 27.972,391.002 47.933,385.815 41.446,385.533 44.533,383.646 23.111,385.187 34.753,382.091 31.138,380.979    24.213,380.088 26.033,378.297 28.623,376.513 49.099,373.844 16.896,373.839 36.208,371.595 38.722,370.096 19.671,368.662    13.96,367.136 20.953,365.61 27.792,364.084 45.028,362.559 14.87,361.032 21.837,359.506 36.675,357.979 49.464,356.453    18.423,354.927 35.854,353.399 27.583,351.872 44.358,350.345 41.189,348.816 39.014,347.289 38.86,345.761 12.858,344.232    27.341,342.705 21.883,341.178 25.804,339.651 33.409,338.124 13.826,336.598 45.717,335.071 21.118,333.545 40.669,332.018    14.523,330.491 27.876,328.965 28.706,327.438 42.624,325.91 27.129,324.383 25.31,322.856 44.591,321.329 32.61,319.801    26.532,318.273 44.813,316.746 18.686,315.22 15.013,313.693 28.423,312.168 28.848,310.644 31.177,309.119 23.391,307.595    46.891,306.071 45.657,304.548 17.258,303.025 29.761,301.502 29.741,299.979 12.419,298.456 33.997,296.934 23.814,295.41    35.315,293.887 20.207,292.363 43.024,290.84 40.807,289.314 14.533,287.79 29.491,286.265 42.869,284.738 16.86,283.212    21.923,281.684 44.936,280.155 44.632,278.625 50.447,277.097 19.391,275.568 18.25,274.041 44.773,272.515 28.788,270.988    16.459,269.463 27.832,267.938 48.76,266.412 37.926,264.887 30.764,263.361 23.954,261.836 19.323,260.311 35.225,258.784    12.508,257.258 48.251,255.73 43.075,254.202 43.031,252.673 16.678,251.143 16.26,249.613 29.231,248.084 22.264,246.556    46.718,245.028 11.749,243.501 34.202,241.975 44.682,240.448 13.457,238.92 21.589,237.393 45.779,235.865 42.556,234.337    33.014,232.808 19.936,231.277 40.696,229.747 34.531,228.217 27.437,226.688 50.452,225.16 29.287,223.632 26.4,222.104    11.823,220.576 15.315,219.046 21.01,217.517 45.555,215.985 31.687,214.455 19.801,212.925 24.582,211.396 27.845,209.867    14.292,208.338 21.125,206.808 16.464,205.277 15.64,203.746 17.732,202.216 30.374,200.687 31.468,199.157 25.776,197.626    21.499,196.095 16.187,194.564 29.212,193.039 46.195,191.512 22.267,189.982 39.035,188.45 50.192,186.92 40.01,185.393    18.68,183.866 44.747,182.338 35.21,180.81 15.723,179.279 48.871,177.746 46.122,176.216 21.911,174.687 42.392,173.157    24.448,171.624 41.316,170.092 12.187,168.561 28.433,167.029 44.739,165.495 37.786,163.963 24.172,162.43 22.884,160.896    15.003,159.362 50.523,157.832 22.617,156.302 17.817,154.767 12.387,153.234 43.34,151.7 41.364,150.163 50.669,148.629    23.36,147.091 41.95,145.551 31.678,144.011 25.271,142.399 16.429,140.55 27.692,139.27 30.365,137.83 50.443,137.635    13.993,133.396 40.444,134.128 20.957,130.592 34.445,130.546 45.959,130.6 19.61,125.288 41.548,127.154 14.491,120.888    51.599,126.221 50.599,124.711 35.397,120.02 38.715,119.25 50.085,120.581 31.894,114.403 33.273,113.152 44.894,114.951    45.713,113.738 17.866,103.219 45.923,110.857 25.719,102.185 31.311,102.436 21.277,96.799 22.699,95.448 40.613,101.024    29.972,94.736 54.772,104.083 30.66,91.323 32.799,90.473 28.571,86.469 35.422,88.055 46.632,92.189 46.763,90.547 50.18,90.767    50.009,88.964 56.387,91.123 44.431,81.957 40.677,77.625 47.716,80.317 37.814,71.599 51.597,79.218 49.668,75.914 67.642,87.416    51.19,73.093 43.379,64.872 47.813,66.241 56.051,70.952 68.006,79.198 51.331,62.619 54.321,63.068 73.383,78.649 56.333,60.447    73.717,75.302 70.218,69.842 60.679,57.838 56.112,50.555 62.861,55.387 76.172,67.98 59.631,46.616 65.662,51.094 84.117,71.157    79.858,63.706 71.17,50.119 70.783,46.9 74.834,49.657 88.565,66.332 89.425,65.29 85.446,56.97 82.786,50.227 80.955,44.44    83.067,44.826 87.08,48.504 87.801,46.714 93.54,53.911 95.618,54.819 92.609,46.014 85.974,29.416 93.281,40.488 103.775,59.221    95.706,38.222 94.261,30.916 101.415,43.658 94.173,21.661 97.375,24.963 102.306,33.244 111.785,55.118 101.236,20.066    108.283,35.986 112.208,43.427 109.81,30.181 116.217,47.088 118.458,50.195 115.338,32.248 119.82,44.422 122.895,51.856    120.513,33.957 121.609,31.527 124.441,38.497 127.412,47.588 128.675,46.989 127.251,26.598 129.716,33.419 129.289,15.352    134.486,51.457 133.724,26.314 136.01,36.255 136.538,18.642 138.439,23.135 140.011,20.175 141.713,21.06 143.392,25.964    144.919,12.086 146.446,16.766 147.974,14.333 149.501,25.057 151.029,40.47 152.556,23.592 154.084,48.584 155.612,42.356    157.14,32.527 158.668,47.338 160.197,47.562 161.726,13.718 163.255,30.491 164.785,12.202 166.314,46.242 167.843,35.378    169.372,49.932 170.901,35.797 172.429,49.966 173.957,24.368 175.485,28.564 177.013,41.244 178.541,16.335 180.069,36.989    181.597,22.158 183.125,24.203 184.653,23.578 186.182,34.081 187.71,21.31 189.238,33.573 190.767,29.164 192.297,21.836    193.826,22.825 195.355,24.608 196.883,42.393 198.41,36.916 199.937,49.46 201.463,43.216 202.989,34.726 204.514,24.603    206.039,31.771 207.564,20.159 209.088,51.593 210.613,38.765 212.137,45.832 213.661,33.955 215.186,49.44 216.71,12.35    218.234,20.536 219.759,41.178 221.285,41.763 222.811,47.193 224.337,48.296 225.864,12.934 227.391,37.868 228.919,31.858    230.449,12.816 231.979,36.27 233.51,38.118 235.04,16.284 236.569,27.748 238.098,39.239 239.626,49.427 241.153,31.975    242.681,39.943 244.208,18.404 245.734,24.712 247.261,26.487 248.788,51.074 250.314,27.5 251.841,50.112 253.369,40.96    254.897,31.349 256.426,46.02 257.955,43.66 259.485,19.452 261.018,19.115 262.548,26.482 264.078,49.214 265.608,18.818    267.137,40.036 268.665,39.109 270.193,29.358 271.722,47.883 273.25,19.649 274.779,12.682 276.309,41.042 277.838,24.659    279.369,43.04 280.9,30.317 282.433,17.702 283.963,40.374 285.493,15.346 287.023,38.917 288.553,41.631 290.082,19.028    291.612,36.91 293.143,51.035 294.674,50.306 296.206,41.261 297.738,26.746 299.27,17.922 300.8,20.475 302.33,21.257    303.86,28.164 305.392,12.49 306.924,13.715 308.456,45.457 309.988,50.218 311.519,20.945 313.05,47.236 314.582,21.804    316.114,38.771 317.646,21.846 319.174,13.64 320.702,28.301 322.232,30.938 323.767,51.335 325.297,13.464 326.826,49.602    328.355,46.609 329.884,13.288 331.414,44.157 332.946,50.402 334.48,50.857 336.012,13.142 337.542,49.323 339.074,34.391    340.607,20.938 342.142,14.129 343.674,31.936 345.207,37.479 346.742,51.665 348.275,34.706 349.811,35.297 351.345,24.082    352.881,12.87 354.412,45.888 355.943,15.462 357.48,35.208 359.014,12.758 360.55,27.254 362.088,48.923 363.623,37.081    365.163,20.836 366.704,20.394 368.246,19.249 369.949,19.076 371.516,24.264 372.574,38.581 374.661,26.666 376.054,29.903    377.498,31.427 379.052,31.388 381.435,23.768 383.551,20.098 385.835,15.961 383.663,42.348 385.28,41.178 390.47,20.166    389.367,35.001 389.828,40.265 393.823,28.899 392.188,42.896 399.718,18.619 395.786,40.392 399.623,32.092 398.624,41.122    396.16,54.067 403.116,36.769 399.731,51.524 411.189,23.25 406.498,40.942 407.917,41.439 413.282,32.127 404.881,56.482    416.076,33.975 417.394,35.038 423.09,26.718 413.799,49.947 416.977,46.795 424.193,36.109 419.644,48.103 430.043,32.418    421.049,51.639 417.282,60.876 420.394,58.313 429.796,45.901 424.007,57.765 436.386,41.716 436.102,45.099 428.629,58.519    436.597,49.987 447.348,38.262 435.9,56.1 443.402,49.063 447.357,46.819 433.739,65.767 452.411,46.187 453.481,47.643    440.044,65.047 458.063,47.878 435.072,74.435 438.948,72.385 459.851,53.683 436.981,78.093 456.206,61.896 436.896,81.687    446.183,75.164 460.275,64.896 454.411,71.971 466.172,64.363 454.774,75.599 458.301,74.782 452.775,80.858 460.058,77.34    468.45,73.3 465.283,77.505 472.157,74.847 465.848,80.969 457.656,87.994 465.968,84.614 477.713,79.486 479.855,80.251    464.741,90.65 474.328,87.207 463.399,94.739 471.66,92.224 479.964,89.959 456.477,102.818 483.582,92.03 459.341,104.474    476.172,98.891 472.188,102.218 480.19,100.761 463.56,108.687 474.356,106.313 487.983,103.308 480.175,107.653 462.338,114.861    492.887,107.262 466.361,116.521 462.426,118.999 478.126,116.444 466.754,120.721 481.349,118.901 471.105,122.632    488.916,120.666 459.709,127.581 461.539,128.564 464.794,129.382 474.154,129.449 463.415,132.227 469.216,132.918    474.741,133.791 478.848,134.924 478.8,136.445 472.155,138.315 466.89,139.953 464.462,141.369 483.574,142.432 486.126,144.011    492.254,145.537 493.766,147.063 487.39,148.589 460.964,150.115 467.716,151.641 465.863,153.167 461.298,154.693 486.864,156.22    500.358,157.747 469.579,159.273 466.87,160.8 483.264,162.328 493.37,163.856 488.212,165.384 492.582,166.913 471.903,168.44    469.252,169.968 486.106,171.495 482.92,173.021 474.799,174.548 466.435,176.075 488.38,177.602 466.603,179.128 498.542,180.655    485.672,182.182 485.105,183.708 470.204,185.235 486.176,186.762 462.446,188.29 491.209,189.816 483.407,191.343    497.911,192.872 461.646,194.4 473.3,195.927 482.161,197.454 481.904,198.979 470.755,200.505 474.718,202.03 495.96,203.554    496.382,205.078 467.792,206.602 490.035,208.125 485.536,209.648 464.317,211.171 500.303,212.694 500.248,214.217    497.171,215.74 481.971,217.263 491.576,218.786 499.935,220.31 499.913,221.833 482.47,223.358 470.408,224.883 487.616,226.408    491.926,227.935 475.747,229.461 500.612,230.989 490.559,232.518 482.239,234.047 486.043,235.576 486.551,237.104    475.286,238.631 494.122,240.158 488.236,241.685 490.938,243.21 495.056,244.735 476.365,246.261 464.257,247.786    461.145,249.312 485.512,250.837 468.693,252.363 480.828,253.889 480.291,255.416 499.822,256.943 467.573,258.471 469.776,260    479.325,261.53 474.493,263.06 498.652,264.589 492.186,266.117 486.398,267.645 477.158,269.172 462.104,270.698 487.611,272.226    469.728,273.752 487.546,275.279 497.103,276.808 489.645,278.336 490.252,279.865 462.925,281.396 471.692,282.927    469.028,284.456 500.273,285.984 499.239,287.513 464.291,289.041 465.626,290.569 464.391,292.098 479.196,293.627    483.099,295.156 490.455,296.688 498.938,298.218 498.565,299.748 489.627,301.276 499.043,302.806 466.184,304.335    461.919,305.864 492.639,307.396 477.383,308.927 479.554,310.457 499.092,311.986 498.714,313.517 461.695,315.047    476.112,316.578 473.569,318.109 485.715,319.634 493.283,321.161 472.569,322.69 474.115,324.223 465.385,325.753 489.696,327.28    461.043,328.808 480.81,330.335 481.347,331.863 473.502,333.395 480.847,334.927 496.826,336.457 488.732,337.986    499.859,339.517 462.524,341.049 497.14,342.581 481.706,344.112 484.177,345.644 500.434,347.178 485.45,348.71 495.137,350.243    471.111,351.776 470.053,353.311 490.556,354.841 486.643,356.371 466.129,357.906 486.346,359.438 473.421,360.974    485.299,362.51 490.905,364.044 479.359,365.582 483.418,351.821  " style="fill:#00B670;"/><g><polygon points="178.76,359.245 291.847,359.19 291.828,335.513 178.76,335.567   " style="fill:#FFFFFF;"/><polygon points="325.12,119.986 344.441,229.196 368.246,225.137 348.925,115.927   " style="fill:#FFFFFF;"/><polygon points="294.555,305.161 181.962,294.995 179.767,318.582 292.351,328.747   " style="fill:#FFFFFF;"/><polygon points="301.992,274.279 192.804,245.505 186.537,268.356 295.707,297.135   " style="fill:#FFFFFF;"/><polygon points="316.246,247.205 218.859,190.891 206.572,211.278 303.987,267.587   " style="fill:#FFFFFF;"/><polygon points="256.46,152.385 320.18,243.951 340.134,230.622 276.422,139.038   " style="fill:#FFFFFF;"/><path d="M311.041,378.115H162.732v-96.796H143.41v115.354h0.201c0,0.091,5.636,0.091,5.636,0.091H330.18    v-0.091c0.183,0,0.183-5.521,0.183-5.521V281.319h-19.321V378.115z" style="fill:#FFFFFF;"/></g></g><g id="Layer_1"/></svg>