<?xml version="1.0" ?><!DOCTYPE svg  PUBLIC '-//W3C//DTD SVG 1.1//EN'  'http://www.w3.org/Graphics/SVG/1.1/DTD/svg11.dtd'><svg height="512px" style="enable-background:new 0 0 512 512;" version="1.1" viewBox="0 0 512 512" width="512px" xml:space="preserve" xmlns="http://www.w3.org/2000/svg" xmlns:xlink="http://www.w3.org/1999/xlink"><g id="social__x2C__media__x2C__social_media__x2C___twitter__x2C__2__x2C_"><polygon points="493.085,367.875 497.21,369.619 477.763,370.839 489.223,372.805 473.425,373.558    500.297,376.895 495.353,378.286 493.715,379.872 477.341,379.722 475.309,380.951 490.696,384.646 466.293,382.478    464.938,383.591 466.404,385.204 465.951,386.486 492.178,393.567 487.341,394.217 487.231,395.897 463.919,391.473    466.223,393.497 484.717,400.361 477.563,399.871 458.346,395.252 493.196,408.465 492.829,410.235 489.041,410.744    456.502,399.963 456.642,401.383 461.751,404.93 464.217,407.501 456.633,405.586 485.935,420.871 462.938,411.571    454.077,408.668 471.113,419.058 469.166,419.782 476.848,425.846 458.508,417.195 464.099,422.159 476.217,431.358    450.596,417.151 461.124,425.594 467.682,431.796 476.857,440.091 468.588,436.403 446.591,422.357 449.51,426.187 444.877,424.34    441.785,423.544 465.47,444.527 463.627,445.19 468.411,451.536 450.147,437.723 449.736,439.343 450.91,442.47 442.725,436.733    449.97,445.821 447.577,445.601 442.702,442.74 445.978,448.34 443.076,447.442 440.792,447.135 434.882,442.578 431.526,440.77    433.807,445.626 433.341,447.284 444.404,463.695 448.199,471.465 423.599,441.248 426.433,447.373 429.528,454.155    442.342,475.448 435.229,467.979 429.83,462.665 418.175,447.024 426.707,463.498 422.429,459.295 425.102,466.866    431.423,481.387 427.124,477.142 427.856,482.181 416.9,464.55 409.655,453.23 412.25,461.716 409.36,458.865 418.329,482.368    414.354,477.428 415.354,484.052 407.756,469.688 403.027,461.592 406.313,474.415 399.531,460.011 403.726,476.417    402.795,478.61 394.304,456.755 393.257,457.738 392.588,460.046 398.9,488.521 392.973,472.183 388.319,459.264 390.033,472.521    393.051,493.612 385.376,464.186 389.043,491.152 384.409,474.353 382.754,473.35 379.444,460.785 377.935,459.276    379.858,485.882 376.773,472.163 375.477,473.708 375.831,496.315 373.023,480.47 372.294,495.754 369.347,465.184 368.76,493.781    366.785,472.891 365.347,470.114 363.819,465.083 362.292,468.604 360.765,494.931 359.237,469.888 357.71,495.342    356.183,471.014 354.655,481.661 353.128,475.536 351.6,495.343 350.071,496.827 348.543,475.527 347.014,460.044 345.485,466.437    343.955,498.944 342.426,495.098 340.896,467.479 339.368,471.229 337.84,488.128 336.312,473.992 334.783,483.93 333.256,463.784    331.728,494.467 330.2,496.47 328.672,482.279 327.145,467.129 325.616,460.763 324.088,495.88 322.56,482.048 321.031,474.241    319.503,479.159 317.975,482.268 316.445,485.574 314.916,468.821 313.388,482.176 311.859,465.366 310.332,491.773    308.806,462.073 307.279,479.491 305.754,499.237 304.229,488.712 302.704,461.753 301.18,491.648 299.655,494.781    298.131,466.273 296.606,469.734 295.083,471.975 293.559,466.416 292.034,470.151 290.51,464.331 288.984,487.959 287.46,499.13    285.934,498.409 284.408,463.648 282.881,493.32 281.354,462.166 279.825,461.876 278.297,466.192 276.767,482.04 275.235,475.628    273.706,489.632 272.177,484.993 270.647,475.595 269.12,476.195 267.593,480.793 266.065,471.496 264.539,494.636    263.012,488.242 261.485,463.905 259.959,465.472 258.433,486.38 256.905,466.601 255.378,465.143 253.85,487.192 252.321,478.953    250.792,477.206 249.262,486.603 247.73,468.108 246.199,493.927 244.669,481.892 243.14,495.908 241.611,496.317 240.083,488.322    238.554,493.564 237.026,468.412 235.498,473.017 233.969,497.309 232.44,488.025 230.911,463.212 229.38,496.261 227.848,488.853    226.316,478.692 224.786,494.249 223.256,468.189 221.727,461.58 220.197,460.436 218.667,497.734 217.138,482.062    215.607,497.086 214.076,468.838 212.544,477.155 211.012,485.275 209.481,497.939 207.951,461.065 206.421,487.109    204.89,494.675 203.359,482.657 201.827,464.649 200.294,497.211 198.763,460.359 197.232,488.87 195.701,460.399 194.17,477.336    192.637,494.265 191.105,475.946 189.578,485.705 188.05,465.436 186.52,479.752 184.986,478.314 183.455,464.488 181.926,479.187    180.397,498.477 178.869,480.74 177.339,490.041 175.807,472.704 174.273,490.758 172.742,466.813 171.211,466.992 169.68,479.607    168.146,465.723 166.612,471.88 165.08,478.689 163.547,463.641 162.012,477.468 160.479,491.677 158.944,466.199 157.41,498.131    155.874,483.47 154.343,477.927 152.811,465.209 151.275,475.529 149.741,461.536 148.205,472.129 146.667,467.066    145.132,488.272 143.593,461.504 142.051,468.812 140.51,470.212 138.949,482.216 137.235,487.918 135.136,499.367 135.02,468.099    132.597,483.685 130.513,489.828 129.005,487.955 130.335,460.348 126.392,482.201 125.804,474.877 121.904,490.858    123.174,472.707 122.321,469.277 122.259,462.203 119.203,470.447 117.167,473.032 115.467,473.822 109.711,490.486    107.501,492.047 107.043,487.211 113.678,459.115 104.6,483.64 108.642,466.12 100.095,486.506 102.899,473.721 107.586,457.004    103.69,463.365 101.262,465.615 103.674,456.362 96.854,468.455 96.111,466.499 89.644,476.546 94.961,462.205 91.281,466.211    91.291,463.008 86.586,468.489 89.859,459.624 82.38,469.46 76.314,476.306 88.42,453.886 89.508,449.694 78.192,464.192    84.232,452.716 73.654,465.137 65.841,473.003 78.232,453.733 83.386,444.777 82.758,443.478 64.215,463.85 67.35,457.568    74.209,447.322 58.422,462.715 61.417,456.95 77.058,438.186 78.388,434.966 56.746,454.659 54.164,454.843 66.993,440.517    59.357,445.546 61.69,441.415 57.957,442.672 43.029,453.145 41.906,451.768 66.077,430.397 60.395,433.066 48.168,440.413    43.533,441.765 55.152,431.536 65.011,423.03 38.877,438.794 56.579,425.381 50.537,427.491 49.183,426.564 57.264,420.083    60.021,416.967 32.565,430.56 39.341,424.999 33.813,426.035 40.644,420.76 30.728,423.785 39.433,417.868 30.074,420.344    49.76,410.01 25.968,418.392 21.083,418.467 44.138,407.696 44.2,406.125 37.356,407.014 27.817,408.621 43.435,401.825    42.131,400.727 53.922,395.754 39.871,398.355 38.744,397.135 27.37,398.472 16.408,399.404 36.39,393.119 27.315,393.492    29.299,391.459 29.058,389.893 21.573,389.55 32.001,386.237 48.388,382.356 15.653,385.239 46.883,379.881 29.68,380.303    43.51,377.504 36.181,376.687 46.757,374.547 46.942,373.198 35.761,372.293 50.979,370.434 42.933,369.259 12.386,367.875    38.629,366.349 47.561,364.822 23.946,363.297 45.129,361.771 19.267,360.244 11.747,358.718 12.699,357.191 45.775,355.665    42.489,354.138 34.379,352.611 23.378,351.084 32.25,349.556 45.009,348.028 27.199,346.5 25.341,344.972 44.452,343.443    28.908,341.916 22.261,340.389 13.346,338.861 21.755,337.335 43.239,335.808 48.462,334.281 22.693,332.754 37.025,331.228    22.402,329.701 38.937,328.174 28.056,326.647 50.836,325.12 50.107,323.594 43.075,322.067 44.721,320.54 49.7,319.012    37.596,317.483 36.876,315.956 11.005,314.43 12.01,312.903 24.929,311.378 45.432,309.853 50.601,308.328 45.488,306.805    14.07,305.28 31.259,303.757 13.576,302.233 19.843,300.711 22.515,299.188 22.246,297.665 14.818,296.142 38.438,294.618    26.21,293.095 12.948,291.571 28.631,290.048 32.665,288.522 40.531,286.998 33.016,285.473 18.262,283.946 22.837,282.419    48.042,280.891 36.451,279.362 19.106,277.832 49.287,276.304 21.822,274.775 45.5,273.248 14.315,271.722 37.455,270.195    33.075,268.669 42.888,267.144 21.604,265.618 40.725,264.093 11.779,262.567 46.178,261.042 29.95,259.516 44.733,257.989    29.155,256.463 17.969,254.936 44.988,253.407 16.913,251.878 30.663,250.348 45.729,248.818 41.816,247.289 25.027,245.76    48.302,244.232 44.958,242.706 43.975,241.178 28.429,239.651 20.959,238.124 19.49,236.597 47.348,235.069 45.815,233.54    11.552,232.011 12.636,230.48 47.732,228.95 23.205,227.42 29.719,225.891 22.937,224.363 50.842,222.834 25.915,221.306    48.806,219.778 18.282,218.249 43.467,216.718 38.253,215.187 25.901,213.657 42.139,212.127 44.565,210.598 34.71,209.068    33.668,207.539 25.63,206.009 15.023,204.478 46.379,202.947 32.719,201.417 19.238,199.887 24.839,198.357 46.362,196.827    33.295,195.295 17.846,193.764 16.475,192.238 17.904,190.711 14.983,189.182 12.913,187.649 43.139,186.12 29.03,184.591    33.237,183.064 45.492,181.537 40.72,180.008 37.386,178.477 41.443,176.944 13.853,175.414 12.177,173.885 49.096,172.354    17.278,170.822 49.494,169.29 43.07,167.758 35.33,166.226 42.13,164.692 15.219,163.16 27.018,161.626 30.371,160.093    42.289,158.559 19.116,157.029 39.849,155.499 14.911,153.963 40.709,152.431 18.116,150.896 41.146,149.359 48.329,147.825    28.058,146.287 44.927,144.747 41.986,143.206 13.712,141.46 21.854,139.916 12.167,137.889 17.752,136.403 39.538,136.084    22.523,133.354 27.255,132.125 24.267,130.223 41.101,130.527 34.343,128.235 51.454,129.14 36.312,125.503 46.216,125.673    21.829,119.855 38.799,121.467 47.826,121.87 29.37,116.375 46.866,118.885 24.905,111.97 32.618,112.297 34.756,111.272    23.693,106.414 22.853,104.374 20.821,101.915 38.953,106.195 41.774,105.596 38.573,102.846 53.38,106.894 48.128,103.375    37.238,97.339 24.125,89.976 44.777,97.275 42.733,94.7 58.908,100.797 59.536,99.672 35.12,85.67 58.727,96.351 49.584,89.828    38,81.572 54.988,89.61 41.826,80.016 47.97,81.938 55.552,84.987 36.162,70.439 37.028,68.903 64.004,85.708 38.602,65.694    40.677,65.03 69.236,84.732 49.757,67.735 54.746,69.691 48.327,62.294 47.786,59.604 61.664,69.573 46.001,53.33 47.559,52.309    50.487,52.632 74.254,73.686 72.232,69.746 69.265,64.654 56.777,49.06 59.151,49.104 64.096,52.139 81.882,70.499 60.065,42.146    74.628,57.412 73.914,54.09 70.602,47.199 85.658,64.893 83.502,59.648 78.187,49.556 82.07,52.57 78.233,43.984 80.433,44.458    87.575,53.101 92.215,58.137 82.542,38.577 89.767,48.239 87.911,41.66 82.713,28.201 90.144,39.129 89.67,34.491 99.33,51.42    102.956,56.192 99.751,45.477 98.64,39 106.941,55.8 106.838,51.993 105.327,43.958 104.671,37.69 104.512,32.368 111.115,48.025    109.421,37.659 115.696,54.264 111.66,34.436 114.528,39.509 112.471,24.598 118.706,44.845 115.032,20.542 119.679,35.481    118.237,19.032 122.708,35.474 122.802,26.137 127.582,49.165 128.325,44.626 127.717,26.479 129.038,23.447 130.399,19.904    133.494,40.77 134.579,34.807 135.572,22.574 137.809,44.649 139.165,45.015 140.51,11.036 142.037,18.078 143.564,42.799    145.092,40.128 146.619,17.642 148.146,30.019 149.674,26.512 151.201,24.354 152.729,38.663 154.257,35.415 155.785,20.562    157.313,11.546 158.842,48.349 160.372,42.625 161.901,47.343 163.431,43.484 164.959,27.602 166.488,22.792 168.017,16.977    169.545,38.868 171.073,37.373 172.601,32.241 174.129,21.15 175.657,42.555 177.185,37.598 178.712,39.476 180.24,29.35    181.769,18.766 183.297,40.436 184.825,30.558 186.353,46.281 187.882,32.055 189.411,46.557 190.94,26.574 192.469,49.204    193.997,39.725 195.524,33.214 197.051,26.975 198.577,43.957 200.103,19.517 201.628,42.884 203.152,32.518 204.677,38.369    206.202,16.255 207.726,41.183 209.25,41.571 210.774,31.884 212.298,31.24 213.822,32.838 215.347,13.526 216.872,20.074    218.397,18.121 219.922,24.461 221.449,13.072 222.976,32.845 224.503,29.005 226.031,42.862 227.56,49.075 229.09,45.049    230.621,14.551 232.151,37.657 233.68,21.821 235.208,18.284 236.737,41.795 238.264,36.936 239.791,12.365 241.318,32.604    242.844,33.464 244.371,24.708 245.897,47.744 247.424,46.909 248.951,32.517 250.479,28.916 252.006,15.792 253.535,46.743    255.064,15.679 256.595,48.727 258.126,23.322 259.657,38.281 261.188,19.711 262.717,29.882 264.245,31.413 265.773,47.234    267.302,44.147 268.83,36.844 270.358,21.56 271.887,21.411 273.416,14.283 274.946,30.479 276.477,46.422 278.009,35.724    279.54,28.151 281.07,40.054 282.601,18.949 284.13,18.349 285.659,11.211 287.189,18.258 288.719,33.605 290.249,36.821    291.78,42.545 293.313,48.054 294.845,33.448 296.375,42.786 297.905,36.272 299.436,30.03 300.967,16.827 302.497,34.189    304.029,41.958 305.562,39.097 307.094,37.439 308.624,13.633 310.155,47.755 311.687,39.194 313.22,31.484 314.752,21.647    316.278,30.021 317.807,24.821 319.337,45.701 320.871,23.637 322.401,13.183 323.931,38.096 325.459,19.982 326.988,49.257    328.518,43.579 330.05,50.112 331.584,18.38 333.115,42.952 334.646,41.034 336.177,35.361 337.711,22.202 339.244,24.418    340.776,31.918 342.31,27.928 343.845,18.962 345.378,17.745 346.913,47.453 348.447,48.249 349.982,20.967 351.514,27.966    353.045,30.978 354.582,49.155 356.115,27.231 357.651,43.792 359.189,37.976 360.725,49.983 362.264,42.518 363.805,25.258    365.347,32.569 366.652,47.459 367.964,47.278 370.561,15.163 370.746,44.394 372.902,32.358 374.421,32.335 377.753,12.854    377.792,29.26 380.479,19.979 380.664,31.316 382.62,28.575 382.845,37.139 386.671,23.667 387.933,25.906 386.978,38.874    389.749,32.882 389.584,40.5 396.846,16.68 397.617,20.781 391.492,49.962 401.568,19.405 393.798,51.475 404.989,20.152    404.073,28.575 404.932,31.123 404.693,36.588 404.894,40.483 405.073,44.169 412.576,29.36 403.813,54.771 416.229,29.316    420.379,24.157 413.526,43.186 410.942,52.092 417.38,42.189 409.751,60.53 421.195,41.551 427.02,34.121 412.967,62.693    431.792,32.625 416.829,61.188 422.289,54.795 419.894,61.277 432.896,43.676 425.156,58.222 427.547,57.226 431.054,54.747    422.697,68.828 441.853,45.204 432.309,60.472 442.297,50.065 447.203,46.559 441.954,55.583 442.609,57.232 451.274,49.654    437.712,67.383 452.275,53.604 456.054,52.033 450.471,60.296 459.729,53.225 444.954,70.184 456.97,60.695 443.29,75.714    450.042,71.457 463.867,61.208 463.74,63.596 447.119,79.735 467.825,64.634 443.189,86.405 459.646,75.323 446.045,87.49    470.913,70.935 467.672,75.338 453.262,87.295 463.277,82.243 458.644,87.102 455.697,90.68 476.477,79.554 479.916,79.508    452.107,97.563 472.667,87.576 451.816,100.689 460.685,97.48 471.594,93.534 464.66,98.66 488.182,89.174 480.373,94.681    454.904,107.659 466.688,104.063 455.53,110.155 462.682,108.703 480.778,103.414 471.441,108.47 490.014,103.7 493.868,104.286    482.17,109.785 482.422,111.393 487.673,111.611 467.69,118.603 496.16,112.965 461.922,122.777 482.512,119.617 464.336,124.918    475.133,124.231 487.273,123.613 461.822,129.308 498.264,125.337 480.826,129.408 486.782,130.271 481.998,132.381    495.304,132.794 469.139,136.401 499.278,136.054 494.069,138.069 464.041,140.621 480.908,141.679 473.163,143.206    475.349,144.732 464.268,146.258 468.5,147.785 482.146,149.311 461.38,150.837 466.292,152.363 467.944,153.89 473.671,155.416    478.884,156.943 465.198,158.47 494.711,159.998 480.247,161.525 488.354,163.053 472.291,164.582 479.665,166.11 485.707,167.638    462.162,169.165 463.885,170.692 500.869,172.22 476.971,173.747 464.191,175.273 468.887,176.8 467.62,178.327 472.767,179.853    497.356,181.38 476.462,182.907 473.023,184.434 500.547,185.961 465.271,187.489 465.014,189.015 491.31,190.543 472.854,192.071    494.313,193.599 473.758,195.127 476.192,196.653 494.405,198.18 482.301,199.705 498.119,201.23 496.468,202.754 471.116,204.278    480.098,205.802 490.196,207.326 485.144,208.849 472.333,210.372 492.331,211.895 485.578,213.418 478.34,214.941    477.518,216.464 463.514,217.987 497.709,219.511 480.181,221.035 478.631,222.56 475.803,224.084 481.104,225.61 469.978,227.136    489.483,228.664 484.645,230.191 484.635,231.72 487.916,233.25 473.268,234.779 498.569,236.307 496.144,237.834 475.506,239.361    499.563,240.887 489.372,242.413 499.634,243.939 487.06,245.464 462.033,246.99 498.932,248.515 486.291,250.041 468.413,251.566    468.081,253.093 468.922,254.62 500.588,256.147 499.195,257.675 471.706,259.204 499.668,260.734 462.695,262.265    494.828,263.793 500.806,265.321 464.383,266.85 488.508,268.377 464.567,269.903 490.197,271.431 485.063,272.958    488.461,274.485 481.8,276.014 471.583,277.542 476.247,279.071 486.445,280.602 462.855,282.133 491.714,283.662 462.944,285.19    480.054,286.719 470.587,288.247 490.017,289.775 478.936,291.305 483.389,292.833 478.962,294.363 466.913,295.895    471.712,297.426 493.714,298.955 474.929,300.484 494.107,302.014 500.33,303.543 463.176,305.072 473.787,306.604 498.06,308.135    492.365,309.665 496.858,311.195 484.334,312.725 487.921,314.256 486.305,315.787 478.404,317.318 480.017,318.844    479.176,320.37 465.536,321.9 464.484,323.433 492.357,324.962 464.231,326.49 470.263,328.018 489.326,329.545 482.896,331.073    481.211,332.604 493.529,334.137 480.582,335.667 469.884,337.197 492.194,338.727 487.66,340.26 487.766,341.792 486.016,343.323    482.181,344.855 467.333,346.389 484.533,347.921 483.406,349.455 489.985,350.988 475.538,352.522 466.02,354.053    482.097,355.583 462.341,357.118 478.677,358.65 462.524,360.186 478.313,361.722 482.468,363.256 477.061,364.794    478.471,376.254  " style="fill:#00ABE3;"/><g><path d="M385.702,147.356c-11.143,6.509-23.493,11.227-36.631,13.768    c-10.502-11.025-25.488-17.918-42.084-17.918c-31.837,0-57.654,25.396-57.654,56.736c0,4.442,0.513,8.757,1.482,12.908    c-47.92-2.358-90.407-24.939-118.85-59.258c-4.958,8.374-7.813,18.119-7.813,28.523c0,19.673,10.201,37.025,25.662,47.191    c-9.441-0.292-18.343-2.834-26.119-7.076c0,0.22,0,0.476,0,0.713c0,27.462,19.88,50.386,46.265,55.615    c-4.849,1.299-9.936,1.993-15.205,1.993c-3.714,0-7.319-0.365-10.85-1.024c7.355,22.526,28.635,38.928,53.867,39.385    c-19.743,15.212-44.59,24.28-71.625,24.28c-4.666,0-9.24-0.273-13.759-0.785c25.534,16.089,55.853,25.469,88.403,25.469    c106.069,0,164.053-86.409,164.053-161.37c0-2.45-0.037-4.9-0.146-7.332c11.252-7.99,21.042-17.992,28.763-29.365    c-10.338,4.517-21.443,7.552-33.118,8.923C372.254,171.711,381.384,160.612,385.702,147.356z" style="fill:#FFFFFF;"/></g></g><g id="Layer_1"/></svg>