<?xml version="1.0" ?><!DOCTYPE svg  PUBLIC '-//W3C//DTD SVG 1.1//EN'  'http://www.w3.org/Graphics/SVG/1.1/DTD/svg11.dtd'><svg height="512px" style="enable-background:new 0 0 512 512;" version="1.1" viewBox="0 0 512 512" width="512px" xml:space="preserve" xmlns="http://www.w3.org/2000/svg" xmlns:xlink="http://www.w3.org/1999/xlink"><g id="social__x2C__media__x2C__social_media__x2C___wordpress__x2C_"><polygon points="465.099,368.68 498.013,370.446 477.015,371.653 478.656,373.207 489.86,375.319    485.654,376.702 473.29,377.313 464.979,377.972 487.35,381.735 471.891,381.495 477.39,383.685 477.954,385.289 463.184,384.4    465.836,386.208 483.626,391.012 478.858,391.665 477.176,392.873 487.093,396.771 466.959,393.454 479.872,398.319    479.025,399.719 494.041,405.792 487.622,405.68 481.786,405.572 487.229,409.153 469.998,404.837 455.647,401.085    461.325,404.647 468.311,408.927 484.5,417.306 476.191,415.573 469.659,414.382 465.252,413.992 476.819,421.235 454.822,412.015    477.876,425.504 467.295,421.726 458.667,418.687 468.6,426.013 453.777,419.07 480.742,437.127 453.827,422.298 467.694,432.94    472.569,438.139 455.977,428.807 467.403,438.685 474.882,446.175 454.592,433.213 456.2,436.315 451.619,434.616 440.485,427.395    462.859,447.826 447.706,436.995 438.336,430.612 457.907,450.163 439.394,435.092 455.783,452.7 445.789,445.154 456.776,458.413    437.49,440.8 451.355,457.658 455.436,464.621 443.192,453.441 454.489,468.944 444.497,459.822 444.155,461.965 441.657,461.456    448.861,473.48 438.641,462.817 440.225,467.734 443.479,475.249 432.427,462.275 433.941,467.343 433.261,469.272    420.031,451.276 434.148,477.016 434.634,481.248 417.351,454.629 432.233,484.283 423.084,471.039 423.07,474.462    416.942,465.869 409.04,452.968 419.203,477.716 415.484,473.466 406.9,457.666 407.579,462.692 417.554,491.228 401.624,454.964    413.158,489.755 408.437,481.744 401.917,467.642 405.762,484.117 405.67,489.409 402.622,485.184 394.662,462.877    398.581,482.901 399.353,492.657 390.998,464.774 389.137,462.585 389.707,471.858 386.429,462.44 387.467,475.693    388.957,493.901 383.676,470.404 382.583,472.818 384.399,499.556 378.377,460.71 379.582,486.848 376.677,471.007    375.171,469.569 374.144,476.291 373.367,493.717 371.229,477.559 369.844,485.513 368.246,480.12 366.719,495.169    365.191,461.232 363.664,492.6 362.137,474.941 360.609,493.401 359.082,482.181 357.555,476.172 356.027,484.852 354.499,497.946    352.971,486.21 351.442,492.091 349.914,462.045 348.385,465.868 346.854,472.132 345.325,468.374 343.797,474.681    342.268,478.698 340.739,492.811 339.211,493.95 337.683,486.526 336.155,482.132 334.627,491.271 333.1,490.904 331.571,499.82    330.044,494.894 328.516,473.116 326.987,466.494 325.459,492.582 323.931,492.97 322.402,496.546 320.874,481.189 319.345,481.62    317.815,475.503 316.287,461.172 314.759,488.962 313.231,462.504 311.705,478.559 310.179,496.944 308.653,466.101    307.128,477.727 305.604,483.044 304.079,494.382 302.555,464.796 301.03,484.329 299.506,463.008 297.982,497.395    296.458,487.728 294.934,472.23 293.409,480.6 291.884,499.924 290.359,499.928 288.833,464.498 287.308,473.89 285.78,487.672    284.253,474.156 282.725,490.836 281.196,483.859 279.666,466.148 278.135,466.047 276.605,485.512 275.076,486.765    273.547,476.308 272.02,495.261 270.492,481.004 268.965,498.145 267.438,498.997 265.911,468.902 264.385,488.586    262.858,474.721 261.332,489.498 259.805,483.474 258.277,477.118 256.75,480.441 255.221,483.391 253.692,461.563    252.162,481.307 250.63,482.903 249.099,495 247.569,499.575 246.04,490.638 244.511,486.434 242.982,469.653 241.454,482.71    239.926,470.292 238.398,488.043 236.869,491.047 235.34,463.469 233.811,485.248 232.28,482.532 230.748,464.906 229.216,479.92    227.686,478.843 226.156,482.987 224.626,480.254 223.097,469.974 221.567,477.029 220.038,462.906 218.507,469.482    216.976,477.938 215.444,489.602 213.912,466.232 212.381,488.521 210.851,489.584 209.321,479.602 207.791,471.517    206.259,478.325 204.727,491.967 203.195,472.205 201.663,496.463 200.132,468.94 198.602,494.274 197.07,494.285 195.537,489.142    194.005,487.401 192.479,465.939 190.95,495.947 189.419,492.063 187.886,490.702 186.355,488.268 184.826,465.256    183.297,465.415 181.769,465.102 180.239,475.813 178.707,487.429 177.173,495.672 175.642,493.002 174.111,483.813    172.58,479.707 171.046,495.856 169.513,488.654 167.98,477.837 166.447,473.217 164.912,483.693 163.379,483.948 161.844,461.983    160.31,492.998 158.774,463.896 157.243,485.523 155.711,481.839 154.175,467.502 152.641,480.844 151.105,464.463 149.568,478.44    148.032,498.809 146.493,467.91 144.952,499.816 143.41,469.512 141.821,484.743 139.841,499.626 138.958,477.105 137.641,474.063    136.871,464.088 134.837,472.914 132.427,483.183 129.354,496.93 130.067,476.563 130.256,464.214 123.712,498.96 126.594,470.155    125.429,468.717 124.25,467.49 117.949,491.198 122.133,464.306 118.142,475.433 115.33,480.506 118.144,463.691 114.83,470.576    107.269,491.197 107.036,485.985 105.098,486.542 109.695,467.722 109.797,463.172 97.902,491.328 100.337,480.067    103.713,467.286 96.138,481.646 103.717,459.973 99.763,465.458 100.662,460.111 89.961,479.04 88.65,477.933 91.074,469.616    89.264,469.703 86.027,472.317 81.648,476.704 87.379,463.658 92.938,451.637 81.02,468.119 73.274,477.152 76.331,469.381    89.424,447.381 78.408,460.713 76.856,460.229 74.66,460.583 76.38,455.778 64.884,467.895 79.36,447.352 78.357,446.396    59.619,466.05 69.583,452.143 58.865,461.684 75.352,441.501 76.95,437.856 72.575,440.439 76.945,434.188 72.073,437.104    59.903,446.628 68.898,436.337 58.714,443.514 57.806,442.259 59.113,439.151 56.03,439.729 46.801,445.085 39.921,448.268    59.35,431.48 61.704,427.989 37.626,443.347 59.596,426.084 36.999,439.508 64.945,419.333 60.378,420.688 40.525,431.229    57.145,419.501 49.698,422.186 29.988,431.438 47.57,419.979 58.55,412.59 57.114,411.861 32.804,422.198 36.379,418.67    45.326,412.86 36.041,415.3 41.644,411.217 37.41,411.302 29.846,412.56 26.431,412.05 34.408,407.405 26.828,408.311    39.726,402.356 34.363,402.461 30.548,401.96 26.169,401.519 50.27,393.409 23.934,398.646 20.389,397.756 32.67,393.269    15.212,395.303 35.063,389.653 26.034,389.735 15.455,389.828 50.588,382.747 47.761,381.846 22.477,383.609 24.557,381.711    43.526,378.273 41.458,377.068 42.683,375.583 35.699,374.578 21.948,373.653 31.287,371.746 28.36,370.252 39.945,368.68    17.81,367.153 26.108,365.627 34.266,364.102 44.556,362.575 50.639,361.049 35.99,359.522 23.508,357.996 21.014,356.47    21.279,354.942 39.901,353.416 25.854,351.889 19.09,350.36 38.208,348.833 40.929,347.304 12.854,345.776 45.586,344.248    40.18,342.721 38.379,341.193 23.968,339.666 46.907,338.14 39.209,336.612 45.46,335.086 17.329,333.559 34.055,332.032    47.547,330.506 21.283,328.979 18.853,327.452 48.805,325.925 12.371,324.398 45.887,322.872 43.472,321.345 49.781,319.816    21.983,318.288 47.067,316.761 42.213,315.234 17.222,313.708 27.22,312.183 47.763,310.657 28.894,309.133 35.175,307.609    21.869,306.085 42.727,304.562 40.181,303.038 49.83,301.516 45.797,299.992 33.245,298.47 42.744,296.946 22.807,295.423    34.583,293.899 48.656,292.376 41.288,290.853 18.111,289.327 39.374,287.803 43.423,286.277 21.178,284.751 21.49,283.224    40.724,281.695 18.486,280.167 19.432,278.637 30.98,277.108 40.177,275.58 15.678,274.053 37.825,272.525 17.373,271    13.325,269.474 13.928,267.948 11.843,266.423 13.35,264.897 48.104,263.372 16.014,261.847 29.26,260.32 50.041,258.794    12.075,257.268 34.617,255.74 12.058,254.211 39.748,252.682 32.44,251.152 26.41,249.622 15.472,248.093 43.603,246.565    12.537,245.037 42.959,243.51 37.885,241.983 22.889,240.456 28.58,238.929 47.157,237.401 15.332,235.874 32.788,234.345    30.369,232.815 23.968,231.285 14.372,229.754 37.29,228.225 49.748,226.696 34.208,225.167 17.06,223.639 24.042,222.111    20.536,220.582 40.121,219.053 31.781,217.523 37.849,215.991 13.707,214.461 31.517,212.931 43.697,211.402 11.616,209.873    31.537,208.344 41.189,206.813 18.547,205.283 13.443,203.751 44.495,202.221 18.386,200.691 33.568,199.161 28.662,197.631    14.617,196.1 29.087,194.568 29.256,193.043 15.524,191.516 29.124,189.986 31.808,188.454 15.76,186.924 33.33,185.396    47.995,183.869 17.72,182.341 27.612,180.813 21.711,179.282 29.313,177.749 43.809,176.219 20.584,174.689 29.854,173.159    16.067,171.626 27.823,170.094 44.398,168.563 34.381,167.031 28.202,165.497 33.792,163.965 45.044,162.431 24.657,160.898    23.642,159.363 36.807,157.833 30.458,156.303 14.27,154.768 12.067,153.235 15.882,151.7 33.309,150.164 17.432,148.629    25.151,147.091 43.595,145.551 44.652,144.011 49.065,142.717 27.09,140.835 21.374,139.017 32.341,137.936 27.513,136.088    29.244,134.637 48.911,134.931 17.578,130.225 37.76,130.95 51.712,131.382 36.766,127.862 42.902,127.376 35.34,124.614    38.06,123.61 30.359,120.519 48.125,122.835 47.974,121.428 42.612,118.708 15.516,110.053 43.714,116.076 37.173,112.671    40.344,112.072 30.379,107.283 38.244,108.244 31.179,104.122 36.136,104.225 41.669,104.692 33.285,99.706 55.46,107.25    23.065,91.719 41.629,98.141 56.103,103.244 46.059,96.904 26.052,85.199 58.854,100.227 41.715,89.541 33.177,82.993    29.31,78.806 48.936,88.324 49.478,86.9 51.164,86.187 48.257,82.53 65.07,91.898 47.296,78.114 53.164,80.32 44.11,71.857    60.768,82.248 66.134,84.607 40.334,62.449 62.652,78.334 64.479,78.005 56.379,69.17 49.409,60.907 50.687,59.755 65.212,70.995    56.229,60.335 72.977,74.558 65.859,65.406 56.607,53.573 53.47,47.702 72.287,65.756 79.988,72.29 81.033,71.487 59.917,44.212    68.519,51.967 65.603,45.673 76.714,57.308 81.866,61.706 85.868,64.82 72.341,43.347 84.811,58.547 76.543,43.587 78.958,44.286    91.985,61.993 75.986,33.159 89.472,52.533 84.231,40.446 80.449,30.244 81.849,29.103 90.467,41.855 85.471,28.392 90.951,35.642    102.904,57.343 103.083,54.537 102.768,50.469 98.101,35.693 94.692,22.904 96.438,22.474 98.512,22.961 110.529,51.537    110.056,45.982 108.814,37.574 107.385,27.779 110.47,32.376 108.553,19.608 110.14,18.69 119.843,50.211 120.019,45.192    118.556,32.143 118.473,24 122.198,34.497 121.597,22.431 126.762,43.507 125.47,25.519 128.808,37.903 128.708,25.012    130.594,27.22 134.178,48.007 135.106,43.179 136.454,42.584 137.944,44.356 138.778,31.154 140.319,31.058 141.857,30.42    143.41,47.963 144.938,38.327 146.465,43.527 147.992,18.21 149.519,43.968 151.046,30.459 152.574,12.78 154.102,51.629    155.629,22.166 157.157,36.251 158.686,35.404 160.214,30.258 161.743,43.405 163.272,13.349 164.801,29.813 166.331,45.394    167.86,12.127 169.388,34.006 170.917,16.212 172.445,41.999 173.973,43.36 175.501,49.199 177.029,37.759 178.557,48.405    180.084,32.746 181.612,24.851 183.14,41.653 184.668,37.503 186.197,18.375 187.726,23.926 189.253,18.898 190.782,23.157    192.312,23.167 193.841,28.114 195.369,41.487 196.897,15.617 198.424,46.543 199.951,32.887 201.477,15.746 203.002,39.659    204.528,14.143 206.053,49.665 207.577,30.623 209.102,39.195 210.626,34.352 212.15,28.831 213.674,39.632 215.198,32.152    216.723,50.359 218.247,17.373 219.772,35.219 221.297,19.298 222.823,36.524 224.349,44.871 225.875,14.308 227.403,50.832    228.931,27.786 230.46,51.594 231.99,13.767 233.521,34.431 235.051,50.866 236.58,32.46 238.109,34.538 239.637,48.564    241.164,46.023 242.691,30.615 244.218,13.197 245.745,24.752 247.271,48.106 248.797,34.352 250.324,19.686 251.851,42.602    253.378,35.644 254.906,51.149 256.435,39.961 257.965,21.292 259.495,36.745 261.026,12.572 262.558,42.318 264.087,51.312    265.616,20.532 267.146,23.78 268.674,46.135 270.202,30.176 271.73,42.89 273.259,51.391 274.787,11.789 276.316,45.882    277.846,15.235 279.377,43.453 280.908,30.503 282.439,11.839 283.971,45.11 285.5,15.284 287.03,32.844 288.56,37.05    290.089,37.301 291.618,14.92 293.148,14.664 294.68,35.25 296.213,24.271 297.744,21.912 299.275,39.203 300.806,16.816    302.336,34.626 303.866,13.234 305.397,14.112 306.929,47.125 308.462,48.386 309.993,50.074 311.523,22.161 313.055,35.167    314.586,47.796 316.119,19.195 317.651,44.343 319.178,16.144 320.706,32.446 322.236,42.693 323.771,14.178 325.301,11.787    326.83,47.429 328.358,29.834 329.888,41.932 331.417,12.177 332.949,13.286 334.483,24.774 336.015,27.481 337.545,42.786    339.076,46.524 340.61,23.875 342.144,20.645 343.676,20.503 345.209,19.405 346.744,36.377 348.277,27.646 349.813,42.41    351.347,47.801 352.882,22.201 354.413,22.521 355.944,51.019 357.48,15.826 359.015,40.583 360.551,22.195 362.089,39.764    363.624,26.043 365.163,43.335 366.704,23.971 368.246,22.464 369.617,43.945 370.921,46.5 373.153,24.298 373.368,50.669    376.335,25.719 377.268,34.257 378.486,37.35 381.586,22.366 381.467,37.122 381.479,47.945 382.229,51.901 384.649,45.022    391.567,14.014 392.94,16.41 388.501,46.705 395.654,20.628 395.282,29.747 400.315,16.243 395.709,40.668 395.474,46.953    397.534,44.823 399.635,42.799 408.641,19.742 404.652,37.038 404.998,40.676 412.418,24.991 411.471,32.238 405.27,52.029    416.936,27.661 405.865,57.447 420.104,29.017 413.094,48.081 420.202,36.726 421.985,36.814 423.814,36.838 423.139,41.592    428.756,34.725 423.587,47.198 419.643,56.877 417.021,63.836 432.104,42.231 423.655,58.31 429.17,52.545 437.604,42.908    427.9,59.542 443.639,40.315 443.198,43.818 427.084,67.563 440.4,52.856 447.801,46.273 448.855,47.707 444.645,55.223    445.586,56.569 455.294,48.266 457.28,48.716 434.066,75.509 449.707,61.469 452.047,61.387 451.453,64.186 448.616,68.996    463.887,57.118 457.159,65.445 464.006,61.682 451.168,74.69 455.641,72.948 457.012,73.825 473.101,63.37 473.054,65.671    462.925,75.251 456.224,81.954 448.918,88.763 445.31,92.776 460.359,84.527 470.661,79.824 451.01,93.742 456.682,91.914    451.425,96.542 482.7,80.677 464.892,92.278 465.191,93.807 467.127,94.505 483.943,88.031 479.531,92.03 458.809,103.237    472.168,98.892 483.272,95.916 456.518,108.525 474.144,103.101 475.484,104.257 457.978,112.139 490.412,102.48 472.305,110.213    489.742,106.372 476.246,112.163 493.585,108.913 495.507,110.229 480.242,115.917 493.224,114.466 461.532,123.293    470.302,122.798 493.473,119.789 460.945,127.36 478.681,125.747 468.105,128.884 476.226,129.167 493.306,128.579 492.77,130.353    498.864,131.502 472.461,135.436 487.82,135.833 491.094,137.303 464.182,140.062 469.126,141.245 491.557,142.329    478.421,144.011 480.371,145.537 469.497,147.063 478.622,148.589 488.498,150.115 467.349,151.642 491.422,153.168    473.431,154.694 491.078,156.221 474.623,157.748 479.261,159.275 469.618,160.802 476.758,162.33 484.516,163.858    462.072,165.386 491.15,166.915 460.991,168.442 487.543,169.97 468.608,171.497 481.104,173.024 488.006,174.551 486.227,176.078    490.482,177.604 484.584,179.131 496.036,180.658 463.669,182.185 484.795,183.711 492.03,185.239 485.141,186.766    493.161,188.293 467.461,189.82 489.162,191.348 488.855,192.876 465.024,194.404 488.482,195.932 479.813,197.458    470.907,198.984 487.004,200.51 500.432,202.035 467.914,203.559 488.273,205.083 474.396,206.607 471.387,208.13 484.857,209.653    481.805,211.177 466.217,212.7 473.572,214.223 488.508,215.746 475.692,217.269 463.62,218.792 498.945,220.316 500.099,221.84    466.996,223.364 486.834,224.889 492.988,226.415 485.272,227.941 466.511,229.468 486.866,230.996 477.961,232.525    465.519,234.055 492.211,235.583 488.225,237.112 496.852,238.639 486.236,240.166 496.517,241.692 478.905,243.218    489.273,244.744 487.697,246.269 468.648,247.794 463.889,249.32 470.574,250.845 465.151,252.371 493.302,253.897    478.408,255.424 485.398,256.952 484.323,258.48 486.896,260.009 497.234,261.539 466.948,263.069 498.533,264.599    472.665,266.127 476.216,267.654 473.198,269.182 493.74,270.709 475.816,272.235 462.354,273.763 471.316,275.29 467.685,276.818    500.021,278.347 488.621,279.876 461.532,281.407 489.469,282.938 466.476,284.467 469.813,285.996 471.717,287.524    465.729,289.053 496.807,290.58 495.656,292.109 493.909,293.639 499.744,295.169 461.031,296.7 497.43,298.23 494.046,299.76    469.645,301.289 491.878,302.818 484.365,304.348 486.149,305.878 472.045,307.408 466.646,308.939 486.049,310.47 482.212,312    477.293,313.53 477.933,315.061 477.095,316.592 469.039,318.123 482.624,319.648 494.4,321.176 500.334,322.705 463.292,324.237    469.448,325.767 472.904,327.295 464.768,328.822 475.987,330.35 491.036,331.878 483.182,333.409 474.54,334.941 477.692,336.472    476.832,338.002 466.371,339.531 485.169,341.064 475.682,342.597 479.677,344.128 468.609,345.66 463.3,347.193 474.295,348.726    472.147,350.26 490.965,351.793 486.223,353.327 469.741,354.857 498.311,356.388 476.93,357.923 477.401,359.455 490.621,360.99    487.101,362.526 498.772,364.062 494.277,365.599 479.639,361.955  " style="fill:#454240;"/><g><path d="M317.938,130.645c-16.267-8.447-33.758-12.963-52.073-14.17c-0.916-0.055-1.83-0.347-2.727-0.548    c-4.867,0-9.734,0-14.602,0c-4.428,0.567-8.911,1.005-13.32,1.718c-47.299,7.88-82.118,33.186-104.569,75.385    c-8.819,16.621-13.54,34.521-14.784,53.298c-0.073,0.932-0.366,1.828-0.549,2.724c0,4.863,0,9.727,0,14.61    c0.549,4.328,0.97,8.68,1.683,12.977c7.904,47.849,33.576,82.918,76.464,105.315c16.34,8.502,33.924,13.055,52.349,14.279    c0.915,0.056,1.811,0.366,2.726,0.53c4.867,0,9.734,0,14.602,0c4.336-0.549,8.709-0.95,13.009-1.682    c47.646-7.844,82.649-33.313,105.117-75.916c8.674-16.454,13.303-34.209,14.529-52.804c0.073-0.914,0.384-1.806,0.548-2.7    c0-4.883,0-9.747,0-14.61c-0.548-4.333-0.951-8.703-1.665-13C386.736,188.094,360.992,152.988,317.938,130.645z M199.939,369.74    c-27.684-14.06-48.195-35.124-60.363-63.812c-14.18-33.459-13.558-67.061,0.403-100.411c0.256,0,0.512,0.019,0.787,0.019    c19.944,54.597,39.888,109.188,59.814,163.784C200.378,369.448,200.159,369.612,199.939,369.74z M219.993,377.529    c12.625-36.641,25.159-73.008,37.675-109.375c0.256-0.036,0.512-0.036,0.768-0.036c13.028,35.672,26.056,71.308,39.267,107.473    C272.013,384.404,246.36,385.044,219.993,377.529z M318.799,332.935c-15.334-45.6-30.465-90.501-45.688-135.791    c3.824-0.329,7.319-0.64,10.813-0.969c1.299-0.091,2.616-0.201,3.897-0.457c3.037-0.548,4.685-2.633,4.446-5.448    c-0.274-2.926-2.36-4.736-5.636-4.572c-7.3,0.385-14.602,1.207-21.884,1.17c-13.741-0.054-27.5-0.585-41.241-0.932    c-1.299-0.037-2.617-0.274-3.916-0.238c-2.873,0.073-4.703,1.884-4.959,4.718c-0.256,2.853,1.208,4.864,4.172,5.266    c3.513,0.494,7.063,0.896,10.594,1.042c2.141,0.091,3.312,0.694,4.081,2.889c5.874,16.346,11.911,32.637,17.803,48.964    c0.457,1.225,0.731,2.834,0.329,4.004c-8.764,26.507-17.62,52.982-26.476,79.476c-0.11,0.365-0.256,0.677-1.043,1.188    c-15.223-45.197-30.428-90.428-45.798-136.138c3.952-0.329,7.355-0.622,10.795-0.933c1.116-0.073,2.232-0.146,3.348-0.347    c3.696-0.622,5.251-2.468,4.904-5.851c-0.329-2.944-2.416-4.462-6.111-4.261c-7.465,0.403-14.949,1.006-22.432,1.298    c-5.947,0.201-11.912,0.037-18.718,0.037c18.388-26.896,42.541-44.96,73.591-52.804c43.748-11.062,82.648-0.768,117.634,28.669    c-2.031,0.238-3.239,0.347-4.465,0.548c-11.82,1.957-19.871,13.055-18.279,24.903c0.787,5.778,2.928,11.007,5.782,15.98    c3.019,5.284,6.239,10.422,9.166,15.761c8.344,15.322,9.863,31.376,4.923,48.046c-6.258,21.026-12.626,42.035-18.956,63.062    C319.402,331.526,319.237,331.819,318.799,332.935z M380.973,274.134c-5.983,39.767-26.879,69.826-60.674,91.072    c-0.274-0.146-0.53-0.256-0.787-0.402c0.641-1.921,1.281-3.857,1.94-5.76c12.002-34.685,23.914-69.388,36.063-104.013    c3.477-9.965,7.008-19.911,8.637-30.388c1.427-9.215,1.592-18.412,0.933-27.719C380.204,221.133,385.071,246.95,380.973,274.134z" style="fill:#FFFFFF;"/></g></g><g id="Layer_1"/></svg>