<?xml version="1.0" ?><!DOCTYPE svg  PUBLIC '-//W3C//DTD SVG 1.1//EN'  'http://www.w3.org/Graphics/SVG/1.1/DTD/svg11.dtd'><svg height="512px" style="enable-background:new 0 0 512 512;" version="1.1" viewBox="0 0 512 512" width="512px" xml:space="preserve" xmlns="http://www.w3.org/2000/svg" xmlns:xlink="http://www.w3.org/1999/xlink"><g id="social__x2C__media__x2C__social_media__x2C___ask__x2C_"><polygon points="484.623,368.662 465.881,370 464.483,371.301 489.393,373.621 499.212,375.803    475.484,376.005 490.85,378.724 475.061,378.911 474.756,380.354 495.666,384.396 486.613,384.925 480.288,385.625    487.628,388.407 484.009,389.434 468.577,388.092 467.891,389.376 485.837,394.771 469.55,392.624 460.178,391.739 466.38,394.732    482.314,400.628 483.281,402.597 480.745,403.525 488.769,407.827 470.28,403.365 457.214,400.289 461.506,403.243 486.037,414.19    481.541,414.246 490.003,419.598 463.646,410.09 473.551,416.13 486.295,423.841 453.861,410.091 451.455,410.319 457.742,415.024    464.712,420.327 467.737,423.716 452.611,416.835 461.964,423.91 456.689,422.432 454.611,422.793 446.476,419.187    477.544,441.461 445.56,421.639 453.144,428.574 452.213,429.653 446.119,426.844 468.584,445.856 454.162,436.626    442.784,429.265 462.047,447.147 463.962,450.991 459.359,449.219 452.648,445.357 447.924,443.069 452.733,449.761    450.445,449.747 440.48,441.88 441.989,445.486 452.343,458.71 443.912,451.932 434.443,443.542 435.251,446.566 439.091,453.353    449.589,468.638 448.802,470.493 429.278,448.011 438.767,462.983 427.211,449.818 436.663,465.581 427.553,455.171    426.009,455.436 425.045,456.565 434.408,474.171 432.163,473.772 417.561,452.313 419.443,458.279 426.676,474.243    421.345,467.798 427.247,482.496 422.952,477.874 414.587,464.42 412.219,462.777 411.156,463.865 406.18,456.016 408.105,463.984    413.313,480.715 403.729,460.435 413.154,489.773 399.238,455.851 403.765,473.085 407.183,488.514 395.691,457.209    404.692,492.233 399.552,480.393 393.101,462.209 400.086,495.616 397.836,493.875 390.794,470.172 393.314,489.354    392.094,491.981 390.797,494.392 386.686,480.146 385.595,483.285 382.378,471.413 381.1,472.58 379.267,468.976 380.609,497.775    375.974,462.364 376.896,495.467 374.662,486.146 372.685,476.926 371.361,482.885 369.822,484.359 368.237,465.175    366.71,461.691 365.183,478.197 363.655,472.504 362.128,463.545 360.601,469.84 359.073,491.845 357.546,496.182 356.018,484.406    354.49,470.795 352.962,490.267 351.434,471.627 349.904,469.705 348.376,464.233 346.846,482.748 345.316,476.277    343.788,476.968 342.259,487.78 340.73,477.646 339.202,469.53 337.674,470.362 336.146,479.995 334.618,476.139 333.091,469.549    331.563,497.456 330.035,465.019 328.507,484.811 326.979,462.287 325.45,482.929 323.922,465.079 322.395,468.31 320.865,499.075    319.336,490.504 317.807,487.175 316.278,463.344 314.75,498.929 313.223,484.306 311.696,470.116 310.17,495.242 308.645,491.907    307.12,480.947 305.595,498.232 304.07,478.353 302.546,499.718 301.021,483.552 299.498,487.95 297.974,461.516 296.449,469.843    294.925,488.982 293.4,493.527 291.876,479.87 290.351,499.435 288.825,479.534 287.299,478.167 285.772,494.222 284.245,485.215    282.717,490.313 281.188,496.779 279.657,479.263 278.127,475.658 276.597,463.585 275.067,496.629 273.539,461.853    272.011,461.671 270.483,461.314 268.956,482.124 267.43,490.636 265.903,482.049 264.376,467.162 262.85,490.003 261.323,498.228    259.796,499.949 258.269,469.186 256.741,481.146 255.212,477.239 253.683,486.623 252.153,494.497 250.621,475.293 249.09,491.38    247.56,488.668 246.031,487.11 244.502,474.898 242.974,462.877 241.445,475.042 239.917,500.259 238.389,464.37 236.86,497.483    235.331,500.1 233.801,494.404 232.271,470.955 230.739,488.31 229.208,498.887 227.677,492.204 226.147,493.509 224.617,479.738    223.088,490.956 221.559,461.681 220.029,485.42 218.499,492.662 216.967,468.944 215.435,478.842 213.903,477.908    212.372,492.294 210.842,468.17 209.312,501.007 207.781,469.975 206.25,479.827 204.718,493.489 203.186,462.08 201.654,491.234    200.123,469.146 198.592,479.675 197.061,461.046 195.528,463.898 193.996,489.881 192.469,481.558 190.941,474.889    189.41,470.142 187.877,498.043 186.346,470.185 184.816,487.235 183.288,491.11 181.76,495.477 180.23,491.238 178.698,463.951    177.164,463.815 175.632,499.397 174.102,481.979 172.57,466.925 171.037,482.188 169.503,463.258 167.971,462.945    166.438,497.325 164.903,468.491 163.37,470.189 161.835,480.681 160.301,479.541 158.765,461.408 157.233,500.269    155.702,497.707 154.166,497.096 152.632,486.994 151.096,492.869 149.559,486.038 148.023,491.741 146.484,478.778    144.942,485.345 143.401,480.438 141.652,497.019 140.003,493.22 139.267,469.187 136.905,487.535 134.624,497.275    133.714,486.668 134.131,465.102 130.363,487.531 131.527,464.521 130.681,461.038 123.836,498.059 127.467,464.744    126.591,462.141 121.502,481.727 117.186,494.848 122.768,461.391 115.044,488.561 120.476,459.853 118.405,462.67    113.915,473.819 112.104,474.688 110.891,473.498 104.65,487.855 109.796,467.395 112.25,456.242 97.691,491.876 109.77,455.62    99.134,478.647 103.733,463.464 97.399,474.515 99.68,465.617 100.74,459.951 89.829,479.286 85.528,484.114 98.678,454.917    99.695,450.223 86.833,470.84 80.744,478.255 94.689,451.264 84.663,465.206 76.905,474.644 89.277,452.409 70.568,478.011    74.353,469.308 73.625,467.462 73.274,465.131 81.628,451.255 83.516,446.492 84.927,442.553 80.942,445.394 75.338,449.992    60.165,465.415 79.188,441.252 61.696,458.546 69.039,448.25 73.864,441.064 58.976,454.215 54.059,456.758 65.439,443.456    62.882,443.826 73.208,432.398 67.108,436.07 69.737,431.964 56.146,441.623 45.742,448.1 45.111,446.408 68.198,426.441    57.963,432.498 67.796,423.535 38.63,442.602 35.283,442.794 34.468,441.171 34.41,439.087 57.471,422.495 46.43,427.608    30.455,435.249 51.959,420.868 47.365,421.774 42.005,422.954 58.114,412.816 41.887,419.496 28.141,424.443 30.659,421.334    52.021,409.823 26.957,419.239 29.546,416.264 31.726,413.574 28.141,413.199 54.518,401.609 39.223,405.677 38.758,404.241    44.326,400.847 53.605,396.485 22.181,404.407 30.459,400.299 45.799,394.577 22.429,399.007 17.15,398.503 35.22,392.688    43.103,389.51 24.267,391.714 51.894,385.103 33.875,386.778 27.323,386.232 13.919,386.438 13.008,384.746 44.441,379.539    19.392,380.545 35.496,377.533 46.964,375.277 20.313,375.389 26.748,373.443 19.453,372.05 22.507,370.313 33.337,368.662    47.42,367.136 34.723,365.61 46.27,364.084 44.708,362.559 47.309,361.032 50.989,359.506 40.627,357.979 19.779,356.453    14.729,354.927 37.223,353.399 31.131,351.872 47.208,350.345 14.551,348.816 45.489,347.289 18.34,345.761 20.014,344.232    26.337,342.705 29.137,341.178 48.177,339.651 18.005,338.124 50.277,336.598 44.091,335.071 34.403,333.545 30.1,332.018    24.636,330.491 21.922,328.965 26.959,327.438 35.358,325.91 38.423,324.383 43.487,322.856 39.904,321.329 41.396,319.801    23.043,318.273 21.837,316.746 12.715,315.22 19.003,313.693 46.692,312.168 43.211,310.644 18.714,309.119 11.663,307.595    35.227,306.071 34.783,304.548 14.327,303.025 38.752,301.502 43.274,299.979 47.992,298.456 42.97,296.934 31.161,295.41    19.325,293.887 26.146,292.363 27.292,290.84 18.083,289.314 28.558,287.79 25.087,286.265 23.525,284.738 43.734,283.212    37.16,281.684 35.647,280.155 31.694,278.625 32.733,277.097 21.856,275.568 16.639,274.041 35.434,272.515 42.913,270.988    28.459,269.463 47.178,267.938 45.171,266.412 44.296,264.887 23.117,263.361 47.007,261.836 18.409,260.311 23,258.784    40.076,257.258 13.652,255.73 30.881,254.202 28.811,252.673 29.651,251.143 25.113,249.613 12.299,248.084 45.175,246.556    30.205,245.028 36.846,243.501 20.476,241.975 20.363,240.448 27.843,238.92 41.796,237.393 47.55,235.865 18.572,234.337    47.603,232.808 22.237,231.277 12.067,229.747 29.671,228.217 39.875,226.688 22.141,225.16 50.679,223.632 36.393,222.104    25.807,220.576 48.859,219.046 43.194,217.517 37.683,215.985 25.443,214.455 12.834,212.925 44.742,211.396 26.982,209.867    32.352,208.338 14.133,206.808 38.793,205.277 24.169,203.746 38.479,202.216 24.5,200.687 44.796,199.157 39.937,197.626    12.991,196.095 33.724,194.564 34.166,193.039 31.321,191.512 38.862,189.982 29.048,188.45 48.383,186.92 47.186,185.393    30.918,183.866 36.372,182.338 12.952,180.81 22.335,179.279 39.147,177.746 32.013,176.216 40.981,174.687 19.093,173.157    40.974,171.624 33.745,170.092 40.097,168.561 15.015,167.029 26.276,165.495 19.904,163.963 16.487,162.43 35.553,160.896    38.881,159.362 25.279,157.832 49.809,156.302 50.367,154.767 18.3,153.234 22.548,151.7 12.676,150.163 32.076,148.629    25.45,147.091 18.022,145.551 48.546,144.011 36.19,142.545 16.145,140.542 50.505,140.185 41.827,138.449 21.168,135.66    26.194,134.388 41.938,134.27 13.74,129.81 26.513,129.578 50.953,131.28 28.321,126.591 36.865,126.384 28.831,123.453    45.404,125.026 39.651,122.443 45.31,122.211 53.36,122.7 45.003,119.308 39.745,116.482 49.764,117.766 24.447,108.919    35.286,110.504 30.669,107.378 54.409,113.742 38.114,106.589 47.753,108.542 51.038,108.321 30.668,98.652 45.197,102.941    38.537,98.459 30.643,93.173 29.373,90.718 49.333,98.492 48.954,96.707 32.294,86.418 49.449,93.7 43.951,88.983 31.669,80.155    45.483,86.283 58.89,92.642 50.061,85.496 45.54,80.771 54.578,84.895 39.06,72.454 38.457,69.914 49.3,75.642 64.065,84.724    55.524,76.431 61.265,79.053 41.994,61.491 62.837,76.637 65.083,76.678 56.945,67.583 67.441,75.006 52.892,59.472 66.578,70.286    63.517,65.219 59.469,58.93 74.558,72.303 53.875,48.153 66.326,59.198 81.009,73.453 61.382,48.653 69.93,56.191 66.959,50.061    70.516,51.889 64.312,41.197 79.716,58.835 84.162,62.482 86.008,62.71 74.801,43.973 82.603,52.692 75.101,38.338 92.44,62.73    78.931,38.012 91.866,56.598 80.361,33.702 97.484,61.03 88.706,41.909 97.42,55.274 101.772,60.914 99.299,52.891 87.735,24.911    91.988,29.955 98.018,39.547 106.792,56.483 106.486,52.266 100.798,33.802 111.127,57.032 110.583,51.737 104.918,30.881    110.529,42.891 106.977,26.485 107.002,20.631 109.869,24.343 112.748,28.58 115.231,31.787 116.43,29.979 122.354,49.383    122.173,41.958 121.278,29.754 122.171,25.709 124.597,30.365 127.958,42.155 130.613,51.272 129.908,34.919 130.155,23.263    133.597,41.986 133.585,24.534 135.584,29.809 137.147,29.754 139.313,44.717 139.956,17.767 141.959,38.767 143.401,31.714    144.928,35.149 146.456,31.516 147.982,15.98 149.51,44.493 151.037,41.813 152.565,31.194 154.092,30.366 155.62,36.214    157.148,24.307 158.676,23.975 160.205,39.19 161.733,21.15 163.263,38.611 164.792,36.046 166.321,48.792 167.851,15.827    169.379,34.485 170.908,29.91 172.436,47.032 173.964,47.115 175.492,18.801 177.02,20.379 178.547,30.941 180.075,20.84    181.603,18.49 183.131,28.026 184.659,33.395 186.188,39.733 187.716,16.839 189.244,48.774 190.772,32.488 192.302,19.379    193.832,16.914 195.36,38.431 196.888,47.419 198.415,31.002 199.942,45.826 201.468,50.884 202.993,24.588 204.519,19.767    206.043,13.609 207.568,48.724 209.092,17.705 210.617,47.403 212.141,40.477 213.665,45.031 215.189,25.601 216.713,27.855    218.238,46.153 219.763,15.095 221.288,31.549 222.813,24.749 224.339,15.095 225.866,36.797 227.394,47.806 228.922,39.379    230.451,51.312 231.981,18.419 233.512,29.146 235.042,38.026 236.571,36.537 238.1,32.62 239.627,19.121 241.155,27.291    242.682,45.523 244.209,15.343 245.735,32.815 247.262,46.243 248.788,12.181 250.315,48.383 251.842,39.825 253.369,44.111    254.897,40.348 256.426,24.386 257.955,31.225 259.485,32.266 261.017,12.895 262.548,33.014 264.078,14.271 265.607,39.266    267.137,12.958 268.665,27.032 270.193,38.595 271.721,17.67 273.249,51.013 274.778,27.075 276.307,17.612 277.837,31.438    279.367,51.584 280.899,23.822 282.431,48.936 283.961,32.582 285.491,33.288 287.021,36.359 288.55,37.513 290.079,35.907    291.609,36.001 293.14,45.447 294.671,45.25 296.203,40.518 297.735,48.879 299.266,20.479 300.796,50.871 302.326,26.89    303.856,12.988 305.388,38.844 306.92,23.758 308.452,18.231 309.984,32.305 311.515,36.471 313.046,35.537 314.577,14.89    316.11,26.804 317.643,28.29 319.169,33.124 320.697,30.561 322.228,41.426 323.762,17.374 325.292,37.034 326.821,39.039    328.35,44.646 329.878,31.493 331.408,28.656 332.94,20.266 334.475,30.402 336.006,25.84 337.536,50.271 339.067,34.436    340.602,17.128 342.135,50.688 343.667,21.546 345.2,32.878 346.735,37.665 348.269,22.71 349.804,36.271 351.338,14.503    352.873,33.748 354.404,18.729 355.936,43.074 357.473,36.539 359.006,28.889 360.542,30.625 362.08,33.878 363.615,48.315    365.154,13.347 366.695,20.186 368.237,43.833 369.971,16.856 371.22,35 373.616,12.716 373.584,46.631 375.823,33.206    375.996,49.906 379.368,27.959 378.742,48.51 382.626,27.567 384.455,26.034 385.958,26.978 387.868,25.347 389.999,22.754    385.875,53.109 391.1,34.082 390.332,44.681 394.24,34.134 395.034,37.321 392.571,52.51 402.175,22.951 402.757,27.046    399.478,43.287 397.519,54.025 401.548,46.158 407.401,33.894 409.109,33.88 402.366,55.782 408.018,45.193 407.688,49.752    420.88,22.892 409.868,51.698 410.966,52.627 414.157,49.191 426.53,27.736 417.774,48.474 422.048,43.612 422.177,46.59    420.242,53.037 422.932,51.296 417.024,63.824 430.854,44.205 431.406,46.314 426.379,56.727 422.532,64.861 427.215,60.512    432.24,55.97 437.696,51.162 448.916,39.196 437.894,56.014 441.976,53.426 439.213,59.215 447.147,52.298 441.441,61.255    440.097,64.98 456.313,49.748 445.96,63.083 442.121,69.168 454.385,59.066 453.662,62.057 445.432,71.969 455.155,65.071    464.278,59.128 466.169,59.813 457.778,69.146 459.024,70.186 469.762,63.71 441.819,87.468 470.88,67.28 463.333,74.95    469.414,72.618 452.53,86.275 452.799,87.772 470.802,77.765 470.602,79.849 449.957,94.376 477.667,79.51 464.848,88.851    478.171,83.185 461.87,93.899 480.096,86.051 478.971,88.545 479.695,90.087 456.386,102.859 462.896,101.385 462.316,103.185    470.616,101.218 466.237,104.617 488.125,97.671 476.025,104.052 475.965,105.74 475.551,107.528 474.458,109.511 465.334,113.944    495.014,106.618 493.403,108.946 491.766,111.221 487.09,114.204 462.982,121.61 471.554,121.07 474.586,121.912 459.13,126.398    477.703,124.368 484.562,124.778 495.05,124.827 465.592,130.62 461.678,132.438 497.146,129.89 483.441,132.964 493.795,133.72    467.124,137.238 494.031,137.146 499.096,138.661 461.807,141.44 482.406,142.449 492.367,144.011 488.771,145.537    464.865,147.063 488.78,148.589 470.942,150.115 497.677,151.641 488.095,153.167 480.398,154.693 477.366,156.22 493.425,157.747    494.396,159.273 491.518,160.8 475.564,162.328 498.571,163.856 461.61,165.384 498.331,166.913 474.959,168.44 468.052,169.968    478.924,171.495 481.039,173.021 462.032,174.548 487.532,176.075 473.943,177.602 472.542,179.128 475.723,180.655    489.011,182.182 481.727,183.708 480.032,185.235 467.897,186.762 499.952,188.29 467.007,189.816 465.713,191.343    490.159,192.872 462.173,194.4 490.89,195.927 472.926,197.454 488.216,198.979 476.756,200.505 473.226,202.03 483.906,203.554    485.101,205.078 471.214,206.602 461.963,208.125 495.43,209.648 474.451,211.171 465.185,212.694 460.689,214.217 478.603,215.74    485.124,217.263 470.884,218.786 485.624,220.31 469.049,221.833 498.39,223.358 484.573,224.883 463.321,226.408 493.728,227.935    478.948,229.461 485.296,230.989 480.324,232.518 500.637,234.047 481.035,235.576 497.13,237.104 476.02,238.631 477.681,240.158    490.844,241.685 471.202,243.21 489.949,244.735 486.905,246.261 486.527,247.786 483.724,249.312 474.822,250.837    480.376,252.363 497.041,253.889 486.281,255.416 466.477,256.943 463.969,258.471 461.039,260 464.659,261.53 482.06,263.06    475.267,264.589 467.131,266.117 482.412,267.645 497.634,269.172 461.876,270.698 496.688,272.226 465.463,273.752    476.516,275.279 486.374,276.808 490.482,278.336 483.963,279.865 479.546,281.396 464.135,282.927 500.435,284.456    467.662,285.984 468.576,287.513 500.323,289.041 467.634,290.569 471.063,292.098 474.402,293.627 472.245,295.156    467.998,296.688 464.564,298.218 500.396,299.748 483.373,301.276 486.71,302.806 487.895,304.335 473.104,305.864    475.232,307.396 482.762,308.927 462.043,310.457 491.041,311.986 463.449,313.517 484.821,315.047 495.969,316.578    482.93,318.109 484.178,319.634 479.671,321.161 464.315,322.69 486.659,324.223 477.173,325.753 474.479,327.28 492.403,328.808    500.183,330.335 471.749,331.863 494.148,333.395 484.724,334.927 475.625,336.457 461.89,337.986 494.995,339.517 493.21,341.049    487.849,342.581 496.734,344.112 475.995,345.644 461.518,347.178 488.705,348.71 492.711,350.243 488.884,351.776    461.573,353.311 478.26,354.841 493.566,356.371 468.297,357.906 478.637,359.438 464.205,360.974 484.528,362.51 463.278,364.044    461.131,365.582 480.712,367.062  " style="fill:#F40505;"/><g><path d="M274.592,249.345c5.225,0,7.832,0.347,9.799,1.006l2.938,0.658l2.286-2.322l7.182-7.661    l5.874-6.345l-8.49-2.321c-4.244-1.353-8.161-2.688-18.6-2.012c-18.288,0.659-34.929,11.995-37.866,25.342    c-2.287,10.654,0.649,17.986,12.076,31.005c12.077,12.981,15.012,18.669,13.384,26.329c-0.979,4.991-9.14,11.336-18.608,12.671    c-4.904,0.658-8.17,0.658-11.107,0l-3.257-1.006l-1.958,2.669l-7.831,9.673l-5.553,6.655l8.49,2.011    c5.224,1.316,13.046,1.316,21.545-0.347c18.919-2.998,41.453-17.004,45.368-34.338c3.596-15.998-2.936-26-16.65-39.987    c-10.768-11.002-10.118-13.671-9.469-15.664C264.475,253.02,268.72,249.692,274.592,249.345z" style="fill:#FFFFFF;"/><polygon points="381,224.021 365.676,226.69 364.039,226.69 362.721,228.007 343.802,249.016     365.347,145.345 337.928,144.011 299.073,327.357 297.445,335.02 304.957,334.014 321.599,331.344 325.193,331.015     326.182,327.357 332.056,300.682 338.569,324.359 339.877,329.022 344.441,328.346 361.751,325.694 367.953,325.018     351.633,270.696 396.352,221.352   " style="fill:#FFFFFF;"/><path d="M206.371,183.011l-17.95,2.999l-73.116,182.67l9.468-1.992l15.334-2.67l2.945-0.677l0.979-2.651    l11.747-30.662l22.844-3.346v24.007l-0.32,6.327l6.193-1.007l17.959-2.998l4.574-0.659l-0.33-4.661L206.371,183.011z     M177.974,302.346l-15.022,2.011l18.608-56.017L177.974,302.346z" style="fill:#FFFFFF;"/></g></g><g id="Layer_1"/></svg>