<?xml version="1.0" ?><!DOCTYPE svg  PUBLIC '-//W3C//DTD SVG 1.1//EN'  'http://www.w3.org/Graphics/SVG/1.1/DTD/svg11.dtd'><svg height="512px" style="enable-background:new 0 0 512 512;" version="1.1" viewBox="0 0 512 512" width="512px" xml:space="preserve" xmlns="http://www.w3.org/2000/svg" xmlns:xlink="http://www.w3.org/1999/xlink"><g id="social__x2C__media__x2C__social_media__x2C___reddit__x2C_"><polygon points="463.407,368.662 463.666,369.954 489.363,371.966 472.547,372.945 462.986,373.863    495.087,377.316 470.822,377.095 480.992,379.474 499.649,383.053 497.964,384.68 497.133,386.364 484.05,386.189 467.534,385.098    473.039,387.478 467.315,387.859 494.706,394.937 473.805,392.114 477.196,394.43 478.011,396.21 464.233,394.154 491.73,403.269    470.683,398.881 462.562,397.896 467.246,400.832 488.448,409.554 458.014,400.555 456.502,401.382 463.459,405.462    489.881,417.604 467.479,410.157 462.926,409.783 483.459,420.597 481.093,421.407 459.393,412.769 483.281,426.298    479.509,426.326 472.891,424.72 476.771,428.733 479.271,432.128 473.813,430.919 473.549,432.702 452.14,421.235 460.815,428.47    458.07,428.448 470.18,438.562 444.914,422.731 474.396,445.827 472.432,446.577 456.464,436.507 458.383,439.971 461.856,444.825    462.435,447.459 454.232,442.605 464.249,453.54 442.307,435.932 437.7,433.511 445.781,443.075 444.224,443.602 456.927,458.567    435.6,438.817 455.562,462.153 454.564,463.65 446.182,456.813 442.952,455.523 452.032,468.809 445.37,463.445 429.229,445.734    427.935,446.27 440.759,465.637 443.045,471.606 424.308,448.09 438.846,471.616 431.397,463.514 424.294,455.396 431.351,469.297    420.722,454.938 423.118,461.722 425.573,468.993 416.649,456.141 421.818,468.669 425.787,479.672 410.704,453.423    416.832,469.038 422.199,484.104 408.148,457.201 413.379,472.554 414.004,478.063 404.538,458.863 415.077,489.795    402.522,461.054 407.637,479.486 401.447,466.249 407.493,489.402 405.583,489.125 403.714,488.896 396.541,469.59    394.605,467.866 400.394,496.728 395.04,481.944 395.09,489.541 394.374,494.441 388.584,473.633 386.91,472.572 388.542,491.372    386.25,487.56 380.884,460.305 381.891,479.014 381.952,493.661 380.823,499.936 378.237,490.307 376.147,484.147 373.525,464.732    373.231,490.349 371.145,474.426 369.893,488.682 368.246,488.969 366.719,467.45 365.191,491.467 363.664,495.611 362.137,479.13    360.609,461.765 359.082,488.929 357.555,480.175 356.027,483.123 354.499,467.837 352.971,490.45 351.442,461.637    349.914,498.369 348.385,484.96 346.854,474.296 345.325,494.186 343.797,484.486 342.268,482.075 340.739,463.015    339.211,492.398 337.683,485.296 336.155,492.95 334.627,465.631 333.1,467.714 331.571,471.51 330.044,467.997 328.516,493.664    326.987,492.165 325.459,495.396 323.931,488.988 322.402,492.225 320.874,485.628 319.345,488.624 317.815,492.91    316.287,487.447 314.759,462.844 313.231,494.586 311.705,471.197 310.179,471.492 308.653,496.45 307.128,466.397    305.604,490.632 304.079,486.378 302.555,472.271 301.03,461.875 299.506,462.1 297.982,467.89 296.458,493.143 294.934,486.695    293.409,483.521 291.884,470.826 290.359,487.482 288.833,497.02 287.308,483.146 285.78,476.813 284.253,478.889 282.725,492.826    281.196,469.506 279.666,485.944 278.135,472.999 276.605,493.18 275.076,474.251 273.547,493.51 272.02,497.871 270.492,484.715    268.965,494.122 267.438,493.05 265.911,474.111 264.385,494.573 262.858,478.322 261.332,466.979 259.805,491.053 258.277,479.04    256.75,467.529 255.221,466.049 253.692,485.155 252.162,499.136 250.63,490.79 249.099,498.883 247.569,496.964 246.04,474.404    244.511,486.563 242.982,492.836 241.454,462.797 239.926,466.171 238.398,494.144 236.869,487.448 235.34,477.477    233.811,461.482 232.28,461.747 230.748,481.701 229.216,484.312 227.686,489.02 226.156,477.456 224.626,496.379 223.097,488.595    221.567,478.187 220.038,489.338 218.507,472.737 216.976,490.868 215.444,492.696 213.912,480.921 212.381,488.759    210.851,476.219 209.321,469.809 207.791,488.347 206.259,474.241 204.727,495.808 203.195,496.563 201.663,465.378    200.132,465.954 198.602,496.946 197.07,474.188 195.537,462.578 194.005,464.13 192.479,497.923 190.95,481.979 189.419,486.853    187.886,491.527 186.355,483.842 184.826,491.867 183.297,467.656 181.769,476.336 180.239,499.744 178.707,464.952    177.173,496.077 175.642,480.139 174.111,477.222 172.58,481.239 171.046,483.06 169.513,492.221 167.98,470.819 166.447,493.809    164.912,483.029 163.379,471.45 161.844,480.434 160.31,478.714 158.774,469.146 157.243,496.98 155.711,495.993 154.175,491.827    152.641,486.461 151.105,469.039 149.568,500.64 148.032,483.87 146.493,489.195 144.952,461.045 143.41,468.688 142.09,464.911    140.676,468.394 138.674,484.203 136.533,494.41 136.511,469.379 132.958,496.005 132.16,485.968 130.269,488.481 130.441,473.488    126.378,492.683 128.896,464.265 122.077,497.699 124.193,475.627 124.864,464.28 121.048,476.191 117.54,485.109 114.557,490.677    112.667,491.162 117.13,467.523 116.451,464.761 112.721,472.617 112.715,467.631 114.658,457.017 109.542,468.164    108.151,467.799 97.404,492.663 99.882,481.237 97.403,482.974 103.302,464.51 102.887,461.906 105.364,453.031 93.201,476.059    91.934,474.958 87.993,479.214 100.327,451.791 89.575,469.118 83.842,476.247 96.332,451.027 91.865,456.057 75.748,479.857    83.414,464.302 82.566,462.773 85.107,456.199 76.37,466.392 90.059,444.218 68.933,471.103 64.906,473.604 67.937,466.729    73.88,456.509 64.804,465.24 82.002,442.019 83.03,438.846 64.839,457.498 77.771,440.861 69.796,447.44 57.063,458.578    77.275,435.67 77.102,434.03 70.809,438.295 68.853,438.24 45.815,457.306 47.979,453.019 71.562,430.397 71.977,428.359    48.947,445.484 41.875,448.979 68.46,426.258 56.619,433.512 64.621,425.852 60.105,427.422 46.364,435.174 41.572,436.443    47.737,430.458 55.042,424.029 40.892,430.988 57.304,419.381 47.882,423.208 33.646,429.394 40.486,423.772 52.782,415.584    50.612,415.119 24.681,426.125 51.569,411.542 27.241,421.008 56.705,406.295 35.22,413.896 47.937,407.043 25.311,414.303    48.271,403.933 30.523,408.771 45.078,402.093 24.858,407.172 37.672,401.422 33.972,400.937 28.738,400.784 19.396,401.576    25.547,398.228 43.046,392.396 28.833,394.102 31.347,391.943 41.779,388.345 28.294,389.315 18.287,389.336 48.804,383    48.667,381.705 20.07,383.886 18.788,382.32 24.531,380.059 45.397,376.731 20.491,377.063 46.012,374.002 26.686,373.446    33.084,371.68 46.059,369.998 44.54,368.662 45.733,367.136 22.359,365.61 39.789,364.084 34.356,362.559 15.822,361.032    13.703,359.506 45.624,357.979 28.127,356.453 39.762,354.927 20.248,353.399 19.047,351.872 16.563,350.345 18.499,348.816    20.654,347.289 26.666,345.761 21.093,344.232 29.562,342.705 31.377,341.178 49.374,339.651 32.832,338.124 18.318,336.598    27.007,335.071 22.644,333.545 36.493,332.018 25.733,330.491 17.41,328.965 47.676,327.438 17.952,325.91 36.34,324.383    50.435,322.856 47.152,321.329 34.251,319.801 30.221,318.273 48.875,316.746 39.354,315.22 44.757,313.693 42.7,312.168    50.524,310.644 24.389,309.119 22.258,307.595 15.533,306.071 39.998,304.548 16.271,303.025 42.716,301.502 43.329,299.979    21.112,298.456 14.621,296.934 32.459,295.41 38.955,293.887 38.561,292.363 49.716,290.84 31.528,289.314 21.674,287.79    37.634,286.265 14.653,284.738 11.954,283.212 11.773,281.684 30.74,280.155 18.375,278.625 29.713,277.097 15.416,275.568    19.465,274.041 13.296,272.515 29.085,270.988 43.493,269.463 20.943,267.938 31.301,266.412 38.21,264.887 48.188,263.361    47.264,261.836 21.838,260.311 34.536,258.784 41.05,257.258 26.667,255.73 25.882,254.202 18.968,252.673 36.288,251.143    35.315,249.613 39.509,248.084 17.42,246.556 43.045,245.028 28.326,243.501 20.813,241.975 28.543,240.448 30.413,238.92    38.879,237.393 33.954,235.865 36.379,234.337 48.943,232.808 34.107,231.277 24.054,229.747 26.686,228.217 32.363,226.688    36.532,225.16 16.7,223.632 45.675,222.104 23.308,220.576 19.808,219.046 35.813,217.517 39.939,215.985 26.766,214.455    27.505,212.925 13.623,211.396 36.282,209.867 35.015,208.338 23.684,206.808 26.505,205.277 40.233,203.746 27.795,202.216    44.034,200.687 50.42,199.157 11.982,197.626 11.465,196.095 36.288,194.564 49.725,193.039 18.479,191.512 20.891,189.982    38.701,188.45 33.075,186.92 40.461,185.393 27.816,183.866 45.318,182.338 50.211,180.81 13.156,179.279 39.474,177.746    46.783,176.216 43.331,174.687 19.398,173.157 11.184,171.624 35.458,170.092 46.827,168.561 13.918,167.029 16.669,165.495    23.583,163.963 49.149,162.43 37.561,160.896 19.877,159.362 23.225,157.832 50.511,156.302 20.172,154.767 12.021,153.234    36.789,151.7 30.196,150.163 50.901,148.629 17.61,147.091 46.811,145.551 37.261,144.011 14.695,142.258 13.263,140.466    13.913,138.717 38.45,138.266 33.896,136.518 23.118,134.138 31.428,133.272 16.843,130.138 13.142,127.938 33.813,128.945    45.218,129.132 34.368,125.973 45.932,126.5 34.389,122.901 48.641,124.302 34.654,119.854 26.086,116.267 23.572,113.938    40.137,116.587 16.436,108.431 51.103,116.778 46.368,113.938 50.953,113.968 30.357,105.558 18.811,99.716 34.137,103.481    20.68,96.568 43.21,103.707 55.069,107.082 47.273,102.257 42.742,98.644 29.763,90.898 58.637,103.012 43.113,93.769    42.401,91.672 43.115,90.292 39.029,86.248 29.077,78.671 42.461,84.494 33.451,77.117 43.513,81.373 33.156,72.737 49.978,81.819    57.196,84.924 37.314,69.101 40.284,69.07 45.243,70.612 39.944,64.405 53.129,72.594 64.852,80.123 61.29,75.334 48.192,62.112    60.515,70.74 74.915,81.805 54.951,61.397 73.803,77.222 72.986,74.561 66.633,66.192 55.379,52.291 70.43,65.884 70.239,63.499    71.87,63.1 73.882,63.176 77.207,64.878 61.158,42.922 68.463,49.289 80.657,62.443 70.07,45.926 70.198,43.261 81.871,56.843    70.967,38.366 82.119,51.957 83.875,51.891 78.393,40.333 78.955,38.041 85.055,45.05 81.426,35.533 90.716,48.796 91.888,47.835    88.701,38.445 101.741,60.848 86.563,26.57 100.249,51.647 92.079,30.135 102.431,49.694 96.04,30.763 101.099,38.853    103.54,40.879 110.888,56.38 108.427,45.633 105.526,32.648 110.643,43.219 113.564,47.765 112.033,37.689 117.822,52.813    118.393,49.887 112.332,20.145 114.701,22.593 122.958,52.073 118.232,22.835 120.626,26.314 125.677,45.361 128.284,52.789    126.557,32.763 128.778,37.696 129.104,28.264 130.91,30.141 133.78,43.824 134.085,30.564 135.319,25.751 137.321,32.804    139,36.616 140.793,48.801 141.799,26.118 143.41,39.87 144.938,38.68 146.465,36.325 147.992,29.269 149.519,17.123    151.046,29.753 152.574,16.839 154.102,51.441 155.629,25.542 157.157,36.724 158.686,22.185 160.214,39.115 161.743,48.75    163.272,31.794 164.801,26.117 166.331,15.064 167.86,28.19 169.388,27.686 170.917,43.17 172.445,41.09 173.973,15.274    175.501,23.78 177.029,51.236 178.557,41.006 180.084,49.08 181.612,36.881 183.14,16.549 184.668,27.607 186.197,28.319    187.726,30.33 189.253,39.869 190.782,17.37 192.312,26.392 193.841,15.226 195.369,22.554 196.897,16.643 198.424,38.206    199.951,17.521 201.477,31.331 203.002,43.06 204.528,47.558 206.053,24.706 207.577,40.475 209.102,45.953 210.626,43.809    212.15,45.865 213.674,30.164 215.198,49.487 216.723,36.605 218.247,38.843 219.772,39.755 221.297,22.289 222.823,17.396    224.349,38.266 225.875,34.733 227.403,37.301 228.931,36.503 230.46,38.169 231.99,26.08 233.521,25.626 235.051,24.475    236.58,42.996 238.109,20.82 239.637,48.105 241.164,46.504 242.691,40.689 244.218,42.479 245.745,28.373 247.271,18.629    248.797,31.66 250.324,40.22 251.851,31.166 253.378,14.488 254.906,27.354 256.435,45.407 257.965,29.592 259.495,31.371    261.026,32.173 262.558,34.328 264.087,45.151 265.616,24.309 267.146,42.526 268.674,15.849 270.202,44.226 271.73,36.98    273.259,36.715 274.787,42.741 276.316,34.826 277.846,38.135 279.377,29.451 280.908,25.413 282.439,27.3 283.971,12.347    285.5,44.711 287.03,46.846 288.56,22.788 290.089,33.791 291.618,40.724 293.148,17.416 294.68,13.159 296.213,31.821    297.744,40.795 299.275,48.417 300.806,36.182 302.336,17.108 303.866,23.76 305.397,22.984 306.929,29.678 308.462,37.051    309.993,27.781 311.523,23.207 313.055,48.414 314.586,29.262 316.119,21.262 317.651,12.147 319.178,27.474 320.706,41.827    322.236,34.628 323.771,29.543 325.301,15.874 326.83,29.121 328.358,26.692 329.888,19.927 331.417,24.142 332.949,11.926    334.483,19.413 336.015,31.918 337.545,49.658 339.076,50.586 340.61,14.732 342.144,27.435 343.676,23.455 345.209,19.961    346.744,27.297 348.277,39.585 349.813,42.276 351.347,34.936 352.882,26.766 354.413,37.968 355.944,29.594 357.48,35.215    359.015,43.498 360.551,40.154 362.089,29.382 363.624,18.171 365.163,31.333 366.704,28.093 368.246,36.365 369.824,28.5    371.595,21.294 372.181,48.259 373.593,46.636 375.804,33.613 376.808,39.956 380.66,14.338 380.533,32.078 381.997,32.787    381.785,45.698 385.506,30.046 385.136,42.062 385.245,49.469 388.824,37.825 391.188,33.689 396.121,18.487 393.597,36.906    396.68,30.773 401.073,20.388 397.054,41.296 404.416,21.434 398.199,47.467 402.32,39.221 402.907,42.178 406.806,35.59    410.055,31.351 410.372,35.086 406.387,49.264 405.911,54.02 408.618,51.12 418.476,32.64 412.749,48.819 421.328,34.41    415.06,50.616 411.331,60.901 419.06,49.191 416.945,56.034 424.017,46.45 416.142,62.808 418.104,62.076 428.898,47.331    439.799,33.342 432.105,48.139 431.843,51.305 436.47,47.415 422.93,68.786 438.51,50.079 426.143,68.788 436.83,57.364    427.212,71.579 435.521,63.637 453.633,44.766 438.471,64.622 443.155,61.62 444.124,62.811 439.472,69.851 434.177,77.225    437.187,76.058 453.871,61.862 456.28,61.826 461.226,59.554 461.694,61.422 454.403,69.955 457.959,68.998 451.14,76.618    460.564,71.007 445.333,84.781 468.135,69.355 467.884,71.639 453.215,84.08 446.183,90.645 473.975,73.633 462.348,83.237    467.426,81.852 455.129,91.214 473.477,81.99 465.054,88.735 458.551,94.09 451.287,99.588 453.456,99.906 455.004,100.605    461.069,99.116 472.728,95.215 458.638,103.314 476.451,97.028 473.477,100.021 486.967,96.255 485.443,98.729 466.327,107.658    461.018,111.057 491.307,102.179 471.209,110.568 461.027,115.267 469.456,114.163 459.353,118.48 491.701,111.253    472.952,117.742 496.705,113.644 482.853,118.568 477.559,121.299 494.224,119.644 494.491,121.373 496.936,122.745    486.282,126.146 497.761,126.222 463.583,132.206 493.166,130.321 496.884,131.689 466.225,135.951 492.188,135.537    496.199,137.029 472.262,139.737 500.495,140.407 476.629,142.532 468.871,144.011 500.258,145.537 477.313,147.063    489.459,148.589 469.035,150.115 465.734,151.641 466.074,153.167 467.413,154.693 480.488,156.22 488.61,157.747 498.527,159.273    500.543,160.8 478.871,162.328 466.237,163.856 461.714,165.384 471.277,166.913 474.28,168.44 475.528,169.968 465.331,171.495    488.692,173.021 491.28,174.548 490.973,176.075 494.746,177.602 464.389,179.128 467.725,180.655 494.939,182.182    460.952,183.708 476.271,185.235 473.683,186.762 476.494,188.29 498.753,189.816 466.452,191.343 471.665,192.872 474.974,194.4    464.365,195.927 479.575,197.454 499.449,198.979 484.58,200.505 483.765,202.03 467.741,203.554 496.717,205.078 496.247,206.602    462.949,208.125 468.363,209.648 496.79,211.171 493.006,212.694 491.424,214.217 461.13,215.74 484.67,217.263 475.141,218.786    490.141,220.31 470.386,221.833 482.676,223.358 491.331,224.883 475.128,226.408 499.129,227.935 484.899,229.461    472.086,230.989 468.092,232.518 460.918,234.047 481.737,235.576 481.678,237.104 465.199,238.631 495.91,240.158    475.766,241.685 464.843,243.21 495.332,244.735 477.292,246.261 490.173,247.786 464.512,249.312 499.031,250.837    494.347,252.363 471.03,253.889 466.781,255.416 499.411,256.943 478.423,258.471 484.651,260 489.428,261.53 476.252,263.06    478.035,264.589 471.253,266.117 470.162,267.645 494.568,269.172 469.351,270.698 476.225,272.226 490.926,273.752    498.873,275.279 488.334,276.808 500.202,278.336 494.422,279.865 484.385,281.396 490.76,282.927 489.232,284.456    469.193,285.984 496.456,287.513 486.389,289.041 486.261,290.569 499.445,292.098 489.437,293.627 473.515,295.156    465.201,296.688 495.891,298.218 496.257,299.748 480.168,301.276 468.83,302.806 483.859,304.335 499.952,305.864    478.196,307.396 491.762,308.927 464.926,310.457 498.392,311.986 476.493,313.517 489.744,315.047 488.303,316.578    473.471,318.109 479.623,319.634 476.546,321.161 468.241,322.69 475.987,324.223 498.069,325.753 489.661,327.28 463.713,328.808    497.498,330.335 496.393,331.863 466.098,333.395 476.592,334.927 500.344,336.457 465.514,337.986 489.486,339.517    484.609,341.049 477.16,342.581 465.404,344.112 489.781,345.644 485.328,347.178 471.077,348.71 464.396,350.243 496.769,351.776    467.369,353.311 467.863,354.841 461.398,356.371 488.679,357.906 485.175,359.438 491.295,360.974 477.256,362.51    497.104,364.044 473.512,365.582 482.823,379.215  " style="fill:#FF5C00;"/><g><g><path d="M240.806,213.709c0-7.807-6.522-14.134-14.592-14.134c-8.05,0-14.592,6.327-14.592,14.134     c0,7.825,6.542,14.151,14.592,14.151C234.284,227.861,240.806,221.535,240.806,213.709z" style="fill:#FFFFFF;"/><path d="M287.117,199.576c-8.051,0-14.584,6.327-14.584,14.134c0,7.825,6.533,14.151,14.584,14.151     c8.069,0,14.591-6.326,14.591-14.151C301.708,205.902,295.187,199.576,287.117,199.576z" style="fill:#FFFFFF;"/><path d="M308.159,134.777c0,10.349,8.682,18.778,19.376,18.778c10.686,0,19.377-8.447,19.377-18.814     c0-10.367-8.691-18.814-19.377-18.814c-8.124,0-15.068,4.882-17.967,11.756l-39.962-9.27L253.02,164.16     c-23.64,0.438-45.029,6.637-61.03,16.547c-4.336-3.621-9.715-5.705-15.479-5.705c-13.083,0-23.731,10.331-23.731,23.038     c0,7.862,4.181,15.121,10.951,19.344c-0.412,2.286-0.678,4.608-0.678,6.985c0,22.599,19.222,42.305,47.573,52.616     c-15.342,9.196-25.195,22.965-25.195,38.396c0,16.949,11.719,32.601,31.38,41.87l0.283-0.548c0.869,3.638,1.83,7.112,2.964,10.33     h-7.886c-6.861,0-12.424,2.103-16.485,6.271c-7.512,7.697-6.98,19.527-6.962,20.039l0.192,3.419h132.702l0.109-3.491     c0.019-0.512,0.356-12.708-7.237-20.333c-3.906-3.912-9.084-5.905-15.416-5.905h-7.996c1.301-3.62,2.371-7.551,3.358-11.628     l0.54,0.986c18.554-9.325,29.65-24.664,29.65-41.011c0-15.048-9.35-28.522-24.051-37.702c0-0.219,0.019-0.438,0.019-0.658     c28.387-10.312,47.654-30.035,47.654-52.652c0-2.304-0.247-4.571-0.622-6.802c6.935-4.187,11.253-11.537,11.253-19.527     c0-12.708-10.667-23.038-23.75-23.038c-5.827,0-11.271,2.121-15.607,5.815c-15.443-9.6-35.945-15.725-58.643-16.565l13.539-37.3     L308.159,134.777z M327.535,123.167c6.578,0,11.93,5.193,11.93,11.574c0,6.381-5.352,11.574-11.93,11.574     c-6.605,0-11.938-5.193-11.938-11.574C315.597,128.36,320.93,123.167,327.535,123.167z M160.226,198.04     c0-8.703,7.31-15.797,16.284-15.797c3.34,0,6.486,0.969,9.158,2.76c-9.387,7.059-16.229,15.524-19.789,24.867     C162.375,206.889,160.226,202.648,160.226,198.04z M290.264,280.223c0.96,0.475,1.903,0.932,2.827,1.425     c-0.43,66.518-7.255,107.492-37.244,107.492c-33.246,0-37.043-50.556-37.263-108.405c0.503-0.257,1.089-0.457,1.638-0.695     c10.915,2.943,22.863,4.607,35.423,4.607C267.896,284.646,279.541,283.056,290.264,280.223z M192.868,315.382     c0-11.793,7.035-22.435,18.27-30.187c0.165,23.494,1.052,45.125,4.199,63.007C201.22,340.084,192.868,328.107,192.868,315.382z      M201.092,378.297c2.653-2.706,6.294-4.041,11.079-4.041h10.841c3.074,6.4,6.953,11.557,11.784,15.286h-38.434     C196.756,386.342,197.863,381.588,201.092,378.297z M299.073,374.256c4.272,0,7.558,1.208,10.046,3.694     c3.33,3.327,4.502,8.264,4.913,11.592h-37.729c4.766-3.767,8.663-8.904,11.756-15.286H299.073z M317.161,315.382     c0,12.232-7.804,23.897-21.032,31.979c3.237-17.863,4.227-39.036,4.409-60.94C310.813,294.044,317.161,304.192,317.161,315.382z      M255.645,277.406c-46.959,0-85.127-23.801-85.127-53.037c0-29.255,38.168-53.061,85.127-53.061     c46.952,0,85.137,23.806,85.137,53.061C340.782,253.605,302.597,277.406,255.645,277.406z M335.129,182.243     c8.992,0,16.284,7.094,16.284,15.797c0,4.717-2.259,9.05-5.918,12.031c-3.505-9.361-10.33-17.863-19.698-24.939     C328.514,183.267,331.734,182.243,335.129,182.243z" style="fill:#FFFFFF;"/><path d="M284.665,246.968c-0.091,0.073-8.966,8.557-29.193,8.557c-19.889,0-27.839-8.173-28.049-8.411     c-1.336-1.499-3.678-1.664-5.224-0.366c-1.583,1.28-1.748,3.584-0.412,5.101c0.394,0.439,9.917,10.916,33.685,10.916     c23.659,0,34.134-10.331,34.573-10.77c1.408-1.445,1.354-3.693-0.119-5.083C288.452,245.523,286.101,245.542,284.665,246.968z" style="fill:#FFFFFF;"/></g></g></g><g id="Layer_1"/></svg>