<?xml version="1.0" ?><!DOCTYPE svg  PUBLIC '-//W3C//DTD SVG 1.1//EN'  'http://www.w3.org/Graphics/SVG/1.1/DTD/svg11.dtd'><svg height="512px" style="enable-background:new 0 0 512 512;" version="1.1" viewBox="0 0 512 512" width="512px" xml:space="preserve" xmlns="http://www.w3.org/2000/svg" xmlns:xlink="http://www.w3.org/1999/xlink"><g id="social__x2C__media__x2C__social_media__x2C___twitter__x2C_"><polygon points="485.642,368.68 487.119,370.301 461.139,371.229 494.172,373.829 486.305,375.129    478.709,376.235 489.204,378.606 491.41,380.479 488.818,381.895 490.017,383.707 469.643,382.622 476.451,385.063    476.049,386.512 488.209,390.195 489.104,392.063 468.237,389.463 493.839,396.552 480.211,395.156 479.808,396.676    476.555,397.438 471.899,397.722 472.745,399.507 461.176,397.471 480.879,405.276 457.706,399.099 455.946,399.825    482.117,410.917 459.355,403.876 463.238,406.881 466.322,409.689 472.156,413.812 453.731,407.176 483.599,422.595    466.095,416.026 464.968,417.12 458.514,415.431 478.53,427.763 472.786,426.532 469.174,426.339 467.568,427.232 465.37,427.736    455.25,423.205 463.579,430.275 460.796,430.279 456.584,429.224 451.271,427.25 461.543,436.461 463.524,439.917 469.336,446.444    449.338,432.808 452.273,437.02 452.859,439.443 460.182,447.75 439.296,431.447 454.878,447.396 439.185,434.896 444.036,441.396    447.116,446.465 439.763,441.159 458.401,462.605 456.451,463.135 433.218,440.148 450.086,461.252 440.521,452.706    434.859,448.302 434.689,450.332 437.981,456.814 431.789,451.287 436.137,459.473 445.408,474.871 435.067,463.325    429.512,458.021 427.917,458.301 423.433,454.074 433.728,473.098 434.846,478.162 426.034,466.678 430.934,478.387    417.69,458.031 418.706,462.871 412.423,453.949 425.61,483.183 413.272,461.703 421.291,482.173 421.805,487.486 413.665,473.221    411.075,471.064 405.848,462.129 403.765,460.568 413.361,490.307 399.44,456.376 405.803,479.079 408.341,492.07 402.978,480.713    404.979,493.189 393.611,459.119 397.622,479.282 396.981,483.146 394.743,480.69 389.093,462.405 392.177,483.813    391.409,488.327 387.338,474.981 384.221,465.104 382.858,464.947 385.168,491.855 381.762,477.956 380.294,478.388    379.264,483.497 379.037,500.363 375.445,473.674 373.377,461.961 373.348,493.246 371.496,487.607 369.571,466.286    368.246,473.404 366.719,491.049 365.191,481.408 363.664,473.492 362.137,488.554 360.609,480.681 359.081,463.739    357.554,490.412 356.026,461.144 354.498,471.668 352.97,463.653 351.441,500.52 349.912,494.917 348.383,481.518 346.853,486.098    345.323,470.599 343.794,499.109 342.266,487.164 340.737,496.885 339.209,485.264 337.681,478.275 336.152,491.717    334.624,465.191 333.097,477.49 331.568,467.789 330.04,492.84 328.513,484.905 326.984,471.419 325.455,466.314 323.929,479.033    322.4,496.022 320.872,473.66 319.342,496.472 317.813,480.039 316.284,467.392 314.756,489.382 313.229,464.96 311.702,477.654    310.176,482.033 308.65,479.397 307.125,473.388 305.6,483.174 304.075,466.283 302.551,494.532 301.026,491.044 299.502,467.727    297.978,484.017 296.453,483.494 294.929,480.883 293.404,491.761 291.879,497.2 290.354,490.52 288.828,489.957 287.302,479.896    285.775,474.02 284.247,499.025 282.719,475.558 281.19,467.448 279.66,465.844 278.129,477.539 276.599,498.306 275.069,484.824    273.541,494.254 272.013,484.13 270.485,493.438 268.958,466.055 267.431,469.406 265.904,465.616 264.378,491.568    262.852,467.734 261.324,500.99 259.797,487.79 258.27,500.122 256.742,464.589 255.213,462.975 253.684,472.889 252.153,476.751    250.622,487.937 249.09,493.479 247.56,500.613 246.03,485.937 244.501,493.292 242.973,490.937 241.445,468.881 239.917,470.047    238.388,483.356 236.859,487.854 235.33,490.616 233.8,486.103 232.27,472.656 230.737,483.389 229.206,462.793 227.675,479.489    226.145,500.069 224.615,496.025 223.086,464.003 221.556,485.88 220.026,475.475 218.496,497.544 216.964,496.78 215.432,492.604    213.9,466.831 212.369,469.603 210.839,470.948 209.309,490.729 207.778,493.855 206.247,484.13 204.714,464.232 203.182,469.077    201.65,474.614 200.119,488.793 198.588,476.378 197.056,481.469 195.523,471.258 193.991,498.809 192.464,473.053 190.936,498.4    189.405,481.128 187.872,476.309 186.341,495.749 184.811,494.432 183.283,479.528 181.754,478.567 180.224,473.949    178.692,482.531 177.158,480.36 175.626,476.27 174.096,475.83 172.564,466.615 171.03,480.926 169.497,463.139 167.964,473.701    166.431,463.549 164.896,497.102 163.362,498.118 161.827,480.488 160.293,485.846 158.757,475.159 157.226,461.397    155.694,493.455 154.158,476.313 152.624,486.481 151.087,485.516 149.55,461.465 148.014,485.927 146.475,471.411    144.933,482.773 143.392,471.993 141.788,486.107 139.854,498.451 138.417,490.155 136.539,493.977 136.684,466.581    133.837,484.99 131.468,493.091 131.888,473.405 128.357,490.436 129.896,466.634 125.063,489.809 125.467,476.953 123.76,477.99    121.971,479.252 116.924,496.085 118.487,480.754 119.78,468.4 119.443,464.022 110.173,493.724 117.56,460.746 106.965,492.127    104.808,493.135 112.756,462.859 113.415,456.777 100.049,490.563 108.649,462.31 95.849,491.618 100.767,474.58 96.93,479.718    96.708,476.088 103.349,457.478 100.083,461.319 88.072,482.905 90.355,474.485 100.506,451.395 89.925,468.448 79.405,484.238    91.231,459.946 90.799,457.849 94.725,448.681 83.631,463.945 88.52,453.562 82.687,459.822 76.564,466.101 67.317,476.387    88.693,443.928 77.712,456.49 69.757,464.366 66.017,466.44 66.132,463.606 83.425,440.32 79.645,442.781 77.31,443.389    67.215,452.472 69.332,447.941 75.705,439.15 61.711,451.446 55.614,455.229 69.055,439.99 74.015,433.435 52.336,451.392    50.555,450.731 49.02,449.817 64.67,434.484 41.242,451.776 52.581,440.488 51.652,439.211 61.375,429.958 65.422,425.278    40.545,441.271 35.946,442.335 55.444,427.188 34.54,439.014 64.904,417.837 34.63,434.819 36.872,431.472 50.511,421.711    51.615,419.425 30.382,429.202 34.658,425.01 26.475,427.238 33.859,421.68 56.711,409.142 53.449,409.188 47.311,410.392    34.196,414.333 35.266,412.162 38.467,409.216 20.983,414.068 43.899,404.025 20.456,410.485 53.47,397.895 50.278,397.528    20.927,404.797 46.099,395.934 44.691,394.885 49.639,392.212 20.604,397.702 22.44,395.53 24.352,393.407 34.468,389.766    49.811,385.489 33.631,386.834 51.353,382.64 12.865,386.598 50.04,380.235 28.326,381.303 50.04,377.653 29.679,378.02    37.928,375.903 41.546,374.259 27.786,373.418 22.325,371.988 40.188,370.093 12.187,368.68 48.595,367.153 34.167,365.627    28.702,364.102 43.646,362.575 36.266,361.049 38.074,359.522 12.998,357.996 30.649,356.47 34.758,354.942 36.304,353.416    24.311,351.889 29.397,350.36 48.738,348.833 45.536,347.304 23.657,345.776 49.91,344.248 47.942,342.721 36.313,341.193    28.428,339.666 49.689,338.14 19.384,336.612 35.579,335.086 11.12,333.559 47.311,332.032 11.043,330.506 21.004,328.979    23.925,327.452 14.689,325.925 50.779,324.398 15.869,322.872 22.918,321.345 26.754,319.816 44.241,318.288 13.235,316.761    45.612,315.234 47.305,313.708 15.506,312.183 18.169,310.657 15.622,309.133 29.79,307.609 34.209,306.085 36.762,304.562    28.188,303.038 31.756,301.516 32.889,299.992 20.685,298.47 30.309,296.946 21.715,295.423 18.343,293.899 36.068,292.376    29.225,290.853 37.187,289.327 40.698,287.803 25.399,286.277 23.031,284.751 12.663,283.224 23.974,281.695 31.229,280.167    27.125,278.637 16.247,277.108 21.878,275.58 50.429,274.053 30.286,272.525 13.706,271 42.588,269.474 27.738,267.948    14.095,266.423 18.697,264.897 46.264,263.372 37.361,261.847 29.482,260.32 27.933,258.794 19.045,257.268 41.36,255.74    24.116,254.211 39.992,252.682 47.293,251.152 33.596,249.622 14.414,248.093 36.564,246.565 15.796,245.037 37.97,243.51    15.909,241.983 24.875,240.456 13.736,238.929 49.699,237.401 45.724,235.874 20.021,234.345 32.11,232.815 28.402,231.285    50.905,229.754 25.982,228.225 36.41,226.696 31.729,225.167 36.372,223.639 14.046,222.111 38.278,220.582 38.288,219.053    46.214,217.523 37.426,215.991 49.892,214.461 28.604,212.931 32.108,211.402 40.774,209.873 24.843,208.344 32.901,206.813    22.592,205.283 23.39,203.751 29.244,202.221 34.417,200.691 26.94,199.161 34.835,197.631 26.818,196.1 37.008,194.568    47.415,193.043 21.728,191.516 41.733,189.986 25.812,188.454 33.602,186.924 44.455,185.396 42.903,183.869 49.703,182.341    32.639,180.813 42.555,179.282 33.543,177.749 34.295,176.219 49.019,174.689 27.533,173.159 49.698,171.626 34.25,170.094    27.777,168.563 41.836,167.031 31.5,165.497 13.606,163.965 34.779,162.431 42.753,160.898 30.93,159.363 22.94,157.833    47.865,156.303 49.989,154.768 39.789,153.235 22.045,151.7 32.606,150.164 35.663,148.629 21.672,147.091 16.923,145.551    36.427,144.011 15.482,142.268 31.709,140.958 39.908,139.76 15.01,137.001 20.062,135.586 47.87,136.152 41.517,134.23    44.039,133.096 44.124,131.728 37.184,129.406 22.754,125.76 31.324,125.475 14.706,120.926 40.872,124.153 36.016,121.692    21.298,116.9 32.076,117.685 43.037,118.817 26.845,113.065 46.243,116.782 50.977,116.744 44.974,113.509 18.196,103.326    24.589,103.603 52.143,111.577 31.167,102.382 50.776,108.222 38.057,101.634 26.702,95.195 43.375,100.566 40.185,97.493    40.084,95.738 25.636,86.998 27.947,86.155 39.65,90.25 26.94,81.606 51.654,93.262 37.128,83.29 34.639,79.873 62.047,94.579    42.76,80.906 49.029,83.038 61.527,89.532 36.783,70.89 64.403,88.282 53.305,78.563 63.483,84.296 38.656,63.43 42.606,64.259    69.269,83.733 45.302,61.949 45.402,59.725 55.195,66.041 66.898,74.518 59.417,65.586 57.665,61.726 68.862,70.505 77.523,77.257    69.77,67.317 80.32,76.49 70.683,64.003 76.698,68.575 74.749,64.202 81.214,69.69 77.068,62.494 69.355,50.432 86.238,69.703    80.689,60.146 78.005,54.02 84.926,61.182 74.408,43.411 78.094,45.936 87.928,58.175 93.001,63.634 92.826,60.85 86.315,47.208    94.93,59.183 92.607,52.228 84.907,34.836 83.627,28.702 94.363,46.149 94.664,43.342 99.431,49.93 93.555,33.454 97.903,39.3    103.667,49.044 108.838,58.144 96.456,22.583 104.175,38.289 105.31,36.884 105.587,32.872 112.008,47.461 108.654,31.934    116.414,52.643 112.954,35.413 117.26,45.668 112.526,20.994 114.82,23.17 116.934,24.877 119.575,29.419 125.722,52.891    120.358,15.617 127.47,47.939 129.061,49.564 130.206,48.286 131.028,44.167 129.285,15.314 131.932,24.519 135.261,45.309    134.42,12.68 136.97,26.636 139.384,46.706 140.014,20.279 141.59,11.823 143.392,32.345 144.919,13.422 146.446,27.856    147.974,36.612 149.501,46.045 151.029,23.807 152.556,46.062 154.084,40.721 155.612,45.473 157.14,22.91 158.668,44.065    160.197,36.591 161.726,27.088 163.255,23.184 164.785,50.76 166.314,42.389 167.843,23.441 169.372,18.121 170.901,23.293    172.429,20.681 173.957,32.497 175.485,41.847 177.013,14.342 178.541,12.357 180.069,27.512 181.597,48.308 183.125,36.784    184.653,49.531 186.182,36.221 187.71,23.823 189.238,44.558 190.767,51.182 192.297,18.042 193.826,46.758 195.355,28.433    196.883,45.284 198.41,48.108 199.937,28.034 201.463,45.471 202.989,41.153 204.514,16.826 206.039,46.268 207.564,20.88    209.088,15.802 210.613,33.743 212.137,51.264 213.661,21.069 215.186,18.01 216.71,24.447 218.234,49.61 219.759,36.604    221.285,13.886 222.811,29.287 224.337,26.138 225.864,13.849 227.391,37.667 228.919,12.612 230.449,34.998 231.979,14.017    233.51,31.493 235.04,51.333 236.569,34.081 238.098,38.411 239.626,17.926 241.153,31.504 242.681,16.562 244.208,38.559    245.734,28.949 247.261,41.735 248.788,13.293 250.314,50.053 251.841,35.197 253.369,32.116 254.897,39.813 256.426,48.785    257.955,19.176 259.485,47.465 261.018,41.714 262.548,28.366 264.078,36.217 265.608,43.605 267.137,32.113 268.665,17.467    270.193,46.909 271.722,35.449 273.25,34.993 274.779,15.827 276.309,44.77 277.838,25.627 279.369,28.141 280.9,47.688    282.433,22.908 283.963,22.413 285.493,19.458 287.023,31.394 288.553,23.403 290.082,35.69 291.612,50.367 293.143,23.927    294.674,13.187 296.206,39.727 297.738,20.086 299.27,19.094 300.8,30.149 302.33,31.487 303.86,44.516 305.392,18.159    306.924,23.228 308.456,13.246 309.988,43.471 311.519,31.625 313.05,30.241 314.582,28.247 316.114,30.038 317.646,50.953    319.174,37.195 320.702,38.16 322.232,35.787 323.767,48.943 325.297,42.833 326.826,51.079 328.355,25.58 329.884,47.552    331.414,32.161 332.946,48.83 334.48,15.765 336.012,31.859 337.542,22.718 339.074,42.31 340.607,29.451 342.142,28.981    343.674,47.324 345.207,43.637 346.742,22.66 348.275,50.635 349.811,37.052 351.345,43.836 352.881,15.089 354.412,18.137    355.943,28.218 357.48,24.825 359.014,39.218 360.55,48.571 362.088,17.063 363.623,14.458 365.163,21.538 366.704,20.875    368.246,45.948 370.026,13.356 370.836,49.675 372.488,40.689 373.685,44.922 375.206,42.47 378.478,19.319 377.996,42.573    378.379,51.939 383.608,19.627 383.435,33.587 385.781,28.208 389.331,16.442 388.081,33.566 390.152,30.921 394.114,19.549    389.876,46.782 391.355,46.438 391.41,51.849 399.714,25.533 398.846,34.877 401.435,31.567 404.976,25.527 407.648,22.801    408.799,24.834 401.544,50.401 409.53,32.764 407.339,42.933 415.532,26.535 405.688,54.551 418.291,28.881 406.987,58.096    413.11,48.048 411.118,55.478 418.716,43.329 426.741,31.199 423.413,41.081 418.096,53.96 423.129,48.001 431.976,35.986    434.55,35.039 418.818,63.388 439.312,34.095 435.696,42.75 425.944,59.899 432.059,53.661 431,57.686 436.755,52.425    443.078,46.765 445.749,46.099 445.99,48.499 443.302,54.333 442.863,57.293 445.926,56.189 437.255,68.119 452.82,53.494    439.749,69.562 452.509,58.631 462.146,51.417 437.449,77.643 462.004,56.473 460.315,60.381 456.241,66.253 463.03,62.522    446.239,78.82 442.322,83.807 457.897,73.122 464.248,70.196 443.025,88.161 469.835,70.217 446.488,88.84 451.55,86.952    449.003,90.31 451.498,90.269 461.005,85.889 454.733,91.455 465.654,86.612 454.213,94.949 461.601,92.396 470.643,89.187    479.652,86.293 481.296,87.375 467.543,95.979 479.003,92.279 484.877,91.445 483.033,94.163 486.932,94.382 470.188,103.025    458.163,109.283 481.793,101.91 481.885,103.636 466.796,110.505 466.886,111.974 472.856,111.604 463.04,116.052 460.105,118.27    477.309,115.061 465.068,119.72 482.166,117.079 467.685,121.919 490.408,118.646 476.426,123.07 474.283,124.979 490.397,123.82    464.653,129.403 489.807,127.309 483.718,129.749 499.792,129.603 480.055,133.286 478.417,134.958 466.695,137.267    461.018,138.911 491.618,138.961 476.527,141.047 475.348,142.55 493.574,144.011 495.998,145.537 485.146,147.063    480.639,148.589 489.405,150.115 498.228,151.642 462.146,153.168 495.254,154.694 488.375,156.221 469.09,157.748    469.408,159.275 484.711,160.802 494.758,162.33 471.429,163.858 468.678,165.386 492.955,166.915 475.116,168.442 471.328,169.97    476.713,171.497 468.168,173.024 498.625,174.551 490.208,176.078 491.117,177.604 495.221,179.131 481.209,180.658    494.188,182.185 498.112,183.711 481.003,185.239 494.771,186.766 476.953,188.293 493.522,189.82 478.909,191.348    462.738,192.876 492.409,194.404 468.212,195.932 498.701,197.458 483.206,198.984 493.331,200.51 489.218,202.035    468.015,203.559 480.878,205.083 492.285,206.607 467.842,208.13 471.771,209.653 469.112,211.177 461.071,212.7 465.944,214.223    495.699,215.746 483.286,217.269 484.931,218.792 491.697,220.316 480.28,221.84 466.733,223.364 467.755,224.889 476.021,226.415    471.313,227.941 490.52,229.468 464.579,230.996 461.002,232.525 473.379,234.055 468.286,235.583 497.583,237.112    491.493,238.639 472.44,240.166 467.434,241.692 491.85,243.218 481.171,244.744 473.839,246.269 497.871,247.794 467.16,249.32    464.299,250.845 461.924,252.371 479.598,253.897 462.035,255.424 464.45,256.952 487.581,258.48 470.369,260.009 486.292,261.539    471.42,263.069 469.894,264.599 494.688,266.127 498.385,267.654 477.593,269.182 478.203,270.709 495.359,272.235    463.741,273.763 465.033,275.29 480.803,276.818 468.902,278.347 490.38,279.876 494.498,281.407 486.521,282.938 466.015,284.467    498.03,285.996 467.677,287.524 465.455,289.053 478.373,290.58 497.023,292.109 473.876,293.639 495.089,295.169 493.019,296.7    493.206,298.23 492.402,299.76 478.042,301.289 495.558,302.818 495.11,304.348 481.904,305.878 477.734,307.408 463.457,308.939    479.637,310.47 467.924,312 498.166,313.53 490.655,315.061 472.518,316.592 499.884,318.123 474.098,319.648 484.744,321.176    479.779,322.705 488.788,324.237 497.878,325.767 498.01,327.295 466.481,328.822 476.888,330.35 489.149,331.878 493.511,333.409    478.97,334.941 470.521,336.472 493.706,338.002 487.518,339.531 466.885,341.064 467.431,342.597 497.73,344.128 469.516,345.66    461.201,347.193 489.782,348.726 463.684,350.26 481.034,351.793 464.525,353.327 494.117,354.857 474.08,356.388 494.562,357.923    469.903,359.455 489.53,360.99 489.393,362.526 473.778,364.062 484.41,365.599 488.365,354.703  " style="fill:#00ABE3;"/><g><path d="M153.099,210.29c0.055,13.201,0.311,26.494,0.384,39.75c0.018,14.28,0.055,28.555,0.055,42.834    c0,79.938,73.445,102.61,87.525,102.61c14.107,0,69.282,1.279,79.245,1.279c9.981,0,38.571-2.614,38.571-31.229    c0-28.632-20.292-38.908-33.987-38.908H270.1c-38.981,0-45.203-17.059-45.203-32.874c0-7.515,0.476-19.893,0.942-35.064h91.55    c13.714,0,39.824-5.558,39.824-30.351c0-24.775-12.049-41.029-28.215-41.029H226.983c-0.11-35.745-2.461-71.38-37.756-71.38    c-14.602,0-26.449,5.942-31.435,20.679c-6.56,19.344-4.821,42.017-4.748,62.166C153.081,202.611,153.099,206.451,153.099,210.29z" style="fill:#FFFFFF;"/></g></g><g id="Layer_1"/></svg>