<?xml version="1.0" ?><!DOCTYPE svg  PUBLIC '-//W3C//DTD SVG 1.1//EN'  'http://www.w3.org/Graphics/SVG/1.1/DTD/svg11.dtd'><svg height="512px" style="enable-background:new 0 0 512 512;" version="1.1" viewBox="0 0 512 512" width="512px" xml:space="preserve" xmlns="http://www.w3.org/2000/svg" xmlns:xlink="http://www.w3.org/1999/xlink"><g id="social__x2C__media__x2C__social_media__x2C___pintrest__x2C_"><polygon points="466.298,368.662 486.366,370.273 465.403,371.326 490.904,373.682 467.374,374.1    468.924,375.555 488.3,378.518 491.019,380.427 483.575,381.311 465.347,380.668 461.336,381.473 460.159,382.601 486.454,388.208    461.077,385.329 484.013,391.075 466.419,389.084 470.642,391.411 481.357,395.41 467.022,393.457 491.205,401.313    492.094,403.358 485.941,403.389 493.105,407.357 481.619,405.507 493.473,411.263 482.655,409.331 492.039,414.587    485.71,414.083 487.481,416.647 486.078,417.956 478.471,416.557 481.429,419.696 478.543,420.216 484.255,424.839    470.423,419.854 451.404,411.735 463.018,419.414 468.576,424.185 477.544,431.129 452.415,418.257 468.557,429.674    449.071,419.312 462.815,429.773 450.797,423.592 447.138,422.728 473.567,443.036 444.302,423.877 451.246,430.702    442.255,425.559 460.627,441.751 466.021,448.229 460.797,446.095 464.673,451.608 456.203,446.433 464.766,456.402 437.4,433.241    446.342,443.624 451.608,450.898 448.719,450.248 434.714,437.905 441.698,447.313 445.493,453.678 434.029,443.079    449.671,463.343 448.354,464.426 448.542,467.355 448.756,470.422 427.756,446.038 431.463,453.232 436.069,462.02    440.975,471.688 440.495,474.052 420.613,447.347 427.404,460.224 426.935,462.276 426.938,465.186 424.127,463.455    422.19,463.105 429.204,478.851 414.763,455.523 417.36,463.456 426.042,484.026 413.516,462.223 414.586,467.854 422.543,489.188    416.791,480.447 413.328,476.478 413.71,481.721 412.863,484.109 404.265,465.785 405.482,473.443 401.992,467.887    396.851,456.715 399.367,469.078 401.687,482.07 401.856,488.662 393.9,465.256 394.427,472.991 395.422,483.635 394.666,487.707    387.21,459.823 387.993,470.647 388.356,480.763 386.758,480.63 387.142,493.674 385.707,495.833 381.872,478.978 380.174,477.416    379.126,482.208 377.631,483.088 376.446,488.858 373.584,466.142 373.169,489.229 371.101,473.43 369.841,486.609    368.229,475.064 366.701,464.815 365.174,476.012 363.646,489.386 362.119,464.972 360.592,469.553 359.064,499.692    357.537,482.026 356.01,461.605 354.481,496.183 352.953,498.721 351.425,470.369 349.896,480.239 348.366,494.323    346.837,474.032 345.308,478.703 343.778,493.678 342.25,464.438 340.722,470.706 339.193,486.81 337.665,474.568 336.138,467.069    334.609,472.972 333.082,482.985 331.554,483.411 330.026,493.719 328.498,498.043 326.97,469.348 325.441,473.528    323.913,485.628 322.385,490.027 320.856,475.647 319.327,464.23 317.798,486.692 316.27,475.167 314.741,497.84 313.214,473.44    311.688,496.764 310.161,499.659 308.636,497.687 307.11,501.016 305.586,491.6 304.062,491.29 302.537,499.614 301.013,474.026    299.488,495.7 297.964,486.174 296.44,481.093 294.916,485.243 293.392,494.285 291.866,481.792 290.342,492.775 288.815,476.064    287.29,470.659 285.763,477.635 284.235,464.648 282.707,495.161 281.178,475.228 279.648,484.646 278.117,494.471    276.587,484.056 275.058,492.387 273.529,464.766 272.002,474.693 270.474,480.932 268.947,491.57 267.42,461.802 265.894,494.181    264.367,473.867 262.841,468.68 261.314,484.859 259.787,470.914 258.26,474.795 256.732,464.152 255.203,485.618 253.674,491.993    252.144,485.398 250.612,483.928 249.081,470.679 247.551,477.121 246.021,486.222 244.493,469.541 242.964,490.246    241.436,481.887 239.908,480.229 238.38,483.632 236.851,464.371 235.322,497.033 233.792,482.068 232.262,497.063 230.73,468.048    229.198,500.017 227.667,484.284 226.138,463.949 224.608,476.366 223.079,495.06 221.549,491.739 220.02,470.83 218.489,471.002    216.958,497.989 215.425,495.483 213.894,486.214 212.363,469.287 210.833,482.075 209.302,477.333 207.772,496.783    206.241,497.104 204.708,481.146 203.176,476.397 201.645,476.474 200.114,466.856 198.583,466.21 197.051,488.812 195.519,494.71    193.986,461.777 192.46,471.849 190.932,471.913 189.401,490.018 187.868,467.802 186.336,468.623 184.808,464.145    183.279,495.285 181.75,494.279 180.221,497.752 178.688,491.878 177.155,480.911 175.623,484.76 174.093,484.291 172.562,474.473    171.027,482.097 169.494,479.105 167.962,485.094 166.429,478.763 164.894,496.524 163.36,468.186 161.825,467.778    160.291,494.263 158.756,498.679 157.224,482.399 155.693,496.969 154.157,480.315 152.623,497.063 151.087,475.262    149.549,464.033 148.014,496.458 146.475,500.544 144.933,463.35 143.392,476.616 142.041,467.212 140.346,480.061    138.675,483.699 137.086,483.987 136.28,472.408 134.895,471.869 133.643,470.154 129.55,494.951 130.245,474.957 129.559,469.186    125.058,489.765 124.207,484.631 120.515,496.193 120.466,487.071 119.968,481.317 121.921,465.243 118.796,472.596    113.105,489.303 110.164,493.746 107.706,496.016 111.167,477.845 108.85,480.082 102.976,493.036 105.71,479.403 105.509,475.194    99.206,487.768 96.837,489.052 108.343,455.768 98.91,474.968 97.388,474.516 104.526,454.856 101.99,457.231 97.685,463.06    88.816,477.541 96.979,458.187 98.055,453.271 94.256,457.43 79.971,479.592 83.978,469.389 76.085,479.28 86.298,459.686    80.396,466.107 71.732,476.253 79.947,461.16 77.268,462.296 76.499,460.692 86.504,444.733 67.087,467.83 69.017,462.639    76.033,451.428 61.245,466.812 76.953,445.89 62.937,459.635 56.19,464.588 76.053,440.725 73.575,441.371 53.708,459.546    72.278,438.767 50.603,457.698 69.412,437.712 63.199,441.498 68.576,434.756 50.814,448.26 52.097,445.005 49.717,444.848    53.097,440.071 68.41,426.287 64.383,427.688 61.176,428.36 66.524,422.883 44.146,436.689 62.696,422.333 46.244,431.418    62.635,419.242 57.797,420.67 60.831,417.288 45.604,424.508 47.7,421.588 28.474,430.223 37.162,423.695 50.813,415.013    34.622,421.296 39.823,417.038 39.984,415.252 26.076,419.612 35.438,413.799 34.102,412.615 51.479,404.167 28.395,411.303    21.422,412.005 39.654,403.936 46.559,400.12 43.687,399.556 52.553,395.46 39.293,397.828 52.096,392.916 50.201,392.052    45.561,391.802 49.686,389.486 28.906,392.445 16.274,393.259 21.816,390.464 21.907,388.745 38.483,384.555 30.071,384.238    39.372,381.524 24.064,381.747 22.939,380.209 37.473,377.372 33.737,376.168 21.119,375.341 20.277,373.703 20.192,372.03    44.593,370.018 34.875,368.662 15.004,367.136 19.67,365.61 50.555,364.084 33.586,362.559 18.462,361.032 47.27,359.506    39.018,357.979 25.964,356.453 47.101,354.927 31.685,353.399 47.698,351.872 18.941,350.345 40.413,348.816 11.496,347.289    50.177,345.761 37.488,344.232 22.816,342.705 42.125,341.178 20.007,339.651 25.777,338.124 33.347,336.598 25.852,335.071    46.945,333.545 28.274,332.018 46.847,330.491 13.662,328.965 39.028,327.438 29.498,325.91 50.385,324.383 27.611,322.856    44.276,321.329 11.206,319.801 18.664,318.273 32.512,316.746 45.739,315.22 45.743,313.693 32.161,312.168 25.646,310.644    23.663,309.119 24.32,307.595 41.743,306.071 33.287,304.548 18.513,303.025 38.967,301.502 43.542,299.979 22.767,298.456    28.604,296.934 16.896,295.41 47.776,293.887 38.837,292.363 36.093,290.84 26.049,289.314 45.347,287.79 13.073,286.265    35.076,284.738 50.557,283.212 35.888,281.684 35.09,280.155 35.553,278.625 14.875,277.097 41.067,275.568 14.288,274.041    36.995,272.515 15.35,270.988 46.863,269.463 40.903,267.938 25.272,266.412 17.937,264.887 38.583,263.361 15.107,261.836    26.693,260.311 20.858,258.784 32.358,257.258 12.898,255.73 32.903,254.202 20.924,252.673 26.882,251.143 37.543,249.613    30.386,248.084 22.279,246.556 19.123,245.028 25.312,243.501 28.337,241.975 26.317,240.448 47.782,238.92 34.266,237.393    38.637,235.865 41.523,234.337 48.221,232.808 44.835,231.277 21.681,229.747 11.983,228.217 42.642,226.688 20.949,225.16    31.83,223.632 23.314,222.104 49.24,220.576 20.46,219.046 16.213,217.517 44.771,215.985 34.089,214.455 43.615,212.925    20.637,211.396 46.272,209.867 49.522,208.338 48.322,206.808 16.363,205.277 29.099,203.746 42.733,202.216 20.97,200.687    21.486,199.157 49.014,197.626 38.375,196.095 11.541,194.564 50.678,193.039 50.555,191.512 18.885,189.982 21.764,188.45    47.034,186.92 31.245,185.393 46.295,183.866 15.074,182.338 49.787,180.81 34.485,179.279 29.278,177.746 17.116,176.216    31.625,174.687 49.854,173.157 39.182,171.624 15.546,170.092 19.372,168.561 39.594,167.029 18.785,165.495 27.875,163.963    11.774,162.43 50.005,160.896 27.559,159.362 46.107,157.832 28.145,156.302 26.529,154.767 27.136,153.234 26.945,151.7    41.625,150.163 11.233,148.629 30.793,147.091 36.265,145.551 50.799,144.011 21.496,142.349 20.684,140.664 36.74,139.633    43.566,138.542 48.756,137.521 16.733,133.619 27.258,132.877 26.683,131.213 35.601,130.688 20.043,127.072 22.423,125.71    34.436,125.986 30.263,123.708 16.169,119.393 21.854,118.76 51.533,123.591 17.937,114.353 39.723,117.988 17.676,110.635    43.941,116.138 25.257,109.16 48.951,114.742 27.5,106.35 27.723,104.669 41.236,107.7 46.323,108.013 45.171,106.052    51.404,107.01 31.214,97.085 35.143,96.985 55.464,104.396 40.766,96.057 50.835,99.224 49.84,97.155 41.603,91.264 56.372,97.422    53.76,94.431 60.743,96.817 45.271,86.161 46.65,85.18 42.295,80.613 50.813,84.194 40.523,75.518 46.751,77.747 35.602,67.897    54.951,79.763 39.4,66.234 41.118,65.328 62.582,80.099 43.764,62.94 44.349,61.15 49.474,63.232 53.922,64.913 68.59,76.057    52.307,58.935 70.548,74.106 52.049,53.895 59.942,59.413 75.877,73.686 56.886,51.384 68.764,61.889 71.572,62.776 62.89,50.407    79.552,67.702 70.634,54.585 68.574,49.444 78.348,59.449 70.431,46.43 79.613,56.233 69.78,39.748 85.949,60.225 83.862,54.593    83.064,50.656 76.528,37.388 94.427,63.481 88.572,51.034 96.944,62.706 85.853,40.042 98.784,60.727 94.231,49.142    100.107,57.608 100.689,55.775 88.413,26.367 91.616,29.155 104.913,55.436 98.265,36.122 101.234,39.227 103.285,40.257    102.563,33.938 111.565,54.499 113.435,55.973 105.161,26.369 110.818,38.934 107.34,21.781 115.502,44.532 117.091,45.027    118.928,46.614 120.934,49.153 118.318,31.142 117.954,21.569 119.057,18.269 120.952,18.946 125.011,32.939 126.519,32.622    127.667,29.65 130.83,42.541 131.403,34.852 133.365,39.635 134.36,34.174 134.55,14.611 137.992,45.576 138.01,12.448    140.079,22.726 141.747,23.569 143.392,43.56 144.919,15.769 146.446,33.922 147.974,26.9 149.5,38.874 151.028,25.355    152.556,26.472 154.083,23.115 155.611,21.187 157.139,28.801 158.667,14.503 160.195,29.333 161.724,21.833 163.253,24.722    164.783,43.575 166.313,25.742 167.841,18.702 169.37,33.865 170.898,46.726 172.427,11.774 173.955,33.07 175.482,16.205    177.011,39.236 178.538,17.526 180.066,26.976 181.594,47.632 183.122,50.813 184.65,14.166 186.179,29.897 187.707,50.003    189.235,13.939 190.764,47.072 192.293,23.473 193.822,28.312 195.351,47.15 196.879,15.451 198.406,13.02 199.933,28.708    201.458,31.986 202.984,22.212 204.509,14.599 206.034,51.124 207.559,42.359 209.083,37.791 210.607,26.38 212.131,50.278    213.656,45.096 215.18,41.737 216.704,33.047 218.229,18.761 219.753,30.403 221.279,25.779 222.804,32.003 224.331,46.009    225.857,31 227.385,22.107 228.913,50.132 230.442,26.86 231.972,28.678 233.503,20.667 235.033,19.836 236.562,33.498    238.09,47.033 239.619,19.169 241.146,43.145 242.673,24.474 244.2,29.108 245.726,29.584 247.253,32.598 248.779,24.617    250.306,38.727 251.833,44.882 253.36,17.69 254.888,49.533 256.417,24.233 257.946,29.746 259.477,25.615 261.008,28.477    262.539,43.41 264.069,19.028 265.599,25.034 267.128,39.322 268.656,28.313 270.185,27.683 271.712,41.675 273.24,29.398    274.77,28.791 276.298,15.939 277.828,14.443 279.358,15.941 280.891,13.409 282.422,13.456 283.952,20.862 285.482,19.884    287.012,46.561 288.541,46.211 290.07,40.533 291.601,46.784 293.131,40.487 294.662,49.875 296.194,45.407 297.727,48.582    299.257,20.982 300.787,13.419 302.317,25.604 303.848,19.995 305.379,25.509 306.911,16.713 308.444,19.523 309.976,43.255    311.506,12.489 313.037,45.848 314.568,37 316.102,34.95 317.634,20.523 319.16,49.941 320.688,24.261 322.219,48.752    323.753,36.271 325.283,43.194 326.813,39.434 328.341,47.717 329.87,49.763 331.399,35.919 332.932,27.34 334.466,39.976    335.997,35.875 337.527,38.302 339.059,42.347 340.593,51.521 342.126,20.733 343.658,40.647 345.191,28.002 346.727,29.853    348.26,11.792 349.795,13.869 351.329,42.239 352.864,32.229 354.396,30.316 355.927,33.958 357.464,36.85 358.997,32.297    360.533,25.061 362.071,14.174 363.606,40.026 365.146,18.803 366.687,25.853 368.229,28.749 369.51,50.7 371.071,40.227    372.664,35.943 374.36,31.954 377.122,13.672 377.665,29.156 379.94,21.793 380.108,35.837 383.139,23.291 385.337,19.484    387.225,18.482 386.96,30.819 385.922,45.6 390.16,30.796 391.844,30.44 392.976,32.668 395.479,28.834 395.661,34.784    399.32,26.963 402.777,20.742 397.629,44.452 402.1,34.792 406.11,27.498 408.031,27.036 411.443,22.494 408.943,34.309    415.639,21.399 414.649,28.693 418.458,23.989 410.598,46.55 418.459,32.626 410.579,53.428 422.027,32.938 417.736,45.251    421.33,41.604 420.505,46.478 421.886,47.103 430.068,35.847 415.961,63.093 431.588,39.897 435.299,37.118 439.255,34.177    419.822,66.575 440.214,39.09 422.588,67.054 428.158,61.585 430.953,60.169 437.974,53.386 437.462,56.552 427.583,71.108    431.836,68.027 440.381,60.166 436.511,66.825 445.209,59.344 452.385,53.949 454.793,53.861 441.012,70.28 447.557,65.809    439.492,75.668 442.814,74.401 454.634,65.54 466.776,56.91 458.608,66.322 448.402,76.999 462.521,67.333 455.709,74.848    454.934,77.37 464.87,71.792 448.469,85.773 458.293,80.48 472.755,72.358 461.969,81.644 477.173,73.622 476.068,76.411    476.598,78.117 456.029,92.293 464.993,88.764 468.657,88.469 468.521,90.321 464.783,94.015 469.124,93.496 483.354,88.296    456.099,103.005 460.069,102.662 468.622,100.43 461.557,105.014 456.972,108.354 487.526,97.918 477.138,103.636 477.543,105.176    493.115,101.542 482.199,106.992 470.021,112.478 489.689,108.187 458.878,118.61 485.541,112.88 494.865,112.242 494.396,114.203    496.647,115.521 488.704,118.985 467.65,124.756 470.874,125.586 468.225,127.453 469.639,128.651 470.058,129.999    476.688,130.604 497.35,129.851 481.254,133.171 497.622,133.412 470.516,137.008 496.653,137.005 485.888,139.19 478.749,140.988    478.138,142.508 494.796,144.011 485.383,145.537 492.18,147.063 477.875,148.589 468.608,150.115 490.115,151.641    470.968,153.167 466.256,154.693 491.335,156.22 478.843,157.747 461.659,159.273 471.547,160.8 481.357,162.328 487.545,163.856    492.687,165.384 461.841,166.913 492.638,168.44 463.093,169.968 482.026,171.495 473.378,173.021 467.517,174.548    497.859,176.075 475.537,177.602 465.488,179.128 473.38,180.655 481.562,182.182 487.224,183.708 468.436,185.235    464.365,186.762 466.649,188.29 472.724,189.816 490.387,191.343 469.419,192.872 463.441,194.4 467.247,195.927 469.784,197.454    487.932,198.979 481.286,200.505 499.209,202.03 499.357,203.554 474.188,205.078 491.979,206.602 470.816,208.125    488.014,209.648 491.91,211.171 491.703,212.694 496.873,214.217 486.886,215.74 500.113,217.263 497.741,218.786 493.019,220.31    485.764,221.833 491.559,223.358 496.182,224.883 464.677,226.408 466.157,227.935 485.016,229.461 496.914,230.989    487.968,232.518 477.268,234.047 492.614,235.576 472.124,237.104 473.808,238.631 481.082,240.158 483.519,241.685 494.57,243.21    466.467,244.735 492.873,246.261 465.187,247.786 491.848,249.312 487.843,250.837 483.328,252.363 463.452,253.889    492.957,255.416 478.659,256.943 488.578,258.471 482.681,260 463.351,261.53 467.9,263.06 474.356,264.589 467.263,266.117    484.775,267.645 481.68,269.172 480.562,270.698 465.685,272.226 496.105,273.752 482.807,275.279 472.449,276.808    498.418,278.336 471.461,279.865 492.324,281.396 464.716,282.927 490.893,284.456 491.833,285.984 464.234,287.513    464.736,289.041 492.806,290.569 466.469,292.098 464.691,293.627 481.172,295.156 464.996,296.688 480.288,298.218    486.878,299.748 464.235,301.276 495.154,302.806 483.549,304.335 492.853,305.864 463.84,307.396 483.605,308.927    500.039,310.457 493.592,311.986 471.883,313.517 480.428,315.047 470.028,316.578 498.493,318.109 474.933,319.634    475.143,321.161 464.245,322.69 465.563,324.223 463.552,325.753 500.238,327.28 465.102,328.808 483.582,330.335 484.502,331.863    489.759,333.395 491.448,334.927 477.456,336.457 482.103,337.986 474.243,339.517 463.097,341.049 468.023,342.581    494.968,344.112 473.227,345.644 461.343,347.178 477.575,348.71 474.396,350.243 466.567,351.776 461.77,353.311 472.311,354.841    490.646,356.371 485.865,357.906 475.563,359.438 473.017,360.974 473.339,362.51 487.194,364.044 495.582,365.582 477.42,351.984     " style="fill:#EB1A22;"/><g><path d="M191.66,394.99c0.265,1.92,2.817,2.377,3.971,0.933c1.646-2.065,22.899-27.444,30.126-52.786    c2.041-7.186,11.719-44.338,11.719-44.338c5.81,10.695,22.753,20.094,40.766,20.094c53.63,0,90.004-47.265,90.004-110.559    c0-47.849-41.918-92.407-105.62-92.407c-79.246,0-119.216,54.962-119.216,100.763c0,27.737,10.869,52.416,34.151,61.648    c3.834,1.5,7.255,0.056,8.353-4.04c0.778-2.852,2.589-9.979,3.422-12.959c1.098-4.041,0.677-5.449-2.397-8.996    c-6.733-7.643-11.024-17.589-11.024-31.631c0-40.773,31.554-77.25,82.137-77.25c44.792,0,69.41,26.457,69.41,61.8    c0,46.533-21.289,85.784-52.87,85.784c-17.465,0-30.538-13.951-26.356-31.06c5.031-20.442,14.747-42.493,14.747-57.248    c0-13.201-7.337-24.208-22.496-24.208c-17.849,0-32.185,17.827-32.185,41.743c0,15.23,5.333,25.542,5.333,25.542    s-18.26,74.777-21.463,87.887C185.805,359.794,191.212,391.772,191.66,394.99z" style="fill:#FFFFFF;"/></g></g><g id="Layer_1"/></svg>