<?xml version="1.0" ?><!DOCTYPE svg  PUBLIC '-//W3C//DTD SVG 1.1//EN'  'http://www.w3.org/Graphics/SVG/1.1/DTD/svg11.dtd'><svg height="512px" style="enable-background:new 0 0 512 512;" version="1.1" viewBox="0 0 512 512" width="512px" xml:space="preserve" xmlns="http://www.w3.org/2000/svg" xmlns:xlink="http://www.w3.org/1999/xlink"><g id="social__x2C__media__x2C__social_media__x2C___devian_art__x2C_"><polygon points="481.697,368.68 464.033,369.993 495.34,372.144 468.427,372.797 467.486,374.122    494.404,377.287 466.501,376.759 461.846,377.674 479.006,380.831 497.041,384.581 464.229,381.884 469.036,383.949    496.676,389.919 488.984,390.337 489.617,392.165 475.22,390.911 463.156,389.782 487.99,396.994 462.517,392.342 464.854,394.345    457.556,393.705 479.535,401.508 467.213,399.353 461.237,398.896 489.873,410.035 460.282,401.388 465.059,404.579    473.623,409.407 463.154,406.849 458.268,406.32 487.417,420.469 464.936,412.247 477.77,419.865 459.62,412.896 474.156,421.741    456.755,414.525 453.141,414.122 451.771,414.874 469.785,426.692 463.053,424.564 456.234,422.161 463.228,428.226    452.401,423.019 458.969,429.063 468.479,437.415 451.044,427.093 449.331,427.566 470.687,445.271 443.853,426.769    451.077,434.186 453.98,438.42 456.563,442.555 463.916,450.964 459.507,449.368 456.939,449.279 439.554,435.247 437.102,434.757    461.271,460.438 461.031,462.77 436.063,439.333 434.311,439.404 445.482,453.671 453.518,465.127 446.089,459.191    449.673,466.021 435.997,451.946 435.883,454.167 446.161,469.978 428.281,448.984 445.295,474.724 440.827,471.501    427.014,454.383 431.563,463.78 428.511,461.936 438.447,480.661 418.124,450.695 424.641,464.326 418.014,455.799    423.701,468.896 417.566,460.754 415.304,459.48 413.623,459.265 425.127,486.177 423.185,486.232 410.55,462.538 409.273,463.118    416.759,484.684 403.609,456.539 404.529,462.56 401.605,458.609 403.992,469.226 398.029,456.218 407.298,488.89 405.632,489.314    398.35,470.687 398.336,476.049 397.367,478.341 394.932,474.988 395.33,483.221 396.153,494.416 394.732,496.238 388.402,472.75    388.118,479.394 388.215,489.45 385.271,481.125 381.63,465.852 383.043,488.521 378.617,462.979 380.554,497.192 375.857,460.927    376.938,496.099 373.635,466.933 373.27,491.507 371.166,475.576 369.943,492.793 368.237,482.113 366.71,483.647 365.183,471.289    363.655,475.094 362.128,500.202 360.601,484.23 359.073,474.148 357.546,491.532 356.018,462.667 354.49,483.288 352.962,464.044    351.434,490.653 349.904,486.192 348.376,477.251 346.846,474.327 345.316,468.194 343.788,466.613 342.259,480.086    340.73,482.708 339.202,468.797 337.674,492.167 336.146,484.724 334.618,494.697 333.091,498.728 331.563,477.441    330.035,481.132 328.507,480.881 326.979,465.863 325.45,489.275 323.922,497.281 322.395,489.269 320.865,483.192    319.336,495.871 317.807,489.241 316.278,473.966 314.75,492.082 313.223,490.349 311.696,486.679 310.17,481.438 308.645,461.558    307.12,480.01 305.595,499.991 304.07,495.579 302.546,479.856 301.021,492.559 299.498,475.322 297.974,462.886 296.449,474.482    294.925,490.511 293.4,483.745 291.876,478.943 290.351,477.044 288.825,465.075 287.299,470.797 285.772,497.488 284.245,489.093    282.717,480.726 281.188,472.691 279.657,463.308 278.127,465.236 276.597,461.725 275.067,465.399 273.539,470.215    272.011,469.766 270.483,491.863 268.956,472.871 267.43,485.346 265.903,483.045 264.376,498.639 262.85,500.669 261.323,481.044    259.796,473.915 258.269,493.146 256.741,481.206 255.212,475.564 253.683,494.375 252.153,476.914 250.621,476.919    249.09,483.862 247.56,492.762 246.031,466.96 244.502,487.536 242.974,479.709 241.445,481.712 239.917,470.274 238.389,467.771    236.86,490.378 235.331,477.125 233.801,499.026 232.271,461.643 230.739,485.17 229.208,484.404 227.677,497.718 226.147,499.684    224.617,499.017 223.088,468.2 221.559,473.539 220.029,485.292 218.499,492.394 216.967,461.938 215.435,461.178 213.903,476.479    212.372,468.838 210.842,473.34 209.312,493.333 207.781,469.252 206.25,471.278 204.718,462.226 203.186,488.18 201.654,488.885    200.123,498.439 198.592,486.833 197.061,465.036 195.528,495.337 193.996,482.591 192.469,494.883 190.941,479.494    189.41,469.054 187.877,489.856 186.346,495.689 184.816,489.229 183.288,463.424 181.76,484.367 180.23,469.507 178.698,461.794    177.164,470.105 175.632,497.477 174.102,470.419 172.57,495.596 171.037,483.504 169.503,463.319 167.971,478.968    166.438,465.319 164.903,490.647 163.37,481.938 161.835,500.818 160.301,483.084 158.765,492.692 157.233,491.244    155.702,467.678 154.166,486.517 152.632,484.316 151.096,469.047 149.559,476.742 148.023,485.061 146.484,497.272    144.942,466.427 143.401,484.885 141.669,495.699 140.51,474.265 139.091,473.584 137.65,473.738 134.48,499.168 134.304,479.358    130.89,499.459 130.935,482.268 128.559,488.848 126.486,491.742 128.411,467.54 124.474,483.06 126.529,462.495 120.191,488.558    123.238,465.538 114.783,497.478 120.122,466.979 119.681,463.052 115.132,475.057 109.682,488.987 112.958,471.793    108.542,481.097 107.35,479.566 110.334,465.816 111.661,457.907 103.765,475.484 103.458,471.957 94.806,489.422 93.235,488.576    103.107,461.386 101.192,462.272 89.331,484.327 97.841,462.742 89.269,476.661 82.549,486.018 92.167,464.275 94.733,456.596    78.964,481.41 90.571,458.231 94.176,449.584 90.273,453.371 77.24,471.005 72.323,475.387 71.841,473.01 69.989,472.615    79.945,455.971 79.148,454.578 69.69,464.465 84.17,443.506 65.881,463.911 59.865,468.479 67.422,456.983 57.994,465.252    60.916,459.407 78.091,438.56 73.388,441.571 64.242,448.886 71.77,439.279 52.703,455.711 57.953,448.443 54.679,449.266    48.482,452.573 60.03,440.338 50.326,446.511 59.082,437.236 50.875,441.847 61.806,431.385 64.646,427.498 62.29,427.55    41.047,440.914 48.457,433.745 62.638,422.399 52.605,427.313 56.083,423.385 58.773,420.099 62.26,416.459 46.863,423.803    48.839,420.969 44.962,421.378 40.33,422.066 53.039,413.911 58.977,409.506 57.832,408.62 37.089,416.577 56.279,406.484    26.991,417.359 20.859,417.967 24.482,414.629 44.199,405.454 42.073,404.678 37.792,404.585 50.986,398.691 28.576,404.252    33.735,401.02 25.72,401.644 52.209,392.894 30.6,396.977 30.906,395.274 27.495,394.413 52.717,387.538 13.893,393.738    47.144,385.974 37.186,386.251 12.597,388.458 49.368,381.628 21.599,383.72 44.799,379.516 28.171,379.729 37.042,377.424    39.195,375.817 18.364,375.506 30.806,373.298 13.326,372.234 31.725,370.207 18.469,368.68 32.259,367.153 50.354,365.627    41.587,364.102 24.11,362.575 12.404,361.049 24.335,359.522 50.64,357.996 27.831,356.47 27.505,354.942 47.183,353.416    24.342,351.889 20.182,350.36 23.442,348.833 48.138,347.304 45.131,345.776 21.1,344.248 17.917,342.721 14.781,341.193    29.348,339.666 17.636,338.14 15.454,336.612 22.128,335.086 21.269,333.559 46.607,332.032 38.904,330.506 38.523,328.979    38.008,327.452 40.915,325.925 41.179,324.398 37.073,322.872 19.018,321.345 38.298,319.816 40.967,318.288 41.394,316.761    13.963,315.234 11.247,313.708 46.183,312.183 34.391,310.657 42.693,309.133 36.84,307.609 28.914,306.085 38.837,304.562    41.071,303.038 25.252,301.516 35.579,299.992 18.504,298.47 46.427,296.946 45.7,295.423 16.088,293.899 28.59,292.376    36.359,290.853 28.528,289.327 15.739,287.803 24.186,286.277 14.642,284.751 42.25,283.224 33.582,281.695 35.542,280.167    38.007,278.637 44.241,277.108 31.028,275.58 38.894,274.053 17.517,272.525 23.857,271 34.451,269.474 31.563,267.948    28.311,266.423 36.73,264.897 15.505,263.372 40.126,261.847 41.455,260.32 48.979,258.794 12.94,257.268 50.359,255.74    11.651,254.211 50.093,252.682 19.652,251.152 27.752,249.622 34.557,248.093 33.25,246.565 18.702,245.037 17.305,243.51    27.462,241.983 21.782,240.456 12.092,238.929 11.37,237.401 47.083,235.874 20.587,234.345 26.008,232.815 14.3,231.285    18.2,229.754 31.197,228.225 16.306,226.696 32.638,225.167 26.926,223.639 49.275,222.111 17.977,220.582 19.603,219.053    32.313,217.523 23.281,215.991 22.352,214.461 22.625,212.931 30.082,211.402 13.062,209.873 45.787,208.344 42.678,206.813    42.208,205.283 47.113,203.751 33.583,202.221 14.153,200.691 46.114,199.161 37.256,197.631 22.895,196.1 14.04,194.568    17.221,193.043 49.5,191.516 48.368,189.986 29.143,188.454 38.621,186.924 49.813,185.396 14.261,183.869 30.1,182.341    11.586,180.813 23.571,179.282 16.807,177.749 40.952,176.219 40.714,174.689 27.434,173.159 20.559,171.626 33.001,170.094    27.406,168.563 32.376,167.031 12.457,165.497 11.723,163.965 25.477,162.431 36.663,160.898 17.402,159.363 45.472,157.833    12.612,156.303 27.476,154.768 19.042,153.235 44.729,151.7 31.437,150.164 29.974,148.629 49.557,147.091 40.663,145.551    33.945,144.011 22.54,142.362 12.221,140.438 11.82,138.633 23.212,137.447 37.112,136.735 20.571,133.936 47.43,134.792    25.612,131.097 22.804,129.122 17.249,126.69 16.66,124.839 47.39,128.115 31.73,123.97 17.28,119.605 49.979,124.582    31.481,119.154 27.417,116.586 19.134,112.827 49.245,119.007 42.171,115.642 30.868,110.813 46.033,113.836 42.344,111.173    23.227,103.13 28.133,103.037 47.788,108.554 42.501,105.018 23.912,95.928 31.764,97.314 33.252,96.158 37.981,96.495    49.426,100.116 41.739,94.808 46.351,95.399 35.641,88.162 41.542,89.452 59.425,97.578 61.671,97.36 35.2,80.198 53.922,89.613    60.42,92.013 57.736,88.677 53.687,84.3 44.969,76.521 64.838,88.591 57.886,81.899 52.258,75.875 49.849,72.054 44.957,66.119    50.895,68.749 43.254,60.222 59.666,72.008 70.759,79.82 48.767,58.007 56.848,63.177 69.689,73.275 67.403,69.055 77.805,77.527    65.059,62.398 54.764,49.105 63.34,55.908 56.779,46.037 59.547,46.52 83.665,72.622 66.599,49.617 61.612,40.649 63.2,39.751    78.13,56.713 74.406,49.059 90.129,68.535 87.228,62.078 90.075,63.907 72.263,33.95 90.538,59.699 85.024,48.026 85.446,45.722    86.369,44.196 88.033,43.962 81.129,27.774 86.558,34.33 101.989,61.356 96.575,47.274 103.105,57.788 104.03,56.668    102.805,50.564 96.033,30.774 106.581,52.492 108.973,54.957 101.011,29.732 107.946,44.285 111.059,48.957 111.348,45.404    114.032,49.301 111.173,34.788 112.736,34.604 110.529,20.195 119.007,46.903 119.846,44.5 116.99,25.087 117.818,20.866    122.923,38.322 124.824,40.61 122.632,18.382 124.684,20.345 126.509,21.051 128.063,19.808 129.855,20.489 132.596,31.422    135.031,42.354 135.86,33.895 136.465,17.107 138.7,29.421 140.033,20.661 141.602,12.05 143.401,17.707 144.928,34.755    146.456,34.512 147.982,42.513 149.51,41.869 151.037,12.102 152.565,22.516 154.092,41.475 155.62,16.129 157.148,19.177    158.676,50.014 160.205,30.588 161.733,50.239 163.263,18.627 164.792,41.692 166.321,26.782 167.851,21.064 169.379,26.979    170.908,19.191 172.436,48.748 173.964,13.495 175.492,14.526 177.02,22.428 178.547,43.671 180.075,26.869 181.603,29.845    183.131,33.34 184.659,37.956 186.188,15.72 187.716,42.658 189.244,40.801 190.772,35.673 192.302,33.557 193.832,18.806    195.36,45.464 196.888,48.494 198.415,28.449 199.942,41.093 201.468,23.27 202.993,20.869 204.519,19.146 206.043,29.718    207.568,46.38 209.092,34.174 210.617,40.517 212.141,36.085 213.665,20.277 215.189,33.604 216.713,27.002 218.238,23.718    219.763,35.801 221.288,21.551 222.813,22.901 224.339,30.029 225.866,34.836 227.394,41.208 228.922,48.177 230.451,22.705    231.981,28.439 233.512,14.156 235.042,48.571 236.571,24.442 238.1,46.127 239.627,35.708 241.155,18.759 242.682,19.802    244.209,15.091 245.735,31.703 247.262,47.32 248.788,17.921 250.315,28.09 251.842,20.559 253.369,12.218 254.897,24.827    256.426,38.744 257.955,44.309 259.485,35.623 261.017,19.12 262.548,43.024 264.078,12.351 265.607,26.741 267.137,44.76    268.665,25.652 270.193,41.715 271.721,21.468 273.249,34.713 274.778,50.171 276.307,17.531 277.837,47.58 279.367,39.212    280.899,51.445 282.431,37.51 283.961,24.211 285.491,32.367 287.021,29.318 288.55,24.129 290.079,24.398 291.609,50.898    293.14,42.213 294.671,48.34 296.203,49.41 297.735,38.709 299.266,19.387 300.796,48.467 302.326,43.615 303.856,31.098    305.388,30.61 306.92,48.132 308.452,18.67 309.984,12.293 311.515,32.029 313.046,36.88 314.577,15.738 316.11,40.133    317.643,46.937 319.169,17.312 320.697,14.498 322.228,51.574 323.762,40.22 325.292,22.44 326.821,37.724 328.35,22.831    329.878,45.237 331.408,47.027 332.94,40.133 334.475,17.867 336.006,41.851 337.536,16.668 339.067,30.308 340.602,38.995    342.135,24.397 343.667,18.354 345.2,14.393 346.735,13.329 348.269,38.323 349.804,36.261 351.338,50.356 352.873,28.87    354.404,24.237 355.936,16.533 357.473,41.527 359.006,33.916 360.542,48.145 362.08,24.8 363.615,38.205 365.154,33.617    366.695,36.598 368.237,40.171 369.714,36.055 371.155,37.397 372.686,35.609 374.494,29.643 375.348,40.245 377.512,31.153    378.99,31.954 379.016,46.053 383.128,23.48 384.293,27.211 384.729,35.173 386.4,34.281 389.258,26.921 390.916,26.899    393.888,20.572 389.642,47.774 394.338,33.72 397.129,28.946 398.851,28.773 396.51,43.217 403.852,23.325 401.357,37.216    406.396,26.636 406.861,30.504 408.194,31.66 405.817,42.759 401.812,57.194 415.505,26.582 413.388,36.125 408.629,51.101    406.771,58.58 418.293,36.949 418.425,40.384 413.713,53.288 413.662,56.394 428.768,31.094 416.42,56.981 422.842,48.49    425.954,46.173 433.051,37.491 420.057,61.402 426.855,53.347 440.012,36.265 440.801,38.241 424.784,63.941 427.905,61.922    431.776,59.075 445.677,43.392 448.012,43.228 451.396,41.836 449.451,46.974 438.099,62.823 449.284,52.374 432.163,73.722    453.248,53.036 433.822,75.732 442.826,68.443 453.371,60.078 458.583,57.329 458.927,59.345 442.226,76.844 447.131,74.312    460.357,64.817 452.89,73.244 445.39,81.313 440.906,86.59 468.362,67.033 449.328,83.447 444.126,88.959 455.509,82.458    469.43,74.649 472.401,74.681 476.037,74.357 456.086,88.981 447.38,95.936 464.324,87.396 476.647,82.091 458.815,93.93    479.175,84.603 456.743,98.193 466.018,95.057 457.313,100.947 468.152,97.354 488.757,89.688 478.298,96.216 463.498,104.202    483.877,97.512 489.288,97.236 485.696,100.458 486.288,102.069 477.331,106.921 466.101,112.229 467.928,113.129 480.784,110.821    462.202,117.683 481.606,113.923 465.773,119.541 487.082,115.926 470.317,121.344 494.607,117.762 485.286,121.363 471.68,125.45    488.569,124.12 472.887,128.163 488.527,127.492 466.016,131.908 480.54,131.69 477.938,133.487 472.411,135.439 471.352,136.951    460.826,138.922 489.752,139.035 489.191,140.708 463.477,142.703 482.386,144.011 481.381,145.537 474.872,147.063    469.267,148.589 494.639,150.115 487.394,151.642 497.752,153.168 499.973,154.694 495.396,156.221 498.558,157.748    499.15,159.275 466.831,160.802 498.194,162.33 480.345,163.858 497.637,165.386 466.367,166.915 496.106,168.442 471.288,169.97    487.641,171.497 480.881,173.024 462.995,174.551 497.271,176.078 483.713,177.604 480.593,179.131 493.601,180.658    498.071,182.185 461.737,183.711 493.663,185.239 483.693,186.766 482.424,188.293 488.354,189.82 470.357,191.348    491.573,192.876 467.854,194.404 469.828,195.932 467.606,197.458 462.129,198.984 461.521,200.51 491.629,202.035    500.195,203.559 494.739,205.083 478.325,206.607 499.956,208.13 464.851,209.653 496.243,211.177 492.539,212.7 496.468,214.223    483.483,215.746 480.242,217.269 479.189,218.792 477.471,220.316 471.783,221.84 473.98,223.364 481.478,224.889 488.808,226.415    479.494,227.941 494.058,229.468 500.445,230.996 467.692,232.525 488.559,234.055 472.201,235.583 463.158,237.112    482.761,238.639 495.408,240.166 472.397,241.692 465.671,243.218 483.56,244.744 483.643,246.269 480.576,247.794 466.989,249.32    490.758,250.845 473.354,252.371 468.126,253.897 470.311,255.424 498.289,256.952 493.336,258.48 490.505,260.009    487.765,261.539 498.717,263.069 462.437,264.599 482.153,266.127 484.943,267.654 463.034,269.182 466.305,270.709    469.014,272.235 481.425,273.763 486.19,275.29 495.772,276.818 499.851,278.347 483.573,279.876 489.54,281.407 493.122,282.938    497.668,284.467 465.854,285.996 491.526,287.524 492.514,289.053 492.449,290.58 476.912,292.109 477.795,293.639    460.783,295.169 476.474,296.7 486.661,298.23 482.021,299.76 464.889,301.289 463.457,302.818 490.652,304.348 468.691,305.878    492.252,307.408 472.784,308.939 487.946,310.47 469.08,312 470.228,313.53 500.055,315.061 488.754,316.592 481.685,318.123    490.98,319.648 475.211,321.176 488.098,322.705 468.369,324.237 467.989,325.767 469.506,327.295 481.727,328.822 477.445,330.35    470.448,331.878 472.525,333.409 500.564,334.941 464.973,336.472 481.804,338.002 480.565,339.531 499.908,341.064    485.511,342.597 468.688,344.128 497.565,345.66 479.644,347.193 463.555,348.726 466.491,350.26 469.882,351.793 471.744,353.327    496.954,354.857 487.823,356.388 476.141,357.923 491.257,359.455 463.506,360.99 480.109,362.526 473.407,364.062    487.078,365.599 481.955,366.707  " style="fill:#496759;"/><g><path d="M252.581,302.547l-35.442-73.79c63.619-18.723,116.754,19.583,116.754,19.583l-43.795,12.122    l-12.606-24.006c-11.875-2.23-25.396-2.944-39.769-0.476l29.814,62.106l128.813-38.025c0,0-46.713-75.203-186.056-50.921    c-0.824,0.165-1.546,0.365-2.351,0.493l-13.531-28.175l-40.099,4.699l16.357,34.264c-84.561,35.782-47.097,120.176-47.097,120.176    L252.581,302.547z M182.228,244.627l19.239,40.384l-42.98,11.866C158.487,296.878,146.054,268.739,182.228,244.627z" style="fill:#FFFFFF;"/></g></g><g id="Layer_1"/></svg>