<?xml version="1.0" ?><!DOCTYPE svg  PUBLIC '-//W3C//DTD SVG 1.1//EN'  'http://www.w3.org/Graphics/SVG/1.1/DTD/svg11.dtd'><svg height="512px" style="enable-background:new 0 0 512 512;" version="1.1" viewBox="0 0 512 512" width="512px" xml:space="preserve" xmlns="http://www.w3.org/2000/svg" xmlns:xlink="http://www.w3.org/1999/xlink"><g id="social__x2C__media__x2C__social_media__x2C___linked_in__x2C_"><polygon points="494.015,368.68 492.063,370.367 500.49,372.281 495.159,373.869 468.525,374.178    460.847,375.042 466.956,376.797 481.724,379.56 463.459,379.145 477.802,382.217 471.533,382.89 487.058,386.659 464.07,384.546    475.539,387.938 468.417,388.085 489.796,393.925 475.596,392.522 470.624,392.9 464.592,392.861 481.483,398.747 481.958,400.538    480.302,401.736 479.039,403.016 490.884,408.528 467.23,402.339 458.148,400.611 469.689,406.299 477.235,410.803    481.195,414.123 455.714,405.249 489.092,421.197 467.956,413.611 456.068,409.687 474.017,419.875 476.812,423.08    453.013,412.563 473.413,425.014 455.477,416.914 474.503,429.403 480.821,435.081 449.536,418.067 466.801,430.475    460.921,428.554 461.283,430.606 464.543,434.702 456.327,430.833 462.369,437.061 472.548,446.689 457.304,437.166    469.302,448.638 455.645,439.772 442.862,431.067 460.688,448.178 444.345,435.933 439.216,433.113 448.621,443.728    459.534,456.308 448.854,448.182 440.88,442.301 459.159,463.396 434.104,439.177 449.456,458.038 447.846,458.705    429.618,440.031 435.538,449.104 432.938,448.188 449.32,471.135 442.136,464.733 423.904,443.13 438.202,464.95 433.888,461.656    442.846,477.481 419.927,446.308 435.405,472.589 429.981,467.121 434.495,477.585 417.425,452.093 420.433,460.017    426.305,473.58 417.933,461.434 428.51,484.957 422.771,477.49 421.191,478.042 408.036,453.822 406.666,453.926 419.988,487.755    406.218,459.435 406.001,462.509 407.935,471.334 412.765,488.694 407.896,480.22 401.434,466.219 405.447,483.146    402.734,479.933 399.204,473.581 397.864,474.335 393.928,465.313 396.196,480.019 392.382,470.658 393.312,481.504    389.382,470.289 386.929,465.037 389.695,488.186 388.91,493.617 382.819,464.68 381.059,461.594 383.648,493.407 380.941,484.355    379.819,489.349 376.362,467.102 376.748,493.14 373.77,469.29 373.128,487.763 370.995,468.823 369.867,487.327 368.246,472.813    366.719,496.875 365.191,468.145 363.664,478.294 362.137,495.606 360.609,493.673 359.082,470.154 357.555,473.573    356.027,495.361 354.499,478.991 352.971,498.79 351.442,478.176 349.914,492.156 348.385,487.434 346.854,480.109    345.325,493.467 343.797,489.75 342.268,468.984 340.739,494.287 339.211,478.107 337.683,483.664 336.155,488.402 334.627,477.65    333.1,487.496 331.571,487.478 330.044,468.766 328.516,476.044 326.987,467.96 325.459,488.577 323.931,485.397 322.402,490.773    320.874,481.99 319.345,464.606 317.815,476.439 316.287,498.369 314.759,480.712 313.231,491.872 311.705,496.318    310.179,485.445 308.653,479.9 307.128,476.939 305.604,498.338 304.079,479.867 302.555,495.735 301.03,462.707 299.506,492.686    297.982,499.515 296.458,496.589 294.934,480.16 293.409,466.051 291.884,479.856 290.359,487.072 288.833,497.086    287.308,469.169 285.78,461.616 284.253,500.602 282.725,474.998 281.196,498.464 279.666,499.764 278.135,496.721    276.605,485.505 275.076,498.121 273.547,495.076 272.02,499.456 270.492,497.385 268.965,468.775 267.438,489.54 265.911,492.916    264.385,465.615 262.858,489.104 261.332,466.82 259.805,490.422 258.277,493.606 256.75,476.542 255.221,479.063 253.692,493.404    252.162,499.881 250.63,493.421 249.099,461.276 247.569,476.3 246.04,480.463 244.511,464.703 242.982,474.541 241.454,473.735    239.926,478.226 238.398,473.653 236.869,499.29 235.34,466.206 233.811,470.423 232.28,461.613 230.748,479.926 229.216,500.537    227.686,485.699 226.156,498.19 224.626,462.016 223.097,461.348 221.567,481.78 220.038,488.073 218.507,483.31 216.976,489.794    215.444,495.13 213.912,480.75 212.381,499.839 210.851,465.811 209.321,473.808 207.791,489.357 206.259,488.339 204.727,470.136    203.195,464.777 201.663,464.924 200.132,486.268 198.602,482.338 197.07,486.921 195.537,492.255 194.005,470.619    192.479,471.114 190.95,480.999 189.419,493.706 187.886,476.852 186.355,493.109 184.826,467.824 183.297,467.094    181.769,499.119 180.239,476.485 178.707,465.889 177.173,464.011 175.642,493.086 174.111,465.526 172.58,499.679    171.046,494.771 169.513,462.577 167.98,482.49 166.447,489.954 164.912,486.229 163.379,471.303 161.844,462.99 160.31,477.241    158.774,478.783 157.243,480.908 155.711,461.137 154.175,489.755 152.641,468.729 151.105,496.603 149.568,500.688    148.032,467.042 146.493,482.271 144.952,481.614 143.41,468.478 142.024,470.562 140.169,487.374 138.776,481.643    138.068,466.218 136.314,472.29 133.477,489.629 134.533,460.762 129.331,497.144 130.469,473.27 125.499,499.038 125.101,489.669    127.466,464.813 122.987,482.416 123.069,473.629 122.457,469.362 119.593,475.814 119.851,468.16 114.647,483.238 117.552,465.93    114.651,471.218 107.698,489.735 106.558,487.531 105.51,485.271 101.786,491.016 99.927,490.956 100.276,484.919 97.605,487.149    96.755,484.593 100.573,471.031 101.178,465.827 104.902,454.064 91.437,479.839 93.403,471.936 84.937,485.352 90.941,469.873    87.369,473.231 98.625,449.576 82.278,475.604 81.138,474.246 88.453,459.001 89.858,454.061 84.138,460.352 81.762,461.23    84.122,455.105 67.764,475.797 75.944,461.484 67.441,470.228 74.781,457.855 68.121,463.802 79.53,447.144 82.802,441.08    76.205,446.784 63.768,458.72 63.969,456.062 57.118,461.035 60.723,454.789 61.238,451.938 56.539,454.334 57.245,451.343    62.347,444.342 64.98,439.9 48.565,452.499 67.502,433.905 56.828,441.067 67.042,430.752 40.791,449.85 47.625,442.327    59.503,431.365 68.339,423.155 36.043,444.468 38.742,440.438 57.574,425.774 47.757,430.457 54.234,424.551 44.146,429.02    52.464,422.263 62.301,414.977 48.183,421.337 61.818,412.323 35.009,424.842 52.316,414.272 52.905,412.445 57.664,408.701    43.396,413.731 47.938,410.118 40.144,411.847 31.442,413.708 24.969,414.448 41.328,406.521 54.395,400.298 38.272,404.423    24.861,407.188 24.327,405.574 39.897,399.206 18.679,403.616 19.378,401.597 34.847,395.916 49.353,390.927 41.104,391.401    35.847,391.028 41.484,388.418 25.279,389.87 31.8,387.138 41.174,384.165 18.241,385.869 21.173,383.769 20.444,382.157    41.375,378.478 14.69,379.233 29.171,376.493 35.782,374.574 49.016,372.567 25.121,371.914 27.388,370.265 30.474,368.68    15.148,367.153 41.02,365.627 30.613,364.102 19.877,362.575 11.331,361.049 20.736,359.522 15.627,357.996 34.479,356.47    46.331,354.942 43.893,353.416 15,351.889 22.987,350.36 40.136,348.833 18.072,347.304 12.464,345.776 25.15,344.248    19.442,342.721 47.488,341.193 14.379,339.666 33.385,338.14 18.447,336.612 32.232,335.086 50.792,333.559 21.837,332.032    28.626,330.506 46.832,328.979 39.868,327.452 41.61,325.925 41.256,324.398 26.834,322.872 29.427,321.345 20.915,319.816    46.403,318.288 32.217,316.761 29.348,315.234 48.898,313.708 32.162,312.183 16.312,310.657 28.567,309.133 21.878,307.609    47.877,306.085 49.054,304.562 50.45,303.038 30.776,301.516 15.087,299.992 43.258,298.47 40.261,296.946 48.44,295.423    29.971,293.899 12.706,292.376 38.507,290.853 15.661,289.327 41.006,287.803 30.769,286.277 33.877,284.751 44.613,283.224    45.636,281.695 38.335,280.167 29.54,278.637 38.446,277.108 49.652,275.58 29.784,274.053 36.571,272.525 45.818,271    13.071,269.474 45.75,267.948 48.211,266.423 49.096,264.897 26.242,263.372 21.439,261.847 28.756,260.32 24.969,258.794    19.943,257.268 39.243,255.74 50.797,254.211 16.246,252.682 13.201,251.152 34.399,249.622 14.571,248.093 13.567,246.565    42.61,245.037 22.441,243.51 43.167,241.983 25.791,240.456 16.87,238.929 17.209,237.401 27.35,235.874 17.8,234.345    40.327,232.815 28.143,231.285 13.736,229.754 14.479,228.225 49.23,226.696 25.636,225.167 30.086,223.639 49.627,222.111    24.479,220.582 23.17,219.053 41.448,217.523 18.51,215.991 24.62,214.461 45.013,212.931 30.911,211.402 32.879,209.873    22.795,208.344 48.2,206.813 18.731,205.283 17.121,203.751 31.458,202.221 47.577,200.691 13.549,199.161 24.354,197.631    18.559,196.1 32.621,194.568 29.481,193.043 11.187,191.516 18.958,189.986 44.826,188.454 42.803,186.924 29.903,185.396    24.841,183.869 44.372,182.341 22.016,180.813 16.813,179.282 18.848,177.749 14.848,176.219 25.004,174.689 15.533,173.159    13.707,171.626 14.778,170.094 17.056,168.563 13.928,167.031 22.088,165.497 24.677,163.965 43.499,162.431 33.491,160.898    20.444,159.363 18.414,157.833 50.687,156.303 49.876,154.768 30.591,153.235 27.627,151.7 29.103,150.164 23.366,148.629    22.771,147.091 27.925,145.551 12.322,144.011 18.022,142.302 43.979,141.287 15.744,138.791 45.725,138.651 48.4,137.496    35.424,135.137 24.421,132.607 18.43,130.317 32.132,130.263 22.24,127.371 47.711,129.508 31.608,125.52 47.006,126.699    19.853,120.1 22.201,118.83 39.305,120.883 33.887,118.11 20.962,113.292 30.715,114.087 32.967,113.063 18.723,107.23    45.236,113.589 46.111,112.395 23.566,103.245 36.278,105.935 23.072,99.372 54.516,109.667 53.833,107.993 40.539,100.989    33.822,96.404 32.508,94.02 31.881,91.886 42.375,95.114 26.132,85.239 51.956,96.641 47.633,92.721 51.724,93.299 62.844,98.015    30.477,77.396 36.116,78.744 41,79.793 58.556,89.205 39.817,75.034 64.641,90.046 59.062,84.498 40.895,69.516 49.014,73.438    42.548,66.421 65.196,82.163 41.68,61.224 69.181,81.946 51.83,65.249 64.52,74.285 48.354,57.634 65.167,70.953 69.65,73.231    77.399,78.928 66.007,65.556 65.886,63.255 77.137,73.075 67.225,60.181 58.076,47.488 60.585,47.719 61.573,46.191 61.981,43.925    84.249,69.239 79.59,61.046 83.434,63.803 86.19,65.263 80.881,55.44 87.201,62.03 71.273,35.677 73.106,35.235 84.652,50.31    88.912,54.405 88.221,50.413 81.716,36.047 81.399,31.959 98.862,60.844 97.85,56.093 99.492,56.346 86.707,26.874 103.006,57.56    90.555,26.777 90.902,23.14 95.247,28.864 102.118,41.389 99.391,30.125 102.385,33.416 101.021,24.762 106.445,35.351    111.601,46.171 111.82,42.121 117.181,55.171 116.203,46.98 110.47,19.938 115.789,33.984 119.422,42.657 116.393,22.346    117.811,20.794 122.585,36.511 120.774,17.81 123.613,24.309 129.169,50.174 130.312,48.939 129.033,27.676 130.043,22.14    131.688,21.765 134.953,41.279 136.447,42.478 136.43,16.288 138.54,25.208 140.781,48.34 141.86,30.704 143.41,44.13    144.938,29.443 146.465,37.497 147.992,31.216 149.519,48.583 151.046,29.348 152.574,46.114 154.102,22.451 155.629,20.152    157.157,37.056 158.686,29.975 160.214,13.187 161.743,40.844 163.272,48.359 164.801,39.76 166.331,38.147 167.86,38.23    169.388,18.674 170.917,45.065 172.445,42.771 173.973,39.004 175.501,22.476 177.029,24.627 178.557,20.737 180.084,50.573    181.612,29.832 183.14,41.486 184.668,27.952 186.197,39.452 187.726,33.804 189.253,41.796 190.782,36.79 192.312,15.207    193.841,42.448 195.369,16.078 196.897,14.306 198.424,48.691 199.951,29.188 201.477,21.636 203.002,28.198 204.528,33.322    206.053,35.288 207.577,24.894 209.102,44.227 210.626,18.175 212.15,38.187 213.674,22.407 215.198,18.901 216.723,41.604    218.247,19.439 219.772,39.295 221.297,31.129 222.823,14.165 224.349,46.032 225.875,23.845 227.403,16.605 228.931,19.591    230.46,38.78 231.99,37.042 233.521,48.685 235.051,22.56 236.58,41.608 238.109,35.763 239.637,49.497 241.164,32.008    242.691,25.436 244.218,48.396 245.745,35.028 247.271,28.747 248.797,40.413 250.324,41.636 251.851,17.963 253.378,26.117    254.906,30.269 256.435,37.2 257.965,31.984 259.495,12.446 261.026,42.53 262.558,17.204 264.087,41.32 265.616,24.055    267.146,28.33 268.674,16.982 270.202,39.28 271.73,17.551 273.259,45.596 274.787,24.06 276.316,19.515 277.846,30.183    279.377,19.333 280.908,42.052 282.439,43.769 283.971,16.976 285.5,32.771 287.03,18.243 288.56,49.858 290.089,13.426    291.618,23.125 293.148,33.581 294.68,23.643 296.213,12.492 297.744,15.707 299.275,13.839 300.806,18.732 302.336,44.622    303.866,50.154 305.397,40.709 306.929,47.663 308.462,49.584 309.993,12.512 311.523,41.565 313.055,48.323 314.586,28.854    316.119,46.936 317.651,16.635 319.178,29.362 320.706,27.279 322.236,40.729 323.771,22.369 325.301,38.326 326.83,32.809    328.358,16.523 329.888,29.706 331.417,16.278 332.949,23.004 334.483,45.292 336.015,36.024 337.545,22.668 339.076,47.111    340.61,33.981 342.144,29.514 343.676,14.165 345.209,12.418 346.744,41.505 348.277,24.718 349.813,21.235 351.347,23.669    352.882,36.846 354.413,47.994 355.944,26.211 357.48,24.266 359.015,33.008 360.551,51.651 362.089,26.58 363.624,28.021    365.163,30.597 366.704,35.508 368.246,27.264 369.533,50.223 371.502,24.783 372.73,34.714 373.632,45.787 376.253,26.945    377.654,29.509 380.84,12.541 380.356,33.695 382.27,30.548 380.957,51.776 384.635,35.86 385.816,37.9 388.496,31.239    386.115,51.917 394.934,15.544 394.205,27.179 394.562,32.807 398.936,21.757 400.222,23.641 401.735,24.527 401.423,31.605    397.292,50.365 403.396,35.903 399.729,51.507 409.837,27.057 403.529,48.936 412.133,30.523 404.666,53.526 407.517,50.178    406.366,56.294 415.296,39.685 411.199,52.13 412.74,52.138 412.762,55.184 427.454,29.823 427.879,32.762 428.457,35.264    415.065,62.08 421.376,53.94 430.317,42.001 436.911,34.582 427.372,52.562 437.909,39.429 425.079,61.158 436.572,47.272    442.476,41.912 431.225,59.815 446.493,42.322 448.64,42.458 447.113,47.118 433.639,65.876 453.634,44.772 432.893,70.944    433.518,72.221 440.717,66.461 433.075,76.543 449.252,61.931 446.771,66.595 452.426,63.251 457.251,60.914 459.104,61.475    443.822,77.244 451.947,72.07 456.643,70.102 459.136,70.101 448.789,80.344 468.086,67.237 471.643,66.728 461.576,76.234    465.975,75.047 452.685,86.172 467.057,78.253 468.239,79.42 458.793,87.276 448.414,95.326 457.922,91.182 467.78,87.173    462.425,91.937 458.38,95.777 484.149,83.961 474.353,90.872 486.672,86.708 466.726,98.024 460.68,102.391 460.382,104.031    461.479,105.048 465.379,104.959 460.839,108.251 473.732,104.906 492.215,99.963 467.642,110.219 475.043,109.322    464.629,114.153 476.17,112.186 467.29,116.262 465.946,118.079 490.419,113.374 460.408,122.22 474.949,120.317 488.819,118.974    471.366,124.044 496.813,120.959 483.889,124.89 497.515,124.456 495.61,126.516 481.33,130.04 499.416,129.625 486.235,132.7    468.325,135.769 472.429,136.879 477.576,138.025 485.394,139.21 482.319,140.893 492.611,142.314 471.591,144.011    477.839,145.537 484.104,147.063 481.312,148.589 469.858,150.115 492.939,151.642 474.091,153.168 473.512,154.694 463.6,156.221    475.541,157.748 477.266,159.275 488.435,160.802 467.771,162.33 466.237,163.858 494.771,165.386 475.297,166.915    475.996,168.442 488.952,169.97 467.339,171.497 481.784,173.024 470.413,174.551 481.933,176.078 461.915,177.604    471.653,179.131 467.854,180.658 468.533,182.185 472.703,183.711 477.724,185.239 483.601,186.766 463.979,188.293    487.933,189.82 476.516,191.348 473.959,192.876 474.424,194.404 493.577,195.932 470.768,197.458 498.936,198.984 484.516,200.51    465.27,202.035 486.11,203.559 486.209,205.083 469.716,206.607 499.679,208.13 488.111,209.653 477.713,211.177 489.655,212.7    496.578,214.223 485.982,215.746 500.021,217.269 498.736,218.792 462.877,220.316 469.158,221.84 499.827,223.364    490.262,224.889 489.859,226.415 483.031,227.941 485.744,229.468 490.328,230.996 474.854,232.525 490.061,234.055    477.679,235.583 497.728,237.112 478.633,238.639 482.539,240.166 485.053,241.692 486.131,243.218 469.752,244.744    493.242,246.269 475.076,247.794 484.764,249.32 467.089,250.845 490.207,252.371 472.368,253.897 493.868,255.424    471.842,256.952 481.929,258.48 471.147,260.009 491.171,261.539 480.236,263.069 499.175,264.599 461.252,266.127    485.619,267.654 488.17,269.182 499.692,270.709 489.244,272.235 474.629,273.763 499.072,275.29 462.065,276.818 495.822,278.347    461.105,279.876 486.214,281.407 474.962,282.938 490.844,284.467 466.475,285.996 480.723,287.524 488.011,289.053    487.147,290.58 495.977,292.109 496.548,293.639 490.577,295.169 474.467,296.7 472.481,298.23 463.618,299.76 464.679,301.289    494.67,302.818 495.076,304.348 480.486,305.878 478.298,307.408 499.572,308.939 478.646,310.47 477.634,312 465.313,313.53    492.594,315.061 490.743,316.592 482.757,318.123 498.354,319.648 475.467,321.176 481.961,322.705 499.25,324.237    460.759,325.767 461.304,327.295 486.076,328.822 469.136,330.35 483.963,331.878 475.214,333.409 466.205,334.941    491.711,336.472 496.492,338.002 483.77,339.531 483.227,341.064 489.125,342.597 490.871,344.128 494.538,345.66 482.72,347.193    490.183,348.726 494.656,350.26 486.947,351.793 496.672,353.327 483.589,354.857 491.876,356.388 495.73,357.923 476.19,359.455    491.902,360.99 481.091,362.526 468.189,364.062 471.499,365.599 484.436,350.804  " style="fill:#0074B5;"/><g><rect height="187.223" style="fill:#FFFFFF;" width="65.577" x="115.306" y="209.541"/><path d="M148.095,181.457c18.096,0,32.788-14.682,32.788-32.765s-14.692-32.765-32.788-32.765    c-18.124,0-32.789,14.682-32.789,32.765S129.971,181.457,148.095,181.457z" style="fill:#FFFFFF;"/><path d="M396.352,293.88c0-50.514-10.905-84.339-69.841-84.339c-28.324,0-47.335,10.514-55.11,25.269    h-0.806v-25.269h-52.239v187.223h54.599v-92.79c0-24.483,4.63-48.174,34.931-48.174c29.842,0,32.258,27.988,32.258,49.746v91.219    h56.209V293.88z" style="fill:#FFFFFF;"/></g></g><g id="Layer_1"/></svg>