<?xml version="1.0" ?><!DOCTYPE svg  PUBLIC '-//W3C//DTD SVG 1.1//EN'  'http://www.w3.org/Graphics/SVG/1.1/DTD/svg11.dtd'><svg height="512px" style="enable-background:new 0 0 512 512;" version="1.1" viewBox="0 0 512 512" width="512px" xml:space="preserve" xmlns="http://www.w3.org/2000/svg" xmlns:xlink="http://www.w3.org/1999/xlink"><g id="social__x2C__media__x2C__social_media__x2C___drop_box__x2C_"><polygon points="498.443,368.662 471.329,370.063 460.91,371.206 481.869,373.319 493.033,375.472    464.971,375.301 475.456,377.472 483.521,379.714 467.238,379.537 496.428,384.49 471.909,382.916 498.124,388.307    473.779,386.124 487.396,390.035 471.42,388.648 470.396,389.895 473.985,392.154 472.651,393.355 484.604,397.863    475.832,397.231 479.236,399.765 460.202,395.787 479.71,403.206 465.935,400.406 462.803,400.815 470.359,404.953    456.545,401.397 472.91,409.115 459.926,405.535 461.761,407.756 462.332,409.525 482.744,420.273 475.087,418.591    485.713,425.524 461.436,415.34 457.362,414.824 459.407,417.474 454.42,416.313 465.217,424.058 477.854,433.312 458.719,423.672    476.58,436.61 451.711,422.565 455.619,426.813 453.761,427.273 450.459,426.661 469.325,442.127 463.798,440.104 472.369,448.771    466.03,446.044 458.87,442.391 443.566,431.645 444.179,433.944 450.674,441.523 459.767,451.838 436.464,432.354 451.802,448.857    435.224,434.723 454.418,456.021 451.63,455.532 451,457.267 434.927,442.035 436.238,445.565 439.006,450.931 438.136,452.204    445.205,463.243 441.25,460.937 447.715,471.962 446.314,473.058 437.09,463.409 430.87,457.376 427.24,454.706 428.233,458.766    420.308,449.229 425.476,459.931 420.262,454.182 428.099,470.176 428.32,473.795 418.269,459.063 424.046,472.822 415.955,460.74    421.697,475.339 411.851,458.76 417.149,473.309 408.536,458.062 405.178,453.654 419.207,490.516 408.564,468.874    406.862,468.563 413.428,490.476 409.732,485.401 407.264,483.371 408.868,493.63 403.58,482.655 401.308,480.719 395.276,465.065    400.757,491.116 398.435,488.922 394.939,481.517 392.236,476.629 394.957,497.266 391.218,487.322 388.481,481.373    384.846,468.912 387.207,493.92 382.582,472.806 381.95,479.501 381.491,489.415 377.481,464.692 376.502,468.985 376.455,488.727    373.632,466.727 373.632,500.34 371.476,486.817 369.616,469.332 368.246,484.384 366.719,496.173 365.191,490.935    363.664,464.758 362.137,465.509 360.609,485.403 359.082,496.906 357.555,476.332 356.027,473.339 354.499,477.995    352.971,499.353 351.442,472.013 349.914,461.959 348.385,489.485 346.854,472.996 345.325,466.848 343.797,487.903    342.268,466.67 340.739,467.475 339.211,470.463 337.683,493.546 336.155,476.063 334.627,477.192 333.1,478.062 331.571,473.719    330.044,461.498 328.516,467.499 326.987,461.197 325.459,496.769 323.931,497.126 322.402,478.439 320.874,494.552    319.345,471.316 317.815,482.04 316.287,467.338 314.759,494.981 313.231,489.975 311.705,482.812 310.179,491.463    308.653,469.083 307.128,481.269 305.604,470.146 304.079,492.013 302.555,465.526 301.03,481.006 299.506,495.942    297.982,480.683 296.458,488.395 294.934,494.352 293.409,496.987 291.884,470.066 290.359,487.79 288.833,499.858    287.308,491.546 285.78,469.119 284.253,483.972 282.725,486.693 281.196,475.086 279.666,484.971 278.135,461.236    276.605,476.333 275.076,461.397 273.547,492.297 272.02,487.835 270.492,499.939 268.965,495.353 267.438,471.529    265.911,498.136 264.385,482.705 262.858,483.549 261.332,477.147 259.805,473.318 258.277,486.4 256.75,469.107 255.221,477.285    253.692,496.829 252.162,461.364 250.63,476.852 249.099,485.927 247.569,500.85 246.04,479.214 244.511,475.122 242.982,488.928    241.454,500.026 239.926,477.485 238.398,500.499 236.869,485.11 235.34,488.732 233.811,487.501 232.28,491.643 230.748,463.693    229.216,478.073 227.686,496.671 226.156,478.549 224.626,479.302 223.097,488.928 221.567,476.514 220.038,473.423    218.507,485.785 216.976,497.241 215.444,487.616 213.912,469.461 212.381,490.145 210.851,467.836 209.321,472.806    207.791,493.761 206.259,487.763 204.727,473.001 203.195,489.769 201.663,480.625 200.132,500.225 198.602,472.076    197.07,474.378 195.537,471.519 194.005,496.959 192.479,468.316 190.95,485.973 189.419,467.893 187.886,481.971 186.355,499.27    184.826,485.836 183.297,483.171 181.769,486.884 180.239,496.914 178.707,480.134 177.173,480.11 175.642,471.573    174.111,473.816 172.58,478.549 171.046,499.817 169.513,473.629 167.98,471.563 166.447,499.875 164.912,468.644 163.379,487.884    161.844,487.687 160.31,475.807 158.774,469.228 157.243,497.28 155.711,497.373 154.175,484.192 152.641,481.921 151.105,496.315    149.568,466.187 148.032,482.976 146.493,462.863 144.952,488.312 143.41,470.053 141.673,496.095 140.235,484.908    138.134,497.652 136.307,498.566 136.983,462.432 133.647,487.528 130.979,498.416 129.188,498.445 127.286,499.348    127.718,482.807 129.318,461.437 126.079,473.332 124.631,473.153 121.408,482.262 116.709,497.121 119.975,474.077    120.99,463.307 117.388,472.257 117.61,465.709 117.599,460.648 116.966,458.19 114.299,462.513 102.524,494.488 110.895,464.18    108.143,467.82 111.036,455.869 100.286,480.191 100.5,475.271 100.648,470.847 94.188,481.906 98.287,468.721 88.243,486.66    99.255,459.843 89.403,476.404 86.717,477.996 87.675,472.664 84.553,474.964 82.978,474.383 94.066,452.33 94.532,449.01    93.741,447.848 86.283,457.026 77.984,466.89 68.991,477.142 76.108,463.956 76.112,461.241 70.447,466.201 72.936,460.241    72.213,458.613 66.506,463.147 76.057,449.132 80.672,441.585 63.571,458.932 79.008,439.501 70.758,446.411 62.609,452.804    65.692,447.41 59.149,451.743 55.029,453.469 46.841,458.842 54.105,449.773 68.617,434.724 71.199,430.71 69.699,430.268    56.421,439.398 68.43,427.922 67.308,427.146 55.361,434.455 43.791,441.025 67.615,422.109 39.878,439.629 49.627,431.065    65.308,419.077 48.724,428.001 31.187,436.903 34.625,432.794 62.916,414.591 29.887,431.48 51.617,417.791 60.208,411.723    42.765,419.059 42.641,417.412 58.195,408.438 29.55,419.966 53.712,407.597 53.94,406.049 24.074,416.664 42.519,407.637    46.315,404.658 46.645,403.039 36.439,405.031 46.298,400.208 47.031,398.523 29.588,402.229 52.925,394.012 41.889,395.614    42.065,394.094 34.923,394.313 17.061,396.709 47.632,388.578 31.9,390.246 35.926,387.953 41.082,385.6 28.155,386.109    46.845,381.953 13.107,384.736 13.304,382.915 12.787,381.174 27.149,378.208 33.597,376.179 17.038,375.565 16.97,373.835    12.608,372.236 13.274,370.436 33.36,368.662 21.878,367.136 38.037,365.61 11.464,364.084 45.746,362.559 19.808,361.032    16.589,359.506 17.783,357.979 34.736,356.453 29.574,354.927 43.853,353.399 41.732,351.872 38.329,350.345 43.952,348.816    49.307,347.289 19.042,345.761 36.945,344.232 13.577,342.705 24.662,341.178 29.063,339.651 42.248,338.124 31.177,336.598    37.803,335.071 16.767,333.545 28.389,332.018 19.781,330.491 21.027,328.965 33.118,327.438 44.433,325.91 48.689,324.383    22.328,322.856 27.54,321.329 26.684,319.801 20.887,318.273 28.472,316.746 46.264,315.22 49.708,313.693 15.739,312.168    48.632,310.644 30.26,309.119 14.753,307.595 30.628,306.071 47.311,304.548 26.549,303.025 34.37,301.502 45.348,299.979    15.313,298.456 46.614,296.934 31.922,295.41 32.983,293.887 47.511,292.363 25.667,290.84 14.794,289.314 41.013,287.79    36.162,286.265 36.544,284.738 20.009,283.212 46.403,281.684 48.522,280.155 11.931,278.625 31.021,277.097 28.436,275.568    37.501,274.041 48.725,272.515 24.425,270.988 43.022,269.463 34.125,267.938 28.236,266.412 45.351,264.887 22.242,263.361    30.532,261.836 26.015,260.311 30.26,258.784 42.882,257.258 22.276,255.73 45.031,254.202 35.938,252.673 27.693,251.143    18.675,249.613 25.947,248.084 33.382,246.556 23.146,245.028 49.952,243.501 28.287,241.975 45.387,240.448 17.41,238.92    19.921,237.393 16.177,235.865 26.529,234.337 42.323,232.808 32.987,231.277 22.47,229.747 24.343,228.217 43.094,226.688    44.167,225.16 44.967,223.632 20.402,222.104 19.482,220.576 20.926,219.046 48.504,217.517 30.088,215.985 42.234,214.455    25.561,212.925 26.644,211.396 19.763,209.867 48.473,208.338 46.864,206.808 16.736,205.277 20.131,203.746 19.843,202.216    29.852,200.687 22.075,199.157 34.519,197.626 47.143,196.095 12.285,194.564 14.92,193.039 40.811,191.512 45.165,189.982    16.727,188.45 14.135,186.92 45.828,185.393 21.557,183.866 46.913,182.338 11.171,180.81 50.873,179.279 23.39,177.746    37.157,176.216 18.173,174.687 47.186,173.157 25.221,171.624 23.554,170.092 11.938,168.561 20.082,167.029 42.387,165.495    25.741,163.963 47.484,162.43 40.517,160.896 13.289,159.362 27.938,157.832 34.978,156.302 22.804,154.767 14.409,153.234    28.052,151.7 13.774,150.163 27.275,148.629 31.798,147.091 23.563,145.551 17.315,144.011 46.612,142.684 12.867,140.455    23.074,139.084 42.781,138.5 34.787,136.578 22.269,134.068 32.044,133.331 18.955,130.368 36.636,130.815 24.911,127.733    21.43,125.555 45.318,127.772 18.07,121.534 40.825,124.139 27.882,120.006 39.674,120.967 52.725,122.558 36.414,117.158    35.556,115.372 22.271,110.066 33.196,111.498 51.27,115.458 27.077,106.209 51.934,112.906 25.739,102.182 53.688,110.745    48.081,107.172 22.939,95.536 50.147,105.018 55.591,105.875 50.561,102.181 50.58,100.649 56.651,102.047 26.515,85.43    54.959,98.202 41.348,89.342 42.455,88.149 40.392,85.153 51.615,89.905 35.88,78.6 58.5,90.802 41.938,78.432 61.647,89.612    51.398,80.935 56.628,82.771 46.076,73.289 59.586,81.363 42.882,66.672 42.126,63.87 54.364,71.573 43.708,60.589 49.806,63.503    64.857,74.587 69.039,76.455 61.099,67.147 49.392,53.765 70.32,71.929 70.773,70.394 62.201,59.41 64.49,59.517 66.601,59.494    67.743,58.432 58.34,45.109 67.535,53.322 81.442,67.854 67.333,47.859 64.008,40.775 86.813,68.325 71.154,44.577 81.209,55.906    74.548,43.588 84.372,55.338 84.969,53.583 89.396,57.875 76.005,33.191 93.378,59.156 81.848,36.272 95.224,56.941 87.234,39.152    84.911,31.128 90.144,37.703 101.307,57.043 94.836,40.074 105.424,59.755 103.845,52.949 102.833,47.015 108.541,57.377    101.905,36.646 101,29.668 107.073,41.812 106.293,34.907 104.155,23.204 105.689,22.296 106.877,20.146 113.579,37.596    117.58,46.814 114.064,27.082 114.311,20.934 119.596,36.852 118.271,23.02 124.624,47.143 125.682,45.384 122.198,15.681    127.553,39.402 128.614,36.489 129.125,28.433 131.612,36.609 131.635,21.205 134.123,31.025 135.751,32.156 136.251,12.997    139.009,36.846 139.833,12.836 141.85,29.934 143.41,25.326 144.938,21.743 146.465,18.085 147.992,14.523 149.519,21.343    151.046,41.435 152.574,32.173 154.102,40.879 155.629,22.19 157.157,13.807 158.686,30.294 160.214,25.464 161.743,26.121    163.272,21.394 164.801,21.126 166.331,25.282 167.86,17.25 169.388,48.291 170.917,13.022 172.445,21.08 173.973,28.794    175.501,35.514 177.029,41.43 178.557,48.308 180.084,29.35 181.612,48.492 183.14,16.229 184.668,19.542 186.197,20.977    187.726,50.381 189.253,47.747 190.782,42.176 192.312,37.833 193.841,35.028 195.369,50.183 196.897,15.052 198.424,34.083    199.951,13.26 201.477,41.22 203.002,27.873 204.528,29.89 206.053,46.308 207.577,16.55 209.102,27.059 210.626,24.17    212.15,20.066 213.674,18.067 215.198,31.868 216.723,42.909 218.247,33.992 219.772,34.496 221.297,44.48 222.823,31.781    224.349,18.329 225.875,33.174 227.403,17.832 228.931,41.803 230.46,13.47 231.99,41.773 233.521,24.92 235.051,16.791    236.58,45.163 238.109,18.681 239.637,33.357 241.164,31.367 242.691,29.326 244.218,30.815 245.745,28.889 247.271,48.252    248.797,40.235 250.324,37.592 251.851,11.674 253.378,43.619 254.906,15.804 256.435,39.835 257.965,49.021 259.495,49.231    261.026,33.738 262.558,12.351 264.087,28.375 265.616,40.14 267.146,32.284 268.674,18.915 270.202,14.289 271.73,16.66    273.259,29.353 274.787,48.449 276.316,13.125 277.846,49.419 279.377,33.743 280.908,51.099 282.439,49.235 283.971,36.176    285.5,22.223 287.03,33.009 288.56,36.388 290.089,19.203 291.618,16.229 293.148,48.492 294.68,28.174 296.213,11.965    297.744,31.919 299.275,28.388 300.806,51.142 302.336,23.832 303.866,17.329 305.397,43.345 306.929,24.425 308.462,31.608    309.993,30.407 311.523,20.762 313.055,49.598 314.586,26.587 316.119,51.635 317.651,34.16 319.178,14.521 320.706,45.923    322.236,45.024 323.771,23.727 325.301,34.918 326.83,37.033 328.358,21.214 329.888,26.777 331.417,37.436 332.949,23.807    334.483,36.437 336.015,16.888 337.545,47.939 339.076,23.362 340.61,41.082 342.144,30.464 343.676,48.794 345.209,22.086    346.744,31.621 348.277,39.457 349.813,48.882 351.347,19.741 352.882,19.66 354.413,49.021 355.944,30.098 357.48,50.352    359.015,31.821 360.551,38.839 362.089,14.081 363.624,28.65 365.163,14.26 366.704,26.864 368.246,32.939 369.525,50.817    371.748,15.571 372.746,34.326 373.529,47.837 375.476,38.469 376.652,41.877 379.123,30.637 379.799,38.847 381.855,33.94    382.913,37.417 384.547,36.446 387.117,29.96 387.59,36.317 391.262,25.156 392.934,25.254 392.903,33.067 391.249,46.891    399.319,20.213 396.151,39.01 398.698,35.407 395.085,53.15 403.404,30.615 401.179,42.738 399.646,51.775 412.065,20.786    406.718,40.348 405.468,47.774 405.564,51.308 407.85,49.385 411.267,45.03 418.26,33.12 411.865,50.708 417.389,42.539    421.69,37.397 428.136,28.511 427,34.399 430.603,31.408 422.803,48.572 420.495,55.433 420.227,58.586 430.836,44.245    433.118,43.674 441.614,33.868 437.272,43.393 444.145,36.547 432.517,55.6 436.513,52.75 446.124,42.804 437.309,56.759    448.398,45.54 435.31,63.889 443.7,56.319 450.939,50.517 444.558,60.075 447.207,59.507 441.494,67.743 457.556,53.511    439.052,74.217 457.843,58.046 454.718,63.288 453.451,66.626 456,66.466 443.443,79.396 452.579,73.506 467.473,63.302    441.646,86.008 454.253,77.903 449.316,83.449 469.079,70.768 476.062,67.914 455.055,84.542 462.287,81.438 460.538,84.41    475.94,76.498 449.748,94.49 460.807,89.476 454.1,95.014 474.214,85.386 481.182,83.523 466.184,93.292 451.68,102.278    463.577,97.9 486.078,88.969 468.577,98.818 459.177,104.545 477.643,98.275 465.092,105.081 471.666,104.059 478.457,103.149    458.558,111.932 478.479,106.536 458.902,114.57 464.122,114.308 458.318,117.443 471.124,115.19 477.381,115.042 485.858,114.505    465.553,121.004 479.022,119.415 496.622,117.362 479.896,122.402 488.025,122.527 470.345,127.117 471.785,128.33    474.729,129.371 468.05,131.661 484.216,131.292 467.896,134.439 482.053,134.663 464.064,137.446 489.452,137.39 498.573,138.682    482.072,140.899 494.23,142.28 492.627,144.011 466.362,145.537 461.576,147.063 478.447,148.589 463.825,150.115 469.084,151.641    476.023,153.167 471.186,154.693 497.542,156.22 465.563,157.747 485.109,159.273 469.239,160.8 491.222,162.328 477.337,163.856    494.699,165.384 461.532,166.913 483.027,168.44 482.807,169.968 475.592,171.495 486.643,173.021 489.509,174.548 499.8,176.075    470.433,177.602 484.476,179.128 464.574,180.655 492.902,182.182 480.087,183.708 468.319,185.235 461.076,186.762    481.802,188.29 460.715,189.816 483.533,191.343 496.197,192.872 486.897,194.4 462.807,195.927 479.145,197.454 481.917,198.979    488.425,200.505 483.4,202.03 478.571,203.554 481.831,205.078 475.352,206.602 462.775,208.125 495.739,209.648 495.52,211.171    480.282,212.694 476.845,214.217 462.841,215.74 471.753,217.263 476.629,218.786 476.483,220.31 495.992,221.833 471.787,223.358    474.302,224.883 465.082,226.408 485.01,227.935 483.972,229.461 490.167,230.989 465.541,232.518 493.604,234.047    490.943,235.576 489.506,237.104 487.97,238.631 476.19,240.158 490.646,241.685 494.764,243.21 489.339,244.735 477.609,246.261    472.431,247.786 477.79,249.312 496.343,250.837 461.973,252.363 489.483,253.889 471.86,255.416 482.699,256.943 496.912,258.471    468.824,260 479.71,261.53 492.176,263.06 479.457,264.589 500.151,266.117 493.825,267.645 478.54,269.172 489.813,270.698    484.736,272.226 485.261,273.752 473.74,275.279 479.28,276.808 485.681,278.336 477.221,279.865 475.522,281.396 498.55,282.927    460.719,284.456 479.652,285.984 465.756,287.513 492.656,289.041 478.874,290.569 481.104,292.098 470.712,293.627    468.813,295.156 462.174,296.688 474.103,298.218 474.546,299.748 463.393,301.276 473.709,302.806 470.294,304.335    497.234,305.864 474.292,307.396 473.258,308.927 481.605,310.457 488.202,311.986 464.941,313.517 481.747,315.047    463.659,316.578 466.929,318.109 486.203,319.634 475.789,321.161 477.722,322.69 481.73,324.223 462.413,325.753 473.539,327.28    467.396,328.808 498.01,330.335 487.812,331.863 493.151,333.395 466.354,334.927 467.212,336.457 499.615,337.986    485.032,339.517 473.313,341.049 487.719,342.581 493.976,344.112 479.204,345.644 490.538,347.178 468.963,348.71    471.083,350.243 488.973,351.776 482.108,353.311 489.981,354.841 475.664,356.371 492.188,357.906 468.204,359.438    463.683,360.974 479.111,362.51 471.317,364.044 471.653,365.582 483.636,349.978  " style="fill:#49D1EE;"/><g><polygon points="115.306,271.208 197.973,325.347 255.828,276.931 172.466,225.301   " style="fill:#FFFFFF;"/><polygon points="197.973,125.288 115.306,179.391 172.466,225.301 255.828,173.704   " style="fill:#FFFFFF;"/><polygon points="313.667,125.288 255.828,173.704 339.19,225.301 396.352,179.391   " style="fill:#FFFFFF;"/><polygon points="313.667,325.347 396.352,271.208 339.19,225.301 255.828,276.931   " style="fill:#FFFFFF;"/><polygon points="338.843,337.598 338.843,319.35 314.014,335.623 256.011,287.335 197.973,335.623     173.144,319.35 173.144,337.598 256.011,387.403   " style="fill:#FFFFFF;"/></g></g><g id="Layer_1"/></svg>