<?xml version="1.0" ?><!DOCTYPE svg  PUBLIC '-//W3C//DTD SVG 1.1//EN'  'http://www.w3.org/Graphics/SVG/1.1/DTD/svg11.dtd'><svg height="512px" style="enable-background:new 0 0 512 512;" version="1.1" viewBox="0 0 512 512" width="512px" xml:space="preserve" xmlns="http://www.w3.org/2000/svg" xmlns:xlink="http://www.w3.org/1999/xlink"><g id="social__x2C__media__x2C__social_media__x2C___tech_crunch__x2C_"><polygon points="487.922,368.662 463.022,369.945 469.396,371.433 461.175,372.489 480.874,374.82    476.553,376.076 460.546,376.259 461.931,377.664 469.908,379.827 460.607,380.082 494.924,386.062 496.623,388.081    493.493,389.361 473.244,387.515 472.812,388.916 465.562,388.893 480.308,393.55 479.905,395.069 473.18,394.999 494.076,402.071    463.399,395.322 491.385,404.993 466.562,399.134 470.714,401.959 463.708,401.124 465.741,403.308 471.336,406.896 455.82,402.51    469.701,409.474 461.225,407.531 479.456,416.974 463.406,411.546 475.092,418.593 466.242,416.088 481.062,425.185    454.569,413.374 482.908,430.103 465.121,422.259 466.657,424.884 474.136,431.11 451.232,419.113 466.024,429.97 457.208,426.131    474.843,439.644 446.728,422.438 446.893,424.134 454.687,431.445 466.832,442.379 453.374,434.124 459.464,440.829    469.044,450.685 464.959,449.574 457.922,445.784 445.417,436.87 452.194,444.939 451.046,445.985 458.624,455.408    448.317,447.641 460.72,462.417 442.956,446.487 433.051,438.038 439.26,446.805 435.891,445.172 445.373,458.342 438.417,452.539    441.663,458.893 444.456,464.991 427.424,445.606 445.64,472.157 435.278,460.915 436.043,464.695 431.517,460.938    423.556,451.745 433.816,470.122 434.242,473.907 419.971,453.701 422.093,459.98 430.332,477.312 418.219,458.974    422.347,469.655 415.59,460.037 418.954,469.869 421.237,478.128 420.55,480.578 420.803,485.241 415.623,477.727 410.614,469.95    404.145,457.885 411.729,481.143 400.976,456.881 410.583,487.803 408.457,486.883 398.293,461.122 397.852,464.158    404.578,491.833 401.572,487.593 400.313,489.441 392.902,466.878 391.647,467.524 393.629,482.93 393.32,489.342 388.031,470.763    387.506,475.906 386.704,480.206 382.914,465.408 384.394,486.144 382.02,480.061 382.026,494.352 379.142,482.198    378.806,497.282 376.653,491.696 374.188,477.119 372.172,463.921 371.255,478.574 369.629,470.248 368.246,481.096    366.719,482.258 365.191,480.728 363.664,482.361 362.137,492.623 360.609,465.947 359.082,466.835 357.555,500.319    356.027,461.236 354.499,472.398 352.971,478.851 351.442,474.52 349.914,479.106 348.385,490.489 346.854,497.507    345.325,497.679 343.797,481.391 342.268,479.954 340.739,495.875 339.211,496.08 337.683,498.392 336.155,493.614    334.627,487.963 333.1,464.313 331.571,470.911 330.044,468.713 328.516,473.646 326.987,479.81 325.459,500.064 323.931,493.679    322.402,481.17 320.874,473.357 319.345,462.787 317.815,496.484 316.287,488.479 314.759,471.905 313.231,464.307    311.705,480.939 310.179,464.63 308.653,489.881 307.128,498.806 305.604,497.103 304.079,472.538 302.555,465.26 301.03,469.546    299.506,472.081 297.982,474.286 296.458,496.675 294.934,499.7 293.409,487.486 291.884,500.271 290.359,497.759 288.833,485.115    287.308,469.755 285.78,463.43 284.253,485.032 282.725,500.313 281.196,479.648 279.666,479.794 278.135,495.544 276.605,488.904    275.076,487.103 273.547,496.611 272.02,470.526 270.492,489.745 268.965,497.742 267.438,489.31 265.911,461.315 264.385,470.019    262.858,477.287 261.332,468.534 259.805,493.797 258.277,496.525 256.75,500.081 255.221,478.51 253.692,487.601 252.162,476.437    250.63,488.031 249.099,467.979 247.569,486.326 246.04,478.747 244.511,486.178 242.982,494.981 241.454,475.03 239.926,467.668    238.398,481.146 236.869,466.691 235.34,481.223 233.811,499.243 232.28,468.768 230.748,475.61 229.216,475.634 227.686,492.403    226.156,497.057 224.626,493.305 223.097,489.002 221.567,465.729 220.038,470.85 218.507,482.997 216.976,461.111    215.444,471.172 213.912,484.338 212.381,492.23 210.851,478.368 209.321,475.967 207.791,467.714 206.259,466.851    204.727,476.117 203.195,464.006 201.663,474.247 200.132,467.578 198.602,461.996 197.07,487.919 195.537,473.968    194.005,470.403 192.479,496.54 190.95,463.09 189.419,500.256 187.886,472.055 186.355,487.311 184.826,474.902 183.297,495.572    181.769,481.811 180.239,472.786 178.707,470.413 177.173,462.572 175.642,480.871 174.111,492.269 172.58,465.747    171.046,466.871 169.513,490.567 167.98,478.06 166.447,500.436 164.912,497.687 163.379,470.649 161.844,466.142 160.31,469.955    158.774,492.628 157.243,468.9 155.711,481.643 154.175,467.734 152.641,492.887 151.105,463.329 149.568,475.294 148.032,487.85    146.493,475.047 144.952,478.188 143.41,467.179 141.893,479.661 140.746,465.768 138.242,494.973 137.655,473.816    135.419,485.469 133.818,485.427 130.851,499.768 129.54,495.207 128.047,493.108 127.036,487.831 128.181,469.049    121.974,498.325 120.922,494.084 121.64,481.054 121.895,472.107 120.287,472.665 121.946,459.243 116.483,475.88 109.704,495.608    109.061,491.23 111.156,477.936 106.371,488.127 103.657,490.989 110.338,465.82 107.981,468.277 100.366,484.67 100.815,478.819    104.027,466.497 96.387,481.021 91.094,489.019 101.225,462.207 92.813,476.888 96.193,466.166 92.263,470.702 95.576,460.938    96.408,456.362 88.765,467.365 92.36,457.974 89.64,459.825 90.541,455.563 91.861,450.844 78.773,468.641 85.358,455.823    86.988,450.92 70.978,471.215 87.838,445.135 66.092,472.02 68.331,466.217 67.956,463.985 75.054,452.641 73.449,452.252    82.03,440.007 63.593,458.907 57.691,462.949 77.111,439.604 60.528,454.971 77.939,434.997 73.129,437.949 55.461,453.053    74.787,432.687 61.869,442.721 71.109,432.515 71.292,430.629 45.187,450.812 52.545,442.554 69.865,426.784 68.913,425.909    59.827,431.109 67.042,424.088 59.844,427.606 44.438,436.497 52.819,428.935 50.833,428.452 34.972,436.645 62.088,418.069    39.305,430.026 38.975,428.313 31.221,430.739 40.279,423.884 41.604,421.395 50.681,415.084 56.404,410.734 58.478,408.307    43.718,413.571 44.723,411.507 48.841,408.187 49.832,406.279 27.987,413.267 39.494,407.188 20.816,412.224 48.628,400.885    17.621,409.522 30.009,403.795 42.609,398.389 25.539,401.68 48.717,393.805 27.534,397.73 32.984,394.77 30.341,393.769    46.206,388.873 31.551,390.313 25.437,389.825 25.142,388.212 38.333,384.576 14.8,386.322 33.151,382.289 16.757,382.54    40.736,378.521 32.259,377.795 12.185,377.623 48.225,373.883 30.634,373.287 26.41,371.861 47.294,369.981 38.071,368.662    43.017,367.136 30.453,365.61 15.63,364.084 47.313,362.559 32.837,361.032 24.462,359.506 38.417,357.979 15.529,356.453    46.25,354.927 30.405,353.399 17.212,351.872 22.285,350.345 24.377,348.816 14.832,347.289 46.449,345.761 33.394,344.232    23.465,342.705 28.486,341.178 37.058,339.651 30.994,338.124 15.363,336.598 31.482,335.071 24.742,333.545 46.041,332.018    11.998,330.491 32.8,328.965 16.582,327.438 31.975,325.91 37.571,324.383 32.821,322.856 49.762,321.329 18.313,319.801    12.244,318.273 37.655,316.746 36.16,315.22 42.902,313.693 31.07,312.168 34.017,310.644 26.538,309.119 21.61,307.595    21.884,306.071 33.409,304.548 28.097,303.025 14.175,301.502 25.952,299.979 34.333,298.456 49.142,296.934 44.986,295.41    45.093,293.887 11.315,292.363 24.597,290.84 17.521,289.314 19.035,287.79 19.472,286.265 16.149,284.738 41.234,283.212    36.764,281.684 43.366,280.155 20.729,278.625 29.58,277.097 25.593,275.568 38.921,274.041 21.115,272.515 47.992,270.988    21.728,269.463 37.126,267.938 12.396,266.412 30.505,264.887 26.066,263.361 38.293,261.836 38.036,260.311 23.825,258.784    28.973,257.258 45.597,255.73 49.306,254.202 17.552,252.673 47.793,251.143 46.678,249.613 21.82,248.084 39.331,246.556    40.857,245.028 12.037,243.501 22.937,241.975 13.676,240.448 21.711,238.92 38.976,237.393 23.761,235.865 23.221,234.337    37.334,232.808 29.828,231.277 29.513,229.747 31.126,228.217 14.09,226.688 33.25,225.16 42.002,223.632 23.425,222.104    15.167,220.576 37.299,219.046 27.962,217.517 30.034,215.985 33.246,214.455 23.061,212.925 47.002,211.396 23.18,209.867    22.153,208.338 27.582,206.808 32.898,205.277 32.012,203.746 11.255,202.216 24.824,200.687 22.014,199.157 32.122,197.626    46.333,196.095 13.453,194.564 42.576,193.039 28.745,191.512 40.685,189.982 40.139,188.45 18.543,186.92 12.382,185.393    40.221,183.866 27.176,182.338 21.867,180.81 45.587,179.279 26.295,177.746 13.14,176.216 26.823,174.687 39.684,173.157    40.012,171.624 35.346,170.092 20.234,168.561 40.151,167.029 31.775,165.495 22.844,163.963 21.28,162.43 19.43,160.896    19.813,159.362 48.729,157.832 24.686,156.302 35.905,154.767 41.449,153.234 30.483,151.7 21.003,150.163 37.802,148.629    40.849,147.091 27.115,145.551 27.76,144.011 50.773,142.74 17.046,140.567 21.958,139.04 45.359,138.639 28.113,136.128    16.11,133.567 19.71,132.166 31.144,131.695 21.601,128.973 50.06,131.157 26.002,126.243 45.06,127.729 32.341,124.078    49.201,125.749 19.814,118.337 23.238,117.323 41.07,119.806 47.527,119.945 44.322,117.698 46.181,116.766 16.463,106.564    29.415,108.682 51.843,114.258 49.488,112.073 33.068,104.791 34.457,103.601 22.786,97.383 32.438,99.365 38.36,100.075    37.057,97.813 24.807,90.531 28.41,90.265 56.175,101.816 29.001,86.679 44.283,92.651 36.595,86.785 59.471,97.596 51.656,91.605    35.591,80.433 39.495,80.806 58.245,90.641 51.101,84.374 59.571,88.226 53.704,82.521 66.023,89.42 37.502,67.043 58.614,80.633    56.001,76.794 47.073,67.792 46.395,65.076 71.213,83.658 54.322,67.397 62.493,72.493 52.746,61.624 60.342,66.44 72.309,75.787    54.96,56.765 57.61,57.034 54.46,51.332 65.497,60.596 59.999,52.227 70.33,61.357 76.745,66.503 64.569,49.778 79.146,65.032    69.706,50.859 84.216,67.075 70.631,46.676 87.329,66.83 86.197,62.968 76.86,46.959 72.794,37.961 75.06,38.257 74.53,34.175    95.299,64.905 78.302,33.604 84.848,41.521 80.642,30.593 85.041,35.059 94.576,49.786 97.954,53.289 91.145,36.041 94.874,40.153    101.189,50.357 105.546,56.868 95.727,30.015 101.855,40.734 103.819,41.6 110.55,55.468 108.684,46.358 110.39,46.967    108.297,35.983 106.255,24.125 110.797,33.484 117.743,52.532 113.11,29.92 118.265,43.901 118.846,40.218 123.258,53.43    120.332,32.999 124.614,47.093 124.51,38.802 125.146,33.654 128.95,48.713 127.741,30.057 129.271,29.625 132.256,42.55    133.036,35.979 135.784,51.559 135.92,34.661 137.544,36.941 138.563,25.841 139.937,16.718 141.647,14.747 143.41,49.471    144.938,30.264 146.465,45.434 147.992,14.956 149.519,39.186 151.046,31.933 152.574,49.733 154.102,23.596 155.629,29.338    157.157,12.42 158.686,35.21 160.214,47.741 161.743,42.212 163.272,30.851 164.801,26.017 166.331,48.519 167.86,39.152    169.388,27.042 170.917,12.306 172.445,40.568 173.973,15.058 175.501,43.135 177.029,18.905 178.557,39.246 180.084,15.917    181.612,17.309 183.14,13.903 184.668,39.305 186.197,28.13 187.726,43.378 189.253,35.914 190.782,28.821 192.312,28.395    193.841,49.974 195.369,18.75 196.897,22.097 198.424,22.877 199.951,33.105 201.477,12.287 203.002,35.3 204.528,44.44    206.053,35.824 207.577,38.238 209.102,28.589 210.626,16.647 212.15,48.74 213.674,39.595 215.198,18.471 216.723,13.348    218.247,25.155 219.772,42.509 221.297,24.144 222.823,22.523 224.349,24.564 225.875,29.323 227.403,51.577 228.931,23.203    230.46,38.241 231.99,41.541 233.521,19.063 235.051,44.17 236.58,30.706 238.109,51.465 239.637,28.029 241.164,13.211    242.691,30.795 244.218,41.247 245.745,42.801 247.271,25.675 248.797,46.088 250.324,28.124 251.851,23.128 253.378,41.055    254.906,34.447 256.435,34.564 257.965,13.182 259.495,36.397 261.026,26.411 262.558,22.097 264.087,30.788 265.616,25.229    267.146,32.207 268.674,27.551 270.202,20.635 271.73,50.808 273.259,27.114 274.787,40.478 276.316,35.242 277.846,42.389    279.377,48.938 280.908,20.481 282.439,27.386 283.971,43.329 285.5,21.348 287.03,33.24 288.56,17.775 290.089,19.693    291.618,16.818 293.148,23.931 294.68,21.704 296.213,38.191 297.744,12.939 299.275,46.841 300.806,18.438 302.336,22.146    303.866,15.819 305.397,29.884 306.929,27.098 308.462,34.262 309.993,44.367 311.523,12.81 313.055,12.76 314.586,14.941    316.119,49.166 317.651,17.816 319.178,46.551 320.706,44.898 322.236,19.72 323.771,51.343 325.301,43.475 326.83,20.812    328.358,33.806 329.888,35.792 331.417,21.726 332.949,12.788 334.483,22.678 336.015,49.899 337.545,47.236 339.076,32.361    340.61,45.889 342.144,36.558 343.676,47.199 345.209,39.793 346.744,49.471 348.277,36.788 349.813,16.337 351.347,39.42    352.882,21.222 354.413,28.64 355.944,39.662 357.48,11.795 359.015,36.852 360.551,29.77 362.089,15.436 363.624,51.382    365.163,30.745 366.704,22.432 368.246,22.157 369.957,18.55 371.493,25.11 372.527,39.732 375.368,13.446 375.723,34.803    375.889,51.309 377.135,51.709 381.41,23.991 379.988,49.184 385.693,16.997 385.492,30.138 383.74,50.583 385.857,46.035    390.01,31.661 391.943,30.044 392.681,34.075 392.539,41.402 392.325,48.191 398.792,29.019 402.885,20.412 399.592,37.831    397.396,50.064 402.27,39.379 400.504,49.25 403.35,45.318 407.278,38.836 409.471,37.417 416.954,23 419.147,22.376    407.563,53.547 407.204,57.616 407.454,60.137 424.842,27.16 415.056,50.625 415.281,53.288 414.876,56.984 414.544,60.364    423.645,47.099 426.425,45.389 423.889,52.567 426.165,51.685 427.104,52.977 427.993,54.312 426.697,58.801 440.911,41.126    433.376,54.417 439.906,48.212 437.642,53.834 438.121,55.734 444.305,50.57 449.451,46.982 449.748,49.285 441.752,60.91    439.603,65.533 433.842,73.827 456.395,52.217 458.311,52.746 448.638,64.753 451.755,63.896 454.673,63.33 457.278,63.145    449.685,72.062 458.538,66.393 461.696,65.866 462.032,67.737 454.996,75.423 456.137,76.45 448.299,84.211 455.636,80.561    466.576,74.625 477.276,69.255 445.257,92.812 450.666,90.808 447.325,94.489 459.707,88.426 456.354,92.107 455.225,94.369    462.809,91.725 483.895,82.065 457.711,97.695 457.754,99.221 478.61,90.615 463.698,99.44 469.641,98.337 466.785,101.234    482.152,96.385 472.997,101.892 466.528,106.047 476.005,104.061 456.716,112.586 485.987,103.986 472.618,110.11 485.572,107.666    490.518,107.959 473.364,114.564 463.067,118.829 483.385,115.125 478.651,117.909 462.389,123.089 472.163,122.414    490.311,120.396 486.147,122.862 472.574,126.75 471.653,128.35 487.813,127.582 467.992,131.667 496.693,129.938 475.021,133.764    490.36,133.987 461.413,137.625 494.294,137.131 498.136,138.7 461.695,141.443 462.47,142.734 500.212,144.011 485.105,145.537    461.555,147.063 462.377,148.589 489.192,150.115 498.17,151.641 476.415,153.167 474.018,154.693 495.259,156.22 487.028,157.747    483.733,159.273 473.46,160.8 469.055,162.328 494.328,163.856 482.69,165.384 483.505,166.913 494.37,168.44 493.562,169.968    481.698,171.495 484.977,173.021 484.538,174.548 475.384,176.075 494.06,177.602 462.126,179.128 500.187,180.655    498.692,182.182 493.098,183.708 468.455,185.235 489.55,186.762 482.72,188.29 497.976,189.816 499.142,191.343 472.618,192.872    496.397,194.4 461.479,195.927 496.39,197.454 490.355,198.979 481.225,200.505 490.999,202.03 473.906,203.554 500.255,205.078    483.919,206.602 473.956,208.125 486.766,209.648 499.469,211.171 495.065,212.694 478.952,214.217 472.918,215.74    496.766,217.263 490.047,218.786 483.852,220.31 492.594,221.833 494.567,223.358 488.475,224.883 482.078,226.408    471.834,227.935 462.311,229.461 468.398,230.989 478.363,232.518 496.437,234.047 462.395,235.576 471.526,237.104    465.192,238.631 482.509,240.158 469.946,241.685 495.706,243.21 491.218,244.735 469.947,246.261 487.672,247.786    470.926,249.312 472.847,250.837 485.026,252.363 497.031,253.889 475.087,255.416 500.323,256.943 498.399,258.471 486.994,260    485.782,261.53 489.475,263.06 464.727,264.589 461.626,266.117 464.337,267.645 490.433,269.172 490.209,270.698 467.746,272.226    468.391,273.752 464.555,275.279 474.242,276.808 463.916,278.336 469.205,279.865 480.794,281.396 471.479,282.927    472.007,284.456 490.023,285.984 462.77,287.513 480.524,289.041 472.598,290.569 461.672,292.098 477.808,293.627    465.521,295.156 485.448,296.688 491.696,298.218 499.157,299.748 476.879,301.276 496.3,302.806 463.238,304.335 472.686,305.864    477.392,307.396 471.253,308.927 499.962,310.457 499.265,311.986 499.996,313.517 479.979,315.047 493.204,316.578    484.105,318.109 463.419,319.634 489.01,321.161 467.682,322.69 464.311,324.223 471.977,325.753 486.34,327.28 461.94,328.808    485.866,330.335 485.743,331.863 498.629,333.395 499.821,334.927 481.341,336.457 467.374,337.986 482.221,339.517    489.191,341.049 499.543,342.581 491.832,344.112 489.242,345.644 464.209,347.178 498.377,348.71 485.217,350.243    490.023,351.776 487.33,353.311 492.15,354.841 479.027,356.371 493.112,357.906 467.341,359.438 464.584,360.974 486.038,362.51    464.099,364.044 489.661,365.582 479.932,368.85  " style="fill:#009700;"/><g><rect height="46.807" style="fill:#FFFFFF;" width="93.691" x="302.66" y="181.457"/><polygon points="115.306,181.457 115.306,228.263 162.137,228.263 162.137,331.233 208.979,331.233     208.979,228.263 255.828,228.263 255.828,181.457   " style="fill:#FFFFFF;"/><polygon points="255.847,331.233 302.66,331.233 396.352,331.233 396.352,284.427 302.66,284.427     302.66,228.263 255.847,228.263   " style="fill:#FFFFFF;"/></g></g><g id="Layer_1"/></svg>