<?xml version="1.0" ?><!DOCTYPE svg  PUBLIC '-//W3C//DTD SVG 1.1//EN'  'http://www.w3.org/Graphics/SVG/1.1/DTD/svg11.dtd'><svg height="512px" style="enable-background:new 0 0 512 512;" version="1.1" viewBox="0 0 512 512" width="512px" xml:space="preserve" xmlns="http://www.w3.org/2000/svg" xmlns:xlink="http://www.w3.org/1999/xlink"><g id="social__x2C__media__x2C__social_media__x2C___diigo__x2C_"><polygon points="470.597,368.68 472.534,370.106 499.967,372.267 467.606,372.765 473.211,374.428    469.021,375.59 484.303,378.209 487.58,380.116 493.088,382.358 492.354,384.005 464.281,381.892 468.531,383.875 464.667,384.632    469.64,386.889 488.334,391.927 489.964,393.972 475.023,392.399 480.614,395.254 484.584,397.874 481.467,398.745    494.131,403.961 459.654,395.643 477.792,402.633 461.097,398.838 456.592,398.718 480.079,408.429 479.938,410.111    474.627,409.799 466.135,408.053 469.569,411.057 488.448,420.922 476.441,417.455 486.979,424.187 477.003,421.33    452.733,410.969 460.908,416.679 471.091,423.772 480.112,430.601 455.392,418.434 450.569,417.194 449.386,417.992    457.137,424.398 471.869,435.669 472.419,438.054 474.713,441.698 463.316,435.796 474.309,445.783 454.88,433.438    451.813,432.941 454.298,436.747 446.947,432.691 447.721,435.14 459.189,446.91 450.262,441.175 445.907,439.242 452.958,447.799    444.441,441.805 434.989,434.514 444.236,445.706 456.203,460.324 454.072,460.581 431.959,438.792 430.856,439.501    440.211,452.358 432.969,446.044 446.551,464.935 441.435,461.19 440.264,462.311 436.681,460.218 429.806,453.409    441.601,472.605 432.084,461.793 425.484,454.654 438.97,478.122 419.002,449.64 428.052,467.025 430.12,473.613 424.452,467.065    413.293,450.083 414.194,454.473 414.804,458.55 414.564,461.138 419.265,474.106 417.701,474.527 407.263,455.241    406.914,457.713 413.838,477.701 412.129,477.787 402.064,456.19 402.916,462.164 407.054,477.889 398.195,456.728    404.637,480.683 398.376,465.873 403.075,486.772 400.739,484.673 396.627,475.573 399.806,494.513 389.666,459.177    394.101,485.142 389.375,470.333 389.845,480.28 390.492,492.752 388.304,490.098 382.631,463.517 386.202,499.602 382.12,481.021    381.052,485.514 379.045,481.361 376.131,464.437 377.171,499.419 374.549,484.188 372.285,467.17 371.311,481.312    369.944,494.381 368.229,489.52 366.701,463.184 365.174,479.306 363.646,490.082 362.119,498.01 360.592,494.946 359.064,496.646    357.537,498.67 356.01,472.46 354.481,500.602 352.953,492.374 351.425,486.573 349.896,477.09 348.366,473.829 346.837,483.187    345.308,495.128 343.778,466.193 342.25,485.905 340.722,466.53 339.193,470.728 337.665,477.069 336.138,473.063 334.609,491.228    333.082,500.982 331.554,478.656 330.026,495.513 328.498,496.935 326.97,493.136 325.441,467.13 323.913,474.327 322.385,483.679    320.856,471.011 319.327,499.695 317.798,472.499 316.27,472.726 314.741,486.711 313.214,497.83 311.688,486.359 310.161,500.02    308.636,483.338 307.11,471.239 305.586,493.648 304.062,463.447 302.537,464.979 301.013,473.755 299.488,484.482    297.964,465.201 296.44,470.211 294.916,462.445 293.392,461.457 291.866,470.44 290.342,465.36 288.815,491.174 287.29,495.142    285.763,483.559 284.235,493.79 282.707,489.859 281.178,461.196 279.648,463.256 278.117,477.444 276.587,500.697    275.058,465.424 273.529,497.71 272.002,486.917 270.474,462.57 268.947,462.915 267.42,461.055 265.894,476.274 264.367,494.933    262.841,477.607 261.314,472.464 259.787,498.907 258.26,492.369 256.732,488.488 255.203,499.025 253.674,480.632 252.144,461.14    250.612,468.673 249.081,463.73 247.551,486.326 246.021,488.9 244.493,483.643 242.964,479.774 241.436,476.313 239.908,498.893    238.38,494.851 236.851,492.428 235.322,488.772 233.792,479.824 232.262,494.991 230.73,469.749 229.198,484.412 227.667,462.722    226.138,461.14 224.608,463.376 223.079,469.657 221.549,495.969 220.02,472.056 218.489,480.633 216.958,494.604 215.425,489.793    213.894,475.85 212.363,489.223 210.833,461.987 209.302,461.484 207.772,494.313 206.241,495.754 204.708,463.42 203.176,492.537    201.645,470.125 200.114,499.333 198.583,499.144 197.051,489.008 195.519,463.209 193.986,461.492 192.46,497.54 190.932,496.328    189.401,482.478 187.868,493.702 186.336,490.667 184.808,499.812 183.279,499.207 181.75,483.689 180.221,462.057    178.688,462.125 177.155,488.319 175.623,481.863 174.093,483.032 172.562,488.959 171.027,483.801 169.494,469.045    167.962,493.779 166.429,474.141 164.894,494.495 163.36,466.792 161.825,465.44 160.291,475.469 158.756,466.562 157.224,491.536    155.693,499.49 154.157,492.487 152.623,498.807 151.087,473.812 149.549,480.59 148.014,497.464 146.475,497.163 144.933,483.809    143.392,479.245 141.993,470.825 140.494,474.516 139.449,464.421 137.284,480.295 134.955,492.046 134.077,482.034    131.472,493.039 131.82,474.024 129.843,478.25 125.525,498.854 124.394,494.188 124.061,485.524 126.893,460.416 124.427,466.477    123.727,463.133 123.084,459.924 119.818,468.234 117.917,470.08 114.049,479.116 108.384,493.604 111.171,477.84 114.275,462.548    113.434,460.81 110.333,465.797 100.459,489.415 100.847,483.343 99.536,482.082 94.781,489.464 100.318,471.608 103.486,460.497    99.179,466.72 92.888,476.704 94.413,469.819 87.272,480.625 99.868,452.622 83.522,480.393 84.057,475.848 88.42,464.851    92.268,455.341 94.507,449.036 81.568,467.223 74.406,475.382 77.076,468.239 70.14,475.459 75.538,464.753 88.586,444.073    71.318,465.041 85.099,444.438 65.309,467.341 74.439,453.391 61.283,466.795 66.742,457.761 68.398,453.468 79.684,438.736    55.008,463.282 54.295,461.475 56.422,456.811 71.929,439.134 53.742,454.695 63.224,443.514 50.257,453.283 54.34,447.378    67.017,434.313 68.558,431.228 44.022,449.51 48.636,443.62 63.492,430.089 63.035,428.707 68.431,423.081 59.502,427.858    50.122,432.598 48.181,432.038 47.728,430.47 48.289,428.28 44.109,429.031 57.15,419.484 42.346,426.388 39.643,426.068    61.106,412.7 43.651,420.339 52.586,414.142 24.509,426.217 53.279,410.75 32.335,418.723 37.312,414.741 31.388,415.514    29.867,414.331 27.764,413.357 22.229,413.606 55.66,399.844 49.9,400.459 37.736,403 28.708,404.205 27.802,402.766    40.708,397.445 42.439,395.482 36.24,395.564 18.849,398.108 50.264,389.371 43.294,389.484 15.444,393.43 48.177,385.781    50.095,384.137 44.608,383.652 47.333,381.901 45.401,380.802 41.235,379.901 24.936,380.035 40.289,377.162 39.153,375.82    25.622,375.116 22.82,373.617 37.309,371.581 12.013,370.469 33.213,368.68 43.042,367.153 40.452,365.627 24.676,364.102    25.06,362.575 23.844,361.049 29.622,359.522 48.004,357.996 31.614,356.47 12.132,354.942 49.533,353.416 36.396,351.889    24.942,350.36 28.292,348.833 11.617,347.304 35.234,345.776 42.924,344.248 44.93,342.721 40.352,341.193 16.873,339.666    24.786,338.14 43.449,336.612 12.666,335.086 38.73,333.559 36.576,332.032 12.12,330.506 39.149,328.979 17.25,327.452    25.29,325.925 49.367,324.398 15.804,322.872 31.473,321.345 20.436,319.816 36.051,318.288 35.094,316.761 49.967,315.234    41.758,313.708 40.487,312.183 25.041,310.657 34.858,309.133 31.893,307.609 39.941,306.085 45.123,304.562 36.737,303.038    32.691,301.516 42.363,299.992 47.703,298.47 34.16,296.946 43.961,295.423 32.103,293.899 13.78,292.376 11.517,290.853    23.385,289.327 23.37,287.803 31.769,286.277 29.007,284.751 26.363,283.224 45.162,281.695 28.075,280.167 18.472,278.637    24.518,277.108 21.435,275.58 38.229,274.053 18.845,272.525 41.633,271 50.27,269.474 47.309,267.948 24.947,266.423    25.75,264.897 45.746,263.372 48.414,261.847 43.409,260.32 16.204,258.794 46.33,257.268 27.928,255.74 49.433,254.211    24.315,252.682 33.473,251.152 46.347,249.622 38.188,248.093 26.507,246.565 44.213,245.037 43.371,243.51 24.537,241.983    48.61,240.456 21.493,238.929 16.084,237.401 24.899,235.874 20.06,234.345 25.976,232.815 38.901,231.285 34.954,229.754    16.795,228.225 13.098,226.696 14.064,225.167 36.957,223.639 11.562,222.111 39.084,220.582 21.458,219.053 50.429,217.523    30.388,215.991 19.726,214.461 36.444,212.931 19.931,211.402 33.992,209.873 25.622,208.344 44.506,206.813 33.729,205.283    22.849,203.751 37.668,202.221 41.444,200.691 27.032,199.161 44.696,197.631 26.52,196.1 27.861,194.568 23.619,193.043    43.185,191.516 39.796,189.986 46.697,188.454 29.563,186.924 26.484,185.396 40.768,183.869 12.553,182.341 32.816,180.813    14.534,179.282 22.275,177.749 21.585,176.219 22.401,174.689 43.729,173.159 19.636,171.626 50.662,170.094 40.969,168.563    47.77,167.031 26.286,165.497 14.593,163.965 24.46,162.431 13.447,160.898 35.897,159.363 50.155,157.833 42.626,156.303    30.083,154.768 14.743,153.235 35.642,151.7 14.161,150.164 31.405,148.629 28.038,147.091 14.742,145.551 30.198,144.011    48.594,142.71 44.05,141.289 13.544,138.703 40.053,138.354 13.504,135.144 39.827,135.499 39.186,134.01 32.588,131.854    49.603,132.405 51.49,131.354 29.099,126.711 27.083,124.776 51.839,127.555 34.811,122.985 19.407,118.256 47.207,122.64    51.266,122.217 16.931,112.276 21.277,111.592 34.925,113.616 45.656,115.176 43.638,113.093 34.51,108.629 29.265,105.194    33.278,104.87 54.157,110.924 47.246,106.855 53.748,107.962 46.388,103.444 49.945,103.43 49.344,101.632 49.213,100.015    54.837,101.176 54.178,99.334 29.296,84.874 58.022,98.31 41.148,87.431 49.986,90.657 50.708,89.375 43.031,82.971 64.079,94.318    42.784,78.991 64.405,91.461 66.688,91.461 44.679,74.322 46.211,73.397 52.932,76.384 64.789,83.579 48.924,69.269 40.972,60.664    69.338,82.087 69.857,80.792 68.853,78.131 52.422,61.345 63.193,69.116 50.757,55.088 49.555,51.432 60.595,60.076 68.821,66.328    76.857,72.781 70.962,64.308 77.256,69.212 82.113,72.767 64.456,49.652 72.802,57.25 61.809,40.894 79.396,60.809 77.887,56.398    77.675,53.565 76.428,49.152 79.856,51.347 76.227,43.133 90.494,62.141 83.346,48.25 83.557,45.627 78.137,33.347 87.133,45.545    93.028,52.993 90.325,44.943 93.446,47.626 87.509,32.483 88.015,29.605 97.769,46.372 97.876,43.034 96.23,35.45 99.5,39.073    99.515,34.953 103.647,41.193 108.516,49.998 107.914,44.206 113.497,56.147 113.345,51.577 110.631,38.326 112.51,39.355    108.999,21.252 115.704,39.783 114.758,29.919 120.899,49.005 120.968,43.142 118.35,23.481 122.233,34.77 124.23,37.313    126.549,42.293 128.167,43.598 129.92,46.183 131.159,45.186 132.122,41.472 132.62,31.772 133.393,22.218 135.869,34.158    137.011,27.393 138.593,26.975 140.105,23.7 141.798,27.408 143.392,44.492 144.919,25.123 146.446,28.75 147.974,20.265    149.5,36.464 151.028,26.09 152.556,38.673 154.083,19.669 155.611,43.304 157.139,36.788 158.667,38.004 160.195,38.431    161.724,22.905 163.253,42.123 164.783,24.857 166.313,46.608 167.841,25.305 169.37,18.011 170.898,31.354 172.427,24.559    173.955,28.884 175.482,40.333 177.011,32.751 178.538,41.237 180.066,47.127 181.594,43.499 183.122,24.006 184.65,21.467    186.179,14.662 187.707,42.382 189.235,42.503 190.764,45.967 192.293,21.37 193.822,51.36 195.351,15.698 196.879,47.841    198.406,43.268 199.933,34.203 201.458,12.457 202.984,29.318 204.509,18.954 206.034,38.59 207.559,16.784 209.083,22.462    210.607,20.343 212.131,48.97 213.656,42.753 215.18,37.636 216.704,46.455 218.229,31.537 219.753,29.333 221.279,23.424    222.804,28.987 224.331,25.067 225.857,13.912 227.385,41.814 228.913,18.451 230.442,31.365 231.972,23.221 233.503,42.348    235.033,19.596 236.562,39.059 238.09,20.44 239.619,39.01 241.146,44.873 242.673,14.525 244.2,27.227 245.726,33.606    247.253,14.711 248.779,33.654 250.306,39.412 251.833,49.366 253.36,33.334 254.888,28.23 256.417,15.122 257.946,18.537    259.477,28.864 261.008,40.679 262.539,34.07 264.069,47.722 265.599,46.487 267.128,20.913 268.656,26.77 270.185,44.671    271.712,23.411 273.24,19.045 274.77,12.42 276.298,30.343 277.828,14.36 279.358,47.706 280.891,44.214 282.422,39.935    283.952,16.386 285.482,27.72 287.012,40.819 288.541,16.634 290.07,41.707 291.601,50.9 293.131,22.776 294.662,41.885    296.194,27.347 297.727,13.688 299.257,12.574 300.787,25.857 302.317,30.341 303.848,15.421 305.379,37.147 306.911,41.922    308.444,17.206 309.976,14.933 311.506,51.536 313.037,28.849 314.568,16.486 316.102,19.293 317.634,22.481 319.16,44.502    320.688,23.083 322.219,18.388 323.753,30.686 325.283,34.746 326.813,23.126 328.341,19.113 329.87,30.492 331.399,21.367    332.932,48.154 334.466,32.926 335.997,45.74 337.527,32.699 339.059,27.332 340.593,50.513 342.126,40.542 343.658,40.756    345.191,26.477 346.727,17.308 348.26,43.734 349.795,28.588 351.329,42.62 352.864,43.631 354.396,45.742 355.927,51.625    357.464,22.86 358.997,23.167 360.533,46.623 362.071,16.75 363.606,36.29 365.146,13.583 366.687,14.037 368.229,42.868    369.816,27.695 371.264,33.012 372.096,49.95 373.564,46.835 375.222,42.004 377.895,26.32 377.773,44.759 382.013,18.275    382.608,27.628 386.051,14.189 384.409,37.252 387.686,26.387 389.094,27.792 392.344,19.431 389.937,39.674 394.689,24.919    395.373,29.292 398.123,24.922 399.195,27.434 393.344,54.526 400.075,36.133 401.988,35.153 399.628,47.474 404.842,36.434    405.756,38.502 400.77,56.376 409.53,37.224 403.023,57.609 410.535,42.93 415.915,34.309 411.934,47.111 410.833,52.897    419.846,37.438 411.981,56.725 420.78,42.662 426.077,36.084 420.539,49.532 428.684,38.265 427.872,42.913 420.719,57.746    437.974,32.84 435.608,39.812 430.71,50.215 441.621,37.038 433.717,51.295 436.282,50.402 425.03,68.103 430.885,62.605    439.523,53.945 449.043,44.733 447.249,49.6 429.123,73.252 432.323,71.576 434.386,71.267 447.528,59.148 450.831,57.996    455.494,55.579 459.354,54.147 451.036,64.575 462.892,55.632 453.862,66.238 456.51,66.004 440.565,81.865 452.858,73.263    453.535,74.656 468.607,64.622 459.143,74.124 452.701,80.916 468.202,71.399 456.627,81.657 456.293,83.683 474.546,73.245    476.076,74.334 456.723,88.577 465.736,84.748 469.673,84.227 456.217,93.794 463.428,91.375 468.55,90.308 480.272,85.97    472.844,91.629 456.651,101.266 458.669,101.789 473.719,96.488 474,98.088 468.639,102.044 463.92,105.551 479.302,101.102    475.376,104.292 492.381,99.901 491.793,101.99 472.33,110.202 463.781,114.412 480.383,110.942 467.828,116.118 483.426,113.435    489.522,113.595 476.245,118.476 464.189,122.688 489.036,118.917 491.639,120.128 462.349,127.124 495.808,122.93    471.595,128.358 477.81,128.948 479.834,130.222 462.702,133.624 462.167,134.983 478.798,134.926 488.876,135.762    498.269,136.919 497.307,138.732 472.046,141.167 463.492,142.72 472.018,144.011 483.28,145.537 468.691,147.063 495.089,148.589    472.666,150.115 467.159,151.642 497.676,153.168 486.447,154.694 463.399,156.221 470.34,157.748 475.893,159.275    483.166,160.802 466.025,162.33 500.373,163.858 497.171,165.386 469.933,166.915 497.023,168.442 497.78,169.97 490.545,171.497    476.967,173.024 495.986,174.551 473.77,176.078 499.217,177.604 463.082,179.131 467.895,180.658 475.223,182.185    491.452,183.711 461.66,185.239 480.466,186.766 473.193,188.293 474.688,189.82 495.743,191.348 497.825,192.876 491.179,194.404    464.101,195.932 468.531,197.458 491.769,198.984 469.395,200.51 476.854,202.035 495.521,203.559 491.834,205.083    461.332,206.607 463.322,208.13 484.518,209.653 495.479,211.177 498.812,212.7 466.518,214.223 469.811,215.746 499.554,217.269    481.82,218.792 480.944,220.316 466.73,221.84 494.38,223.364 469.354,224.889 462.188,226.415 472.835,227.941 481.638,229.468    487.521,230.996 478.442,232.525 462.003,234.055 477.347,235.583 471.177,237.112 495.234,238.639 477.663,240.166    481.164,241.692 495.319,243.218 464.609,244.744 471.405,246.269 493.265,247.794 472.479,249.32 490.028,250.845    473.248,252.371 480.048,253.897 472.406,255.424 498.199,256.952 499.782,258.48 489.928,260.009 480.258,261.539 469.12,263.069    466.461,264.599 500.441,266.127 469.549,267.654 495.587,269.182 470.286,270.709 477.947,272.235 486.12,273.763 483.381,275.29    469.119,276.818 471.142,278.347 499.376,279.876 483.431,281.407 483.903,282.938 499.659,284.467 477.036,285.996    467.163,287.524 470.013,289.053 498.999,290.58 479.655,292.109 496.319,293.639 463.991,295.169 483.027,296.7 471.144,298.23    498.459,299.76 471.946,301.289 465.317,302.818 481.579,304.348 479.434,305.878 465.808,307.408 500.555,308.939 498.512,310.47    464.052,312 473.761,313.53 467.272,315.061 483.045,316.592 476.203,318.123 491.039,319.648 473.184,321.176 486.932,322.705    489.679,324.237 477.372,325.767 464.308,327.295 466.933,328.822 460.955,330.35 487.331,331.878 479.208,333.409    492.696,334.941 495.178,336.472 479.795,338.002 489.539,339.531 464.392,341.064 496.585,342.597 492.826,344.128    468.174,345.66 476.38,347.193 474.654,348.726 490.179,350.26 466.168,351.793 463.119,353.327 497.197,354.857 485.692,356.388    499.791,357.923 463.619,359.455 461.635,360.99 491.839,362.526 468.889,364.062 500.639,365.599 479.232,362.457  " style="fill:#3B6EAD;"/><g><path d="M203.7,162.66c12.159,0,22.039-10.458,22.039-23.348c0-12.909-9.88-23.367-22.039-23.367    c-12.167,0-22.048,10.458-22.048,23.367C181.651,152.202,191.532,162.66,203.7,162.66z" style="fill:#FFFFFF;"/><path d="M308.744,115.945c-12.214,0-22.048,10.458-22.048,23.367c0,12.89,9.834,23.348,22.048,23.348    c12.168,0,22.029-10.458,22.029-23.348C330.773,126.403,320.912,115.945,308.744,115.945z" style="fill:#FFFFFF;"/><path d="M290.584,394.936c8.636,4.114,40.189,0,40.189,0c-0.384-53.152,0-209.823,0-209.823    c-75.229,85.217-149.122,0-149.122,0c-1.729,65.055,0,209.823,0,209.823c12.085,3.218,38.452-0.457,38.452-0.457    c1.757-45.363,0-149.814,0-149.814c38.91,19.71,71.323,0,71.323,0C289.285,315.217,290.584,394.936,290.584,394.936z" style="fill:#FFFFFF;"/></g></g><g id="Layer_1"/></svg>