<?xml version="1.0" ?><!DOCTYPE svg  PUBLIC '-//W3C//DTD SVG 1.1//EN'  'http://www.w3.org/Graphics/SVG/1.1/DTD/svg11.dtd'><svg height="512px" style="enable-background:new 0 0 512 512;" version="1.1" viewBox="0 0 512 512" width="512px" xml:space="preserve" xmlns="http://www.w3.org/2000/svg" xmlns:xlink="http://www.w3.org/1999/xlink"><g id="social__x2C__media__x2C__social_media__x2C___yahoo_messanger__x2C_"><polygon points="471.465,368.662 461.829,369.928 469.508,371.436 471.103,372.888 465.075,373.975    495.76,377.361 473.159,377.285 461.283,377.603 498.241,382.899 481.845,382.695 492.664,385.753 495.716,387.944    469.275,385.384 482,389.074 464.819,387.38 470.32,389.879 493.333,396.425 471.017,392.969 492.432,399.826 492.794,401.731    486.312,401.749 476.763,400.676 467.742,399.5 474.614,403.227 474.054,404.648 488.443,411.396 473.147,407.568 480.641,412.103    465.375,407.73 471.713,411.935 470.973,413.283 462.385,411.085 487.033,424.193 480.453,422.976 464.057,416.655    464.423,418.491 465.54,420.77 479.201,430.084 463.999,423.357 462.358,424.138 469.263,430.092 473.179,434.471 478.643,440.03    475.409,440.021 465.603,435.415 446.175,423.625 448.94,427.253 473.903,447.681 465.043,443.122 461.347,442.324    442.508,429.051 445.17,432.989 466.66,453.312 447.957,439.119 465.697,457.24 454.108,448.849 460.918,457.611 452.436,451.704    434.979,436.291 450.397,454.247 438.891,444.293 442.428,450.291 455.29,467.115 429.366,439.71 434.961,448.409 444.528,462.411    445.371,466.148 439.537,461.34 433.915,456.493 436.267,462.276 429.545,455.501 432.048,461.711 427.039,456.973    418.844,446.966 420.977,452.758 436.212,480.423 425.991,466.599 423.242,464.918 416.266,455.447 424.418,473.518    413.043,455.134 419.411,470.78 412.68,460.47 422.704,485.182 410.469,462.343 412.064,469.523 417.122,485.526 405.92,462.3    406.156,466.738 411.299,484.73 412.401,492.934 409.002,488.486 404.688,480.779 405.168,487.785 397.224,466.837    403.289,493.733 400.557,490.361 396.718,482.08 396.168,486.736 391.863,474.936 390.843,477.353 387.389,467.422    386.838,472.163 388.142,488.941 382.489,462.584 382.232,470.232 380.104,464.492 380.568,480.902 378.473,475.143    376.316,466.702 375.934,480.952 375.103,494.216 373.2,489.586 371.184,475.907 369.941,492.06 368.246,488.102 366.719,479.219    365.191,489.107 363.664,487.569 362.137,464.045 360.609,474.131 359.082,473.311 357.555,486.735 356.027,476.299    354.499,487.199 352.971,470.914 351.442,487.365 349.914,476.426 348.385,475.806 346.854,477.327 345.325,491.556    343.797,483.998 342.268,485.334 340.739,477.353 339.211,483.506 337.683,474.066 336.155,500.433 334.627,481.592 333.1,495.825    331.571,472.826 330.044,470.436 328.516,464.187 326.987,480.61 325.459,492.74 323.931,475.167 322.402,483.142 320.874,481.551    319.345,478.362 317.815,497.388 316.287,484.455 314.759,463.277 313.231,494.119 311.705,488.128 310.179,471.361    308.653,494.246 307.128,485.29 305.604,471.172 304.079,499.868 302.555,479.374 301.03,483.439 299.506,492.923 297.982,461.894    296.458,498.703 294.934,467.558 293.409,483.909 291.884,477.222 290.359,468.314 288.833,472.151 287.308,478.188 285.78,495.54    284.253,499.778 282.725,473.533 281.196,496.885 279.666,489.802 278.135,474.344 276.605,485.577 275.076,462.115    273.547,482.17 272.02,488.173 270.492,476.158 268.965,487.574 267.438,463.788 265.911,484.814 264.385,495.567 262.858,471.98    261.332,489.627 259.805,491.215 258.277,468.106 256.75,461.688 255.221,489.664 253.692,493.475 252.162,478.157 250.63,468.68    249.099,477.635 247.569,488.64 246.04,481.938 244.511,490.193 242.982,498.619 241.454,468.741 239.926,476.225 238.398,496.257    236.869,476.701 235.34,473.369 233.811,495.261 232.28,491.345 230.748,463.957 229.216,466.988 227.686,467.14 226.156,496.438    224.626,492.028 223.097,497.297 221.567,500.877 220.038,477.72 218.507,487.506 216.976,490.824 215.444,475.433    213.912,468.161 212.381,492.416 210.851,462.065 209.321,461.948 207.791,468.249 206.259,491.015 204.727,492.372    203.195,490.437 201.663,492.108 200.132,484.17 198.602,494.854 197.07,472.152 195.537,465.249 194.005,472.569 192.479,481.556    190.95,468.953 189.419,500.232 187.886,470.006 186.355,469.146 184.826,480.829 183.297,496.446 181.769,487.995    180.239,499.377 178.707,462.907 177.173,470.293 175.642,492.96 174.111,470.533 172.58,463.149 171.046,482.015 169.513,477.259    167.98,496.197 166.447,472.003 164.912,485.393 163.379,485.285 161.844,487.473 160.31,475.263 158.774,486.609 157.243,495.885    155.711,475.02 154.175,461.375 152.641,498.493 151.105,482.37 149.568,487.079 148.032,474.457 146.493,476.392 144.952,471.351    143.41,499.772 142.099,464.243 140.314,481.918 138.78,481.545 137.549,475.756 136.87,464.094 135.825,460.758 132.349,483.979    130.334,487.882 128.584,488.711 127.956,481.047 128.731,465.367 127.537,464.459 122.876,483.058 118.283,498.514 117.5,493.311    120.955,469.636 118.947,471.998 111.767,494.765 116.078,471.503 117.548,460.832 109.692,482.912 104.872,492.97    109.746,472.187 108.612,470.902 104.974,476.742 108.354,463.109 105.268,467.275 97.603,482.475 94.091,486.502 92.159,486.571    102.357,459.697 99.349,462.91 100.406,457.468 93.709,467.818 92.594,466.681 81.964,483.325 84.116,475.754 87.978,465.639    88.191,462.277 91.788,453.516 86.764,458.965 84.85,459.242 84.295,457.418 82.083,458.067 68.107,475.277 77.304,459.604    84.059,448.016 84.126,445.72 83.805,443.985 67.34,462.122 78.513,446.192 79.974,442.396 62.771,459.837 73.215,445.873    74.005,442.932 60.284,455.224 65.24,447.868 69.432,441.598 74.941,434.32 69.464,437.668 63.456,441.279 54.373,447.351    44.739,453.504 68.891,430.945 61.27,435.45 42.475,448.503 62.342,430.972 55.105,434.646 39.08,444.457 55.975,430.344    58.513,426.829 61.444,423.177 33.902,439.419 45.295,430.155 62.402,417.877 51.913,422.569 37.638,429.079 49.91,420.365    29.346,429.76 43.437,420.442 31.61,424.66 39.212,419.075 43.651,415.251 58.674,406.822 36.38,415.136 37.158,413.085    30.774,413.963 21.969,415.598 33.344,409.468 55.409,399.922 24.286,409.166 36.53,403.381 31.939,403.197 43.021,398.268    18.616,403.618 15.634,402.573 41.647,394.199 48.728,391.058 47.269,390.021 20.743,394.135 42.147,388.274 39.119,387.384    20.208,389.021 41.459,384.105 41.605,382.668 49.754,380.262 16.71,382.545 26.94,379.83 18.177,378.935 29.057,376.484    38.781,374.393 34.173,373.146 27.116,371.842 34.05,370.158 39.574,368.662 35.131,367.136 26.071,365.61 40.2,364.084    18.457,362.559 21.036,361.032 24.421,359.506 34.006,357.979 19.067,356.453 32.417,354.927 28.468,353.399 45.138,351.872    47.989,350.345 36.228,348.816 28.768,347.289 29.94,345.761 33.192,344.232 34.451,342.705 19.42,341.178 21.014,339.651    41.298,338.124 48.011,336.598 17.939,335.071 16.406,333.545 32.253,332.018 39.689,330.491 34.439,328.965 22.165,327.438    50.192,325.91 19.753,324.383 38.852,322.856 42.006,321.329 49.209,319.801 38.091,318.273 34.938,316.746 27.826,315.22    12.803,313.693 26.557,312.168 49.864,310.644 24.845,309.119 45.761,307.595 35.331,306.071 28.058,304.548 45.094,303.025    17.181,301.502 26.979,299.979 38.122,298.456 23.011,296.934 33.452,295.41 12.022,293.887 21.529,292.363 26.906,290.84    39.882,289.314 49.739,287.79 11.893,286.265 40.032,284.738 29.756,283.212 17.932,281.684 13.501,280.155 45.003,278.625    39.569,277.097 35.454,275.568 27.925,274.041 45.347,272.515 49.174,270.988 41.201,269.463 17.397,267.938 37.892,266.412    45.606,264.887 13.348,263.361 13.771,261.836 49.779,260.311 49.327,258.784 12.564,257.258 41.748,255.73 13.826,254.202    41.643,252.673 12.968,251.143 25.155,249.613 36.005,248.084 32.046,246.556 24.565,245.028 25.041,243.501 28.771,241.975    44.222,240.448 30.914,238.92 18.293,237.393 24.016,235.865 19.477,234.337 45.783,232.808 45.567,231.277 19.365,229.747    16.358,228.217 12.543,226.688 17.253,225.16 31.593,223.632 25.163,222.104 50.041,220.576 46.255,219.046 50.897,217.517    16.147,215.985 48.702,214.455 36.294,212.925 49.776,211.396 20.143,209.867 40.63,208.338 34.527,206.808 20.272,205.277    20.348,203.746 27.433,202.216 37.206,200.687 33.325,199.157 14.042,197.626 49.532,196.095 37.133,194.564 13.979,193.039    22.976,191.512 20.707,189.982 41.66,188.45 26.202,186.92 11.172,185.393 31.629,183.866 49.997,182.338 41.063,180.81    48.91,179.279 46.128,177.746 38.547,176.216 22.026,174.687 41.621,173.157 13.933,171.624 23.063,170.092 21.088,168.561    42.47,167.029 43.663,165.495 46.325,163.963 39.55,162.43 27.342,160.896 19.792,159.362 40.137,157.832 27.114,156.302    31.019,154.767 27.352,153.234 50.358,151.7 13.127,150.163 43.26,148.629 48.121,147.091 13.73,145.551 23.656,144.011    43.57,142.644 12.083,140.434 15.37,138.776 18.364,137.182 13.646,135.153 27.994,134.534 15.484,131.767 20.386,130.523    25.209,129.415 36.063,129.251 13.724,124.396 33.156,125.774 43.324,126.035 28.077,121.688 40.305,122.577 38.991,120.815    24.609,115.918 36.325,117.136 25.569,112.721 31.842,112.748 23.873,108.749 38.939,111.635 46.051,112.375 55.697,114.187    55.495,112.773 21.549,98.805 55.737,110.135 54.233,108.15 31.628,97.252 53.386,104.916 30.445,93.082 43.066,97.13    43.234,95.531 52.34,98.405 52.581,96.965 56.899,97.708 47.019,90.683 44.597,87.562 51.879,90.061 53.73,89.495 62.937,93.592    58.196,88.975 47.024,79.847 49.312,79.5 65.016,88.707 62.122,84.978 68.98,88.404 60.475,80.246 53.183,72.637 44.086,63.193    55.093,70.137 46.874,60.976 51.844,63.058 60.387,68.579 74.095,79.304 69.889,73.461 64.764,66.443 63.951,63.469 63.543,60.81    73.893,69.597 55.308,47.063 81.375,73.852 68.117,56.474 70.437,56.789 61.513,43.358 72.899,54.895 74.301,54.171 73.505,50.521    80.827,57.884 70.685,41.003 86.299,60.723 83.088,53.412 90.493,62.126 74.239,33.709 80.625,40.786 79.459,35.565 91.866,53.804    95.99,58.326 98.355,59.9 88.26,37.594 96.082,49.554 95.271,44.569 91.886,33.763 101.319,50.645 94.168,30.665 96.858,32.721    98.33,31.959 107.262,50.511 105.137,40.844 110.751,52.19 106.414,35.26 103.805,22.124 110.923,39.224 106.78,19.816    115.793,45.54 110.973,21.843 116.208,35.663 115.182,24.634 116.983,25.026 121.357,37.967 121.679,31.796 124.078,36.375    124.083,27.178 127.721,40.522 129.308,41.602 128.147,20.424 130.372,25.177 132.813,33.623 134.709,38.27 136.195,38.736    138.137,47.913 139.166,40.705 140.645,43.249 141.617,12.43 143.41,46.395 144.938,12.697 146.465,39.517 147.992,44.606    149.519,32.607 151.046,34.098 152.574,44.807 154.102,33.162 155.629,22.573 157.157,22.162 158.686,25.624 160.214,34.66    161.743,50.682 163.272,51.421 164.801,29.352 166.331,23.05 167.86,24.43 169.388,17.796 170.917,13.889 172.445,27.581    173.973,48.602 175.501,16.144 177.029,33.503 178.557,13.421 180.084,27.477 181.612,24.923 183.14,19.614 184.668,48.799    186.197,13.867 187.726,31.718 189.253,15.234 190.782,42.347 192.312,33.667 193.841,33.368 195.369,21.844 196.897,34.455    198.424,14.721 199.951,44.462 201.477,37.436 203.002,46.346 204.528,28.737 206.053,27.935 207.577,44.468 209.102,30.631    210.626,34.983 212.15,41.53 213.674,46.512 215.198,47.115 216.723,14.55 218.247,33.87 219.772,32.3 221.297,47.565    222.823,43.898 224.349,23.879 225.875,45.966 227.403,33.236 228.931,36.448 230.46,17.333 231.99,42.187 233.521,48.864    235.051,20.98 236.58,34.242 238.109,25.007 239.637,16.9 241.164,45.578 242.691,40.867 244.218,29.091 245.745,35.732    247.271,15.856 248.797,40.086 250.324,42.132 251.851,25.63 253.378,36.254 254.906,33.865 256.435,27.192 257.965,26.185    259.495,43.108 261.026,31.594 262.558,23.721 264.087,28.986 265.616,18.288 267.146,18.036 268.674,45.976 270.202,49.266    271.73,12.118 273.259,14.626 274.787,37.638 276.316,40.298 277.846,24.344 279.377,27.883 280.908,41.33 282.439,34.268    283.971,11.913 285.5,18.688 287.03,41.819 288.56,33.379 290.089,32.273 291.618,46.163 293.148,41.636 294.68,34.953    296.213,31.003 297.744,39.906 299.275,27.866 300.806,34.246 302.336,42.459 303.866,34.355 305.397,28.865 306.929,28.77    308.462,32.235 309.993,38.987 311.523,39.644 313.055,27.832 314.586,30.166 316.119,18.139 317.651,14.672 319.178,51.071    320.706,22.627 322.236,34.193 323.771,26.868 325.301,39.715 326.83,12.879 328.358,27.854 329.888,31.487 331.417,24.333    332.949,38.216 334.483,49.309 336.015,13.706 337.545,32.825 339.076,32.65 340.61,13.971 342.144,38.611 343.676,42.378    345.209,43.903 346.744,36.609 348.277,22.366 349.813,19.177 351.347,13.436 352.882,17.562 354.413,23.306 355.944,29.586    357.48,28.291 359.015,14.831 360.551,31.692 362.089,26.576 363.624,13.453 365.163,35.771 366.704,16.896 368.246,15.119    370.023,13.55 371.571,22.184 372.076,50.833 373.922,40.496 375.86,32.764 378.206,22.676 379.523,26.384 381.533,22.854    383.427,21.115 381.878,45.016 385.699,28.753 385.242,41.414 391.146,16.369 391.302,24.948 389.863,40.094 396.861,15.134    395.183,30.157 394.414,39.834 396.993,35.826 393.346,54.576 396.576,48.081 397.483,49.784 405.646,28.971 400.62,48.908    401.122,51.588 403.06,50.213 407.213,43.26 417.598,21.402 416.069,29.734 415.198,35.992 406.948,58.183 409.219,56.365    417.209,42.91 427.525,25.765 413.765,56.21 429.315,30.086 417.455,55.115 414.956,62.29 422.956,51.265 435.579,33.346    430.504,44.773 438.42,35.474 432.243,47.932 425.094,61.137 431.858,53.944 438.396,47.512 444.871,41.574 430.697,62.866    444.201,48.054 446.458,47.924 433.548,65.995 433.072,68.68 438.644,64.426 456.063,47.401 439.622,67.634 447.609,61.372    435.266,76.12 452.938,60.508 452.308,63.365 463.175,55.377 451.867,68.067 462.153,61.015 454.975,69.462 450.19,75.508    454.587,73.808 441.914,85.795 447.073,83.439 468.093,69.386 443.863,89.137 466.903,74.394 459.273,81.639 478.17,70.832    458.929,85.453 467.519,81.793 473.045,80.304 461.657,88.974 462.047,90.458 454.193,96.512 470.003,89.531 484.844,83.596    481.201,87.422 478.956,90.447 483.451,90.198 465.053,100.413 475.578,97.408 453.906,108.221 462.371,106.179 456.319,109.997    476.589,103.844 475.249,105.996 466.855,110.485 479.027,108.027 471.762,111.942 471.946,113.429 477.135,113.51    489.784,111.761 468.165,118.943 471.39,119.625 486.854,117.685 475.73,121.677 476.531,123.049 462.08,127.157 483.407,124.969    462.269,129.763 496.69,126.368 471.845,131.197 482.653,131.461 499.308,131.459 496.763,133.466 486.142,135.947 462.52,138.831    481.578,139.363 478.222,141.001 465.125,142.696 493.581,144.011 479.385,145.537 499.334,147.063 470.45,148.589    470.977,150.115 481.879,151.641 465.722,153.167 485.896,154.693 466.703,156.22 462.172,157.747 479.946,159.273 497.679,160.8    464.913,162.328 464.555,163.856 482.561,165.384 462.133,166.913 461.201,168.44 468.954,169.968 494.922,171.495    486.056,173.021 486.825,174.548 488.805,176.075 475.18,177.602 486.178,179.128 499.26,180.655 498.692,182.182 498.712,183.708    494.038,185.235 500.323,186.762 488.012,188.29 474.249,189.816 472.488,191.343 463.139,192.872 476.894,194.4 466.984,195.927    490.101,197.454 469.174,198.979 470.631,200.505 479.854,202.03 479.696,203.554 476.596,205.078 468.896,206.602    484.285,208.125 467.281,209.648 481.22,211.171 465.956,212.694 471.653,214.217 497.623,215.74 491.278,217.263 478.152,218.786    476.679,220.31 462.7,221.833 477.271,223.358 494.908,224.883 464.039,226.408 499.321,227.935 478.139,229.461 469.496,230.989    469.423,232.518 482.098,234.047 465.02,235.576 485.814,237.104 486.295,238.631 478.099,240.158 463.834,241.685 497.442,243.21    489.61,244.735 489.359,246.261 497.945,247.786 495.193,249.312 487.74,250.837 469.557,252.363 492.142,253.889 499.458,255.416    473.833,256.943 461.057,258.471 499.215,260 473.531,261.53 487.901,263.06 478.617,264.589 470.351,266.117 474.242,267.645    460.837,269.172 465.972,270.698 490.6,272.226 496.066,273.752 491.658,275.279 471.556,276.808 460.684,278.336 485.018,279.865    469.178,281.396 489.627,282.927 466.372,284.456 498.566,285.984 489.405,287.513 473.026,289.041 496.695,290.569    487.799,292.098 499.875,293.627 483.822,295.156 472.22,296.688 478.115,298.218 462.202,299.748 488.104,301.276    484.676,302.806 464.68,304.335 464.071,305.864 481.162,307.396 489.143,308.927 478.892,310.457 471.938,311.986    489.309,313.517 470.066,315.047 462.119,316.578 475.688,318.109 494.588,319.634 482.366,321.161 482.951,322.69    476.483,324.223 468.634,325.753 468.855,327.28 494.214,328.808 469.081,330.335 481.909,331.863 495.249,333.395    486.002,334.927 469.842,336.457 474.589,337.986 463.991,339.517 470.98,341.049 461.695,342.581 495.335,344.112    468.179,345.644 478.195,347.178 467.313,348.71 474.215,350.243 486.788,351.776 471.648,353.311 461.726,354.841    496.006,356.371 462.495,357.906 489.899,359.438 495.652,360.974 480.134,362.51 463.326,364.044 482.924,365.582    474.349,348.256  " style="fill:#6D2A7D;"/><path d="M255.828,396.764c77.617,0,140.523-62.86,140.523-140.416   c0-77.561-62.906-140.421-140.523-140.421c-77.617,0-140.522,62.86-140.522,140.421   C115.306,333.903,178.211,396.764,255.828,396.764z M291.7,179.555c10.108,0,18.307,8.191,18.307,18.284   s-8.198,18.284-18.307,18.284c-10.1,0-18.297-8.191-18.297-18.284S281.601,179.555,291.7,179.555z M222.171,179.555   c10.1,0,18.297,8.191,18.297,18.284s-8.198,18.284-18.297,18.284c-10.11,0-18.297-8.191-18.297-18.284   S212.061,179.555,222.171,179.555L222.171,179.555z M157.023,238.063h197.609v36.582h-0.411   c-4.099,50.756-46.539,90.67-98.402,90.67c-51.845,0-94.276-39.914-98.375-90.67h-0.42V238.063L157.023,238.063z M341.213,270.751   H168.075v-22.521h173.138V270.751L341.213,270.751z" id="Yahoo_x21__Messenger_1_" style="fill:#FFFFFF;"/></g><g id="Layer_1"/></svg>