<?xml version="1.0" ?><!DOCTYPE svg  PUBLIC '-//W3C//DTD SVG 1.1//EN'  'http://www.w3.org/Graphics/SVG/1.1/DTD/svg11.dtd'><svg height="512px" style="enable-background:new 0 0 512 512;" version="1.1" viewBox="0 0 512 512" width="512px" xml:space="preserve" xmlns="http://www.w3.org/2000/svg" xmlns:xlink="http://www.w3.org/1999/xlink"><g id="social__x2C__media__x2C__social_media__x2C___quora__x2C_"><polygon points="483.962,368.68 469.581,370.067 467.141,371.39 481.999,373.342 479.172,374.747    473.676,375.9 462.163,376.406 488.786,380.23 461.474,378.932 468.503,381.072 473.959,383.213 465.927,383.481 496.645,389.914    488.313,390.217 488.79,392.006 462.493,388.27 481.837,393.905 480.129,395.139 485.478,398.099 477.965,397.813 463.212,395.29    480.329,401.741 487.301,405.573 458.508,398.009 490,410.078 473.081,405.939 473.541,407.731 469.272,407.726 480.078,413.675    463.82,408.646 458.277,407.765 460.687,410.325 473.658,417.937 454.896,410.606 477.871,423.606 480.115,426.658    460.554,418.105 460.225,419.563 461.254,421.803 456.181,420.496 471.322,431.376 451.746,421.004 460.531,428.3 478.228,441.932    476.889,443.203 466.565,438.094 448.396,426.885 462.721,439.309 461.157,440.149 460.6,441.748 445.354,431.386 468.056,452.187    463.879,450.932 439.948,432.03 448.58,441.664 457.688,452.22 455.584,452.506 452.682,451.963 452.181,453.775 452.312,456.252    445.553,451.447 436.371,443.642 451.311,462.631 448.868,462.427 442.621,457.584 437.432,453.711 444.217,464.707    435.613,456.26 428.944,449.871 434.45,459.794 430.579,456.977 420.64,445.081 439.654,475.925 426.445,458.742 437.245,478.742    428.18,467.228 423.461,462.322 426.169,470.057 417.563,457.795 413.366,452.914 427.934,483.875 415.066,462.142    422.284,480.311 411.555,461.376 407.47,455.706 409.61,463.894 407.659,462.901 409.865,472.132 410.019,476.748 411.809,486.135    409.462,484.665 408.954,488.376 405.581,483.591 398.85,467.414 397.339,467.243 393.948,460.35 394.275,466.643 398.11,487.717    396.391,487.728 393.503,482.407 393.676,491.12 388.38,472.631 391.071,495.957 388.571,491.614 387.969,499.033 385.063,491.147    380.492,467.615 379.74,473.34 377.473,464.704 377.182,477.396 374.907,465.746 374.444,482.081 373.306,492.424 370.901,465.678    369.979,495.301 368.237,473.369 366.71,472.184 365.183,498.063 363.655,464.23 362.128,498.226 360.601,498.136 359.073,476.992    357.546,472.572 356.018,474.517 354.49,480.399 352.962,466.938 351.434,463.1 349.904,484.836 348.376,474.399 346.846,486.61    345.316,490.935 343.788,492.956 342.259,474.505 340.73,492.36 339.202,487.758 337.674,469.586 336.146,477.949 334.618,474.124    333.091,497.036 331.563,498.815 330.035,485.418 328.507,485.194 326.979,496.496 325.45,496.519 323.922,484.497    322.395,487.064 320.865,464.141 319.336,471.957 317.807,482.284 316.278,470.61 314.75,483.999 313.223,483.852 311.696,473.377    310.17,494.842 308.645,467.922 307.12,462.129 305.595,489.509 304.07,464.486 302.546,489.625 301.021,486.651 299.498,497.072    297.974,487.653 296.449,467.243 294.925,494.126 293.4,488.783 291.876,474.815 290.351,470.679 288.825,484.479 287.299,495.743    285.772,500.388 284.245,469.932 282.717,477.937 281.188,466.124 279.657,468.109 278.127,480.712 276.597,494.048    275.067,496.768 273.539,481.531 272.011,483.568 270.483,483.914 268.956,483.899 267.43,500.809 265.903,472.782    264.376,486.881 262.85,479.261 261.323,487.079 259.796,491.269 258.269,462.917 256.741,497.859 255.212,495.684    253.683,487.753 252.153,471.967 250.621,463.618 249.09,479.434 247.56,492.459 246.031,491.48 244.502,479.172 242.974,463.246    241.445,467.563 239.917,463.419 238.389,466.037 236.86,491.317 235.331,488.661 233.801,461.957 232.271,481.448    230.739,488.155 229.208,493.51 227.677,493.128 226.147,478.054 224.617,474.672 223.088,494.272 221.559,497.687 220.029,492.78    218.499,480.617 216.967,489.535 215.435,468.414 213.903,471.069 212.372,474.575 210.842,492.347 209.312,493.142    207.781,472.765 206.25,492.803 204.718,470.506 203.186,474.697 201.654,465.888 200.123,488.137 198.592,495.381    197.061,499.094 195.528,494.546 193.996,480.238 192.469,495.486 190.941,483.138 189.41,467.242 187.877,488.407    186.346,471.083 184.816,472.762 183.288,471.827 181.76,468.229 180.23,486.033 178.698,463.3 177.164,463.327 175.632,493.293    174.102,493.174 172.57,472.97 171.037,470.928 169.503,483.252 167.971,469.463 166.438,500.811 164.903,490.335 163.37,479.447    161.835,477.143 160.301,500.311 158.765,487.792 157.233,489.369 155.702,487.147 154.166,480.009 152.632,481.975    151.096,461.188 149.559,461.053 148.023,462.286 146.484,490.031 144.942,489.631 143.401,487.781 141.724,491.6 140.785,463.979    138.26,494.301 137.791,471.161 136.917,463.268 133.961,483.573 133.467,472.015 130.64,484.985 129.091,484.488 126.36,492.663    125.913,484.15 123.04,491.793 120.083,498.665 120.977,484.47 120.087,480.803 122.701,461.776 116.001,484.503 119.951,461.972    113.509,481.196 116.591,464.24 110.974,478.535 109.602,477.672 102.752,493.76 112.924,458.19 111.334,458.826 99.02,488.298    107.807,460.673 105.254,463.433 93.61,487.681 96.215,477.239 99.053,467.017 90.293,482.27 100.053,458.164 99.21,456.853    95.231,461.598 90.936,466.574 90.183,464.805 92.716,457.343 93.769,452.808 87.556,460.461 88.828,455.674 73.717,476.45    81.418,461.736 77.855,464.232 77.358,462.188 81.282,454.132 79.038,454.727 74.93,457.655 71.902,459.011 67.657,461.729    74.465,451.047 81.795,440.264 61.826,460.914 79.445,439.024 66.551,450.923 65.972,449.305 68.479,444.585 50.42,460.386    51.266,457.093 75.065,432.459 51.375,452.271 50.137,451.107 53.476,445.984 57.915,440.151 70.174,428.194 44.947,446.544    62.75,430.656 67.877,425.074 42.385,442.066 43.04,439.504 54.501,429.593 53.055,428.79 46.027,431.575 43.472,431.312    57.732,420.733 54.269,421.186 34.837,430.695 50.505,420.044 46.083,420.776 40.841,421.801 29.984,425.487 59.345,409.328    44.026,415.086 44.143,413.391 52.814,407.993 56.299,405.072 30.972,413.893 23.763,414.907 46.578,404.57 31.02,408.608    19.425,410.833 48.048,399.647 49.081,397.901 53.622,395.162 46.383,395.858 28.033,399.302 37.178,395.333 27.117,396.168    22.906,395.429 30.706,392.092 19.03,392.746 42.157,386.861 42.785,385.331 48.106,383.128 13.731,386.48 30.38,382.645    30.223,381.097 34.519,379.127 15.493,379.168 37.262,375.948 22.142,375.304 38.322,372.997 32.236,371.72 20.631,370.355    33.171,368.68 50.026,367.153 29.624,365.627 12.872,364.102 27.63,362.575 45.29,361.049 27.869,359.522 46.849,357.996    42.704,356.47 10.993,354.942 20.944,353.416 17.615,351.889 40.302,350.36 35.984,348.833 45.628,347.304 33.308,345.776    45.938,344.248 50.76,342.721 29.996,341.193 29.551,339.666 33.955,338.14 19.994,336.612 30.03,335.086 41.003,333.559    37.685,332.032 11.528,330.506 43.011,328.979 23.75,327.452 23.261,325.925 25.606,324.398 46.448,322.872 22.318,321.345    45.878,319.816 48.095,318.288 11.333,316.761 15.029,315.234 27.191,313.708 11.433,312.183 18.409,310.657 31.489,309.133    32.666,307.609 47.069,306.085 26.264,304.562 35.912,303.038 27.591,301.516 33.131,299.992 19.948,298.47 50.074,296.946    30.503,295.423 21.087,293.899 48.907,292.376 49.604,290.853 42.795,289.327 25.125,287.803 42.946,286.277 27.412,284.751    33.246,283.224 38.039,281.695 35.004,280.167 37.953,278.637 36.208,277.108 37.323,275.58 39.469,274.053 16.108,272.525    42.244,271 45.279,269.474 14.787,267.948 24.43,266.423 19.899,264.897 46.832,263.372 39.124,261.847 42.488,260.32    27.438,258.794 28.846,257.268 47.82,255.74 32.083,254.211 33.204,252.682 24.677,251.152 21.393,249.622 32.069,248.093    43.45,246.565 27.691,245.037 12.839,243.51 16.523,241.983 36.305,240.456 17.535,238.929 22.979,237.401 30.039,235.874    20.68,234.345 42.885,232.815 32.603,231.285 13.874,229.754 38.84,228.225 44.43,226.696 40.155,225.167 36.709,223.639    31.397,222.111 41.838,220.582 13.728,219.053 23.758,217.523 23.483,215.991 48.466,214.461 46.095,212.931 17.998,211.402    30.835,209.873 17.529,208.344 21.539,206.813 27.254,205.283 24.55,203.751 23.543,202.221 43.233,200.691 50.892,199.161    33.282,197.631 22.712,196.1 49.911,194.568 19.87,193.043 41.582,191.516 36.079,189.986 30.596,188.454 43.912,186.924    43.183,185.396 19.142,183.869 26.11,182.341 19.511,180.813 27.943,179.282 21.72,177.749 46.153,176.219 32.586,174.689    21.222,173.159 21.791,171.626 50.645,170.094 49.452,168.563 34.417,167.031 37.069,165.497 44.157,163.965 49.927,162.431    45.428,160.898 18.067,159.363 32.1,157.833 16.296,156.303 27.794,154.768 46.397,153.235 47.488,151.7 11.878,150.164    27.256,148.629 22.037,147.091 36.985,145.551 42.957,144.011 24.487,142.389 43.4,141.271 15.104,138.765 17.991,137.168    22.972,135.782 24.032,134.216 35.07,133.619 17.358,130.202 19.981,128.776 28.805,128.264 25.19,126.122 27.516,124.849    20.295,121.927 34.895,123.001 38.992,122.308 34.333,119.784 31,117.431 40.299,118.134 50.103,119.234 28.333,111.77    37.041,112.634 24.709,107.225 38.313,109.863 52.898,113.239 53.341,112.01 40.485,105.842 51.528,108.515 23.451,95.742    21.588,93.05 35.068,96.949 48.819,101.392 52.274,101.452 58.936,103.156 56.074,100.284 28.643,84.523 29.563,83.018    52.836,93.918 33.609,81.261 42.109,84.287 38.551,80.239 61.262,92.542 60.566,90.512 47.695,80.299 52.177,81.475 49.258,77.558    48.979,75.408 54.285,77.394 57.028,77.59 60.728,78.625 60.77,76.8 61.523,75.532 49.408,63.171 60.12,70.396 61.908,69.97    72.377,77.703 57.452,61.516 61.529,63.256 77.473,77.19 54.569,51.46 66.34,61.507 80.874,75.221 58.975,48.52 71.012,59.846    70.874,57.318 78.331,64.038 62.717,42.044 77.185,57.927 87.228,68.868 67.516,39.579 74.208,46.002 82.892,55.761 75.557,42.117    89.042,59.885 77.273,38.562 91.628,58.881 82.159,40.151 79.6,32.357 82.874,34.655 97.146,57.657 84.48,30.323 95.887,49.177    93.251,40.408 101.529,54.414 96.607,40.202 103.529,52.233 94.469,27.039 105.883,50.759 99.507,30.458 97.637,20.63    109.387,48.341 105.671,33.098 107.588,33.822 115.104,52.767 114.413,45.807 109.608,23.415 114.299,34.443 113.038,23.003    119.592,43.42 114.995,16.048 117.031,17.056 120.713,26.808 120.05,13.791 121.907,13.958 125.005,22.482 129.447,42.689    128.267,21.474 130.217,23.829 133.462,40.597 133.397,22.168 136.807,47.936 137.429,34.974 138.587,26.604 139.964,18.096    142.079,47.762 143.401,30.916 144.928,41.82 146.456,24.042 147.982,29.73 149.51,23.236 151.037,50.569 152.565,19.91    154.092,43.018 155.62,36.029 157.148,46.258 158.676,26.615 160.205,12.081 161.733,29.542 163.263,40.822 164.792,26.143    166.321,23.997 167.851,51.611 169.379,31.164 170.908,26.643 172.436,12.442 173.964,46.057 175.492,36.556 177.02,51.268    178.547,41.944 180.075,46.623 181.603,40.643 183.131,49.404 184.659,16.078 186.188,25.217 187.716,11.805 189.244,29.094    190.772,13.438 192.302,43.19 193.832,35.647 195.36,49.385 196.888,35.065 198.415,14.42 199.942,13.315 201.468,51.32    202.993,47.111 204.519,48.94 206.043,39.455 207.568,46.387 209.092,22.508 210.617,45.86 212.141,33.507 213.665,41.116    215.189,25.352 216.713,24.343 218.238,18.126 219.763,16.608 221.288,41.768 222.813,21.373 224.339,18.451 225.866,21.733    227.394,41.036 228.922,45.068 230.451,15.982 231.981,18.746 233.512,50.666 235.042,32.289 236.571,50.832 238.1,20.085    239.627,49.239 241.155,19.309 242.682,26.067 244.209,35.082 245.735,20.711 247.262,34.26 248.788,27.921 250.315,45.35    251.842,13.962 253.369,40.143 254.897,35.619 256.426,47.585 257.955,31.322 259.485,37.121 261.017,34.545 262.548,22.554    264.078,29.843 265.607,12.868 267.137,46.541 268.665,28.994 270.193,19.037 271.721,49.72 273.249,51.049 274.778,41.181    276.307,18.875 277.837,37.35 279.367,30.867 280.899,48.925 282.431,21.739 283.961,19.769 285.491,36.271 287.021,38.747    288.55,42.135 290.079,25.356 291.609,21.233 293.14,14.953 294.671,37.873 296.203,48.687 297.735,25.51 299.266,39.411    300.796,26.49 302.326,32.914 303.856,16.341 305.388,48.715 306.92,20.66 308.452,41.442 309.984,43.495 311.515,27.557    313.046,26.327 314.577,27.646 316.11,21.436 317.643,16.993 319.169,47.329 320.697,31.396 322.228,32.348 323.762,16.396    325.292,20.26 326.821,51.115 328.35,23.763 329.878,17.821 331.408,23.314 332.94,20.147 334.475,34.56 336.006,31.553    337.536,42.86 339.067,16.166 340.602,23.05 342.135,21.567 343.667,41.5 345.2,12.376 346.735,30.956 348.269,49.666    349.804,51.368 351.338,19.273 352.873,36.966 354.404,27.034 355.936,36.414 357.473,45.689 359.006,33.667 360.542,11.974    362.08,47.413 363.615,47.885 365.154,41.59 366.695,12.55 368.237,13.465 369.989,15.467 371.243,34.135 372.791,33.009    375.343,13.923 375.162,42.994 376.212,47.209 377.987,42.525 382.484,13.921 384.09,15.626 381.63,46.785 383.273,44.846    387.521,27.461 387.458,37.013 390.458,29.281 388.17,48.268 388.596,52.502 394.784,31.826 392.887,45.898 397.26,34.784    401.982,23.616 397.704,44.217 403.026,31.813 400.865,43.682 405.555,34.355 407.971,32.29 407.183,39.077 409.232,38.015    403.565,56.261 415.532,30.999 409.906,48.157 408.404,54.956 417.379,38.905 413.719,50.095 423.03,34.712 418.418,47.228    411.901,62.511 429.572,33.24 426.724,41.704 422.608,51.84 436.476,31.861 437.722,33.266 422.461,60.138 437.424,40.148    421.733,66.023 442.599,38.736 439.414,46.11 431.137,59.93 439.806,51.017 439.018,54.593 437.93,58.4 436.847,62.043    446.807,52.707 447.379,54.532 446.283,58.168 454.29,51.92 433.761,75.796 451.75,59.397 442.571,70.733 446.074,69.349    449.74,67.938 456.123,64.184 460.047,62.886 456.357,68.264 459.317,67.85 440.713,85.132 469.72,63.743 462.02,71.916    459.714,75.656 461.326,76.41 452.12,84.86 456.681,83.419 465.353,79.389 476.803,73.861 475.813,76.571 456.471,90.396    478.948,78.754 478.806,80.855 464.844,90.589 469.893,89.588 463.406,94.732 481.838,87.118 471.487,94.063 480.264,91.688    460.402,102.514 471.676,99.104 466.229,103.058 484.382,97.309 486.539,98.301 467.853,107.09 474.944,106.103 465.44,110.975    466.693,112.036 482.306,108.676 479.948,111.068 482.704,111.953 465.514,118.181 485.025,114.713 463.952,121.368    482.627,118.614 461.966,124.535 489.902,120.475 464.764,126.691 476.437,126.115 465.097,129.336 464.732,130.723    465.443,131.978 461.803,133.722 481.876,133.113 481.997,134.668 475.919,136.641 469.129,138.478 461.329,140.175    492.718,140.614 482.316,142.452 480.219,144.011 493.337,145.537 465.061,147.063 465.781,148.589 498.771,150.115    479.75,151.642 466.857,153.168 478.289,154.694 475.312,156.221 471.171,157.748 478.46,159.275 460.695,160.802 486.867,162.33    488.078,163.858 469.501,165.386 470.551,166.915 473.275,168.442 461.67,169.97 490.009,171.497 485.087,173.024 490.949,174.551    470.654,176.078 467.158,177.604 485.861,179.131 465.455,180.658 470.287,182.185 498.992,183.711 471.278,185.239    484.18,186.766 489.938,188.293 496.341,189.82 463.256,191.348 490.313,192.876 495.423,194.404 484.189,195.932 474.277,197.458    499.42,198.984 492.348,200.51 493.761,202.035 461.094,203.559 479.831,205.083 466.718,206.607 476.532,208.13 471.305,209.653    498.123,211.177 499.063,212.7 491.483,214.223 489.089,215.746 470.916,217.269 488.329,218.792 476.766,220.316 466.32,221.84    484.252,223.364 461.788,224.889 497.095,226.415 485.334,227.941 461.809,229.468 467.209,230.996 498.094,232.525    499.563,234.055 463.18,235.583 463.546,237.112 498.84,238.639 478.34,240.166 473.491,241.692 486.393,243.218 493.85,244.744    482.072,246.269 485.595,247.794 464.45,249.32 475.795,250.845 494.064,252.371 496.089,253.897 483.271,255.424 490.143,256.952    495.228,258.48 496.412,260.009 472.494,261.539 493.018,263.069 487.938,264.599 480.277,266.127 472.879,267.654    483.513,269.182 475.277,270.709 468.673,272.235 499.326,273.763 481.699,275.29 461.909,276.818 493.696,278.347    476.177,279.876 463.595,281.407 482.866,282.938 462.46,284.467 461.031,285.996 464.33,287.524 486.457,289.053 482.341,290.58    473.324,292.109 480.771,293.639 477.573,295.169 488.792,296.7 463.918,298.23 464.848,299.76 467.637,301.289 476.985,302.818    461.969,304.348 478.826,305.878 477.436,307.408 498.541,308.939 475.296,310.47 463.796,312 499.104,313.53 484.574,315.061    500.527,316.592 492.604,318.123 463.487,319.648 496.331,321.176 499.254,322.705 478.484,324.237 479.152,325.767    464.639,327.295 496.456,328.822 490.662,330.35 469.283,331.878 499.45,333.409 497.443,334.941 488.137,336.472 472.733,338.002    470.699,339.531 499.551,341.064 462.934,342.597 495.439,344.128 461.752,345.66 494.864,347.193 484.055,348.726 498.503,350.26    476.67,351.793 500.209,353.327 473.379,354.857 489.151,356.388 482.563,357.923 470.641,359.455 484.772,360.99 460.836,362.526    488.269,364.062 492.726,365.599 478.602,369.348  " style="fill:#C31F00;"/><g><path d="M134.042,242.452c0,69.895,54.508,126.52,121.787,126.52c9.881,0,19.505-1.261,28.69-3.583    c11.564,21.557,29.193,36.824,66.584,29.528V373.47c0,0-24.006-6.18-31.288-23.385c34.691-22.288,57.801-62.165,57.801-107.633    c0-69.881-54.545-126.525-121.787-126.525C188.549,115.927,134.042,172.57,134.042,242.452z M194.533,226.581    c0-43.589,27.867-78.913,62.229-78.913c34.353,0,62.192,35.324,62.192,78.913c0,5.595,0,27.024,0,32.601    c0,21.132-6.551,40.293-17.219,54.464c-13.374-14.609-34.361-26.622-60.975-25.086v2.578v22.288c0,0,18.05,0.749,30.42,22.507    c-4.64,1.39-9.46,2.14-14.419,2.14c-34.362,0-62.229-35.306-62.229-78.891C194.533,253.605,194.533,232.176,194.533,226.581z" style="fill:#FFFFFF;"/></g></g><g id="Layer_1"/></svg>