<?xml version="1.0" ?><!DOCTYPE svg  PUBLIC '-//W3C//DTD SVG 1.1//EN'  'http://www.w3.org/Graphics/SVG/1.1/DTD/svg11.dtd'><svg height="512px" style="enable-background:new 0 0 512 512;" version="1.1" viewBox="0 0 512 512" width="512px" xml:space="preserve" xmlns="http://www.w3.org/2000/svg" xmlns:xlink="http://www.w3.org/1999/xlink"><g id="social__x2C__media__x2C__social_media__x2C___lastfm__x2C_"><polygon points="466.222,368.68 493.037,370.38 476.881,371.65 494.584,373.846 484.396,375.026    464.671,375.281 468.129,376.893 463.665,377.846 497.274,382.812 490.991,383.826 483.713,384.545 474.66,384.794    467.442,385.097 496.996,391.761 492.141,392.646 492.467,394.488 472.909,391.933 483.645,395.967 471.948,394.705    475.926,397.271 475.451,398.718 467.144,397.859 478.357,402.804 460.073,398.516 480.943,407.009 475.252,406.711    473.368,407.665 485.417,413.976 483.707,415.136 468.33,410.531 460.325,408.666 457.068,408.686 477.857,419.902 487.25,426.301    467.888,418.589 458.718,415.536 479.945,428.523 449.353,413.512 469.087,426.289 467.521,427.204 462.43,425.942 471.26,433.276    466.436,432.128 456.317,427.287 469.701,438.252 448.926,425.588 446.85,425.744 449.724,429.558 467.226,444.817    447.526,431.371 464.447,446.96 454.179,440.551 465.54,452.372 456.934,447.083 457.981,450.224 464.751,458.826 446.572,443.839    451.053,450.354 457.855,459.521 454.494,458.53 439.792,445.264 441.158,448.901 446.344,457.013 451.542,465.533    445.185,460.637 442.786,460.29 444.248,464.738 430.264,449.306 442.325,467.75 445.903,475.553 438.235,467.811 427.115,454.524    438.688,474.468 436.818,474.776 436.991,478.301 433.982,476.744 425.396,465.598 420.665,460.417 420.987,463.981    416.857,459.421 417.673,464.058 421.47,474.91 422.991,481.757 411.221,460.648 412.192,466.166 411.892,469.143 408.524,464.965    416.895,489.59 415.765,491.584 411.82,486.149 408.751,482.632 409.902,491.147 407.781,490.344 399.313,468.895 398.281,470.448    395.009,464.12 397.556,479.028 398.984,491.136 390.877,464.261 389.438,463.972 393.421,489.834 386.354,462.06 389.534,487.288    384.051,464.073 384.188,473.841 384.169,484.497 380.464,467.317 380.158,477.136 377.527,465.201 379.023,500.2 375.106,468.614    373.6,466.108 372.25,465.876 370.885,464.703 369.55,464.762 368.246,485.676 366.719,465.22 365.191,495.892 363.664,475.931    362.137,489.802 360.609,486.3 359.082,468.71 357.555,494.189 356.027,493.644 354.499,483.46 352.971,477.632 351.442,470.338    349.914,482.802 348.385,498.008 346.854,490.201 345.325,499.802 343.797,481.021 342.268,498.084 340.739,491.681    339.211,483.071 337.683,487.177 336.155,468.84 334.627,482.244 333.1,477.193 331.571,492.98 330.044,499.269 328.516,468.004    326.987,494.492 325.459,492.63 323.931,471.898 322.402,487.099 320.874,484.824 319.345,495.67 317.815,461.665 316.287,492.128    314.759,497.603 313.231,494.298 311.705,490.145 310.179,490.152 308.653,479.813 307.128,476.377 305.604,461.438    304.079,481.528 302.555,466.329 301.03,475.406 299.506,485.946 297.982,478.825 296.458,498.716 294.934,468.684    293.409,498.288 291.884,467.052 290.359,468.805 288.833,474.933 287.308,495.599 285.78,466.484 284.253,463.303    282.725,462.623 281.196,462.485 279.666,479.311 278.135,485.644 276.605,500.255 275.076,468.858 273.547,481.346    272.02,491.359 270.492,479.833 268.965,486.91 267.438,480.096 265.911,493.229 264.385,484.809 262.858,493.479 261.332,480.376    259.805,472.438 258.277,493.714 256.75,484.067 255.221,498.781 253.692,491.991 252.162,490.749 250.63,484.734 249.099,468.208    247.569,468.662 246.04,474.584 244.511,468.135 242.982,493.731 241.454,479.69 239.926,476.601 238.398,499.956 236.869,461.036    235.34,500.502 233.811,479.843 232.28,461.981 230.748,498.703 229.216,489.695 227.686,469.918 226.156,478.061 224.626,495.535    223.097,477.546 221.567,469.112 220.038,469.205 218.507,494.258 216.976,494.269 215.444,464.94 213.912,484.086    212.381,482.754 210.851,474.297 209.321,484.411 207.791,471.163 206.259,484.163 204.727,492.843 203.195,485.244    201.663,498.718 200.132,467.03 198.602,470.943 197.07,475.293 195.537,489.005 194.005,496.804 192.479,465.308 190.95,491.409    189.419,472.82 187.886,489.895 186.355,479.146 184.826,489.021 183.297,470.693 181.769,471.58 180.239,470.287 178.707,493.664    177.173,486.974 175.642,498.975 174.111,492.81 172.58,465.707 171.046,483.055 169.513,470.325 167.98,488.422 166.447,469.545    164.912,495.998 163.379,461.901 161.844,463.878 160.31,478.479 158.774,488.79 157.243,493.701 155.711,490.65 154.175,486.561    152.641,498.489 151.105,485.225 149.568,463.107 148.032,498.635 146.493,468.521 144.952,462.607 143.41,491.488    142.035,469.827 140.063,491.306 138.113,498.195 138.097,465.707 135.416,485.526 133.657,487.418 132.341,484.074    132.628,466.734 127.959,493.842 126.986,488.209 129.376,461.177 124.77,481.312 123.19,481.283 124.269,467.394 119.673,482.848    115.014,496.562 116.683,481.639 113.978,485.892 118.997,460.537 114.442,471.97 112.678,472.772 113.6,464.781 107.532,479.021    112.856,458.413 108.231,467.582 97.389,492.676 98.203,485.577 94.753,489.573 106.722,456.354 90.819,489.67 98.147,469.04    87.636,487.959 97.656,463.158 93.974,467.3 95.485,461.108 98.613,452.267 90.899,463.523 78.824,481.66 83.959,469.46    87.125,461.181 90.711,452.685 80.197,466.448 83.296,458.927 75.032,468.353 87.313,448.101 81.065,454.439 78.334,455.676    82.724,447.541 69.431,462.142 78.716,448.156 62.15,465.759 69.86,454.154 61.009,461.847 61.005,459.32 70.384,446.822    76.339,438.5 53.555,459.737 57.676,453.218 73.349,435.864 55.765,450.495 45.617,457.515 70.984,432.638 48.331,450.421    65.544,433.756 60.318,436.233 51.895,441.042 54.321,437.164 45.279,442.019 52.542,434.663 56.249,430.158 48.32,433.844    41.116,436.766 51.061,428.316 48.648,428.061 51.117,424.768 37.919,430.858 37.908,428.938 34.826,428.751 40.037,424.027    35.268,424.706 37.101,421.921 30.836,423.151 38.006,417.907 53.153,409.321 50.599,408.965 22.862,419.092 52.789,405.107    51.376,404.226 41.901,406.308 26.868,410.086 24.565,409.086 39.209,402.524 45.175,399.112 47.108,397.076 37.518,398.341    20.776,401.227 34.979,395.883 28.876,395.754 42.437,391.107 49.816,388.135 27.363,391.138 18.731,391.036 43.634,385.19    13.793,388.277 48.874,381.691 24.999,383.304 37.53,380.301 30.658,379.493 29.469,378.037 49.457,375.125 20.515,375.396    13.061,374.009 28.532,371.82 15.907,370.417 29.666,368.68 34.106,367.153 29.6,365.627 47.375,364.102 34.348,362.575    36.461,361.049 24.919,359.522 45.863,357.996 37.912,356.47 21.689,354.942 23.503,353.416 27.654,351.889 48.355,350.36    44.823,348.833 28.954,347.304 47.968,345.776 35.95,344.248 37.782,342.721 16.728,341.193 49.123,339.666 17.226,338.14    25.644,336.612 39.484,335.086 25.832,333.559 23.868,332.032 39.392,330.506 49.219,328.979 41.347,327.452 15.288,325.925    48.893,324.398 44.966,322.872 48.209,321.345 13.623,319.816 19.87,318.288 14.778,316.761 47.381,315.234 39.904,313.708    18.606,312.183 40.767,310.657 19.453,309.133 50.136,307.609 28.13,306.085 35.923,304.562 41.745,303.038 50.071,301.516    39.629,299.992 41.505,298.47 24.986,296.946 27.383,295.423 42.865,293.899 33.711,292.376 43.383,290.853 40.022,289.327    39.309,287.803 48.396,286.277 11.768,284.751 19.494,283.224 21.766,281.695 12.598,280.167 43.638,278.637 27.809,277.108    44.234,275.58 11.596,274.053 43.769,272.525 46.846,271 45.745,269.474 20.279,267.948 29.22,266.423 38.9,264.897    31.942,263.372 27.547,261.847 12.43,260.32 37.148,258.794 38.145,257.268 22.526,255.74 20.174,254.211 44.779,252.682    37.642,251.152 11.315,249.622 42.14,248.093 21.551,246.565 18.971,245.037 13.038,243.51 42.848,241.983 16.528,240.456    35.934,238.929 43.942,237.401 30.699,235.874 45.724,234.345 14.096,232.815 38.284,231.285 37.863,229.754 13.431,228.225    37.523,226.696 34.78,225.167 44.791,223.639 35.962,222.111 19.492,220.582 17.339,219.053 23.078,217.523 26.564,215.991    40.946,214.461 18.846,212.931 50.447,211.402 20.268,209.873 20.436,208.344 36.743,206.813 31.568,205.283 17.388,203.751    39.282,202.221 49.158,200.691 18.52,199.161 24.46,197.631 25.738,196.1 40.33,194.568 24.582,193.043 31.344,191.516    41.876,189.986 44.079,188.454 45.153,186.924 43.252,185.396 36.959,183.869 34.077,182.341 19.519,180.813 26.444,179.282    31.056,177.749 29.662,176.219 47.24,174.689 46.354,173.159 32.627,171.626 45.951,170.094 32.891,168.563 16.871,167.031    13.853,165.497 16.998,163.965 32.906,162.431 19.564,160.898 47.453,159.363 40.751,157.833 38.298,156.303 11.563,154.768    48.72,153.235 34.553,151.7 26.97,150.164 40.868,148.629 26.556,147.091 29.947,145.551 19.394,144.011 27.832,142.433    47.279,141.375 35.605,139.587 11.602,136.816 31.776,136.375 15.106,133.486 17.1,131.92 38.475,132.494 20.805,128.876    31.913,128.687 41.29,128.542 42.197,127.259 24.04,122.598 42.274,124.417 17.519,117.862 38.869,120.789 45.229,120.788    45.655,119.475 36.757,115.69 17.78,108.808 19.122,107.348 21.11,106.107 31.224,107.557 23.227,103.129 55.101,112.633    40.685,105.914 24.336,97.983 23.407,95.725 42.707,101.898 56.395,106.225 53.673,103.589 42.318,96.779 57.556,102.487    56.201,100.345 28.252,84.316 51.792,94.96 43.054,88.482 32.208,80.465 46.525,86.897 51.516,88.144 60.477,92.045 62.237,91.595    56.375,86.09 65.569,90.684 47.692,76.446 45.09,72.571 45.815,71.041 49.463,71.75 58.44,76.805 50.067,68.069 69.418,82.152    63.14,74.999 51.5,62.753 70.01,77.339 75.586,80.698 65.942,69.669 50.596,52.456 75.304,74.992 78.622,76.544 72.972,68.609    78.553,72.651 63.443,53.567 61.246,48.487 77.237,64.914 73.687,58.322 76.435,59.364 69.945,48.501 77.431,55.773 66.064,37.574    89.996,68.347 80.074,51.646 91.835,66.54 73.153,35.309 73.778,32.976 93.442,61.853 95.521,62.787 92.243,54.463 83.544,35.837    90.931,46.049 97.524,55.478 90.217,37.848 87.288,28.068 102.676,56.838 95.685,38.14 92.83,27.583 102.598,46.453    106.512,52.325 99.101,29.389 107.917,48.357 102.68,29.418 110.923,48.536 111.263,45.13 112.759,45.162 109.477,28.991    112.185,32.6 116.009,40.878 113.857,26.253 114.386,21.253 120.11,39.179 124.389,52.647 123.073,39.059 124.518,38.849    126.625,42.672 123.713,13.807 125.866,16.25 128.868,26.327 129.461,16.782 130.875,13.187 135.298,45.548 135.034,21.522    137.86,42.787 138.829,32.414 140.05,20.974 141.999,41.096 143.41,31.736 144.938,17.204 146.465,16.796 147.992,43.741    149.519,45.169 151.046,27.974 152.574,14.083 154.102,19.761 155.629,29.022 157.157,20.217 158.686,13.512 160.214,30.036    161.743,25.921 163.272,27.564 164.801,34.247 166.331,37.044 167.86,35.378 169.388,21.973 170.917,37.798 172.445,32.605    173.973,30.935 175.501,24.876 177.029,35.587 178.557,25.868 180.084,22.854 181.612,22.943 183.14,18.954 184.668,35.269    186.197,35.107 187.726,22.188 189.253,50.312 190.782,48.245 192.312,45.41 193.841,34.202 195.369,34.245 196.897,12.408    198.424,37.045 199.951,48.233 201.477,27.264 203.002,21.981 204.528,51.255 206.053,22.887 207.577,44.993 209.102,43.187    210.626,28.904 212.15,31.177 213.674,25.519 215.198,22.398 216.723,50.205 218.247,32.682 219.772,27.671 221.297,40.763    222.823,41.233 224.349,46.58 225.875,42.97 227.403,39.053 228.931,36.004 230.46,39.271 231.99,19.998 233.521,16.516    235.051,22.818 236.58,20.372 238.109,39.935 239.637,27.45 241.164,23.688 242.691,20.816 244.218,42.029 245.745,39.262    247.271,35.529 248.797,46.817 250.324,37.733 251.851,15.768 253.378,41.92 254.906,43.427 256.435,12.255 257.965,49.471    259.495,44.156 261.026,41.48 262.558,12.297 264.087,26.573 265.616,40.333 267.146,41.619 268.674,18.695 270.202,48.486    271.73,21.258 273.259,49.201 274.787,22.752 276.316,13.544 277.846,31.876 279.377,13.795 280.908,24.981 282.439,22.745    283.971,47.014 285.5,47.06 287.03,15.019 288.56,13.185 290.089,30.158 291.618,32.708 293.148,51.468 294.68,43 296.213,44.047    297.744,42.348 299.275,20.401 300.806,31.541 302.336,21.788 303.866,30.928 305.397,31.308 306.929,18.524 308.462,27.289    309.993,25.535 311.523,29.184 313.055,25.926 314.586,13.725 316.119,41.314 317.651,21.563 319.178,26.35 320.706,28.813    322.236,18.236 323.771,19.222 325.301,21.641 326.83,35.62 328.358,12.482 329.888,49.29 331.417,15.472 332.949,17.679    334.483,16.185 336.015,19.543 337.545,43.682 339.076,17.15 340.61,39.276 342.144,32.627 343.676,46.074 345.209,14.776    346.744,27.2 348.277,48.933 349.813,23.469 351.347,20.381 352.882,48.232 354.413,16.903 355.944,23.739 357.48,42.674    359.015,44.153 360.551,49.527 362.089,40.564 363.624,27.092 365.163,18.045 366.704,45.721 368.246,48.684 369.798,30.462    371.282,32.977 373.51,15.521 375.041,19.565 375.28,41.367 378.789,15.475 379.411,27.575 381.769,20.688 381.802,34.38    385.745,16.617 384.399,37.431 385.099,42.291 389.146,27.592 387.349,45.489 390.586,36.601 396.288,17.731 390.239,51.188    391.778,50.377 401.176,19.999 399.177,33.693 398.849,40.358 401.455,36.924 399.639,47.487 401.05,47.644 408.666,30.354    414.224,20.107 411.035,33.371 416.68,23.683 413.863,35.007 412.976,41.103 419.513,30.343 423.518,25.802 421.677,33.691    421.017,38.741 428.518,27.775 414.284,58.085 413.279,62.645 422.382,49.308 415.444,63.989 419.619,59.585 433.034,40.744    432.207,45.083 433.381,46.226 421.081,66.984 436.465,47.422 427.769,62.13 440.07,47.993 444.638,44.736 435.717,58.771    431.969,65.732 440.178,58.068 428.794,73.657 440.112,62.764 443.377,61.375 452.595,53.735 443.815,65.324 433.337,78.076    458.666,54.852 437.765,77.34 462.67,55.85 442.08,76.97 463.833,59.527 455.183,69.283 445.935,79.075 459.895,69.48    461.585,70.198 456.403,76.245 462.231,73.776 455.062,80.979 453.748,83.703 476.186,70.006 451.561,88.602 472.747,76.497    453.232,90.775 448.02,95.543 455.932,92.357 462.23,90.354 470.405,87.503 452.646,98.858 467.721,92.493 485.214,85.403    455.064,102.026 473.837,94.696 486.729,90.607 468.352,100.553 488.625,93.673 481.755,98.358 477.973,101.619 468.473,106.861    464.714,109.742 480.032,106.009 473.441,109.843 462.572,114.788 487.767,108.77 466.957,116.355 466.936,117.805 491.89,112.992    479.541,117.699 475.773,120.132 463.129,124.279 491.589,120.151 481.097,123.764 467.392,127.602 478.224,127.36    460.352,131.337 474.501,130.873 483.884,131.328 482.627,133.042 468.702,135.749 490.38,135.66 480.061,137.893 500.224,138.616    462.672,141.417 483.794,142.429 481.174,144.011 464.938,145.537 493.653,147.063 498.772,148.589 476.239,150.115    487.115,151.642 472.081,153.168 470.624,154.694 463.623,156.221 486.979,157.748 471.626,159.275 470.156,160.802    491.994,162.33 491.867,163.858 477.201,165.386 497.754,166.915 477.912,168.442 473.357,169.97 487.313,171.497 472.625,173.024    480.843,174.551 500.299,176.078 462.072,177.604 483.696,179.131 496.984,180.658 484.101,182.185 468.162,183.711    468.384,185.239 493.178,186.766 492.561,188.293 471.997,189.82 465.502,191.348 462.152,192.876 468.429,194.404    492.363,195.932 488.576,197.458 500.337,198.984 489.021,200.51 483.724,202.035 485.785,203.559 489.503,205.083    483.056,206.607 461.514,208.13 472.801,209.653 463.497,211.177 461.051,212.7 480.61,214.223 464.763,215.746 481.291,217.269    495.455,218.792 498.272,220.316 493.654,221.84 487.602,223.364 466.803,224.889 492.776,226.415 497.293,227.941    462.362,229.468 492.15,230.996 469.009,232.525 486.254,234.055 500.249,235.583 491.994,237.112 482.26,238.639 494.891,240.166    481.548,241.692 491.995,243.218 471.469,244.744 482.776,246.269 495.603,247.794 475.684,249.32 473.175,250.845    492.771,252.371 478.075,253.897 464.454,255.424 487.425,256.952 471.981,258.48 463.303,260.009 481.06,261.539 486.869,263.069    461.872,264.599 472.974,266.127 472.884,267.654 480.334,269.182 483.752,270.709 482.373,272.235 491.217,273.763    482.074,275.29 465.902,276.818 485.48,278.347 482.81,279.876 497.994,281.407 498.615,282.938 500.118,284.467 469.935,285.996    500.065,287.524 483.347,289.053 494.446,290.58 475.215,292.109 500.2,293.639 462.28,295.169 476.033,296.7 487.468,298.23    494.822,299.76 494.519,301.289 484.744,302.818 464.816,304.348 471.4,305.878 485.172,307.408 490.72,308.939 471.318,310.47    488.178,312 473.583,313.53 498.673,315.061 463.351,316.592 498.354,318.123 466.952,319.648 499.776,321.176 462.022,322.705    489.978,324.237 485.588,325.767 492.364,327.295 467.847,328.822 492.783,330.35 466.062,331.878 492.718,333.409    493.931,334.941 463.237,336.472 488.498,338.002 477.187,339.531 473.919,341.064 479.035,342.597 494.248,344.128    496.875,345.66 460.981,347.193 494.298,348.726 480.22,350.26 466.159,351.793 474.036,353.327 486.731,354.857 496.09,356.388    466.299,357.923 487.499,359.455 487.98,360.99 470.644,362.526 465.351,364.062 480.811,365.599 482.286,374.738  " style="fill:#FD0016;"/><g><path d="M337.8,314.157c-19.486-0.658-25.415-10.952-32.843-27.829    c-12.57-28.573-26.88-61.959-27.008-62.271c-14.363-33.039-42.833-51.962-78.11-51.962c-46.621,0-84.533,37.812-84.533,84.271    c0,46.437,37.912,84.23,84.533,84.23c25.415,0,49.238-11.227,65.357-30.827c0.477-0.566,0.586-1.334,0.293-2.011l-10.649-24.501    c-0.311-0.694-0.988-1.151-1.738-1.17c-0.768-0.036-1.463,0.384-1.811,1.042c-10.046,19.162-29.77,31.064-51.452,31.064    c-31.983,0-58.002-25.945-58.002-57.828c0-31.905,26.019-57.832,58.002-57.832c23.274,0,44.609,13.768,53.099,34.319    l26.349,59.912l3.036,6.729c11.931,27.663,29.423,40.061,56.85,40.152c32.606,0,57.18-21.521,57.18-50.063    c0-28.664-15.9-39.416-43.346-48.356c-2.471-0.787-4.849-1.536-7.137-2.268c-17.511-5.467-28.05-8.776-28.05-22.361    c0-10.989,8.509-18.979,20.255-18.979c9.002,0,15.699,3.73,21.72,12.123c0.566,0.768,1.61,1.042,2.488,0.604l17.676-8.996    c0.456-0.238,0.822-0.658,0.969-1.17c0.164-0.512,0.092-1.061-0.164-1.536c-9.46-16.73-23.092-24.885-41.7-24.885    c-28.306,0-46.603,17.06-46.603,43.48c0,27.005,17.693,37.92,50.336,48.612c18.919,6.29,27.28,9.618,27.28,23.037    C370.076,303.955,356.427,314.797,337.8,314.157z" style="fill:#FFFFFF;"/></g></g><g id="Layer_1"/></svg>