<?xml version="1.0" ?><!DOCTYPE svg  PUBLIC '-//W3C//DTD SVG 1.1//EN'  'http://www.w3.org/Graphics/SVG/1.1/DTD/svg11.dtd'><svg height="512px" style="enable-background:new 0 0 512 512;" version="1.1" viewBox="0 0 512 512" width="512px" xml:space="preserve" xmlns="http://www.w3.org/2000/svg" xmlns:xlink="http://www.w3.org/1999/xlink"><g id="social__x2C__media__x2C__social_media__x2C___windows__x2C_"><polygon points="473.101,368.662 474.011,370.103 462.864,371.258 472.94,372.962 467.204,374.089    495.834,377.366 486.217,378.347 463.642,377.827 496.411,382.701 468.529,381.057 460.621,381.374 476.081,384.991    465.148,384.706 483.685,389.374 490.119,392.243 474.764,390.801 491.065,395.924 486.769,396.691 493.373,400.062    489.714,400.914 494.864,404.147 482.217,402.286 459.646,396.992 468.072,401.101 455.815,398.435 490.858,412.256    489.731,413.732 457.271,403.07 476.31,412.136 485.595,417.764 486.193,419.904 487.071,422.227 456.664,409.952 457.066,411.642    459.212,414.225 484.932,429.143 457.697,416.555 467.931,423.82 478.768,431.839 460.937,423.296 475.743,434.039    456.716,424.113 475.061,437.707 450.741,423.557 452.792,426.607 452.972,428.442 443.861,423.548 447.354,427.775    453.512,434.231 452.661,435.427 448.388,433.844 461.383,446.577 463.333,450.445 440.057,432.126 456.372,448.745    436.104,432.019 435.625,433.322 436.446,435.929 444.752,446.211 457.678,461.839 431.656,436.543 442.696,450.587    451.07,462.342 445.525,458.519 428.274,440.419 439.232,455.907 439.716,458.996 426.651,444.604 437.964,461.902    439.403,466.593 428.314,453.76 437.11,469.088 425.09,454.048 439.488,478.894 432.627,471.331 429.537,469.441 425.844,466.348    422.065,462.861 421.292,464.521 428.943,481.955 418.271,465.202 410.608,453.231 418.292,472.051 410.716,459.559    421.319,486.385 417.987,483.175 409.895,468.227 417.648,491.455 414.618,488.61 409.208,479.092 401.34,461.71 408.814,487.935    406.535,486.458 403.361,481.951 395.943,462.485 397.152,471.778 395.618,471.692 392.072,463.571 391.46,466.728 392.42,477.459    389.589,471.283 392.245,492.66 384.695,460.16 385.315,471.768 386.144,486.854 385.588,494.936 384.187,497.671 379.921,474.938    380.009,491.341 377.172,477.221 377.132,498.84 374.635,485.474 373.404,494.66 371.357,482.409 369.855,486.07 368.246,490.026    366.719,465.09 365.191,482.021 363.664,472.88 362.137,473.812 360.609,470.099 359.082,491.154 357.555,490.465 356.027,481.381    354.499,463.391 352.971,487.391 351.442,471.651 349.914,479.173 348.385,485.276 346.854,495.195 345.325,489.018    343.797,471.663 342.268,462.252 340.739,496.494 339.211,462.539 337.683,461.806 336.155,491.874 334.627,488.81 333.1,473.253    331.571,467.163 330.044,479.261 328.516,472.22 326.987,479.178 325.459,463.005 323.931,491.497 322.402,486.393    320.874,489.748 319.345,463.594 317.815,496.169 316.287,478.949 314.759,475.027 313.231,492.938 311.705,490.302    310.179,486.408 308.653,465.92 307.128,496.238 305.604,485.925 304.079,468.954 302.555,481.663 301.03,463.296 299.506,478.537    297.982,480.292 296.458,500.818 294.934,495.115 293.409,464.704 291.884,473.813 290.359,472.047 288.833,484.961    287.308,475.063 285.78,466.361 284.253,500.894 282.725,465.128 281.196,488.946 279.666,480.809 278.135,488.82 276.605,490.652    275.076,476.899 273.547,468.72 272.02,480.788 270.492,471.229 268.965,477.369 267.438,474.34 265.911,477.571 264.385,462.585    262.858,473.738 261.332,481.162 259.805,489.114 258.277,468.563 256.75,498.025 255.221,482.324 253.692,465.128    252.162,465.133 250.63,487.483 249.099,496.084 247.569,479.233 246.04,497.639 244.511,480.312 242.982,467.609 241.454,482.836    239.926,482.473 238.398,476.786 236.869,498.381 235.34,485.043 233.811,484.472 232.28,472.011 230.748,464.374 229.216,474.833    227.686,461.251 226.156,466.569 224.626,464.364 223.097,461.748 221.567,485.753 220.038,481.32 218.507,479.533    216.976,471.342 215.444,478.236 213.912,462.565 212.381,485.662 210.851,471.654 209.321,498.99 207.791,463.884    206.259,479.153 204.727,466.943 203.195,472.974 201.663,470.838 200.132,498.126 198.602,494.939 197.07,477.68 195.537,494.826    194.005,499.847 192.479,483.859 190.95,465.444 189.419,462.323 187.886,495.734 186.355,465.439 184.826,471.454    183.297,485.773 181.769,485.189 180.239,500.235 178.707,498.719 177.173,482.354 175.642,469.507 174.111,491.43 172.58,491.237    171.046,486.897 169.513,487.117 167.98,483.42 166.447,466.616 164.912,465.194 163.379,471.401 161.844,461.403 160.31,499.405    158.774,493.941 157.243,472.338 155.711,488.249 154.175,466.359 152.641,473.572 151.105,483.226 149.568,474.858    148.032,484.939 146.493,480.247 144.952,493.737 143.41,500.324 141.939,476.218 140.281,483.167 138.423,490.443    136.344,497.882 136.919,463.367 133.171,493.383 134.022,466.34 132.953,463.729 129.963,477.405 129.266,471.39 126.497,480.322    124.435,483.342 123.2,481.229 118.599,496.873 122.578,468.811 115.554,494.107 121.034,463.121 112.338,492.475 111.966,487.053    112.676,478.282 113.872,468.708 108.978,479.704 104.032,489.831 105.457,480.196 100.706,488.756 109.208,460.804    99.838,481.353 101.013,473.995 92.547,490.188 101.076,466.069 100.195,464.489 98.916,463.837 99.91,458.491 94.746,465.752    93.909,464.148 83.635,480.205 94.496,457.027 85.214,470.473 89.914,459.361 94.609,448.882 91.575,451.299 87.889,454.541    70.989,477.389 72.827,471.553 86.302,449.533 83.996,450.412 85.057,446.682 68.125,466.482 83.773,444.024 62.542,468.021    72.686,453.165 60.836,464.625 73.608,447.578 68.726,450.811 63.528,454.156 55.772,459.922 62.24,450.909 72.422,438.647    65.867,443.047 64.705,442.123 63.816,440.952 72.61,431.185 54.719,444.906 72.029,428.315 67.149,430.663 65.123,430.545    49.355,440.978 66.003,426.482 61.7,427.979 53.916,431.8 57.581,427.469 61.732,422.984 49.627,429.233 50.212,427.065    46.085,427.823 60.739,417.349 61.47,415.42 32.01,430.302 37.402,425.43 40.889,421.767 40.054,420.42 30.772,423.17    33.633,419.943 45.218,412.895 33.714,416.296 52.195,406.78 42.078,409.405 54.125,403.141 53.983,401.814 55.838,399.77    34.418,405.719 44.198,400.89 21.943,406.292 21.442,404.634 39.77,397.695 37.494,396.779 27.819,397.659 28.127,395.914    34.985,392.74 41.194,389.908 19.571,392.618 40.81,387.082 23.4,388.498 28.479,386.061 23.775,385.099 50.435,380.178    40.177,380 30.432,379.499 14.448,379.236 50.466,375.04 15.335,375.657 26.956,373.435 16.293,372.136 31.391,370.194    11.628,368.662 13.533,367.136 39.628,365.61 48.334,364.084 21.596,362.559 12.028,361.032 12.083,359.506 35.544,357.979    37.919,356.453 48.109,354.927 18.177,353.399 22.198,351.872 18.174,350.345 18.572,348.816 13.688,347.289 22.363,345.761    21.545,344.232 32.601,342.705 44.473,341.178 13.477,339.651 16.835,338.124 30.828,336.598 18.365,335.071 36.955,333.545    40.456,332.018 25.904,330.491 18.896,328.965 34.639,327.438 43.045,325.91 48.299,324.383 49.538,322.856 14.876,321.329    23.531,319.801 21.068,318.273 37.256,316.746 41.95,315.22 29.369,313.693 47.382,312.168 24.106,310.644 42.604,309.119    21.678,307.595 14.514,306.071 15.628,304.548 43.455,303.025 24.078,301.502 38.081,299.979 14.786,298.456 32.988,296.934    33.923,295.41 50.258,293.887 30.204,292.363 21.936,290.84 34.731,289.314 15.727,287.79 27.451,286.265 15.737,284.738    28.508,283.212 39.125,281.684 12.125,280.155 32.887,278.625 26.773,277.097 47.699,275.568 13.477,274.041 42.874,272.515    38.981,270.988 32.975,269.463 37.338,267.938 37.482,266.412 37.13,264.887 15.137,263.361 37.089,261.836 29.21,260.311    15.29,258.784 33.912,257.258 11.43,255.73 30.54,254.202 42.8,252.673 49.668,251.143 37.699,249.613 47.818,248.084    29.883,246.556 18.511,245.028 29.478,243.501 23.496,241.975 24.447,240.448 25.117,238.92 27.256,237.393 40.488,235.865    38.792,234.337 17.033,232.808 50.888,231.277 42.372,229.747 24.997,228.217 24.233,226.688 42.587,225.16 23.212,223.632    37.732,222.104 47.643,220.576 49.24,219.046 20.741,217.517 43.233,215.985 20.405,214.455 12.737,212.925 26.643,211.396    13.199,209.867 25.629,208.338 37.135,206.808 27.703,205.277 42.379,203.746 14.378,202.216 21.323,200.687 11.563,199.157    48.554,197.626 47.628,196.095 46.036,194.564 30.845,193.039 33.708,191.512 25.976,189.982 43.865,188.45 39.36,186.92    25.123,185.393 50.831,183.866 21.109,182.338 34.214,180.81 35.128,179.279 20.819,177.746 40.138,176.216 17.485,174.687    38.292,173.157 47.211,171.624 31.075,170.092 31.288,168.561 24.772,167.029 12.041,165.495 41.515,163.963 19.931,162.43    48.597,160.896 12.744,159.362 33.044,157.832 12.941,156.302 49.603,154.767 17.007,153.234 33.307,151.7 22.697,150.163    47.816,148.629 31.62,147.091 32.366,145.551 30.416,144.011 49,142.716 29.082,140.888 32.204,139.451 14.448,136.97    20.353,135.605 15.89,133.549 37.947,133.888 33.934,132 34.147,130.51 45.043,130.474 39.326,128.246 42.393,127.291    19.868,121.854 39.481,123.88 51.654,124.925 44.814,122.106 20.956,115.055 26.261,114.612 26.648,113.007 32.116,112.825    37.895,112.884 46.595,114.008 52.849,114.584 24.662,103.618 36.531,106.023 33.399,103.208 37.646,103.134 22.808,95.483    33.506,98.04 56.108,106.1 57.958,105.527 33.761,92.771 46.278,97.009 58.79,101.646 47.655,94.404 52.972,95.595 31.015,81.799    61.978,97.518 57.242,93.232 53.52,89.367 34.21,75.521 43.609,79.516 55.164,85.282 44.068,75.893 52.892,80.126 66.5,88.167    61.198,82.571 62.419,81.746 59.431,77.591 69.864,84.209 51.864,67.429 52.091,65.474 64.73,74.474 55.212,63.869 68.168,73.76    74.868,78.246 75.411,76.955 52.521,51.869 55.682,52.607 65.842,60.966 55.989,47.813 74.297,65.844 68.213,56.586 64.707,49.942    63.818,46.192 69.003,49.971 72.214,51.455 74.62,52.013 82.55,60.255 81.377,56.143 68.585,34.893 75.79,42.458 83.137,50.749    75.92,36.39 93.542,62.017 93.991,60.194 80.774,34.393 80.256,29.896 98.654,60.458 90.554,42.022 94.537,46.47 102.714,59.952    100.68,52.57 89.204,23.754 91.422,24.341 93.281,24.165 103.433,44.661 107.338,50.709 102.677,34.201 107.641,43.416    112.403,52.892 108.775,37.457 115.516,54.078 116.748,53.732 117.15,50.406 109.979,18.086 117.492,40.807 113.884,19.116    118.016,29.701 122.441,43.213 124.41,46.029 125.161,42.461 123.513,23.7 129.233,50.603 129.205,40.845 130.392,38.808    132.813,47.688 132.298,28.202 133.72,26.042 136.915,49.404 137.017,27.168 138.309,19.587 140.139,24.293 141.869,31.357    143.41,43.996 144.938,34.15 146.465,25.868 147.992,48.608 149.519,11.722 151.046,36.544 152.574,27.603 154.102,34.542    155.629,24.685 157.157,12.355 158.686,45.33 160.214,28.546 161.743,12.155 163.272,41.581 164.801,36.745 166.331,49.908    167.86,25.079 169.388,14.128 170.917,14.327 172.445,33.367 173.973,24.776 175.501,41.278 177.029,46.983 178.557,29.917    180.084,22.2 181.612,36.749 183.14,29.088 184.668,16.584 186.197,36.485 187.726,41.126 189.253,35.731 190.782,38.938    192.312,41.541 193.841,43.405 195.369,22.86 196.897,30.092 198.424,49.451 199.951,33.383 201.477,51.103 203.002,29.94    204.528,19.409 206.053,38.671 207.577,32.014 209.102,28.372 210.626,20.958 212.15,40.055 213.674,15.497 215.198,36.226    216.723,20.273 218.247,38.973 219.772,17.136 221.297,47.722 222.823,38.245 224.349,50.853 225.875,44.208 227.403,18.138    228.931,49.104 230.46,18.051 231.99,39.117 233.521,40.465 235.051,48.349 236.58,16.166 238.109,39 239.637,44.792    241.164,18.715 242.691,27.439 244.218,30.25 245.745,44.18 247.271,22.952 248.797,15.035 250.324,36.718 251.851,50.777    253.378,32.121 254.906,11.923 256.435,40.326 257.965,45.906 259.495,38.224 261.026,38.116 262.558,32.869 264.087,47.891    265.616,19.858 267.146,40.019 268.674,37.721 270.202,21.373 271.73,29.667 273.259,25.646 274.787,40.224 276.316,31.852    277.846,12.347 279.377,29.433 280.908,25.494 282.439,29.218 283.971,21.953 285.5,40.419 287.03,22.406 288.56,24.015    290.089,47.232 291.618,47.536 293.148,32.484 294.68,40.196 296.213,33.778 297.744,15.75 299.275,22.488 300.806,48.098    302.336,31.716 303.866,26.83 305.397,19.396 306.929,21.41 308.462,17.696 309.993,38.45 311.523,46.584 313.055,41.889    314.586,39.918 316.119,15.421 317.651,19.901 319.178,35.524 320.706,34.971 322.236,46.782 323.771,22.444 325.301,23.977    326.83,45.207 328.358,42.481 329.888,36.728 331.417,34.979 332.949,25.414 334.483,23.442 336.015,33.047 337.545,35.468    339.076,47.546 340.61,38.721 342.144,12.753 343.676,31.217 345.209,12.23 346.744,43.526 348.277,25.198 349.813,16.694    351.347,35.844 352.882,11.856 354.413,37.106 355.944,38.9 357.48,21.863 359.015,17.491 360.551,33.115 362.089,18.947    363.624,25.288 365.163,37.084 366.704,26.245 368.246,35.124 369.686,38.845 370.85,49.167 372.633,37.117 374.41,31.351    374.704,49.917 378.185,22.941 378.188,40.54 382.45,14.402 381.554,36.404 381.277,49.428 387.282,18.189 388.196,23.375    388.6,30.658 386.197,51.476 390.855,35.302 396.42,17.133 392.82,40.205 393.57,43.209 394.877,43.833 397.659,39.128    400.281,35.49 396.353,53.445 400.398,45.143 399.8,51.324 409.152,28.984 402.564,51.549 410.22,35.48 413.242,32.227    404.732,56.837 405.469,58.361 411.814,47.4 417.028,39.672 424.636,27.584 423.247,34.295 421.253,41.776 429.74,29.296    429.99,32.513 415.563,61.23 420.333,55.708 430.214,42.167 435.174,37.336 439.51,33.79 438.02,39.262 421.877,65.825    422.99,66.502 427.527,62.462 434.21,55.829 426.016,68.954 447.11,44.379 433.302,64.094 433.527,66.019 445.465,54.267    455.714,45.117 455.124,48.436 457.227,48.774 457.881,50.668 456.791,54.288 437.94,75.314 440.255,74.948 456.051,62.041    448.949,70.722 449.557,72.174 450.615,73.217 441.016,83.198 445.345,81.342 445.399,83.032 449.417,81.632 470.607,67.503    464.244,74.291 458.351,80.446 449.278,88.515 461.593,81.902 449.526,91.547 467.455,81.833 473.734,79.884 468.246,85.081    480.232,80.036 480.886,81.679 464.464,92.507 477.258,87.538 454.519,100.849 484.062,87.973 476.979,93.227 468.309,98.939    479.221,95.822 484.06,95.586 481.421,98.493 484.325,99.161 467.096,107.373 468.734,108.313 470.974,109.086 474.8,109.401    474.531,111.085 463.376,115.953 471.201,115.168 476.237,115.344 469.404,118.632 490.527,115.104 491.507,116.657    464.056,124.088 466.079,125.062 466.337,126.397 494.072,123.215 488.833,125.763 484.871,127.984 495.665,128.29    485.421,131.161 479.873,133.303 469.778,135.661 475.892,136.643 497.839,136.942 474.118,139.663 497.665,140.482    485.885,142.399 474.894,144.011 481.315,145.537 475.501,147.063 468.579,148.589 464.137,150.115 472.1,151.641 490.794,153.167    461.635,154.693 499.178,156.22 488.62,157.747 489.544,159.273 466.655,160.8 491.458,162.328 494.045,163.856 492.634,165.384    462.931,166.913 473.814,168.44 476.851,169.968 461.63,171.495 491.371,173.021 476.42,174.548 466.052,176.075 465.233,177.602    475.079,179.128 496.549,180.655 493.677,182.182 497.676,183.708 462.816,185.235 483.43,186.762 480.766,188.29 480.33,189.816    481.6,191.343 479.422,192.872 483.151,194.4 477.773,195.927 484.699,197.454 478.772,198.979 473.229,200.505 499.548,202.03    461.269,203.554 465.19,205.078 494.01,206.602 478.867,208.125 473.875,209.648 469.52,211.171 481.68,212.694 479.553,214.217    490.158,215.74 468.72,217.263 472.935,218.786 482.39,220.31 494.885,221.833 487.436,223.358 493.322,224.883 482.214,226.408    468.654,227.935 483.396,229.461 482.85,230.989 486.931,232.518 479.478,234.047 497.886,235.576 475.113,237.104    469.754,238.631 473.504,240.158 492.537,241.685 466.188,243.21 465.888,244.735 491.146,246.261 473.731,247.786    469.541,249.312 464.912,250.837 494.832,252.363 485.788,253.889 473.191,255.416 490.128,256.943 494.659,258.471 474.257,260    475.408,261.53 476.094,263.06 478.179,264.589 480.536,266.117 475.167,267.645 495.636,269.172 470.587,270.698 489.057,272.226    473.611,273.752 467.529,275.279 471.534,276.808 468.312,278.336 482.793,279.865 496.175,281.396 474.844,282.927    486.95,284.456 477.923,285.984 494.434,287.513 477.362,289.041 486.202,290.569 489.386,292.098 480.946,293.627    483.206,295.156 469.887,296.688 490.773,298.218 483.151,299.748 489.638,301.276 493.247,302.806 479.183,304.335    477.24,305.864 460.851,307.396 491.854,308.927 484.03,310.457 496.333,311.986 475.874,313.517 491.853,315.047 500.629,316.578    498.094,318.109 496.888,319.634 482.776,321.161 484.782,322.69 483.068,324.223 464.157,325.753 494.195,327.28 484.65,328.808    494.948,330.335 483.886,331.863 477.434,333.395 486.119,334.927 474.061,336.457 495.177,337.986 493.629,339.517    487.943,341.049 475.302,342.581 462.409,344.112 489.356,345.644 462.91,347.178 461.772,348.71 479.252,350.243 481.091,351.776    481.252,353.311 465.372,354.841 470.548,356.371 469.737,357.906 492.592,359.438 485.588,360.974 478.371,362.51    466.505,364.044 482.646,365.582 479.564,364.419  " style="fill:#9CC464;"/><g><polygon points="115.306,356.101 228.712,372.501 228.712,264.101 115.306,264.101   " style="fill:#FFFFFF;"/><polygon points="244.21,374.75 396.352,396.764 396.352,264.101 244.21,264.101   " style="fill:#FFFFFF;"/><polygon points="244.21,248.613 396.352,248.613 396.352,115.927 244.21,137.94   " style="fill:#FFFFFF;"/><polygon points="228.712,140.189 115.306,156.608 115.306,248.613 228.712,248.613   " style="fill:#FFFFFF;"/></g></g><g id="Layer_1"/></svg>