<?xml version="1.0" ?><!DOCTYPE svg  PUBLIC '-//W3C//DTD SVG 1.1//EN'  'http://www.w3.org/Graphics/SVG/1.1/DTD/svg11.dtd'><svg height="512px" style="enable-background:new 0 0 512 512;" version="1.1" viewBox="0 0 512 512" width="512px" xml:space="preserve" xmlns="http://www.w3.org/2000/svg" xmlns:xlink="http://www.w3.org/1999/xlink"><g id="social__x2C__media__x2C__social_media__x2C___android__x2C_"><polygon points="497.556,368.662 461.142,369.937 462.026,371.235 497.626,373.952 487.872,375.196    472.739,375.813 471.474,377.147 465.017,377.958 461.658,378.934 494.09,384.202 468.59,382.464 488.351,386.838 495.434,389.683    479.383,388.61 477.682,389.853 463.351,388.45 496.09,397.053 462.285,390.927 475.915,395.687 473.104,396.511 467.883,396.592    468.464,398.229 469.849,400.155 471.444,402.2 474.76,404.893 461.713,401.884 489.441,413.622 476.861,410.65 457.811,404.682    455.288,405.061 466.48,411.328 482.024,419.965 483.021,422.315 477.658,421.635 461.64,415.447 481.06,427.137 459.559,417.552    465.824,422.655 482.696,434.082 452.08,418.059 451.083,419.014 478.423,437.775 450.446,421.762 445.736,420.211    462.737,433.452 458.604,432.442 450.274,428.234 458.509,436.146 452.685,433.601 465.606,445.695 460.869,444.029    458.99,444.581 452.401,441.037 464.23,453.548 462.591,454.421 438.259,434.044 446.252,443.538 450.342,449.648 444.431,445.896    453.378,457.367 455.522,462.125 451.655,460.462 438.536,448.178 444.616,457.469 431.353,444.115 438.294,454.77    430.077,446.837 437.479,458.684 428.591,449.396 431.706,456.02 423.426,446.859 427.979,455.794 433.248,466.311    424.396,455.572 417.937,447.931 419.351,452.713 417.984,453.03 423.208,464.882 426.539,474.03 427.889,480.026 420.232,469.004    414.709,461.434 417.254,469.937 422.135,484.008 408.158,457.204 416.431,479.619 413.961,477.992 406.651,464.13    408.276,472.256 403.207,462.93 408.906,483.11 399.571,460.756 401.563,471.214 399.586,469.786 400.923,479.47 396.695,470.197    401.355,493.436 393.584,469.615 389.817,459.817 394.725,487.973 392.289,484.429 390.725,484.841 386.385,469.715    388.313,490.088 385.647,483.691 383.914,482.71 380.711,469.466 380.056,476.331 378.483,475.433 378.688,496.224 375.08,468.439    374.864,490.074 373.068,486.719 370.938,467.396 369.768,481.121 368.229,462.834 366.701,490.248 365.174,466.339    363.646,493.479 362.119,474.82 360.592,474.215 359.064,492.108 357.537,498.04 356.01,484.568 354.481,466.329 352.953,473.505    351.425,473.437 349.896,477.563 348.366,478.363 346.837,473.389 345.308,485.419 343.778,485.993 342.25,477.444    340.722,476.606 339.193,464.981 337.665,470.272 336.138,470.147 334.609,482.966 333.082,479.989 331.554,473.783    330.026,485.724 328.498,486.537 326.97,496.567 325.441,482.05 323.913,464.704 322.385,462.534 320.856,486.506 319.327,477.631    317.798,479.184 316.27,463.021 314.741,476.941 313.214,481.962 311.688,490.943 310.161,462.7 308.636,478.535 307.11,475.396    305.586,473.758 304.062,496.025 302.537,488.437 301.013,466.699 299.488,466.074 297.964,486.891 296.44,464.242    294.916,483.261 293.392,500.325 291.866,472.157 290.342,465.241 288.815,473.23 287.29,495.151 285.763,500.25 284.235,497.164    282.707,490.892 281.178,496.741 279.648,466.08 278.117,496.69 276.587,476.456 275.058,475.59 273.529,483.558 272.002,471.993    270.474,481.591 268.947,464.869 267.42,496.916 265.894,475.535 264.367,491.872 262.841,486.712 261.314,492.128    259.787,465.368 258.26,497.458 256.732,492.618 255.203,489.646 253.674,491.234 252.144,483.216 250.612,484.266    249.081,479.716 247.551,461.642 246.021,469.539 244.493,480.959 242.964,481.526 241.436,488.235 239.908,475.132    238.38,499.961 236.851,487.429 235.322,463.668 233.792,492.988 232.262,495.973 230.73,473.487 229.198,469.246 227.667,470.824    226.138,466.002 224.608,477.622 223.079,468.583 221.549,467.222 220.02,465.871 218.489,486.547 216.958,483.525    215.425,494.713 213.894,464.618 212.363,492.82 210.833,468.589 209.302,461.076 207.772,463.033 206.241,463.205    204.708,480.163 203.176,480.087 201.645,482.595 200.114,499.611 198.583,476.73 197.051,482.963 195.519,491.033    193.986,493.864 192.46,466.354 190.932,481.768 189.401,470.8 187.868,477.557 186.336,497.678 184.808,496.022 183.279,496.67    181.75,488.224 180.221,490.69 178.688,493.758 177.155,468.726 175.623,473.097 174.093,483.51 172.562,478.285 171.027,487.004    169.494,491.691 167.962,491.433 166.429,471.903 164.894,474.009 163.36,498.462 161.825,474.493 160.291,487.825    158.756,471.386 157.224,486.793 155.693,489.799 154.157,481.546 152.623,496.971 151.087,475.57 149.549,484.867    148.014,492.917 146.475,468.487 144.933,479.57 143.392,488.241 141.734,490.167 140.345,480.1 139.431,464.861 136.581,493.433    135.308,486.919 132.801,497.906 133.606,470.536 131.918,473.109 129.112,484.244 127.843,481.744 123.798,498.143    121.926,498.518 121.992,487.905 122.338,477.332 122.066,471.204 117.928,483.256 118.642,473.249 113.722,486.842    118.904,460.814 111.811,481.324 114.539,466.389 113.266,465.769 105.336,485.751 110.414,465.553 111.744,457.643    101.328,482.037 96.789,489.177 102.681,469.816 100.385,471.438 92.017,486.87 101.599,461.347 96.74,468.459 91.078,476.693    90.483,474.219 89.768,472.103 89.77,468.728 96.75,452.927 84.789,471.182 84.894,467.838 81.705,470.051 75.716,476.545    86.468,456.722 88.313,451.368 81.209,459.321 74.536,466.158 66.056,475.052 68.38,468.945 69.191,465.095 79.714,449.118    63.069,467.339 81.193,442.995 70.236,453.691 74.087,447.021 69.39,450.068 73.745,443.198 58.8,456.756 71.222,441.793    72.101,438.941 50.119,458.163 74.415,433.032 63.762,440.986 53.54,448.075 59.738,440.572 58.615,439.55 44.002,449.501    43.923,447.345 43.245,445.677 62.001,429.472 54.106,433.504 57.432,429.309 43.466,437.156 53.45,428.506 42.496,433.846    38.559,434.388 39.311,431.949 52.223,422.379 54.982,419.138 51.975,419.22 48.087,419.683 41.304,421.544 32.632,424.142    44.649,416.432 23.768,424.558 28.092,420.619 30.824,417.548 57.604,404.517 42.492,409.236 27.798,413.329 53.492,401.987    29.734,409.049 29.849,407.267 51.761,398.431 32.618,402.983 18.994,405.344 17.177,404.009 29.25,398.96 30.262,397.047    37.292,393.752 22.472,395.506 33.35,391.527 43.62,387.983 16.122,391.478 39.963,385.777 49.87,382.846 16.226,386.126    35.672,381.979 32.438,380.839 32.447,379.307 26.598,378.252 44.369,375.452 25.528,375.104 30.784,373.281 25.828,371.877    39.947,370.08 24.127,368.662 12.314,367.136 20.7,365.61 21.576,364.084 45.092,362.559 16.221,361.032 40.456,359.506    20.155,357.979 28.338,356.453 28.127,354.927 32.528,353.399 22.353,351.872 44.161,350.345 16.937,348.816 15.856,347.289    21.342,345.761 35.071,344.232 38.13,342.705 41.107,341.178 48.559,339.651 31.512,338.124 47.356,336.598 46.483,335.071    20.085,333.545 39.97,332.018 48.038,330.491 37.844,328.965 11.394,327.438 22.265,325.91 16.692,324.383 41.86,322.856    34.194,321.329 44.774,319.801 29.75,318.273 20.971,316.746 49.146,315.22 16.301,313.693 35.588,312.168 38.892,310.644    48.174,309.119 13.401,307.595 15.574,306.071 25.401,304.548 20.152,303.025 11.85,301.502 17.822,299.979 29.203,298.456    33.691,296.934 23.049,295.41 47.443,293.887 27.559,292.363 50.78,290.84 14.096,289.314 17.028,287.79 21.485,286.265    25.047,284.738 50.284,283.212 21.124,281.684 45.237,280.155 18.379,278.625 38.762,277.097 18.423,275.568 18.84,274.041    49.643,272.515 32.132,270.988 25.458,269.463 32.43,267.938 49.268,266.412 30.707,264.887 25.516,263.361 31.121,261.836    33.446,260.311 42.187,258.784 16.555,257.258 49.186,255.73 31.685,254.202 17.52,252.673 41.833,251.143 42.277,249.613    41.466,248.084 21.682,246.556 27.032,245.028 26.442,243.501 23.771,241.975 18.113,240.448 27.628,238.92 12.697,237.393    13.216,235.865 25.603,234.337 30.221,232.808 45.879,231.277 36.536,229.747 26.317,228.217 31.616,226.688 36.56,225.16    33.187,223.632 23.773,222.104 19.388,220.576 14.751,219.046 31.816,217.517 29.47,215.985 17.674,214.455 14.165,212.925    16.314,211.396 16.948,209.867 21.958,208.338 15.745,206.808 15.259,205.277 22.018,203.746 26.577,202.216 39.287,200.687    48.445,199.157 27.91,197.626 48.729,196.095 11.811,194.564 24.283,193.039 14.101,191.512 32.7,189.982 21.517,188.45    21.808,186.92 47.56,185.393 18.089,183.866 26.012,182.338 11.044,180.81 35.158,179.279 15.751,177.746 23.602,176.216    45.484,174.687 16.013,173.157 15.242,171.624 36.369,170.092 20.414,168.561 12.504,167.029 47.484,165.495 33.795,163.963    30.872,162.43 38.695,160.896 46.421,159.362 25.699,157.832 22.938,156.302 44.943,154.767 33.413,153.234 13.194,151.7    12.158,150.163 37.428,148.629 48.104,147.091 26.467,145.551 42.812,144.011 31.356,142.48 29.58,140.901 18.192,138.889    41.939,138.455 36.78,136.713 31.615,134.83 41.088,134.189 21.564,130.658 15.215,128.199 15.252,126.42 38.483,128.118    22.558,124.035 45.469,126.426 42.332,124.435 36.712,121.836 15.526,115.623 41.266,119.851 37.376,117.401 28.49,113.501    29.325,112.047 51.088,116.777 52.568,115.863 53.033,114.647 45.985,110.879 50.325,110.931 53.408,110.645 52.25,108.792    51.052,106.868 52.299,105.921 34.314,96.625 32.674,94.099 52.965,101.771 48.406,98.045 32.335,88.36 34.99,87.83 32.747,84.727    45.615,89.91 36.205,82.761 31.47,77.998 53.863,89.583 31.522,73.836 51.12,84.393 43.797,77.702 64.452,89.923 43.669,73.606    48.653,75.175 40.531,67.083 44.809,68.173 50.383,70.425 48.066,66.447 71.495,83.887 49.98,63.669 51.645,62.897 74.151,81.12    69.292,74.822 59.869,63.843 68.533,70.18 55.03,54.427 63.007,60.265 78.742,74.8 75.793,69.632 75.56,67.287 62.042,49.42    80.058,68.308 65.854,48.711 83.257,68.002 67.462,45.3 86.612,68.065 77.229,52.954 82.752,58.105 71.928,39.797 92.103,66.961    72.559,34.418 91.085,60.582 78.115,36.692 94.79,61.571 82.564,37.555 97.037,60.22 81.589,28.647 88.918,38.901 91.53,40.5    86.696,26.901 91.654,33.298 97.557,42.326 93.095,28.232 94.555,27.245 102.309,41.9 105.2,45.214 101.02,29.773 100.83,24.269    102.742,24.497 113.058,50.694 108.025,29.9 109.709,29.837 111.569,30.458 116.268,41.916 114.517,28.96 119.552,43.283    122.481,49.987 119.51,29.101 121.957,33.333 125.787,46.034 125.291,34.647 124.574,19.667 127.152,25.873 128.592,24.208    130.261,24.317 131.291,17.758 134.396,34.623 136.538,44.083 138.305,51.374 138.706,29.784 140.608,42.545 141.747,23.56    143.392,20.536 144.919,29.74 146.446,12.558 147.974,19.575 149.5,38.658 151.028,17.827 152.556,49.841 154.083,40.745    155.611,43.895 157.139,46.87 158.667,19.193 160.195,45.871 161.724,40.953 163.253,28.986 164.783,35.569 166.313,12.382    167.841,31.768 169.37,36.88 170.898,27.153 172.427,18.919 173.955,30.617 175.482,33.584 177.011,29.656 178.538,25.652    180.066,12.276 181.594,24.304 183.122,50.522 184.65,16.095 186.179,21.98 187.707,44.131 189.235,41.823 190.764,24.158    192.293,15.92 193.822,15.362 195.351,20.56 196.879,30.17 198.406,21.047 199.933,48.182 201.458,35.148 202.984,49.648    204.509,22.917 206.034,18.442 207.559,16.81 209.083,38.544 210.607,50.337 212.131,36.32 213.656,14.657 215.18,18.728    216.704,25.553 218.229,39.564 219.753,13.18 221.279,47.459 222.804,48.737 224.331,45.119 225.857,30.917 227.385,34.582    228.913,45.522 230.442,12.845 231.972,19.042 233.503,31.218 235.033,46.333 236.562,15.108 238.09,18.63 239.619,33.687    241.146,26.27 242.673,25.974 244.2,15.331 245.726,46.407 247.253,14.269 248.779,23.753 250.306,30.231 251.833,47.537    253.36,40.341 254.888,40.678 256.417,45.628 257.946,41.105 259.477,29.577 261.008,13.41 262.539,24.475 264.069,39.359    265.599,11.72 267.128,28.188 268.656,22.258 270.185,39.115 271.712,35.028 273.24,14.305 274.77,50.035 276.298,35.833    277.828,33.176 279.358,39.717 280.891,47.392 282.422,19.173 283.952,33.974 285.482,22.499 287.012,24.093 288.541,33.806    290.07,38.605 291.601,11.915 293.131,49.126 294.662,49.174 296.194,40.189 297.727,12.853 299.257,25.938 300.787,42.02    302.317,30.374 303.848,27.351 305.379,12.587 306.911,35.381 308.444,22.723 309.976,47.005 311.506,25.559 313.037,17.821    314.568,21.666 316.102,29.971 317.634,46.021 319.16,46.653 320.688,45.732 322.219,36.332 323.753,47.233 325.283,18.885    326.813,13.827 328.341,35.574 329.87,41.888 331.399,13.663 332.932,43.327 334.466,39.922 335.997,48.122 337.527,49.935    339.059,48.699 340.593,37.279 342.126,12.951 343.658,43.111 345.191,29.424 346.727,17.54 348.26,31.872 349.795,44.454    351.329,15.975 352.864,45.993 354.396,23.384 355.927,26.946 357.464,22.579 358.997,37.601 360.533,37.199 362.071,21.409    363.606,15.538 365.146,25.877 366.687,34.849 368.229,26.587 369.574,45.847 371.607,20.178 372.436,41.57 375.152,17.16    375.691,35.057 376.371,45.15 379.344,28.119 380.438,32.795 380.815,42.337 385.818,15.938 386.882,20.766 386.646,32.736    389.95,22.983 388.046,41.786 390.12,38.79 395.857,19.608 396.474,24.601 399.982,17.517 395.887,39.957 399.035,34.145    400.843,33.528 399.685,42.611 405.824,28.378 400.114,50.366 399.521,56.055 411.584,27.187 413.898,25.906 406.654,48.568    407.543,50.082 413.448,39.982 420.102,28.979 412.648,49.004 418.345,40.537 411.096,58.491 420.492,43.218 423.487,40.911    422.413,46.151 427.015,41.184 427.028,44.345 424.505,51.527 431.696,42.856 431.185,46.648 422.995,61.807 421.066,66.988    423.072,66.369 434.479,52.884 425.492,67.474 442.79,47.123 430.305,65.596 439.813,56.078 430.812,69.251 450.874,47.968    444.151,58.182 452.991,50.772 444.051,62.877 452.079,56.694 443.173,68.088 441.957,71.337 455.564,60.224 450.232,67.473    445.725,73.645 466.677,56.998 460.063,65.068 441.61,82.691 466.067,64.444 467.473,65.526 458.033,74.979 443.656,87.68    459.867,77.47 445.252,89.718 465.077,77.64 446.922,91.692 474.813,75.151 477.717,75.374 481.112,75.361 470.986,83.455    463.419,89.666 479.385,82.512 481.233,83.49 483.245,84.421 466.326,94.899 469.171,95.185 455.093,103.477 472.934,96.843    475.638,97.378 468.658,102.036 467.644,104.047 467.79,105.555 483.038,101.443 463.875,110.038 457.768,113.585 474.75,109.414    473.981,111.251 492.791,107.27 471.602,115.054 466.797,117.839 485.017,114.713 471.714,119.54 472.242,120.909 460.354,124.868    485.864,121.251 487.26,122.662 467.059,127.644 468.971,128.752 478.617,128.837 467.92,131.675 487.231,130.957 477.644,133.514    463.682,136.141 476.043,136.632 487.235,137.508 497.649,138.719 474.245,141.108 477.693,142.514 466.245,144.011    500.244,145.537 472.845,147.063 500.251,148.589 497.28,150.115 483.449,151.641 480.932,153.167 491.125,154.693 481.047,156.22    468.164,157.747 492.881,159.273 481.001,160.8 467.663,162.328 480.539,163.856 465.995,165.384 479.292,166.913 487.535,168.44    476.746,169.968 497.395,171.495 467.295,173.021 492.139,174.548 466.183,176.075 479.051,177.602 475.482,179.128    466.142,180.655 469.412,182.182 462.294,183.708 471.188,185.235 472.094,186.762 487.14,188.29 463.003,189.816 482.919,191.343    488.947,192.872 476.445,194.4 498.768,195.927 487.576,197.454 485.65,198.979 470.54,200.505 469.237,202.03 486.801,203.554    471.08,205.078 478.273,206.602 470.936,208.125 498.722,209.648 481.551,211.171 499.674,212.694 477.773,214.217 491.336,215.74    487.133,217.263 493.743,218.786 498.511,220.31 463.785,221.833 498.081,223.358 474.769,224.883 462.428,226.408    461.772,227.935 492.557,229.461 493.406,230.989 464.45,232.518 493.364,234.047 486.964,235.576 478.772,237.104    460.968,238.631 491.433,240.158 490.075,241.685 497.804,243.21 487.619,244.735 489.007,246.261 462.271,247.786    488.133,249.312 490.267,250.837 473.736,252.363 461.088,253.889 460.736,255.416 480.438,256.943 487.766,258.471 494.338,260    468.582,261.53 466.457,263.06 479.241,264.589 462.079,266.117 497.56,267.645 471.544,269.172 471.712,270.698 468.647,272.226    495.913,273.752 490.097,275.279 477.668,276.808 486.021,278.336 498.452,279.865 493.449,281.396 482.474,282.927    489.76,284.456 461.764,285.984 496.313,287.513 484.935,289.041 488.782,290.569 486.707,292.098 475.189,293.627    480.765,295.156 490.206,296.688 484.402,298.218 469.967,299.748 495.186,301.276 500.532,302.806 482.009,304.335    499.99,305.864 470.918,307.396 484.394,308.927 464.498,310.457 465.808,311.986 477.824,313.517 462.146,315.047    468.711,316.578 467.911,318.109 490.418,319.634 467.521,321.161 465.913,322.69 473.629,324.223 479.545,325.753 466.621,327.28    469.127,328.808 483.518,330.335 464.426,331.863 479.48,333.395 481.478,334.927 488.422,336.457 471.362,337.986    485.467,339.517 481.801,341.049 488.52,342.581 485.319,344.112 473.755,345.644 463.771,347.178 465.537,348.71 500.646,350.243    500.124,351.776 484.795,353.311 499.444,354.841 477.212,356.371 471.338,357.906 460.91,359.438 480.835,360.974 468.146,362.51    478.362,364.044 463.97,365.582 482.39,357.665  " style="fill:#85BF00;"/><g><path d="M293.95,139.458l3.102-4.607l3.074-4.516l6.916-10.167c0.833-1.261,0.494-2.943-0.769-3.784    c-1.28-0.823-3-0.494-3.833,0.768l-7.41,10.897l-3.11,4.589l-3.166,4.644c-9.98-3.821-21.16-5.942-32.926-5.942    c-11.765,0-22.926,2.121-32.926,5.942l-3.165-4.644l-3.092-4.589l-7.411-10.897c-0.851-1.243-2.57-1.591-3.852-0.768    c-1.253,0.841-1.601,2.523-0.75,3.784l6.898,10.167l3.074,4.516l3.128,4.607c-23.502,10.733-39.412,31.083-39.412,54.395h155.015    C333.336,170.541,317.427,150.191,293.95,139.458z M222.628,172.113c-4.602,0-8.307-3.657-8.307-8.155    c0-4.516,3.705-8.155,8.307-8.155c4.584,0,8.28,3.639,8.28,8.155C230.908,168.457,227.212,172.113,222.628,172.113z     M289.047,172.113c-4.592,0-8.298-3.657-8.298-8.155c0-4.516,3.706-8.155,8.298-8.155c4.584,0,8.308,3.639,8.308,8.155    C297.354,168.457,293.631,172.113,289.047,172.113z" style="fill:#FFFFFF;"/><path d="M333.336,324.305v-94.963V218.28v-13.567h-1.198h-152.6h-1.217v13.567v11.062v94.963    c0,9.489,7.859,17.224,17.547,17.224h12.644c-0.412,1.426-0.677,2.943-0.677,4.516v0.896v5.448v28.084    c0,8.996,7.456,16.291,16.632,16.291c9.167,0,16.614-7.295,16.614-16.291v-28.084v-5.448v-0.896c0-1.572-0.247-3.09-0.668-4.516    h30.831c-0.412,1.426-0.649,2.943-0.649,4.516v0.896v5.448v28.084c0,8.996,7.446,16.291,16.614,16.291    c9.156,0,16.604-7.295,16.604-16.291v-28.084v-5.448v-0.896c0-1.572-0.238-3.09-0.668-4.516h12.661    C325.477,341.528,333.336,333.794,333.336,324.305z" style="fill:#FFFFFF;"/><path d="M134.042,221.023v69.767c0,8.996,7.43,16.291,16.615,16.291c9.158,0,16.604-7.295,16.604-16.291    v-69.767c0-9.014-7.446-16.31-16.604-16.31C141.471,204.713,134.042,212.009,134.042,221.023z" style="fill:#FFFFFF;"/><path d="M344.414,221.023v69.767c0,8.996,7.43,16.291,16.587,16.291c9.186,0,16.614-7.295,16.614-16.291    v-69.767c0-9.014-7.429-16.31-16.614-16.31C351.844,204.713,344.414,212.009,344.414,221.023z" style="fill:#FFFFFF;"/></g></g><g id="Layer_1"/></svg>