<?xml version="1.0" ?><!DOCTYPE svg  PUBLIC '-//W3C//DTD SVG 1.1//EN'  'http://www.w3.org/Graphics/SVG/1.1/DTD/svg11.dtd'><svg height="512px" style="enable-background:new 0 0 512 512;" version="1.1" viewBox="0 0 512 512" width="512px" xml:space="preserve" xmlns="http://www.w3.org/2000/svg" xmlns:xlink="http://www.w3.org/1999/xlink"><g id="social__x2C__media__x2C__social_media__x2C___behance__x2C_"><polygon points="469.506,368.662 473.614,370.097 492.939,372.062 485.525,373.466 495.599,375.609    472.396,375.798 469.936,377.022 471.762,378.598 471.688,380.021 471.457,381.417 478.944,383.878 495.29,387.881    488.396,388.524 472.864,387.447 492.744,392.748 489.823,393.924 477.915,393.021 470.041,392.738 473.283,395.024    458.674,392.68 494.697,404.101 485.993,403.401 470.244,400.274 470.554,401.907 469.396,403.062 464.365,402.817    471.168,406.833 461.899,404.859 479.394,413.378 457.429,405.938 470.371,413.021 488.022,422.655 460.74,411.863    458.208,412.195 457.984,413.609 479.229,426.181 455.337,415.286 474.174,427.29 475.417,429.914 471.974,429.83 454.486,421.095    465.642,429.729 468.082,433.182 469.519,436.089 462.91,433.563 454.635,429.621 463.621,437.965 448.176,428.393    458.646,438.189 450.866,434.001 453.152,437.729 458.902,444.498 445.027,434.676 464.473,453.738 460.507,452.512    435.86,431.791 458.058,454.865 442.987,442.382 450.717,452.265 448.59,452.362 447.242,453.241 443.201,451.143 445.844,456.43    434.898,446.148 443.451,458.555 445.46,463.556 436.551,454.993 438.589,460.107 441.142,466.147 428.714,451.878    440.586,471.122 425.222,451.767 420.092,446.545 435.709,473.049 422.634,455.399 423.023,458.726 427.08,468.447    429.303,475.512 414.019,451.391 415.896,457.627 419.271,467.126 415.303,462.59 415.206,465.683 410.331,458.736 417.467,477.85    406.542,456.799 417.578,486.618 410.804,474.44 406.838,468.499 410.021,481.282 406.453,476.145 398.826,458.533 404.52,480.263    399.661,470.003 400.855,479.181 398.632,477.071 396.44,474.802 398.709,490.014 396.79,489.382 394.027,484.735 387.921,463.211    387.029,465.553 387.051,473.36 387.514,485.122 384.971,479.066 381.86,467.493 380.693,469.288 381.103,485.827 379.387,484.78    377.05,475.717 375.704,477.529 373.372,461.859 373.522,497.624 370.902,465.387 369.627,470.063 368.246,461.774    366.719,488.683 365.191,493.765 363.664,481.364 362.137,489.279 360.609,495.827 359.082,464.345 357.555,475.477    356.027,489.456 354.499,498.025 352.971,468.944 351.442,464.655 349.914,472.5 348.385,497.864 346.854,470.532 345.325,497.145    343.797,465.762 342.268,478.313 340.739,467.262 339.211,469.497 337.683,485.129 336.155,479.785 334.627,499.031 333.1,499.939    331.571,497.093 330.044,463.837 328.516,477.885 326.987,498.966 325.459,482.785 323.931,489.748 322.402,483.484    320.874,473.475 319.345,495.202 317.815,470.25 316.287,464.909 314.759,480.653 313.231,500.896 311.705,472.65 310.179,470.04    308.653,487.893 307.128,497.36 305.604,471.585 304.079,463.764 302.555,494.952 301.03,497.363 299.506,479.668 297.982,496.261    296.458,494.654 294.934,471.502 293.409,482.287 291.884,482.616 290.359,468.332 288.833,480.198 287.308,462.778    285.78,475.021 284.253,472.31 282.725,486.393 281.196,464.252 279.666,488.78 278.135,491.625 276.605,480.2 275.076,494.3    273.547,483.422 272.02,477.29 270.492,486.773 268.965,498.851 267.438,480.12 265.911,483.303 264.385,488.601 262.858,491.415    261.332,496.697 259.805,479.682 258.277,473.525 256.75,463.964 255.221,481.46 253.692,477.761 252.162,479.717 250.63,485.71    249.099,487.111 247.569,464.008 246.04,488.829 244.511,496.014 242.982,465.986 241.454,498.599 239.926,478.622    238.398,477.697 236.869,487.874 235.34,475.014 233.811,486.303 232.28,476.988 230.748,481.658 229.216,496.9 227.686,473.787    226.156,476.355 224.626,462.043 223.097,488.445 221.567,486.185 220.038,466.484 218.507,462.608 216.976,474.518    215.444,494.741 213.912,483.652 212.381,496.434 210.851,466.828 209.321,495.467 207.791,478.73 206.259,485.558 204.727,472.35    203.195,494.732 201.663,464.084 200.132,480.517 198.602,480.257 197.07,473.062 195.537,484.618 194.005,471.209    192.479,463.625 190.95,478.381 189.419,499.2 187.886,470.335 186.355,492.164 184.826,499.962 183.297,478.737 181.769,490.668    180.239,472.183 178.707,474.334 177.173,487.136 175.642,497.404 174.111,490.113 172.58,474.385 171.046,491.404    169.513,476.838 167.98,475.753 166.447,472.923 164.912,467.146 163.379,462.618 161.844,481.571 160.31,491.94 158.774,465.695    157.243,500.831 155.711,494.239 154.175,488.822 152.641,489.139 151.105,475.159 149.568,474.697 148.032,470.777    146.493,479.478 144.952,493.373 143.41,462.995 142.04,468.691 140.682,468.157 138.99,476.311 137.103,483.952 137.043,461.539    134.903,472.093 131.715,490.661 130.061,490.398 129.277,483.026 130.373,463.231 128.383,467.695 124.948,480.218    123.102,481.785 122.585,476.136 119.007,486.038 122.542,462.449 115.932,484.825 119.693,463.027 117.399,466.507    110.008,487.838 111.044,478.315 110.148,475.924 104.871,487.24 109.072,469.548 106.205,473.275 104.149,474.457    106.485,464.118 103.73,467.236 92.766,489.668 91.747,487.519 102.221,459.999 99.401,462.799 99.198,459.962 88.194,478.814    91.543,468.703 96.705,455.809 90.77,463.749 84.527,471.673 86.855,464.54 94.051,449.799 75.865,476.33 87.827,454.638    72.344,475.355 81.016,459.622 80.784,457.341 79.481,456.613 73.933,461.545 66.117,469.09 76.727,452.917 79.234,447.503    75.738,449.513 68.138,456.144 56.526,466.9 63.961,456.053 60.371,457.539 77.884,436.896 67.886,445.187 58.467,452.416    70.875,438.231 58.629,447.81 68.962,436.276 71.378,432.275 62.638,438.084 69.97,430.041 45.984,447.896 53.264,439.948    69.708,425.296 58.063,432.431 66.6,424.41 37.126,443.677 55.847,428.66 37.559,439.123 37.743,436.932 33.957,437.282    62.523,417.804 52.871,422.003 55.392,418.903 40.543,425.564 51.046,418.098 28.609,428.15 39.757,420.569 46.037,415.765    49.421,412.548 25.887,421.619 55.047,407.017 48.273,408.425 21.278,417.792 55.68,402.538 40.381,406.858 36.925,406.495    45.419,401.977 33.705,404.298 18.554,407.342 27.797,402.759 25.386,401.723 29.231,398.97 50.787,391.912 32.094,394.979    39.62,391.714 38.044,390.56 45.302,387.667 45.177,386.302 38.621,386.003 23.359,386.831 17.473,385.958 12.322,384.832    21.604,382.015 38.352,378.747 24.635,378.412 24.555,376.788 28.007,374.974 33.348,373.179 40.155,371.487 23.917,370.294    49.026,368.662 42.041,367.136 39.899,365.61 21.41,364.084 39.057,362.559 38.134,361.032 34.001,359.506 30.204,357.979    28.531,356.453 42.886,354.927 30.364,353.399 44.251,351.872 35.063,350.345 47.765,348.816 18.083,347.289 16.005,345.761    11.697,344.232 16.015,342.705 40.332,341.178 47.726,339.651 11.53,338.124 47.044,336.598 45.336,335.071 29.875,333.545    47.226,332.018 47.289,330.491 24.139,328.965 20.405,327.438 24.211,325.91 31.343,324.383 43.924,322.856 38.632,321.329    26.308,319.801 37.029,318.273 45.614,316.746 47.477,315.22 12.517,313.693 18.239,312.168 14.543,310.644 37.82,309.119    43.732,307.595 19.245,306.071 32.91,304.548 28.709,303.025 18.125,301.502 34.236,299.979 22.773,298.456 17.178,296.934    33.96,295.41 15.854,293.887 48.361,292.363 11.429,290.84 38.566,289.314 36.466,287.79 26.41,286.265 21.112,284.738    42.238,283.212 25.897,281.684 33.315,280.155 18.481,278.625 35.817,277.097 49.428,275.568 17.815,274.041 24.151,272.515    50.678,270.988 29.753,269.463 27.986,267.938 11.207,266.412 19.898,264.887 36.693,263.361 41.265,261.836 21.433,260.311    39.354,258.784 48.37,257.258 26.291,255.73 27.402,254.202 47.47,252.673 27.633,251.143 45.281,249.613 14.161,248.084    42.405,246.556 17.468,245.028 25.699,243.501 14.294,241.975 15.413,240.448 19.132,238.92 49.987,237.393 50.079,235.865    39.114,234.337 36.775,232.808 32.071,231.277 36.509,229.747 49.441,228.217 12.305,226.688 29.443,225.16 38.932,223.632    40.012,222.104 34.229,220.576 19.508,219.046 19.035,217.517 47.677,215.985 24.225,214.455 28.999,212.925 22.948,211.396    47.97,209.867 45.209,208.338 45.187,206.808 25.2,205.277 19.257,203.746 34.629,202.216 37.627,200.687 22.294,199.157    14.289,197.626 26.747,196.095 39.214,194.564 29.634,193.039 17.925,191.512 27.649,189.982 15.273,188.45 15.554,186.92    29.798,185.393 46.751,183.866 29.461,182.338 26.235,180.81 30.621,179.279 48.523,177.746 35.2,176.216 15.191,174.687    30.946,173.157 48.219,171.624 41.417,170.092 31.148,168.561 21.074,167.029 35.317,165.495 21.329,163.963 38.019,162.43    20.896,160.896 28.464,159.362 33.022,157.832 20.729,156.302 48.402,154.767 25.642,153.234 40.583,151.7 50.672,150.163    45.618,148.629 33.326,147.091 24.516,145.551 44.506,144.011 20.712,142.338 18.42,140.604 30.324,139.375 50.208,138.9    45.209,137.28 46.72,136.057 23.827,132.555 33.806,131.985 44.389,131.764 51.233,131.316 41.384,128.556 40.281,126.944    20.795,122.02 15.586,119.287 26.188,119.656 24.36,117.572 46.712,121.138 51.045,120.827 34.345,115.05 20.748,109.64    32.883,111.405 45.17,113.566 46.917,112.657 32.569,106.311 35.173,105.54 22.846,99.287 31.699,100.832 30.875,98.735    39.819,100.687 58.26,107.036 36.333,95.745 31.337,91.636 29.701,88.958 43.264,93.845 26.348,83.327 52.15,95.152 47.765,91.097    62.326,97.718 54.407,91.556 52.078,88.487 31.705,73.944 51.434,84.589 39.396,74.752 49.679,79.753 57.195,83.172 39.175,68.262    64.682,85.182 43.802,67.382 61.826,79.49 66.97,81.85 62.461,76.317 50.01,63.68 50,61.424 57.849,66.27 62.717,68.661    60.32,64.266 64.223,65.91 56.872,56.284 75.383,73.164 54.606,48.921 63.38,55.949 72.087,63.345 73.852,63.141 83.396,72.271    65.035,47.687 73.455,55.597 83.264,65.836 72.574,49.276 74.045,48.554 69.813,39.768 70.928,38.309 80.208,49.088 85.193,53.93    77.283,38.563 85.777,49.254 81.377,38.815 92.565,55.028 93.916,54.577 81.902,29.204 87.239,35.624 91.941,41.289 85.75,24.889    96.674,44.003 95.729,38.239 94.236,30.82 103.509,48.632 103.215,44.119 101.147,34.686 104.096,38.032 103.173,30.81    101.127,19.7 103.561,21.37 112.079,42.961 116.827,54.002 115.115,43.105 117.676,47.181 112.864,22.276 115.853,27.487    117.519,27.448 122.236,42.222 124.82,48.162 126.075,47.594 125.334,34.803 124.703,20.406 129.028,39.543 129.373,30.459    131.44,35.033 133.582,41.731 133.28,20.611 135.39,26.792 136.892,24.851 139.468,48.164 139.819,12.332 141.676,16.884    143.41,15.222 144.938,48.869 146.465,18.994 147.992,31.599 149.519,29.257 151.046,34.519 152.574,13.707 154.102,50.197    155.629,40.857 157.157,50.363 158.686,42.42 160.214,17.374 161.743,42.865 163.272,42.464 164.801,23.362 166.331,22.439    167.86,12.861 169.388,31.034 170.917,41.521 172.445,25.173 173.973,45.936 175.501,24.706 177.029,36.84 178.557,11.943    180.084,22.993 181.612,29.419 183.14,44.838 184.668,45.791 186.197,43.384 187.726,45.651 189.253,48.401 190.782,14.256    192.312,30.544 193.841,47.781 195.369,39.498 196.897,18.702 198.424,19.462 199.951,39.289 201.477,29.562 203.002,48.847    204.528,14.682 206.053,17.578 207.577,47.309 209.102,46.297 210.626,47.598 212.15,22.161 213.674,22.7 215.198,40.818    216.723,41.802 218.247,19.933 219.772,35.86 221.297,23.08 222.823,35.232 224.349,41.334 225.875,29.636 227.403,37.638    228.931,47.858 230.46,41.098 231.99,24.605 233.521,39.904 235.051,23.67 236.58,17.367 238.109,15.234 239.637,40.846    241.164,15.716 242.691,22.925 244.218,25.969 245.745,43.18 247.271,42.928 248.797,42.274 250.324,25.996 251.851,12.783    253.378,27.498 254.906,48.338 256.435,21.427 257.965,29.104 259.495,41.563 261.026,12.503 262.558,23.65 264.087,18.3    265.616,31.916 267.146,21.797 268.674,12.607 270.202,12.866 271.73,51.533 273.259,36.897 274.787,33.748 276.316,21.484    277.846,46.629 279.377,44.772 280.908,27.388 282.439,12.877 283.971,28.029 285.5,19.665 287.03,49.262 288.56,17.374    290.089,35.574 291.618,46.204 293.148,40.98 294.68,49.982 296.213,44.327 297.744,18.351 299.275,49.17 300.806,18.676    302.336,21.322 303.866,27.981 305.397,12.03 306.929,41.685 308.462,41.624 309.993,16.804 311.523,12.059 313.055,17.494    314.586,32.412 316.119,45.406 317.651,33.711 319.178,31.359 320.706,13.886 322.236,33.144 323.771,44.714 325.301,42.03    326.83,45.7 328.358,42.659 329.888,39.815 331.417,32.475 332.949,27.696 334.483,42.732 336.015,25.706 337.545,28.322    339.076,43.699 340.61,23.272 342.144,25.848 343.676,47.811 345.209,37.088 346.744,36.142 348.277,43.999 349.813,26.948    351.347,26.927 352.882,35.602 354.413,25.125 355.944,23.677 357.48,13.396 359.015,12.121 360.551,32.531 362.089,24.754    363.624,21.25 365.163,13.286 366.704,39.862 368.246,19.133 369.802,30.11 371.479,25.614 372.642,36.906 374.924,21.748    375.342,40.458 377.524,31.098 377.513,47.704 380.663,30.877 383.126,23.568 381.013,51.365 384.058,39.715 384.937,43.277    386.219,44.008 393.045,15.89 389.307,42.784 393.178,31.823 396.019,26.6 398.928,21.779 401.584,18.457 395.87,45.534    396.628,47.904 403.783,29.387 404.91,31.239 408.7,25.124 406.046,37.729 408.183,36.399 409.959,36.155 410.764,38.385    414.153,34.316 409.035,50.161 406.701,58.731 420.569,32.104 415.026,47.414 422.303,36.177 414.711,54.387 414.484,57.713    421.509,47.806 420.535,52.536 424.224,49.117 421.635,56.272 422.646,57.289 435.236,40.398 425.652,57.824 432.672,50.096    426.632,61.345 435.219,51.882 440.046,48.026 425.549,69.561 436.445,57.851 446.488,47.887 446.573,50.423 441.948,58.357    436.971,66.318 451.762,52.14 455.281,50.857 458.876,49.631 442.542,68.74 447.468,65.908 442.041,73.231 453.331,64.584    445.623,73.747 445.682,75.607 444.266,78.688 460.667,66.729 449.721,77.774 442.273,85.511 454.445,77.755 447.171,85.056    452.511,82.837 445.122,89.807 468.508,75.287 450.833,89.087 470.608,77.883 469.442,80.583 454.604,91.534 450.385,95.635    471.854,84.837 459.334,93.655 465.283,92.067 468.932,91.864 453.228,101.499 468.914,95.314 472.748,95.206 457.273,103.931    469.794,99.925 461.079,105.215 464.224,105.432 485.171,98.834 459.878,110.055 465.373,109.508 491.861,101.99 491.263,104.048    478.534,109.845 473.753,112.897 471.597,115.058 468.711,117.336 477.798,116.526 487.888,115.727 465.88,122.318    476.694,121.478 471.251,124.066 468.83,125.953 476.049,126.179 467.591,128.961 460.942,131.256 483.818,129.736    475.308,132.258 474.637,133.8 495.1,133.602 468.319,137.157 465.68,138.662 477.594,139.523 475.727,141.068 494.173,142.281    498.009,144.011 488.885,145.537 463.486,147.063 483.394,148.589 493.548,150.115 482.547,151.641 496.173,153.167    466.303,154.693 489.074,156.22 479.46,157.747 466.886,159.273 472.953,160.8 467.277,162.328 486.502,163.856 476.498,165.384    484.028,166.913 473.704,168.44 485.53,169.968 490.367,171.495 486.972,173.021 461.134,174.548 488.29,176.075 470.73,177.602    463.741,179.128 482.796,180.655 493.584,182.182 496.043,183.708 476.467,185.235 475.646,186.762 482.962,188.29    478.524,189.816 477.231,191.343 494.986,192.872 491.181,194.4 471.151,195.927 488.261,197.454 481.657,198.979 487.665,200.505    495.362,202.03 498.738,203.554 463.057,205.078 465.248,206.602 480.706,208.125 484.516,209.648 469.239,211.171    472.422,212.694 487.704,214.217 496.975,215.74 465.342,217.263 465.352,218.786 485.156,220.31 467.258,221.833 461.591,223.358    475.913,224.883 493.154,226.408 472.166,227.935 462.134,229.461 491.981,230.989 483.044,232.518 467.917,234.047    493.95,235.576 466.256,237.104 485.603,238.631 478.076,240.158 497.088,241.685 489.83,243.21 498.654,244.735 481.851,246.261    477.49,247.786 466.789,249.312 485.397,250.837 469.042,252.363 463.632,253.889 486.075,255.416 494.68,256.943 467.88,258.471    468.242,260 466.852,261.53 474.486,263.06 492,264.589 476.367,266.117 473.661,267.645 489.869,269.172 492.816,270.698    460.987,272.226 477.566,273.752 476.585,275.279 463.522,276.808 487.483,278.336 479.583,279.865 481.688,281.396    460.998,282.927 468.166,284.456 492.617,285.984 482.324,287.513 491.848,289.041 468.152,290.569 498.162,292.098    493.977,293.627 468.82,295.156 483.792,296.688 474.031,298.218 499.414,299.748 463.905,301.276 474.949,302.806    489.332,304.335 469.599,305.864 464.264,307.396 492.346,308.927 482.968,310.457 487.791,311.986 497.359,313.517    481.243,315.047 481.913,316.578 488.107,318.109 491.428,319.634 482.692,321.161 475.487,322.69 499.783,324.223    497.627,325.753 493.618,327.28 461.905,328.808 468.393,330.335 480.057,331.863 466.981,333.395 483.342,334.927    465.261,336.457 499.919,337.986 473.267,339.517 485.759,341.049 476.344,342.581 500.081,344.112 464.555,345.644    499.753,347.178 461.796,348.71 476.266,350.243 462.407,351.776 498.66,353.311 477.504,354.841 481.142,356.371 490.854,357.906    470.19,359.438 469.815,360.974 487.552,362.51 475.682,364.044 497.813,365.582 484.406,380.675  " style="fill:#009AD4;"/><g><path d="M154.169,349.957h50.739c0,0,55.367-2.048,55.367-57.996c0,0,2.415-45.523-32.642-45.523    c0,0,26.586-2.084,26.586-34.868c0-32.819-21.755-48.836-49.311-48.836h-50.739h-1.5h-36.265v187.224h36.265H154.169z     M154.169,195.334h44.207h6.532c0,0,12.313,0,12.313,19.052c0,19.07-7.246,21.85-15.461,21.85h-47.591V195.334z M154.169,264.502    h50.739c0,0,18.352-0.273,18.352,25.173c0,21.429-13.705,23.642-20.914,23.824c-1.354,0.018-2.489,0-3.257,0h-44.919V264.502z" style="fill:#FFFFFF;"/><path d="M334.122,209.395c-67.022,0-66.968,70.425-66.968,70.425s-4.611,70.083,66.968,70.083    c0,0,59.649,3.584,59.649-48.764h-30.685c0,0,1.025,19.729-27.94,19.729c0,0-30.685,2.158-30.685-31.906h90.315    C394.777,288.961,404.658,209.395,334.122,209.395z M304.115,264.502c0,0,3.751-28.267,30.685-28.267    c26.933,0,26.567,28.267,26.567,28.267H304.115z" style="fill:#FFFFFF;"/><rect height="17.278" style="fill:#FFFFFF;" width="71.909" x="296.612" y="173.54"/></g></g><g id="Layer_1"/></svg>