<?xml version="1.0" ?><!DOCTYPE svg  PUBLIC '-//W3C//DTD SVG 1.1//EN'  'http://www.w3.org/Graphics/SVG/1.1/DTD/svg11.dtd'><svg height="512px" style="enable-background:new 0 0 512 512;" version="1.1" viewBox="0 0 512 512" width="512px" xml:space="preserve" xmlns="http://www.w3.org/2000/svg" xmlns:xlink="http://www.w3.org/1999/xlink"><g id="social__x2C__media__x2C__social_media__x2C___evernote__x2C_"><polygon points="468.735,368.68 500.582,370.481 473.768,371.566 476.119,373.105 466.729,374.082    499.118,377.603 483.185,378.117 465.271,377.999 472.544,380.13 472.053,381.515 483.013,384.447 475.618,384.938    486.951,388.304 491.704,390.82 482.545,390.804 487.048,393.357 493.548,396.503 475.534,394.055 493.778,400.179    483.818,399.367 485.124,401.423 485.57,403.292 486.122,405.214 489.618,408.117 481.493,407.198 462.069,402.009 471.13,406.834    480.097,411.91 488.302,416.988 468.662,410.672 477.348,416.077 473.319,416.037 483.14,422.38 483.316,424.392 478.423,423.891    462.94,417.73 450.158,412.517 452.095,415.035 455.98,418.767 452.82,418.504 459.547,424.182 465.079,429.39 452.442,423.062    451.479,424.063 469.904,438.393 449.378,425.908 446.079,425.193 458.653,436.261 463.271,441.768 466.999,446.812    446.308,432.148 455.264,441.461 460.628,448.126 463.381,452.787 455.462,447.933 449.536,444.585 446.854,444.113    444.069,443.455 455.771,457.395 457.618,461.788 444.68,450.507 455.449,464.636 440.818,450.756 432.113,442.932    435.267,448.778 450.535,469.8 435.692,453.922 439.873,461.792 437.705,461.567 437.338,463.76 433.593,461.238 432.364,462.184    420.14,446.627 423.32,453.899 424.653,458.636 421.834,456.793 417.64,452.457 428.616,474.321 417.995,458.58 415.987,457.806    421.288,471.023 411.75,455.519 408.819,452.515 416.685,472.326 420.533,484.653 416.238,479.134 415.151,480.817    405.805,462.021 403.956,461.014 408.953,478.413 408.15,480.938 400.073,462.212 398.369,461.319 406.978,493.634    404.083,490.145 401.959,488.986 401.603,494.322 396.769,482.313 396.561,488.416 394.927,488.819 387.914,463.182    388.212,471.708 385.316,463.645 388.377,490.373 383.02,466.019 385.743,496.079 379.779,461.721 379.003,466.477 377.097,460.66    377.377,479.72 376.726,492.8 374.208,477.491 372.124,462.738 371.031,470.187 369.566,464.73 368.246,479.211 366.719,487.784    365.191,490.413 363.664,465.512 362.137,500.186 360.609,474.583 359.082,482.852 357.555,490.037 356.027,483.666    354.499,497.574 352.972,490.372 351.443,485.24 349.914,463.451 348.385,474.872 346.855,475.181 345.326,492.11 343.797,485.798    342.269,477.976 340.74,476.465 339.212,479.749 337.685,468.141 336.156,489.291 334.629,468.032 333.101,487.941    331.573,486.021 330.045,473.805 328.518,497.313 326.989,474.474 325.461,479.441 323.933,491.13 322.404,466.919    320.876,483.489 319.347,469.955 317.817,474.205 316.289,500.051 314.761,491.087 313.234,479.689 311.707,480.888    310.182,490.955 308.656,464.458 307.131,483.574 305.606,484.67 304.082,461.742 302.558,470.774 301.033,466.032    299.509,470.806 297.985,486.757 296.461,492.089 294.937,473.365 293.412,464.071 291.888,485.788 290.362,462.52    288.837,493.089 287.311,494.406 285.784,487.355 284.257,463.931 282.729,491.483 281.199,486.706 279.67,463.322 278.139,476.39    276.608,480.591 275.08,481.008 273.551,496.095 272.023,499.634 270.496,465.91 268.969,489.308 267.442,499.629 265.916,481.807    264.39,466.057 262.863,475.272 261.336,495.544 259.81,471.717 258.282,495.611 256.754,483.094 255.226,465.538 253.696,470.84    252.166,462.434 250.635,481.729 249.104,461.403 247.574,481.362 246.044,470.682 244.516,470.787 242.987,473.847    241.459,466.475 239.931,480.764 238.403,494.305 236.875,461.41 235.345,479.188 233.815,497.518 232.285,468.653    230.753,480.708 229.222,475.907 227.691,477.831 226.161,470.857 224.632,479.241 223.103,471.033 221.573,488.966    220.043,473.528 218.513,492.049 216.982,468.814 215.45,468.829 213.918,492.708 212.387,483.425 210.857,468.734    209.327,479.473 207.796,494.849 206.266,494.973 204.733,500.643 203.201,485.008 201.669,469.17 200.139,461.238    198.608,465.915 197.076,465.255 195.544,491.686 194.012,474.166 192.485,500.885 190.957,496.331 189.426,467.082    187.893,497.632 186.362,478.762 184.833,489.445 183.305,494.777 181.776,473.306 180.247,486.359 178.714,499.141    177.181,465.337 175.649,499.107 174.119,491.8 172.587,492.249 171.054,473.556 169.521,461.461 167.988,479.504 166.455,488.798    164.92,494.416 163.387,482.654 161.852,468.688 160.318,486.107 158.782,468.184 157.251,484.506 155.72,491.639 154.184,477.357    152.65,480.916 151.114,469.633 149.576,467.987 148.041,495.847 146.502,466.579 144.96,461.521 143.419,491.263 141.948,476.199    140.454,477.047 139.468,464.616 138.208,463.809 136.912,463.619 135.397,466.13 134.072,465.764 131.557,476.686    129.303,482.889 128.875,474.377 126.785,478.45 126.476,470.923 123.708,478.416 121.797,480.283 118.063,490.688    115.481,494.479 118.232,475.095 114.388,484.312 114.17,478.756 107.7,496.127 106.888,492.475 105.225,491.861 112.105,464.93    103.828,485.023 101.31,487.118 100.849,483.399 106.408,464.341 99.568,477.613 95.606,482.909 98.41,472.225 100.945,462.853    96.51,469.001 100.07,458.164 95.791,463.691 95.585,460.923 84.999,477.682 95.038,456.063 92.459,457.816 94.083,452.321    77.915,476.316 83.104,464.816 83.996,460.581 89.316,449.894 69.602,476.296 85.913,450.085 78.492,457.988 68.249,469.156    86.021,443.255 62.055,471.479 68.831,460.304 76.019,449.198 63.379,461.693 77.753,442.906 79.343,439.132 75.578,441.257    77.159,437.661 77.785,435.16 64.318,446.658 54.519,453.972 51.133,454.836 63.651,441.114 53.309,448.304 56.908,443.039    70.801,429.36 64.117,433.14 42.402,448.576 61.168,431.888 56.091,433.924 51.214,435.635 66.088,423.194 35.456,442.704    33.733,441.703 36.402,437.825 34.715,436.829 60.847,418.832 51.589,422.779 43.551,425.704 55.414,417.325 52.318,417.431    52.177,415.919 36.158,422.393 51.097,413.321 35.437,419.114 58.557,406.892 40.406,413.401 46.18,409.32 42.732,409.16    30.07,412.471 22.199,413.617 44.486,403.823 39.231,404.098 32.284,404.776 36.904,401.676 48.87,396.564 24.257,402.053    38.474,396.537 40.561,394.486 46.987,391.488 18.489,396.406 44.167,389.309 18.037,392.938 51.156,385.252 17.372,389.512    20.538,387.271 34.647,383.633 31.372,382.522 28.311,381.304 32.987,379.272 28.244,378.137 27.978,376.574 16.401,375.61    16.454,373.874 21.857,372.003 44.892,370.031 34.063,368.68 21.939,367.153 38.938,365.627 50.865,364.102 35.358,362.575    26.612,361.049 41.672,359.522 46.663,357.996 12.081,356.47 47.093,354.942 44.677,353.416 50.841,351.889 31.443,350.36    40.429,348.833 11.118,347.304 36.984,345.776 13.205,344.248 16.429,342.721 40.756,341.193 37.043,339.666 25.7,338.14    45.333,336.612 18.56,335.086 44.275,333.559 19.264,332.032 24.462,330.506 32.65,328.979 49.55,327.452 15.835,325.925    47.623,324.398 50.253,322.872 44.756,321.345 33.49,319.816 40.958,318.288 40.48,316.761 47.085,315.234 44.629,313.708    29.078,312.183 32.639,310.657 17.902,309.133 46.609,307.609 15.141,306.085 18.851,304.562 49.994,303.038 23.525,301.516    38.686,299.992 29.701,298.47 16.915,296.946 37.935,295.423 34.933,293.899 11.702,292.376 18.201,290.853 31.233,289.327    19.347,287.803 35.295,286.277 14.189,284.751 11.465,283.224 21.153,281.695 22.147,280.167 24.19,278.637 47.313,277.108    49.608,275.58 40.5,274.053 41.785,272.525 26.978,271 36.748,269.474 37.314,267.948 40.963,266.423 40.774,264.897    40.371,263.372 15.959,261.847 26.889,260.32 26.112,258.794 11.006,257.268 48.2,255.74 25.013,254.211 13.669,252.682    46.617,251.152 49.229,249.622 42.297,248.093 13.477,246.565 38.779,245.037 24.5,243.51 14.297,241.983 39.687,240.456    34.117,238.929 37.112,237.401 11.866,235.874 32.742,234.345 14.697,232.815 44.469,231.285 41.198,229.754 17.742,228.225    21.167,226.696 13.015,225.167 30.996,223.639 17.718,222.111 42.388,220.582 19.746,219.053 20.494,217.523 20.577,215.991    35.287,214.461 29.278,212.931 22.091,211.402 38.473,209.873 18.701,208.344 15.212,206.813 12.334,205.283 38.349,203.751    44.954,202.221 34.534,200.691 45.033,199.161 22.403,197.631 32.918,196.1 43.829,194.568 20.202,193.043 37.226,191.516    26.314,189.986 26.032,188.454 22.646,186.924 30.345,185.396 20.982,183.869 16.481,182.341 43.881,180.813 12.977,179.282    44.905,177.749 37.006,176.219 41.171,174.689 47.659,173.159 34.703,171.626 46.827,170.094 27.428,168.563 39.579,167.031    32.369,165.497 38.994,163.965 25.724,162.431 50.323,160.898 45.988,159.363 31.129,157.833 22.145,156.303 32.789,154.768    18.181,153.235 39.201,151.7 30.777,150.164 26.03,148.629 46.054,147.091 23.112,145.551 44.54,144.011 28.77,142.446    16.402,140.542 12.936,138.678 25.795,137.585 30.545,136.292 39.992,135.506 44.25,134.488 29.972,131.569 18.554,128.6    48.065,130.893 31.691,127.097 16.542,123.037 39.141,125.289 16.602,119.474 48.373,124.246 39.769,120.984 15.566,113.782    17.784,112.494 24.353,112.401 18.541,109.018 31.774,111.077 48.795,114.691 41.179,110.791 43.949,110.185 37.438,106.345    41.303,106.143 52.121,108.737 46.465,105.015 33.625,98.088 58.292,107.058 35.019,95.152 40.362,95.861 48.473,98.07    40.587,92.497 31.194,85.844 46.636,92.182 33.085,82.943 31.126,79.838 37.788,81.726 62.105,94.604 51.569,86.438 54.956,86.871    57.333,86.728 64.938,90.247 48.039,76.687 64.129,86.437 40.506,67.057 60.851,80.528 55.321,74.328 67.829,82.546 61.766,75.729    61.914,73.935 45.56,57.485 58.864,67.188 66.674,72.357 53.479,57.688 73.793,75.36 75.008,74.685 75.084,72.833 61.018,55.792    58.031,50.046 76.831,68.715 62.323,49.725 58.961,43.06 70.105,53.915 85.739,71.103 72.39,51.68 65.509,39.824 67.918,40.117    78.853,52.559 79.621,50.976 89.09,62.409 91.249,63.284 83.991,49.246 90.315,56.694 86.599,47.653 78.907,31.114 81.84,32.746    84.086,33.266 94.182,49.007 100.863,59.081 97.641,49.45 100.385,51.922 90.918,27.544 106.349,58.7 103.25,47.985 103.32,44.357    96.994,23.896 103.35,35.999 111.555,54.403 108.98,42.8 114.193,54.128 112.669,44.847 114.909,47.444 117.183,50.484    117.032,44.713 112.836,22.138 118.237,37.592 120.864,42.561 123.357,47.609 124.778,47.868 125.593,44.811 124.101,27.237    124.789,20.893 125.984,17.06 131.34,46.455 129.78,19.576 134.322,49.436 134.5,35.551 136.248,39.403 137.167,29.788    139.389,46.152 140.44,35.258 141.796,25.206 143.419,36.671 144.946,30.827 146.474,22.149 148,18.259 149.528,15.572    151.055,11.894 152.583,29.578 154.11,41.556 155.638,30.098 157.166,18.856 158.693,50.842 160.222,14.483 161.751,15.296    163.28,20.598 164.81,50.035 166.339,15.307 167.868,21.124 169.396,43.248 170.925,50.441 172.453,22.818 173.981,25.364    175.509,21.48 177.037,39.137 178.564,20.718 180.092,44.6 181.62,16.936 183.147,46.521 184.676,48.496 186.204,11.986    187.732,17.485 189.26,19.509 190.789,42.536 192.318,30.563 193.848,31.116 195.376,47.155 196.904,51.214 198.431,30.864    199.958,48.174 201.483,37.44 203.009,27.715 204.534,41.586 206.059,25.709 207.583,43.999 209.108,24.356 210.632,22.03    212.156,27.691 213.68,21.483 215.204,32.128 216.729,25.12 218.253,34.828 219.777,48.394 221.303,49.218 222.828,39.69    224.354,37.741 225.881,36.042 227.408,22.286 228.937,40.838 230.465,47.251 231.995,42.459 233.526,44.211 235.056,37.068    236.585,35.54 238.114,49.97 239.642,12.063 241.169,42.979 242.696,41.888 244.223,45.183 245.749,49.092 247.275,46.253    248.802,16.804 250.329,20.162 251.855,14.406 253.383,17.689 254.911,38.246 256.439,13.514 257.969,44.182 259.499,33.036    261.03,33.706 262.562,50.152 264.091,48.062 265.62,35.369 267.149,41.907 268.678,18.466 270.206,24.579 271.733,26.763    273.262,27.849 274.791,23.697 276.319,39.286 277.85,18.015 279.38,44.986 280.911,16.197 282.443,49.383 283.974,45.168    285.504,38.233 287.033,33.386 288.563,18.573 290.092,21.566 291.621,41.608 293.151,14.115 294.683,25.908 296.215,14.226    297.747,24.22 299.277,44.217 300.808,12.365 302.338,33.242 303.868,18.371 305.399,31.962 306.932,28.909 308.464,42.994    309.995,23.514 311.526,32.201 313.057,29.782 314.589,43.895 316.121,39.822 317.653,17.916 319.18,34.792 320.708,13.447    322.238,45.119 323.772,37.956 325.303,24.324 326.832,35.341 328.36,28.916 329.889,39.683 331.419,30.84 332.95,45.339    334.484,17.311 336.016,15.296 337.546,30.608 339.077,42.721 340.611,42.493 342.145,30.583 343.677,19.426 345.21,36.027    346.745,30.608 348.278,34.828 349.813,36.073 351.348,11.83 352.883,41.741 354.414,50.657 355.945,37.24 357.481,35.329    359.016,35.739 360.551,42.544 362.089,27.707 363.624,51.467 365.163,37.669 366.705,22.748 368.246,29.495 369.999,15.372    371.185,36.649 373.59,13.523 375.35,13.949 375.305,41.011 375.835,51.88 379.739,24.146 381.854,19.891 381.58,36.191    385.362,19.429 386.808,21.366 388.403,22.101 388.121,33.34 386.061,52.2 387.425,51.918 388.416,53.351 391.835,44.369    391.189,52.712 401.125,20.231 400.712,28.192 396.077,49.774 405.647,23.386 406.699,25.723 404.467,37.583 409.067,29.223    403.49,49.043 414.847,23.5 416.063,25.229 413.199,36.594 410.403,47.013 407.852,56.197 419.907,33.518 414.965,47.544    413.462,53.789 423.77,36.926 413.749,59.082 422.992,45.129 420.255,53.016 422.426,52.162 428.224,45.441 422.546,57.439    435.396,40.153 420.104,66.152 424.73,61.665 427.071,60.716 438.025,48.027 438.716,49.807 427.815,66.613 439.141,54.446    440.371,55.404 441.204,56.843 437.795,63.185 439.704,63.23 431.798,74.113 433.955,73.705 441.521,67.725 438.117,73.24    448.976,64.419 456.67,59.172 464.32,54.297 452.239,67.727 447.522,73.97 457.52,67.27 440.668,83.49 455.904,72.734    450.472,79.01 450.688,80.651 443.614,87.72 443.127,89.673 459.873,79.369 462.932,79.123 473.672,73.836 455.638,87.587    476.264,76.305 449.847,94.452 456.572,91.979 478.765,80.881 458.854,93.921 466.4,91.467 465.936,93.42 472.021,92.043    487.418,86.347 481.133,91.28 478.874,94.161 488.599,91.728 469.743,101.585 462.37,106.17 477.376,101.85 491.994,98.137    466.922,108.958 472.777,108.474 468.063,111.592 460.597,115.403 479.66,111.158 458.053,118.844 494.795,110.418    488.759,113.789 495.584,113.909 495.022,115.865 481.67,120.45 473.836,123.569 487.009,122.708 484.588,124.775 463.97,129.507    477.286,129.021 497.663,128.046 496.707,129.921 475.686,133.701 484.75,134.448 468.83,137.123 491.479,137.282 485.194,139.218    499.743,140.427 461.485,142.73 488.742,144.011 463.048,145.537 497.886,147.063 490.354,148.589 481.806,150.115    480.459,151.642 489.076,153.168 469.819,154.694 470.992,156.221 471.229,157.748 478.43,159.275 480.896,160.802 500.073,162.33    475.105,163.858 498.493,165.386 465.094,166.915 476.83,168.442 478.48,169.97 463.326,171.497 471.03,173.024 498.543,174.551    468.526,176.078 495.734,177.604 480.151,179.131 463.784,180.658 497.082,182.185 478.945,183.711 497.848,185.239    491.803,186.766 490.558,188.293 484.007,189.82 496.216,191.348 490.724,192.876 482.112,194.404 464.117,195.932    494.705,197.458 475.846,198.984 482.342,200.51 467.183,202.035 484.918,203.559 499.253,205.083 464.73,206.607 477.8,208.13    485.772,209.653 471.993,211.177 482.122,212.7 499.964,214.223 475.341,215.746 500.122,217.269 470.454,218.792 471.724,220.316    485.553,221.84 495.779,223.364 476.014,224.889 463.031,226.415 486.046,227.941 484.633,229.468 462.445,230.996    468.058,232.525 463.417,234.055 490.873,235.583 473.79,237.112 483.203,238.639 482.099,240.166 461.049,241.692    469.783,243.218 462.063,244.744 493.139,246.269 467.979,247.794 489.665,249.32 478.594,250.845 477.108,252.371    495.994,253.897 460.757,255.424 489.743,256.952 487.419,258.48 488.747,260.009 468.067,261.539 468.766,263.069    500.255,264.599 480.863,266.127 481.14,267.654 500.509,269.182 477.421,270.709 494.668,272.235 474.433,273.763 489.889,275.29    468.316,276.818 463.229,278.347 497.468,279.876 474.828,281.407 477.304,282.938 460.993,284.467 470.976,285.996    474.894,287.524 482.713,289.053 463.246,290.58 465.328,292.109 466.886,293.639 493.748,295.169 475.638,296.7 477.474,298.23    498.634,299.76 471.522,301.289 495.06,302.818 462.639,304.348 492.239,305.878 480.491,307.408 463.076,308.939 477.053,310.47    468.033,312 496.523,313.53 473.207,315.061 487.926,316.592 500.475,318.123 477.858,319.648 473.265,321.176 466.958,322.705    497.253,324.237 485.218,325.767 484.033,327.295 483.604,328.822 472.857,330.35 497.291,331.878 495.533,333.409    494.351,334.941 487.836,336.472 467.871,338.002 462.087,339.531 464.267,341.064 485.003,342.597 470.88,344.128 477.5,345.66    477.07,347.193 473.872,348.726 479.535,350.26 471.532,351.793 469.956,353.327 494.518,354.857 465.899,356.388 468.979,357.923    489.438,359.455 492.152,360.99 487.087,362.526 472.554,364.062 464.455,365.599 483.915,379.723  " style="fill:#86C243;"/><g><path d="M283.283,341.271c5.617,0,10.22,0.658,10.22,0.658v-21.994c0,0-45.231-0.293-45.231,33.879    c0,34.173,23.649,42.949,42.632,42.949c18.965,0,30.914,0,30.914,0s55.797-7.075,55.797-115.848    c0-108.766-17.447-118.877-22.351-127.251c-4.912-8.374-30.666-17.992-44.023-17.992c-13.311,0-34.39,0-34.39,0    s-11.06-19.747-37.034-19.747c-26.009,0-24.243,11.446-24.243,21.191v39.456l-11.793,12.287h-54.397    c0,0-15.343,10.001-15.343,31.613c0,21.611,6.816,96.937,52.486,103.903c54.014,8.264,63.245-16.511,63.245-19.491    c0-12.543,0.329-31.558,0.329-31.558s15.818,29.84,39.705,29.84c23.896,0,37.802,13.529,37.802,27.479c0,13.951,0,25.799,0,25.799    s-0.896,16.127-14.949,16.127c-14.042,0-29.971,0-29.971,0s-9.844-7.552-9.844-17.991    C272.845,344.106,277.648,341.271,283.283,341.271z M299.778,251.155c0,0,2.708-17.937,13.238-17.937    c10.548,0,25.021,23.952,25.021,23.952S305.012,251.155,299.778,251.155z" style="fill:#FFFFFF;"/><polygon points="191.788,176.465 203.489,165.293 203.471,119.017 145.651,176.41   " style="fill:#FFFFFF;"/></g></g><g id="Layer_1"/></svg>