<?xml version="1.0" ?><!DOCTYPE svg  PUBLIC '-//W3C//DTD SVG 1.1//EN'  'http://www.w3.org/Graphics/SVG/1.1/DTD/svg11.dtd'><svg height="512px" style="enable-background:new 0 0 512 512;" version="1.1" viewBox="0 0 512 512" width="512px" xml:space="preserve" xmlns="http://www.w3.org/2000/svg" xmlns:xlink="http://www.w3.org/1999/xlink"><g id="social__x2C__media__x2C__social_media__x2C___whatsapp__x2C_"><polygon points="463.11,368.662 494.363,370.394 482.998,371.796 491.163,373.692 469.747,374.225    463.287,375.188 493.868,378.97 489.47,380.278 477.318,380.631 485.746,383.176 460.058,381.297 473.565,384.612 485.62,388.068    467.19,386.437 480.998,390.489 472.144,390.257 473.444,392.035 484.508,396.157 476.038,395.716 486.854,400.155    484.989,401.378 493.011,405.473 487.601,405.649 478.499,404.489 467.537,402.429 477.729,407.578 459.142,402.362    464.041,405.687 470.078,409.625 470.926,411.604 459.645,408.355 481.456,419.692 473.113,417.665 484.658,425.013 485.1,427.21    484.316,428.823 455.303,415.268 461.702,420.359 455.771,418.633 451.365,417.63 460.858,424.975 450.838,420.416    462.825,429.772 446.854,420.962 452.682,426.531 450.665,426.808 454.902,431.604 467.3,442.73 450.396,431.828 466.979,446.798    440.582,427.48 444.822,432.697 449.19,438.262 451.272,442.054 455.18,447.659 455.68,450.316 440.159,437.677 439.869,439.306    445.02,446.482 459.421,463.657 441.328,446.905 437.807,445.205 447.174,457.935 448.915,462.464 433.456,446.611 435.782,451.67    445.508,466.321 440.474,462.557 445.796,472.365 436.64,462.788 438.138,467.658 440.972,474.713 421.456,448.594    419.291,447.658 429.468,466.295 431.977,473.455 428.32,470.552 420.077,459.385 413.027,449.602 421.508,468.09 428.234,484.385    414.374,460.738 412.396,459.883 408.792,455.447 420.769,485.164 412.641,470.853 416.613,484.308 412.452,478.537    403.423,459.674 403.483,463.647 409.1,483.613 406.471,481.037 399.003,463.303 405.493,488.833 397.551,467.95 393.582,459.002    395.39,470.831 393.011,467.312 395.044,481.96 395.691,492.267 389.443,470.577 387.809,469.607 388.677,482.468 384.773,468.473    385.07,479.724 385.381,493.416 381.71,477.543 381.263,487.307 380.496,496.479 377.302,478.807 374.653,461.841 375.287,497.668    372.522,472.657 370.82,462.308 369.657,472.217 368.246,465.148 366.719,496.189 365.191,489.923 363.664,483.642    362.137,479.497 360.609,469.92 359.082,485.254 357.555,480.769 356.027,486.106 354.499,470.474 352.971,496.779    351.442,461.813 349.914,474.485 348.385,475.924 346.854,485.69 345.325,471.283 343.797,495.363 342.268,487.543    340.739,474.923 339.211,497.32 337.683,497.067 336.155,491.858 334.627,500.727 333.1,490.04 331.571,472.597 330.044,489.348    328.516,468.053 326.987,497.146 325.459,468.647 323.931,476.031 322.402,471.038 320.874,493.055 319.345,467.846    317.815,484.193 316.287,479.797 314.759,497.79 313.231,495.436 311.705,488.503 310.179,474.805 308.653,481.882    307.128,481.659 305.604,483.77 304.079,490.113 302.555,493.55 301.03,471.107 299.506,500.602 297.982,486.62 296.458,464.384    294.934,470.255 293.409,465.181 291.884,476.701 290.359,489.803 288.833,484.465 287.308,469.461 285.78,461.391    284.253,480.521 282.725,475.679 281.196,477.977 279.666,481.406 278.135,461.284 276.605,472.081 275.076,477.557    273.547,463.249 272.02,493.127 270.492,480.952 268.965,496.184 267.438,481.626 265.911,495.377 264.385,475.973    262.858,497.229 261.332,479.458 259.805,463.695 258.277,470.24 256.75,495.34 255.221,466.713 253.692,480.378 252.162,466.239    250.63,500.217 249.099,479.314 247.569,493.157 246.04,494.001 244.511,474.522 242.982,479.385 241.454,498.795 239.926,488.732    238.398,472.192 236.869,478.061 235.34,467.663 233.811,499.139 232.28,463.379 230.748,462.134 229.216,485.618 227.686,497.703    226.156,492.289 224.626,485.784 223.097,489.366 221.567,484.167 220.038,474.159 218.507,468.624 216.976,471.606    215.444,473.465 213.912,477.631 212.381,461.33 210.851,492.196 209.321,499.362 207.791,478.749 206.259,480.105    204.727,491.564 203.195,465.046 201.663,472.87 200.132,471.205 198.602,482.654 197.07,491.921 195.537,490.696 194.005,466.813    192.479,477.626 190.95,477.849 189.419,484.711 187.886,493.479 186.355,485.58 184.826,476.109 183.297,472.247 181.769,494.386    180.239,497.539 178.707,486.3 177.173,461.447 175.642,466.699 174.111,474.944 172.58,468.434 171.046,466.374 169.513,475.254    167.98,497.936 166.447,491.515 164.912,497.493 163.379,463.793 161.844,489.62 160.31,467.782 158.774,473.812 157.243,485.064    155.711,472.627 154.175,463.944 152.641,462.904 151.105,470.972 149.568,494.172 148.032,480.586 146.493,475.078    144.952,484.074 143.41,495.879 141.741,491.031 139.888,497.879 138.379,491.54 138.162,464.492 136.418,470.745 134.491,477.16    132.438,483.044 129.029,499.912 128.547,489.014 126.556,491.369 124.469,493.896 122.1,497.559 124.431,474.284 124.62,465.549    121.299,474.979 118.801,479.396 116.625,481.879 118.502,467.798 111.878,487.383 114.833,470.557 110.324,480.766    114.387,462.229 103.543,491.34 105.811,479.152 102.541,483.589 104.34,473.941 100.159,480.521 99.859,476.865 97.392,478.621    92.913,484.838 98.649,467.918 88.03,487.116 95.392,467.82 98.438,458.392 83.947,483.329 94.847,459.277 89.765,465.563    88.94,463.955 88.701,461.414 77.739,476.586 88.563,456.098 72.525,478.303 91.57,446.5 87.162,450.668 79.063,459.775    67.462,473.123 81.79,451.048 70.632,463.23 74.323,455.949 74.38,453.469 78.207,446.56 69.837,454.171 73.727,447.444    75.621,443.228 70.759,446.41 74.785,440.124 62.418,450.729 75.667,435.446 52.144,456.243 69.501,437.634 66.369,438.633    56.035,445.878 47.815,450.854 65.461,433.819 70.306,428.093 55.003,438.568 40.51,447.793 63.115,428.646 62.815,427.167    35.83,444.594 34.595,443.259 53.584,428.424 61.068,421.823 47.782,428.593 31.95,436.438 61.877,416.676 58.996,416.838    41.789,424.873 48.438,419.5 30.445,427.196 31.461,424.734 38.237,419.548 35.972,418.848 40.415,415.063 36.454,415.104    39.859,411.952 43.878,408.68 45.064,406.65 25.716,412.296 43.588,404.125 53.909,399.088 39.725,402.343 31.686,403.275    31.743,401.595 31.808,399.925 48.566,393.845 19.687,399.694 49.997,390.758 33.392,393.093 38.272,390.513 18.729,392.78    38.758,387.447 28.175,387.715 35.542,384.997 13.19,386.541 27.348,382.997 13.728,382.869 49.542,377.685 43.597,376.877    50.812,375.018 21.092,375.347 30.013,373.313 16.951,372.118 46.067,369.998 41.334,368.662 49.987,367.136 48.615,365.61    26.378,364.084 12.173,362.559 37.262,361.032 29.492,359.506 49.481,357.979 25.81,356.453 36.828,354.927 44.1,353.399    31.03,351.872 15.071,350.345 48.572,348.816 49.088,347.289 37.366,345.761 36.659,344.232 23.84,342.705 41.132,341.178    31.819,339.651 50.753,338.124 24.835,336.598 42.886,335.071 28.118,333.545 35.546,332.018 50.477,330.491 15.767,328.965    24.66,327.438 15.433,325.91 12.521,324.383 28.267,322.856 33.399,321.329 41.637,319.801 45.652,318.273 28.555,316.746    17.082,315.22 23.995,313.693 35.302,312.168 30.149,310.644 48.602,309.119 12.683,307.595 26.971,306.071 19.366,304.548    26.201,303.025 28.586,301.502 40.768,299.979 33.326,298.456 18.304,296.934 41.121,295.41 34.944,293.887 37.253,292.363    11.684,290.84 32.203,289.314 22.152,287.79 49.817,286.265 16.755,284.738 25.16,283.212 42.204,281.684 25.283,280.155    23.723,278.625 17.293,277.097 35.044,275.568 21.2,274.041 43.334,272.515 14.883,270.988 37.727,269.463 40.387,267.938    45.999,266.412 29.348,264.887 29.11,263.361 35.969,261.836 33.015,260.311 33.337,258.784 46.051,257.258 28.204,255.73    13.653,254.202 15.49,252.673 14.815,251.143 21.866,249.613 41.85,248.084 12.623,246.556 41.494,245.028 32.918,243.501    46.259,241.975 18.077,240.448 45.136,238.92 33.233,237.393 47.421,235.865 44.998,234.337 37.373,232.808 42.113,231.277    15.782,229.747 43.284,228.217 12.282,226.688 13.352,225.16 44.325,223.632 28.958,222.104 30.223,220.576 26.603,219.046    49.56,217.517 44.706,215.985 19.42,214.455 31.786,212.925 34.626,211.396 30.343,209.867 39.018,208.338 15.289,206.808    48.258,205.277 21.949,203.746 47.382,202.216 36.729,200.687 33.341,199.157 38.425,197.626 39.38,196.095 44.994,194.564    18.852,193.039 34.224,191.512 36.392,189.982 42.346,188.45 48.893,186.92 37.001,185.393 32.811,183.866 25.31,182.338    22.587,180.81 48.938,179.279 22.782,177.746 31.117,176.216 38.59,174.687 30.488,173.157 50.907,171.624 38.441,170.092    17.95,168.561 25.292,167.029 50.712,165.495 11.182,163.963 39.091,162.43 25.018,160.896 14.571,159.362 34.049,157.832    38.639,156.302 32.872,154.767 18.886,153.234 28.684,151.7 31.873,150.163 44.53,148.629 48.24,147.091 39.093,145.551    26.525,144.011 45.253,142.666 22.322,140.708 15.217,138.77 23.876,137.479 22.143,135.726 49.408,136.276 43.133,134.377    40.248,132.687 49.254,132.36 29.891,128.412 30.912,126.981 23.707,124.222 46.393,126.582 33.317,122.695 38.124,122.125    37.666,120.521 28.236,116.775 15.171,111.832 20.722,111.435 30.149,112.274 41.738,114.017 49.543,114.922 51.374,114.105    33.335,106.572 19.494,99.959 21.589,98.82 44.371,105.736 38.438,101.783 44.015,102.447 40.712,99.403 57.842,105.475    31.673,91.793 45.349,96.558 44.592,94.512 32.271,86.406 59.389,99.047 34.58,83.778 62.762,97.968 46.372,86.806 51.781,88.306    51.677,86.509 53.604,85.997 34.728,71.635 45.398,76.808 39.495,70.644 65.115,87.158 66.75,86.732 60.429,80.211 59.809,77.891    57.715,74.305 47.858,64.069 71.03,81.8 70.734,79.793 57.273,65.745 70.808,76.229 61.586,65.483 56.649,58.432 70.204,69.815    65.39,62.737 55.904,50.313 57.358,49.32 59.162,48.726 62.681,50.156 79.714,67.874 80.723,66.971 68.174,48.923 84.759,67.782    76.83,54.968 86.581,65.801 75.283,47.514 82.057,54.537 83.464,53.976 76.721,40.827 75.495,35.712 86.218,49.979 85.545,45.879    95.786,60.665 91.398,50.028 81.059,27.631 86.742,34.664 93.483,44.367 85.979,25.361 98.776,48.498 97.798,42.83 98.031,39.561    103.523,48.666 107.021,53.591 105.021,44.713 101.48,30.965 104.594,34.82 105.635,32.968 113.567,52.24 108.653,31.881    106.615,19.254 115.751,45.388 116.067,41.099 112.12,19.297 116.749,31.3 117.997,29.613 122.295,42.505 124.081,44.31    122.506,27.542 127.992,51.008 126.949,35.378 128.667,36.876 128.234,21.131 131.311,33.835 131.07,15.247 134.936,41.071    136.479,42.938 136.303,13.949 138.551,25.566 140.596,41.391 142.082,47.294 143.41,23.188 144.938,20.486 146.465,43.711    147.992,28.622 149.519,21.326 151.046,12.309 152.574,36.388 154.102,34.63 155.629,49.808 157.157,20.156 158.686,29.036    160.214,18.124 161.743,34.968 163.272,31.162 164.801,26.974 166.331,51.203 167.86,48.825 169.388,48.803 170.917,20.715    172.445,46.13 173.973,16.835 175.501,42.16 177.029,49.17 178.557,26.438 180.084,41.22 181.612,29.807 183.14,15.258    184.668,12.025 186.197,48.567 187.726,32.05 189.253,32.707 190.782,41.978 192.312,50.5 193.841,45.276 195.369,22.76    196.897,38.885 198.424,46.13 199.951,12.165 201.477,19.569 203.002,38.383 204.528,15.055 206.053,21.511 207.577,22.998    209.102,47.686 210.626,29.669 212.15,31.396 213.674,17.602 215.198,16.852 216.723,15.497 218.247,29.479 219.772,36.531    221.297,26.529 222.823,28.347 224.349,44.148 225.875,49.097 227.403,15.944 228.931,16.998 230.46,40.275 231.99,30.78    233.521,34.863 235.051,20.188 236.58,33.325 238.109,34.386 239.637,23.298 241.164,46.646 242.691,15.594 244.218,21.138    245.745,22.693 247.271,26.924 248.797,28.286 250.324,30.438 251.851,22.342 253.378,45.778 254.906,13.207 256.435,47.05    257.965,24.803 259.495,43.836 261.026,17.822 262.558,24.452 264.087,14.025 265.616,37.326 267.146,27.417 268.674,23.115    270.202,49.983 271.73,44.595 273.259,38.119 274.787,42.449 276.316,13.526 277.846,48.168 279.377,44.534 280.908,25.176    282.439,25.234 283.971,21.114 285.5,35.73 287.03,12.867 288.56,21.979 290.089,26.461 291.618,33.346 293.148,51.416    294.68,34.997 296.213,18.388 297.744,25.544 299.275,25.157 300.806,13.182 302.336,33.993 303.866,30.585 305.397,18.447    306.929,15.367 308.462,44.333 309.993,23.752 311.523,23.372 313.055,15.332 314.586,33.523 316.119,41.396 317.651,32.414    319.178,23.314 320.706,14.632 322.236,35.821 323.771,14.763 325.301,47.73 326.83,31.123 328.358,34.802 329.888,15.074    331.417,40.9 332.949,12.586 334.483,19.452 336.015,33.375 337.545,32.501 339.076,13.529 340.61,34.185 342.144,44.908    343.676,34.499 345.209,23.95 346.744,22.562 348.277,18.639 349.813,41.321 351.347,40.475 352.882,22.737 354.413,13.194    355.944,29.014 357.48,26.776 359.015,16.247 360.551,48.962 362.089,37.129 363.624,12.044 365.163,23.944 366.704,35.119    368.246,37.1 369.72,36.272 371.555,22.793 372.094,50.405 374.429,31.012 375.961,31.271 377.015,37.401 380.463,16.434    379.244,43.968 382.892,25.482 385.342,19.577 386.821,21.266 389.596,14.831 386.613,41.799 390.403,29.616 395.174,14.427    390.045,46.017 393.182,38.668 400.457,15.662 393.814,47.853 401.475,25.462 404.84,19.995 407.188,18.362 404.73,31.792    408.486,25.753 411.307,22.919 412.755,24.069 407.738,41.901 414.746,28.488 412.431,38.433 409.187,49.813 410.744,49.772    409.912,54.883 415.325,46.796 415.7,49.341 428.951,26.939 417.9,51.349 417.801,54.491 424.358,45.852 420.267,55.819    433.806,36.262 425.73,52.377 424.558,56.914 428.632,53.353 423.848,62.953 435.478,48.82 443.252,40.833 430.23,61.149    438.624,52.558 436.033,58.371 434.485,62.639 438.054,60.608 442.682,57.504 440.447,62.385 454.056,49.613 432.113,75.678    438.338,71.033 452.775,58.36 458.058,55.454 463.313,52.789 454.272,63.705 451.455,68.442 451.009,70.888 464.386,61.354    457.983,68.977 441.815,84.219 469.448,63.963 464.935,69.667 458.217,76.783 463.842,74.583 461.39,78.295 466.173,76.893    476.894,71.684 477.567,73.374 467.783,81.627 456.723,90.244 478.422,79.067 471.366,85.117 461.082,92.684 478.417,85.009    478.922,86.673 469.604,93.258 457.768,100.716 478.853,92.35 472.301,97.133 474.305,97.962 459.689,105.798 465.91,104.751    482.995,99.676 491,98.487 475.796,105.801 473.449,108.245 462.244,113.483 494.053,105.039 492.516,107.371 495.602,108.349    485.12,112.995 488.645,113.806 488.896,115.489 488.786,117.257 496.729,117.34 475.374,123.272 469.183,125.89 492.09,123.542    487.942,125.896 476.352,129.149 498.904,127.895 495.172,130.104 497.838,131.599 499.642,133.232 469.361,137.086    478.51,137.976 482.486,139.327 490.317,140.679 490.372,142.335 497.657,144.011 485.823,145.537 461.593,147.063    490.168,148.589 490.276,150.115 493.873,151.641 497.766,153.167 478,154.693 466.073,156.22 484.725,157.747 497.511,159.273    480.658,160.8 482.21,162.328 492.777,163.856 471.324,165.384 498.379,166.913 465.265,168.44 482.72,169.968 463.259,171.495    485.964,173.021 480.62,174.548 489.442,176.075 468.306,177.602 465.551,179.128 470.663,180.655 500.203,182.182    496.736,183.708 497.258,185.235 463.071,186.762 495.324,188.29 476.648,189.816 493.97,191.343 470.434,192.872 483.642,194.4    465.958,195.927 486.521,197.454 482.437,198.979 468.976,200.505 465.111,202.03 485.523,203.554 491.891,205.078    463.868,206.602 461.723,208.125 466.068,209.648 475.819,211.171 486.828,212.694 478.441,214.217 461.587,215.74    472.898,217.263 499.355,218.786 495.26,220.31 493.088,221.833 478.449,223.358 498.966,224.883 497.521,226.408 480.041,227.935    498.281,229.461 484.496,230.989 480.889,232.518 499.158,234.047 482.593,235.576 469.912,237.104 464.521,238.631    497.305,240.158 481.225,241.685 462.892,243.21 463.681,244.735 464.799,246.261 461.461,247.786 464.414,249.312 473.07,250.837    495.369,252.363 489.689,253.889 485.628,255.416 492.106,256.943 498.984,258.471 478.112,260 478.217,261.53 483.401,263.06    473.831,264.589 477.808,266.117 494.554,267.645 495.698,269.172 463.684,270.698 479.357,272.226 493.848,273.752    482.507,275.279 466.915,276.808 462.299,278.336 470.57,279.865 487.701,281.396 463.393,282.927 494.671,284.456    481.396,285.984 489.303,287.513 465.518,289.041 463.869,290.569 486.905,292.098 492.736,293.627 479.661,295.156    480.096,296.688 464.299,298.218 484.775,299.748 484.227,301.276 493.621,302.806 467.395,304.335 479.45,305.864    470.624,307.396 487.146,308.927 490.119,310.457 467.147,311.986 493.36,313.517 464.459,315.047 489.773,316.578    498.177,318.109 495.538,319.634 476.714,321.161 466.323,322.69 472.026,324.223 495.991,325.753 467.495,327.28 473.941,328.808    463.588,330.335 464.306,331.863 497.985,333.395 461.071,334.927 477.563,336.457 469.986,337.986 493.455,339.517    495.259,341.049 462.353,342.581 472.015,344.112 472.33,345.644 468.989,347.178 474.613,348.71 495.036,350.243 479.087,351.776    482.814,353.311 465.796,354.841 478.459,356.371 462.223,357.906 481.957,359.438 461.881,360.974 464.675,362.51    478.563,364.044 462.719,365.582 481.855,373.905  " style="fill:#00C451;"/><path d="M396.352,252.746c0,75.545-61.771,136.796-137.971,136.796   c-24.189,0-46.914-6.18-66.693-17.022l-76.382,24.244l24.902-73.392c-12.57-20.624-19.797-44.796-19.797-70.645   c0-75.55,61.771-136.801,137.97-136.801C334.58,115.927,396.352,177.178,396.352,252.746z M258.381,137.721   c-63.967,0-115.995,51.598-115.995,115.024c0,25.154,8.215,48.466,22.093,67.426l-14.482,42.711l44.572-14.169   c18.316,12.013,40.254,19.033,63.812,19.033c63.958,0,115.996-51.598,115.996-115.02   C374.377,189.319,322.339,137.721,258.381,137.721z M328.048,284.245c-0.852-1.408-3.102-2.249-6.477-3.914   c-3.386-1.682-20.018-9.8-23.11-10.915c-3.11-1.115-5.361-1.683-7.62,1.682c-2.252,3.364-8.728,10.898-10.704,13.147   c-1.977,2.229-3.943,2.505-7.329,0.84c-3.375-1.682-14.28-5.229-27.198-16.656c-10.054-8.881-16.842-19.852-18.81-23.198   c-1.976-3.364-0.21-5.174,1.482-6.856c1.519-1.5,3.376-3.913,5.068-5.869c1.693-1.957,2.26-3.346,3.386-5.595   c1.134-2.23,0.557-4.187-0.284-5.869c-0.842-1.682-7.611-18.174-10.429-24.885c-2.818-6.71-5.626-5.595-7.603-5.595   s-4.227-0.292-6.486-0.292c-2.26,0-5.919,0.841-9.021,4.205c-3.101,3.346-11.829,11.464-11.829,27.957   c0,16.51,12.113,32.454,13.806,34.685c1.692,2.229,23.384,37.185,57.764,50.623c34.398,13.421,34.398,8.94,40.593,8.374   c6.193-0.549,20.008-8.1,22.825-15.926C328.89,292.344,328.89,285.634,328.048,284.245L328.048,284.245z" id="WhatsApp_1_" style="fill:#FFFFFF;"/></g><g id="Layer_1"/></svg>