<?xml version="1.0" ?><!DOCTYPE svg  PUBLIC '-//W3C//DTD SVG 1.1//EN'  'http://www.w3.org/Graphics/SVG/1.1/DTD/svg11.dtd'><svg height="512px" style="enable-background:new 0 0 512 512;" version="1.1" viewBox="0 0 512 512" width="512px" xml:space="preserve" xmlns="http://www.w3.org/2000/svg" xmlns:xlink="http://www.w3.org/1999/xlink"><g id="social__x2C__media__x2C__social_media__x2C___apple__x2C__mac__x2C_"><polygon points="464.408,368.68 490.289,370.344 464.556,371.32 496.86,373.937 467.604,374.129    483.972,376.589 479.218,377.794 473.939,378.821 472.366,380.11 465.803,380.751 498.518,386.552 470.519,384.171    482.912,387.641 479.943,388.724 469.907,388.372 469.13,389.655 489.818,395.676 467.371,392.136 489.331,399.063    465.591,394.527 463.077,395.261 476.291,400.552 486.064,405.196 471.283,402.158 465.273,401.672 466.752,403.68    465.673,404.808 454.568,402.033 484.691,415.532 474.529,413.129 475.217,415.147 477.938,418.126 466.174,414.425    476.981,421.314 478.924,424.143 477.295,425.201 468.047,422.13 479.239,430.118 473.843,429.024 461.809,423.825    477.511,435.153 479.812,438.674 446.318,419.095 466.107,433.826 468.176,437.202 453.003,428.478 454.963,431.665    453.835,432.644 467.369,444.928 441.796,426.827 448.856,434.23 444.946,432.813 462.792,449.99 445.96,437.362 454.119,446.708    448.931,444.019 457.58,454.428 448.607,447.938 444.91,446.385 458.748,462.967 458.275,465.071 450.929,459.659 443.153,453.397    432.74,443.661 444.68,460.041 433.393,448.747 431.458,448.573 424.863,442.271 443.479,469.281 425.343,447.248 425.174,449.308    427.099,454.498 440.86,477.726 439.459,478.858 432.895,471.76 431.811,473.176 424.403,463.916 421.834,462.466 429.732,479.768    425.946,476.376 425.442,479.038 423.903,479.748 422.904,481.576 420.225,479.902 411.496,464.628 413.986,473.958    410.308,469.224 410.012,472.479 408.998,474.095 404.709,466.962 409.456,484.619 408.805,487.915 405.058,481.944    406.863,493.263 402.535,484.891 399.763,481.127 401.598,494.304 394.879,474.746 390.881,464.279 389.249,463.095    391.54,480.732 391.661,489.631 385.666,465.606 386.709,480.239 383.439,468.826 383.514,479.665 382.274,482.155    379.535,471.386 379.098,481.75 378.304,491.247 375.949,481.204 373.851,470.809 372.597,474.525 371.357,482.42 369.953,493.711    368.246,461.138 366.719,499.478 365.191,461.416 363.664,484.771 362.137,497.529 360.609,468.922 359.082,484.865    357.555,498.894 356.027,478.142 354.499,498.02 352.971,493.546 351.442,477.474 349.914,471.465 348.385,476.104    346.854,468.999 345.325,485.309 343.797,492.133 342.268,492.201 340.739,491.306 339.211,461.685 337.683,476.044    336.155,480.818 334.627,499.404 333.1,472.477 331.571,466.19 330.044,474.403 328.516,495.232 326.987,499.505 325.459,480.438    323.931,468.677 322.402,472.963 320.874,463.41 319.345,472.5 317.815,487.112 316.287,494.541 314.759,476.303 313.231,497.384    311.705,490.795 310.179,472.818 308.653,500.405 307.128,492.512 305.604,479.944 304.079,483.522 302.555,488.991    301.03,465.827 299.506,473.305 297.982,487.273 296.458,465.813 294.934,462.087 293.409,471.686 291.884,482.964    290.359,499.314 288.833,498.599 287.308,491.897 285.78,493.696 284.253,467.838 282.725,481.674 281.196,497.315    279.666,486.549 278.135,492.127 276.605,495.041 275.076,471.349 273.547,467.429 272.02,491.31 270.492,471.44 268.965,500.041    267.438,492.255 265.911,498.675 264.385,478.693 262.858,470.058 261.332,475.698 259.805,473.457 258.277,471.453    256.75,488.328 255.221,498.776 253.692,484.877 252.162,499.932 250.63,469.565 249.099,496.511 247.569,484.707 246.04,466.813    244.511,477.934 242.982,466.915 241.454,464.604 239.926,463.628 238.398,469.101 236.869,482.567 235.34,494.453    233.811,497.827 232.28,498.937 230.748,485.999 229.216,477.969 227.686,481.81 226.156,485.1 224.626,470.17 223.097,481.836    221.567,495.157 220.038,467.764 218.507,465.275 216.976,474.593 215.444,471.313 213.912,495.742 212.381,493.123    210.851,491.536 209.321,479.976 207.791,484.233 206.259,470.335 204.727,461.898 203.195,476.439 201.663,490.484    200.132,461.642 198.602,474.539 197.07,489.13 195.537,473.572 194.005,464.497 192.479,478.389 190.95,476.613 189.419,464.586    187.886,486.263 186.355,473.93 184.826,465.285 183.297,493.455 181.769,495.234 180.239,471.925 178.707,479.036    177.173,478.647 175.642,486.74 174.111,475.67 172.58,472.094 171.046,466.035 169.513,485.565 167.98,483.012 166.447,496.346    164.912,463.132 163.379,485.961 161.844,484.378 160.31,474.342 158.774,494.977 157.243,470.473 155.711,493.076 154.175,489.27    152.641,487.906 151.105,468.852 149.568,464.105 148.032,483.112 146.493,487.478 144.952,478.298 143.41,497.745    141.971,474.271 139.919,496.718 138.595,486.178 138.19,463.992 136.761,465.713 134.184,480.939 131.169,496.58 130.707,484.454    130.202,475.459 130.003,466.063 126.147,482.664 123.658,488.133 126.894,460.499 122.824,474.904 119.456,483.9 119.435,476.534    116.358,483.019 117.797,470.626 110.638,492.092 113.89,473.943 116.93,458.267 106.248,488.531 111.218,467.652 105.062,481.368    111.586,458.136 97.738,491.771 101.234,477.742 94.937,489.115 94.986,484.402 93.136,484.37 92.627,481.277 97.935,465.943    101.577,455.06 97.849,459.555 98.899,454.542 81.732,483.727 92.902,459.907 83.572,473.344 78.745,478.306 82.921,468.086    76.63,475.101 87.682,454.871 87.304,452.912 81.997,458.203 70.126,472.449 84.702,449.436 87.46,443.482 66.696,468.365    71.616,459.381 75.999,451.486 67.052,459.913 74.332,448.96 81.623,438.523 67.499,452.173 72.944,444.08 72.351,442.655    68.122,444.955 56.351,454.519 62.699,446.105 62.801,443.918 47.198,456.077 47.333,453.59 65.648,435.503 55.857,441.882    51.697,443.263 43.441,447.748 49.18,441.128 62.66,429 60.879,428.589 44.19,438.698 54.068,429.889 54.699,427.694    62.326,421.028 49.822,427.323 36.481,433.696 40.976,429.044 33.242,431.598 49.936,420.364 55.387,415.779 47.514,418.334    38.688,421.123 59.199,409.392 56.583,409.207 30.343,419.623 56.024,406.598 37.732,412.857 36.446,411.69 53.038,403.578    44.936,405.182 46.519,403.099 53.535,399.238 34.615,404.018 32.659,402.99 35.273,400.568 34.538,399.176 51.376,393.115    24.254,398.567 24,396.904 17.153,396.704 32.896,391.64 19.66,392.617 30.737,388.896 26.789,387.962 17.932,387.665    40.878,382.783 28.871,382.828 26.504,381.5 46.162,378.023 37.6,377.381 33.877,376.177 49.735,373.827 22.558,373.629    35.624,371.628 37.853,370.125 39.421,368.68 25.158,367.153 42.842,365.627 40.656,364.102 45.937,362.575 23.59,361.049    36.137,359.522 13.72,357.996 26.174,356.47 27.545,354.942 21.129,353.416 49.953,351.889 20.819,350.36 30.765,348.833    11.9,347.304 12.708,345.776 28.88,344.248 13.841,342.721 40.126,341.193 18.352,339.666 38.555,338.14 49.855,336.612    42.297,335.086 25.908,333.559 12.996,332.032 16.502,330.506 13.741,328.979 27.589,327.452 49.773,325.925 38.458,324.398    38.186,322.872 33.927,321.345 32.726,319.816 43.708,318.288 21.621,316.761 27.262,315.234 35.022,313.708 37.631,312.183    19.208,310.657 37.349,309.133 32.109,307.609 38.566,306.085 23.99,304.562 32.808,303.038 23.359,301.516 38.598,299.992    26.137,298.47 22.203,296.946 41.121,295.423 13.344,293.899 11.503,292.376 18.464,290.853 25.949,289.327 24.471,287.803    28.216,286.277 20.431,284.751 46.762,283.224 38.687,281.695 30.078,280.167 25.243,278.637 44.655,277.108 26.976,275.58    25.502,274.053 25.354,272.525 19.152,271 47.825,269.474 40.75,267.948 43.896,266.423 35.626,264.897 38.163,263.372    26.213,261.847 42.148,260.32 12.626,258.794 15.805,257.268 14.504,255.74 32.884,254.211 27.904,252.682 17.125,251.152    19.071,249.622 33.307,248.093 21.828,246.565 33.705,245.037 22.131,243.51 31.353,241.983 37.007,240.456 31.726,238.929    20.641,237.401 39.109,235.874 32.8,234.345 37.847,232.815 39.063,231.285 47.086,229.754 13.526,228.225 15.307,226.696    37.682,225.167 33.094,223.639 29.081,222.111 34.026,220.582 25.218,219.053 39.491,217.523 26.722,215.991 18.417,214.461    24.486,212.931 32.525,211.402 32.796,209.873 16.718,208.344 39.848,206.813 37.556,205.283 43.114,203.751 35.521,202.221    35.221,200.691 23.862,199.161 20.76,197.631 23.312,196.1 31.375,194.568 32.826,193.043 20.075,191.516 46.728,189.986    11.28,188.454 23.224,186.924 35.557,185.396 43.312,183.869 22.247,182.341 47.366,180.813 34.429,179.282 34.498,177.749    43.621,176.219 31.863,174.689 11.641,173.159 22.572,171.626 48.768,170.094 16.733,168.563 46.038,167.031 15.378,165.497    30.107,163.965 46.635,162.431 36.438,160.898 42.505,159.363 15.948,157.833 47.946,156.303 16.403,154.768 46.705,153.235    47.86,151.7 45.46,150.164 46.421,148.629 34.302,147.091 27.352,145.551 12.446,144.011 22.267,142.359 48.365,141.404    40.679,139.791 27.972,137.702 38.464,136.826 28.537,134.58 30.445,133.179 34.726,132.084 44.887,131.82 40.301,129.829    22.329,125.69 31.63,125.524 36.41,124.805 19.755,120.081 16.574,117.665 34.688,119.861 33.067,117.917 33.172,116.346    31.76,114.365 40.325,115.126 50.071,116.475 42.811,112.837 52.158,114.36 44.466,110.363 40.233,107.341 53.317,110.608    46.007,106.372 32.096,99.227 35.139,98.724 32.557,95.853 37.199,96.14 25.731,89.003 40.773,94.336 32.301,88.338 49.618,95.426    36.053,86.499 37.831,85.579 44.247,87.362 38.12,81.921 45.641,84.558 54.282,88.148 46.804,81.589 54.094,84.568 49.966,79.951    62.956,87.256 65.015,87.086 38.04,65.213 58.005,78.339 41.92,63.707 52.426,69.991 42.25,59.375 55.483,68.398 68.309,77.64    46.366,55.825 58.999,65.183 68.185,71.824 70.245,71.859 69.305,68.903 71.429,69.039 70.733,66.209 77.72,71.74 80.063,72.374    73.206,62.389 59.833,44.111 82.014,68.564 70.29,51.596 68.692,46.882 85.832,67.011 88.416,68.325 76.319,48.98 75.773,45.379    79.226,47.613 82.376,49.572 90.578,59.751 91.88,59.284 84.686,44.421 86.013,43.562 93.926,54.595 95.8,55.132 91.911,44.641    84.455,26.366 86.415,26.272 92.517,35.105 100.577,48.984 105.25,56.183 102.499,46.213 104.565,47.48 110.054,57.758    107.492,47.199 102.899,30.049 112.902,54.359 111.043,44.453 109.869,35.811 112.233,38.365 117.677,52.254 117.388,46.087    112.342,20.192 114.468,21.605 115.893,20.082 118.49,24.083 119.753,21.793 122.674,28.485 122.361,16.671 127.779,40.908    125.983,17.167 127.32,13.645 133.104,50.378 130.958,14.074 135.502,48.081 136.123,37.669 136.397,15.683 139.049,37.907    139.942,16.94 142.009,41.862 143.41,34.706 144.938,45.396 146.465,38.998 147.992,50.333 149.519,33.407 151.046,51.063    152.574,15.515 154.102,49.634 155.629,35.658 157.157,16.052 158.686,23.408 160.214,46.812 161.743,47.803 163.272,25.533    164.801,21.007 166.331,29.851 167.86,20.689 169.388,13.278 170.917,28.793 172.445,14.789 173.973,38.687 175.501,47.185    177.029,43.845 178.557,23.074 180.084,24.254 181.612,49.402 183.14,46.701 184.668,12.909 186.197,26.799 187.726,44.833    189.253,39.417 190.782,48.327 192.312,24.59 193.841,11.725 195.369,33.516 196.897,49.753 198.424,28.459 199.951,28.134    201.477,46.629 203.002,49.802 204.528,16.061 206.053,27.995 207.577,26.555 209.102,18.055 210.626,45.416 212.15,20.544    213.674,41.487 215.198,18.58 216.723,36.505 218.247,46.871 219.772,15.165 221.297,43.928 222.823,49.677 224.349,47.297    225.875,25.697 227.403,49.358 228.931,29.574 230.46,33.395 231.99,46.809 233.521,51.072 235.051,43.375 236.58,18.356    238.109,30.254 239.637,12.15 241.164,22.078 242.691,19.461 244.218,48.165 245.745,20.002 247.271,33.588 248.797,26.411    250.324,34.043 251.851,39.025 253.378,16.333 254.906,49.282 256.435,41.217 257.965,22.264 259.495,42.2 261.026,19.817    262.558,37.427 264.087,25.808 265.616,37.499 267.146,19.852 268.674,34.357 270.202,29.652 271.73,30.736 273.259,50.582    274.787,50.839 276.316,28.815 277.846,15.927 279.377,16.434 280.908,28.464 282.439,18.426 283.971,20.21 285.5,17.328    287.03,38.383 288.56,36.559 290.089,24.504 291.618,23.009 293.148,18.01 294.68,48.535 296.213,45.966 297.744,23.267    299.275,16.422 300.806,36.476 302.336,30.993 303.866,47.753 305.397,27.151 306.929,37.83 308.462,27.522 309.993,29.159    311.523,27.174 313.055,16.64 314.586,45.379 316.119,23.504 317.651,20.813 319.178,31.291 320.706,33.417 322.236,41.288    323.771,27.306 325.301,22.489 326.83,22.212 328.358,43.238 329.888,50.8 331.417,45.237 332.949,21.048 334.483,34.431    336.015,51.525 337.545,28.53 339.076,37.953 340.61,50.523 342.144,36.875 343.676,46.55 345.209,51.524 346.744,49.825    348.277,51.176 349.813,25.072 351.347,23.313 352.882,25.002 354.413,22.86 355.944,26.89 357.48,19.498 359.015,28.131    360.551,47.83 362.089,39.936 363.624,50.605 365.163,22.856 366.704,27.727 368.246,11.918 369.964,18.032 371.697,17.46    372.437,41.971 375.273,15.364 376.966,16.367 377.399,32.64 380.863,12.291 379.012,46.097 383.642,19.313 382.956,37.095    384.41,37.357 388.673,20.458 387.127,38.918 387.307,45.714 389.98,39.538 393.203,31.709 395.669,28.11 395.789,34.332    401.512,18.775 398.635,35.632 396.209,49.325 406.057,22.063 404.868,31.369 409.716,22.156 408.138,31.838 400.951,55.881    407.494,42.529 411.47,36.635 419.073,22.55 419.02,27.205 416.349,37.349 413.005,48.27 425.101,26.606 419.036,42.688    416.083,51.742 419.556,48.266 431.285,30.16 431.927,32.633 417.15,61.099 423.871,52.588 437.664,33.384 423.365,58.758    438.399,38.693 426.054,59.738 424.802,63.927 441.887,42.722 436.15,53.234 435.005,57.263 426.829,69.984 443.215,51.91    434.248,65.149 432.107,69.798 438.659,64.415 430.871,75.133 445.167,61.694 459.142,49.327 441.606,69.696 455.179,58.295    454.863,60.909 445.709,71.717 461.044,59.707 448.08,73.477 455.153,69.308 447.165,78.045 450.565,77.084 460.326,71.196    461.619,72.223 455.202,79.041 451.76,83.384 469.904,72.263 475.158,70.712 470.462,75.979 458.848,85.507 449.976,92.813    457.593,89.724 478.665,78.924 479.014,80.738 472.76,86.197 471.468,88.745 455.58,98.799 463.298,96.431 475.288,92.226    457.988,102.115 478.481,94.338 472.725,98.649 472.059,100.615 469.518,103.293 490.853,96.633 458.595,110.518 461.929,110.733    478.658,106.475 458.308,114.764 461.777,115.037 476.117,112.201 464.258,117.109 493.274,110.822 490.898,113.253    465.141,121.102 486.063,117.853 458.899,125.153 459.809,126.269 486.795,122.747 465.22,127.961 487.432,125.974    485.767,127.862 492.281,128.704 466.768,133.197 488.822,132.455 482.058,134.664 487.49,135.856 477.052,138.054    483.533,139.285 461.946,141.437 475.54,142.542 473.899,144.011 471.761,145.537 491.454,147.063 497.471,148.589    482.504,150.115 480.247,151.642 489.843,153.168 479.54,154.694 474.559,156.221 466.196,157.748 471.943,159.275    493.247,160.802 472.255,162.33 495.235,163.858 484.345,165.386 495.008,166.915 479.009,168.442 469.135,169.97 465.858,171.497    471.05,173.024 477.576,174.551 499.48,176.078 483.656,177.604 493.914,179.131 477.018,180.658 483.584,182.185 496.367,183.711    496.857,185.239 489.735,186.766 498.933,188.293 495.361,189.82 472.389,191.348 499.837,192.876 492.384,194.404    495.509,195.932 461.203,197.458 464.073,198.984 480.388,200.51 466.62,202.035 477.754,203.559 486.618,205.083 496.479,206.607    476.855,208.13 498.711,209.653 488.903,211.177 462.267,212.7 499.328,214.223 500.563,215.746 475.809,217.269 498.211,218.792    473.162,220.316 472.616,221.84 479.413,223.364 490.398,224.889 470.26,226.415 471.622,227.941 481.571,229.468 469.591,230.996    479.021,232.525 484.31,234.055 476.582,235.583 498.799,237.112 496.246,238.639 484.037,240.166 495.178,241.692    465.588,243.218 478.524,244.744 487.86,246.269 471.083,247.794 475.453,249.32 484.305,250.845 480.224,252.371 491.422,253.897    482.404,255.424 477.919,256.952 489.55,258.48 472.182,260.009 493.103,261.539 486.819,263.069 483.96,264.599 480.023,266.127    460.754,267.654 463.258,269.182 492.402,270.709 461.652,272.235 485.014,273.763 461.682,275.29 497.402,276.818    482.038,278.347 474.158,279.876 483.064,281.407 465.715,282.938 472.684,284.467 485.772,285.996 477.456,287.524    463.121,289.053 471.256,290.58 462.208,292.109 495.979,293.639 499.597,295.169 473.773,296.7 497.056,298.23 483.528,299.76    491.14,301.289 480.619,302.818 468.863,304.348 463.423,305.878 464.483,307.408 497.649,308.939 498.415,310.47 485.267,312    470.951,313.53 473.614,315.061 465.72,316.592 487.253,318.123 495.69,319.648 495.168,321.176 483.065,322.705 484.179,324.237    468.563,325.767 460.691,327.295 480.3,328.822 472.413,330.35 462.921,331.878 474.22,333.409 478.654,334.941 463.065,336.472    468.52,338.002 500.665,339.531 469.322,341.064 474.601,342.597 464.819,344.128 483.641,345.66 473.052,347.193 496.177,348.726    460.938,350.26 467.111,351.793 497.004,353.327 492.911,354.857 468.485,356.388 482.112,357.923 485.129,359.455 464.367,360.99    473.539,362.526 499.798,364.062 498.315,365.599 478.213,354.202  " style="fill:#A7AAAD;"/><g><path d="M216.041,396.746c17.511-0.714,24.106-11.501,45.249-11.501c21.161,0,27.09,11.501,45.588,11.153    c18.8-0.366,30.74-17.389,42.239-34.502c13.32-19.802,18.809-38.963,19.129-39.933c-0.411-0.2-36.667-14.334-37.052-56.809    c-0.339-35.575,28.535-52.634,29.825-53.494c-16.229-24.117-41.508-27.444-50.51-27.81c-21.499-2.23-41.937,12.872-52.852,12.872    c-10.896,0-27.738-12.561-45.569-12.232c-23.439,0.366-45.048,13.878-57.124,35.215c-24.344,42.967-6.221,106.646,17.501,141.513    C184.067,378.278,197.89,397.44,216.041,396.746z" style="fill:#FFFFFF;"/><path d="M270.118,137.191c-8.92,10.531-16.742,27.315-14.656,43.46    c15.516,1.225,31.316-8.027,40.967-19.875c9.615-11.885,16.147-28.414,14.364-44.851    C296.915,116.494,280.091,125.325,270.118,137.191z" style="fill:#FFFFFF;"/></g></g><g id="Layer_1"/></svg>