<?xml version="1.0" ?><!DOCTYPE svg  PUBLIC '-//W3C//DTD SVG 1.1//EN'  'http://www.w3.org/Graphics/SVG/1.1/DTD/svg11.dtd'><svg height="512px" style="enable-background:new 0 0 512 512;" version="1.1" viewBox="0 0 512 512" width="512px" xml:space="preserve" xmlns="http://www.w3.org/2000/svg" xmlns:xlink="http://www.w3.org/1999/xlink"><g id="social__x2C__media__x2C__social_media__x2C___google_drive__x2C_"><polygon points="486.862,368.662 471.327,370.063 491.445,372.021 478.047,373.166 478.901,374.715    496.045,377.381 473.909,377.346 473.795,378.79 470.346,379.874 470.719,381.326 476.728,383.575 497.902,388.273    475.445,386.397 467.07,386.415 483.231,390.919 482.719,392.451 471.895,391.693 472.29,393.271 489.335,399.05 466.382,394.725    489.794,402.726 475.061,400.174 464.585,398.521 464.67,399.995 483.123,407.739 461.87,401.928 465.536,404.739 462.598,405.129    477.63,412.668 461.079,407.471 474.188,414.682 471.555,415.224 457.815,410.492 484.082,424.734 480.33,424.817 473.324,423.114    476.664,426.747 468.402,424.082 456.116,418.831 468.915,428.02 476.936,434.765 465.476,429.624 455.709,425.158    455.643,426.828 465.408,435.28 447.726,424.725 451.727,429.286 467.655,442.996 461.2,440.159 449.063,432.569 450.231,435.347    457.645,443.443 438.499,429.052 464.01,453.329 457.178,449.479 439.725,435.403 448.904,446.074 456.181,455.398    457.863,459.519 435.665,438.885 445.958,451.865 436.056,443.278 432.874,441.76 432.672,443.557 432.396,445.346    427.978,442.086 433.534,451.179 435.683,456.333 446.607,473.45 423.038,444.064 429.239,455.068 435.519,466.768    421.978,449.376 440.026,479.726 422.584,455.321 416.922,448.688 433.327,479.051 415.66,451.663 418.305,459.129    424.284,473.267 427.333,482.648 414.523,461.037 423.532,482.863 409.782,457.563 410.316,462.006 411.546,468.33    416.727,484.578 409.131,470.281 411.485,480.513 404.797,467.19 412.485,493.172 398.85,458.604 400.51,467.936 405.142,487.699    395.863,462.213 401.172,486.16 402.052,496.013 394.743,474.213 396.328,487.417 391.007,471.06 389.857,472.584 389.835,480.136    388.078,479.113 384.282,465.489 382.971,465.783 385.765,496.241 383.232,489.915 378.436,461.234 377.145,461.145    376.028,463.168 374.707,462.644 374.214,477.597 372.85,480.832 371.419,484.698 369.544,464.252 368.246,478.604    366.719,468.855 365.191,462.237 363.664,496.379 362.137,466.587 360.609,463.608 359.082,466.325 357.555,492.176    356.027,484.255 354.499,484.442 352.971,470.664 351.442,498.564 349.914,475.812 348.385,498.688 346.854,488.786    345.325,499.742 343.797,499.197 342.268,495.436 340.739,494.492 339.211,477.808 337.683,480.111 336.155,472.129    334.627,487.327 333.1,486.886 331.571,479.25 330.044,480.293 328.516,484.379 326.987,497.015 325.459,463.979 323.931,496.646    322.402,479.661 320.874,464.063 319.345,475.741 317.815,465.863 316.287,472.317 314.759,461.89 313.231,464.375    311.705,481.225 310.179,484.91 308.653,493.045 307.128,480.674 305.604,489.405 304.079,473.036 302.555,494.216 301.03,498.377    299.506,485.656 297.982,487.516 296.458,472.699 294.934,476.871 293.409,465.625 291.884,470.411 290.359,490.136    288.833,495.845 287.308,500.07 285.78,486.139 284.253,469.765 282.725,493.141 281.196,478.709 279.666,488.873 278.135,463.435    276.605,477.069 275.076,489.465 273.547,467.573 272.02,474.642 270.492,464.424 268.965,499.348 267.438,469.804    265.911,473.821 264.385,495.439 262.858,463.233 261.332,465.649 259.805,462.165 258.277,496.961 256.75,486.775    255.221,472.955 253.692,500.206 252.162,465.079 250.63,489.706 249.099,465.139 247.569,477.396 246.04,498.439 244.511,475.795    242.982,482.847 241.454,498.986 239.926,473.528 238.398,495.672 236.869,470.663 235.34,466.389 233.811,493.154 232.28,488.815    230.748,500.177 229.216,487.327 227.686,499.38 226.156,490.912 224.626,500.598 223.097,491.985 221.567,462.16 220.038,472.874    218.507,478.223 216.976,491.439 215.444,494.942 213.912,497.732 212.381,465.976 210.851,494.588 209.321,468.438    207.791,461.68 206.259,464.258 204.727,479.863 203.195,473.896 201.663,465.497 200.132,494.405 198.602,477.946 197.07,467.035    195.537,482.632 194.005,465.944 192.479,481.752 190.95,483.955 189.419,490.155 187.886,498.961 186.355,479.934    184.826,480.237 183.297,488.863 181.769,482.752 180.239,490.146 178.707,464.511 177.173,498.772 175.642,472.101    174.111,488.331 172.58,497.713 171.046,476.258 169.513,462.351 167.98,470.262 166.447,469.301 164.912,479.066 163.379,464.569    161.844,461.608 160.31,461.677 158.774,465.495 157.243,462.033 155.711,472.769 154.175,494.058 152.641,493.937    151.105,489.303 149.568,494.709 148.032,497.046 146.493,469.077 144.952,495.108 143.41,492.074 142.033,469.154    140.341,480.948 139.233,470.249 136.793,489.642 136.716,466.363 134.018,482.975 134.444,461.89 132.381,469.002 127.65,496.364    128.63,476.082 127.217,475.5 123.255,490.528 121.79,489.188 124.955,463.811 119.07,485.735 118.804,479.385 114.06,492.791    119.232,464.872 114.461,477.616 110.442,486.281 113.431,470.204 105.735,490.182 114.325,458.043 109.213,469.133    104.067,479.293 110.849,456.373 101.408,477.282 100.218,475.972 102.692,465.968 97.292,474.771 102.973,458.331 87.833,487.537    93.798,471.109 97.135,460.989 89.685,472.282 85.265,477.164 91.573,462.3 96.557,450.634 83.865,469.604 75.307,480.58    87.463,457.851 85.052,458.93 75.973,469.909 87.076,450.792 71.342,470.7 87.873,445.086 74.854,460.313 78.639,452.84    71.493,459.521 66.242,463.473 60.683,467.524 66.925,457.553 72.286,449.073 57.311,463.367 64.914,452.672 67.725,447.476    64.072,449.052 75.747,435.367 64.318,444.536 47.705,458.034 49.791,453.693 57.104,444.931 44.186,453.98 64.697,434.461    50.517,444.206 61.644,433.303 50.515,440.084 40.124,445.869 67.722,423.593 48.369,435.724 66.778,421.15 41.964,436.182    65.25,419.114 55.437,423.781 39.728,431.697 49.591,423.942 40.068,427.687 48.156,421.338 49.164,419.109 50.791,416.618    30.889,425.022 59.949,409.015 28.398,422.395 35.435,417.311 35.299,415.606 42.514,410.839 36.484,411.66 48.305,405.395    54.277,401.705 40.323,405.287 50.704,400.179 28.265,406.065 48.295,398.132 27.709,402.784 24.809,401.884 27.44,399.444    32.758,396.423 15.45,398.903 20.248,396.003 19.118,394.47 41.911,388.319 41.362,386.983 34.689,386.647 44.582,383.636    33.936,383.713 24.146,383.389 18.694,382.33 35.298,379.037 45.326,376.737 48.835,375.15 36.964,374.49 15.414,373.897    14.678,372.18 13.601,370.432 13.002,368.662 41.594,367.136 14.558,365.61 35.845,364.084 28.643,362.559 34.783,361.032    25.554,359.506 20.922,357.979 23.144,356.453 12.141,354.927 39.351,353.399 43.541,351.872 27.844,350.345 41.474,348.816    19.599,347.289 15.999,345.761 15.521,344.232 21.993,342.705 29.653,341.178 17.463,339.651 23.598,338.124 15.439,336.598    15.869,335.071 37.831,333.545 29.764,332.018 31.162,330.491 35.229,328.965 29.985,327.438 38.76,325.91 28.949,324.383    15.997,322.856 24.144,321.329 19.095,319.801 43.344,318.273 40.173,316.746 38.066,315.22 28.438,313.693 33.186,312.168    36.499,310.644 16.87,309.119 46.417,307.595 40.143,306.071 32.754,304.548 16.216,303.025 13.603,301.502 19.977,299.979    16.108,298.456 22.596,296.934 35.412,295.41 50.287,293.887 30.259,292.363 24.474,290.84 49.672,289.314 38.503,287.79    38.125,286.265 48.046,284.738 36.627,283.212 33.846,281.684 18.836,280.155 11.36,278.625 30.1,277.097 27.029,275.568    27.761,274.041 30.54,272.515 48.58,270.988 21.451,269.463 48.344,267.938 31.865,266.412 44.983,264.887 19.609,263.361    44.479,261.836 23.47,260.311 33.84,258.784 28.514,257.258 42.187,255.73 40.4,254.202 14.644,252.673 47.818,251.143    49.336,249.613 36.768,248.084 50.133,246.556 24.445,245.028 42.163,243.501 18.779,241.975 38.231,240.448 17.454,238.92    27.334,237.393 12.366,235.865 16.424,234.337 36.875,232.808 48.311,231.277 39.179,229.747 17.304,228.217 40.282,226.688    24.757,225.16 14.68,223.632 34.024,222.104 30.867,220.576 13.746,219.046 22.113,217.517 34.441,215.985 20.725,214.455    21.515,212.925 36.066,211.396 22.67,209.867 43.143,208.338 34.513,206.808 29.399,205.277 46.819,203.746 17.602,202.216    38.494,200.687 17.291,199.157 31.631,197.626 11.294,196.095 14.419,194.564 12.126,193.039 14.814,191.512 20.839,189.982    39.893,188.45 43.009,186.92 25.79,185.393 18.011,183.866 44.893,182.338 13.625,180.81 25.598,179.279 23.189,177.746    30.567,176.216 32.22,174.687 26.748,173.157 30.293,171.624 19.808,170.092 27.435,168.561 11.723,167.029 26.952,165.495    28.38,163.963 43.748,162.43 48.915,160.896 13.665,159.362 45.347,157.832 30.276,156.302 24.725,154.767 25.69,153.234    31.541,151.7 36.698,150.163 30.598,148.629 21.41,147.091 44.832,145.551 30.015,144.011 23.722,142.378 40.989,141.207    21.045,139.003 46.083,138.678 40.339,136.952 19.182,133.817 39.044,133.991 49.192,133.662 19.881,128.763 15.174,126.408    38.707,128.153 14.298,122.677 38.48,125.171 44.01,124.751 21.293,118.643 42.638,121.624 52.967,122.615 35.774,116.998    18.886,110.947 33.563,113.23 32.046,111.159 19.274,105.538 25.119,105.573 30.185,105.499 47.562,109.95 20.356,98.362    51.765,108.598 48.624,105.889 26.292,95.015 56.903,106.446 30.843,93.262 42.178,96.714 57.466,102.443 45.426,94.932    55.472,98.468 53.005,95.613 47.224,90.797 40.085,84.977 61.282,95.62 48.124,86.073 38.944,78.499 35.277,74.113 62.913,90.457    57.181,84.913 53.258,80.385 53.873,78.968 53.685,76.939 50.784,72.77 64.792,81.841 59.456,75.724 47.572,63.829 72.197,82.807    59.517,69.856 51.881,60.836 74.239,79.438 72.173,75.656 76.839,78.365 71.471,71.102 61.355,58.527 53.077,47.282 72.178,65.633    69.966,60.946 59.749,46.747 70.761,57.176 84.06,71.072 78.826,62.385 76.035,56.427 82.273,62.251 70.203,43.268 86.074,62.795    85.478,59.525 77.713,45.344 82.146,49.218 83.663,48.735 83.444,45.419 84.82,44.651 83.703,39.519 89.427,46.467 88.681,41.851    98.747,57.838 88.54,34.5 96.95,48.037 102.572,56.616 98.655,44.731 91.634,24.828 100.911,42.417 95.984,26.122 99.293,29.887    100.536,28.415 101.956,27.374 111.671,50.739 111.373,45.472 107.035,26.646 106.634,19.319 108.587,19.698 109.742,17.19    120.263,51.901 115.217,24.785 120.502,40.956 117.177,17.726 125.208,50.185 123.406,32.601 122.208,15.746 125.342,24.67    128.021,32.119 129.776,33.771 132.107,41.176 134.537,51.804 132.758,14.158 134.55,14.345 138.048,46.279 138.08,13.945    140.406,34.311 142.029,43.308 143.41,36.483 144.938,29.098 146.465,45.069 147.992,39.428 149.519,33.007 151.046,15.69    152.574,22.595 154.102,20.14 155.629,28.718 157.157,15.665 158.686,11.955 160.214,17.993 161.743,31.008 163.272,18.863    164.801,45.086 166.331,26.5 167.86,39.969 169.388,41.811 170.917,51.37 172.445,40.226 173.973,30.998 175.501,34.948    177.029,19.437 178.557,32.612 180.084,30.464 181.612,11.986 183.14,48.874 184.668,15.292 186.197,33.162 187.726,15.119    189.253,30.608 190.782,22.63 192.312,50.313 193.841,29.838 195.369,34.716 196.897,45.263 198.424,36.864 199.951,23.111    201.477,24.408 203.002,36.351 204.528,26.842 206.053,18.674 207.577,14.92 209.102,14.335 210.626,25.486 212.15,23.176    213.674,16.098 215.198,25.923 216.723,26.946 218.247,36.935 219.772,37.382 221.297,33.048 222.823,26.27 224.349,43.058    225.875,13.98 227.403,47.58 228.931,34.43 230.46,48.663 231.99,12.958 233.521,17.502 235.051,45.166 236.58,31.962    238.109,17.992 239.637,28.344 241.164,42.35 242.691,28.965 244.218,51.563 245.745,43.577 247.271,36.673 248.797,13.521    250.324,13.3 251.851,27.758 253.378,20.357 254.906,44.493 256.435,33.266 257.965,36.153 259.495,28.684 261.026,13.767    262.558,38.896 264.087,34.594 265.616,37.049 267.146,28.899 268.674,14.376 270.202,33.325 271.73,42.33 273.259,44.096    274.787,51.185 276.316,18.578 277.846,17.298 279.377,13.316 280.908,28.549 282.439,25.631 283.971,46.822 285.5,19.238    287.03,22.585 288.56,37.108 290.089,14.615 291.618,11.82 293.148,42.864 294.68,50.258 296.213,29.296 297.744,50.234    299.275,35.122 300.806,36.969 302.336,38.475 303.866,41.898 305.397,28.932 306.929,20.269 308.462,19.655 309.993,32.385    311.523,49.014 313.055,31.056 314.586,36.67 316.119,39.92 317.651,28.984 319.178,48.82 320.706,30.419 322.236,48.247    323.771,26.274 325.301,50.092 326.83,32.654 328.358,31.605 329.888,16.965 331.417,28.379 332.949,31.56 334.483,25.572    336.015,49.302 337.545,29.342 339.076,17.88 340.61,37.497 342.144,34.624 343.676,24.944 345.209,40.35 346.744,50.306    348.277,34.474 349.813,30.342 351.347,39.153 352.882,33.42 354.413,42.616 355.944,47.261 357.48,46.206 359.015,14.528    360.551,40.743 362.089,37.605 363.624,40.961 365.163,45.962 366.704,46.587 368.246,31.045 369.529,50.538 371.108,39.482    373.599,13.332 373.387,50.489 376.512,23.108 378.153,23.332 380.235,18.841 379.802,38.819 383.261,22.468 383.33,34.355    383.574,42.939 386.99,30.739 388.107,33.417 388.264,40.734 387.086,53.517 392.766,33.688 391.257,46.858 397.344,28.115    401.439,19.001 402.267,22.626 400.788,33.766 400.449,40.182 402.352,39.126 407.739,27.953 408.176,31.732 408.121,36.564    410.426,34.947 406.995,47.751 410.806,42.318 418.998,27.256 414.594,41.241 414.319,45.463 417.349,42.621 425.913,28.979    423.157,38.107 412.028,62.289 428.868,34.536 429.589,36.707 425.533,46.899 416.467,64.768 430.057,45.487 425.469,55.505    424.542,59.491 435.788,45.557 425.82,62.495 439.759,45.638 432.188,58.533 434.362,58.099 430.363,65.533 435.492,61.401    436.368,62.623 453.226,45.24 447.931,53.921 453.245,50.506 438.91,68.396 446.601,62.422 454.686,56.423 442.253,71.057    443.396,71.929 452.43,65.428 439.454,79.359 449.427,72.29 457.737,67.083 463.037,64.742 440.841,85.014 459.698,71.694    472.653,63.715 444.583,86.994 468.038,71.527 444.259,90.417 475.855,70.233 448.582,90.59 447.468,92.88 446.799,94.82    463.56,86.081 451.627,94.901 482.379,78.805 469.295,88.12 482.947,82.575 469.851,91.387 468.932,93.597 455.169,101.975    476.206,93.588 467.494,99.308 456.97,105.506 478.844,97.771 483.438,97.678 477.014,101.99 457.817,110.821 482.05,103.577    457.634,113.618 470.146,110.914 463.351,114.547 487.152,108.951 475.799,113.884 459.69,119.722 494.325,112.381    488.123,115.672 483.321,118.465 468.038,123.266 473.521,123.629 494.9,121.3 469.466,127.261 480.233,127.058 475.207,129.305    496.183,128.227 499.687,129.614 499.107,131.479 489.306,134.073 460.627,137.679 469.548,138.455 484.47,139.248    484.865,140.824 485.652,142.403 476.92,144.011 488.487,145.537 499.439,147.063 499.816,148.589 464.704,150.115    485.567,151.641 481.863,153.167 462.772,154.693 466.601,156.22 490.516,157.747 478.362,159.273 471.387,160.8 461.525,162.328    463.551,163.856 495.118,165.384 477.659,166.913 496.965,168.44 477.581,169.968 467.655,171.495 464.38,173.021 482.255,174.548    483.884,176.075 468.389,177.602 464.926,179.128 473.208,180.655 472.563,182.182 463.617,183.708 473.434,185.235    489.299,186.762 484.021,188.29 471.222,189.816 471.625,191.343 484.68,192.872 467.694,194.4 470.323,195.927 498.521,197.454    474.288,198.979 484.301,200.505 474.14,202.03 469.283,203.554 476.272,205.078 487.858,206.602 477.289,208.125 469.478,209.648    471.988,211.171 463.715,212.694 488.808,214.217 470.938,215.74 484.843,217.263 478.853,218.786 482.113,220.31 475.55,221.833    499.197,223.358 460.693,224.883 473.179,226.408 473.164,227.935 480.609,229.461 460.685,230.989 478.148,232.518    499.905,234.047 498.654,235.576 498.89,237.104 481.664,238.631 463.111,240.158 493.562,241.685 465.846,243.21 487.146,244.735    499.18,246.261 487.947,247.786 497.952,249.312 500.274,250.837 490.531,252.363 464.862,253.889 462.594,255.416    476.919,256.943 467.994,258.471 473.423,260 489.315,261.53 486.785,263.06 484.805,264.589 463.264,266.117 463.232,267.645    483.997,269.172 488.505,270.698 489.085,272.226 496.979,273.752 495.895,275.279 496.985,276.808 466.504,278.336    497.398,279.865 461.278,281.396 484.915,282.927 480.508,284.456 483.28,285.984 489.368,287.513 486.814,289.041    467.716,290.569 490.335,292.098 490.695,293.627 483.017,295.156 473.735,296.688 479.692,298.218 471.211,299.748    494.768,301.276 466.835,302.806 486.179,304.335 480.857,305.864 494.723,307.396 469.195,308.927 462.588,310.457    467.813,311.986 479.076,313.517 467.003,315.047 496.24,316.578 469.721,318.109 467.592,319.634 500.602,321.161 494.033,322.69    473.104,324.223 497.764,325.753 475.98,327.28 492.281,328.808 492.237,330.335 499.368,331.863 498.854,333.395 487.558,334.927    478.72,336.457 475.67,337.986 472.545,339.517 464.801,341.049 493.011,342.581 477.503,344.112 480.961,345.644 478.948,347.178    469.15,348.71 476.494,350.243 497.901,351.776 466.317,353.311 483.955,354.841 463.691,356.371 463.928,357.906 482.021,359.438    461.898,360.974 479.814,362.51 472.085,364.044 479.641,365.582 474.562,379.402  " style="fill:#0078E6;"/><g><polygon points="212.592,312.512 173.747,374.622 171.441,378.042 176.071,378.042 353.627,378.042     355.201,378.042 355.97,376.907 396.352,312.512   " style="fill:#FFFFFF;"/><polygon points="305.268,135.984 304.48,134.649 302.926,134.668 226.242,134.96 221.612,134.997     223.918,138.946 312.715,290.534 313.502,291.869 315.057,291.869 391.722,291.558 396.352,291.539 394.028,287.59   " style="fill:#FFFFFF;"/><polygon points="248.931,213.471 248.125,212.137 209.518,146.827 207.176,142.896 204.871,146.845     116.092,298.433 115.306,299.768 116.111,301.084 154.718,366.412 157.042,370.361 159.365,366.412 248.144,214.806   " style="fill:#FFFFFF;"/></g></g><g id="Layer_1"/></svg>