<?xml version="1.0" ?><!DOCTYPE svg  PUBLIC '-//W3C//DTD SVG 1.1//EN'  'http://www.w3.org/Graphics/SVG/1.1/DTD/svg11.dtd'><svg height="512px" style="enable-background:new 0 0 512 512;" version="1.1" viewBox="0 0 512 512" width="512px" xml:space="preserve" xmlns="http://www.w3.org/2000/svg" xmlns:xlink="http://www.w3.org/1999/xlink"><g id="social__x2C__media__x2C__social_media__x2C___paypal__x2C_"><polygon points="486.718,368.662 478.981,370.173 500.407,372.261 499.593,374.03 492.682,375.453    470.448,375.668 487.741,378.471 491.815,380.501 468.439,379.668 481.938,382.707 484.591,384.649 486.308,386.529    459.688,383.81 464.899,386.028 491.918,392.589 464.556,388.684 475.74,392.542 460.043,390.376 474.591,395.353 466.585,394.778    471.838,397.689 486.694,403.608 481.107,403.639 490.275,408.316 470.264,403.357 491.406,412.451 455.171,400.887    458.218,403.437 455.513,403.758 485.051,417.534 470.771,413.195 459.692,409.87 475.758,418.905 481.872,423.663    451.332,410.272 484.918,429.136 484.731,431.082 461.496,420.245 460.997,421.634 452.284,418.174 454.529,421.121    456.562,424.017 468.852,433.681 459.426,429.354 466.55,436.065 461.763,434.674 466.291,439.913 454.519,433.147    463.733,442.112 456.643,438.589 470.441,451.823 459.475,444.978 441.661,431.775 443.15,434.864 463.796,455.509    438.167,433.947 447.715,444.933 434.673,434.179 443.424,444.863 443.12,446.658 452.219,458.572 450.72,459.419 437.305,446.771    447.173,460.437 429.049,441.346 440.9,457.956 429.917,446.604 445.106,468.574 445.619,472.129 443.697,472.505 442.137,473.316    425.345,451.944 434.934,468.822 419.093,447.352 431.384,469.35 434.445,477.516 430.27,473.86 433.136,482.213 427.917,476.479    414.366,454.773 427.461,482.895 419.697,471.352 419.465,474.471 411.694,461.65 422.099,488.111 415.135,476.6 418.995,490.01    417.21,490.366 403.191,459.074 411.26,484.627 408.609,482.23 398.274,456.91 399.038,463.412 404.479,485.557 395.875,462.252    399.796,481.237 399.592,486.715 392.197,464.069 391.613,467.38 396.797,497.27 393.297,489.23 387.308,467.002 388.896,483.694    389.197,495.355 387.81,497.92 383.122,476.787 383.386,491.158 379.94,475.115 378.791,478.499 378.859,497.94 375.702,477.499    373.994,473.484 372.081,461.645 371.048,470.821 369.676,473.476 368.246,483.31 366.719,479.232 365.191,468.11 363.664,485.102    362.137,492.98 360.609,471.632 359.082,497.231 357.555,498.643 356.027,500.012 354.499,474.433 352.971,487.639    351.442,475.517 349.914,488.829 348.385,490.92 346.854,466.689 345.325,473.667 343.797,464.565 342.268,476.165    340.739,464.138 339.211,490.984 337.683,493.652 336.155,478.921 334.627,466.676 333.1,487.247 331.571,482.605 330.044,487.668    328.516,483.788 326.987,500.828 325.459,486.286 323.931,467.032 322.402,486.203 320.874,476.411 319.345,476.838    317.815,490.873 316.287,478.157 314.759,479.979 313.231,484.599 311.705,498.233 310.179,464.751 308.653,477.314    307.128,482.202 305.604,498.443 304.079,495.62 302.555,472.264 301.03,483.142 299.506,471.62 297.982,466.187 296.458,461.021    294.934,466.025 293.409,470.796 291.884,497.755 290.359,478.677 288.833,475.805 287.308,491.944 285.78,497.659    284.253,474.281 282.725,473.179 281.196,498.143 279.666,480.759 278.135,490.671 276.605,483.479 275.076,484.131    273.547,493.509 272.02,485.315 270.492,496.232 268.965,487.512 267.438,481.848 265.911,468.429 264.385,466.703    262.858,472.825 261.332,464.177 259.805,494.597 258.277,470.614 256.75,474.788 255.221,470.663 253.692,464.159    252.162,483.333 250.63,486.907 249.099,490.111 247.569,470.628 246.04,474.764 244.511,481.738 242.982,485.682 241.454,490.358    239.926,491.184 238.398,489.037 236.869,480.668 235.34,470.729 233.811,495.29 232.28,478.046 230.748,495.618 229.216,493.107    227.686,475.694 226.156,490.178 224.626,498.021 223.097,466.809 221.567,477.128 220.038,488.337 218.507,465.83    216.976,470.346 215.444,462.585 213.912,489.13 212.381,486.066 210.851,476.16 209.321,498.693 207.791,484.219 206.259,469.732    204.727,495.157 203.195,495.509 201.663,477.064 200.132,484.334 198.602,477.226 197.07,472.037 195.537,461.306    194.005,485.195 192.479,484.043 190.95,498.706 189.419,467.047 187.886,486.888 186.355,470.39 184.826,488.012 183.297,461.255    181.769,475.952 180.239,470.216 178.707,464.667 177.173,468.578 175.642,466.231 174.111,483.755 172.58,486.409 171.046,498.79    169.513,478.007 167.98,461.869 166.447,486.788 164.912,487.12 163.379,482.224 161.844,483.93 160.31,491.137 158.774,473.739    157.243,491.043 155.711,485.462 154.175,477.02 152.641,468.623 151.105,475.972 149.568,471.798 148.032,490.36 146.493,468.065    144.952,494.822 143.41,494.004 141.774,488.521 140.659,469.033 139.297,468.663 137.147,483.144 135.695,481.406    135.271,467.568 133.662,470.143 129.067,499.559 129.339,482.517 127.028,487.888 125.86,484.585 122.752,493.588    123.339,480.445 124.011,468.719 123.269,465.48 115.929,492.407 121.173,462.529 113.131,489.304 113.351,481.814    114.396,472.121 116.426,460.026 105.514,490.896 110.802,468.922 110.25,466.08 100.575,489.123 99.667,486.557 98.416,485.041    108.691,454.896 95.203,483.85 104.268,458.732 91.727,483.263 100.157,461.183 93.957,470.783 100.472,454.335 82.961,485.229    83.341,480.754 90.521,464.197 95.907,451.77 92.087,455.682 76.142,479.21 86.334,459.65 89.823,451.551 78.354,466.335    82.279,457.781 82.672,454.67 88.766,443.859 73.83,461.682 63.551,472.42 77.671,451.726 60.936,469.995 64.99,462.372    79.232,443.257 66.871,455.199 73.671,445.371 54.081,464.277 62.067,453.368 55.542,457.697 68.845,442.177 58.555,450.078    69.245,437.873 48.799,454.595 53.462,448.158 55.334,444.376 57.147,440.787 47.663,446.53 64.823,430.782 42.928,445.93    61.876,429.574 45.755,439.595 49.744,434.751 47.858,434.147 38.905,438.224 34.608,438.962 44.148,430.877 50.979,424.84    30.502,435.233 44.785,424.983 49.368,420.666 43.909,421.934 45.13,419.562 58.564,411.125 56.926,410.481 30.571,421.378    35.021,417.497 50.028,409.199 52.968,406.456 49.971,406.223 41.313,408.104 39.063,407.347 28.233,409.586 32.875,406.244    21.279,408.334 31.764,403.251 45.283,397.6 28.043,400.979 47.368,394.162 33.125,396.331 50.623,390.61 23.664,395.247    48.142,388.473 14.193,393.653 50.043,385.434 45.762,384.832 37.455,384.709 36.593,383.352 40.137,381.436 42.892,379.706    20.533,380.438 13.601,379.305 47.822,375.219 41.752,374.232 36.453,373.055 20.706,372.016 37.94,370.106 22.584,368.662    47.716,367.136 39.755,365.61 20.52,364.084 45.335,362.559 39.398,361.032 14.754,359.506 33.701,357.979 29.194,356.453    33.685,354.927 13.948,353.399 14.965,351.872 43.299,350.345 21.337,348.816 24.011,347.289 34.053,345.761 27.03,344.232    34.668,342.705 46.215,341.178 21.921,339.651 39.164,338.124 45.831,336.598 23.183,335.071 29.31,333.545 34.422,332.018    34.105,330.491 24.94,328.965 28.673,327.438 26.203,325.91 25.913,324.383 23.001,322.856 13.212,321.329 34.232,319.801    11.309,318.273 41.278,316.746 46.78,315.22 35.888,313.693 20.729,312.168 12.507,310.644 18.378,309.119 39.94,307.595    25.688,306.071 48.997,304.548 35.038,303.025 21.479,301.502 27.25,299.979 16.402,298.456 46.78,296.934 36.741,295.41    35.956,293.887 39.318,292.363 37.46,290.84 16.625,289.314 26.996,287.79 27.393,286.265 15.206,284.738 37.633,283.212    14.362,281.684 50.765,280.155 16.231,278.625 48.958,277.097 47.748,275.568 13.527,274.041 35.736,272.515 14.522,270.988    35.906,269.463 14.003,267.938 19.688,266.412 48.675,264.887 40.271,263.361 40.552,261.836 31.204,260.311 24.305,258.784    22.547,257.258 31.688,255.73 45.285,254.202 32.145,252.673 50.035,251.143 29.241,249.613 45.67,248.084 49.971,246.556    22.44,245.028 13.304,243.501 37.553,241.975 40.498,240.448 43.927,238.92 27.748,237.393 49.891,235.865 36.686,234.337    24.14,232.808 25.009,231.277 21.086,229.747 33.216,228.217 31.976,226.688 38.949,225.16 41.781,223.632 42.897,222.104    25.827,220.576 34.483,219.046 48.498,217.517 16.733,215.985 44.07,214.455 42.786,212.925 41.894,211.396 26.42,209.867    39.526,208.338 50.766,206.808 43.389,205.277 48.021,203.746 41.672,202.216 13.608,200.687 23.878,199.157 25.538,197.626    30.321,196.095 19.103,194.564 18.325,193.039 33.189,191.512 44.542,189.982 12.52,188.45 19.952,186.92 15.083,185.393    30.575,183.866 30.791,182.338 27.799,180.81 41.078,179.279 32.456,177.746 34.723,176.216 41.377,174.687 37.55,173.157    29.154,171.624 48.021,170.092 16.201,168.561 11.849,167.029 21.921,165.495 11.854,163.963 13.914,162.43 49.168,160.896    35.64,159.362 23.718,157.832 40.786,156.302 20.581,154.767 37.897,153.234 49.341,151.7 48.307,150.163 41.012,148.629    39.548,147.091 16.391,145.551 29.648,144.011 15.875,142.273 20.56,140.661 18.836,138.915 45.88,138.667 35.335,136.615    24.949,134.287 20.528,132.243 35.318,132.15 34.213,130.518 27.869,128.136 26.376,126.299 39.698,126.849 37.105,124.926    39.62,123.907 31.048,120.662 22.473,117.154 47.193,121.251 50.235,120.624 32.958,114.682 28.87,111.916 19.431,107.439    38.543,111.512 22.959,104.871 29.072,105.12 45.995,109.392 44.732,107.418 32.96,101.32 28.538,97.793 22.815,93.557    24.538,92.368 43.277,98.886 27.193,89.695 39.904,93.914 57.424,100.959 26.873,83.6 53.409,95.83 50.899,92.837 36.882,83.142    31.225,77.852 32.67,76.641 47.121,83.643 53.486,85.92 59.75,88.345 49.95,79.939 52.569,79.897 49.299,75.637 43.966,69.655    68.599,86.514 49.897,70.031 61.422,77.327 52.477,67.943 53.325,66.537 67.311,76.76 66.938,74.543 71.467,76.846 60.135,64.088    52.301,54.14 74.863,74.544 70.419,67.984 67.518,62.762 57.542,49.522 62.088,52.035 81.153,71.627 59.229,43.398 84.2,71.245    81.721,66.044 84.834,67.879 78.263,56.886 84.213,62.544 70.791,41.153 73.5,42.059 81.096,50.421 81.073,47.557 91.801,61.709    94.892,64.235 94.975,61.862 83.371,38.938 91.69,50.556 81.014,27.547 90.744,42.39 96.503,50.395 95.745,45.547 90.234,30.232    100.465,48.75 90.765,22.826 105.505,53.408 101.827,40.663 102.295,37.656 105.493,41.807 104.652,34.982 108.282,40.76    103.497,21.173 113.918,48.908 111.629,36.314 111.529,30.247 114.794,36.285 117.419,40.515 113.537,17.641 118.277,30.884    123.792,49.754 121.576,31.263 124.59,39.25 126.171,39.91 128.76,47.45 130.227,48.37 131.354,46.699 129.615,18.201    133.252,38.258 134.855,40.08 136.965,50.162 136.948,25.896 138.243,17.97 140.441,35.604 142.007,41.677 143.41,36.339    144.938,46.578 146.465,41.009 147.992,23.626 149.519,51.01 151.046,13.958 152.574,44.087 154.102,35.234 155.629,49.517    157.157,48.251 158.686,50.261 160.214,40.893 161.743,40.927 163.272,19.842 164.801,46.562 166.331,43.283 167.86,25.34    169.388,14.846 170.917,13.165 172.445,45.65 173.973,14.952 175.501,32.021 177.029,41.104 178.557,26.816 180.084,43.134    181.612,16.817 183.14,34.928 184.668,32.682 186.197,30.337 187.726,46.271 189.253,19.027 190.782,27.952 192.312,35.531    193.841,18.507 195.369,46.374 196.897,11.861 198.424,41.941 199.951,20.61 201.477,48.439 203.002,41.627 204.528,45.83    206.053,48.603 207.577,25.038 209.102,27.376 210.626,37.081 212.15,13.268 213.674,32.832 215.198,22.33 216.723,40.325    218.247,25.611 219.772,51.269 221.297,31.945 222.823,45.372 224.349,15.65 225.875,24.678 227.403,25.812 228.931,35.667    230.46,38.333 231.99,39.31 233.521,16.027 235.051,23.574 236.58,40.312 238.109,14.021 239.637,45.806 241.164,21.188    242.691,41.32 244.218,23.403 245.745,32.063 247.271,15.438 248.797,23.919 250.324,32.074 251.851,25.75 253.378,36.259    254.906,45.351 256.435,38.883 257.965,33.667 259.495,26.539 261.026,25.233 262.558,49.809 264.087,45.503 265.616,42.628    267.146,42.899 268.674,38.26 270.202,49.869 271.73,14.132 273.259,38.061 274.787,31.553 276.316,43.06 277.846,31.765    279.377,28.604 280.908,42.322 282.439,14.311 283.971,31.989 285.5,19.232 287.03,23.583 288.56,31.277 290.089,47.205    291.618,34.73 293.148,46.232 294.68,49.494 296.213,50.242 297.744,51.573 299.275,37.715 300.806,49.588 302.336,41.891    303.866,21.65 305.397,40.612 306.929,45.965 308.462,50.234 309.993,41.862 311.523,49.903 313.055,50.721 314.586,50.522    316.119,23.301 317.651,27.643 319.178,16.557 320.706,34.352 322.236,33.813 323.771,33.828 325.301,42.418 326.83,36.889    328.358,27.659 329.888,32.16 331.417,25.609 332.949,30.881 334.483,16.035 336.015,29.499 337.545,44.16 339.076,16.228    340.61,32.208 342.144,27.737 343.676,13.166 345.209,13.842 346.744,25.002 348.277,46.838 349.813,18.871 351.347,12.558    352.882,34.407 354.413,17.792 355.944,34.218 357.48,17.838 359.015,23.026 360.551,44.275 362.089,19.653 363.624,51.026    365.163,37.159 366.704,31.677 368.246,32.905 369.564,47.904 371.328,31.26 373.229,22.453 374.395,31.66 376.349,25.519    377.641,29.658 378.593,36.253 380.498,32.404 382.927,25.196 382.772,38.446 384.98,33.551 387.188,29.534 386.705,41.28    391.641,23.187 389.527,41.716 396.037,18.866 391.65,45.185 393.743,42.519 400.172,23.798 395.517,46.8 401.424,31.605    406.667,20.052 401.429,41.968 404.307,38.058 407.205,34.465 410.588,29.911 411.967,30.959 415.419,26.817 408.451,47.946    414.284,38.093 418.687,32.174 419.286,34.847 419.976,37.202 418.309,44.14 413.039,57.609 426.071,36.129 428.438,35.311    429.319,37.178 421.704,53.386 423.219,53.668 420.845,60.159 433.413,43.218 419.662,66.814 421.396,66.527 429.636,57.091    440.024,45.272 435.328,54.333 447.525,40.981 444.524,47.646 431.602,66.183 450.958,45.18 439.077,61.696 455.671,45.166    434.445,71.214 437.557,69.847 456.142,52.48 436.254,75.118 451.453,61.973 447.479,68.006 448.633,68.979 458.814,61.748    464.681,58.776 442.266,80.41 465.814,62.414 444.218,82.261 471.059,62.686 470.318,65.515 461.235,74.522 474.895,66.532    466.29,74.828 465.804,77.147 459.404,83.363 460.122,84.679 448.021,94.052 453.353,92.295 473.881,81.75 476.814,81.995    450.646,98.483 464.975,92.233 471.309,90.629 476.004,90.038 461.448,98.932 470.645,96.189 469.577,98.366 478.077,96.32    458.119,106.456 484.327,97.32 474.238,103.064 473.224,105.095 467.564,108.729 480.125,105.977 484.681,106.188 458.454,116.064    459.35,117.139 472.845,114.709 483.355,113.461 490.214,113.412 466.933,120.678 494.119,116.08 480.594,120.672 467.442,124.799    496.736,120.972 490.812,123.751 477.405,127.483 467.859,130.31 468.321,131.627 482.949,131.429 494.815,131.886    470.419,135.609 478.721,136.451 477.768,138.015 490.423,139.009 480.023,140.954 465.854,142.686 468.452,144.011    475.976,145.537 463.814,147.063 463.009,148.589 483.669,150.115 495.257,151.641 465.152,153.167 480.585,154.693    468.275,156.22 495.154,157.747 486.495,159.273 497.109,160.8 476.656,162.328 468.459,163.856 473.481,165.384 467.511,166.913    480.139,168.44 463.947,169.968 470.884,171.495 474.097,173.021 469.346,174.548 479.882,176.075 481.707,177.602    486.648,179.128 472.881,180.655 477.275,182.182 460.75,183.708 497.917,185.235 493.571,186.762 489.181,188.29 493.875,189.816    460.758,191.343 463.555,192.872 462.228,194.4 474.207,195.927 473.159,197.454 499.448,198.979 486.7,200.505 486.574,202.03    477.396,203.554 478.822,205.078 491.35,206.602 491.36,208.125 479.598,209.648 499.287,211.171 499.254,212.694 479.095,214.217    475.936,215.74 481.369,217.263 480.918,218.786 486.971,220.31 491.717,221.833 476.499,223.358 460.908,224.883 488.582,226.408    479.604,227.935 461.306,229.461 474.233,230.989 468.107,232.518 483.242,234.047 499.5,235.576 468.762,237.104 490.197,238.631    492.512,240.158 492.578,241.685 469.889,243.21 476.811,244.735 476.678,246.261 480.613,247.786 463.727,249.312    462.266,250.837 461.684,252.363 474.366,253.889 475.059,255.416 477.734,256.943 497.832,258.471 499.982,260 496.31,261.53    476.441,263.06 464.094,264.589 477.503,266.117 463.775,267.645 490.818,269.172 475.346,270.698 494.474,272.226    497.389,273.752 472.859,275.279 478.693,276.808 495.866,278.336 480.217,279.865 488.933,281.396 485.235,282.927    471.585,284.456 474.007,285.984 480.291,287.513 463.437,289.041 482.797,290.569 486.979,292.098 500.539,293.627    500.411,295.156 488.348,296.688 490.14,298.218 481.302,299.748 497.325,301.276 472.495,302.806 478.364,304.335    477.348,305.864 485.216,307.396 475.235,308.927 472.486,310.457 482.41,311.986 467.427,313.517 466.438,315.047    498.664,316.578 486.97,318.109 474.955,319.634 465.075,321.161 481.245,322.69 469.236,324.223 460.916,325.753 484.774,327.28    485.428,328.808 470.577,330.335 480.427,331.863 466.944,333.395 485.897,334.927 486.667,336.457 462.099,337.986    462.736,339.517 497.762,341.049 485.561,342.581 497.453,344.112 465.082,345.644 485.987,347.178 484.006,348.71    474.444,350.243 472.049,351.776 489.597,353.311 473.177,354.841 461.41,356.371 462.794,357.906 496.9,359.438 485.133,360.974    467.623,362.51 467.328,364.044 467.973,365.582 476.379,375.545  " style="fill:#005D83;"/><g><path d="M188.751,115.927c-6.889,0-12.763,5.028-13.824,11.848l-40.775,259.262    c-0.823,5.101,3.139,9.727,8.289,9.727h48.149c6.888,0,12.744-5.027,13.833-11.866l11.015-69.936    c1.034-6.839,6.925-11.866,13.795-11.866h31.919c66.41,0,104.734-32.217,114.742-96.097c4.502-27.938,0.174-49.878-12.872-65.255    c-14.317-16.895-39.723-25.817-73.463-25.817H188.751z M301.188,210.62c-5.508,36.275-33.146,36.275-59.887,36.275h-15.205    l10.686-67.761c0.622-4.096,4.153-7.112,8.297-7.112h6.962c18.188,0,35.377,0,44.243,10.421    C301.59,188.642,303.21,197.875,301.188,210.62z" style="fill:#FFFFFF;"/></g></g><g id="Layer_1"/></svg>