<?xml version="1.0" ?><!DOCTYPE svg  PUBLIC '-//W3C//DTD SVG 1.1//EN'  'http://www.w3.org/Graphics/SVG/1.1/DTD/svg11.dtd'><svg height="512px" style="enable-background:new 0 0 512 512;" version="1.1" viewBox="0 0 512 512" width="512px" xml:space="preserve" xmlns="http://www.w3.org/2000/svg" xmlns:xlink="http://www.w3.org/1999/xlink"><g id="social__x2C__media__x2C__social_media__x2C___aol__x2C_"><polygon points="469.098,368.68 486.27,370.29 470.494,371.479 479.599,373.246 475.805,374.567    462.463,375.15 489.873,378.662 493.525,380.68 489.981,382.021 484.173,382.999 498.317,386.543 467.78,383.763 496.951,389.966    480.329,388.794 474.496,389.253 484.937,392.93 464.566,390.081 461.318,390.699 489.977,399.225 464.928,394.357    482.468,400.689 462.844,396.584 481.813,403.882 482.23,405.728 490.996,410.44 475.354,406.75 477.796,409.315 467.668,407.102    487.828,416.802 458.281,406.328 485.022,419.428 454.653,407.599 471.61,416.979 467.163,416.551 456.095,412.66 451.723,411.898    461.312,418.517 469.599,424.766 461.639,422.021 473.251,430.597 448.262,417.306 450.49,420.217 468.543,433.508    445.444,420.029 448.714,423.824 475.271,444.269 451.317,429.008 458.703,436.305 449.476,431.14 462.808,443.506    467.271,449.261 456.519,442.524 444.411,434.144 454.262,444.726 455.644,448.1 442.033,437.574 456.143,453.056 441.191,440.633    448.027,449.56 455.182,459.259 452.536,458.936 434.985,442.123 447.636,458.48 428.908,439.201 432.142,445.054 450.372,469.635    443.938,464.352 426.619,444.587 441.143,466.188 443.566,472.353 424.698,448.651 440.579,474.19 431.764,464.095 428.19,461.45    435.966,476.685 422.67,458.188 425.605,465.974 414.665,449.938 423.564,468.661 414.873,455.739 426.478,481.051    416.849,465.702 409.817,454.55 420.796,481.141 417.398,477.752 406.969,457.839 405.486,457.732 405.811,462.04 407.958,471.438    414.012,492.098 404.276,470.047 409.507,490.024 397.97,460.166 396.883,461.037 395.397,460.706 396.121,468.15 392.614,460.404    397.01,483.331 394.263,478.715 396.195,494.624 392.818,486.997 390.504,483.708 391.331,497.455 386.009,476.057    384.641,476.963 386.136,499.11 381.003,471.861 378.817,464.912 377.108,460.946 377.05,475.87 374.712,463.221 374.474,482.785    372.803,480.095 371.488,487.945 369.817,484.87 368.229,493.602 366.701,462.466 365.174,490.745 363.646,498.623    362.119,487.975 360.592,470.377 359.064,485.01 357.537,463.961 356.01,488.671 354.481,464.774 352.953,475.204 351.425,474.072    349.896,467.497 348.366,472.398 346.837,463.246 345.308,475.76 343.778,465.825 342.25,462.237 340.722,498.484 339.193,488.966    337.665,469.396 336.138,497.264 334.609,465.196 333.082,462.313 331.554,488.839 330.026,467.816 328.498,468.925    326.97,480.898 325.441,477.131 323.913,492.884 322.385,462.891 320.856,462.603 319.327,495.274 317.798,495.51 316.27,495.729    314.741,499.175 313.214,477.411 311.688,478.603 310.161,461.807 308.636,498.323 307.11,486.649 305.586,487.385    304.062,495.371 302.537,483.081 301.013,492.849 299.488,464.723 297.964,489.768 296.44,484.676 294.916,483.588    293.392,465.614 291.866,482.998 290.342,465.173 288.815,499.616 287.29,477.045 285.763,470.85 284.235,486.139 282.707,485.975    281.178,469.507 279.648,468.847 278.117,479.554 276.587,470.102 275.058,486.391 273.529,464.294 272.002,477.258    270.474,478.114 268.947,477.532 267.42,479.638 265.894,495.152 264.367,500.564 262.841,483.138 261.314,468.408    259.787,488.421 258.26,478.885 256.732,474.356 255.203,464.99 253.674,494.012 252.144,463.793 250.612,496.75 249.081,469.473    247.551,496.644 246.021,476.897 244.493,462.877 242.964,488.824 241.436,494.566 239.908,466.76 238.38,480.311 236.851,495.647    235.322,461.348 233.792,490.653 232.262,461.247 230.73,485.766 229.198,479.921 227.667,473.279 226.138,500.054    224.608,475.879 223.079,465.144 221.549,473.691 220.02,484.911 218.489,462.558 216.958,471.136 215.425,491.662    213.894,469.891 212.363,463.806 210.833,479.613 209.302,464.758 207.772,473.633 206.241,464.463 204.708,465.507    203.176,487.372 201.645,470.946 200.114,466.669 198.583,476.087 197.051,462.95 195.519,483.53 193.986,466.672 192.46,479.848    190.932,500.684 189.401,496.092 187.868,479.208 186.336,481.428 184.808,467.881 183.279,464.105 181.75,470.706    180.221,498.768 178.688,489.333 177.155,499.468 175.623,482.577 174.093,498.813 172.562,484.832 171.027,500.275    169.494,485.827 167.962,487.956 166.429,496.185 164.894,471.02 163.36,488.248 161.825,493.514 160.291,494.907 158.756,479.401    157.224,475.44 155.693,472.461 154.157,461.877 152.623,496.038 151.087,466.914 149.549,483.679 148.014,470.194    146.475,463.324 144.933,468.508 143.392,479.975 141.837,482.476 140.357,479.632 138.731,482.308 136.432,495.928    136.202,473.68 133.835,485.008 133.14,475.463 132.417,468.521 130.679,471.404 126.006,495.304 128.118,469.437 127.308,465.756    122.727,483.785 119.854,490.267 118.288,489.479 118.652,480.003 119.841,468.138 115.074,481.465 119.101,460.085    111.181,483.589 114.345,467.051 112.745,467.493 102.522,494.385 112.011,460.856 107.132,470.633 102.219,479.64 97.087,488.414    103.172,468.595 93.321,488.313 97.303,474.72 94.509,477.072 100.4,460.639 92.882,472.978 96.817,461.607 88.754,474.066    94.857,459.246 81.565,480.346 88.786,464.21 79.192,477.523 85.394,464.002 80.503,468.916 88.808,453.107 88.711,450.785    83.267,456.333 89.934,444.396 68.092,472.27 73.691,461.865 82.393,447.953 72.011,458.865 75.437,452.164 77.389,447.538    72.636,450.914 78.35,442.211 56.102,464.713 64.118,453.522 70.718,444.35 55.987,457.252 60.514,450.395 73.834,435.4    71.301,435.969 62.218,442.402 49.016,452.094 45.118,453.179 71.878,428.444 48.923,445.514 53.984,439.38 57.145,434.979    62.578,429.05 42.183,442.201 65.64,423.52 65.802,421.827 36.012,440.162 58.096,423.752 47.383,428.851 64.079,416.871    44.205,427.134 39.209,428.186 33.418,429.52 36.501,425.922 30.736,427.046 49.302,415.789 28.712,424.178 45.161,414.553    31.502,419.1 35.614,415.48 48.627,408.285 46.846,407.501 40.644,408.374 55.235,401.355 21.807,411.883 37.67,404.624    31.879,404.903 44.334,399.373 47.257,397.035 20.4,403.131 52.412,392.839 40.212,394.57 31.282,395.183 37.349,392.23    25.578,393.153 37.703,389.143 27.11,389.541 18.728,389.278 30.225,385.811 43.581,382.413 27.582,382.986 29.791,381.143    41.449,378.47 17.231,379.026 19.437,377.15 39.26,374.387 23.163,373.604 20.225,372.046 30.799,370.219 26.947,368.68    14.844,367.153 47.32,365.627 22.076,364.102 20.859,362.575 50.558,361.049 23.28,359.522 13.518,357.996 18.748,356.47    14.241,354.942 38.235,353.416 24.311,351.889 13.279,350.36 35.227,348.833 27.672,347.304 15.605,345.776 39.373,344.248    47.608,342.721 46.881,341.193 12.117,339.666 22.87,338.14 37.44,336.612 28.487,335.086 35.858,333.559 29.128,332.032    41.432,330.506 11.785,328.979 25.716,327.452 50.272,325.925 20.863,324.398 12.613,322.872 16.652,321.345 49.886,319.816    34.488,318.288 42.528,316.761 32.256,315.234 43.856,313.708 34.178,312.183 46.029,310.657 44.403,309.133 16.163,307.609    27.046,306.085 24.577,304.562 13.782,303.038 48.317,301.516 47.801,299.992 36.157,298.47 45.03,296.946 21.228,295.423    45.093,293.899 19.143,292.376 30.21,290.853 28.26,289.327 45.594,287.803 49.205,286.277 14.428,284.751 18.183,283.224    19.553,281.695 18.013,280.167 17.283,278.637 46.813,277.108 11.596,275.58 22.501,274.053 23.941,272.525 16.066,271    40.507,269.474 13.403,267.948 39.557,266.423 39.197,264.897 11.735,263.372 31.856,261.847 40.822,260.32 30.94,258.794    26.407,257.268 22.795,255.74 38.352,254.211 21.337,252.682 50.548,251.152 33.89,249.622 43.705,248.093 31.987,246.565    48.304,245.037 28.785,243.51 34.735,241.983 13.45,240.456 22.894,238.929 43.383,237.401 33.077,235.874 42.605,234.345    29.05,232.815 33.923,231.285 27.479,229.754 38.639,228.225 40.684,226.696 25.616,225.167 16.745,223.639 36.498,222.111    17.537,220.582 30.562,219.053 26.04,217.523 36.481,215.991 14.588,214.461 23.722,212.931 50.303,211.402 28.772,209.873    37.904,208.344 45.692,206.813 18.516,205.283 11.633,203.751 50.766,202.221 41.018,200.691 12.598,199.161 42.029,197.631    33.752,196.1 20.799,194.568 34.629,193.043 17.415,191.516 22.574,189.986 38.359,188.454 36.21,186.924 27.458,185.396    27.376,183.869 46.696,182.341 23.675,180.813 14.411,179.282 37.294,177.749 46.48,176.219 32.908,174.689 20.932,173.159    13.972,171.626 33.367,170.094 27.515,168.563 44.058,167.031 37.842,165.497 33.331,163.965 34.125,162.431 14.102,160.898    30.86,159.363 14.82,157.833 48.526,156.303 37.238,154.768 19.498,153.235 46.436,151.7 26.427,150.164 20.484,148.629    41.706,147.091 48.925,145.551 12.575,144.011 17.891,142.3 21.66,140.69 30.312,139.375 42.129,138.465 16.854,135.37    36.088,135.194 32.755,133.399 27.681,131.322 22.453,129.079 15.533,126.459 39.534,128.276 25.602,124.532 39.524,125.36    24.141,120.933 32.288,120.921 16.61,115.857 51.541,122.282 43.433,118.921 44.551,117.758 31.6,112.685 34.73,111.954    43.039,112.907 45.497,112.199 42.052,109.542 22.338,100.976 19.75,98.142 54.194,109.546 41.566,103.05 25.146,94.543    26.695,93.305 45.15,99.737 54.242,102.371 24.51,86.438 51.607,98.043 37.195,88.976 36.638,86.818 28.86,80.609 35.447,82.324    50.256,89.108 48.481,86.298 61.036,92.404 46.909,81.664 60.058,88.558 37.865,71.635 54.512,81.281 41.441,69.922 42.287,68.405    67.33,85.538 44.476,65.742 51.366,69.138 61.32,75.367 48.846,62.692 65.031,74.748 64.821,72.624 54.497,60.988 57.143,61.225    69.996,71.625 74.614,74.304 52.069,48.859 56.806,51.299 69.112,62.272 78.188,70.267 57.883,44.583 65.602,51.022 61.085,42.857    69.621,50.768 75.903,56.27 71.197,47.454 68.845,41.427 87.294,64.541 90.151,66.347 90.687,64.834 72.785,34.768 77.964,39.676    85.537,48.88 83.886,43.09 90.667,51.722 93.26,53.412 85.405,35.766 98.713,57.779 85.117,27.715 97.196,48.572 89.877,29.505    97.085,41.279 102.511,49.905 98.874,37.577 107.187,54.017 101.197,34.851 103.107,35.405 103.234,31.047 107.732,39.185    108.641,37.087 112.458,44.224 113.983,44.358 115.117,43.155 118.855,51.697 112.583,21.213 119.813,44.388 120.784,42.307    122.932,45.667 121.617,31.567 126.741,51.38 122.646,18.556 124.513,19.257 127.473,28.227 127.492,15.258 130.387,25.474    132.492,30.41 134.115,31.146 135.836,33.683 136.368,15.482 138.377,21.578 140.574,41.251 142.086,48.961 143.392,30.339    144.919,40.345 146.446,36.207 147.974,35.739 149.5,31.624 151.028,33.879 152.556,30.427 154.083,12.399 155.611,15.865    157.139,47.354 158.667,37.996 160.195,15.742 161.724,44.273 163.253,40.541 164.783,36.143 166.313,42.978 167.841,35.076    169.37,36.449 170.898,48.797 172.427,25.4 173.955,27.863 175.482,15.898 177.011,48.846 178.538,37.32 180.066,48.452    181.594,31.725 183.122,37.82 184.65,43.953 186.179,43.067 187.707,36.322 189.235,41.749 190.764,32.075 192.293,50.564    193.822,16.314 195.351,21.93 196.879,27.139 198.406,41.447 199.933,48.076 201.458,39.389 202.984,40.629 204.509,32.432    206.034,27.859 207.559,31.736 209.083,51.414 210.607,25.308 212.131,50.291 213.656,21.221 215.18,24.814 216.704,18.852    218.229,28.971 219.753,32.686 221.279,33.171 222.804,42.532 224.331,12.932 225.857,20.208 227.385,41.639 228.913,20.755    230.442,32.711 231.972,41.16 233.503,22.961 235.033,16.425 236.562,49.773 238.09,16.424 239.619,44.997 241.146,22.538    242.673,43.053 244.2,35.564 245.726,34.706 247.253,50.568 248.779,46.353 250.306,25.632 251.833,22.393 253.36,44.417    254.888,50.35 256.417,22.425 257.946,49.92 259.477,48.647 261.008,22.957 262.539,22.894 264.069,26.658 265.599,39.765    267.128,41.807 268.656,17.486 270.185,36.929 271.712,49.306 273.24,32.578 274.77,21.156 276.298,22.669 277.828,27.458    279.358,26.948 280.891,21.794 282.422,25.093 283.952,35.99 285.482,33.889 287.012,24.84 288.541,29.071 290.07,19.221    291.601,38.087 293.131,32.799 294.662,34.016 296.194,21.79 297.727,19.21 299.257,18.446 300.787,34.985 302.317,21.968    303.848,25.792 305.379,50.446 306.911,17.773 308.444,49.278 309.976,37.476 311.506,30.141 313.037,11.74 314.568,35.146    316.102,49.36 317.634,38.268 319.16,24.124 320.688,25.362 322.219,32.208 323.753,30.347 325.283,19.584 326.813,43.082    328.341,42.277 329.87,39.481 331.399,48.736 332.932,31.125 334.466,14.482 335.997,25.345 337.527,49.407 339.059,42.322    340.593,32.698 342.126,48.081 343.658,24.396 345.191,26.664 346.727,50.896 348.26,25.867 349.795,39.452 351.329,23.982    352.864,18.905 354.396,34.927 355.927,25.239 357.464,30.942 358.997,26.533 360.533,50.682 362.071,27.043 363.606,31.082    365.146,19.784 366.687,48.847 368.229,45.959 369.965,16.641 371.532,22.991 372.285,45.276 374.173,35.461 374.607,51.112    378.349,20.697 378.861,33.227 380.019,36.663 381.012,40.718 383.613,32.151 384.56,36.253 389.294,16.57 389.735,24.193    393.331,14.295 390.516,36.867 393.204,31.635 390.938,48.116 393.726,42.528 396.319,38.317 396.172,44.397 398.232,42.404    396.646,52.423 408.513,20.092 399.727,51.506 407.744,32.907 412.578,24.484 409.013,38.563 405.86,50.55 415.194,31.792    411.708,43.983 410.273,50.793 421.88,29.26 423.271,30.369 419.491,41.753 415.268,53.287 419.04,49.207 417.213,55.538    431.622,33.128 431.882,36.12 426.03,49.022 418.581,63.758 437.171,37.398 420.493,65.549 428.199,56.594 440.745,41.351    432.641,55.412 439.957,48.12 447.286,41.276 428.267,68.181 448.76,45.081 428.327,72.222 431.577,70.4 449.931,51.635    434.366,71.288 450.503,55.957 441.137,68.111 458.114,52.917 436.826,76.419 460.416,55.555 447.965,69.594 465.459,55.675    438.275,82.159 440.773,81.686 450.303,75.406 470.488,60.834 441.264,86.303 470.344,65.481 456.755,77.873 468.673,71.056    453.706,83.723 475.799,70.265 464.154,80.185 460.005,84.75 456.886,88.474 453.652,92.123 461.965,88.79 477.316,81.701    465.434,90.26 453.074,98.619 450.506,101.429 470.282,92.915 473.072,93.291 483.046,90.384 471.552,97.469 484.816,93.373    484.887,95.235 483.671,97.582 480.099,100.793 455.751,111.586 490.808,100.46 475.737,107.463 485.946,105.773 492.246,105.596    491.046,107.802 488.901,110.208 480.899,114.105 496.174,111.933 489.716,115.293 490.337,116.915 469.471,122.977    478.843,122.603 497.685,120.786 478.731,125.738 473.701,128.041 470.476,129.943 492.32,128.698 460.278,133.887    465.136,134.702 492.59,133.817 498.301,135.122 497.369,136.967 477.859,139.512 492.296,140.626 500.2,142.195 493.724,144.011    464.127,145.537 471.498,147.063 468.7,148.589 476.006,150.115 464.587,151.642 463.345,153.168 489.229,154.694 475.789,156.221    490.968,157.748 464.048,159.275 477.795,160.802 490.567,162.33 497.379,163.858 493.727,165.386 471.642,166.915    466.691,168.442 476.487,169.97 496.582,171.497 500.068,173.024 464.684,174.551 496.611,176.078 491.718,177.604    461.866,179.131 468.377,180.658 476.072,182.185 485.927,183.711 495.67,185.239 479.148,186.766 471.078,188.293 479.661,189.82    469.418,191.348 476.461,192.876 473.367,194.404 477.476,195.932 475.239,197.458 486.008,198.984 493.857,200.51    474.161,202.035 475.947,203.559 496.65,205.083 488.571,206.607 487.836,208.13 469.444,209.653 467.47,211.177 463.081,212.7    491.241,214.223 477.269,215.746 486.13,217.269 471.708,218.792 472.484,220.316 483.509,221.84 479.813,223.364 487.737,224.889    476.498,226.415 470.392,227.941 499.991,229.468 460.912,230.996 498.431,232.525 476.737,234.055 462.282,235.583    498.433,237.112 480.263,238.639 465.558,240.166 482.621,241.692 485.714,243.218 481.863,244.744 487.059,246.269    491.012,247.794 483.182,249.32 477.752,250.845 483.265,252.371 464.116,253.897 495.31,255.424 490.816,256.952 500.549,258.48    477.914,260.009 468.189,261.539 474.228,263.069 496.299,264.599 481.688,266.127 471.855,267.654 492.819,269.182    465.964,270.709 474.598,272.235 483.632,273.763 495.152,275.29 476.767,276.818 466.066,278.347 488.741,279.876    467.553,281.407 494.274,282.938 461.269,284.467 474.432,285.996 461.342,287.524 468.134,289.053 492.913,290.58    473.871,292.109 484.512,293.639 483.191,295.169 500.64,296.7 476.048,298.23 469.127,299.76 482.244,301.289 479.216,302.818    477.951,304.348 465.654,305.878 486.7,307.408 496.831,308.939 495.251,310.47 475.511,312 461.357,313.53 484.705,315.061    487.762,316.592 473.06,318.123 469.594,319.648 479.284,321.176 495.905,322.705 468.314,324.237 465.181,325.767    498.259,327.295 464.448,328.822 481.587,330.35 487.001,331.878 491.662,333.409 489.754,334.941 481.346,336.472    482.898,338.002 469.302,339.531 486.795,341.064 476.528,342.597 488.919,344.128 485.759,345.66 492.194,347.193    494.549,348.726 470.201,350.26 464.221,351.793 479.511,353.327 476.269,354.857 469.744,356.388 500.402,357.923    463.063,359.455 499.161,360.99 491.325,362.526 467.769,364.062 486.506,365.599 480.478,366.438  " style="fill:#FDD029;"/><g><path d="M368.237,257.116c0,0-9.148-17.206-20.749-35.015c-18.901,17.132-38.479,14.262-46.805,12.433    c-10.978-2.414-13.96-7.094-13.063-11.226c-6.386-2.03-28.873-15.414-42.45-19.875c-26.128,16.035-36.612,56.077-35.368,96.809    c-17.529,33.552-30.575,44.87-66.383,53.188c6.715,15.907,9.442,21.887,19.432,42.986c44.792-12.215,73.409-38.689,91.011-61.325    c29.97,7.68,51.873,26.878,69.968,61.672c18.792-15.779,20.859-17.388,36.851-30.333c-12.46-30.06-43.072-56.059-72.201-70.229    c0.274-7.112,0.476-8.886,0.787-14.463C332.064,293.002,368.237,257.116,368.237,257.116z" style="fill:#FFFFFF;"/><path d="M253.386,155.877c0,22.051,18.297,39.951,40.181,39.951c21.865,0,40.437-17.9,40.437-39.951    c0-22.068-18.571-39.95-40.437-39.95C271.683,115.927,253.386,133.809,253.386,155.877z" style="fill:#FFFFFF;"/></g></g><g id="Layer_1"/></svg>