<?xml version="1.0" ?><!DOCTYPE svg  PUBLIC '-//W3C//DTD SVG 1.1//EN'  'http://www.w3.org/Graphics/SVG/1.1/DTD/svg11.dtd'><svg height="512px" style="enable-background:new 0 0 512 512;" version="1.1" viewBox="0 0 512 512" width="512px" xml:space="preserve" xmlns="http://www.w3.org/2000/svg" xmlns:xlink="http://www.w3.org/1999/xlink"><g id="social__x2C__media__x2C__social_media__x2C___hi5__x2C_"><polygon points="493.218,368.662 463.779,369.972 463.318,371.271 484.428,373.422 486.104,375.102    486.346,376.731 495.273,379.084 493.501,380.66 479.578,380.877 498.108,384.696 460.897,381.414 491.667,387.337    486.911,388.289 480.185,388.752 480.051,390.309 488.99,393.752 494.728,396.733 487.1,396.771 474.892,395.429 465.636,394.535    483.434,400.941 493.081,405.482 487.171,405.514 485.213,406.672 456.785,398.768 488.893,411.543 455.53,401.022    461.422,404.677 465.073,407.611 454.264,404.629 462.545,409.61 454.993,407.735 481.579,421.632 473.067,419.398    470.637,419.961 473.882,423.406 462.825,419.313 459.36,419.065 459.35,420.697 467.787,427.352 466.843,428.626 451.619,420.911    472.805,436.241 464.752,432.914 469.419,438.042 462.961,435.524 455.54,432.077 454.815,433.372 459.331,438.722    452.094,434.985 440.177,427.136 456.442,442.443 465.563,452.37 439.536,431.668 459.275,451.396 450.344,445.334 446.212,443.49    440.154,439.581 434.295,435.603 449.118,452.92 431.563,436.448 440.869,448.577 430.501,439.083 444.084,456.849 427.75,439.801    440.508,457.481 429.932,446.63 425.316,442.857 444.212,470.258 445.763,475.356 426.116,450.659 421.438,446.261    426.333,455.922 438.814,477.861 427.485,463.147 425.122,462.189 419.688,455.92 423.718,465.76 419.398,461.121 428.896,481.852    417.794,464.294 421.001,473.978 422.962,481.701 421.288,482.183 420.983,485.689 408.8,462.04 418.715,489.314 405.003,460.002    406.764,468.309 409.845,480.836 406.826,477.209 409.807,490.925 401.947,472.371 407.078,493.976 405.645,495.464    403.954,496.142 401.401,493.584 392.082,463.568 396.558,488.44 392.359,477.224 389.634,471.54 390.32,482.72 386.856,472.314    385.405,472.313 384.438,475.548 383.108,476.761 380.147,464.775 381.773,492.087 377.422,464.154 376.145,464.484    374.598,461.114 373.756,469.203 372.84,480.8 371.605,492.012 369.738,478.486 368.237,476.864 366.71,489.564 365.183,483.797    363.655,465.974 362.128,489.159 360.601,489.291 359.073,496.519 357.546,495.49 356.018,489.87 354.49,494.739 352.962,476.821    351.434,469.639 349.904,483.982 348.376,470.649 346.846,484.401 345.316,483.513 343.788,462.57 342.259,485.057 340.73,481.333    339.202,476.087 337.674,471.983 336.146,487.914 334.618,488.967 333.091,467.632 331.563,478.724 330.035,461.348    328.507,493.621 326.979,499.383 325.45,461.295 323.922,467.807 322.395,462.382 320.865,491.728 319.336,500.247    317.807,462.354 316.278,490.209 314.75,497.168 313.223,497.668 311.696,475.353 310.17,479.634 308.645,484.275 307.12,497.389    305.595,471.772 304.07,494.273 302.546,488.943 301.021,477.132 299.498,493.416 297.974,467.433 296.449,469.125    294.925,463.874 293.4,470.267 291.876,487.037 290.351,499.356 288.825,483.652 287.299,467.228 285.772,498.121 284.245,481.286    282.717,477.074 281.188,472.514 279.657,484.182 278.127,486.473 276.597,491.786 275.067,493.919 273.539,488.572    272.011,467.702 270.483,483.145 268.956,469.233 267.43,497.254 265.903,495.064 264.376,474.335 262.85,477.051 261.323,464.106    259.796,493.044 258.269,487.198 256.741,474.213 255.212,500.074 253.683,474.887 252.153,475.005 250.621,486.148 249.09,467.39    247.56,490.476 246.031,468.448 244.502,476.344 242.974,480.134 241.445,483.964 239.917,486.063 238.389,461.225 236.86,472.348    235.331,477.446 233.801,500.378 232.271,496.652 230.739,495.011 229.208,476.868 227.677,490.992 226.147,462.324    224.617,463.061 223.088,476.471 221.559,475.882 220.029,470.325 218.499,493.771 216.967,477.997 215.435,472.142    213.903,464.043 212.372,477.68 210.842,500.906 209.312,477.435 207.781,473.751 206.25,463.374 204.718,499.863 203.186,463.395    201.654,495.065 200.123,497.33 198.592,485.735 197.061,472.24 195.528,496.545 193.996,500.089 192.469,486.366 190.941,487.821    189.41,482.689 187.877,500.017 186.346,483.35 184.816,492.394 183.288,478.576 181.76,485.883 180.23,481.084 178.698,500.327    177.164,482.371 175.632,479.526 174.102,484.33 172.57,500.029 171.037,492.009 169.503,489.843 167.971,500.545 166.438,495.314    164.903,492.239 163.37,469.347 161.835,463.223 160.301,497.482 158.765,468.326 157.233,494.576 155.702,472.513    154.166,499.343 152.632,492.639 151.096,491.559 149.559,489.332 148.023,482.448 146.484,470.367 144.942,487.615    143.401,479.268 141.762,488.769 140.607,470.618 139.208,470.659 138.252,462.346 135.254,487.858 135.133,469.016    132.97,477.333 132.772,465.317 130.653,471.685 129.631,468.724 127.77,471.742 126.211,472.435 125.751,466.855 124.691,465.136    121.372,474.571 116.32,490.595 113.329,495.855 120.201,460.954 117.524,466.004 115.591,467.816 115.265,463.943    109.785,477.072 107.317,479.647 101.819,490.888 109.05,465.249 98.543,489.576 108.41,459.138 104.822,464.501 101.365,469.117    97.587,474.081 95.694,474.454 99.791,461.974 94.842,468.941 88.83,477.532 94.254,463.457 93.353,462.056 82.743,478.219    94.949,453.458 90.321,458.659 88.477,458.942 88.851,455.644 90.544,450.454 70.922,477.479 78.271,463.608 87.761,447.46    81.508,453.821 84.328,447.648 85.211,444.291 79.921,448.873 68.605,460.559 78.863,445.78 74.73,448.472 69.089,452.684    64.724,455.211 75.2,441.658 68.578,446.576 52.31,460.976 53.499,457.311 65.666,443.239 47.029,458.635 55.67,448.353    53.844,447.806 63.123,437.662 66.665,432.807 53.919,441.434 45.479,446.117 50.261,440.278 57.668,432.719 47.563,438.273    41.806,440.357 38.936,440.281 62.653,422.376 56.525,424.763 49.387,427.58 34.233,435.042 39.51,429.898 59.324,416.647    30.067,431.377 31.936,428.365 30.781,427.012 54.449,413.195 45.923,415.816 59.111,408.007 47.042,412.07 42.035,412.674    44.832,409.869 23.02,417.081 51.89,404.011 27.978,411.46 42.413,404.543 55.155,398.663 20.204,408.682 44.341,399.354    53.467,395.193 53.934,393.738 43.672,395.141 41.021,394.354 37.273,393.758 38.314,392.002 36.395,390.898 17.786,392.961    34.56,388.196 44.269,385.07 37.927,384.638 32.005,383.976 28.255,382.887 30.113,381.092 31.106,379.434 16.511,379.068    41.301,375.659 16.967,375.569 44.85,372.718 12.06,372.251 38.055,370.105 31.412,368.662 18.984,367.136 14.773,365.61    37.471,364.084 21.864,362.559 30.552,361.032 38.74,359.506 34.347,357.979 30.774,356.453 27.722,354.927 26.879,353.399    21.324,351.872 40.573,350.345 33.293,348.816 16.578,347.289 25.069,345.761 11.613,344.232 42.214,342.705 29.75,341.178    11.016,339.651 11.462,338.124 16.897,336.598 15.994,335.071 50.211,333.545 34.106,332.018 44.049,330.491 37.556,328.965    42.023,327.438 47.85,325.91 16.692,324.383 24.828,322.856 26.462,321.329 30.609,319.801 25.219,318.273 11.146,316.746    19.868,315.22 11.404,313.693 21.142,312.168 15.643,310.644 47.682,309.119 36.754,307.595 17.344,306.071 42.886,304.548    28.104,303.025 40.749,301.502 28.572,299.979 48.069,298.456 20.353,296.934 17.546,295.41 15.886,293.887 16.501,292.363    11.272,290.84 35.042,289.314 38.882,287.79 46.143,286.265 34.066,284.738 48.453,283.212 39.364,281.684 21.928,280.155    32.876,278.625 12.58,277.097 20.272,275.568 50.656,274.041 26.979,272.515 11.497,270.988 43.582,269.463 45.15,267.938    28.342,266.412 24.393,264.887 50.953,263.361 26.494,261.836 26.284,260.311 46.358,258.784 50.841,257.258 13.042,255.73    12.999,254.202 22.827,252.673 35.869,251.143 24.987,249.613 43.687,248.084 36.454,246.556 14.16,245.028 33.223,243.501    25.042,241.975 45.15,240.448 38.42,238.92 21.249,237.393 25.861,235.865 50.048,234.337 16.496,232.808 28.884,231.277    43.5,229.747 32.14,228.217 27.175,226.688 26.515,225.16 19.934,223.632 16.331,222.104 44.96,220.576 48.648,219.046    41.203,217.517 41.677,215.985 37.59,214.455 35.502,212.925 33.937,211.396 36.525,209.867 20.035,208.338 11.403,206.808    12.757,205.277 17.343,203.746 28.733,202.216 48.733,200.687 32.286,199.157 49.967,197.626 39.801,196.095 46.153,194.564    17.509,193.039 32.01,191.512 34.996,189.982 49.896,188.45 26.252,186.92 15.21,185.393 39.147,183.866 26.85,182.338    37.516,180.81 46.437,179.279 12.822,177.746 18.181,176.216 19.421,174.687 46.119,173.157 23.991,171.624 22.255,170.092    50.512,168.561 22.857,167.029 22.412,165.495 15.622,163.963 48.167,162.43 22.95,160.896 40.504,159.362 20.77,157.832    37.876,156.302 33.586,154.767 24.457,153.234 29.449,151.7 37.122,150.163 38.467,148.629 39.321,147.091 50.281,145.551    47.611,144.011 44.608,142.657 11.891,140.429 49.498,140.145 29.809,137.8 39.251,136.879 35.125,135.115 13.592,131.581    32.953,131.893 15.096,128.184 37.368,129.43 21.544,125.572 34.742,126.035 22.524,122.329 40.951,124.167 37.582,122.015    24.94,117.706 29.406,117.055 53.301,121.384 32.391,114.534 44.057,116.169 25.093,109.11 17.457,104.976 19.07,103.608    38.482,108.326 26.719,102.533 50.258,109.473 52.556,108.909 31.592,99.025 30.536,96.801 32.937,96.022 39.405,97.137    38.863,95.164 41.887,94.88 47.307,95.879 39.067,89.941 38.303,87.71 31.283,81.955 48.882,90.021 31.316,77.904 37.091,79.348    49.561,85.181 57.199,88.332 53.798,84.374 44.195,75.985 41.229,71.875 37.375,66.955 49.396,73.729 42.011,66.004 69.404,85.512    71.562,85.6 52.447,67.922 46.246,60.439 66.765,76.282 49.373,58.559 58.702,64.91 65.166,68.928 57.097,58.88 65.476,65.022    62.215,59.433 64.725,59.776 57.538,49.524 64.869,55.185 73.288,62.492 80.417,68.722 76.02,61.198 65.63,45.71 76.828,57.464    76.582,54.645 80.605,57.589 68.479,37.888 86.274,60.689 87.45,59.967 75.418,38.828 73.963,33.289 88.112,53.103 82.888,41.39    90.385,51.216 98.023,62.003 95.128,53.898 88.46,38.003 91.281,39.988 96.539,47.196 101.131,53.543 89.357,24.12 93.429,28.985    104.117,50.091 95.18,24.159 97.703,25.79 102.855,34.706 101.413,25.864 105.647,33.028 112.965,50.407 112.475,44.268    109.209,28.126 113.077,35.828 116.684,43.458 120.096,51.254 117.894,36.2 116.19,21.468 119.943,31.159 122.632,36.81    126.909,52.327 123.864,25.896 128.09,43.042 127.352,27.264 128.584,24.078 132.603,45.831 132.174,26.978 134.209,32.204    136.378,41.596 137.548,37.184 138.141,15.462 140.43,35.505 141.744,22.64 143.401,13.368 144.928,23.379 146.456,42.035    147.982,18.578 149.51,31.284 151.037,43.851 152.565,38.488 154.092,33.781 155.62,31.892 157.148,20.059 158.676,26.874    160.205,18.399 161.733,45.522 163.263,44.996 164.792,28.646 166.321,38.504 167.851,49.878 169.379,23.202 170.908,18.868    172.436,47.884 173.964,30.001 175.492,48.483 177.02,49.104 178.547,25.095 180.075,48.762 181.603,51.221 183.131,37.72    184.659,19.492 186.188,36.667 187.716,49.06 189.244,46.373 190.772,29.989 192.302,29.7 193.832,34.689 195.36,41.404    196.888,20.313 198.415,43.975 199.942,34.495 201.468,38.917 202.993,34.48 204.519,35.916 206.043,11.813 207.568,32.27    209.092,36.273 210.617,16.749 212.141,28.549 213.665,40.741 215.189,36.437 216.713,50.041 218.238,18.9 219.763,38.126    221.288,51.365 222.813,41.019 224.339,28.942 225.866,19.986 227.394,17.025 228.922,46.458 230.451,35.826 231.981,48.344    233.512,41.861 235.042,13.856 236.571,40.324 238.1,12.523 239.627,42.428 241.155,38.651 242.682,26.501 244.209,24.941    245.735,25.528 247.262,48.238 248.788,42.239 250.315,30.544 251.842,20.559 253.369,41.541 254.897,34.353 256.426,28.686    257.955,45.859 259.485,32.869 261.017,12.099 262.548,46.162 264.078,32.783 265.607,28.832 267.137,12.772 268.665,20.179    270.193,51.274 271.721,27.04 273.249,43.157 274.778,49.995 276.307,40.64 277.837,45.361 279.367,30.603 280.899,15.96    282.431,29.353 283.961,50.464 285.491,37.459 287.021,24.768 288.55,47.554 290.079,34.43 291.609,12.597 293.14,39.591    294.671,36.053 296.203,28.126 297.735,13.829 299.266,33.909 300.796,35.563 302.326,20.162 303.856,14.892 305.388,27.754    306.92,39.918 308.452,50.119 309.984,30.834 311.515,25.13 313.046,37.028 314.577,44.837 316.11,35.475 317.643,51.348    319.169,21.307 320.697,26.495 322.228,44.749 323.762,29.036 325.292,21.357 326.821,21.238 328.35,39.647 329.878,51.577    331.408,46.609 332.94,17.104 334.475,22.524 336.006,32.707 337.536,36.725 339.067,19.995 340.602,40.507 342.135,51.047    343.667,37.461 345.2,36.443 346.735,29.766 348.269,48.295 349.804,46.787 351.338,31.928 352.873,34.402 354.404,39.857    355.936,34.967 357.473,13.49 359.006,13.686 360.542,16.625 362.08,22.401 363.615,45.391 365.154,31.41 366.695,16.7    368.237,38.921 369.841,26.572 371.056,41.129 373.082,25.874 373.484,48.488 375.442,38.856 378.316,21.206 379.602,25.482    381.538,22.734 384.269,14.114 383.592,32.37 383.137,45.794 384.417,46.358 385.401,48.566 389.642,33.536 392.719,26.239    391.022,41.554 393.413,37.649 397.399,27.867 402.193,16.139 400.302,29.648 401.73,30.536 396.813,51.888 402.232,39.473    404.576,37.244 410.901,24.042 410.236,30.842 406.362,45.442 404.898,52.946 413.592,35.639 418.193,29.075 410.993,49.206    410.061,54.565 412.21,53.209 426.835,27.128 412.626,58.408 429.426,29.853 413.423,62.393 417.07,58.582 418.777,58.334    428.713,44.629 419.979,61.54 428.291,51.128 421.591,63.912 431.978,51.099 442.069,39.477 440.815,44.181 430.027,61.408    435.365,56.784 449.374,41.506 443.132,52.004 434.361,65.016 445.351,54.39 437.692,65.496 436.262,69.201 454.001,52.224    459.115,49.358 453.755,57.352 459.247,54.259 438.408,76.715 438.315,78.625 450.289,69.497 439.233,81.315 444.15,78.782    443.918,80.762 448.226,78.989 452.805,77.156 450.161,81.045 470.355,67.674 468.871,70.916 469.991,72.209 472.456,72.568    455.24,86.142 460.197,84.625 480.004,73.934 450.43,94.088 459.367,90.324 461.895,90.543 462.271,92.02 473.742,87.52    461.574,95.69 469.161,93.479 466.569,96.448 470.077,96.454 475.037,95.894 464.842,102.083 461.853,104.892 465.377,104.964    477.078,101.958 483.224,101.376 463.94,110.016 488.354,103.166 492.115,103.77 468.725,112.89 459.565,117.088 478.332,113.173    480.479,114.218 494.981,112.231 470.923,119.734 460.064,123.62 475.16,121.793 474.185,123.5 469.166,125.892 460.69,128.705    493.629,125.041 468.856,130.173 467.021,131.786 482.026,131.529 479.582,133.331 486.386,134.315 489.954,135.688 497.11,136.98    497.521,138.724 495.992,140.527 484.149,142.424 494.272,144.011 461.309,145.537 472.726,147.063 489.631,148.589    489.867,150.115 485.756,151.641 478.093,153.167 466.095,154.693 488.748,156.22 461.247,157.747 486.326,159.273 495.516,160.8    474.776,162.328 466.903,163.856 489.596,165.384 469.656,166.913 493.128,168.44 498.641,169.968 472.548,171.495    467.761,173.021 464.982,174.548 488.139,176.075 467.511,177.602 490.88,179.128 476.053,180.655 489.083,182.182    481.644,183.708 479.074,185.235 500.167,186.762 486.906,188.29 467.289,189.816 477.776,191.343 499.214,192.872 468.312,194.4    486.794,195.927 479.529,197.454 500.636,198.979 486.808,200.505 483.012,202.03 487.369,203.554 473.764,205.078    480.491,206.602 486.775,208.125 486.101,209.648 486.233,211.171 498.382,212.694 472.559,214.217 467.715,215.74    481.718,217.263 491.483,218.786 493.608,220.31 477.194,221.833 480.249,223.358 484.891,224.883 467.758,226.408 464.95,227.935    462.362,229.461 487.141,230.989 485.218,232.518 472.177,234.047 498.32,235.576 473.094,237.104 489.545,238.631 495.31,240.158    463.659,241.685 476.577,243.21 483.089,244.735 475.908,246.261 462.334,247.786 489.036,249.312 468.119,250.837 482.16,252.363    498.657,253.889 480.461,255.416 474.922,256.943 488.275,258.471 479.346,260 478.823,261.53 488.095,263.06 498.035,264.589    486.888,266.117 464.283,267.645 462.289,269.172 498.718,270.698 485.476,272.226 494.407,273.752 478.666,275.279    471.666,276.808 480.783,278.336 496.651,279.865 473.292,281.396 465.761,282.927 494.814,284.456 464.364,285.984    468.754,287.513 480.01,289.041 497.075,290.569 492.559,292.098 500.216,293.627 481.553,295.156 493.335,296.688    469.681,298.218 487.174,299.748 465.283,301.276 473.203,302.806 461.674,304.335 482.185,305.864 481.387,307.396    497.798,308.927 484.529,310.457 467.775,311.986 496.994,313.517 468.725,315.047 461.621,316.578 492.823,318.109    498.24,319.634 499.654,321.161 462.051,322.69 479.618,324.223 498.967,325.753 471.712,327.28 496.258,328.808 492.908,330.335    462.299,331.863 493.955,333.395 485.143,334.927 482.113,336.457 481.382,337.986 490.169,339.517 478.959,341.049    488.025,342.581 465.494,344.112 473.253,345.644 462.228,347.178 485.184,348.71 477.806,350.243 488.43,351.776 460.898,353.311    491.227,354.841 491.032,356.371 466.519,357.906 488.048,359.438 474.424,360.974 467.216,362.51 488.567,364.044    484.325,365.582 483.053,357.391  " style="fill:#FFA814;"/><g><path d="M206.005,263.058c4.172-24.409,6.056-44.156-17.73-29.145    c-23.768,15.011-33.374,26.585-33.374,26.585s-8.124,3.474-6.038-5.321c2.086-8.813,14.18-77.834,15.223-89.208    c1.043-11.354,2.214-11.354-1.811-12.214c-4.026-0.859-6.734,0-6.734,0s-13.137,1.079-15.442,23.367    c-2.287,22.288-23.348,148.517-23.348,148.517s-5.434,16.712,4.794,17.15c10.209,0.42,16.266,4.296,25.652-31.083    c9.387-35.361,21.262-54.847,32.112-54.847c10.85,0,8.124,12.008,5.214,29.56c-2.928,17.59-13.137,52.092-10.008,58.51    c3.128,6.436,2.488,6.855,14.382,6.855c11.893,0,23.365-2.14,19.614-12.854C204.761,328.218,201.833,287.498,206.005,263.058z" style="fill:#FFFFFF;"/><path d="M258.884,227.294c-5.086-1.591-10.191,0.037-10.191,0.037s-4.465-1.316-9.241,10.477    c-4.775,11.793-15.625,59.272-15.296,79.585c0.312,20.296,0.312,27.829,6.367,25.872c6.057-1.975,24.226-1.316,21.994-21.94    c-2.232-20.625,1.281-49.458,4.464-66.147C260.165,238.466,263.989,228.885,258.884,227.294z" style="fill:#FFFFFF;"/><path d="M363.435,221.096c-14.016-0.33-36.027,9.818-42.065,12.78c-6.057,2.944-21.371,8.027-15.937-7.295    c5.416-15.303,14.345-32.326,14.345-32.326s1.903-5.906,15.607-6.564c13.705-0.658,45.89,9.179,52.587,1.316    c6.696-7.862,4.794-15.066,5.104-24.555c0.311-9.507,0-10.989-4.794-11.08c-4.775-0.073-35.057,5.833-47.151,5.833    c-12.132,0-25.195-0.987-30.282,11.793c-5.104,12.762-27.739,75.33-27.739,75.33s-2.232,20.29,15.315,11.153    c17.511-9.197,61.496-22.289,63.418,9.467c1.903,31.777-11.161,76.316-45.907,75c-34.729-1.298-28.05-14.078-22.305-25.542    c5.727-11.465,3.824-19.638-6.367-19.967c-10.211-0.328-29.972,12.434-19.14,33.734c10.851,21.282,20.091,28.815,51.324,29.145    c31.233,0.33,75.22-39.311,76.812-90.066C397.852,218.5,377.469,221.443,363.435,221.096z" style="fill:#FFFFFF;"/><path d="M278.004,191.988c-1.92-4.937-9.623-1.755-13.118-4.516c0.055,0.054-4.574-13.128-8.728-12.58    c-2.818,0.402-3.348,6.546-5.251,8.996c-3.586,4.607-14.785,1.792-15.736,8.1c-0.311,1.993,5.416,6.801,6.111,8.063    c2.855,5.229-3.439,11.628,0,16.181c2.269,2.999,9.643-2.871,13.998-2.688c0.915,0.019,1.719,0.146,2.433,0.33    c3.715,1.975,9.424,6.546,11.345,4.571c2.47-2.487,0.109-8.813-0.311-12.415C271.747,199.43,279.67,196.284,278.004,191.988z" style="fill:#FFFFFF;"/></g></g><g id="Layer_1"/></svg>