<?xml version="1.0" ?><!DOCTYPE svg  PUBLIC '-//W3C//DTD SVG 1.1//EN'  'http://www.w3.org/Graphics/SVG/1.1/DTD/svg11.dtd'><svg height="512px" style="enable-background:new 0 0 512 512;" version="1.1" viewBox="0 0 512 512" width="512px" xml:space="preserve" xmlns="http://www.w3.org/2000/svg" xmlns:xlink="http://www.w3.org/1999/xlink"><g id="social__x2C__media__x2C__social_media__x2C___youtube__x2C__3__x2C_"><polygon points="475.565,368.68 477.202,370.169 490.175,372.005 474.33,373.035 488.914,375.269    478.079,376.193 497.7,379.299 492.133,380.549 498.499,382.945 475.738,381.966 469.523,382.608 461.494,382.814 497.592,390.053    461.974,385.524 477.323,389.8 479.853,391.874 494.918,396.813 460.935,390.604 464.429,392.822 491.043,401.285 489.561,402.674    469.112,398.439 478.188,402.755 458.013,397.832 457.446,399.008 487.34,411.012 480.821,410.443 486.604,414.431    485.277,415.767 470.61,411.49 479.648,417.075 486.909,422.189 454.751,409.072 460.6,413.372 484.583,426.979 485.725,429.593    466.718,421.421 468.183,423.979 452.835,416.98 477.073,432.854 478.845,435.973 455.398,423.295 475.89,438.255 466.473,434.076    450.156,424.814 452.833,428.371 470.249,442.808 473.124,447.118 452.695,433.615 464.838,445.107 467.129,449.146    444.837,432.731 462.333,449.605 440.062,432.135 456.957,449.3 458.041,452.557 444.679,442.039 439.818,439.268 453.614,455.237    454.962,459.03 454.834,461.397 437.417,444.789 446.788,457.522 449.287,462.923 429.481,441.872 432.439,447.591    439.552,458.815 434.181,454.405 431.669,453.52 428.462,451.568 421.781,444.516 435.255,466.42 432.368,465.004 431.924,467.225    420.736,452.42 425.055,462.104 416.116,449.886 415.411,451.274 432.271,484.406 411.907,450.224 428.085,484.131    413.287,458.588 425.793,487.604 411.198,460.605 418.169,479.474 418.162,483.591 406.381,459.861 414.757,484.313    403.825,460.729 413.862,491.697 410.763,488.31 400.218,462.645 405.637,483.787 400.16,471.655 397.996,469.532 399.888,481.648    398.66,483.259 393.691,470.051 391.196,465.675 388.788,461.1 388.975,468.395 387.137,466.207 385.509,464.82 383.697,462.025    384.36,475.092 382.569,472.848 383.729,494.206 381.003,485.075 378.347,474.005 376.022,463.107 375.418,473.518    373.977,473.489 372.926,483.165 371.134,474.681 369.937,492.956 368.229,467.096 366.701,478.222 365.174,477.197    363.646,480.161 362.119,497.482 360.592,461.942 359.064,481.001 357.537,465.172 356.01,471.932 354.481,480.164    352.953,469.825 351.425,483.391 349.896,479.865 348.366,470.887 346.837,478.886 345.308,492.386 343.778,492.729    342.25,492.596 340.722,479.228 339.193,498.304 337.665,488.176 336.138,497.881 334.609,469.599 333.082,468.269    331.554,489.959 330.026,478.69 328.498,477.162 326.97,465.059 325.441,474.764 323.913,469.488 322.385,468.278 320.856,500.296    319.327,477.262 317.798,474.537 316.27,470.624 314.741,462.393 313.214,484.6 311.688,485.583 310.161,467.88 308.636,495.535    307.11,491.604 305.586,496.172 304.062,488.255 302.537,465.902 301.013,467.932 299.488,478.867 297.964,488.083 296.44,491.432    294.916,488.434 293.392,471.603 291.866,491.749 290.342,491.324 288.815,497.947 287.29,499.42 285.763,469.194 284.235,491.585    282.707,481.831 281.178,477.854 279.648,492.255 278.117,482.819 276.587,473.416 275.058,464.214 273.529,491.063    272.002,486.539 270.474,489.679 268.947,482.987 267.42,471.792 265.894,466.252 264.367,466.362 262.841,491.654    261.314,476.975 259.787,499.552 258.26,483.804 256.732,473.133 255.203,469.644 253.674,487.475 252.144,474.71 250.612,461.109    249.081,462.563 247.551,497.385 246.021,465.142 244.493,484.527 242.964,473.773 241.436,495.604 239.908,499.946 238.38,477.44    236.851,469.722 235.322,486.081 233.792,463.891 232.262,500.537 230.73,477.227 229.198,491.305 227.667,469.766    226.138,480.529 224.608,465.504 223.079,471.746 221.549,464.667 220.02,493.698 218.489,499.539 216.958,500.068    215.425,485.748 213.894,479.818 212.363,486.027 210.833,486.335 209.302,496.665 207.772,492.738 206.241,493.142    204.708,490.502 203.176,475.987 201.645,493.836 200.114,485.385 198.583,478.421 197.051,488.805 195.519,474.618    193.986,494.767 192.46,477.601 190.932,492.774 189.401,474.725 187.868,469.551 186.336,468.99 184.808,489.898 183.279,481.552    181.75,461.852 180.221,491.032 178.688,495.231 177.155,497.783 175.623,475.283 174.093,492.218 172.562,493.802    171.027,483.046 169.494,473.954 167.962,488.421 166.429,496.984 164.894,495.982 163.36,474.034 161.825,481.244 160.291,469.57    158.756,462.929 157.224,499.15 155.693,493.625 154.157,478.807 152.623,499.514 151.087,480.854 149.549,498.965    148.014,476.615 146.475,491.381 144.933,485.438 143.392,480.018 142.053,466.277 139.806,500.26 139.297,468.216    137.646,473.649 136.816,464.643 135.736,461.655 131.137,496.578 131.376,478.125 128.22,491.558 130.699,460.709    125.926,484.035 125.129,479.019 123.728,478.173 119.635,491.405 117.411,493.73 120.927,469.7 116.479,482.438 118.142,469.213    119.61,458.166 111.744,481.574 113.799,468.914 111.033,473.026 106.087,483.444 110.18,466.277 105.59,474.975 102.258,479.52    97.985,486.095 101.927,471.693 101.549,468.662 94.79,480.498 98.537,468.146 103.936,453.081 94.164,470.335 89.246,476.695    98.195,455.852 95.397,458.239 96.708,453.021 93.556,455.889 78.979,477.864 81.59,470.25 86.653,459.13 80.91,465.324    91.738,446.238 88.669,448.463 69.319,473.555 81.204,454.231 71.07,465.363 70.417,463.511 81.624,446.716 81.18,445.099    78.896,445.737 71.981,451.678 76.702,444.076 56.342,464.449 62.899,454.822 69.047,446.093 69.75,443.293 70.603,440.442    53.506,454.922 63.807,442.969 68.558,436.635 49.333,451.813 55.212,444.483 44.021,451.791 63.941,433.27 68.783,427.667    65.176,428.791 50.715,437.938 38.762,444.684 55.253,430.855 59.638,426.061 61.805,422.941 42.09,434.122 47.009,429.084    37.782,432.896 37.143,431.312 54.867,419.217 45.532,422.802 47.978,419.757 35.378,424.635 32.313,424.31 56.335,410.775    42.03,416.018 30.793,419.414 49.31,409.521 49.697,407.841 26.131,415.845 45.305,406.57 42.992,405.899 45.267,403.539    33.212,406.142 32.087,404.833 31.555,403.327 45.686,397.492 54.008,393.717 15.806,402.541 37.063,395.358 24.346,396.82    41.469,391.317 36.02,390.99 51.359,386.516 29.825,389.056 17.557,389.479 31.78,385.577 22.823,385.242 50.883,380.132    47.412,379.224 50.965,377.565 15.447,379.171 39.138,375.822 48.351,373.892 44.535,372.746 33.287,371.69 14.472,370.437    32.772,368.68 13.875,367.153 48.909,365.627 24.941,364.102 11.971,362.575 43.329,361.049 11.944,359.522 32.083,357.996    32.915,356.47 38.581,354.942 24.951,353.416 18.086,351.889 49.07,350.36 15.261,348.833 14.004,347.304 26.983,345.776    23.388,344.248 41.465,342.721 43.775,341.193 34.381,339.666 42.593,338.14 38.062,336.612 45.675,335.086 39.315,333.559    41.398,332.032 20.524,330.506 27.832,328.979 31.954,327.452 35.388,325.925 25.963,324.398 15.576,322.872 30.926,321.345    21.333,319.816 29.16,318.288 31.251,316.761 43.991,315.234 43.659,313.708 11.336,312.183 42.055,310.657 25.829,309.133    25.856,307.609 45.397,306.085 24.68,304.562 46.695,303.038 25.553,301.516 41.414,299.992 35.518,298.47 25.666,296.946    32.004,295.423 16.098,293.899 35.128,292.376 42.266,290.853 44.765,289.327 50.003,287.803 35.788,286.277 20.183,284.751    32.275,283.224 36.198,281.695 40.81,280.167 36.862,278.637 29.122,277.108 24.205,275.58 24.433,274.053 12.691,272.525    50.726,271 22.899,269.474 20.99,267.948 33.568,266.423 44.184,264.897 26.142,263.372 12.126,261.847 20.545,260.32    34.061,258.794 44.914,257.268 40.828,255.74 40.37,254.211 41.829,252.682 29.664,251.152 40.976,249.622 50.602,248.093    17.735,246.565 26.664,245.037 11.216,243.51 13.115,241.983 43.855,240.456 12.075,238.929 21.872,237.401 49.694,235.874    47.042,234.345 27.515,232.815 43.638,231.285 13.491,229.754 40.574,228.225 20.851,226.696 46.84,225.167 30.101,223.639    13.204,222.111 15.981,220.582 39.989,219.053 21.986,217.523 44.396,215.991 15.354,214.461 16.37,212.931 50.015,211.402    44.471,209.873 18.956,208.344 37.443,206.813 45.861,205.283 18.432,203.751 43.559,202.221 21.773,200.691 49.008,199.161    12.214,197.631 45.924,196.1 28.281,194.568 42.117,193.043 40.089,191.516 33.765,189.986 42.515,188.454 18.503,186.924    32.018,185.396 28.179,183.869 14.741,182.341 15.467,180.813 19.653,179.282 41.318,177.749 38.567,176.219 27.245,174.689    39.775,173.159 13.046,171.626 18.864,170.094 11.304,168.563 13.895,167.031 30.328,165.497 37.746,163.965 21.765,162.431    42.78,160.898 13.103,159.363 47.331,157.833 43.666,156.303 14.654,154.768 30.392,153.235 18.059,151.7 41.85,150.164    45.819,148.629 30.391,147.091 11.308,145.551 38.206,144.011 12.453,142.228 28.344,140.869 25.147,139.168 11.208,136.795    12.571,135.081 16.06,133.563 41.761,134.253 30.83,131.663 15.98,128.292 35.776,129.214 45.243,129.132 23.575,124.202    22.115,122.251 44.305,124.815 39.188,122.349 20.309,116.681 24.292,115.851 49.078,120.329 31.802,114.379 40.995,115.313    18.716,107.231 22.333,106.489 18.447,103.408 34.151,106.855 35.139,105.533 28.811,101.507 45.743,106.273 51.016,106.854    36.622,99.352 48.841,102.944 43.682,99.072 53.383,101.967 49.081,98.373 44.382,94.413 38.76,89.788 39.355,88.278    28.097,80.185 45.88,88.303 53.662,91.124 36.861,79.205 33.862,75.309 51.635,84.727 54.676,84.961 46.457,77.544 61.347,86.119    56.856,81.15 62.545,83.593 53.23,74.666 56.748,75.472 64.548,79.885 54.492,69.646 58.171,70.725 50.678,62.042 68.921,76.359    54.606,61.087 73.831,77.26 67.552,69.21 78.376,78.123 58.955,56.04 61.551,56.382 64.249,56.917 74.764,66.387 75.319,64.865    74.588,61.767 62.473,44.555 83.975,68.909 73.59,53.264 65.63,40.011 66.542,38.249 71.956,42.826 81.118,53.187 83.868,54.602    78.08,42.953 86.41,53.132 88.974,54.526 93.054,58.628 89.809,50.226 88.872,45.489 81.425,28.34 82.716,26.946 95.011,47.441    98.207,50.654 101.958,55.335 89.501,24.467 103.512,52.21 106.651,56.184 103.276,44.307 106.91,49.64 105.748,42.534    108.001,44.462 107.703,39.101 106.162,29.454 108.779,32.338 107.479,22.253 114.771,41.915 118.024,48.557 112.688,21.641    119.031,41.068 118.501,31.972 122.555,43.849 123.091,39.229 123.284,32.012 125.976,38.824 126.497,32.48 127.511,28.509    130.825,42.498 132.14,41.644 133.154,37.413 135.185,44.37 136.67,46.054 137.288,32.521 138.346,20.824 140.373,33.723    141.792,26.945 143.392,20.659 144.919,24.089 146.446,25.802 147.974,14.166 149.5,42.583 151.028,49.915 152.556,38.377    154.083,24.933 155.611,27.936 157.139,38.853 158.667,16.056 160.195,22.538 161.724,29.804 163.253,34.067 164.783,19.45    166.313,51.508 167.841,27.708 169.37,48.093 170.898,24.348 172.427,14.403 173.955,12.565 175.482,45.529 177.011,29.597    178.538,13.862 180.066,42.19 181.594,35.376 183.122,32.412 184.65,43.633 186.179,16.091 187.707,46.702 189.235,49.861    190.764,32.338 192.293,18.322 193.822,21.434 195.351,25.256 196.879,23.719 198.406,17.121 199.933,38.012 201.458,38.238    202.984,17.131 204.509,50.108 206.034,19.631 207.559,17.259 209.083,11.998 210.607,43.76 212.131,20.874 213.656,13.261    215.18,20.022 216.704,35.958 218.229,46.428 219.753,33.262 221.279,28.867 222.804,30.314 224.331,15.666 225.857,12.607    227.385,41.082 228.913,51.043 230.442,26.855 231.972,44.666 233.503,12.003 235.033,27.142 236.562,14.694 238.09,46.675    239.619,50.397 241.146,34.621 242.673,34.987 244.2,20.521 245.726,25.582 247.253,45.5 248.779,30.16 250.306,47.188    251.833,24.789 253.36,32.395 254.888,29.397 256.417,13.624 257.946,44.5 259.477,17.372 261.008,37.132 262.539,50.791    264.069,39.529 265.599,33.855 267.128,43.641 268.656,41.613 270.185,33.585 271.712,30.333 273.24,51.513 274.77,17.631    276.298,15.062 277.828,44.615 279.358,31.713 280.891,43.052 282.422,41.825 283.952,37.377 285.482,23.011 287.012,44.973    288.541,38.722 290.07,33.761 291.601,48.526 293.131,28.538 294.662,31.581 296.194,41.768 297.727,23.109 299.257,15.764    300.787,21.448 302.317,36.197 303.848,45.369 305.379,26.783 306.911,42.803 308.444,36.881 309.976,48.024 311.506,42.257    313.037,49.511 314.568,49.981 316.102,40.386 317.634,25.719 319.16,12.258 320.688,21.051 322.219,36.69 323.753,24.583    325.283,31.225 326.813,48.681 328.341,24.039 329.87,28.579 331.399,47.74 332.932,47.409 334.466,23.714 335.997,44.354    337.527,38.668 339.059,28.705 340.593,39.579 342.126,25 343.658,37.292 345.191,28.729 346.727,27.356 348.26,33.256    349.795,24.405 351.329,51.657 352.864,38.511 354.396,37.117 355.927,33.424 357.464,17.277 358.997,32.488 360.533,36.641    362.071,33.201 363.606,41.67 365.146,31.068 366.687,40.65 368.229,12.337 369.657,39.656 371.382,28.611 372.815,32.214    374.523,28.908 376.829,18.047 379.043,12.111 378.084,41.465 378.714,48.698 380.206,47.331 384.759,23.727 386.32,24.513    389.216,17.047 386.428,42.76 391.916,21.675 392.589,26.831 394.687,24.914 397.252,21.292 396.699,30.636 392.994,50.899    403.133,19.468 398.354,41.989 406.869,19.352 405.425,29.609 406.061,32.845 409.027,29.296 410.275,30.716 412.374,29.856    415.458,26.683 418.05,24.965 408.187,52.105 419.137,31.123 418.647,36.184 417.054,43.2 424.6,31.569 426.414,31.804    421.862,43.945 420.995,48.711 421.749,50.39 421.697,53.375 419.642,59.514 437.845,33.064 425.125,56.012 437.822,39.528    439.763,39.746 438.885,43.978 433.475,54.266 430.689,60.522 438.459,52.755 426.797,70.029 446.238,48.18 444.083,53.386    451.009,47.811 435.923,67.49 432.237,73.633 436.158,71.333 456.632,51.944 452.258,58.874 451.859,61.561 440.594,74.61    449.146,68.488 456.502,63.841 460.743,62.255 464.584,61.174 459.371,67.806 469.977,61.259 441.504,86.105 468.682,66.769    465.02,71.68 458.283,78.624 475.323,68.417 471.154,73.459 467.65,77.85 460.973,84.121 467.463,81.821 451.863,93.214    476.806,80.016 450.667,96.974 459.888,93.34 457.159,96.427 456.508,98.315 467.535,94.292 480.745,89.563 468.614,97.136    481.148,93.126 463.091,102.836 485.621,94.924 468.348,103.763 483.476,99.486 479.984,102.578 482.447,103.433 458.985,113.17    471.937,110.329 491.857,105.716 490.142,108.053 466.267,116.545 496.154,110.072 483.083,115.198 484.733,116.477    463.881,122.755 472.781,122.289 478.756,122.619 459.764,127.569 492.221,123.531 474.799,127.875 487.16,127.677    478.671,130.363 490.648,130.583 478.753,133.409 499.965,133.223 481.291,136.276 466.76,138.604 472.22,139.738 486.469,140.781    463.783,142.699 477.991,144.011 495.973,145.537 493.063,147.063 488.957,148.589 498.278,150.115 471.729,151.642    498.552,153.168 466.313,154.694 473.271,156.221 491.403,157.748 495.348,159.275 469.839,160.802 486.109,162.33    465.339,163.858 489.74,165.386 500.496,166.915 494.681,168.442 485.377,169.97 491.439,171.497 498.914,173.024 481.321,174.551    478.798,176.078 463.765,177.604 474.717,179.131 476.328,180.658 469.581,182.185 465.808,183.711 478.729,185.239    496.563,186.766 463.142,188.293 477.79,189.82 484.333,191.348 500.377,192.876 470.851,194.404 460.857,195.932 464.205,197.458    480.112,198.984 490.568,200.51 462.617,202.035 488.71,203.559 473.445,205.083 479.44,206.607 479.582,208.13 492.162,209.653    494.785,211.177 495.211,212.7 487.848,214.223 493.252,215.746 488.019,217.269 482.305,218.792 473.218,220.316 475.845,221.84    461.832,223.364 478.923,224.889 472.025,226.415 476.434,227.941 468.852,229.468 481.394,230.996 493.912,232.525    484.469,234.055 469.863,235.583 462.058,237.112 497.808,238.639 461.836,240.166 464.375,241.692 496.914,243.218    492.366,244.744 487.733,246.269 488.738,247.794 499.258,249.32 492.106,250.845 495.172,252.371 463.105,253.897    475.624,255.424 480.5,256.952 485.372,258.48 488.475,260.009 480.218,261.539 471.261,263.069 486.315,264.599 495.046,266.127    464.113,267.654 499.104,269.182 461.665,270.709 483.163,272.235 475.484,273.763 471.182,275.29 476.342,276.818    498.094,278.347 487.081,279.876 470.498,281.407 484.986,282.938 499.865,284.467 467.23,285.996 482.51,287.524 489.555,289.053    469.452,290.58 490.613,292.109 496.188,293.639 472.322,295.169 472.522,296.7 465.033,298.23 470.776,299.76 490.512,301.289    462.028,302.818 470.474,304.348 479.516,305.878 498.815,307.408 460.863,308.939 486.659,310.47 481.555,312 486.063,313.53    465.849,315.061 465.381,316.592 473.325,318.123 492.281,319.648 474.307,321.176 483.846,322.705 470.618,324.237    492.381,325.767 494.455,327.295 495.286,328.822 472.611,330.35 472.753,331.878 460.874,333.409 493.08,334.941 499.099,336.472    486.99,338.002 476.317,339.531 484.655,341.064 492.179,342.597 497.007,344.128 461.086,345.66 491.383,347.193 493.639,348.726    465.796,350.26 471.24,351.793 490.758,353.327 489.298,354.857 468.087,356.388 486.882,357.923 477.085,359.455 491.55,360.99    485.124,362.526 491.767,364.062 476.938,365.599 486.196,376.295  " style="fill:#FF4D3F;"/><g><path d="M330.993,304.924c-2.25,0-3.879,0.676-4.849,2.011c-1.006,1.28-1.482,3.475-1.482,6.527v7.332    h12.571v-7.332c0-3.053-0.513-5.247-1.501-6.527C334.781,305.6,333.171,304.924,330.993,304.924z" style="fill:#FFFFFF;"/><g><path d="M281.976,304.686c-1.007,0-2.031,0.22-3.02,0.695s-1.958,1.226-2.928,2.23v45.271     c1.153,1.17,2.269,2.065,3.367,2.597c1.097,0.493,2.232,0.767,3.439,0.767c1.739,0,3.019-0.512,3.843-1.554     c0.805-1.024,1.226-2.669,1.226-5.01v-37.519c0-2.469-0.494-4.314-1.481-5.595C285.379,305.326,283.896,304.686,281.976,304.686z     " style="fill:#FFFFFF;"/><g><path d="M345.01,246.986H166.647c-28.36,0-51.342,26.215-51.342,55.176v42.145      c0,28.98,22.981,52.457,51.342,52.457H345.01c28.36,0,51.342-23.477,51.342-52.457v-42.145      C396.352,273.201,373.37,246.986,345.01,246.986z M204.12,282.525h-16.577v84.162h-16.029v-84.162h-16.559v-14.334h49.165      V282.525z M250.961,366.688h-14.217v-7.954c-2.635,2.943-5.343,5.192-8.197,6.71c-2.836,1.572-5.581,2.322-8.271,2.322      c-3.293,0-5.745-1.078-7.41-3.255c-1.647-2.157-2.507-5.375-2.507-9.745v-60.74h14.217v55.748c0,1.72,0.311,2.963,0.878,3.713      c0.623,0.805,1.592,1.17,2.928,1.17c1.024,0,2.36-0.512,3.97-1.536c1.592-1.023,3.074-2.322,4.392-3.895v-55.2h14.217V366.688z       M302.56,351.694c0,5.119-1.116,9.068-3.349,11.83c-2.214,2.742-5.453,4.096-9.66,4.096c-2.8,0-5.27-0.513-7.447-1.573      c-2.159-1.042-4.209-2.669-6.075-4.919v5.56h-14.363v-98.496h14.363v31.723c1.939-2.194,3.971-3.895,6.093-5.028      c2.178-1.188,4.355-1.737,6.569-1.737c4.501,0,7.94,1.536,10.301,4.626c2.379,3.108,3.568,7.625,3.568,13.585V351.694z       M351.853,332.111h-27.19v13.695c0,3.82,0.458,6.472,1.391,7.953c0.935,1.5,2.544,2.213,4.831,2.213      c2.36,0,3.989-0.622,4.94-1.883c0.915-1.262,1.409-4.023,1.409-8.283v-3.31h14.619v3.73c0,7.44-1.757,13.055-5.361,16.839      c-3.53,3.748-8.855,5.613-15.937,5.613c-6.386,0-11.417-1.992-15.059-5.997c-3.642-3.949-5.489-9.453-5.489-16.455v-32.655      c0-6.272,2.013-11.446,6.057-15.414c4.007-3.968,9.167-5.942,15.553-5.942c6.514,0,11.508,1.847,15.004,5.522      c3.494,3.675,5.232,8.941,5.232,15.834V332.111z" style="fill:#FFFFFF;"/><polygon points="168.55,115.927 189.995,181.475 189.995,224.46 208.018,224.46 208.018,179.427       229.005,115.927 210.67,115.927 199.528,159.314 198.394,159.314 186.683,115.927     " style="fill:#FFFFFF;"/><path d="M236.745,147.887c-4.282,3.675-6.441,8.593-6.441,14.828v41.486      c0,6.802,2.104,12.196,6.276,16.237c4.226,4.022,9.825,6.034,16.833,6.034c7.265,0,12.973-1.938,17.145-5.851      c4.117-3.913,6.203-9.251,6.203-16.108v-41.341c0-6.106-2.123-11.116-6.331-14.992c-4.244-3.858-9.66-5.796-16.303-5.796      C246.863,142.384,241.063,144.23,236.745,147.887z M260.458,162.094v43.625c0,2.139-0.659,3.821-1.922,5.065      c-1.28,1.225-3.019,1.829-5.178,1.829c-2.122,0-3.751-0.585-4.885-1.811c-1.134-1.207-1.702-2.889-1.702-5.083v-43.625      c0-1.737,0.622-3.145,1.812-4.242c1.244-1.079,2.817-1.609,4.775-1.609c2.123,0,3.824,0.53,5.123,1.609      C259.799,158.949,260.458,160.356,260.458,162.094z" style="fill:#FFFFFF;"/><path d="M335.422,224.46v-80.047h-16.011v60.758c-1.482,1.736-3.128,3.163-4.922,4.314      c-1.83,1.116-3.312,1.683-4.482,1.683c-1.5,0-2.599-0.42-3.257-1.298c-0.659-0.841-1.024-2.213-1.024-4.096v-61.361h-15.992      v66.901c0,4.772,0.951,8.338,2.818,10.696c1.884,2.396,4.646,3.602,8.361,3.602c3.019,0,6.093-0.86,9.276-2.56      c3.221-1.701,6.295-4.206,9.222-7.46v8.868H335.422z" style="fill:#FFFFFF;"/></g></g></g></g><g id="Layer_1"/></svg>