<?xml version="1.0" ?><!DOCTYPE svg  PUBLIC '-//W3C//DTD SVG 1.1//EN'  'http://www.w3.org/Graphics/SVG/1.1/DTD/svg11.dtd'><svg height="512px" style="enable-background:new 0 0 512 512;" version="1.1" viewBox="0 0 512 512" width="512px" xml:space="preserve" xmlns="http://www.w3.org/2000/svg" xmlns:xlink="http://www.w3.org/1999/xlink"><g id="social__x2C__media__x2C__social_media__x2C___sumbbleupon__x2C_"><polygon points="484.335,368.68 490.865,370.352 472.975,371.546 497.215,373.953 461.111,373.78    492.478,377.159 498.13,379.334 466.557,378.122 486.711,381.667 488.207,383.495 491.256,385.578 480.771,385.715    472.239,385.883 481.804,389.058 496.012,393.41 471.885,390.223 482.371,394.028 490.16,397.507 492.186,399.778 478.341,397.915    493.955,403.911 457.957,395.142 473.619,401.336 490.767,408.51 484.296,408.157 456.318,399.987 456.018,401.221 460.155,404.19    472.995,410.819 485.708,417.815 489.669,421.454 482.314,420.111 488.132,424.727 476.098,420.891 475.563,422.457    461.748,417.115 455.457,415.371 480.351,430.732 479.41,432.227 476.02,432.232 479.051,436.089 477.813,437.406 453.599,423.801    451.921,424.357 462.323,433.181 471.821,441.823 455.119,431.781 444.161,425.403 459.462,438.84 443.982,428.556 453.42,437.968    463.508,448.391 447.745,437.023 454.427,444.873 451.276,444.126 458.349,452.844 455.049,452.004 446.156,445.531    451.683,453.274 451.646,455.573 440.474,446.013 456.893,466.236 443.939,454.299 430.729,441.32 450.527,467.052 442.921,460.47    440.445,459.941 448.925,473.56 435.113,458.12 435.72,461.551 425.17,449.319 442.32,476.732 422.083,449.54 438.698,477.701    431.688,469.863 421.356,456.03 416.076,449.847 426.136,470.012 432.179,484.241 417.226,460.131 428.214,484.397    424.495,480.979 409.656,454.215 417.761,474.653 419.354,482.097 418.745,484.941 405.201,457.049 402.886,454.751    408.145,471.921 405.281,468.544 403.771,468.623 399.776,461.38 405.141,482.233 396.992,461.391 403.436,487.996    398.841,477.882 399.073,484.817 392.914,466.948 396.319,487.455 389.112,462.563 387.508,461.295 386.138,461.013    387.471,475.804 383.792,462.493 386.832,491.626 381.971,468.422 379.903,462.854 380.535,480.756 379.749,488.79    376.031,463.205 375.387,473.149 373.934,472.683 373.222,490.552 371.401,484.697 369.598,468.395 368.229,492.37    366.701,474.218 365.174,477.387 363.646,494.285 362.119,500.108 360.592,488.158 359.064,492.279 357.537,469.312    356.01,478.928 354.481,490.179 352.953,472.068 351.425,489.979 349.896,493.535 348.366,499.148 346.837,461.706    345.308,470.113 343.778,462.688 342.25,485.831 340.722,465.255 339.193,469.78 337.665,475.89 336.138,488.993 334.609,470.264    333.082,490.174 331.554,465.766 330.026,463.175 328.498,500.973 326.97,490.802 325.441,467.413 323.913,464.332    322.385,461.604 320.856,485.169 319.327,475.941 317.798,479.631 316.27,470.978 314.741,471.231 313.214,493.468    311.688,467.617 310.161,489.699 308.636,492.871 307.11,496.819 305.586,475.058 304.062,461.18 302.537,468.621 301.013,477.19    299.488,476.631 297.964,487.743 296.44,483.928 294.916,482.988 293.392,483.798 291.866,463.038 290.342,463.159    288.815,497.156 287.29,489.029 285.763,482.061 284.235,477.644 282.707,480.175 281.178,471.699 279.648,489.972    278.117,485.961 276.587,490.032 275.058,471.86 273.529,491.014 272.002,482.763 270.474,490.396 268.947,478.153 267.42,498.757    265.894,492.345 264.367,478.229 262.841,496.113 261.314,468.904 259.787,463.247 258.26,462.12 256.732,463.117 255.203,475.946    253.674,500.114 252.144,482.563 250.612,496.229 249.081,494.884 247.551,489.063 246.021,485.428 244.493,499.158    242.964,489.271 241.436,472.837 239.908,479.907 238.38,494.646 236.851,486.859 235.322,471.956 233.792,472.152    232.262,468.469 230.73,464.042 229.198,468.135 227.667,485.857 226.138,491.331 224.608,480.399 223.079,486.234    221.549,481.055 220.02,464.913 218.489,484.56 216.958,490.954 215.425,482.371 213.894,498.301 212.363,472.64 210.833,474.555    209.302,487.967 207.772,461.05 206.241,500.519 204.708,491.849 203.176,470.443 201.645,479.159 200.114,471.186    198.583,498.697 197.051,480.951 195.519,480.163 193.986,478.417 192.46,470.271 190.932,487.748 189.401,473.631    187.868,468.029 186.336,495.348 184.808,480.462 183.279,473.297 181.75,477.963 180.221,482.842 178.688,471.304 177.155,467.09    175.623,498.445 174.093,496.885 172.562,484.492 171.027,461.289 169.494,493.477 167.962,476.639 166.429,485.123    164.894,485.09 163.36,464.897 161.825,477.152 160.291,498.741 158.756,461.792 157.224,500.295 155.693,467.47 154.157,472.872    152.623,472.895 151.087,485.956 149.549,462.25 148.014,491.759 146.475,481.315 144.933,466.188 143.392,463.164 141.663,495.52    140.348,479.973 138.419,490.09 138.054,466.162 136.122,474.867 133.279,491.844 132.024,487.223 129.965,491.127    128.031,493.107 129.601,468.803 124.471,493.674 123.224,490.623 125.724,466.977 123.175,472.989 118.327,489.292    115.95,492.247 113.865,493.549 117.812,470.505 111.994,486.86 113.959,473.639 114.666,465.962 109.068,479.372 114.544,457.392    105.306,480.604 108.373,467.14 100.773,483.544 99.707,481.64 107.255,458.438 103.765,463.379 105.634,455.557 101.908,460.668    89.674,483.578 99.497,459.33 87.175,480.818 83.296,484.598 90.996,466.449 90.735,463.793 89.299,463.312 91.535,456.584    78.657,475.066 87.956,457.069 74.188,475.719 91.932,445.955 88.233,449.098 72.086,469.633 66.369,474.641 84.327,447.634    82.311,448.06 74.52,455.692 68.456,460.745 73.708,451.938 58.421,467.426 76.993,443.745 58.592,461.97 71.928,445.155    61.979,453.463 61.103,452.063 68.428,442.587 67.089,441.878 54.633,451.538 72.601,432.957 49.97,451.249 53.856,445.651    52.281,444.869 51.881,443.103 69.854,426.796 53.349,437.904 49.285,439.012 53.503,433.955 45.823,437.526 63.615,423.329    49.76,430.983 51.264,428.179 58.066,422.135 56.667,421.384 57.208,419.45 58.855,416.926 49.742,420.468 55.289,415.826    48.291,417.93 56.237,412.31 46.803,415.401 50.14,412.221 23.54,422.697 29.07,418.331 36.892,413.206 36.68,411.591    41.504,408.041 42.103,406.229 31.452,408.453 44.64,402.25 23.715,407.557 30.669,403.599 51.477,395.793 19.612,403.352    40.154,396.088 19.991,399.635 17.802,398.354 46.79,390.14 21.407,394.018 28.185,390.976 25.623,389.807 22.244,388.702    27.216,386.263 21.753,385.389 34.157,382.181 38.04,380.248 26.552,379.882 41.132,377.094 23.059,376.906 26.403,375.075    41.602,372.864 31.509,371.739 36.847,370.138 29.197,368.68 15.573,367.153 39.44,365.627 41.604,364.102 48.799,362.575    41.602,361.049 29.356,359.522 27.96,357.996 32.406,356.47 19.111,354.942 26.501,353.416 15.826,351.889 50.472,350.36    19.818,348.833 35.107,347.304 33.057,345.776 27.145,344.248 27.74,342.721 40.962,341.193 42.668,339.666 42.073,338.14    17.023,336.612 27.075,335.086 12.202,333.559 42.104,332.032 31.255,330.506 31.133,328.979 18.929,327.452 21.683,325.925    28,324.398 13.493,322.872 24.669,321.345 30.654,319.816 32.35,318.288 44.501,316.761 13.968,315.234 28.241,313.708    43.167,312.183 19.815,310.657 49.39,309.133 21.945,307.609 35.847,306.085 12.573,304.562 17.661,303.038 30.129,301.516    25.297,299.992 31.062,298.47 20.429,296.946 26.998,295.423 12.91,293.899 50.718,292.376 23.378,290.853 48.776,289.327    21.251,287.803 49.159,286.277 37.455,284.751 19.793,283.224 40.265,281.695 33.01,280.167 45.951,278.637 37.244,277.108    48.677,275.58 25.289,274.053 31.201,272.525 33.373,271 14.415,269.474 42.074,267.948 34.635,266.423 33.824,264.897    37.739,263.372 27.231,261.847 43.941,260.32 50.928,258.794 20.869,257.268 13.928,255.74 41.086,254.211 30.633,252.682    27.838,251.152 41.703,249.622 44.955,248.093 11.895,246.565 38.345,245.037 17.825,243.51 42.329,241.983 37.204,240.456    19.323,238.929 11.707,237.401 40.999,235.874 13.052,234.345 18.005,232.815 11.104,231.285 18.718,229.754 19.077,228.225    40.217,226.696 28.875,225.167 41.774,223.639 24.606,222.111 17.661,220.582 29.026,219.053 46.916,217.523 31.401,215.991    27.93,214.461 40.81,212.931 40.392,211.402 41.294,209.873 31.003,208.344 49.62,206.813 47.852,205.283 27.523,203.751    45.983,202.221 33.428,200.691 48.849,199.161 28.469,197.631 31.81,196.1 13.525,194.568 29.705,193.043 22.579,191.516    35.722,189.986 48.306,188.454 28.49,186.924 23.2,185.396 33.177,183.869 38.844,182.341 25.855,180.813 12.093,179.282    23.039,177.749 35.024,176.219 35.48,174.689 30.365,173.159 41.725,171.626 30.972,170.094 47.869,168.563 45.57,167.031    20.094,165.497 18.51,163.965 21.271,162.431 33.74,160.898 26.826,159.363 47.45,157.833 13.454,156.303 15.083,154.768    22.026,153.235 21.381,151.7 48.078,150.164 42.1,148.629 24.82,147.091 17.807,145.551 49.44,144.011 38.887,142.581    18.724,140.612 21.388,139.017 39.483,138.323 50.52,137.64 18.646,133.774 18.967,132.091 50.288,133.774 40.727,131.318    22.438,127.399 24.596,126.036 26.729,124.718 37.083,124.925 32.045,122.454 24.787,119.369 50.551,123.381 42.442,120.133    27.899,115.026 50.252,119.268 46.568,116.874 32.412,111.271 37.604,111.225 48.816,113.278 52.247,113.009 51.931,111.51    29.569,101.79 37.104,102.928 21.812,95.083 26.697,95.193 41.789,99.878 48.577,101.285 30.885,91.431 31.261,89.719    51.095,97.785 53.121,97.247 40.5,88.894 29.468,80.947 61.739,97.394 54.935,91.873 60.577,93.681 43.157,81.157 42.253,78.646    42.229,76.651 39.502,72.76 45.229,74.711 51.352,77.141 65.43,85.752 55.732,76.595 59.044,77.294 43.452,62.687 50.201,66.048    61.368,73.479 52.009,63.219 49.571,58.751 56.512,62.872 62.985,66.838 64.901,66.592 67.81,67.398 78.953,76.893 62.711,57.625    71.057,64.413 57.896,47.297 73.273,62.484 70.966,57.436 74.305,59.096 64.339,44.092 73.965,53.751 67.982,43.155 76.408,51.823    76.023,48.58 76.711,46.765 78.331,46.29 81.112,47.639 77.669,39.205 83.348,45.285 76.953,31.339 80.238,33.497 89.209,46.097    82.381,30.122 95.665,51.903 94.793,47.005 101.954,58.399 102.682,56.874 101.748,51.627 90.941,23.273 107.527,58.279    105.95,50.942 100.54,33.151 102.543,33.885 100.98,24.708 111.817,51.204 112.579,49.218 106.983,26.546 112.014,37.673    113.684,38.026 113.886,32.912 111.988,18.832 116.261,29.293 119.48,36.4 120.776,35.228 119.059,18.279 123.969,35.846    126.678,43.077 123.717,13.953 130.716,52.026 131.529,48.208 132.849,48.176 133.949,45.844 134.51,36.023 137.01,51.078    137.048,28.085 139.182,41.648 139.929,17.125 141.8,27.579 143.392,36.653 144.919,21.604 146.446,35.105 147.974,30.457    149.5,23.146 151.028,16.129 152.556,14.707 154.083,43.021 155.611,25.354 157.139,19.609 158.667,11.733 160.195,14.494    161.724,47.487 163.253,12.624 164.783,29.718 166.313,32.675 167.841,30.659 169.37,46.211 170.898,46.585 172.427,18.236    173.955,25.347 175.482,42.072 177.011,30.039 178.538,24.276 180.066,14.392 181.594,22.397 183.122,20.375 184.65,44.848    186.179,15.305 187.707,23.044 189.235,19.45 190.764,16.214 192.293,30.603 193.822,43.823 195.351,44.597 196.879,34.617    198.406,34.963 199.933,49.641 201.458,46.181 202.984,34.236 204.509,47.905 206.034,16.267 207.559,47.612 209.083,29.177    210.607,40.783 212.131,34.446 213.656,46.5 215.18,43.165 216.704,46.819 218.229,26.118 219.753,35.749 221.279,30.725    222.804,22.932 224.331,46.512 225.857,43.314 227.385,33.617 228.913,32.119 230.442,45.831 231.972,29.391 233.503,36.232    235.033,15.129 236.562,24.314 238.09,19.761 239.619,43.731 241.146,40.181 242.673,14.394 244.2,34.075 245.726,46.672    247.253,19.486 248.779,23.727 250.306,27.798 251.833,35.871 253.36,21.313 254.888,12.81 256.417,46.582 257.946,51.237    259.477,46.352 261.008,40.992 262.539,11.8 264.069,28.357 265.599,37.116 267.128,14.552 268.656,16.027 270.185,26.553    271.712,29.155 273.24,50.683 274.77,27.158 276.298,42.181 277.828,12.81 279.358,51.04 280.891,39.971 282.422,30.905    283.952,14.252 285.482,18.68 287.012,13.859 288.541,22.721 290.07,44.594 291.601,32.102 293.131,35.486 294.662,33.449    296.194,25.768 297.727,50.137 299.257,45.097 300.787,16.467 302.317,21.979 303.848,21.458 305.379,45.273 306.911,38.434    308.444,45.435 309.976,32.445 311.506,50.849 313.037,42.736 314.568,45.135 316.102,47.167 317.634,18.744 319.16,24.422    320.688,27.445 322.219,13.207 323.753,16.483 325.283,20.386 326.813,37.235 328.341,47.116 329.87,28.12 331.399,18.505    332.932,28.292 334.466,33.206 335.997,16.347 337.527,29.545 339.059,31.802 340.593,29.474 342.126,39.523 343.658,25.523    345.191,51.611 346.727,14.369 348.26,42.364 349.795,28.324 351.329,15.043 352.864,48.173 354.396,39.069 355.927,12.285    357.464,48.022 358.997,22.744 360.533,27.615 362.071,24.532 363.606,43.208 365.146,33.366 366.687,33.964 368.229,26.785    369.786,29.99 371.438,26.501 373.106,25.049 374.862,22.581 375.682,35.166 377.01,37.255 377.371,49.026 382.563,13.194    383.231,22.521 383.938,29.76 386.702,21.946 387.767,25.895 386.89,40.155 393.166,15.156 390.308,37.875 391.411,39.741    391.381,46.241 399.478,19.5 399.397,26.669 394.317,51.039 404.916,19.67 407.132,18.529 405.936,28.035 408.814,24.728    412.189,20.394 404.589,46.062 411.236,32.81 408.684,43.525 419.046,22.583 411.182,45.192 406.693,58.735 420.839,31.488    414.593,48.277 416.4,47.917 413.834,56.05 423.926,40.096 426.323,39.092 431.295,33.7 423.689,50 417.223,63.486 430.263,45.134    435.741,39.608 426.669,56.28 420.937,67.175 433.92,51.007 439.953,45.353 447.321,38.262 439.847,50.95 447.118,44.341    429.477,68.781 430.077,70.129 453.225,45.234 435.378,68.117 446.011,58.462 447.979,58.663 437.026,72.399 436.13,75.246    439.235,74.037 454.897,60.862 457.409,60.76 458.132,62.349 451.549,70.4 465.39,60.48 468.358,60.273 448.8,78.517    447.222,81.579 444.646,85.309 472.965,65.706 459.018,78.09 471.479,71.154 454.682,84.792 461.958,81.652 466.334,80.648    461.026,85.87 473.079,80.266 460.642,89.573 475.095,82.975 449.62,99.043 463.919,92.794 482.381,84.875 482.973,86.545    466.251,96.604 464.295,99.157 471.689,97.406 453.321,107.105 461.846,104.89 459.147,107.477 479.215,101.135 458.404,110.6    492.434,99.882 480.798,105.738 492.934,103.5 474.997,110.938 474.085,112.797 471.795,115.005 467.337,117.707 492.44,112.866    488.481,115.585 486.395,117.785 461.086,124.716 496.021,119.281 487.27,122.654 478.076,125.845 468.99,128.75 479.149,128.766    476.172,130.669 493.168,130.322 478.26,133.457 477.96,134.994 464.676,137.404 500.099,136.821 462.678,140.121 479.398,140.97    471.596,142.604 499.231,144.011 466.85,145.537 471.83,147.063 476.014,148.589 483.179,150.115 476.592,151.642 492.872,153.168    499.986,154.694 464.716,156.221 470.531,157.748 463.345,159.275 468.988,160.802 494.842,162.33 470.903,163.858 499.98,165.386    476.885,166.915 492.591,168.442 469.084,169.97 497.453,171.497 461.113,173.024 487.22,174.551 482.06,176.078 471.087,177.604    474.51,179.131 494.231,180.658 496.155,182.185 491.51,183.711 480.018,185.239 466.475,186.766 474.298,188.293 462.499,189.82    494.543,191.348 461.566,192.876 463.026,194.404 493.309,195.932 488.197,197.458 466.9,198.984 495.521,200.51 476.662,202.035    465.18,203.559 463.481,205.083 486.906,206.607 463.734,208.13 492.551,209.653 489.83,211.177 498.063,212.7 487.312,214.223    463.15,215.746 487.226,217.269 484.206,218.792 464.418,220.316 478.904,221.84 487.53,223.364 464.481,224.889 469.638,226.415    480.762,227.941 484.82,229.468 468.823,230.996 490.394,232.525 491.547,234.055 472.123,235.583 478.335,237.112    475.434,238.639 497.921,240.166 464.462,241.692 475.424,243.218 467.755,244.744 497.761,246.269 469.485,247.794    499.964,249.32 473.256,250.845 499.166,252.371 466.93,253.897 467.717,255.424 496.314,256.952 477.353,258.48 478.153,260.009    487.271,261.539 473.583,263.069 475.702,264.599 466.996,266.127 471.744,267.654 497.249,269.182 497.186,270.709    473.229,272.235 461.505,273.763 498.967,275.29 492.435,276.818 479.823,278.347 494.157,279.876 465.771,281.407    490.707,282.938 495.293,284.467 478.041,285.996 479.187,287.524 499.99,289.053 472.378,290.58 465.498,292.109 488.777,293.639    462.485,295.169 464.299,296.7 462.158,298.23 471.415,299.76 491.757,301.289 479.837,302.818 488.483,304.348 487.499,305.878    477.739,307.408 478.495,308.939 469.829,310.47 485.368,312 485.915,313.53 486.988,315.061 471.28,316.592 485.173,318.123    476.864,319.648 478.313,321.176 493.493,322.705 473.457,324.237 492.463,325.767 474.64,327.295 465.797,328.822 479.683,330.35    474.97,331.878 475.289,333.409 492.839,334.941 485.958,336.472 465.251,338.002 471.03,339.531 470.955,341.064 481.224,342.597    466.407,344.128 465.963,345.66 490.592,347.193 471.148,348.726 479.021,350.26 488.229,351.793 460.971,353.327 474.959,354.857    474.307,356.388 470.786,357.923 493.287,359.455 480.486,360.99 491.417,362.526 463.54,364.062 478.646,365.599 472.951,376.328     " style="fill:#FF4518;"/><g><path d="M238.574,298.835v-84.942c0-7.863,2.727-17.169,17.254-17.169c14.51,0,18.078,9.306,18.078,17.169    v16.199l16.925,9.142l26.659-9.142v-16.199c0-33.369-26.97-60.521-61.662-60.521c-34.673,0-61.478,27.152-61.478,60.521v84.942    c0,7.826-5.087,17.645-17.657,17.645s-17.73-9.818-17.73-17.645v-33.387h-43.657v33.387c0,33.332,28.196,60.483,62.869,60.483    C212.867,359.318,238.574,332.185,238.574,298.835z" style="fill:#FFFFFF;"/><path d="M353.079,298.835c0,7.826-4.849,17.461-17.914,17.461c-13.101,0-17.931-9.635-17.931-17.461    v-33.802l-26.111,9.101l-17.161-9.101v34.954c0,33.368,24.829,59.331,59.501,59.331c34.692,0,62.889-27.134,62.889-60.483v-33.802    h-43.272V298.835z" style="fill:#FFFFFF;"/></g></g><g id="Layer_1"/></svg>