<?xml version="1.0" ?><!DOCTYPE svg  PUBLIC '-//W3C//DTD SVG 1.1//EN'  'http://www.w3.org/Graphics/SVG/1.1/DTD/svg11.dtd'><svg height="512px" style="enable-background:new 0 0 512 512;" version="1.1" viewBox="0 0 512 512" width="512px" xml:space="preserve" xmlns="http://www.w3.org/2000/svg" xmlns:xlink="http://www.w3.org/1999/xlink"><g id="social__x2C__media__x2C__social_media__x2C___share__x2C_"><polygon points="482.805,368.68 485.354,370.277 472.382,371.529 487.773,373.572 485.9,375.107    469.229,375.603 488.778,378.572 499.479,381.243 479.231,380.854 489.361,383.628 490.189,385.421 488.616,386.894    460.608,383.977 473.336,387.546 487.498,391.757 477.939,391.476 492.766,396.329 495.021,398.636 484.036,397.736    487.418,400.323 466.922,396.336 478.01,401.06 493.407,407.476 491.504,408.729 490.899,410.403 460.438,401.428 460.557,402.908    472.973,409.153 482.45,414.629 457.266,405.899 462.898,409.776 480.562,419.313 487.848,424.588 473.877,419.807    483.617,426.504 482.521,427.921 480.979,429.079 460.643,419.784 482.908,434.23 459.182,422.27 450.209,418.479 458.823,425.447    464.04,430.573 468.063,435.131 446.61,422.359 455.026,429.911 461.893,436.713 449.2,429.165 442.204,425.523 449.766,433.146    450.673,435.713 460.703,446.02 463.231,450.369 466.412,455.47 460.326,452.37 462.118,456.36 438.145,435.739 456.668,455.901    458.919,460.584 449.837,453.675 439.55,445.011 450.533,459.224 443.62,453.925 438.985,450.921 441.761,456.548 434.927,450.631    431.892,449.122 442.427,465.112 434.125,456.783 426.136,448.34 427.787,453.011 422.837,448.278 428.648,459.397    421.065,450.412 428.729,465.127 430.528,471.07 430.879,474.887 430.335,477.326 416.267,455.461 425.044,474.692    415.171,459.221 410,452.03 417.539,470.506 418.267,475.712 420.259,484.045 420.814,489.655 415.844,482.474 406.464,463.659    405.813,465.831 406.967,473.053 406.587,476.529 402.229,468.56 400.68,468.444 395.96,458.056 398.258,470.366 397.435,472.797    396.352,474.475 396.822,482.527 391.62,467.42 390.86,470.394 391.341,479.767 386.637,463.519 390.215,491.092 387.522,485.182    385.417,482.044 383.763,481.498 382.737,485.948 379.715,473.045 380.583,497.391 378.906,498.749 375.476,474.117    375.104,494.238 373.316,492.46 371.362,482.6 369.682,473.379 368.246,495.979 366.719,497.197 365.191,492.931 363.664,484.397    362.137,488.89 360.609,466.876 359.082,488.969 357.555,486.91 356.027,492.986 354.499,476.913 352.971,476.346 351.442,480.563    349.914,482.485 348.385,498.731 346.854,477.631 345.325,467.208 343.797,461.827 342.268,462.315 340.739,466.524    339.211,490.268 337.683,463.446 336.155,491.555 334.627,467.075 333.1,467.611 331.571,478.753 330.044,498.704 328.516,479.241    326.987,494.195 325.459,473.569 323.931,464.27 322.402,472.007 320.874,470.723 319.345,499.27 317.815,468.507 316.287,465.353    314.759,494.568 313.231,490.867 311.705,480.825 310.179,462.287 308.653,469.213 307.128,483.309 305.604,493.323    304.079,492.21 302.555,488.446 301.03,477.223 299.506,484.724 297.982,486.853 296.458,491.595 294.934,485.374 293.409,480.942    291.884,490.053 290.359,465.996 288.833,471.054 287.308,478.553 285.78,482.604 284.253,493.01 282.725,469.701 281.196,497.386    279.666,483.428 278.135,473.774 276.605,484.954 275.076,488.523 273.547,488.331 272.02,471.002 270.492,490.414    268.965,483.934 267.438,467.587 265.911,463.014 264.385,488.363 262.858,473.992 261.332,463.601 259.805,486.312    258.277,476.683 256.75,479.152 255.221,489.898 253.692,482.899 252.162,475.219 250.63,461.996 249.099,472.684 247.569,468.639    246.04,462.87 244.511,465.933 242.982,496.248 241.454,498.853 239.926,496.608 238.398,466.786 236.869,473.437 235.34,487.445    233.811,463.705 232.28,483.52 230.748,462.451 229.216,475.807 227.686,498.43 226.156,474.355 224.626,471.229 223.097,487.716    221.567,474.423 220.038,484.538 218.507,490.656 216.976,486.503 215.444,484.048 213.912,491.972 212.381,477.842    210.851,490.753 209.321,475.929 207.791,497.028 206.259,470.747 204.727,484.752 203.195,481.95 201.663,462.709    200.132,475.367 198.602,499.954 197.07,484.955 195.537,491.479 194.005,466.758 192.479,463.727 190.95,478.401 189.419,484.975    187.886,465.129 186.355,471.592 184.826,489.213 183.297,472.856 181.769,468.273 180.239,479.247 178.707,475.099    177.173,497.051 175.642,481.574 174.111,470.597 172.58,467.554 171.046,477.635 169.513,466.833 167.98,498.052 166.447,471.835    164.912,466.611 163.379,491.189 161.844,491.337 160.31,495.123 158.774,475.826 157.243,497.347 155.711,471.08 154.175,494.146    152.641,485.268 151.105,496.402 149.568,463.399 148.032,493.512 146.493,498.02 144.952,484.486 143.41,471.766 142.09,465.964    140.151,488.047 138.666,484.394 137.198,482.209 136.762,465.699 135.313,467.072 131.454,493.548 129.181,498.533    128.863,486.434 128.491,477.134 129.468,460.447 127.542,464.349 120.688,495.319 119.059,494.479 122.83,467.557    122.066,464.609 118.476,474.01 112.407,492.208 111.981,487.009 115.196,469.267 111.997,475.081 107.267,485.24 104.801,487.457    102.635,488.514 99.468,492.248 99.681,486.526 96.57,489.834 96.94,484.133 99.769,472.955 94.144,482.046 92.04,482.579    100.326,460.83 86.099,487.016 94.688,465.869 92.345,467.168 84.667,478.262 87.151,470.289 80.49,478.727 89.659,459.79    92.064,453.071 84.928,461.902 90.867,449.944 84.819,456.642 71.888,472.932 77.736,461.664 76.86,460.225 80.374,452.949    76.315,455.861 77.001,452.57 70.265,458.539 80.795,443.479 72.483,451.106 78.976,441.518 66.508,453.264 64.375,453.261    61.6,453.873 66.514,446.586 49.291,461.489 58.899,449.754 47.839,457.911 50.734,452.86 69.614,433.863 44.213,453.969    55.547,442.143 47.016,447.078 40.187,450.329 55.349,436.371 43.942,443.021 46.827,438.826 43.121,439.456 47.469,434.432    57.894,425.562 63.216,420.452 55.035,424.047 61.255,418.58 49.692,423.899 52.711,420.462 46.984,422.003 49.119,419.147    31.186,426.831 47.607,416.64 58.683,409.643 36.621,418.558 40.288,415.135 57.847,405.804 21.902,419.494 43.489,408.851    28.754,412.982 39.348,407.256 36.657,406.605 53.74,399.168 28.981,405.849 50.721,397.388 34.857,400.69 27.71,401.088    26.017,399.837 47.434,392.767 24.808,396.714 39.138,391.836 26.947,392.872 44.848,387.771 17.963,391.176 50.688,384.029    38.262,384.604 23.583,385.142 31.984,382.448 14.235,382.83 45.16,378.118 22.154,378.63 32.271,376.285 20.276,375.403    38.149,373.004 35.967,371.619 44.591,370.035 48.969,368.68 32.184,367.153 25.461,365.627 15.464,364.102 15.262,362.575    40.471,361.049 46.114,359.522 11.114,357.996 34.354,356.47 27.538,354.942 48.112,353.416 50.352,351.889 42.683,350.36    44.864,348.833 33.38,347.304 44.037,345.776 13.522,344.248 12.918,342.721 39.551,341.193 15.595,339.666 26.429,338.14    33.525,336.612 39.529,335.086 36.145,333.559 29.114,332.032 16.191,330.506 25.36,328.979 47.987,327.452 30.484,325.925    22.199,324.398 45.138,322.872 50.209,321.345 43.609,319.816 30.156,318.288 21.705,316.761 20.145,315.234 37.346,313.708    46.798,312.183 41.917,310.657 44.445,309.133 15.416,307.609 26.766,306.085 25.175,304.562 33.5,303.038 41.615,301.516    45.124,299.992 20.045,298.47 12.981,296.946 49.976,295.423 26.351,293.899 37.629,292.376 46.247,290.853 18.588,289.327    33.585,287.803 30.521,286.277 21.332,284.751 25.847,283.224 21.832,281.695 46.036,280.167 36.327,278.637 47.86,277.108    18.92,275.58 42.498,274.053 16.853,272.525 15.799,271 37.942,269.474 37.321,267.948 19.391,266.423 31.904,264.897    44.916,263.372 35.635,261.847 14.229,260.32 22.915,258.794 45.446,257.268 48.211,255.74 41.768,254.211 49.678,252.682    14.114,251.152 47.436,249.622 15.927,248.093 31.672,246.565 50.354,245.037 50.075,243.51 28.43,241.983 25.209,240.456    44.552,238.929 15.594,237.401 27.673,235.874 14.05,234.345 38.148,232.815 28.77,231.285 45.975,229.754 31.197,228.225    41.46,226.696 15.342,225.167 48.919,223.639 50.612,222.111 12.994,220.582 19.483,219.053 20.575,217.523 27.596,215.991    43.993,214.461 11.788,212.931 38.31,211.402 46.605,209.873 11.965,208.344 16.579,206.813 30.964,205.283 35.221,203.751    26.947,202.221 47.257,200.691 14.151,199.161 43.056,197.631 14.255,196.1 38.439,194.568 16.395,193.043 24.327,191.516    37.472,189.986 23.646,188.454 49.889,186.924 42.855,185.396 25.405,183.869 27.303,182.341 19.611,180.813 38.222,179.282    26.798,177.749 39.758,176.219 44.56,174.689 31.863,173.159 16.513,171.626 24.123,170.094 44.821,168.563 31.837,167.031    16.953,165.497 43.649,163.965 28.275,162.431 34.995,160.898 38.462,159.363 18.399,157.833 50.652,156.303 25.343,154.768    42.475,153.235 39.973,151.7 42.685,150.164 47.318,148.629 31.13,147.091 33.022,145.551 38.139,144.011 12.742,142.231    27.18,140.837 12.429,138.658 36.6,138.163 40.38,136.955 47.933,136.149 44.573,134.519 34.323,132.041 26.284,129.549    36.66,129.333 41.723,128.607 17.374,123.181 43.7,126.108 15.799,119.318 18.562,118.077 49.276,123.09 33.788,118.086    24.136,114.086 17.575,110.6 52.933,118.661 20.549,107.769 26.298,107.715 55.059,115.303 49.404,112.044 32.66,104.649    30.783,102.236 23.421,97.626 57.008,109.273 53.89,106.591 46.53,101.938 24.401,90.357 27.438,89.803 55.668,101.571    43.875,94.153 40.949,90.918 60.654,99.719 28.915,80.625 47.141,89.02 46.124,86.659 36.571,79.021 62.543,93.345 33.519,72.979    50.16,81.941 64.656,90.056 61.137,85.968 53.697,78.841 51.223,75.094 58.07,78.389 53.979,73.268 59.282,75.584 42.129,59.273    65.765,77.261 46.212,58.078 65.928,73.621 52.22,58.842 74.944,78.319 56.629,58.408 53.821,53.188 78.505,76.422 58.889,53.512    74.559,68.259 71.532,62.718 66.754,54.889 79.457,67.572 77.087,62.505 75.946,58.745 83.972,66.741 72.638,49.36 85.844,64.787    67.47,36.449 88.547,63.99 84.781,55.952 76.392,40.317 80.884,44.306 86.839,50.998 81.111,38.362 88.993,48.774 96.327,58.932    96.215,55.907 92.809,46.372 84.198,25.854 100.357,55.073 90.095,29.919 90.92,27.586 92.125,25.957 101.764,44.457    96.229,26.731 104.155,42.473 98.919,24.06 105.455,37.247 107.318,37.921 113.508,52.056 110.009,36.264 116.015,51.211    112.377,33.292 114.889,36.641 118.902,46.445 115.209,24.755 123.094,52.693 116.91,16.432 120.526,25.808 125.193,42.636    123.363,22.783 129.258,50.767 128.495,35.605 129.144,28.585 132.23,42.318 134.208,48.319 132.826,14.982 137.05,51.426    137.336,33.088 139.008,36.888 140.01,19.485 141.957,37.934 143.41,20.523 144.938,20.776 146.465,42.582 147.992,18.935    149.519,49.412 151.046,27.445 152.574,30.556 154.102,40.631 155.629,15.864 157.157,22.413 158.686,13.957 160.214,41.82    161.743,46.557 163.272,24.79 164.801,11.856 166.331,21.1 167.86,33.126 169.388,17.313 170.917,28.665 172.445,38.197    173.973,31.037 175.501,24.844 177.029,42.174 178.557,13.041 180.084,51.486 181.612,34.966 183.14,21.527 184.668,26.333    186.197,35.111 187.726,14.445 189.253,33.849 190.782,45.336 192.312,16.244 193.841,15.305 195.369,38.301 196.897,18.654    198.424,26.461 199.951,24.242 201.477,26.322 203.002,23.753 204.528,26.175 206.053,29.179 207.577,26.768 209.102,50.958    210.626,13.038 212.15,36.649 213.674,34.739 215.198,27.676 216.723,35.872 218.247,33.816 219.772,22.828 221.297,26.631    222.823,22.908 224.349,28.827 225.875,13.534 227.403,21.807 228.931,33.079 230.46,43.297 231.99,51.6 233.521,15.878    235.051,39.09 236.58,30.642 238.109,15.026 239.637,22.898 241.164,51.05 242.691,34.021 244.218,23.504 245.745,49.934    247.271,49.402 248.797,37.643 250.324,23.018 251.851,41.469 253.378,15.883 254.906,25.177 256.435,25.367 257.965,50.275    259.495,51.309 261.026,19.025 262.558,21.378 264.087,38.519 265.616,28.87 267.146,14.208 268.674,46.511 270.202,12.851    271.73,11.76 273.259,20.599 274.787,17.651 276.316,17.247 277.846,43.83 279.377,47.283 280.908,19.839 282.439,47.302    283.971,22.037 285.5,42.76 287.03,21.637 288.56,49.782 290.089,19.464 291.618,24.768 293.148,17.946 294.68,31.162    296.213,47.6 297.744,13.458 299.275,18.989 300.806,38.882 302.336,26.697 303.866,41.69 305.397,44.202 306.929,39.1    308.462,32.919 309.993,16.167 311.523,19.812 313.055,14.671 314.586,31.017 316.119,23.207 317.651,18.84 319.178,27.122    320.706,41.332 322.236,12.848 323.771,22.252 325.301,46.348 326.83,29.821 328.358,15.079 329.888,40.065 331.417,11.798    332.949,29.885 334.483,21.924 336.015,51.092 337.545,48.904 339.076,24.757 340.61,49.136 342.144,40.135 343.676,24.478    345.209,19.168 346.744,31.249 348.277,31.338 349.813,44.852 351.347,29.075 352.882,23.744 354.413,36.461 355.944,40.508    357.48,18.171 359.015,46.072 360.551,16.827 362.089,40.932 363.624,29.961 365.163,39.279 366.704,17.699 368.246,43.456    369.882,24.127 371.308,32.048 373.574,13.919 373.944,39.991 376.306,26.157 377.698,28.969 379.622,25.379 381.297,25.027    383.771,18.249 383.374,34.028 383.906,40.716 387.357,28.488 390.34,20.896 387.579,44.301 392.003,29.741 391.74,38.322    394.283,33.986 397.399,27.897 401.141,20.175 403.879,16.849 397.082,46.359 401.989,35.198 402.248,39.443 407.785,27.83    411.108,23.477 411.238,28.168 413.723,26.409 404.916,52.906 415.325,31.511 411.857,43.67 411.139,48.905 420.95,31.289    421.725,33.579 415.646,49.438 417.263,49.467 430.538,27.808 420.769,49.144 418.153,56.686 418.313,59.128 430.868,41.097    419.416,62.417 427.652,52.128 435.942,42.38 430.325,53.514 426.64,61.326 444.807,38.71 433.25,57.109 447.138,41.484    446.084,45.683 446.713,47.61 443.167,54.499 451.344,47.435 454.321,46.675 442.711,62.108 447.622,59.063 459.603,48.846    452.168,58.969 453.08,60.367 437.927,77.184 443.074,74.183 465.557,55.596 464.755,58.726 446.951,76.374 465.622,62.576    446.642,80.281 445.53,82.928 452.773,79.043 466.284,70.741 459.469,77.769 445.854,89.3 477.1,69.377 478.178,70.827    478.054,73.059 457.147,88.309 481.19,75.32 453.479,93.807 470.896,85.389 453.978,96.629 460.481,94.648 483.237,84.435    473.382,91.36 481.466,89.231 481.688,91.021 482.372,92.578 480.764,95.144 464.566,103.754 458.36,107.784 477.259,101.895    475.178,104.371 467.673,108.691 477.719,106.794 462.938,113.258 491.303,105.889 486.469,109.152 494.006,108.795    467.691,117.615 461.574,120.581 468.044,120.416 493.082,116.296 460.153,124.894 476.223,123.109 481.846,123.63    477.423,125.954 495.079,124.823 476.274,129.16 478.759,130.354 469.891,132.855 474.405,133.822 485.544,134.384    496.134,135.269 499.438,136.856 479.604,139.443 464.575,141.367 477.706,142.514 469.59,144.011 489.646,145.537    482.678,147.063 463.105,148.589 472.452,150.115 487.589,151.642 464.414,153.168 497.801,154.694 489.638,156.221    478.149,157.748 499.456,159.275 467.443,160.802 480.036,162.33 471.39,163.858 488.92,165.386 484.616,166.915 476.965,168.442    468.723,169.97 478.504,171.497 473.235,173.024 495.211,174.551 467.36,176.078 489.774,177.604 497.103,179.131 469.385,180.658    479.515,182.185 480.922,183.711 478.825,185.239 464.877,186.766 462.609,188.293 488.201,189.82 495.396,191.348    462.612,192.876 476.783,194.404 499.344,195.932 496.647,197.458 478.91,198.984 485.872,200.51 470.155,202.035 472.859,203.559    481.659,205.083 478.184,206.607 475.584,208.13 477.752,209.653 464.066,211.177 483.285,212.7 486.479,214.223 493.117,215.746    497.247,217.269 481.04,218.792 483.303,220.316 461.343,221.84 482.883,223.364 499.182,224.889 478.057,226.415 472.081,227.941    467.212,229.468 495.632,230.996 475.652,232.525 469.301,234.055 477.595,235.583 481.857,237.112 465.979,238.639    464.985,240.166 462.91,241.692 483.472,243.218 477.941,244.744 465.719,246.269 499.033,247.794 474.364,249.32 466.686,250.845    498.416,252.371 480.625,253.897 480.593,255.424 465.287,256.952 461.436,258.48 500.532,260.009 470.286,261.539    492.135,263.069 467.344,264.599 497.974,266.127 465.821,267.654 485.272,269.182 483.562,270.709 496.842,272.235    494.517,273.763 474.947,275.29 497.154,276.818 495.31,278.347 494.069,279.876 465.603,281.407 490.013,282.938 488.025,284.467    469.045,285.996 478.578,287.524 490.677,289.053 482.134,290.58 494.602,292.109 466.763,293.639 469.044,295.169 468.373,296.7    463.74,298.23 472.455,299.76 500.225,301.289 488.502,302.818 494.329,304.348 499.669,305.878 483.777,307.408 480.302,308.939    492.127,310.47 472.147,312 484.609,313.53 481.42,315.061 466.085,316.592 468.33,318.123 461.734,319.648 473.267,321.176    492.165,322.705 484.52,324.237 491.195,325.767 486.267,327.295 481.907,328.822 477.503,330.35 489.368,331.878 487.665,333.409    492.037,334.941 497.883,336.472 462.909,338.002 473.184,339.531 491.316,341.064 465.347,342.597 491.593,344.128 483.74,345.66    480.925,347.193 477.158,348.726 470.282,350.26 488.498,351.793 484.602,353.327 481.082,354.857 496.313,356.388    495.496,357.923 464.795,359.455 484.027,360.99 488.48,362.526 471.111,364.062 481.099,365.599 486.395,363.16  " style="fill:#00B23D;"/><g><path d="M155.523,305.875c12.186,0,23.201-4.553,31.837-11.831l100.708,50.317    c-0.073,0.951-0.293,1.829-0.293,2.816c0,27.408,22.176,49.586,49.604,49.586c27.391,0,49.604-22.178,49.604-49.586    c0-27.371-22.213-49.55-49.604-49.55c-12.187,0-23.22,4.553-31.838,11.848l-100.689-50.313c0.037-0.95,0.256-1.847,0.256-2.815    c0-0.987-0.219-1.883-0.256-2.852l100.689-50.336c8.618,7.295,19.633,11.884,31.838,11.884c27.391,0,49.604-22.178,49.604-49.586    c0-27.353-22.213-49.531-49.604-49.531c-27.429,0-49.604,22.178-49.604,49.531c0,0.987,0.22,1.901,0.293,2.852L187.36,218.609    c-8.637-7.277-19.651-11.848-31.837-11.848c-27.391,0-49.585,22.197-49.585,49.586    C105.938,283.714,128.132,305.875,155.523,305.875z" style="fill:#FFFFFF;"/></g></g><g id="Layer_1"/></svg>