<?xml version="1.0" ?><!DOCTYPE svg  PUBLIC '-//W3C//DTD SVG 1.1//EN'  'http://www.w3.org/Graphics/SVG/1.1/DTD/svg11.dtd'><svg height="512px" style="enable-background:new 0 0 512 512;" version="1.1" viewBox="0 0 512 512" width="512px" xml:space="preserve" xmlns="http://www.w3.org/2000/svg" xmlns:xlink="http://www.w3.org/1999/xlink"><g id="social__x2C__media__x2C__social_media__x2C___yahoo_x2C_"><polygon points="488.166,368.68 468.916,370.058 499.622,372.258 466.192,372.708 496.391,375.669    476.885,376.112 487.051,378.433 497.831,381.09 481.046,381.053 462.743,380.379 461.117,381.459 493.557,387.638    486.796,388.279 467.131,386.443 471.965,388.765 476.674,391.215 493.733,396.55 494.175,398.458 463.03,392.472 462.57,393.731    463.969,395.504 494.325,405.865 463.497,398.194 465.128,400.151 479.296,406.452 492.136,412.717 463.369,403.945    463.728,405.58 458.979,405.172 489.965,419.616 479.031,416.807 474.575,416.609 463.59,413.217 465.046,415.526 477.869,423.607    471.357,422.116 462.554,419.183 467.762,423.746 459.483,420.791 448.732,416.107 479.887,436.609 461.771,427.311    476.831,438.865 445.243,419.907 475.95,442.549 467.612,438.833 472.549,444.483 459.19,436.671 470.762,447.568 441.551,426.642    458.008,441.709 447.734,435.159 445.066,434.729 450.61,441.486 440.186,434.021 444.204,439.605 457.601,454.448    460.591,459.788 454.657,456.298 455.195,459.274 438.419,443.812 438.035,445.471 432.031,440.831 436.513,448.053    444.097,459.358 441.208,458.359 445.928,466.879 434.256,454.503 426.225,446.246 442.051,470.254 421.747,444.468    425.872,452.727 422.241,449.787 433.308,469.365 421.118,453.027 436.212,480.427 426.789,467.981 430.946,478.41    414.884,452.959 417.896,461.391 428.984,485.864 411.932,455.879 421.711,479.164 419.65,478.712 416.354,475.436    417.015,480.953 410.009,468.545 409.407,471.014 406.955,468.839 413.009,489.394 412.288,492.6 401.41,466.165 402.378,473.727    396.764,460.651 395.03,459.463 397.12,471.708 398.691,483.377 393.265,468.346 393.201,474.203 394.83,488.445 388.541,466.295    387.939,470.375 386.755,471.803 389.678,498.402 387.673,497.23 385.483,494.294 379.637,460.69 379.982,475.663 377.556,465.664    376.776,472.481 374.692,462.686 375.002,492.664 372.309,467.778 370.972,468.594 369.531,464.64 368.229,493.434    366.701,490.172 365.174,487.25 363.646,462.009 362.119,481.004 360.592,495.797 359.064,500.813 357.537,491.684 356.01,494.729    354.481,465.694 352.953,478.193 351.425,489 349.896,486.368 348.366,481.082 346.837,496.579 345.308,466.257 343.778,467.359    342.25,472.125 340.722,476.858 339.193,488.354 337.665,477.837 336.138,479.531 334.609,464.104 333.082,461.889    331.554,468.866 330.026,495.271 328.498,474.37 326.97,494.073 325.441,489.125 323.913,488.699 322.385,469.071 320.856,477.627    319.327,467.296 317.798,484.316 316.27,478.19 314.741,497.956 313.214,461.406 311.688,497.417 310.161,473.568 308.636,478.837    307.11,466.368 305.586,473.87 304.062,493.518 302.537,462.877 301.013,490.98 299.488,480.316 297.964,500.007 296.44,462.979    294.916,475.626 293.392,490.979 291.866,469.695 290.342,481.077 288.815,481.927 287.29,497.375 285.763,480.018    284.235,470.389 282.707,485.597 281.178,487.172 279.648,491.62 278.117,477.431 276.587,483.754 275.058,498.431    273.529,468.361 272.002,500.057 270.474,487.938 268.947,495.486 267.42,496.148 265.894,497.742 264.367,474.067    262.841,472.725 261.314,461.84 259.787,490.414 258.26,500.612 256.732,492.5 255.203,473.496 253.674,462.017 252.144,466.215    250.612,463.429 249.081,463.189 247.551,485.113 246.021,478.021 244.493,485.357 242.964,473.653 241.436,462.744    239.908,461.95 238.38,487.176 236.851,470.004 235.322,463.804 233.792,466.183 232.262,463.81 230.73,497.789 229.198,488.183    227.667,489.089 226.138,478.589 224.608,468.623 223.079,477.922 221.549,482.87 220.02,497.246 218.489,474.647 216.958,490.639    215.425,484.153 213.894,499.821 212.363,473.056 210.833,491.463 209.302,482.778 207.772,496.71 206.241,481.97 204.708,479.745    203.176,500.05 201.645,495.079 200.114,488.873 198.583,486.771 197.051,487.68 195.519,481.948 193.986,492.888 192.46,480.747    190.932,478.703 189.401,470.152 187.868,482.121 186.336,475.311 184.808,481.574 183.279,473.438 181.75,487.338    180.221,477.783 178.688,468.729 177.155,496.958 175.623,473.226 174.093,493.461 172.562,470.85 171.027,489.407    169.494,488.465 167.962,462.16 166.429,488.08 164.894,463.049 163.36,475.898 161.825,463.282 160.291,469.442 158.756,487.879    157.224,484.023 155.693,465.644 154.157,471.71 152.623,486.174 151.087,481.048 149.549,478.313 148.014,488.985    146.475,493.696 144.933,472.794 143.392,498.731 142.081,464.212 140.515,473.741 138.601,485.576 137.618,474.177    134.845,493.681 135.039,470.219 133.137,475.499 131.897,473.318 127.607,496.574 129.893,466.656 125.711,485.472    124.379,483.616 123.379,480.127 118.809,495.703 122.01,471.447 120.51,471.59 119.234,470.723 113.109,489.294 114.721,476.591    112.408,479.196 109.487,483.562 106.378,488.063 113.274,461.259 105.729,479.347 102.167,484.604 106.783,467.335    108.65,458.515 99.441,477.877 101.338,469.167 99.089,470.614 89.378,488.45 97.677,466.465 102.794,452.526 88.21,478.758    86.974,477.504 87.702,472.596 91.005,463.311 90.163,461.813 76.299,482.401 74.798,481.404 83.37,464.361 87.986,454.387    84.34,457.341 76.018,466.897 80.746,457.387 68.838,471.244 84.246,447.76 84.999,444.569 62.265,471.182 68.977,460.107    60.735,467.451 67.059,457.392 57.168,466.171 63.211,456.883 70.457,446.737 65.212,450.092 78.036,434.889 77.211,433.922    72.339,436.837 66.561,440.396 45.923,457.226 70.678,432.905 57.063,442.889 49.947,446.824 67.858,430.077 52.813,440.305    62.572,430.798 59.094,431.666 41.314,442.826 38.907,442.432 35.318,442.767 35.715,440.359 51.273,428.172 55.024,424.047    43.509,429.401 54.117,421.271 55.835,418.662 45.736,422.688 37.853,425.192 37.899,423.326 29.646,425.647 55.049,411.399    24.563,424.199 23.492,422.709 49.563,409.411 49.227,408.037 57.368,403.25 47.017,405.908 43.905,405.561 20.551,412.329    42.436,403 18.778,409.151 22.28,406.199 52.834,395.384 46.404,395.848 23.41,400.525 52.267,391.555 18.42,398.217    37.789,392.132 20.147,394.277 49.856,386.805 28.208,389.345 41.026,385.617 30.755,385.731 16.996,386.035 25.952,383.186    26.54,381.497 46.623,377.978 30.18,377.979 35.133,376.092 16.03,375.638 38.479,372.989 47.773,371.297 49.072,369.975    11.079,368.68 19.005,367.153 45.75,365.627 43.582,364.102 38.442,362.575 40.72,361.049 17.053,359.522 30.094,357.996    33.697,356.47 32.7,354.942 19.884,353.416 42.244,351.889 21.088,350.36 39.955,348.833 43.461,347.304 49.071,345.776    27.87,344.248 49.222,342.721 40.764,341.193 49.288,339.666 32.5,338.14 45.066,336.612 16.843,335.086 20.156,333.559    25.261,332.032 39.985,330.506 41.435,328.979 14.738,327.452 40.059,325.925 42.224,324.398 34.615,322.872 41.239,321.345    36.125,319.816 25.095,318.288 34.269,316.761 18.215,315.234 48.412,313.708 21.521,312.183 34.076,310.657 39.402,309.133    45.395,307.609 47.564,306.085 20.82,304.562 41.885,303.038 33.057,301.516 18.688,299.992 19.737,298.47 31.392,296.946    43.783,295.423 42.521,293.899 16.655,292.376 38.438,290.853 28.94,289.327 11.817,287.803 45.685,286.277 39.084,284.751    13.87,283.224 41.444,281.695 31.206,280.167 14.055,278.637 14.053,277.108 33.074,275.58 32.906,274.053 19.959,272.525    31.204,271 31.372,269.474 42.609,267.948 46.381,266.423 28.021,264.897 15.42,263.372 21.647,261.847 12.565,260.32    40.385,258.794 29.122,257.268 47.55,255.74 37.484,254.211 45.697,252.682 14.338,251.152 18.75,249.622 16.988,248.093    26.168,246.565 50.513,245.037 26.112,243.51 41.835,241.983 45.761,240.456 44.534,238.929 39.994,237.401 50.32,235.874    19.555,234.345 14.576,232.815 21.61,231.285 49.267,229.754 34.304,228.225 11.673,226.696 27.444,225.167 17.127,223.639    18.882,222.111 22.785,220.582 15.445,219.053 22.948,217.523 23.435,215.991 19.09,214.461 41.793,212.931 34.927,211.402    25.922,209.873 13.267,208.344 36.94,206.813 32.354,205.283 44.862,203.751 49.51,202.221 49.708,200.691 14.641,199.161    36.972,197.631 30.023,196.1 28.186,194.568 41.228,193.043 38.495,191.516 21.761,189.986 26.168,188.454 16.079,186.924    28.948,185.396 27.145,183.869 23.889,182.341 30.558,180.813 16.032,179.282 22.507,177.749 11.811,176.219 18.398,174.689    20.482,173.159 48.039,171.626 46.208,170.094 16.541,168.563 19.563,167.031 32.95,165.497 45.284,163.965 25.577,162.431    48.014,160.898 19.637,159.363 34.604,157.833 43.553,156.303 35.15,154.768 30.562,153.235 50.57,151.7 26.881,150.164    16.884,148.629 41.628,147.091 50.682,145.551 32.115,144.011 21.442,142.348 25.837,140.802 39.439,139.741 12.523,136.867    27.694,136.101 50.97,136.405 38.504,133.944 42.466,132.925 14.184,128.073 34.813,129.083 29.626,126.79 44.506,127.64    18.052,121.524 21.815,120.481 19.692,118.313 32.221,119.317 23.354,115.629 24.82,114.258 35.357,115.321 22.008,110    35.967,112.318 17.502,104.992 40.193,110.475 28.339,104.878 45.862,109.344 34.806,103.734 54.431,109.637 56.71,109.147    34.472,98.451 57.394,106.664 40.133,97.469 34.979,93.347 39.16,93.56 35.455,89.927 54.633,98.032 42.36,89.893 52.147,93.536    53.947,92.924 30.88,77.649 38.719,80.339 37.651,77.692 37.706,75.699 64.082,91.237 45.437,76.842 46.239,75.425 54.581,79.492    59.758,81.503 59.894,79.803 68.079,84.457 56.736,73.515 71.095,83.553 62.633,74.568 50.688,62.05 49.395,58.584 53.938,60.461    48.575,52.991 56.452,58.244 66.926,66.501 70.142,67.706 68.73,64.074 74.251,67.933 76.371,68.205 57.667,44.331 76.498,64.051    71.097,55.154 68.219,48.996 62.744,39.168 86.843,68.374 86.706,65.991 69.56,39.436 88.119,63.386 85.571,57.158 89.244,60.209    82.888,47.521 95.4,65.078 95.781,63.25 83.79,39.699 98.236,62.382 81.154,27.834 92.129,45.09 89.296,36.043 96.663,47.467    97.42,45.629 94.513,35.578 92.21,26.195 105.324,53.009 106.537,52.419 103.231,40.117 107.436,47.089 111.718,54.928    104.764,30.449 112.257,48.229 112.622,44.768 111.598,36.263 112.787,34.817 115.562,39.248 112.295,20.068 119.112,41.411    121.759,46.715 124.356,52.566 122.303,35.134 121.306,20.926 123.72,25.061 125.154,23.533 129.094,40.128 131.795,50.448    130.54,26.893 133.399,39.991 134.002,29.749 134.487,13.676 136.836,24.168 138.14,15.669 140.712,46.435 142.108,50.617    143.392,15.038 144.919,34.838 146.446,18.964 147.974,12.06 149.5,27.236 151.028,34.79 152.556,16.449 154.083,32.65    155.611,19.166 157.139,14.208 158.667,38.431 160.195,12.452 161.724,27.847 163.253,22.489 164.783,37.877 166.313,47.812    167.841,12.06 169.37,43.517 170.898,16.773 172.427,36.437 173.955,19.961 175.482,27.909 177.011,12.91 178.538,20.228    180.066,49.733 181.594,27.367 183.122,16.591 184.65,49.588 186.179,32.047 187.707,44.883 189.235,36.036 190.764,12.962    192.293,23.07 193.822,34.562 195.351,30.164 196.879,15.382 198.406,36.752 199.933,24.798 201.458,47.597 202.984,29.716    204.509,45.184 206.034,38.567 207.559,50.544 209.083,44.426 210.607,15.734 212.131,24.565 213.656,42.384 215.18,31.547    216.704,33.748 218.229,32.979 219.753,17.657 221.279,38.66 222.804,19.522 224.331,49.585 225.857,33.232 227.385,48.589    228.913,48.35 230.442,41.993 231.972,39.395 233.503,30.592 235.033,22.345 236.562,31.716 238.09,49.61 239.619,26.777    241.146,22.825 242.673,25.876 244.2,47.702 245.726,17.511 247.253,11.982 248.779,22.251 250.306,51.214 251.833,49.558    253.36,12.608 254.888,41.437 256.417,49.678 257.946,50.701 259.477,34.609 261.008,39.875 262.539,36.566 264.069,14.606    265.599,37.076 267.128,17.481 268.656,13.664 270.185,19.664 271.712,34.639 273.24,13.64 274.77,26.606 276.298,45.561    277.828,36.885 279.358,25.3 280.891,30.346 282.422,51.345 283.952,49.561 285.482,20.938 287.012,43.284 288.541,38.721    290.07,26.323 291.601,44.124 293.131,28.834 294.662,44.334 296.194,39.794 297.727,20.457 299.257,43.151 300.787,24.779    302.317,40.651 303.848,21.597 305.379,47.775 306.911,18.103 308.444,33.524 309.976,40.164 311.506,45.961 313.037,25.537    314.568,38.439 316.102,29.245 317.634,21.424 319.16,37.216 320.688,26.549 322.219,20.262 323.753,18.256 325.283,45.625    326.813,38.924 328.341,32.946 329.87,40.762 331.399,30.543 332.932,37.125 334.466,31.168 335.997,31.97 337.527,39.213    339.059,14.338 340.593,38.395 342.126,49.568 343.658,25.491 345.191,35.802 346.727,26.477 348.26,18.007 349.795,11.742    351.329,17.269 352.864,51.578 354.396,15.528 355.927,37.211 357.464,30.281 358.997,50.931 360.533,34.855 362.071,16.633    363.606,22.986 365.146,14.233 366.687,16.32 368.229,12.824 369.85,25.256 371.521,23.428 373.625,12.266 373.547,47.155    374.891,47.022 377.217,34.693 378.111,41.179 380.601,31.307 383.766,18.155 385.814,15.969 382.44,50.386 388.071,24.032    390.771,18.375 389.629,33.56 392.526,27.13 392.029,36.954 395.779,27.555 398.162,24.79 397.737,32.953 398.872,34.729    397.93,43.428 399.752,42.394 399.676,47.328 407.435,28.794 405.97,37.902 407.42,38.418 410.709,34.169 413.084,32.583    414.343,33.827 412.835,41.396 422.314,24.065 424.27,24.167 409.455,58.879 419.032,42.668 420.255,43.675 430.748,27.358    427.552,36.876 423.539,47.261 421.599,53.542 433.845,36.189 417.808,64.972 436.731,38.078 432.691,47.237 434.862,46.887    433.596,51.466 429.346,59.95 437.98,50.77 426.752,67.98 446.084,45.658 434.584,62.503 442.315,55.499 445.844,53.815    455.842,44.959 438.327,66.925 455.297,50.829 446.135,62.896 446.752,64.458 446.154,67.193 456.284,59.532 439.01,77.955    440.863,78.067 463.813,59.535 460.2,64.951 445.762,79.212 459.293,69.963 462.712,69.299 453.636,78.37 463.266,72.993    474.167,67.053 465.781,75.176 451.43,87.028 469.798,76.416 466.233,80.712 473.035,78.318 458.499,89.164 481.661,77.147    472.138,84.668 464.135,90.981 450.611,99.946 471.688,90.427 478.842,88.618 454.512,102.305 474.031,94.596 478.757,94.209    455.103,106.311 471.694,100.763 478.831,99.533 477.699,101.721 487.534,99.772 459.443,111.613 464.306,111.358 457.65,114.974    488.291,106.82 492.588,107.33 488.842,110.235 488.788,112.021 475.824,117.019 472.127,119.443 461.709,123.235 492.013,118.298    470.419,124.223 469.504,125.83 490.975,123.735 493.832,125.008 485.591,127.89 495.472,128.312 460.459,133.885 485.486,132.77    498.665,133.328 493.246,135.464 467.31,138.574 474.768,139.636 491.937,140.635 481.158,142.467 497.457,144.011    496.948,145.537 477.404,147.063 490.799,148.589 479.104,150.115 478.877,151.642 474.297,153.168 482.344,154.694    464.917,156.221 472.52,157.748 470.152,159.275 485.301,160.802 461.215,162.33 474.952,163.858 498.396,165.386 471.488,166.915    486.319,168.442 470.624,169.97 462.738,171.497 485.714,173.024 498.849,174.551 472.044,176.078 479.714,177.604    500.549,179.131 497.327,180.658 475.232,182.185 490.68,183.711 481.517,185.239 472.381,186.766 466.201,188.293 474.513,189.82    488.917,191.348 472.755,192.876 474.676,194.404 492.271,195.932 462.526,197.458 466.415,198.984 491.355,200.51    495.039,202.035 475.467,203.559 497.971,205.083 484.925,206.607 486.244,208.13 463.429,209.653 463.681,211.177 495.093,212.7    489.671,214.223 495.578,215.746 485.294,217.269 477.876,218.792 474.42,220.316 473.307,221.84 483.947,223.364 479.436,224.889    488.085,226.415 483.171,227.941 495.413,229.468 494.63,230.996 469.368,232.525 490.177,234.055 487.921,235.583 466.63,237.112    471.407,238.639 477.737,240.166 463.786,241.692 463.769,243.218 487.059,244.744 480.511,246.269 486.159,247.794    489.923,249.32 487.37,250.845 496.373,252.371 492.05,253.897 484.646,255.424 464.522,256.952 483.782,258.48 492.979,260.009    489.339,261.539 490.468,263.069 470.802,264.599 464.42,266.127 495.66,267.654 462.511,269.182 461.984,270.709 485.35,272.235    472.471,273.763 467.114,275.29 489.422,276.818 469.103,278.347 487.538,279.876 473.139,281.407 494.168,282.938    486.817,284.467 500.255,285.996 485.799,287.524 464.318,289.053 464.702,290.58 461.62,292.109 472.557,293.639 475.97,295.169    496.394,296.7 497.751,298.23 472.24,299.76 463.313,301.289 471.621,302.818 493.138,304.348 478.596,305.878 484.143,307.408    462.473,308.939 489.931,310.47 469.549,312 466.977,313.53 488.474,315.061 499.492,316.592 493.428,318.123 486.092,319.648    461.739,321.176 462.448,322.705 463.374,324.237 470.678,325.767 493.484,327.295 473.539,328.822 491.224,330.35    474.403,331.878 483.065,333.409 487.436,334.941 492.071,336.472 491.604,338.002 490.9,339.531 461.872,341.064 490.808,342.597    466.372,344.128 496.423,345.66 474.267,347.193 481.846,348.726 480.791,350.26 482.396,351.793 488.104,353.327 473.311,354.857    488.541,356.388 486.788,357.923 465.354,359.455 486.922,360.99 500.167,362.526 483.479,364.062 461.138,365.599 474.65,381.783     " style="fill:#91009A;"/><g><path d="M224.284,276.675c0.933,6.454,1.757,44.521-0.933,47.41c-5.416,5.741-30.136,4.224-36.119,4.645    l-2.049,11.793c10.887,0.329,46.329-0.877,57.344-0.877c21.719,0,59.759-0.11,65.138,0.292l0.66-12.36    c-5.49-0.933-35.443-0.109-39.577-1.06c-0.916-5.998-1.922-46.076-1.007-50.208c4.135-11.973,67.06-60.717,73.957-62.582    c1.556-0.311,3.861-0.823,6.478-1.408h20.273l3.165-4.663c0.056-0.037,0.184-0.055,0.238-0.055l7.85-11.354    c-0.109,0-0.293-0.018-0.385-0.018l0.823-1.244H270.283l4.227,17.333h29.989l-50.445,45.673    c-10.302-14.262-34.436-43.973-51.269-68.546h37.766v-13.202l0.439-2.907c-0.11-0.037-0.329-0.055-0.439-0.055v-1.188H115.306    v17.352h37.143C166.867,200.746,221.997,269.8,224.284,276.675z" style="fill:#FFFFFF;"/><path d="M359.464,230.165l0.457,78.287l16.834,1.335l19.597-75.947    C393.076,233.73,363.325,230.915,359.464,230.165z" style="fill:#FFFFFF;"/><polygon points="374.834,340.596 377.523,322.439 367.825,321.964 357.013,320.629 357.104,339.169     365.63,339.919   " style="fill:#FFFFFF;"/></g></g><g id="Layer_1"/></svg>