<?xml version="1.0" ?><!DOCTYPE svg  PUBLIC '-//W3C//DTD SVG 1.1//EN'  'http://www.w3.org/Graphics/SVG/1.1/DTD/svg11.dtd'><svg height="512px" style="enable-background:new 0 0 512 512;" version="1.1" viewBox="0 0 512 512" width="512px" xml:space="preserve" xmlns="http://www.w3.org/2000/svg" xmlns:xlink="http://www.w3.org/1999/xlink"><g id="social__x2C__media__x2C__social_media__x2C___xbox__x2C_"><polygon points="486.989,368.68 499.225,370.463 490.772,372.021 472.753,372.971 482.178,374.908    482.355,376.48 462.634,376.445 467.64,378.224 470.418,379.898 480.523,382.549 480.864,384.155 470.367,384.148 479.145,387.021    486.537,389.899 489.175,392.079 496.523,395.315 488.801,395.45 479.498,394.986 470.846,394.429 470.186,395.747    464.066,395.537 464.532,397.081 481.013,403.628 467.981,401.086 492.317,410.887 472.596,405.764 471.695,407.044    472.743,409.064 461.351,406.119 487.566,418.59 466.926,411.532 472.167,415.517 452.066,407.81 475.911,420.795 464.38,416.824    460.155,416.281 473.635,425.133 471.032,425.558 465.688,424.341 466.28,426.473 456.885,422.556 478.861,438.075    477.036,438.992 466.265,433.932 472.177,439.956 470.557,440.919 465.713,439.496 466.557,442.193 468.512,445.809    464.021,444.451 468.223,450.042 439.287,428.07 445.905,435.443 459.661,449.493 464.207,455.91 446.797,442.021 447.979,445.195    455.787,455.03 446.69,448.189 446.837,450.546 449.95,456.153 442.203,450.054 455.518,467.383 441.851,454.252 432.664,445.665    443.017,460.566 427.725,443.857 432.959,452.8 438.117,462.117 422.911,443.9 439.744,469.957 434.63,465.491 439.041,474.995    434.489,471.172 418.433,448.729 417.186,449.159 421.328,458.707 433.055,482.08 418.982,460.362 412.183,450.712    427.219,482.466 427.182,486.283 422.305,480.339 411.391,460.999 416.032,474.68 414.829,475.895 404.75,455.921 409.58,471.406    412.705,483.709 413.707,491.236 407.698,479.662 401.021,465.005 399.615,465.162 405.062,487.446 396.959,465.958    403.374,494.048 395.961,472.998 391.534,461.354 392.168,469.748 395.8,492.777 393.778,491.564 389.696,479.423 388.034,478.875    387.079,482.488 386.479,489.145 385.359,493.251 384.021,496.455 380.252,477.994 379.175,482.555 378.336,491.653    375.567,475.484 374.497,482.896 372.639,475.577 371.018,469.692 369.958,494.125 368.246,492.166 366.719,472.793    365.191,486.066 363.664,471.365 362.137,473.568 360.609,478.212 359.082,471.426 357.555,495.523 356.027,478.389    354.499,483.867 352.971,468.813 351.442,464.313 349.914,492.689 348.385,475.462 346.854,488.646 345.325,472.519    343.797,500.879 342.268,500.915 340.739,498.611 339.211,483 337.683,492.32 336.155,467.968 334.627,489.84 333.1,477.464    331.571,482.39 330.044,477.174 328.516,500.655 326.987,463.249 325.459,479.24 323.931,476.538 322.402,499.166 320.874,492.371    319.345,467.515 317.815,484.033 316.287,485.92 314.759,469.081 313.231,500.273 311.705,484.274 310.179,477.898    308.653,462.204 307.128,490.35 305.604,485.563 304.079,495.079 302.555,498.481 301.03,472.442 299.506,483.597 297.982,490.832    296.458,473.17 294.934,487.137 293.409,498.044 291.884,467.397 290.359,474.186 288.833,498.132 287.308,468.278 285.78,477.686    284.253,475.984 282.725,493.932 281.196,494.499 279.666,474.653 278.135,499.468 276.605,465.23 275.076,490.48 273.547,469.514    272.02,474.163 270.492,489.255 268.965,494.229 267.438,480.028 265.911,498.907 264.385,492.304 262.858,462.772 261.332,490.11    259.805,497.303 258.277,481.75 256.75,477.338 255.221,462.026 253.692,484.184 252.162,498.737 250.63,465.175 249.099,462.412    247.569,479.357 246.04,482.836 244.511,484.267 242.982,463.373 241.454,484.851 239.926,499.9 238.398,477.184 236.869,479.91    235.34,481.927 233.811,484.37 232.28,500.327 230.748,484.925 229.216,464.12 227.686,467.299 226.156,494.807 224.626,483.052    223.097,462.53 221.567,481.301 220.038,485.225 218.507,464.572 216.976,499.641 215.444,473.733 213.912,472.586    212.381,500.651 210.851,467.892 209.321,499.317 207.791,467.6 206.259,461.15 204.727,469.282 203.195,483.456 201.663,490.639    200.132,496.289 198.602,492.224 197.07,467.519 195.537,464.557 194.005,483.345 192.479,481.916 190.95,467.321 189.419,466.686    187.886,499.727 186.355,480.498 184.826,496.062 183.297,466.188 181.769,483.589 180.239,493.194 178.707,482.952    177.173,493.08 175.642,463.305 174.111,476.742 172.58,478.817 171.046,485.115 169.513,476.985 167.98,466.33 166.447,479.885    164.912,478.838 163.379,483.356 161.844,477.308 160.31,461.03 158.774,471.01 157.243,465.197 155.711,477.89 154.175,469.734    152.641,496.677 151.105,466.61 149.568,469.159 148.032,491.975 146.493,490.136 144.952,485.368 143.41,488.557 142.157,461.335    140.5,474.997 138.782,481.501 136.611,492.97 135.632,482.345 133.49,489.471 134.268,463.584 129.221,498.161 129.633,480.116    128.9,474.139 127.463,473.861 123.242,490.679 125.793,466.673 120.672,486.091 121.556,473.725 117.033,487.413 118.375,474.438    118.003,469.801 116.52,469.838 117.343,461.575 112.972,471.758 113.832,464.03 106.458,482.344 110.626,464.98 108.784,466.023    102.497,478.926 107.276,462.075 100.402,475.522 101.091,469.791 91.666,487.761 102.25,459.943 102.937,455.247 97.411,463.66    90.488,474.26 96.19,459.762 82.478,482.338 94.866,456.362 90.424,461.376 76.251,482.536 80.424,472.187 83.533,464.121    73.724,476.458 79.288,464.943 79.839,461.347 86.554,449.168 68.98,471.064 87.856,442.953 76.083,456.164 71.879,459.049    77.883,449.168 67.526,459.345 66.088,458.536 66.273,455.886 63.687,456.371 77.419,439.286 77.806,436.963 68.157,444.921    58.066,452.826 49.018,459.244 57.564,448.815 46.447,456.76 64.974,437.972 63.456,437.392 69.831,430.162 65.336,432.143    61.886,433.123 42.753,446.083 63.963,428.024 60.615,428.781 41.719,440.449 59.857,425.904 41.888,436.244 53.798,426.548    48.178,428.356 49.622,425.678 38.076,430.756 42.662,426.21 52.151,419.134 50.039,418.653 47.686,418.244 36.068,422.44    41.975,417.748 41.01,416.501 45.879,412.611 23.249,420.871 40.196,411.824 27.925,415.126 30.497,412.308 40.786,406.722    39.468,405.606 22.289,409.853 54.487,397.56 17.254,407.769 32.17,401.482 52.42,394.169 34.345,397.63 53.53,391.24    45.251,391.894 31.806,393.46 20.693,394.167 18.161,392.905 14.631,391.771 25.292,388.209 50.875,382.704 47.53,381.877    17.258,384.246 46.873,379.291 26.417,379.896 31.703,377.857 37.952,375.901 34.478,374.644 49.699,372.54 20.157,372.049    22.469,370.331 35.666,368.68 33.447,367.153 29.339,365.627 23.986,364.102 42.787,362.575 33.631,361.049 25.121,359.522    12.9,357.996 12.9,356.47 37.794,354.942 14.903,353.416 23.525,351.889 33.145,350.36 28.914,348.833 35.866,347.304    11.304,345.776 49.4,344.248 49.56,342.721 48.863,341.193 14.804,339.666 37.542,338.14 50.108,336.612 46.659,335.086    36.081,333.559 35.847,332.032 44.698,330.506 25.216,328.979 33.154,327.452 37.344,325.925 38.664,324.398 46.773,322.872    38.347,321.345 40.813,319.816 11.209,318.288 43.468,316.761 36.225,315.234 19.225,313.708 17.063,312.183 30.274,310.657    14.899,309.133 24.347,307.609 50.866,306.085 15.964,304.562 24.45,303.038 26.261,301.516 18.042,299.992 40.879,298.47    16.185,296.946 26.572,295.423 15.914,293.899 30.244,292.376 16.529,290.853 44.02,289.327 28.794,287.803 11.785,286.277    49.266,284.751 31.278,283.224 40.807,281.695 26.381,280.167 39.88,278.637 41.663,277.108 30.206,275.58 40.526,274.053    35.783,272.525 24.518,271 48.919,269.474 29.327,267.948 16.115,266.423 48.029,264.897 11.07,263.372 18.808,261.847    24.938,260.32 48.195,258.794 34.26,257.268 16.254,255.74 21.515,254.211 22.735,252.682 37.301,251.152 17.355,249.622    21.457,248.093 48.664,246.565 38.206,245.037 18.899,243.51 42.487,241.983 42.273,240.456 16.154,238.929 25.756,237.401    28.548,235.874 40.319,234.345 21.201,232.815 20.913,231.285 26.04,229.754 41.091,228.225 35.452,226.696 47.305,225.167    25.888,223.639 24.191,222.111 29.491,220.582 50.192,219.053 25.253,217.523 27.701,215.991 37.79,214.461 28.84,212.931    42.578,211.402 21.544,209.873 16.835,208.344 26.235,206.813 39.748,205.283 15.761,203.751 29.768,202.221 25.603,200.691    45.116,199.161 22.46,197.631 41.228,196.1 42.478,194.568 31.141,193.043 30.181,191.516 26.203,189.986 41.064,188.454    40.37,186.924 49.441,185.396 36.61,183.869 43.644,182.341 33.539,180.813 28.201,179.282 49.349,177.749 21.782,176.219    33.539,174.689 15.997,173.159 39.6,171.626 18.082,170.094 38.981,168.563 15.5,167.031 23.11,165.497 47.234,163.965    41.127,162.431 20.245,160.898 31.201,159.363 25.113,157.833 17.925,156.303 37.283,154.768 42.271,153.235 34.67,151.7    38.913,150.164 33.501,148.629 33.526,147.091 17.374,145.551 34.712,144.011 44.382,142.654 16.751,140.559 39.036,139.725    45.058,138.616 24.145,135.861 21.92,134.045 18.722,132.067 18.767,130.354 35.121,130.628 51.456,131.347 28.682,126.646    19.026,123.453 36.537,124.828 51.357,126.174 16.459,117.642 29.151,118.636 30.523,117.317 39.86,118.019 52.727,119.93    51.176,118.168 23.963,108.776 38.604,111.532 45.847,112.309 53.608,113.476 44.059,108.7 32.729,102.959 49.134,107.583    55.188,108.539 35.143,98.726 36.987,97.782 38.847,96.884 30.839,91.397 50.521,99.071 59.133,101.819 42.174,91.556    31.197,83.889 42.061,87.93 48.542,89.822 51.56,89.877 62.661,94.947 63.816,94.146 57.941,88.807 54.252,84.674 49.642,79.728    38.036,69.604 54.783,79.632 66.014,86.18 53.778,75.08 60.947,78.793 41.396,60.991 64.35,77.896 52.101,65.482 74.074,82.743    55.408,64.051 60.655,66.732 52.953,57.186 75.023,76.581 66.196,65.749 68.515,65.998 54.191,48.476 76.043,69.894 74.198,65.736    82.821,73.566 66.953,52.624 60.432,42.02 84.773,69.901 62.795,39.218 70.523,46.531 72.828,46.879 70.244,40.377 85.31,59.274    80.223,49.11 77.821,42.527 93.129,63.816 94.604,63.763 79.081,34.922 85.71,43.032 98.24,62.389 82.961,31.18 99.233,58.762    88.794,35.018 92.188,38.197 88,25.435 93.357,32.987 105.485,56.725 106.35,55.426 104.251,46.697 108.359,53.367 98.245,22.241    103.591,31.999 106.437,35.328 112.944,50.315 108.869,32.579 116.346,52.335 111.515,30.208 117.718,47.335 116.346,36.213    120.704,48.105 114.879,15.489 118.917,26.146 122.329,35.179 124.133,36.682 123.205,21.816 124.394,18.346 126.757,22.849    130.924,43.171 129.587,17.93 131.476,19.523 135.256,45.03 136.344,40.948 137.031,27.428 138.677,28.628 140.292,30.045    141.719,20.116 143.41,28.666 144.938,32.563 146.465,42.486 147.992,30.62 149.519,40.717 151.046,47.627 152.574,44.111    154.102,21.074 155.629,27.129 157.157,32.348 158.686,17.772 160.214,38.313 161.743,24.989 163.272,24.413 164.801,13.541    166.331,50.43 167.86,47.98 169.388,35.939 170.917,16.086 172.445,37.714 173.973,12.667 175.501,20.94 177.029,32.006    178.557,15.091 180.084,36.583 181.612,48.675 183.14,15.844 184.668,29.794 186.197,36.847 187.726,36.578 189.253,33.522    190.782,38.012 192.312,18.1 193.841,16.572 195.369,41.939 196.897,24.288 198.424,18.47 199.951,48.481 201.477,43.506    203.002,27.39 204.528,22.341 206.053,34.296 207.577,34.337 209.102,36.417 210.626,48.67 212.15,27.063 213.674,24.873    215.198,20.895 216.723,43.599 218.247,48.123 219.772,31.674 221.297,18.601 222.823,26.112 224.349,46.462 225.875,39.127    227.403,24.879 228.931,35.498 230.46,13.919 231.99,29.841 233.521,47.182 235.051,49.343 236.58,50.012 238.109,42.45    239.637,28.603 241.164,20.838 242.691,30.105 244.218,35.591 245.745,44.141 247.271,44.128 248.797,30.708 250.324,36.807    251.851,33.449 253.378,36.441 254.906,45.618 256.435,35.12 257.965,33.818 259.495,25.797 261.026,26.678 262.558,16.026    264.087,17.145 265.616,32.985 267.146,22.892 268.674,37.667 270.202,14.631 271.73,36.596 273.259,51.652 274.787,26.905    276.316,32.978 277.846,49.858 279.377,35.819 280.908,34.105 282.439,45.794 283.971,38.014 285.5,40.426 287.03,25.296    288.56,44.016 290.089,24.996 291.618,22.721 293.148,30.542 294.68,29.032 296.213,38.145 297.744,49.338 299.275,47.205    300.806,12.324 302.336,39.73 303.866,34.314 305.397,36.905 306.929,25.309 308.462,14.018 309.993,31.728 311.523,14.88    313.055,43.191 314.586,38.629 316.119,16.682 317.651,50.538 319.178,26.537 320.706,28.95 322.236,28.415 323.771,17.91    325.301,24.337 326.83,24.339 328.358,49.249 329.888,34.796 331.417,22.3 332.949,24.883 334.483,13.163 336.015,29.316    337.545,40.138 339.076,47.438 340.61,37.732 342.144,12.641 343.676,41.573 345.209,49.733 346.744,33.147 348.277,16.645    349.813,40.844 351.347,31.262 352.882,22.13 354.413,35.231 355.944,49.437 357.48,39.728 359.015,44.426 360.551,48.067    362.089,46.8 363.624,31.771 365.163,19.679 366.704,25.514 368.246,18.801 369.713,36.771 371.029,42.444 372.778,33.551    373.523,47.802 377.215,12.674 376.544,43.161 380.379,17.399 382.073,17.867 380.933,41.492 381.443,48.205 386.729,21.888    385.794,38.034 391.248,15.804 393.293,14.575 392.172,28.924 393.393,30.851 397.525,20.236 397.315,28.232 393.478,49.086    401.835,24.168 398.037,43.112 397.717,48.994 399.071,49.234 405.476,34.618 410.454,25.318 411.149,28.407 412.641,29.211    407.291,47.008 419.066,22.566 411.389,44.748 420.654,27.8 412.458,49.44 421.285,34.489 417.996,44.76 428.284,28.223    429.027,30.622 430.207,32.105 430.347,35.392 429.312,40.496 425.225,50.365 420.845,60.145 437.919,36.25 423.901,60.453    428.899,55.591 429.198,57.705 442.996,41.197 445.286,41.029 444.639,44.734 428.963,67.292 446.438,47.949 438.763,59.758    440.759,59.74 437.836,65.347 444.382,60.27 454.707,51.473 434.425,75.135 446.285,64.944 449.183,64.215 444.988,70.398    461.47,56.965 438.435,80.303 444.141,76.962 465.022,60.806 462.584,65.123 451.441,76.37 470.695,62.974 468.8,66.686    464.621,71.986 463.332,74.955 458.449,80.377 455.496,84.238 453.124,87.558 450.529,90.898 469.166,80.762 472.372,80.703    468.337,85.027 472.204,84.639 479.897,82.233 476.252,86.174 454.111,99.562 485.227,85.402 453.218,102.921 462.659,99.928    473.393,96.64 466.407,101.403 460.579,105.425 459.206,107.443 465.984,106.259 487.419,99.833 488.174,101.4 465.701,110.879    470.233,110.886 467.848,113.156 475.769,112.304 471.805,115 489.35,111.864 488.611,113.825 478.773,117.881 487.639,117.503    477.354,121.342 486.852,121.063 473.716,125.081 489.371,123.988 498.94,124.241 490.187,127.258 495.954,128.255    473.222,132.491 491.02,132.247 488.337,134.159 482.889,136.168 486.396,137.554 480.63,139.401 470.082,141.22 495.281,142.279    472.393,144.011 493.201,145.537 485.211,147.063 471.522,148.589 471.404,150.115 497.884,151.642 480.69,153.168 475.03,154.694    499.334,156.221 488.966,157.748 481.958,159.275 463.646,160.802 485.129,162.33 500.002,163.858 471.844,165.386    467.355,166.915 468.613,168.442 486.478,169.97 497.522,171.497 479.971,173.024 479.485,174.551 473.135,176.078    476.891,177.604 471.183,179.131 498.872,180.658 462.318,182.185 475.644,183.711 465.26,185.239 484.735,186.766    499.583,188.293 486.297,189.82 492.637,191.348 462.344,192.876 472.82,194.404 480.424,195.932 480.632,197.458 461.069,198.984    481.154,200.51 485.335,202.035 489.582,203.559 498.775,205.083 469.845,206.607 496.473,208.13 480.586,209.653 475.011,211.177    487.462,212.7 496.745,214.223 461.164,215.746 494.317,217.269 461.571,218.792 474.071,220.316 475.042,221.84 480.82,223.364    489.193,224.889 468.385,226.415 482.332,227.941 485.441,229.468 498.27,230.996 499.328,232.525 476.36,234.055 466.904,235.583    476.399,237.112 485.9,238.639 483.371,240.166 467.843,241.692 483.089,243.218 489.328,244.744 471.382,246.269 487.223,247.794    481.77,249.32 470.361,250.845 494.432,252.371 490.348,253.897 487.833,255.424 492.297,256.952 498.457,258.48 497.692,260.009    468.92,261.539 480.936,263.069 475.069,264.599 473.813,266.127 493.745,267.654 472.754,269.182 469.473,270.709    477.593,272.235 485.667,273.763 462.531,275.29 488.767,276.818 475.047,278.347 477.289,279.876 461.67,281.407 496.892,282.938    475.977,284.467 482.314,285.996 478.47,287.524 462.468,289.053 475.696,290.58 480.93,292.109 471.619,293.639 485.775,295.169    463.073,296.7 474.935,298.23 468.122,299.76 491.115,301.289 496.172,302.818 468.911,304.348 496.941,305.878 470.821,307.408    466.694,308.939 493.644,310.47 489.582,312 487.167,313.53 474.537,315.061 488.048,316.592 478.894,318.123 498.392,319.648    473.641,321.176 475.887,322.705 487.311,324.237 495.145,325.767 470.433,327.295 493.489,328.822 475.806,330.35    493.545,331.878 496.105,333.409 464.724,334.941 464.797,336.472 471.151,338.002 473.961,339.531 479.517,341.064    478.247,342.597 472.064,344.128 483.089,345.66 472.104,347.193 462.223,348.726 487.414,350.26 499.617,351.793 475.321,353.327    469.165,354.857 497.497,356.388 476.797,357.923 487.149,359.455 499.102,360.99 481.802,362.526 485.172,364.062    485.777,365.599 484.342,359.593  " style="fill:#5CBF00;"/><path d="M258.674,115.945c-15.607-0.238-31.417,2.029-46.036,6.819   c-12.762,4.187-23.85,8.721-24.655,10.056c-0.814,1.334,7.722,4.956,19.001,8.063c11.29,3.126,26.403,9.27,33.603,13.622   c16.422,9.91,15.781,9.873,28.672,1.792c14.684-9.233,51.277-20.643,59.694-18.558c3.788,0.932-2.506-2.944-13.97-8.685   C298.406,120.717,278.736,116.255,258.674,115.945z M347.251,148.125l-12.021,6.601c-6.651,3.621-19.551,13.549-28.571,21.996   l-16.34,15.304l18.298,23.257c37.848,48.014,58.716,89.167,59.082,116.428l0.2,12.981l9.561-14.555   c14.739-22.471,20.009-45.472,18.7-81.103c-0.979-26.584-2.562-33.898-11.609-52.603c-5.782-11.939-16.478-27.682-23.842-35.014   L347.251,148.125z M167.636,150.209c-2.571-0.091-4.803,1.079-8.536,3.565c-10.31,6.893-29.266,36.276-37.298,57.851   c-12.973,34.813-5.929,88.436,15.827,121.017c8.572,12.854,10.484,14.171,7.704,5.248c-5.507-17.718,22.926-76.002,59.905-122.699   l18.499-23.166L206.472,176.3c-9.45-8.63-22.167-18.448-28.26-21.794C173.088,151.69,170.197,150.301,167.636,150.209z    M255.792,223.253l-23.219,20.533c-41.389,36.417-79.227,85.71-79.227,103.318c0,13.146,37.235,37.52,70.6,46.203   c35.533,9.271,85.421-0.676,115.904-23.036c25.269-18.559,26.037-25.068,6.989-54.396c-11.747-18.083-64.159-73.534-80.563-85.181   L255.792,223.253z" id="path3797_1_" style="fill:#FFFFFF;"/></g><g id="Layer_1"/></svg>