<?xml version="1.0" ?><!DOCTYPE svg  PUBLIC '-//W3C//DTD SVG 1.1//EN'  'http://www.w3.org/Graphics/SVG/1.1/DTD/svg11.dtd'><svg height="512px" style="enable-background:new 0 0 512 512;" version="1.1" viewBox="0 0 512 512" width="512px" xml:space="preserve" xmlns="http://www.w3.org/2000/svg" xmlns:xlink="http://www.w3.org/1999/xlink"><g id="social__x2C__media__x2C__social_media__x2C___google_plus__x2C_"><polygon points="477.124,368.68 471.314,370.09 468.124,371.416 492.657,373.769 500.35,375.88    476.315,376.077 480.343,377.886 490.271,380.37 475.052,380.401 479.487,382.422 494.808,386.048 480.965,385.742 468.57,385.285    477.05,388.208 496.098,393.411 493.583,394.708 470.32,391.354 462.442,390.978 467.507,393.592 464.855,394.332 480.996,400.269    487.6,403.891 488.343,405.903 457.137,397.562 485.65,408.615 487.062,410.923 467.606,405.525 485.57,414.027 456.484,404.157    468.271,410.509 475.636,415.33 466.343,412.881 460.627,411.823 480.323,422.938 459.531,414.385 464.617,418.604    453.186,414.144 477.922,429.387 477.452,431.097 454.101,419.262 467.768,429.202 479.319,438.364 465.742,431.677    454.88,426.333 456.891,429.436 453.216,428.628 473.451,445.133 454.051,432.806 465.013,443.11 465.039,445.258 462.145,445.08    442.796,431.012 465.453,452.284 462.143,451.69 459.327,451.458 447.484,442.664 447.054,444.307 458.146,457.361    444.532,446.003 449.118,452.925 452.485,458.869 444.961,453.09 445.306,455.832 433.766,444.853 450.936,467.525    447.654,466.262 433.194,450.767 439,460.656 440.126,464.801 424.067,445.492 441.969,473.108 425.643,452.374 424.773,453.582    427.018,459.618 437.405,478.943 418.932,452.027 433.868,479.951 415.001,450.521 424.124,469.643 424.196,473.113    411.563,452.258 414.841,461.68 414.807,464.868 420.516,480.523 406.539,453.645 418.504,484.344 404.905,456.293    413.045,480.021 402.481,457.188 408.711,477.758 404.497,470.636 410.317,492.367 398.431,461.511 399.033,467.98 403.31,487.518    393.59,459.039 394.576,467.764 391.504,461.232 394.723,480.607 392.304,476.937 394.333,494.248 390.485,483.521 387.548,476.15    386.139,476.777 385.23,480.795 384.219,484.854 382.513,484.106 378.75,464.145 377.171,461.448 377.377,479.723 376.485,489.209    374.063,474.799 372.223,465.189 371.725,496.162 369.819,483.74 368.246,476.787 366.719,478.579 365.191,465.782    363.664,498.658 362.137,493.916 360.609,482.092 359.082,499.178 357.555,487.742 356.027,483.164 354.499,465.806    352.971,487.428 351.442,461.085 349.914,476.163 348.385,470.543 346.854,471.612 345.325,485.217 343.797,476.732    342.268,480.707 340.739,481.077 339.211,465.284 337.683,465.222 336.155,494.928 334.627,481.701 333.1,485.755 331.571,481.057    330.044,480.856 328.516,495.525 326.987,465.851 325.459,494.733 323.931,500.347 322.402,492.942 320.874,466.035    319.345,480.522 317.815,471.271 316.287,478.711 314.759,481.74 313.231,481.118 311.705,492.242 310.179,493.063    308.653,500.615 307.128,475.498 305.604,476.449 304.079,469.123 302.555,499.548 301.03,481.232 299.506,500.923 297.982,467.92    296.458,477.7 294.934,462.491 293.409,497.397 291.884,472.212 290.359,481.797 288.833,475.021 287.308,491.1 285.78,500.406    284.253,479.945 282.725,499.304 281.196,493.658 279.666,461.788 278.135,480.212 276.605,473.18 275.076,496.411    273.547,474.352 272.02,470.216 270.492,495.183 268.965,470.348 267.438,466.435 265.911,494 264.385,469.805 262.858,498.958    261.332,463.443 259.805,482.387 258.277,485.987 256.75,470.189 255.221,500.913 253.692,473.139 252.162,480.052 250.63,493.836    249.099,485.12 247.569,477.105 246.04,474.336 244.511,470.533 242.982,462.561 241.454,466.652 239.926,462.792 238.398,498.665    236.869,499.478 235.34,462.593 233.811,474.771 232.28,465.399 230.748,472.716 229.216,475.895 227.686,488.273 226.156,468.119    224.626,493.184 223.097,480.405 221.567,483.901 220.038,492.5 218.507,463.103 216.976,492.83 215.444,470.765 213.912,473.461    212.381,488.378 210.851,496.233 209.321,495.577 207.791,485.277 206.259,487.253 204.727,483.313 203.195,466.225    201.663,467.069 200.132,476.581 198.602,475.669 197.07,481.027 195.537,469.933 194.005,476.9 192.479,475.369 190.95,494.952    189.419,471.973 187.886,477.598 186.355,484.996 184.826,494.031 183.297,467.458 181.769,483.398 180.239,472.484    178.707,489.24 177.173,476.383 175.642,483.43 174.111,496.965 172.58,461.065 171.046,500.665 169.513,484.119 167.98,471.874    166.447,486.039 164.912,473.222 163.379,487.17 161.844,461.579 160.31,496.465 158.774,466.215 157.243,473.86 155.711,467.773    154.175,464.605 152.641,484.654 151.105,476.923 149.568,481.877 148.032,462.573 146.493,471.66 144.952,481.254 143.41,479.715    142.044,469.154 140.057,491.573 139.058,474.612 136.527,494.519 134.798,494.619 134.496,477.104 133.692,469.714    130.635,485.119 127.743,495.61 129.814,467.444 123.725,498.872 122.567,494.815 121.567,490.387 121.468,481.952    119.498,483.698 123.338,458.847 120.3,466.25 115.81,478.582 109.604,496.002 114.93,470.216 108.474,487.09 115.227,459.522    106.6,481.905 107.375,474.555 102.309,484.25 98.798,488.908 102.513,474.426 101.649,472.419 96.469,480.854 99.799,469.006    104.657,454.607 92.978,476.544 97.332,463.822 91.513,472.214 86.636,478.166 83.462,480.505 96.022,454.275 78.557,482.103    91.586,456.521 81.389,470.603 83.183,464.679 84.325,460.063 81.455,461.69 85.004,453.821 70.794,471.503 67.319,473.351    72.486,463.487 71.575,462.023 71.844,459.093 67.016,462.535 65.641,461.6 67.044,457.425 58.25,464.961 71.921,447.302    55.791,462.457 58.22,457.4 69.632,443.424 49.681,461.104 56.567,451.994 67.532,439.493 56.139,447.942 61.741,440.834    66.252,434.982 70.518,429.585 64.227,433.047 68.926,427.541 45.738,443.781 64.204,427.843 45.964,439.454 49.89,434.662    65.034,422.342 44.656,434.396 42.757,433.692 63.123,418.963 47.062,427.24 54.128,421.281 50.292,421.846 59.57,415.016    39.91,424.097 35.195,424.745 55.48,412.683 31.854,422.658 25.689,423.677 55.859,408.107 25.03,420.095 37.935,412.772    29.681,414.418 50.953,404.385 29.293,410.987 21.825,411.88 22.599,409.748 42.214,401.548 51.118,397.265 31.547,401.666    23.202,402.35 28.033,399.303 26.083,398.109 26.913,396.218 36.63,392.392 27.569,392.743 20.071,392.538 28.66,389.267    24.438,388.35 25.107,386.584 42.767,382.526 40.882,381.361 30.483,381.068 29.653,379.589 16.817,379.061 21.291,377.024    48.755,373.88 20.323,373.719 47.19,371.313 19.007,370.377 21.2,368.68 36.829,367.153 21.314,365.627 14.751,364.102    31.05,362.575 20.655,361.049 20.98,359.522 14.078,357.996 48.78,356.47 30.389,354.942 20.751,353.416 50.131,351.889    48.936,350.36 34.529,348.833 38.383,347.304 47.775,345.776 16.708,344.248 25.703,342.721 47.243,341.193 43.793,339.666    23.321,338.14 20.213,336.612 19.313,335.086 36.702,333.559 48.832,332.032 46.563,330.506 47.492,328.979 39.937,327.452    11.114,325.925 46.723,324.398 35.941,322.872 12.134,321.345 39.766,319.816 33.882,318.288 27.227,316.761 38.285,315.234    13.667,313.708 30.428,312.183 15.008,310.657 35.485,309.133 40.998,307.609 49.918,306.085 31.033,304.562 37.052,303.038    20.377,301.516 46.778,299.992 35.16,298.47 48.76,296.946 41.979,295.423 17.49,293.899 37.204,292.376 50.911,290.853    47.273,289.327 17.016,287.803 19.298,286.277 20.039,284.751 26.219,283.224 34.199,281.695 47.582,280.167 23.962,278.637    50.618,277.108 49.904,275.58 21.917,274.053 23.941,272.525 22.381,271 21.642,269.474 12.405,267.948 37.707,266.423    35.493,264.897 38.432,263.372 31.458,261.847 17.088,260.32 30.369,258.794 29.635,257.268 30.149,255.74 14.009,254.211    39.402,252.682 31.543,251.152 47.638,249.622 28.583,248.093 22.426,246.565 35.431,245.037 22.364,243.51 33.071,241.983    30.855,240.456 20.855,238.929 33.809,237.401 45.465,235.874 19.233,234.345 37.938,232.815 43.536,231.285 26.397,229.754    42.972,228.225 22.374,226.696 24.292,225.167 33.194,223.639 40.993,222.111 46.938,220.582 25.907,219.053 44.765,217.523    22.062,215.991 13.21,214.461 26.723,212.931 11.108,211.402 13.526,209.873 47.305,208.344 39.341,206.813 21.188,205.283    31.234,203.751 43.307,202.221 39.399,200.691 22.897,199.161 29.374,197.631 18.225,196.1 26.154,194.568 28.9,193.043    48.982,191.516 42.15,189.986 23.617,188.454 42.07,186.924 43.88,185.396 47.416,183.869 50.966,182.341 34.304,180.813    42.776,179.282 40.49,177.749 31.024,176.219 12.424,174.689 46.292,173.159 20.343,171.626 25.531,170.094 24.956,168.563    37.661,167.031 47.062,165.497 45.955,163.965 23.51,162.431 25.849,160.898 44.439,159.363 28.601,157.833 32.525,156.303    19.848,154.768 20.301,153.235 22.778,151.7 21.11,150.164 12.886,148.629 48.324,147.091 20.751,145.551 50.768,144.011    35.324,142.533 15.114,140.515 38.332,139.696 12.89,136.895 35.162,136.604 36.378,135.214 34.73,133.585 49.052,133.638    44.128,131.727 25.454,127.808 39.988,128.347 49.177,128.407 29.524,123.575 38.123,123.623 40.022,122.52 40.03,121.044    47.943,121.421 39.238,117.863 27.054,113.116 18.789,109.089 26.431,109.503 31.528,109.337 41.869,111.017 41.418,109.325    53.46,112.042 31.911,102.655 27.217,99.096 53.363,107.803 49.631,104.804 41.142,99.591 55.569,104.439 54.048,102.281    34.356,91.22 48.733,96.594 30.251,85.357 46.901,92.328 58.021,96.798 54.39,93.172 42.676,84.618 58.053,92.134 36.228,76.791    37.955,75.854 34.994,71.813 41.378,74.043 37.284,69.071 37.557,67.084 59.082,80.984 57.871,78.236 52.013,71.709 63.128,78.722    49.268,65.256 46.897,60.998 60.908,71.087 53.51,62.324 46.69,53.67 63.17,67.004 53.495,55.312 71.974,71.612 56.233,53.182    69.84,65.252 62.882,55.396 61.026,50.827 59.584,46.556 84.05,73.063 66.175,49.083 61.407,40.37 70.5,49.23 67.22,42.112    87.89,67.602 85.482,61.956 90.344,66.609 90.395,64.377 84.123,52.273 82.401,46.724 93.957,62.698 91.676,56.27 87.413,46.01    79.427,28.396 90.072,44.446 89.203,39.417 89.377,36.18 99.345,52.981 95.471,41.429 91.439,28.738 91.413,24.318 105.066,52.356    107.774,55.467 105.081,44.872 110.017,54.015 102.504,28.938 102.783,24.573 111.272,45.16 108.292,30.712 115.055,47.951    110.769,27.536 117.527,46.614 113.725,25.726 119.952,44.911 116.127,21.144 118.998,26.541 119.05,18.14 126.313,48.933    125.554,36.142 125.41,25.114 127.257,26.516 129.237,29.349 132.868,48.198 131.727,22.17 133.681,25.556 136.197,38.764    138.162,48.387 138.694,29.051 139.839,13.081 141.865,31.014 143.41,12.375 144.938,38.205 146.465,31.352 147.992,49.834    149.519,33.034 151.046,40.083 152.574,38.549 154.102,37.167 155.629,26.083 157.157,22.95 158.686,30.893 160.214,42.72    161.743,37.682 163.272,48.024 164.801,32.865 166.331,38.321 167.86,42.296 169.388,34.191 170.917,34.973 172.445,41.438    173.973,19.991 175.501,26.195 177.029,17.73 178.557,31.447 180.084,41.783 181.612,19.922 183.14,20.554 184.668,42.374    186.197,31.78 187.726,38.541 189.253,34.343 190.782,35.884 192.312,14.874 193.841,13.27 195.369,36.469 196.897,18.25    198.424,38.729 199.951,42.489 201.477,26.943 203.002,45.053 204.528,18.811 206.053,22.965 207.577,24.51 209.102,17.359    210.626,15.226 212.15,26.935 213.674,41.405 215.198,33.163 216.723,30.088 218.247,18.805 219.772,35.534 221.297,37.769    222.823,34.207 224.349,45.2 225.875,18.833 227.403,16.943 228.931,31.796 230.46,12.125 231.99,40.543 233.521,36.542    235.051,32.003 236.58,22.997 238.109,24.155 239.637,12.355 241.164,15.965 242.691,31.269 244.218,16.787 245.745,33.966    247.271,48.182 248.797,21.416 250.324,29.718 251.851,46.314 253.378,20.912 254.906,32.052 256.435,28.855 257.965,32.764    259.495,20.392 261.026,34.875 262.558,13.873 264.087,23.399 265.616,43.578 267.146,23.241 268.674,24.768 270.202,32.309    271.73,14.206 273.259,44.096 274.787,14.584 276.316,47.59 277.846,26.88 279.377,47.01 280.908,27.073 282.439,17.854    283.971,47.969 285.5,44.075 287.03,18.009 288.56,38.964 290.089,42.047 291.618,14.415 293.148,38.938 294.68,44.743    296.213,32.632 297.744,47.05 299.275,42.096 300.806,45.434 302.336,25.968 303.866,35.867 305.397,25.244 306.929,17.629    308.462,26.607 309.993,20.465 311.523,15.183 313.055,49.453 314.586,33.538 316.119,46.592 317.651,48.682 319.178,44.7    320.706,45.606 322.236,39.949 323.771,49.585 325.301,29.74 326.83,44.993 328.358,47.106 329.888,40.839 331.417,46.888    332.949,27.48 334.483,17.271 336.015,30.189 337.545,38.002 339.076,48.265 340.61,38.681 342.144,48.303 343.676,22.093    345.209,32.072 346.744,43.324 348.277,38.055 349.813,50.643 351.347,36.315 352.882,13.813 354.413,33.747 355.944,44.41    357.48,36.053 359.015,26.08 360.551,48.995 362.089,35.487 363.624,39.488 365.163,41.7 366.704,32.029 368.246,38.328    369.633,42.779 371.533,23.611 373.032,27.278 374.286,33.666 375.838,33.099 376.068,49.007 379.958,21.833 378.748,48.531    382.585,27.96 383.532,32.868 387.734,15.184 389.203,17.216 386.906,40.157 392.995,16.127 391.662,31.394 390.55,43.707    393.305,38.135 396.525,31.392 392.326,53.43 397.979,37.981 402.499,27.949 405.266,24.618 402.529,38.577 398.772,54.321    403.23,45.651 408.679,35.064 413.811,26.184 411.049,37.68 412.392,38.524 411.653,44.14 419.935,29.395 412.171,50.054    418.473,40.297 415.086,50.555 420.982,42.297 430.284,28.28 425.479,40.641 418.983,55.237 427.921,42.852 417.559,62.954    438.379,32.247 429.751,48.881 436.774,41.132 437.683,42.794 436.668,47.137 427.55,62.418 428.201,63.854 430.893,62.61    445.469,46.459 438.794,57.343 428.373,72.164 428.927,73.495 433.237,70.555 452.721,51.096 438.526,68.808 445.672,63.392    457.417,53.638 459.69,53.841 441.517,73.734 442.168,75.031 459.184,61.401 440.759,79.954 439.736,82.589 462.185,65.458    467.902,62.958 460.777,70.838 452.881,78.961 447.573,84.755 461.881,76.012 444.968,89.927 459.271,81.641 469.607,76.55    475.35,74.812 447.294,94.497 456.498,90.392 467.481,85.533 466.93,87.66 473.25,85.925 464.662,92.402 474.009,89.228    468.952,93.587 478.512,90.663 473.079,95.051 461.903,101.838 487.868,92.046 489.444,93.33 470.529,102.886 486.813,98.197    487.635,99.753 472.898,106.833 482.614,105.13 456.374,115.392 467.938,113.128 494.748,106.714 461.283,117.941 491.317,111.341    465.584,119.579 493.529,114.394 459.818,123.673 497.797,117.12 496.805,119.147 459.458,127.625 492.299,123.506    468.218,128.867 487.938,127.565 488.972,129.107 467.566,133.11 496.147,131.76 468.327,135.769 464.623,137.409 490.398,137.34    493.46,138.887 486.526,140.78 497.521,142.249 478.916,144.011 484.052,145.537 468.805,147.063 476.082,148.589 485.832,150.115    461.387,151.642 476.419,153.168 494.845,154.694 473.578,156.221 478.211,157.748 472.464,159.275 494.561,160.802    461.198,162.33 468.09,163.858 489.706,165.386 499.176,166.915 465.546,168.442 474.249,169.97 470.276,171.497 495.563,173.024    477.376,174.551 461.82,176.078 468.52,177.604 462.365,179.131 493.78,180.658 469.859,182.185 488.316,183.711 474.246,185.239    488.187,186.766 479.382,188.293 486.085,189.82 467.766,191.348 499.195,192.876 473.655,194.404 490.75,195.932 475.162,197.458    479.49,198.984 467.017,200.51 491.918,202.035 472.264,203.559 486.073,205.083 498.454,206.607 487.489,208.13 486.794,209.653    493.09,211.177 486.192,212.7 461.989,214.223 473.32,215.746 488.468,217.269 499.562,218.792 486.85,220.316 481.087,221.84    495.641,223.364 464.367,224.889 473.878,226.415 460.997,227.941 461.604,229.468 498.044,230.996 493.208,232.525    477.98,234.055 492.546,235.583 490.794,237.112 466.92,238.639 474.994,240.166 498.297,241.692 489.022,243.218 469.651,244.744    474.936,246.269 486.874,247.794 497.277,249.32 487.372,250.845 486.671,252.371 490.344,253.897 494.944,255.424    465.645,256.952 481.473,258.48 483.261,260.009 483.974,261.539 498.569,263.069 466.085,264.599 474.942,266.127    483.864,267.654 469.682,269.182 498.696,270.709 496.816,272.235 490.164,273.763 476.072,275.29 474.024,276.818    466.091,278.347 472.733,279.876 466.935,281.407 483.83,282.938 487.025,284.467 470.034,285.996 467.836,287.524    499.033,289.053 490.997,290.58 495.674,292.109 461.924,293.639 499.747,295.169 496.667,296.7 473.463,298.23 499.355,299.76    479.442,301.289 471.476,302.818 477.26,304.348 466.159,305.878 489.501,307.408 475.706,308.939 491.796,310.47 483.825,312    470.411,313.53 470.374,315.061 490.804,316.592 490.813,318.123 475.858,319.648 470.209,321.176 488.63,322.705 497.3,324.237    475.948,325.767 462.954,327.295 481.633,328.822 464.356,330.35 465.827,331.878 496.247,333.409 495.592,334.941    498.843,336.472 465.943,338.002 473.32,339.531 495.374,341.064 475.235,342.597 500.192,344.128 498.801,345.66 493.127,347.193    495.688,348.726 498.206,350.26 475.811,351.793 491.231,353.327 499.514,354.857 488.04,356.388 475.669,357.923 476.271,359.455    473.395,360.99 465.487,362.526 461.41,364.062 500.271,365.599 489.112,376.848  " style="fill:#FF3A21;"/><g><path d="M330.188,304.704h12.076c3.239,0,5.855-2.615,5.855-5.852v-42.432h42.377    c3.22,0,5.854-2.633,5.854-5.87v-12.085c0-3.236-2.635-5.869-5.854-5.869H348.12V190.16c0-3.218-2.616-5.851-5.855-5.851h-12.076    c-3.238,0-5.873,2.633-5.873,5.851v42.437h-42.376c-3.221,0-5.855,2.633-5.855,5.869v12.085c0,3.237,2.635,5.87,5.855,5.87h42.376    v42.432C324.315,302.089,326.95,304.704,330.188,304.704z" style="fill:#FFFFFF;"/><path d="M163.263,378.608c10.722,2.725,22.249,4.113,34.215,4.113c10.759,0,21.006-1.407,30.483-4.15    c29.55-8.575,48.653-30.351,48.653-55.51c0-24.117-7.739-38.562-28.525-53.28c-8.911-6.321-17.017-15.573-17.163-18.425    c0-5.192,0.458-7.661,12.076-16.729c15.022-11.757,23.292-27.244,23.292-43.589c0-14.828-4.519-27.993-12.24-37.245h5.983    c1.244,0,2.451-0.384,3.44-1.097l16.668-12.104c2.067-1.481,2.946-4.132,2.141-6.546c-0.786-2.432-3.037-4.077-5.58-4.077h-74.543    c-8.161,0-16.45,1.426-24.574,4.242c-27.171,9.38-46.164,32.546-46.164,56.37c0,33.679,26.074,59.24,60.948,60.044    c-0.677,2.669-1.024,5.302-1.024,7.88c0,5.193,1.317,10.106,4.025,14.86c-0.33,0.019-0.622,0.019-0.97,0.019    c-33.228,0-63.235,16.327-74.616,40.627c-2.983,6.308-4.483,12.688-4.483,18.997c0,6.143,1.573,12.031,4.647,17.589    C127.125,363.414,142.496,373.36,163.263,378.608z M169.904,189.647c-1.61-12.341,0.97-23.421,7.118-30.443    c3.971-4.535,9.167-6.911,14.985-6.911l0.677,0.019c16.468,0.475,32.222,18.85,35.131,40.956    c1.628,12.378-1.116,24.006-7.337,31.119c-3.97,4.534-9.093,6.93-15.168,6.93c0,0,0,0-0.019,0h-0.256    C188.897,230.841,172.795,211.735,169.904,189.647z M201.577,292.052l0.677,0.019c5.525,0.055,10.905,0.877,15.992,2.432    c1.738,1.188,3.421,2.34,5.05,3.438c11.747,8.025,19.505,13.328,21.683,21.831c0.494,2.12,0.75,4.26,0.75,6.326    c0,21.867-16.285,32.947-48.396,32.947c-24.354,0-43.401-14.956-43.401-34.044C153.931,307.446,176.199,292.052,201.577,292.052z" style="fill:#FFFFFF;"/></g></g><g id="Layer_1"/></svg>