<?xml version="1.0" ?><!DOCTYPE svg  PUBLIC '-//W3C//DTD SVG 1.1//EN'  'http://www.w3.org/Graphics/SVG/1.1/DTD/svg11.dtd'><svg height="512px" style="enable-background:new 0 0 512 512;" version="1.1" viewBox="0 0 512 512" width="512px" xml:space="preserve" xmlns="http://www.w3.org/2000/svg" xmlns:xlink="http://www.w3.org/1999/xlink"><g id="social__x2C__media__x2C__social_media__x2C__badoo__x2C_"><polygon points="460.668,368.662 468.623,370.025 466.825,371.363 493.372,373.781 479.018,374.722    468.601,375.544 477.404,377.63 490.378,380.364 485.417,381.509 468.347,381.034 480.43,384.081 493.286,387.579 490.903,388.937    482.385,389.143 469.296,388.24 490.746,394.115 494.575,396.699 461.92,390.82 470.047,394.213 458.976,392.76 487.011,401.944    473.768,399.792 467.455,399.41 487.645,407.461 475.622,405.184 463.168,402.391 490.933,414.179 465.801,406.367    478.723,413.108 479.706,415.291 471.057,413.32 473.738,416.209 461.067,412.018 478.82,422.184 451.345,410.278 473.115,423.006    456.768,416.055 481.662,431.451 467.703,425.484 468.774,427.937 474.779,433.451 456.729,424.122 468.101,433.193    469.395,436.007 447.416,422.911 451.879,427.668 464.207,438.393 469.631,444.478 446.34,428.701 450.227,433.493 467.44,449.378    459.949,445.376 445.021,434.67 455.068,445.413 464.779,456.403 450.93,445.877 449.045,446.209 459.553,458.726 439.415,440.794    458.173,462.355 443.714,449.461 455.378,464.546 446.521,457.195 453.888,468.252 450.037,466.425 444.465,462.334    429.473,446.043 431.081,450.356 424.598,444.044 439.692,466.992 437.592,466.885 439.649,472.787 429.771,461.073    436.69,474.567 420.396,451.834 434.729,477.982 429.208,472.06 422.935,464.381 416.004,454.975 415.683,457.228 417.5,463.716    426.984,485.88 412.969,461.067 419.744,478.856 409.896,461.074 408.369,461.008 405.789,458.398 415.61,486.389 403.507,459.891    408.026,475.903 405.215,472.649 408.408,486.738 407.863,490.542 402.584,479.439 398.007,469.5 402.341,490.344 401.057,492.252    392.624,465.771 393.725,476.354 394.575,487.213 389.516,470.929 389.858,480.257 386.753,471.689 389.506,497.231    382.304,461.356 381.499,464.836 381.12,472.751 379.697,472.869 380.681,498.426 377.031,475.487 375.432,473.459    374.178,476.921 373.096,486.967 371.59,491.085 369.779,480.722 368.246,475.563 366.719,477.702 365.191,500.899    363.664,489.046 362.137,489.944 360.609,479.394 359.082,479.494 357.555,488.441 356.027,482.397 354.499,467.429    352.971,466.85 351.442,461.75 349.914,486.693 348.385,478.777 346.854,476.62 345.325,468.484 343.797,474.342 342.268,498.596    340.739,493.145 339.211,490.761 337.683,467.682 336.155,464.631 334.627,478.469 333.1,497.747 331.571,471.171 330.044,495.765    328.516,490.724 326.987,484.854 325.459,492.14 323.931,470.931 322.402,475.062 320.874,463.964 319.345,462.232    317.815,464.697 316.287,468.425 314.759,480.913 313.231,490.823 311.705,485.73 310.179,499.401 308.653,476.493    307.128,461.606 305.604,464.385 304.079,484.39 302.555,467.216 301.03,483.674 299.506,495.709 297.982,481.366 296.458,462.1    294.934,488.26 293.409,484.071 291.884,482.461 290.359,471.714 288.833,482.474 287.308,475.691 285.78,466.621 284.253,465.739    282.725,471.205 281.196,465.297 279.666,493.602 278.135,475.309 276.605,478.503 275.076,483.187 273.547,480.525    272.02,496.338 270.492,479.651 268.965,468.92 267.438,482.292 265.911,470.142 264.385,475.194 262.858,497.911 261.332,477.035    259.805,477.566 258.277,478.169 256.75,467.15 255.221,477.938 253.692,462.868 252.162,485.79 250.63,486.329 249.099,492.61    247.569,463.634 246.04,486.839 244.511,480.586 242.982,471.285 241.454,462.943 239.926,495.999 238.398,491.174    236.869,485.124 235.34,480.063 233.811,466.407 232.28,500.235 230.748,475.812 229.216,495.898 227.686,471.649 226.156,465.99    224.626,497.767 223.097,469.465 221.567,488.454 220.038,474.555 218.507,474.145 216.976,481.626 215.444,491.352    213.912,494.656 212.381,467.95 210.851,462.335 209.321,470.532 207.791,481.479 206.259,489.46 204.727,497.664 203.195,484.148    201.663,475.918 200.132,481.22 198.602,492.822 197.07,476.336 195.537,485.452 194.005,461.892 192.479,467.467 190.95,492.174    189.419,472.924 187.886,470.155 186.355,499.512 184.826,500.855 183.297,479.456 181.769,489.945 180.239,473.699    178.707,498.309 177.173,487.751 175.642,478.276 174.111,491.209 172.58,500.525 171.046,492.044 169.513,476.887 167.98,496.507    166.447,498.836 164.912,500.938 163.379,488.956 161.844,497.726 160.31,468.393 158.774,499.375 157.243,462.163    155.711,496.805 154.175,461.101 152.641,496.014 151.105,499.317 149.568,465.649 148.032,474.264 146.493,482.235    144.952,477.808 143.41,484.553 141.806,486.154 140.66,469.003 138.88,479.057 136.287,498.944 136.494,469.635 135.255,467.758    131.845,489.293 129.961,491.319 127.755,495.508 130.505,462.255 124.542,493.4 124.306,484.129 120.409,496.977 122.592,476.101    123.849,462.68 116.623,489.267 115.832,485.251 119.198,465.009 115.293,474.469 116.862,463.289 113.94,468.475 104.778,493.271    108.812,475.07 113.396,456.816 109.353,464.416 110.08,458.45 103.139,472.795 103.927,466.746 104.516,461.613 98.714,471.5    96.058,473.663 100.595,460.246 92.954,472.854 87.285,480.627 87.176,477.111 95.413,458.221 89.458,466.115 89.378,463.188    81.445,473.699 90.455,455.705 86.711,459.048 86.729,456.335 92.02,445.824 84.237,454.929 80.165,458.217 68.75,471.354    80.963,452.152 74.099,458.731 72.927,457.712 77.373,449.791 62.497,465.355 77.747,444.983 59.261,463.807 65.051,454.854    60.394,457.514 73.058,441.922 67.667,445.408 74.708,436.393 63.979,444.861 71.178,436.064 74.509,431.237 62.144,440.462    69.619,432.07 46.67,449.569 53.497,441.779 49.772,442.717 51.145,439.599 37.89,447.542 45.904,439.486 64.365,424.409    44.512,436.446 46.564,433.11 53.704,426.593 45.114,430.27 37.007,433.355 38.394,430.565 43.239,425.869 51.358,419.561    46.774,420.394 47.398,418.382 31.804,424.563 42.709,417.378 43.07,415.522 23.044,422.902 40.58,413.309 33.032,414.814    23.093,417.06 43.1,407.411 42.86,405.939 49.334,402.082 46.94,401.459 28.317,406.048 53.717,396.452 23.602,403.996    44.394,396.4 47.691,394.076 39.758,394.672 36.65,393.905 31.746,393.457 21.295,394.021 47.511,387.242 18.529,391.058    52.041,383.803 25.946,386.441 24.734,384.968 41.5,381.27 45.931,379.377 42.152,378.387 19.479,378.829 24.209,376.812    33.669,374.668 30.5,373.293 25.446,371.887 12.444,370.447 18.257,368.662 19.3,367.136 49.505,365.61 26.621,364.084    19.177,362.559 42.322,361.032 16.331,359.506 21.153,357.979 39.311,356.453 30.174,354.927 17.791,353.399 13.43,351.872    23.208,350.345 19.389,348.816 34.656,347.289 14.199,345.761 44.894,344.232 22.896,342.705 40.254,341.178 14.017,339.651    24.501,338.124 45.806,336.598 14.739,335.071 19.316,333.545 12.327,332.018 30.203,330.491 18.633,328.965 31.838,327.438    19.067,325.91 12.652,324.383 14.421,322.856 45.167,321.329 30.957,319.801 38.205,318.273 24.947,316.746 32.124,315.22    28.608,313.693 34.622,312.168 37.354,310.644 36.789,309.119 48.246,307.595 30.602,306.071 41.32,304.548 24.846,303.025    24.123,301.502 41.731,299.979 50.347,298.456 46.077,296.934 50.871,295.41 47.913,293.887 14.833,292.363 42.685,290.84    44.495,289.314 26.046,287.79 35.714,286.265 17.243,284.738 40.819,283.212 21.678,281.684 27.372,280.155 14,278.625    30.084,277.097 23.396,275.568 38.618,274.041 27.289,272.515 46.479,270.988 23.695,269.463 20.458,267.938 50.801,266.412    11.328,264.887 30.093,263.361 49.411,261.836 21.468,260.311 48.729,258.784 50.223,257.258 35.11,255.73 31.708,254.202    12.329,252.673 14.653,251.143 40.976,249.613 43.766,248.084 22.045,246.556 21.209,245.028 46.667,243.501 39.932,241.975    29.451,240.448 24.511,238.92 41.078,237.393 42.356,235.865 50.58,234.337 34.509,232.808 34.648,231.277 16.232,229.747    44.91,228.217 27.744,226.688 39.702,225.16 50.082,223.632 39.263,222.104 35.099,220.576 47.593,219.046 26.898,217.517    35.374,215.985 49.783,214.455 11.397,212.925 19.912,211.396 19.894,209.867 19.298,208.338 22.9,206.808 26.701,205.277    15.55,203.746 45.142,202.216 12.626,200.687 35.42,199.157 12.238,197.626 13.989,196.095 41.677,194.564 36.88,193.039    36.782,191.512 24.125,189.982 34.102,188.45 16.247,186.92 40.117,185.393 30.833,183.866 18.577,182.338 18.096,180.81    20.644,179.279 34.554,177.746 48.13,176.216 38.573,174.687 22.504,173.157 35.492,171.624 26.651,170.092 38.416,168.561    27.532,167.029 38.486,165.495 50.964,163.963 30.584,162.43 19.619,160.896 11.844,159.362 17.185,157.832 16.262,156.302    40.26,154.767 43.926,153.234 20.135,151.7 42.944,150.163 34.016,148.629 41.204,147.091 14.544,145.551 38.402,144.011    22.662,142.364 11.6,140.421 26.902,139.238 14.445,136.97 46.91,137.395 36.895,135.258 26.553,132.812 13.668,129.792    14.105,128.055 17.602,126.739 24.453,126.01 33.027,125.753 49.633,127.159 14.079,118.997 29.106,120.26 20.082,116.624    16.807,114.076 28.292,115.122 28.462,113.489 49.305,117.641 29.368,110.369 49.98,115.058 25.256,105.617 27.095,104.447    38.111,106.586 51.576,109.96 53.537,109.284 49.296,106.16 28.34,95.874 31.625,95.45 57.035,105.109 34.419,93.08 52.081,99.828    30.577,87.471 51.546,96.427 39.446,88.319 40.931,87.303 37.355,83.414 30.737,77.564 61.624,94.313 36.307,76.84 47.941,82.325    34.546,71.513 42.891,75.083 64.546,88.375 38.979,68.119 48.987,73.418 52.297,73.937 60.03,78.065 63.866,79.319 61.923,75.866    43.227,57.832 73.446,82.196 68.476,75.943 52.464,59.071 64.188,67.983 65.389,67.061 76.465,76.17 75.831,73.632 74.185,69.91    57.981,50.006 60.024,49.7 60.553,47.682 66.434,52.006 83.468,70.345 76.346,59.25 70.08,48.677 77.166,55.418 67.178,39.107    71.335,41.923 86.47,60.972 76.877,44.089 90.309,61.842 74.984,34.899 86.225,49.989 88.254,50.472 86.25,43.975 92.202,51.481    89.705,43.761 92.029,44.871 97.909,53.199 99.615,53.545 100.846,52.926 95.543,37.825 98.318,40.221 98.378,36.357    103.006,43.599 99.99,31.69 103.741,37.075 99.967,21.765 102.837,24.734 113.308,51.439 111.554,41.262 112.792,40.273    109.675,23.596 118.245,49.331 112.015,18.877 115.866,27.547 115.474,18.193 116.832,16.054 124.193,44.899 126.022,47.301    128.041,51.307 124.107,16.433 130.778,52.433 130.085,36.304 131.119,32.069 130.823,12.637 134.945,41.188 134.979,20.695    137.454,35.269 139.164,40.653 140.292,30.004 141.868,31.259 143.41,44.856 144.938,26.839 146.465,18.67 147.992,48.923    149.519,35.975 151.046,50.821 152.574,20.41 154.102,28.616 155.629,12.336 157.157,11.754 158.686,45.28 160.214,25.348    161.743,25.069 163.272,29.631 164.801,11.672 166.331,24.759 167.86,21.807 169.388,16.256 170.917,25.335 172.445,22.896    173.973,35.236 175.501,29.675 177.029,44.6 178.557,38.731 180.084,39.698 181.612,45.722 183.14,50.528 184.668,43.147    186.197,24.58 187.726,40.403 189.253,20.74 190.782,48.19 192.312,13.255 193.841,16.914 195.369,25.662 196.897,20.27    198.424,16.322 199.951,31.002 201.477,25.935 203.002,21.124 204.528,47.885 206.053,48.444 207.577,49.761 209.102,40.25    210.626,33.639 212.15,48.375 213.674,48.912 215.198,42.569 216.723,19.494 218.247,46.241 219.772,32.156 221.297,15.096    222.823,29.506 224.349,50.097 225.875,14.874 227.403,16.32 228.931,21.838 230.46,24.023 231.99,23.577 233.521,12.076    235.051,51.542 236.58,32.396 238.109,14.104 239.637,21.661 241.164,48.862 242.691,38.769 244.218,22.249 245.745,37.919    247.271,41.854 248.797,13.115 250.324,45.547 251.851,45.075 253.378,32.045 254.906,21.178 256.435,14.989 257.965,38.04    259.495,31.881 261.026,29.68 262.558,35.409 264.087,46.965 265.616,32.743 267.146,21.145 268.674,13.293 270.202,30.762    271.73,12.235 273.259,32.073 274.787,50.755 276.316,43.375 277.846,29.538 279.377,28.229 280.908,44.437 282.439,16.529    283.971,37.547 285.5,30.796 287.03,28.09 288.56,42.71 290.089,20.57 291.618,47.122 293.148,17.562 294.68,22.134    296.213,46.311 297.744,19.844 299.275,16.969 300.806,37.449 302.336,40.897 303.866,28.112 305.397,24.78 306.929,39.923    308.462,35.726 309.993,34.672 311.523,18.58 313.055,50.866 314.586,14.824 316.119,12.561 317.651,37.254 319.178,22.03    320.706,31.54 322.236,25.164 323.771,19.338 325.301,38.753 326.83,43.253 328.358,13.368 329.888,36.302 331.417,49.582    332.949,12.897 334.483,23.599 336.015,19.486 337.545,46.132 339.076,46.03 340.61,30.438 342.144,19.484 343.676,36.928    345.209,32.18 346.744,47.625 348.277,16.678 349.813,18.979 351.347,39.279 352.882,41.151 354.413,41.705 355.944,50.85    357.48,49.848 359.015,18.222 360.551,24.585 362.089,30.944 363.624,47.759 365.163,45.833 366.704,51.294 368.246,44.79    369.612,44.294 371.823,12.728 372.25,46.559 373.67,45.205 377.227,12.496 376.113,48.538 378.09,41.579 378.739,48.623    381.426,37.447 386.135,13.761 383.273,44.945 383.555,51.712 384.604,53.07 385.978,52.616 390.522,36.911 388.662,52.281    394.345,33.721 396.836,30.146 400.112,24.024 403.297,18.934 397.493,44.964 403.221,31.208 404.413,32.772 408.361,26.121    407.241,34.364 408.291,36.106 413.591,26.759 404.259,54.552 415.241,31.713 417.68,30.287 410.438,50.452 421.349,30.44    415.304,46.84 418.602,43.557 417.624,48.771 422.76,42.298 431.094,30.523 422.209,49.609 431.498,36.795 436.605,31.66    425.346,52.99 439.313,34.094 439.563,36.946 428.224,56.578 444.118,36.584 426.731,63.557 437.503,51.425 448.129,40.196    444.072,48.216 446.028,48.452 447.475,49.345 428.816,73.631 445.323,56.871 450.406,53.633 452.272,54.081 441.438,67.803    447.386,63.826 435.768,77.459 455.239,60.548 440.626,76.468 446.742,72.729 455.177,67.196 452.937,71.218 442.652,81.826    463.481,66.556 471.054,62.689 455.853,76.669 451.908,81.508 471.585,68.943 460.697,78.786 444.957,91.488 448.799,90.446    447.875,92.617 477.9,75.266 468.083,83.326 462.382,88.545 465.054,88.735 475.874,84.464 455.66,97.238 477.398,87.464    484.181,85.923 472.865,93.399 470.255,96.372 461.268,102.125 471.83,99.039 480.731,96.98 481.346,98.523 480.61,100.598    473.446,105.012 470.861,107.556 464.471,111.295 456.635,115.307 464.687,114.134 471.525,113.553 461.083,117.997    490.955,111.451 466.254,119.423 487.917,115.72 490.412,116.898 497.719,117.136 476.62,123.032 465.697,126.512 496.686,122.786    470.63,128.503 491.122,127.129 491.351,128.817 480.512,131.693 481.137,133.184 487.405,134.228 488.127,135.813    465.076,138.694 478.83,139.474 466.442,141.316 493.096,142.296 468.217,144.011 489.765,145.537 461.319,147.063    498.649,148.589 483.992,150.115 477.072,151.641 483.405,153.167 475.604,154.693 495.894,156.22 494.676,157.747 477.62,159.273    466.794,160.8 482.72,162.328 472.563,163.856 499.109,165.384 497.867,166.913 478.51,168.44 469.361,169.968 461.676,171.495    470.742,173.021 487.374,174.548 488.346,176.075 469.39,177.602 466.229,179.128 474.677,180.655 493.193,182.182    482.648,183.708 462.012,185.235 475.799,186.762 479.778,188.29 489.935,189.816 492.285,191.343 483.708,192.872 480.214,194.4    496.539,195.927 495.274,197.454 476.63,198.979 475.411,200.505 461.472,202.03 474.911,203.554 487.033,205.078 492.422,206.602    493.845,208.125 462.878,209.648 473.196,211.171 462.763,212.694 479.934,214.217 467.312,215.74 494.604,217.263    478.049,218.786 492.218,220.31 494.388,221.833 472.42,223.358 499.102,224.883 471.604,226.408 469.044,227.935 476.294,229.461    474.847,230.989 494.118,232.518 461.107,234.047 498.733,235.576 487.225,237.104 473.285,238.631 483.046,240.158    498.316,241.685 478.361,243.21 489.475,244.735 465.619,246.261 472.977,247.786 496.252,249.312 477.444,250.837 477.67,252.363    464.616,253.889 495.222,255.416 463.335,256.943 476.307,258.471 496.309,260 467.389,261.53 482.375,263.06 493.719,264.589    463.293,266.117 461.411,267.645 488.527,269.172 466.894,270.698 499.109,272.226 464.723,273.752 467.353,275.279    496.47,276.808 477.992,278.336 465.563,279.865 463.313,281.396 460.971,282.927 494.895,284.456 470.996,285.984 492.79,287.513    492.707,289.041 464.315,290.569 477.226,292.098 494.045,293.627 481.528,295.156 479.211,296.688 488.391,298.218    485.394,299.748 472.759,301.276 471.231,302.806 500.156,304.335 482.822,305.864 485.489,307.396 493.548,308.927    464.303,310.457 468.319,311.986 497.525,313.517 487.483,315.047 470.594,316.578 480.149,318.109 483.232,319.634    494.248,321.161 482.139,322.69 476.333,324.223 490.505,325.753 492.984,327.28 500.548,328.808 482.587,330.335 483.137,331.863    466.4,333.395 497.081,334.927 475.958,336.457 494.831,337.986 475.23,339.517 466.073,341.049 475.415,342.581 461.101,344.112    462.765,345.644 496.876,347.178 490.642,348.71 475.306,350.243 490.716,351.776 500.555,353.311 480.283,354.841    475.082,356.371 487.663,357.906 487.616,359.438 490.902,360.974 465.421,362.51 491.321,364.044 472.987,365.582    481.763,374.246  " style="fill:#FF4F0D;"/><g><path d="M255.828,172.113c-31.031,0-59.136,12.58-79.483,32.911c-1.683,1.7-3.33,3.456-4.921,5.248v-80.358    c0-7.716-6.257-13.987-13.998-13.987c-7.721,0-13.998,6.271-13.998,13.987v146.961c0,0.659,0.055,1.316,0.128,1.939    c-0.092,1.865-0.128,3.729-0.128,5.631c0,30.991,12.589,59.076,32.917,79.407c20.347,20.332,48.452,32.911,79.483,32.911    c31.033,0,59.137-12.579,79.483-32.911c20.347-20.331,32.917-48.416,32.917-79.407c0-31.023-12.57-59.107-32.917-79.421    C314.965,184.693,286.861,172.113,255.828,172.113z M315.514,344.069c-15.277,15.268-36.374,24.721-59.686,24.721    c-23.31,0-44.407-9.453-59.686-24.721c-15.278-15.249-24.719-36.349-24.719-59.624c0-23.289,9.441-44.389,24.719-59.656    c15.279-15.267,36.394-24.701,59.686-24.701c23.312,0,44.408,9.434,59.686,24.701c15.278,15.268,24.721,36.367,24.721,59.656    C340.234,307.721,330.792,328.82,315.514,344.069z" style="fill:#FFFFFF;"/><path d="M214.312,263.898c-13.741,0-24.866,11.131-24.866,24.861c0,13.732,11.125,24.867,24.866,24.867    c13.723,0,24.866-11.135,24.866-24.867C239.178,275.029,228.035,263.898,214.312,263.898z" style="fill:#FFFFFF;"/></g></g><g id="Layer_1"/></svg>