<?xml version="1.0" ?><!DOCTYPE svg  PUBLIC '-//W3C//DTD SVG 1.1//EN'  'http://www.w3.org/Graphics/SVG/1.1/DTD/svg11.dtd'><svg height="512px" style="enable-background:new 0 0 512 512;" version="1.1" viewBox="0 0 512 512" width="512px" xml:space="preserve" xmlns="http://www.w3.org/2000/svg" xmlns:xlink="http://www.w3.org/1999/xlink"><g id="social__x2C__media__x2C__social_media__x2C___windows_store__x2C_"><polygon points="486.712,368.662 477.597,370.153 483.54,371.811 470.529,372.864 470.102,374.244    495.04,377.313 480.031,377.844 477.5,379.143 477.902,380.694 470.178,381.26 481.194,384.186 485.745,386.445 486.657,388.239    477.574,388.286 494.141,393.016 469.285,389.664 490.112,395.714 463.959,391.302 479.648,396.621 464.759,394.294    491.782,403.283 464.357,397.014 472.181,400.874 476.303,403.775 476.582,405.511 490.827,412.245 462.545,403.628    461.158,404.572 463.37,406.923 477.93,414.545 470.636,413.137 455.116,407.805 488.131,424.707 464.621,415.303 476.396,422.845    468.673,420.699 479.195,428.107 465.114,422.256 471.365,427.588 458.907,422.095 464.05,426.918 455.196,423.158    455.363,424.935 477.573,441.466 467.991,437.057 474.237,443.515 449.124,427.388 465.127,441.101 457.211,437.083    468.799,448.242 469.204,450.815 461.414,446.604 464.439,451.398 441.028,432.986 442.883,436.457 443.568,438.996    444.363,441.713 448.299,447.622 435.734,437.059 459.584,463.827 451.085,457.357 450.479,459.154 445.255,455.764    435.296,446.612 441.201,455.866 446.951,465.387 441.146,460.805 442.956,465.781 432.695,454.864 432.547,457.155    430.865,457.368 421.953,447.004 438.657,474.41 435.725,473.073 432.725,471.487 430.509,471.04 422.354,460.426 432.178,480.539    431.627,483.176 413.25,452.693 427.505,482.979 419.472,470.901 412.458,460.013 409.316,456.567 406.671,453.928    413.525,472.891 412.742,475.042 414.28,483.082 405.954,466.216 403.21,462.909 408.16,480.963 400.229,462.665 405.575,483.507    403.978,483.941 403.992,489.84 403.284,493.719 398.357,482.047 391.406,460.917 397.956,494.339 388.627,460.288 389.438,470.55    390.556,483.882 389.279,485.845 389.429,496.763 387.154,493.569 385.378,493.389 381.766,477.998 379.737,473.245    379.232,483.157 375.864,461.154 376.595,490.821 373.719,468.338 372.846,480.717 371.791,498.634 369.621,469.653    368.246,483.866 366.719,466.62 365.191,463.067 363.664,496.336 362.137,489.43 360.609,474.599 359.082,461.588 357.555,469.716    356.027,496.911 354.499,500.658 352.971,477.795 351.442,490.007 349.914,494.236 348.385,492.679 346.854,480.892    345.325,484.853 343.797,490.099 342.268,486.722 340.739,478.638 339.211,472.455 337.683,500.479 336.155,496.099    334.627,475.312 333.1,478.201 331.571,488.388 330.044,499.605 328.516,476.021 326.987,461.043 325.459,488.041 323.931,495.145    322.402,498.576 320.874,465.922 319.345,484.752 317.815,484.979 316.287,494.202 314.759,478.427 313.231,481.771    311.705,478.885 310.179,498.322 308.653,477.99 307.128,485.329 305.604,461.434 304.079,472.676 302.555,485.842 301.03,479.138    299.506,489.688 297.982,480.007 296.458,463.974 294.934,479.585 293.409,467.504 291.884,492.585 290.359,461.383    288.833,462.893 287.308,482.761 285.78,475.807 284.253,463.817 282.725,495.47 281.196,493.701 279.666,488.122 278.135,463.291    276.605,498.721 275.076,490.678 273.547,478.533 272.02,483.623 270.492,499.563 268.965,479.544 267.438,482.938    265.911,478.227 264.385,477.893 262.858,492.917 261.332,500.531 259.805,476.431 258.277,462.247 256.75,495.598    255.221,471.548 253.692,494.554 252.162,464.933 250.63,470.379 249.099,477.586 247.569,468 246.04,467.849 244.511,470.491    242.982,465.739 241.454,480.623 239.926,490.267 238.398,484.935 236.869,497.837 235.34,467.593 233.811,469.805 232.28,462.961    230.748,465.977 229.216,468.051 227.686,467.876 226.156,463.942 224.626,475.672 223.097,483.753 221.567,490.813    220.038,478.876 218.507,477.802 216.976,500.003 215.444,477.964 213.912,489.788 212.381,470.645 210.851,485.086    209.321,467.988 207.791,473.271 206.259,493.252 204.727,484.473 203.195,494.602 201.663,474.412 200.132,491.376    198.602,466.042 197.07,463.023 195.537,497.373 194.005,477.256 192.479,472.564 190.95,478.389 189.419,498.843 187.886,464.457    186.355,497.702 184.826,477.344 183.297,470.641 181.769,479.048 180.239,481.775 178.707,474.112 177.173,497.722    175.642,488.361 174.111,483.548 172.58,472.26 171.046,497.793 169.513,468.568 167.98,464.272 166.447,473.399 164.912,488.849    163.379,492.35 161.844,500.255 160.31,474.125 158.774,490.832 157.243,497.872 155.711,500.181 154.175,482.371 152.641,467.694    151.105,500.371 149.568,483.462 148.032,484.495 146.493,496.089 144.952,467.531 143.41,495.854 141.965,474.293    140.181,486.908 138.045,499.868 136.317,498.378 136.127,475.04 133.783,485.854 131.069,497.471 132.643,466.591    131.288,466.549 128.096,480.015 127.288,475.023 125.794,475.067 125.66,467.351 118.952,495.034 123.525,464.244    117.565,484.996 116.192,483.721 117.329,472.495 112.107,486.52 109.446,489.851 116.542,459.629 113.11,466.354 113.053,461.971    113.152,457.532 101.496,486.53 110.778,456.564 101.504,477.032 101.123,473.721 99.294,474.08 98.684,471.569 98.355,468.569    93.96,474.435 96.479,465.576 85.437,484.311 87.562,476.37 95.115,458.777 93.31,459.166 95.33,452.78 89.394,460.241    94.261,449.454 90.342,453.264 88.804,453.126 81.605,461.456 84.751,454.18 80.874,457.214 86.826,446.525 86.79,444.368    73.284,459.789 66.665,465.613 71.742,456.712 77.384,447.543 59.956,465.647 76.167,444.684 66.893,452.828 65.689,451.841    60.363,455.142 75.447,437.523 66.313,444.675 72.99,436.197 62.628,444.066 46.074,457.07 50.943,450.392 49.691,449.238    48.54,448.002 61.706,435.095 66.292,429.618 54.165,437.271 60.974,430.25 47.295,438.473 60.178,427.371 65.575,421.978    63.104,422.068 41.358,434.59 45.858,429.802 63.434,417.249 32.762,433.896 60.433,416.015 33.736,429.344 51.534,417.836    43.616,420.349 30.555,425.19 55.392,411.226 40.144,416.894 49.498,410.963 23.438,420.766 21.827,419.512 31.807,413.547    28.68,412.998 33.941,409.246 23.457,411.285 49.969,400.429 47.564,399.797 47.214,398.467 40.003,399.157 42.208,397.013    31.873,398.27 27.618,397.71 20.415,397.733 32.943,393.192 20.909,394.1 41.658,388.368 44.244,386.469 17.184,389.517    48.889,382.987 17.487,385.956 40.389,381.405 46.823,379.279 39.619,378.627 23.441,378.509 47.907,375.213 22.256,375.284    46.699,372.644 21.195,372.003 39.404,370.087 19.582,368.662 31.219,367.136 24.194,365.61 25.76,364.084 20.973,362.559    50.78,361.032 39.226,359.506 41.771,357.979 39.992,356.453 49.119,354.927 17.226,353.399 25.18,351.872 24.018,350.345    47.936,348.816 21.563,347.289 22.419,345.761 11.098,344.232 45.187,342.705 43.275,341.178 15.374,339.651 40.636,338.124    23.693,336.598 31.875,335.071 42.766,333.545 16.521,332.018 13.732,330.491 50.465,328.965 29.889,327.438 21.413,325.91    13.366,324.383 43.904,322.856 40.466,321.329 40.964,319.801 30.251,318.273 48.749,316.746 44.354,315.22 36.697,313.693    48.687,312.168 13.772,310.644 34.868,309.119 46.316,307.595 25.643,306.071 19.754,304.548 29.453,303.025 50.188,301.502    39.526,299.979 27.328,298.456 27.483,296.934 42.742,295.41 15.43,293.887 21.628,292.363 18.894,290.84 47.54,289.314    30.618,287.79 42.479,286.265 37.455,284.738 34.775,283.212 23.983,281.684 48.881,280.155 32.373,278.625 39.943,277.097    33.265,275.568 26.544,274.041 32.027,272.515 42.417,270.988 23.727,269.463 47.226,267.938 13.548,266.412 22.724,264.887    32.076,263.361 48.598,261.836 32.014,260.311 37.222,258.784 49.373,257.258 43.429,255.73 23.006,254.202 48.946,252.673    46.667,251.143 46.806,249.613 32.268,248.084 33.397,246.556 47.125,245.028 30.147,243.501 46.232,241.975 17.984,240.448    48.39,238.92 30.777,237.393 17.146,235.865 13.896,234.337 18.913,232.808 45.78,231.277 16.572,229.747 19.14,228.217    12.048,226.688 38.91,225.16 30.981,223.632 11.509,222.104 21.598,220.576 49.301,219.046 13.215,217.517 30.221,215.985    22.617,214.455 50.721,212.925 23.554,211.396 24.964,209.867 21.195,208.338 30.113,206.808 34.149,205.277 11.14,203.746    36.962,202.216 14.204,200.687 30.555,199.157 50.009,197.626 42.097,196.095 32.887,194.564 24.134,193.039 32.51,191.512    20.555,189.982 28.167,188.45 49.058,186.92 25.512,185.393 11.287,183.866 17.403,182.338 37.673,180.81 39.232,179.279    19.195,177.746 39.582,176.216 47.985,174.687 14.563,173.157 17.563,171.624 33.403,170.092 16.978,168.561 49.097,167.029    45.731,165.495 15.914,163.963 33.579,162.43 20.55,160.896 25.749,159.362 30.423,157.832 24.942,156.302 26.372,154.767    21.771,153.234 32.483,151.7 49.875,150.163 38.268,148.629 45.921,147.091 22.647,145.551 13.101,144.011 30.411,142.468    14.456,140.498 34.886,139.558 34.316,138.042 20.288,135.601 37.971,135.346 49.17,134.947 45.193,133.226 39.967,131.223    48.822,130.988 37.093,127.91 48.713,128.33 38.305,125.14 31.142,122.277 48.716,124.317 15.31,115.566 50.553,122.045    53.357,121.407 32.518,114.565 43.745,116.083 38.191,112.971 17.316,104.931 48.581,113.197 18.216,101.423 48.765,110.378    24.118,99.76 22.078,97.109 39.567,102.238 31.957,97.39 55.807,105.969 31.783,93.687 56.386,103.369 59.031,103.203    33.954,89.168 33.439,87.013 40.925,89.115 41.116,87.406 52.023,91.816 31.537,78.037 55.105,90.334 36.102,76.711 35.796,74.449    60.597,88.91 47.816,78.471 43.879,73.747 41.433,69.906 64.71,85.203 61.472,81.015 42.241,63.96 55.53,72.523 50.574,66.347    45.471,59.767 60.721,70.922 59.758,68.007 51.876,58.522 56.179,60.287 61.332,63.056 70.176,69.788 69.925,67.469 66.341,61.501    64.643,57.339 62.471,52.468 74.824,64.271 61.014,45.53 70.076,53.884 76.235,59.111 80.438,62.158 79.428,58.444 78.468,54.64    70.501,40.743 70.4,37.54 86.393,58.372 80.982,47.417 89.505,58.048 94.127,62.979 80.776,37.797 88.106,47.225 96.888,59.949    82.028,29.439 93.692,48.08 94.578,46.552 90.07,33.818 90.699,31.227 101.634,51.344 96.509,36.055 102.913,47.207    108.737,57.865 99.674,30.873 110.065,54.158 106.469,40.108 108.003,39.939 103.912,22.452 110.174,36.799 114.854,47.288    113.709,38.064 111.14,22.472 117.841,42.203 113.946,19.383 121.587,45.866 119.222,27.627 121.066,28.605 125.437,44.008    123.641,24.482 127.331,37.925 127.869,31 127.363,13.994 132.472,44.541 134.546,51.902 135.655,49.965 136.857,48.559    138.018,45.709 138.629,27.481 139.853,13.608 141.774,24.246 143.41,49.753 144.938,42.289 146.465,18.366 147.992,15.991    149.519,27.159 151.046,27.759 152.574,26.589 154.102,25.213 155.629,20.514 157.157,29.972 158.686,18.595 160.214,13.195    161.743,34.893 163.272,51.5 164.801,18.302 166.331,44.537 167.86,23.54 169.388,27.682 170.917,31.298 172.445,44.729    173.973,37.98 175.501,31.372 177.029,34.13 178.557,15.484 180.084,31.171 181.612,19.79 183.14,13.522 184.668,51.554    186.197,22.467 187.726,17.225 189.253,34.264 190.782,42.758 192.312,33.122 193.841,47.365 195.369,14.505 196.897,45.039    198.424,21.079 199.951,28.962 201.477,27.25 203.002,44.2 204.528,23.831 206.053,28.635 207.577,46.751 209.102,16.175    210.626,18.054 212.15,44.509 213.674,38.583 215.198,47.508 216.723,24.803 218.247,34.467 219.772,32.14 221.297,19.805    222.823,48.997 224.349,42.779 225.875,34.299 227.403,21.958 228.931,21.951 230.46,18.818 231.99,23.013 233.521,33.818    235.051,15.714 236.58,21.65 238.109,39.569 239.637,45.124 241.164,17.939 242.691,44.226 244.218,18.271 245.745,33.397    247.271,16.065 248.797,30.93 250.324,12.296 251.851,44.593 253.378,39.533 254.906,42.256 256.435,14.466 257.965,40.216    259.495,28.805 261.026,20.318 262.558,31.703 264.087,34.685 265.616,19.933 267.146,28.988 268.674,11.894 270.202,26.67    271.73,33.419 273.259,22.385 274.787,41.934 276.316,48.174 277.846,36.127 279.377,15.475 280.908,15.689 282.439,35.089    283.971,44.982 285.5,30.534 287.03,30.639 288.56,43.001 290.089,21.229 291.618,13.212 293.148,31.921 294.68,31.96    296.213,23.985 297.744,11.971 299.275,42.576 300.806,24.001 302.336,31.829 303.866,14.613 305.397,18.684 306.929,17.142    308.462,21.196 309.993,15.68 311.523,28.201 313.055,19.616 314.586,30.325 316.119,28.466 317.651,32.191 319.178,28.09    320.706,37.489 322.236,15.377 323.771,47.259 325.301,33.615 326.83,22.281 328.358,50.415 329.888,47.873 331.417,39.065    332.949,38.698 334.483,47.498 336.015,27.384 337.545,11.81 339.076,28.761 340.61,48.421 342.144,16.462 343.676,35.365    345.209,45.454 346.744,44.15 348.277,37.691 349.813,23.783 351.347,13.676 352.882,43.235 354.413,35.099 355.944,22.53    357.48,18.031 359.015,41.089 360.551,37.361 362.089,19.594 363.624,46.127 365.163,43.864 366.704,33.413 368.246,50.577    369.988,16.207 371.075,40.729 373.354,19.352 373.859,41.664 376.854,18.038 376.935,38.39 380.578,15.209 382.497,13.964    381.743,34.859 381.093,50.781 385.549,29.755 383.515,51.959 387.513,36.752 388.48,39.607 387.077,53.562 394.711,24.875    394.544,32.872 400.079,17.173 401.111,20.243 393.913,52.543 395.795,50.734 405.152,24.954 400.995,43.305 403.155,41.447    406.174,37.367 404.175,47.207 403.177,53.701 416.186,24.912 413.729,35.327 409.762,48.491 413.206,44.318 418.927,35.615    416.528,44.313 409.935,60.834 422.757,38.879 427.395,33.664 424.162,43.021 416.652,59.324 416.14,62.81 428.212,45.459    435.801,36.336 430.761,47.32 419.658,66.822 436.92,43.907 426.316,61.792 439.652,45.784 444.953,41.463 435.359,56.802    435.774,58.697 447.249,46.952 451.347,44.716 443.518,56.532 436.112,67.289 446.216,58.249 438.581,68.749 454.343,54.354    455.387,55.711 461.707,51.851 454.466,61.292 449.703,67.979 461.337,59.453 464.916,58.567 466.939,59.155 460.691,66.708    463.542,66.506 471.217,62.561 456.404,76.244 454.53,79.543 460.78,76.813 471.484,71.152 449.258,88.529 471.133,75.531    453.951,88.679 465.463,83.085 481.068,75.418 462.856,88.265 470.984,85.336 460.635,92.932 471.714,88.611 480.862,85.664    471.569,92.27 485.05,87.494 454.166,103.899 485.779,91.037 466.149,101.511 475.152,99.318 487.379,96.088 463.981,107.032    489.791,98.937 458.023,112.122 471.604,108.872 487.221,105.363 468.933,112.819 466.665,114.985 480.363,112.608    482.574,113.668 487.378,114.124 483.026,116.876 483.349,118.459 461.824,124.549 465.913,125.094 463.502,126.903    496.338,122.843 483.738,126.53 478.456,128.861 481.614,130.005 466.132,133.253 475.836,133.687 469.005,135.724 477.557,136.53    472.293,138.308 490.813,138.993 466.941,141.303 465.658,142.688 477.607,144.011 487.303,145.537 470.312,147.063    500.122,148.589 499.504,150.115 480.854,151.641 480.219,153.167 497.912,154.693 469.705,156.22 465.195,157.747    479.726,159.273 487.081,160.8 460.926,162.328 479.618,163.856 488.891,165.384 467.212,166.913 462.733,168.44 498.755,169.968    486.649,171.495 487.596,173.021 467.324,174.548 480.77,176.075 490.854,177.602 489.503,179.128 486.654,180.655    490.309,182.182 467.773,183.708 478.879,185.235 462.119,186.762 472.471,188.29 482.293,189.816 495.66,191.343 488.08,192.872    474.047,194.4 480.066,195.927 465.981,197.454 470.459,198.979 488.264,200.505 472.872,202.03 483.54,203.554 481.672,205.078    479.304,206.602 478.428,208.125 486.324,209.648 493.123,211.171 482.841,212.694 465.896,214.217 475.009,215.74    466.549,217.263 498.833,218.786 498.355,220.31 479.224,221.833 485.423,223.358 472.837,224.883 483.464,226.408    497.971,227.935 467.696,229.461 482.092,230.989 483.586,232.518 500.43,234.047 461.117,235.576 462.606,237.104    476.617,238.631 473.401,240.158 462.37,241.685 473.524,243.21 478.764,244.735 481.652,246.261 481.309,247.786 475.003,249.312    480.517,250.837 487.381,252.363 471.5,253.889 495.846,255.416 467.094,256.943 495.096,258.471 488.358,260 487.165,261.53    494.576,263.06 488.121,264.589 496.104,266.117 498.309,267.645 492.994,269.172 482.99,270.698 464.787,272.226 471.29,273.752    487.629,275.279 487.997,276.808 498.679,278.336 490.003,279.865 469.755,281.396 492.118,282.927 477.184,284.456    500.428,285.984 488.089,287.513 470.585,289.041 469.63,290.569 498.128,292.098 472.196,293.627 493.352,295.156    485.109,296.688 479.247,298.218 479.097,299.748 482.688,301.276 498.657,302.806 471.272,304.335 474.324,305.864    466.178,307.396 475.005,308.927 499.825,310.457 498.685,311.986 471.361,313.517 491.169,315.047 487.699,316.578    491.98,318.109 468.24,319.634 479.101,321.161 462.431,322.69 464.923,324.223 465.958,325.753 489.688,327.28 468.624,328.808    490.51,330.335 489.853,331.863 479.314,333.395 481.299,334.927 486.091,336.457 465.15,337.986 480.259,339.517 476.499,341.049    497.405,342.581 493.551,344.112 476.166,345.644 475.419,347.178 495.813,348.71 468.96,350.243 483.853,351.776 478.294,353.311    479.973,354.841 478.606,356.371 482.681,357.906 464.309,359.438 493.235,360.974 495.797,362.51 492.773,364.044    493.774,365.582 474.908,378.424  " style="fill:#00A2F4;"/><g id="g18086_1_" transform="matrix(4.6798804,0,0,4.6798804,-14628.123,-100339.87)"><g id="bag_1_" transform="translate(2886.7719,21269.267)"><g id="handles_1_"><path d="M292.676,201.723c-2.631,0.91-4.555,1.684-4.555,6.63v2.379l1.576-0.313v-2.055      c-0.039-3.352,0.848-4.056,3.149-5.032C292.835,202.7,292.778,202.165,292.676,201.723L292.676,201.723z" id="path205_1_" style="fill:#FFFFFF;"/><path d="M297.261,200.665c0.104,0.477,0.188,1,0.242,1.559      c4.121-0.582,4.041,1.09,4.041,4.579v1.289l1.56-0.313v-0.977C303.104,201.384,302.242,199.93,297.261,200.665z" id="path207_1_" style="fill:#FFFFFF;"/><path d="M281.023,212.128v-7.126c-0.051-4.415,2.268-5.771,6.549-6.755      c6.447-1.488,6.858,2.602,6.858,5.2v6.044l1.58-0.313v-5.599c-0.016-4.923-1.578-8.607-8.752-7.009      c-3.865,0.863-7.81,1.832-7.81,8.283v7.587L281.023,212.128L281.023,212.128z" id="path209_1_" style="fill:#FFFFFF;"/></g><path d="M310.994,208.103l-43.377,8.533v31.032l43.377,8.533l8.67-3.102v-41.893     L310.994,208.103L310.994,208.103z M286.567,241.253l-9.624-1.336v-7.861h9.624V241.253z M286.567,230.864h-9.624v-7.227     l9.624-1.34V230.864z M299.912,243.07l-12.134-1.743v-9.271h12.134V243.07z M299.912,230.864h-12.134v-8.637l12.134-1.746     V230.864z" id="path211_1_" style="fill:#FFFFFF;"/></g></g></g><g id="Layer_1"/></svg>