<?xml version="1.0" ?><!DOCTYPE svg  PUBLIC '-//W3C//DTD SVG 1.1//EN'  'http://www.w3.org/Graphics/SVG/1.1/DTD/svg11.dtd'><svg height="512px" style="enable-background:new 0 0 512 512;" version="1.1" viewBox="0 0 512 512" width="512px" xml:space="preserve" xmlns="http://www.w3.org/2000/svg" xmlns:xlink="http://www.w3.org/1999/xlink"><g id="social__x2C__media__x2C__social_media__x2C___windows__x2C__4__x2C_"><polygon points="489.852,368.68 485.497,370.279 495.572,372.149 490.869,373.697 488.564,375.25    489.308,376.946 470.562,377.09 488,380.154 485.797,381.566 467.698,380.982 489.162,385.282 464.928,383.33 478.413,386.901    465.396,386.13 466.192,387.657 488.886,393.737 484.261,394.444 482.181,395.617 494.162,400.275 463.668,394.017    474.279,398.392 468.758,398.328 474.529,401.616 468.617,401.292 488.303,409.519 476.121,407.021 463.95,404.168    477.466,410.892 455.596,403.799 476.335,413.886 476.141,415.551 470.091,414.577 453.922,408.68 476.283,420.976    466.979,418.133 471.137,421.996 480.737,428.949 480.359,430.74 478.354,431.615 479.858,434.511 473.267,432.561    462.411,427.708 450.155,421.58 455.417,426.691 460.634,432.012 463.226,435.723 447.201,426.012 470.802,445.38 467.934,445.363    469.417,448.729 440.202,427.163 444.923,432.794 461.83,449.162 445.127,436.625 462.717,454.55 441.19,436.773 454.438,451.407    451.897,451.188 433.597,434.919 458.197,462.393 432.86,437.844 457.199,466.562 439.256,448.989 439.162,451.127    430.784,443.416 448.42,467.202 448.17,469.682 444.41,467.691 441.393,466.492 427.455,450.156 435.665,464.176 426.484,453.602    440.147,476.656 435.269,472.377 429.026,465.6 416.36,447.803 428.227,470.394 420.457,460.059 431.857,483.604 430.664,485.173    426.877,481.808 422.952,477.851 422.367,480.469 409.709,457.402 420.62,484.845 416.595,479.953 409.675,467.71 416.904,489.613    408.74,473.425 412.237,487.272 399.487,456.509 409.604,490.268 402.223,473.202 404.976,487.168 395.736,461.807    396.214,468.427 396.828,476.278 395.604,477.651 391.962,468.872 395.195,490.035 390.05,473.52 386.247,461.495 387.09,473.582    388.252,489.615 385.643,483.55 381.43,464.324 384.437,499.862 378.494,461.789 379.172,482.528 377.373,479.668 375.015,467.229    374.814,488.823 372.67,476.357 371.816,499.571 369.787,481.334 368.246,481.294 366.719,466.769 365.191,495.578    363.664,470.675 362.137,463.492 360.609,474.485 359.082,469.979 357.555,498.712 356.027,499.093 354.499,486.125    352.971,477.449 351.442,471.757 349.914,485.316 348.385,491.949 346.854,499.874 345.325,498.138 343.797,468.322    342.268,480.271 340.739,474.915 339.211,494.425 337.683,470.345 336.155,474.671 334.627,479.608 333.1,495.193 331.571,480.059    330.044,480.345 328.516,490.294 326.987,462.539 325.459,477.386 323.931,465.85 322.402,480.116 320.874,491.607    319.345,464.009 317.815,486.492 316.287,475.361 314.759,488.388 313.231,490.839 311.705,475.589 310.179,491.867    308.653,496.041 307.128,493.68 305.604,489.899 304.079,492.76 302.555,465.961 301.03,488.352 299.506,495.416 297.982,488.775    296.458,489.882 294.934,496.521 293.409,479.822 291.884,482.399 290.359,489.232 288.833,473.472 287.308,497.824 285.78,497.1    284.253,498.016 282.725,489.095 281.196,475.624 279.666,472.867 278.135,495.445 276.605,473.312 275.076,500.798    273.547,469.356 272.02,484.609 270.492,497.225 268.965,463.795 267.438,477.835 265.911,493.39 264.385,461.195 262.858,497.347    261.332,483.225 259.805,473.896 258.277,481.151 256.75,479.997 255.221,477.463 253.692,496.685 252.162,484.32 250.63,490.037    249.099,465.446 247.569,495.954 246.04,465.692 244.511,476.082 242.982,484.807 241.454,482.056 239.926,476.412    238.398,470.521 236.869,480.744 235.34,477.482 233.811,475.396 232.28,492.135 230.748,497.222 229.216,492.63 227.686,475.382    226.156,464.069 224.626,465.71 223.097,477.591 221.567,474.698 220.038,493.494 218.507,492.775 216.976,486.197    215.444,485.979 213.912,479.104 212.381,487.732 210.851,468.579 209.321,473.08 207.791,472.794 206.259,471.646    204.727,488.505 203.195,467.453 201.663,481.722 200.132,488.888 198.602,461.715 197.07,475.223 195.537,496.988    194.005,462.534 192.479,491.539 190.95,486.207 189.419,475.235 187.886,474.848 186.355,498.019 184.826,476.16 183.297,499.377    181.769,494.068 180.239,496.798 178.707,473.448 177.173,484.704 175.642,468.797 174.111,464.035 172.58,461.442    171.046,496.653 169.513,491.207 167.98,463.578 166.447,467.856 164.912,486.456 163.379,470.323 161.844,492.638 160.31,492.291    158.774,470.921 157.243,496.647 155.711,482.258 154.175,463.229 152.641,482.625 151.105,499.338 149.568,468.778    148.032,475.745 146.493,476.729 144.952,497.237 143.41,492.572 142.159,461.136 140.349,480.646 138.647,484.874    137.311,480.132 134.465,499.533 133.228,492.694 131.336,494.803 132.672,466.325 128.705,487.724 125.806,496.792    126.807,478.251 123.022,492.029 121.32,491.772 118.342,498.21 123.688,463.399 115.25,495.491 113.018,497.23 118.406,468.188    115.533,473.572 109.345,490.222 108.261,487.814 115.376,459.041 110.497,469.877 109.13,469.386 103.288,481.496    107.733,464.793 103.852,470.953 96.226,485.91 104.599,461.396 92.75,485.26 92.768,480.966 89.337,484.33 98.892,460.603    101.629,452.002 93.109,465.696 90.216,467.931 86.505,471.456 80.529,478.658 89.699,459.723 86.481,462.239 77.183,474.222    79.994,466.761 70.642,477.919 84.648,454.34 68.192,475.19 78.598,457.833 83.359,448.961 63.062,473.087 80.617,447.998    78.419,448.509 74.673,450.801 70.563,453.338 69.568,452.159 78.634,439.907 73.716,443.253 52.346,463.529 71.586,441.441    69.812,441.229 56.913,451.662 51.401,454.579 69.425,435.856 44.427,456.162 51.058,448.072 65.534,433.766 44.69,448.975    56.093,437.716 69.562,425.412 42.954,443.762 64.636,425.853 57.063,429.582 63.511,423.39 49.002,431.496 40.668,435.044    53.376,425.09 36.781,433.514 45.043,426.644 32.654,431.935 53.537,418.365 30.696,429.047 31.535,426.65 33.55,423.705    32.507,422.342 47.296,413.557 50.667,410.45 49.851,409.285 43.113,410.602 31.972,413.494 51.462,404.188 29.608,410.871    42.189,404.639 43.649,402.597 39.681,402.371 19.426,407.095 51.294,395.85 37.624,398.312 18.645,401.791 46.501,393    32.625,394.871 29.019,394.077 26.407,392.984 32.515,390.144 49.035,385.631 29.152,387.573 46.941,383.297 36.5,383.381    12.736,384.799 47.977,379.171 49.498,377.707 37.302,377.404 48.301,375.204 28.077,374.986 49.146,372.563 38.683,371.545    49.543,369.97 28.116,368.68 49.668,367.153 19.887,365.627 24.02,364.102 36.67,362.575 30.095,361.049 15.933,359.522    31.649,357.996 12.132,356.47 40.991,354.942 37.794,353.416 45.418,351.889 49.48,350.36 13.184,348.833 40.092,347.304    48.991,345.776 31.499,344.248 22.941,342.721 45.691,341.193 25.355,339.666 23.863,338.14 17.443,336.612 35.903,335.086    30.074,333.559 12.626,332.032 24.261,330.506 34.961,328.979 42.907,327.452 42.89,325.925 48.554,324.398 37.563,322.872    31.522,321.345 37.389,319.816 41.754,318.288 48.196,316.761 41.103,315.234 33.76,313.708 25.493,312.183 41.02,310.657    23.52,309.133 39.218,307.609 34.503,306.085 29.034,304.562 19.904,303.038 41.409,301.516 42.256,299.992 11.313,298.47    50.297,296.946 14.192,295.423 13.09,293.899 27.01,292.376 44.175,290.853 17.089,289.327 44.569,287.803 44.932,286.277    45.585,284.751 27.145,283.224 23.818,281.695 37.395,280.167 26.634,278.637 41.978,277.108 41.611,275.58 47.143,274.053    23.092,272.525 12.74,271 27.922,269.474 36.04,267.948 45.845,266.423 25.755,264.897 12.731,263.372 44.341,261.847    41.973,260.32 11.575,258.794 35.796,257.268 49.223,255.74 39.171,254.211 40.212,252.682 29.17,251.152 11.395,249.622    27.292,248.093 41.281,246.565 16.204,245.037 18.487,243.51 30.747,241.983 47.833,240.456 30.775,238.929 13.989,237.401    45.502,235.874 42.598,234.345 20.506,232.815 20.492,231.285 14.451,229.754 25.396,228.225 17.72,226.696 25.965,225.167    34.896,223.639 20.487,222.111 41.875,220.582 41.85,219.053 11.871,217.523 42.568,215.991 17.229,214.461 21.671,212.931    31.096,211.402 20.216,209.873 49.508,208.344 28.975,206.813 25.273,205.283 15.489,203.751 25.285,202.221 23.294,200.691    47.508,199.161 18.454,197.631 37.858,196.1 12.923,194.568 45.572,193.043 15.379,191.516 43.357,189.986 23.222,188.454    50.792,186.924 49.364,185.396 50.841,183.869 29.241,182.341 35.293,180.813 12.121,179.282 50.118,177.749 21.369,176.219    31.34,174.689 45.699,173.159 21.062,171.626 32.8,170.094 46.556,168.563 12.858,167.031 28.157,165.497 17.53,163.965    48.734,162.431 34.893,160.898 24.029,159.363 47.655,157.833 34.026,156.303 35.592,154.768 45.708,153.235 38.722,151.7    12.219,150.164 50.158,148.629 27.378,147.091 31.871,145.551 42.895,144.011 37.778,142.566 33.401,141.004 41.612,139.828    36.332,138.149 36.821,136.715 15.506,133.526 17.948,131.993 12.618,129.687 40.649,131.303 16.954,126.651 50.483,129.925    51.812,128.84 33.924,124.361 48.433,125.61 46.868,123.937 33.673,119.637 46.691,121.126 41.571,118.447 48.458,118.797    30.792,112.454 28.963,110.25 17.388,104.951 19.721,103.819 21.806,102.646 34.283,105.226 36.398,104.322 26.542,98.834    25.617,96.613 47.604,103.954 46.562,101.952 54.25,103.843 41.298,96.302 24.931,86.642 46.988,95.717 57.391,99.466    61.15,99.985 46.021,90.131 51.224,91.358 60.692,95.284 55.511,90.583 60.139,91.833 52.731,85.43 36.535,72.842 61.839,88.118    60.998,85.87 46.573,73.651 46.662,71.675 45.715,68.863 48.43,68.868 66.867,81.773 69.218,81.977 72.341,82.929 62.299,72.319    72.663,79.747 55.442,61.857 48.248,52.665 53.741,55.555 69.864,69.471 79.251,77.201 65.344,60.432 79.718,73.941 65.714,56.134    58.568,45.374 71.167,57.66 61.113,42.857 84.582,69.66 71.046,49.941 66.438,41.065 72.421,46.32 75.198,47.393 90.927,67.458    81.45,50.951 78.14,43.021 85.089,51.006 85.349,48.549 90.298,53.933 81.234,35.203 93.739,54.256 84.929,34.85 97.01,54.474    84.765,26.984 101.622,57.686 88.11,25.669 99.861,47.397 99.806,43.646 100.653,41.798 105.628,50.125 106.321,48.084    110.784,56.085 102.137,27.905 108.345,40.945 102.935,19.437 106.336,24.385 106.424,18.631 116.195,46.953 116.505,42.751    112.316,20.089 118.365,38.165 114.744,14.876 123.631,48.975 122.507,36.103 123.404,32.588 124.388,29.034 126.265,30.818    127.671,29.557 128.104,20.063 130.146,23.091 130.962,14.111 133.224,19.896 137.043,51.319 137.637,38.663 138.385,21.347    139.998,19.028 142.138,51.5 143.41,23.622 144.938,23.189 146.465,26.004 147.992,49.898 149.519,25.896 151.046,13.656    152.574,28.163 154.102,44.558 155.629,36.81 157.157,43.563 158.686,48.068 160.214,42.574 161.743,30.769 163.272,24.075    164.801,13.403 166.331,40.408 167.86,50.318 169.388,14.879 170.917,49.424 172.445,48.345 173.973,45.605 175.501,50.793    177.029,12.617 178.557,42.696 180.084,36.934 181.612,20.481 183.14,24.293 184.668,29.482 186.197,29.087 187.726,51.06    189.253,22.85 190.782,23.365 192.312,46.202 193.841,32.274 195.369,13.451 196.897,45.54 198.424,35.95 199.951,14.059    201.477,33.879 203.002,24.381 204.528,11.756 206.053,31.203 207.577,35.321 209.102,22.568 210.626,21.82 212.15,48.868    213.674,16.804 215.198,34.438 216.723,33.677 218.247,22.72 219.772,12.076 221.297,17.336 222.823,43.063 224.349,47.427    225.875,27.642 227.403,40.687 228.931,15.824 230.46,27.253 231.99,50.728 233.521,16.551 235.051,51.624 236.58,42.519    238.109,25.919 239.637,15.439 241.164,18.189 242.691,45.674 244.218,39.218 245.745,31.073 247.271,44.873 248.797,20.724    250.324,48.27 251.851,37.909 253.378,44.235 254.906,39.769 256.435,37.515 257.965,45.137 259.495,50.45 261.026,30.398    262.558,17.02 264.087,30.911 265.616,23.236 267.146,47.703 268.674,23.709 270.202,20.57 271.73,26.104 273.259,24.636    274.787,23.795 276.316,32.589 277.846,27.631 279.377,34.494 280.908,35.105 282.439,36.014 283.971,34.546 285.5,39.246    287.03,48.103 288.56,43.133 290.089,45.358 291.618,37.481 293.148,24.312 294.68,41.136 296.213,13.28 297.744,25.71    299.275,30.929 300.806,46.497 302.336,27.203 303.866,46.787 305.397,30.343 306.929,25.854 308.462,19.459 309.993,19.164    311.523,23.336 313.055,47.119 314.586,49.144 316.119,20.793 317.651,24.705 319.178,44.559 320.706,29.721 322.236,41.354    323.771,50.051 325.301,41.637 326.83,29.689 328.358,36.609 329.888,32.494 331.417,15.318 332.949,15.033 334.483,18.613    336.015,48.061 337.545,45.616 339.076,42.228 340.61,15.534 342.144,48.491 343.676,14.115 345.209,50.54 346.744,34.831    348.277,40.21 349.813,15.251 351.347,22.371 352.882,23.536 354.413,28.247 355.944,24.048 357.48,20.404 359.015,39.415    360.551,23.79 362.089,24.105 363.624,30.293 365.163,26.709 366.704,34.192 368.246,19.564 369.701,37.662 370.819,50.301    373.562,14.239 375.293,15.002 376.158,28.347 378.252,22.155 380.39,17.285 381.151,26.366 383.564,19.941 386.243,12.96    383.364,44.33 384.308,47.109 391.548,14.122 391.551,23.641 391.41,32.614 392.521,34.789 398.004,18.207 396.594,31.118    396.708,36.898 398.219,37.121 403.3,25.226 406.448,20.798 399.06,49.27 400.87,48.156 411.957,21.087 401.265,55.038    411.125,33.133 412.08,35.12 418.321,24.349 416.135,33.837 415.112,40.091 420.956,31.276 421.273,34.512 424.826,31.158    414.977,53.873 425.503,37.188 419.784,50.919 433.876,29.229 420.941,54.677 421.277,56.847 433.559,39.917 433.688,42.794    431.633,48.848 432.546,50.278 424.279,64.666 423.235,68.346 426.449,66.195 431.011,62.457 437.274,56.801 435.531,61.353    444.149,53.326 441.037,59.417 450.496,51.008 451.623,52.304 431.91,75.896 447.988,60.972 449.721,61.455 456.498,56.993    462.796,53.285 441.869,75.311 461.795,59.022 442.753,78.19 455.561,68.957 461.545,65.993 460.488,68.999 446.617,82.067    450.418,80.86 467.441,69.874 450.88,84.025 467.58,73.909 458.502,82.17 468.987,76.964 468.351,79.348 462.757,84.787    472.166,80.828 466.755,85.962 452.124,96.142 483.944,79.986 482.634,82.744 451.189,101.079 478.913,88.578 469.749,94.91    487.453,88.322 472.419,97.081 473.453,98.332 472.393,100.475 485.15,97.001 471.893,103.972 464.344,108.387 487.266,101.723    474.768,107.797 480.153,107.661 481.621,108.889 473.063,113.101 462.559,117.584 478.943,114.627 473.122,117.696    466.375,120.81 497.373,115.344 465.102,123.872 476.978,122.964 487.308,122.655 461.304,128.605 479.822,127.12 488.79,127.449    480.284,130.168 496.43,129.952 473.773,133.882 468.599,135.747 463.79,137.465 464.793,138.709 497.993,138.705 470.659,141.204    482.224,142.453 465.546,144.011 466.989,145.537 486.873,147.063 477.639,148.589 476.585,150.115 462.979,151.642    491.506,153.168 470.867,154.694 488.355,156.221 500.329,157.748 480.825,159.275 498.118,160.802 496.404,162.33    486.039,163.858 478.762,165.386 489.515,166.915 492.859,168.442 492.646,169.97 499.407,171.497 495.393,173.024    497.834,174.551 479.536,176.078 477.688,177.604 486.706,179.131 492.17,180.658 499.025,182.185 479.484,183.711    495.837,185.239 492.755,186.766 483.451,188.293 482.458,189.82 484.042,191.348 471.665,192.876 489.538,194.404    478.826,195.932 461.787,197.458 480.396,198.984 496.265,200.51 471.349,202.035 488.227,203.559 480.403,205.083    472.516,206.607 473.76,208.13 476.07,209.653 481.243,211.177 490.735,212.7 486.905,214.223 468.097,215.746 487.522,217.269    482.847,218.792 481.831,220.316 471.544,221.84 495.942,223.364 494.693,224.889 481.084,226.415 476.656,227.941    483.651,229.468 475.24,230.996 489.455,232.525 465.614,234.055 469.204,235.583 496.804,237.112 485.426,238.639    478.104,240.166 467.315,241.692 482.521,243.218 464.575,244.744 499.778,246.269 498.721,247.794 497.366,249.32    466.191,250.845 479.863,252.371 476.341,253.897 478.904,255.424 494.323,256.952 484.148,258.48 489.054,260.009    464.082,261.539 464.542,263.069 489.622,264.599 464.26,266.127 468.275,267.654 487.667,269.182 466.991,270.709    490.559,272.235 472.846,273.763 461.672,275.29 497.355,276.818 461.724,278.347 477.478,279.876 483.073,281.407    489.251,282.938 483.28,284.467 473.517,285.996 488.985,287.524 482.357,289.053 462.897,290.58 494.587,292.109 481.164,293.639    464.081,295.169 485.863,296.7 480.708,298.23 463.231,299.76 485.28,301.289 476.881,302.818 472.197,304.348 482.367,305.878    481.384,307.408 469.456,308.939 469.565,310.47 466.684,312 465.152,313.53 464.099,315.061 475.699,316.592 489.579,318.123    497.331,319.648 476.617,321.176 496.546,322.705 472.275,324.237 461.427,325.767 477.723,327.295 496.565,328.822    475.818,330.35 488.904,331.878 465.227,333.409 485.203,334.941 473.772,336.472 460.993,338.002 490.064,339.531    490.626,341.064 476.88,342.597 473.418,344.128 477.383,345.66 476.966,347.193 460.915,348.726 490.228,350.26 463.985,351.793    481.351,353.327 488.996,354.857 473.058,356.388 493.32,357.923 466.92,359.455 479.589,360.99 492.006,362.526 469.315,364.062    488.138,365.599 484.105,356.881  " style="fill:#00B4F0;"/><g><path d="M115.306,343.521c19.651-7.752,35.533-10.861,48.89-10.861c22.012,0,37.271,8.319,51.671,17.699    c5.325-17.718,23.476-78.347,26.915-89.898c-3.897-2.358-7.813-4.735-11.966-6.911c-9.679-4.882-23.182-9.928-37.966-9.928    c-1.684,0-3.349,0.055-5.032,0.201c-14.839,1.207-28.342,4.918-37.839,8.191c-2.799,0.987-5.69,2.048-8.654,3.236L115.306,343.521    z" style="fill:#FFFFFF;"/><path d="M363.673,280.368c-18.956,6.655-35.296,9.161-49.11,9.161c-30.062,0-48.341-11.739-56.228-17.901    l-25.945,88.129c-0.037-0.036,30.318,18.285,53.099,18.285c14.418,0,31.654-3.456,53.19-12.159L363.673,280.368z" style="fill:#FFFFFF;"/><path d="M274.126,151.16c0,0-18.627-10.934-31.6-14.17c-6.185-1.426-13.192-2.34-20.932-2.34    c-0.11,0-0.202,0-0.293,0c-13.192,0.256-28.983,3.382-48.414,11.135l-25.617,88.055c19.962-7.954,36.138-11.482,49.732-11.482    c0.256,0,0.475,0,0.695,0c21.097,0.201,36.046,8.465,49.952,17.479c5.324-17.662,21.133-70.722,26.476-88.622V151.16z" style="fill:#FFFFFF;"/><path d="M290.521,162.587l-26.275,89.007c0.073,0.073,0.184,0.128,0.274,0.183    c14.455,9.453,33.247,17.109,55.916,17.109c14.986,0,31.636-3.346,49.843-11.734c0-0.035,0-0.09,0-0.127    c0.036,0,0.091-0.037,0.164-0.055l25.909-87.379c-19.139,8.172-35.899,11.19-50.227,11.19    C317.636,180.78,298.827,168.896,290.521,162.587z" style="fill:#FFFFFF;"/></g></g><g id="Layer_1"/></svg>