<?xml version="1.0" ?><!DOCTYPE svg  PUBLIC '-//W3C//DTD SVG 1.1//EN'  'http://www.w3.org/Graphics/SVG/1.1/DTD/svg11.dtd'><svg height="512px" style="enable-background:new 0 0 512 512;" version="1.1" viewBox="0 0 512 512" width="512px" xml:space="preserve" xmlns="http://www.w3.org/2000/svg" xmlns:xlink="http://www.w3.org/1999/xlink"><g id="social__x2C__media__x2C__social_media__x2C___digg__x2C_"><polygon points="493.597,368.68 463.916,369.991 464.539,371.32 477.898,373.177 474.282,374.485    482.485,376.489 486.992,378.427 472.585,378.693 482.952,381.258 497.852,384.665 474.278,383.262 490.288,387.145    473.568,386.105 481.326,388.97 491.322,392.492 476.832,391.246 474.888,392.366 470.395,392.847 489.68,399.151 482.096,398.91    485.182,401.438 474.28,399.959 469.459,400.042 458.89,398.131 492.671,411.007 487.569,411.104 484.556,411.819 467.55,407.056    487.266,416.57 474.784,413.236 463.457,410.021 463.212,411.465 469.286,415.884 474.993,420.349 463.818,416.542    481.431,427.354 478.028,427.494 473.37,426.857 452.107,416.543 460.832,423.247 469.629,430.34 455.435,423.311 446.241,419.045    446.098,420.472 461.956,432.922 464.586,436.688 461.316,436.293 473.779,447.614 448.367,430.275 469.852,449.073    467.293,449.283 465.568,450.097 457.077,445.067 440.552,432.574 447.023,440.235 454.369,449.108 462.437,459.098    461.173,460.352 452.262,453.837 437.422,440.729 458.4,465.205 445.073,453.213 436.194,445.526 435.538,446.913 440.215,454.698    430.409,445.083 430.286,447.094 429.091,447.77 435.661,458.836 427.99,450.892 422.068,444.906 441.709,475.822 433.92,467.31    428.412,461.773 426.215,461.123 419.734,453.344 417.59,452.373 421.678,462.192 428.618,477.756 423.592,471.985    418.612,465.859 421.358,474.674 414.902,465.066 415.09,468.914 417.848,478.703 412.628,470.835 407.692,462.963 405.23,460.593    410.305,477.483 403.073,462.548 404.93,471.854 402.964,470.723 402.688,474.636 403.166,481.323 396.35,463.888 397.138,471.734    392.131,458.522 392.718,466.091 393.183,474.062 392.017,475.633 387.199,459.726 387.347,467.211 391.258,496.938    384.206,465.033 384.299,474.568 383.877,482.338 380.23,465.416 380.344,478.844 380.796,499.639 376.931,474.168    375.705,477.544 375.085,493.882 373.285,491.672 370.922,466.09 369.938,492.633 368.246,466.104 366.719,476.378    365.191,495.773 363.664,480.845 362.137,488.71 360.609,493.551 359.082,464.858 357.555,492.003 356.027,475.02 354.499,482.196    352.971,467.451 351.442,475.479 349.914,478.179 348.385,474.397 346.854,479.203 345.325,469.207 343.797,499.51    342.268,483.324 340.739,467.585 339.211,473.266 337.683,496.134 336.155,491.545 334.627,484.713 333.1,464.474 331.571,479.294    330.044,485.971 328.516,483.978 326.987,468.257 325.459,494.639 323.931,465.689 322.402,461.787 320.874,464.016    319.345,495.696 317.815,488.951 316.287,465.604 314.759,480.275 313.231,461.817 311.705,485.521 310.179,469.584    308.653,495.831 307.128,491.809 305.604,500.71 304.079,499.029 302.555,463.185 301.03,464.517 299.506,497.252 297.982,484.922    296.458,470.478 294.934,477.636 293.409,461.358 291.884,469.8 290.359,478.188 288.833,495.944 287.308,499.148 285.78,486.188    284.253,486.859 282.725,500.261 281.196,469.708 279.666,488.866 278.135,492.087 276.605,488.344 275.076,481.067    273.547,462.235 272.02,483.01 270.492,499 268.965,475.292 267.438,483.974 265.911,480.584 264.385,490.641 262.858,468.983    261.332,466.306 259.805,471.864 258.277,485.551 256.75,475.405 255.221,476.079 253.692,476.549 252.162,491.102 250.63,474.518    249.099,474.926 247.569,482.05 246.04,489.164 244.511,497.135 242.982,500.753 241.454,483.311 239.926,484.989 238.398,469.477    236.869,491.811 235.34,483.662 233.811,466.782 232.28,484.382 230.748,494.586 229.216,492.928 227.686,467.223 226.156,465.373    224.626,496.777 223.097,499.049 221.567,498.209 220.038,489.906 218.507,466.593 216.976,489.479 215.444,470.028    213.912,497.97 212.381,479.643 210.851,498.589 209.321,466.259 207.791,492.352 206.259,474.629 204.727,477.339    203.195,485.599 201.663,476.795 200.132,479.144 198.602,481.474 197.07,461.916 195.537,478.275 194.005,486.781    192.479,494.466 190.95,473.748 189.419,499.69 187.886,466.827 186.355,461.491 184.826,474.491 183.297,469.179 181.769,487.785    180.239,490.671 178.707,494.568 177.173,472.332 175.642,475.967 174.111,477.807 172.58,486.774 171.046,493.545    169.513,470.428 167.98,470.913 166.447,486.088 164.912,472.762 163.379,495.465 161.844,470.738 160.31,495.192 158.774,463.861    157.243,471.953 155.711,463.571 154.175,486.927 152.641,500.926 151.105,488.759 149.568,462.548 148.032,494.968    146.493,478.66 144.952,495.474 143.41,473.73 142.119,463.938 140.014,493.151 138.135,497.627 137.152,483.043 136.467,470.043    135.139,469.208 133.113,475.881 133.258,460.912 131.575,464.202 127.98,480.869 127.971,470.467 125.032,479.719    125.588,467.824 123.513,471.322 117.97,491.1 122.461,462.819 114.063,492.781 111.464,495.981 109.474,496.495 108.152,494.493    110.512,480.144 107.911,483.16 113.109,461.813 110.9,464.174 104.334,478.549 108.133,463.714 97.407,487.664 103.568,467.646    93.229,488.608 99.646,469.36 91.183,484.479 88.007,487.173 91.134,476.62 93.658,467.928 95.71,460.685 96.515,456.203    83.523,476.838 89.554,462.895 82.013,472.762 76.322,478.922 92.708,449.528 82.765,462.476 83.461,458.68 87.526,450.146    89.537,444.94 76.664,460.494 79.199,454.519 82.521,447.798 68.781,462.966 65.438,464.475 69.183,457.364 76.307,446.665    70.275,451.358 61.046,459.281 68.549,448.788 62.333,453.108 77.828,435.111 68.81,442.219 52.109,456.275 72.151,435.172    65.031,439.854 57.013,445.02 60.878,439.612 53.234,444.082 47.82,446.423 44.309,447.061 55.553,436.214 61.376,429.962    61.482,428.15 60.578,427.093 37.087,441.577 44.018,434.822 42.23,434.033 32.025,438.509 43.3,429.536 38.053,430.77    36.403,429.79 46.03,422.532 29.695,429.585 50.014,417.032 40.144,420.392 35.403,420.937 46.737,413.819 31.915,418.913    29.574,418.116 56.596,404.948 51.088,405.787 21.89,415.641 48.5,403.858 32.144,408.211 37.392,404.723 39.897,402.301    41.389,400.282 29.055,402.399 24.405,402.013 50.458,393.359 26.383,398.034 53.175,390.025 25.397,394.879 30.337,392.17    50.066,386.767 21.774,390.495 21.501,388.833 35.946,384.952 24.939,384.956 13.155,384.747 18.637,382.353 50.169,377.644    35.09,377.583 20.168,377.101 11.299,375.884 42.188,372.842 19.201,372.074 17.599,370.396 47.286,368.68 34.918,367.153    39.896,365.627 11.436,364.102 13.755,362.575 19.975,361.049 39.411,359.522 20.349,357.996 23.438,356.47 23.937,354.942    26.669,353.416 43.085,351.889 19.624,350.36 49.749,348.833 24.533,347.304 44.948,345.776 38.149,344.248 37.057,342.721    46.426,341.193 17.836,339.666 25.754,338.14 45.338,336.612 31.055,335.086 27.408,333.559 13.359,332.032 43.533,330.506    43.932,328.979 21.1,327.452 23.011,325.925 29.894,324.398 34.441,322.872 30.76,321.345 27.256,319.816 25.837,318.288    17.193,316.761 23.644,315.234 19.677,313.708 27.516,312.183 46.447,310.657 35.509,309.133 35.365,307.609 18.879,306.085    12.298,304.562 39.578,303.038 20.046,301.516 49.976,299.992 27.451,298.47 25.106,296.946 26.645,295.423 44.224,293.899    33.255,292.376 19.311,290.853 38.014,289.327 18.433,287.803 33.807,286.277 46.414,284.751 14.581,283.224 19.306,281.695    26.844,280.167 37.528,278.637 25.677,277.108 20.162,275.58 40.185,274.053 45.176,272.525 23.278,271 41.662,269.474    22.459,267.948 16.15,266.423 36.924,264.897 20.256,263.372 36.907,261.847 36.491,260.32 28.555,258.794 48.129,257.268    26.945,255.74 22.315,254.211 26.026,252.682 28.359,251.152 42.306,249.622 50.272,248.093 14.038,246.565 49.083,245.037    34.453,243.51 21.334,241.983 41.24,240.456 40.378,238.929 30.059,237.401 11.722,235.874 22.257,234.345 17.644,232.815    31.272,231.285 44.668,229.754 13.388,228.225 35.205,226.696 11.531,225.167 36.803,223.639 40.732,222.111 33.904,220.582    35.681,219.053 12.893,217.523 19.467,215.991 26.432,214.461 33.126,212.931 22.697,211.402 43.077,209.873 44.137,208.344    12.79,206.813 13.67,205.283 21.229,203.751 49.073,202.221 48.621,200.691 13.287,199.161 25.085,197.631 35.024,196.1    24.384,194.568 34.717,193.043 38.782,191.516 41.279,189.986 26.517,188.454 19.615,186.924 35.829,185.396 22.872,183.869    13.765,182.341 31.77,180.813 39.184,179.282 21.066,177.749 12.381,176.219 15.356,174.689 43.749,173.159 17.828,171.626    25.6,170.094 11.556,168.563 20.033,167.031 38.022,165.497 26.188,163.965 27.284,162.431 37.748,160.898 43.104,159.363    20.759,157.833 49.769,156.303 48.064,154.768 20.033,153.235 34.667,151.7 40.746,150.164 43.292,148.629 49.186,147.091    46.165,145.551 44.02,144.011 12.751,142.232 35.035,141.047 38.728,139.712 40.274,138.36 13.788,135.163 43.399,135.782    40.098,134.095 42.429,132.92 15.806,128.271 48.428,130.935 36.583,127.834 25.883,124.58 36.893,124.892 34.455,122.915    32.067,120.873 26.406,118.029 33.117,117.929 53.532,121.438 20.173,111.29 41.073,115.336 53.928,117.612 30.266,108.945    55.055,115.302 27.005,104.417 53.2,111.95 21.038,98.616 44.566,105.814 22.397,95.315 58.05,108.336 50.795,103.795    23.287,89.854 56.543,103.451 53.877,100.701 50.161,97.311 61.02,101.354 49.615,93.786 46.087,90.167 44.98,87.782    56.829,92.997 30.802,75.5 48.108,84.265 46.632,81.478 58.924,87.794 42.352,74.713 39.948,70.958 44.016,71.789 55.985,78.663    56.805,77.414 46.552,67.379 50.908,68.752 72.477,84.708 59.687,72.022 63.376,73.272 62.062,70.103 75.542,80.656 61.196,65.108    55.601,57.392 58.964,58.408 59.906,57.015 75.643,71.473 66.459,59.337 67.969,58.686 63.927,51.603 62.565,47.377 73.153,57.667    76.197,59.063 65.427,42.638 86.202,67.506 87.122,66.545 83.452,59.08 77.274,47.565 70.357,34.304 85.506,54.413 88.638,56.66    90.812,57.529 88.872,51.517 86.534,44.473 87.828,43.576 82.406,30.144 96.849,54.163 87.403,32.244 98.966,52.198 94.783,39.956    96.453,39.847 99.069,41.949 94.267,26.52 104.051,46.2 103.964,41.978 101.803,31.844 112.077,55.894 111.77,51.025    112.046,47.547 111.961,42.578 116.585,53.15 116.85,49.295 111.572,24.103 112.257,19.851 121.4,51.066 115.555,18.551    119.096,27.013 118.872,17.212 123.458,32.888 123.563,24.004 128.806,47.753 129.341,41.817 131.303,46.27 129.421,16.4    131.111,15.684 134.15,31.358 136.804,47.776 136.315,14.174 138.377,21.16 140.397,33.981 141.853,30.141 143.41,15.468    144.938,34.442 146.465,31.23 147.992,24.514 149.519,19.364 151.046,45.95 152.574,16.905 154.102,16.681 155.629,48.513    157.157,28.757 158.686,14.754 160.214,42.74 161.743,41.004 163.272,13.57 164.801,51.652 166.331,27.07 167.86,19.902    169.388,30.792 170.917,45.844 172.445,26.953 173.973,49.765 175.501,13.543 177.029,28.887 178.557,47.417 180.084,28.7    181.612,15.295 183.14,20.027 184.668,50.096 186.197,24.744 187.726,35.861 189.253,11.737 190.782,39.791 192.312,45.253    193.841,49.493 195.369,25.177 196.897,12.543 198.424,28.123 199.951,48.847 201.477,14.338 203.002,48.931 204.528,23.534    206.053,18.551 207.577,17.595 209.102,16.333 210.626,35.006 212.15,12.131 213.674,15.433 215.198,43.968 216.723,48.491    218.247,46.054 219.772,13.109 221.297,34.369 222.823,38.267 224.349,24.617 225.875,46.962 227.403,15.139 228.931,38.384    230.46,49.465 231.99,33.168 233.521,34.651 235.051,28.391 236.58,47.447 238.109,37.654 239.637,45.512 241.164,42.134    242.691,30.597 244.218,45.936 245.745,39.491 247.271,48.322 248.797,41.972 250.324,51.628 251.851,37.698 253.378,51.666    254.906,21.086 256.435,22.38 257.965,39.73 259.495,43.299 261.026,42.726 262.558,41.979 264.087,15.571 265.616,49.249    267.146,42.854 268.674,27.375 270.202,43.959 271.73,25.706 273.259,45.388 274.787,39.38 276.316,40.994 277.846,49.843    279.377,43.578 280.908,25.787 282.439,22.735 283.971,34.918 285.5,29.752 287.03,15.665 288.56,25.527 290.089,18.444    291.618,47.164 293.148,43.571 294.68,27.805 296.213,12.138 297.744,37.699 299.275,22.434 300.806,37.152 302.336,22.427    303.866,39.207 305.397,43.867 306.929,46.319 308.462,30.246 309.993,26.165 311.523,44.638 313.055,21.992 314.586,18.884    316.119,27.473 317.651,38.086 319.178,30.048 320.706,38.634 322.236,15.102 323.771,49.179 325.301,21.028 326.83,36.976    328.358,37.354 329.888,32.016 331.417,19.611 332.949,43.065 334.483,50.463 336.015,28.496 337.545,41.818 339.076,35.271    340.61,42.343 342.144,46.905 343.676,43.688 345.209,40.503 346.744,22.152 348.277,39.171 349.813,25.213 351.347,34.092    352.882,29.503 354.413,15.558 355.944,33.236 357.48,28.964 359.015,17.006 360.551,35.509 362.089,27.086 363.624,42.858    365.163,39.939 366.704,33.434 368.246,30.713 370.039,12.365 370.913,46.798 373.398,18.247 375.281,15.224 376.538,22.706    378.049,24.652 377.744,45.182 382.378,15.055 380.981,41.094 383.643,32.055 387.158,19.026 385.228,41.494 386.216,44.026    389.358,35.043 388.731,45.587 395.774,20.084 391.503,45.778 394.758,38.452 396.763,36.691 400.768,27.992 399.493,38.163    404.298,27.743 403.6,35.277 407.77,27.875 409.369,28.373 403.207,49.804 403.817,52.044 407.674,46.059 417.918,25.313    412.101,43.111 410.875,49.491 417.491,38.683 417.556,42.191 420.651,39.472 422.209,39.934 414.286,58.081 419.807,50.88    424.098,46.306 433.524,33.359 432.966,37.652 421.975,58.347 432.017,45.378 435.203,43.489 421.494,66.381 429.102,57.843    435.356,51.694 442.739,44.432 442.848,47.063 433.852,61.121 427.316,71.449 438.981,59.496 450.723,48.157 452.431,48.817    437.066,68.317 454.754,51.423 457.363,51.184 456.832,54.232 450.955,62.464 440.423,74.785 453.462,64.46 445.721,73.666    448.262,73.317 443.705,79.17 458.184,68.811 443.461,82.872 468.178,64.97 470.97,65.013 465.3,71.478 450.337,84.421    453.239,84.068 474.771,70.979 461.656,81.86 475.931,74.435 468.187,81.377 470.511,81.838 471.34,83.253 466.515,87.898    461.65,92.367 459.563,95.141 465.111,93.849 467.229,94.454 484.148,87.932 453.211,104.351 466.36,99.821 474.315,97.956    477.564,98.308 475.805,100.763 461.999,107.802 486.358,100.227 479.712,104.41 486.086,103.95 458.484,114.706 480.45,109.251    476.771,112.009 477.66,113.364 490.938,111.442 466.761,119.285 460.193,122.271 490.219,116.931 494.562,117.788    464.151,125.433 485.82,122.921 478.954,125.702 479.523,127.165 478.414,128.868 479.18,130.303 492.843,130.344 471.23,134.123    476.327,135.125 498.499,135.108 462.372,138.839 494.053,138.863 488.063,140.739 461.398,142.731 482.424,144.011    479.149,145.537 470.877,147.063 486.798,148.589 481.58,150.115 474.105,151.642 462.238,153.168 485.451,154.694    492.969,156.221 469.74,157.748 494.773,159.275 482.22,160.802 491.019,162.33 500.438,163.858 484.882,165.386 498.299,166.915    494.661,168.442 494.385,169.97 485.721,171.497 478.597,173.024 497.954,174.551 489.738,176.078 475.841,177.604    490.741,179.131 489.534,180.658 493.041,182.185 474.778,183.711 481.982,185.239 482.168,186.766 476.162,188.293    476.844,189.82 500.234,191.348 493.605,192.876 468.002,194.404 474.376,195.932 465.493,197.458 480.02,198.984 477.21,200.51    461.689,202.035 477.928,203.559 483.289,205.083 482.17,206.607 490.978,208.13 468.826,209.653 473.334,211.177 464.502,212.7    471.414,214.223 460.704,215.746 466.802,217.269 482.334,218.792 462.724,220.316 482.8,221.84 483.318,223.364 479.574,224.889    474.435,226.415 488.201,227.941 480.57,229.468 467.463,230.996 482.102,232.525 478.879,234.055 469.468,235.583    494.645,237.112 471.718,238.639 464.845,240.166 470.633,241.692 481.978,243.218 463.594,244.744 463.712,246.269    473.467,247.794 498.401,249.32 486.93,250.845 486.888,252.371 499.049,253.897 474.029,255.424 496.339,256.952 478.66,258.48    488.102,260.009 486.786,261.539 481.587,263.069 474.429,264.599 475.303,266.127 498.792,267.654 481.776,269.182    464.323,270.709 491.159,272.235 478.773,273.763 475.228,275.29 468.457,276.818 492.717,278.347 466.734,279.876    496.324,281.407 470.079,282.938 484.343,284.467 477.147,285.996 470.553,287.524 472.871,289.053 489.847,290.58    476.906,292.109 479.009,293.639 488.612,295.169 497.169,296.7 494.292,298.23 463.59,299.76 481.519,301.289 476.897,302.818    495.215,304.348 484.148,305.878 475.44,307.408 475.878,308.939 482.961,310.47 498.851,312 490.226,313.53 487.126,315.061    497.712,316.592 498.986,318.123 473.452,319.648 497.344,321.176 492.071,322.705 489.479,324.237 493.824,325.767    493.245,327.295 478.87,328.822 466.357,330.35 482.434,331.878 467.973,333.409 487.475,334.941 482.419,336.472 468.186,338.002    488.834,339.531 484.867,341.064 472.35,342.597 473.603,344.128 467.614,345.66 477.743,347.193 488.561,348.726 497.262,350.26    494.738,351.793 471.866,353.327 498.95,354.857 469.14,356.388 498.47,357.923 464.951,359.455 477.899,360.99 485.094,362.526    490.485,364.062 469.297,365.599 476.271,385.586  " style="fill:#476BA1;"/><g><path d="M185.073,172.095H157.59v39.201h-42.285v89.733h69.768V172.095z M157.59,276.912h-14.327v-40.787    h14.327V276.912z" style="fill:#FFFFFF;"/><path d="M312.093,340.596V211.662h-69.768v89.734h42.322v14.022H241.85v25.178h58.112H312.093z     M284.647,276.565h-14.346V235.76h14.346V276.565z" style="fill:#FFFFFF;"/><path d="M326.603,301.396h42.267v14.022h-42.761v25.178h58.111h12.132V211.662h-69.749V301.396z     M354.578,235.76h14.291v40.805h-14.291V235.76z" style="fill:#FFFFFF;"/><rect height="90.282" style="fill:#FFFFFF;" width="28.453" x="199.235" y="211.113"/><rect height="24.482" style="fill:#FFFFFF;" width="28.453" x="199.235" y="173.686"/></g></g><g id="Layer_1"/></svg>