<?xml version="1.0" ?><!DOCTYPE svg  PUBLIC '-//W3C//DTD SVG 1.1//EN'  'http://www.w3.org/Graphics/SVG/1.1/DTD/svg11.dtd'><svg height="512px" style="enable-background:new 0 0 512 512;" version="1.1" viewBox="0 0 512 512" width="512px" xml:space="preserve" xmlns="http://www.w3.org/2000/svg" xmlns:xlink="http://www.w3.org/1999/xlink"><g id="social__x2C__media__x2C__social_media__x2C___viber__x2C_"><polygon points="492.682,368.662 465.13,369.99 464.846,371.311 485.993,373.485 463.189,373.876    479.637,376.282 466.055,376.707 465.774,378.03 461.938,378.964 491.542,383.889 475.493,383.407 485.806,386.455    486.745,388.262 464.791,386.008 462.059,386.833 470.837,389.987 466.637,390.533 490.075,397.474 491.307,399.545    464.888,394.338 472.975,398.011 478.08,401.064 476.711,402.277 478.771,404.579 461.017,400.209 477.248,407.406    463.115,403.842 464.153,405.732 470.582,409.831 459.45,406.802 459.164,408.137 470.076,414.559 474.395,418.267    469.302,417.573 463.043,416.144 463.891,418.218 476.675,426.756 471.952,426.056 479.082,432.007 451.173,417.533    450.755,418.812 462.334,427.65 471.715,435.535 450.516,423.401 464.076,434.369 475.902,444.687 462.334,437.026    470.887,445.435 444.207,427.06 455.746,437.882 466.917,448.97 440.521,429.08 457.136,445.111 453.803,444.299 458.641,450.816    449.834,444.857 437.206,434.83 443.512,442.898 449.783,451.322 438.233,441.57 452.641,459.029 442.193,450.037 438.172,447.76    442.818,455.375 433.649,446.85 438.7,455.262 447.136,468.387 438.877,460.493 440.121,464.792 443.697,472.513 436.582,465.467    441.951,476.15 432.554,465.259 418.517,446.469 430.782,468.397 435.493,479.253 429.277,472.18 430.359,477.382 425.209,471.599    428.387,480.903 427.416,482.821 422.47,476.91 416.599,468.571 409.406,456.76 415.104,472.63 411.735,468.789 415.661,482.024    405.479,461.187 404.063,461.3 405.553,469.246 410.71,488.143 405.094,477.011 405.278,482.641 395.84,457.687 402.319,484.175    402.249,490.043 399.458,486.24 391.022,459.328 390.676,463.417 393.419,482 388.818,467.59 393.111,497.298 387.896,478.138    386.472,478.833 387.99,499.294 383.593,480.307 383.937,495.834 379.418,470.367 378.599,476.569 377.928,486.677    375.363,472.555 373.529,464.974 373.35,493.51 370.784,461.247 369.647,472.142 368.237,497.077 366.71,495.672 365.183,488.392    363.655,462.95 362.128,496.126 360.601,480.271 359.073,493.234 357.546,486.249 356.018,468.717 354.49,476.956 352.962,467.88    351.434,474.96 349.904,465.175 348.376,473.915 346.846,466.007 345.316,498.757 343.788,462.067 342.259,475.726 340.73,466.115    339.202,471.245 337.674,471.565 336.146,499.005 334.618,464.814 333.091,495.661 331.563,488.971 330.035,492.208    328.507,461.426 326.979,485.31 325.45,469.722 323.922,465.797 322.395,495.191 320.865,475.047 319.336,467.094 317.807,499.078    316.278,476.279 314.75,500.013 313.223,481.848 311.696,469.893 310.17,491.894 308.645,497.877 307.12,475.088 305.595,493.489    304.07,488.697 302.546,470.859 301.021,495.578 299.498,476.756 297.974,492.811 296.449,483.765 294.925,492.742 293.4,494.104    291.876,468.656 290.351,494.277 288.825,486.642 287.299,471.25 285.772,497.863 284.245,471.771 282.717,466.135    281.188,483.124 279.657,499.504 278.127,480.896 276.597,486.512 275.067,472.174 273.539,492.918 272.011,466.167    270.483,497.803 268.956,493.321 267.43,464.353 265.903,493.831 264.376,495.069 262.85,491.785 261.323,478.689 259.796,467.231    258.269,481.879 256.741,480.071 255.212,497.495 253.683,471.966 252.153,478.247 250.621,480.334 249.09,464.646 247.56,487.024    246.031,464.268 244.502,498.385 242.974,480.801 241.445,498.23 239.917,490.705 238.389,495.596 236.86,467.919 235.331,470.166    233.801,487.789 232.271,464.934 230.739,465.137 229.208,492.884 227.677,483.464 226.147,497.4 224.617,477.206 223.088,479.624    221.559,482.336 220.029,465.092 218.499,496.763 216.967,491.798 215.435,476.577 213.903,487.169 212.372,461.677    210.842,467.491 209.312,480.036 207.781,484.955 206.25,488.736 204.718,469.731 203.186,496.788 201.654,472.435    200.123,464.885 198.592,470.77 197.061,475.404 195.528,488.381 193.996,497.326 192.469,468.622 190.941,480.171 189.41,496.385    187.877,463.666 186.346,472.145 184.816,490.5 183.288,479.017 181.76,483.416 180.23,470.854 178.698,499.806 177.164,492.385    175.632,472.05 174.102,485.778 172.57,485.078 171.037,467.329 169.503,478.908 167.971,497.557 166.438,478.418 164.903,483.513    163.37,490.165 161.835,468.077 160.301,471.757 158.765,462.642 157.233,478.134 155.702,491.866 154.166,466.05 152.632,487.091    151.096,498.146 149.559,493.486 148.023,476.162 146.484,490.157 144.942,494.256 143.401,467.221 141.843,482.696    140.245,484.171 138.234,494.93 137.57,475.1 136.994,461.875 134.841,472.65 130.812,500.082 131.182,479.98 129.01,485.143    126.295,493.129 129.28,461.643 126.629,469.879 126.934,460.218 118.591,496.868 117.202,494.773 121.18,468.585 121.445,461.343    117.599,471.378 111.042,490.518 109.388,490.023 114.556,466.354 112.223,469.195 114.326,458.08 106.773,476.297    102.018,485.041 103.059,477.381 99.518,482.146 105.577,462.621 105.119,460.154 100.586,467.166 102.194,460.044 99.613,462.354    96.068,466.411 95.321,464.591 86.066,479.265 84.511,478.552 88.666,467.534 77.819,483.36 84.527,468.47 93.671,450.412    92.832,449.313 90.276,450.867 84.088,457.719 81.044,459.575 68.2,475.137 86.036,447.601 64.556,474.063 70.441,463.476    82.045,446.191 60.341,470.718 67.36,459.522 77.822,444.875 55.762,467.767 64.667,455.273 53.368,465.015 79.207,435.493    70.501,442.525 70.184,440.85 56.938,451.621 53.929,452.189 73.659,431.988 56.528,445.431 59.182,441.058 44.653,451.255    61.713,435.079 44.574,446.834 62.533,430.812 57.12,433.13 53.711,433.795 50.423,434.267 64.914,422.416 50.487,430.489    44.62,432.474 33.172,437.781 32.323,436.207 40.722,429.183 33.504,431.446 28.439,432.281 30.636,429.063 60.666,411.491    48.182,416.339 37.021,420.136 42.058,415.994 32.901,418.452 42.097,412.646 30.191,415.994 48.239,406.924 34.562,410.715    24.432,412.776 19.124,412.824 18.037,411.291 52.575,398.167 32.187,403.118 16.809,405.99 29.871,400.463 41.822,395.631    41.016,394.355 25.582,396.515 33.727,393.018 43.498,389.428 36.839,389.295 29.47,389.104 25.122,388.218 50.143,382.8    35.616,383.483 26.082,383.151 32.056,380.881 19.223,380.561 32.78,377.753 33.775,376.167 35.554,374.566 12.008,374.034    48.392,371.264 25.354,370.274 23.017,368.662 41.091,367.136 20.033,365.61 41.801,364.084 36.706,362.559 25.097,361.032    30.852,359.506 41.327,357.979 14.477,356.453 39.462,354.927 22.657,353.399 16.905,351.872 41.723,350.345 24.227,348.816    41.391,347.289 15.411,345.761 12.906,344.232 13.252,342.705 44.539,341.178 32.827,339.651 41.967,338.124 48.758,336.598    39.143,335.071 19.057,333.545 20.112,332.018 44.852,330.491 19.099,328.965 46.11,327.438 19.811,325.91 43.797,324.383    30.5,322.856 33.385,321.329 23.683,319.801 48.763,318.273 33.783,316.746 43.82,315.22 37.079,313.693 36.807,312.168    11.419,310.644 24.646,309.119 23.075,307.595 15.839,306.071 29.898,304.548 46.512,303.025 38.635,301.502 49.333,299.979    24.767,298.456 34.696,296.934 50.707,295.41 32.496,293.887 17.454,292.363 46.205,290.84 50.979,289.314 23.71,287.79    12.659,286.265 46.458,284.738 28.059,283.212 34.923,281.684 45.016,280.155 39.345,278.625 15.838,277.097 44.794,275.568    23.817,274.041 24.389,272.515 16.76,270.988 18.313,269.463 44.537,267.938 34.773,266.412 18.769,264.887 16.669,263.361    15.892,261.836 49.961,260.311 24.685,258.784 21.079,257.258 31.208,255.73 36.701,254.202 32.739,252.673 34.375,251.143    12.827,249.613 32.117,248.084 47.046,246.556 44.064,245.028 18.306,243.501 42.672,241.975 16.73,240.448 50.621,238.92    17.187,237.393 32.742,235.865 22.491,234.337 24.769,232.808 47.03,231.277 16.534,229.747 49.328,228.217 37.502,226.688    37.517,225.16 47.139,223.632 24.191,222.104 26.573,220.576 11.345,219.046 36.41,217.517 17.312,215.985 43.231,214.455    30.667,212.925 39.489,211.396 45.94,209.867 42.942,208.338 37.831,206.808 17.658,205.277 19.261,203.746 23.839,202.216    39.155,200.687 33.326,199.157 23.242,197.626 16.656,196.095 20.522,194.564 50.854,193.039 44.136,191.512 49.906,189.982    43.498,188.45 17.002,186.92 49.415,185.393 34.027,183.866 30.757,182.338 34.744,180.81 44.876,179.279 48.279,177.746    49.559,176.216 24.16,174.687 26.669,173.157 14.113,171.624 42.011,170.092 44.229,168.561 46.996,167.029 38.786,165.495    50.892,163.963 29.194,162.43 32.22,160.896 12.941,159.362 49.752,157.832 33.32,156.302 12.175,154.767 25.954,153.234    26.086,151.7 17.729,150.163 39.365,148.629 22.727,147.091 26.278,145.551 33.12,144.011 16.868,142.287 25.782,140.8    11.218,138.609 32.247,137.932 33.837,136.514 26.474,134.411 31.067,133.238 45.361,133.239 26.71,129.602 28.3,128.195    47.728,129.511 33.215,125.785 45.195,126.369 27.396,121.555 35.375,121.558 30.211,118.872 24.121,115.809 52.186,121.105    43.886,117.579 52.283,118.471 51.546,116.911 50.669,115.273 21.941,104.542 27.847,104.709 49.907,110.787 20.842,98.545    32.664,101.206 46.04,104.851 42.663,101.88 47.14,102.203 36.811,95.963 54.771,102.615 47.883,97.789 38.459,91.434    58.935,100.276 38.646,87.895 34.119,83.529 43.267,86.802 45.326,86.191 30.46,75.304 50.964,86.064 63.439,92.378 44.225,77.98    41.545,74.164 37.124,68.97 66.292,88.02 52.487,76.045 68.685,86.584 55.008,74.088 66.919,81.815 42.657,59.711 66.344,77.766    62.296,72.323 68.48,75.953 62.883,68.823 49.526,53.899 74.658,76.218 70.679,70.299 54.398,51.282 60.89,55.667 64.066,56.711    64.237,54.469 76.565,66.301 75.891,63.313 69.73,53.466 68.392,49.203 63.35,39.948 66.418,41.057 86.426,65.597 90.079,68.475    84.725,58.433 81.863,51.583 71.616,32.951 82.555,46.979 82.706,44.217 76.873,31.202 88.434,47.808 80.968,31.203 88.181,40.929    89.393,39.801 91.272,39.97 97.756,49.708 94.116,38.551 94.88,36.371 92.755,27.435 104.728,51.552 100.513,37.415 96.805,23.466    111.009,56.713 111.036,53.016 105.306,32.023 114.648,55.598 109.602,34.975 114.864,47.323 114.907,42.376 110.314,19.383    119.381,48.394 117.411,34.15 122.744,51.148 117.679,20.199 123.429,40.96 126.734,51.345 123.492,23.626 124.972,22.263    128.754,37.583 131.972,51.833 130.662,27.931 132.272,28.018 134.698,38.206 136.324,40.79 138.044,46.382 139.497,49.281    140.011,19.842 142.092,48.769 143.401,36.128 144.928,51.075 146.456,12.142 147.982,36.519 149.51,37.182 151.037,43.65    152.565,24.163 154.092,17.524 155.62,13.439 157.148,37.301 158.676,21.401 160.205,22.725 161.733,15.188 163.263,32.444    164.792,51.055 166.321,29.868 167.851,31.946 169.379,39.354 170.908,34.784 172.436,42.027 173.964,44.777 175.492,21.349    177.02,47.692 178.547,38.866 180.075,46.63 181.603,35.072 183.131,42.222 184.659,24.398 186.188,19.483 187.716,21.646    189.244,35.737 190.772,14.953 192.302,37.042 193.832,42.427 195.36,40.514 196.888,31.161 198.415,41.712 199.942,13.115    201.468,34.904 202.993,17.64 204.519,24.642 206.043,49.992 207.568,14.426 209.092,34.197 210.617,37.563 212.141,41.99    213.665,21.531 215.189,42.234 216.713,45.146 218.238,42.405 219.763,32.778 221.288,30.167 222.813,46.695 224.339,13.934    225.866,42.195 227.394,41.556 228.922,35.858 230.451,40.85 231.981,19.545 233.512,49.733 235.042,27.156 236.571,22.012    238.1,42.291 239.627,42.66 241.155,38.033 242.682,38.511 244.209,39.947 245.735,21.772 247.262,15.233 248.788,49.65    250.315,49.633 251.842,38.555 253.369,34.202 254.897,31.05 256.426,21.536 257.955,12.601 259.485,40.294 261.017,48.611    262.548,33.044 264.078,14.917 265.607,20.527 267.137,22.075 268.665,30.305 270.193,40.191 271.721,34.63 273.249,31.963    274.778,35.956 276.307,31.815 277.837,34.143 279.367,43.605 280.899,21.771 282.431,23.384 283.961,18.304 285.491,22.044    287.021,24.993 288.55,40.425 290.079,15.498 291.609,31.541 293.14,27.069 294.671,26.118 296.203,38.987 297.735,13.436    299.266,13.575 300.796,34.749 302.326,25.701 303.856,36.134 305.388,14.05 306.92,36.642 308.452,26.81 309.984,30.929    311.515,20.508 313.046,18.336 314.577,18.862 316.11,47.458 317.643,23.372 319.169,41.736 320.697,44.201 322.228,42.493    323.762,23.574 325.292,26.001 326.821,49.44 328.35,35.868 329.878,19.591 331.408,35.927 332.94,50.733 334.475,47.243    336.006,28.132 337.536,40.541 339.067,34.583 340.602,47.485 342.135,17.265 343.667,45.71 345.2,22.964 346.735,18.412    348.269,50.708 349.804,44.455 351.338,31.474 352.873,34.646 354.404,42.037 355.936,48.769 357.473,29.289 359.006,21.318    360.542,17.583 362.08,46.662 363.615,29.672 365.154,21.392 366.695,46.73 368.237,28.191 369.932,19.78 371.45,26.377    373.381,18.502 373.705,44.37 376.798,18.747 376.453,44.25 379.837,22.994 379.417,42.289 379.68,51.687 385.546,18.022    384.611,35.962 385.388,40.446 385.027,50.662 390.671,28.185 392.533,27.136 393.882,28.598 395.437,29.048 395.466,35.595    399.122,27.75 399.122,33.867 405.437,17.941 402.096,34.833 402.174,39.654 409.751,22.01 406.906,35.288 409.346,33.242    406.97,43.869 415.377,26.902 404.078,58.384 409.53,49.015 421.757,25.356 422.179,28.637 424.732,27.371 424.708,31.369    428.775,27.248 421.957,43.781 415.409,58.806 416.012,60.433 421.849,53.13 433.381,36.963 437.146,34.172 433.49,43.095    422.25,62.923 429.497,54.713 438.679,44.278 440.756,44.263 441.261,46.399 446.685,42.092 448.148,43.056 436.187,60.541    451.589,44.419 438.664,62.173 451.137,50.288 452.815,50.98 440.344,66.855 436.283,73.181 445.135,66.107 453.334,60.104    451.292,64.335 463.698,54.884 437.473,81.157 449.945,71.826 449.357,74.296 441.85,82.495 456.651,72.12 460.891,70.744    469.122,66.448 474.061,64.895 445.791,87.728 468.602,73.192 458.39,82.244 447.488,91.319 451.505,90.249 477.559,75.473    453.531,92.196 462.915,88.227 454.934,94.533 460.469,93.021 476.455,86.062 454.165,99.546 472.604,91.747 474.49,92.609    460.554,100.909 469.346,98.468 473.802,98.177 472.558,100.403 482.681,97.982 470.562,104.488 460.687,109.753 456.087,112.809    462.701,111.907 468.193,111.547 464.437,114.223 459.303,117.166 480.65,112.523 481.292,114.002 491.177,113.183    477.257,118.238 488.562,117.296 489.354,118.862 484.012,121.608 498.442,120.667 493.716,123.272 473.361,128.091    475.787,129.226 480.589,130.13 484.594,131.25 470.189,134.222 495.604,133.574 471.12,136.967 479.53,137.921 494.162,138.858    465.144,141.351 462.165,142.738 485.476,144.011 478.035,145.537 482.097,147.063 500.018,148.589 486.012,150.115    493.926,151.641 463.702,153.167 480.038,154.693 480.843,156.22 488.66,157.747 497.995,159.273 471.588,160.8 497.858,162.328    470.201,163.856 476.742,165.384 480.043,166.913 479.32,168.44 461.481,169.968 480.141,171.495 491.511,173.021 482.959,174.548    477.651,176.075 484.668,177.602 466.686,179.128 499.402,180.655 483.1,182.182 465.392,183.708 490.095,185.235 487.172,186.762    464.483,188.29 463.985,189.816 460.972,191.343 486.532,192.872 496.032,194.4 493.693,195.927 492.048,197.454 493.389,198.979    493.351,200.505 492.496,202.03 482.448,203.554 474.526,205.078 492.005,206.602 475.737,208.125 471.011,209.648 485.44,211.171    467.118,212.694 499.45,214.217 476.229,215.74 471.967,217.263 490.227,218.786 465.624,220.31 469.086,221.833 477.014,223.358    479.658,224.883 460.703,226.408 465.035,227.935 473.611,229.461 460.674,230.989 498.508,232.518 461.367,234.047    465.543,235.576 471.625,237.104 478.877,238.631 486.219,240.158 476.805,241.685 472.372,243.21 473.261,244.735    485.475,246.261 471.132,247.786 471.231,249.312 468.51,250.837 473.799,252.363 462.877,253.889 466.674,255.416    480.127,256.943 476.08,258.471 500.444,260 500.042,261.53 486.217,263.06 485.49,264.589 463.557,266.117 495.543,267.645    493.381,269.172 484.449,270.698 475.618,272.226 463.74,273.752 465.84,275.279 474.732,276.808 472.374,278.336 464.831,279.865    468.977,281.396 482.959,282.927 488.177,284.456 467.922,285.984 478.615,287.513 487.729,289.041 481.064,290.569    462.573,292.098 487.218,293.627 474.642,295.156 497.926,296.688 478.87,298.218 478.318,299.748 485.468,301.276 480.98,302.806    472.246,304.335 500.393,305.864 467.704,307.396 476.86,308.927 489.335,310.457 491.427,311.986 470.763,313.517    469.493,315.047 471.07,316.578 485.452,318.109 475.069,319.634 478.083,321.161 469.321,322.69 492.275,324.223 480.28,325.753    461.402,327.28 473.277,328.808 481.655,330.335 498.904,331.863 469.69,333.395 461.862,334.927 483.207,336.457 481.564,337.986    465.339,339.517 478.402,341.049 473.227,342.581 500.146,344.112 493.699,345.644 463.811,347.178 499.742,348.71    495.083,350.243 465.176,351.776 484.555,353.311 477.01,354.841 473.04,356.371 469.938,357.906 491.609,359.438 460.717,360.974    461.24,362.51 486.428,364.044 486.705,365.582 479.291,372.484  " style="fill:#9055A9;"/><g id="g15_1_" transform="matrix(1.452588,0,0,1.452588,-115.17955,-97.147891)"><path d="M330.819,286.589c-6.014-4.745-12.451-9-18.774-13.355    c-12.628-8.685-24.172-9.365-33.594,4.62c-5.29,7.841-12.697,8.181-20.444,4.746c-21.351-9.491-37.833-24.093-47.488-45.349    c-4.27-9.403-4.22-17.836,5.775-24.495c5.297-3.512,10.625-7.678,10.197-15.369c-0.554-10.019-25.394-43.514-35.207-47.051    c-4.056-1.46-8.099-1.359-12.231,0c-23.001,7.577-32.523,26.106-23.404,48.045c27.22,65.462,75.124,111.041,141.066,138.859    c3.754,1.586,7.936,2.215,10.052,2.781c15.008,0.151,32.593-14.022,37.676-28.082C349.33,298.409,338.995,293.034,330.819,286.589    L330.819,286.589z" id="path17-6_1_" style="fill:#FFFFFF;"/><path d="M256.886,157.045c48.206,7.263,70.438,29.731,76.579,77.285    c0.567,4.406-1.103,11.014,5.296,11.127c6.689,0.126,5.076-6.382,5.127-10.775c0.567-44.81-39.301-86.336-85.605-87.871    c-3.502,0.491-10.725-2.354-11.173,5.312C246.809,157.297,252.892,156.454,256.886,157.045L256.886,157.045z" id="path19-1_1_" style="fill:#FFFFFF;"/><path d="M266.32,170.098c-4.642-0.554-10.763-2.694-11.847,3.613    c-1.127,6.608,5.687,5.941,10.071,6.898c29.778,6.52,40.145,17.144,45.045,46.069c0.718,4.229-0.706,10.787,6.613,9.705    c5.423-0.818,3.464-6.445,3.917-9.73C320.358,198.872,296.06,173.598,266.32,170.098L266.32,170.098z" id="path21-2_1_" style="fill:#FFFFFF;"/><path d="M269.054,192.805c-3.099,0.075-6.135,0.403-7.275,3.651    c-1.706,4.833,1.884,5.991,5.543,6.57c12.212,1.913,18.643,8.975,19.857,20.907c0.334,3.235,2.432,5.865,5.624,5.488    c4.428-0.516,4.825-4.368,4.693-8.03C297.71,207.985,282.248,192.491,269.054,192.805L269.054,192.805z" id="path23_1_" style="fill:#FFFFFF;"/></g></g><g id="Layer_1"/></svg>