<?xml version="1.0" ?><!DOCTYPE svg  PUBLIC '-//W3C//DTD SVG 1.1//EN'  'http://www.w3.org/Graphics/SVG/1.1/DTD/svg11.dtd'><svg height="512px" style="enable-background:new 0 0 512 512;" version="1.1" viewBox="0 0 512 512" width="512px" xml:space="preserve" xmlns="http://www.w3.org/2000/svg" xmlns:xlink="http://www.w3.org/1999/xlink"><g id="social__x2C__media__x2C__social_media__x2C___tripadvisor__x2C_"><polygon points="473.521,368.662 489.366,370.313 462.452,371.247 468.129,372.769 462.421,373.835    465.644,375.332 481.908,377.997 471.018,378.528 469.875,379.824 463.054,380.386 463.225,381.73 464.033,383.183    484.782,387.933 487.368,390.042 464.486,387.303 487.708,393.479 469.545,391.168 480.191,395.136 486.826,398.423    494.061,402.07 469.152,396.946 468.086,398.117 459.432,396.929 460.074,398.505 474.301,404.736 466.048,403.426    483.044,411.247 474.532,409.747 460.612,405.812 475.313,413.447 483.643,418.812 458.187,409.183 482.174,421.918    459.576,412.853 484.126,426.727 474.392,423.674 476.965,426.924 462.696,420.918 457.206,419.472 455.901,420.32    457.851,423.143 467.407,430.846 449.615,421.224 464.575,432.799 475.342,442.117 457.293,431.516 466.03,439.73 467.273,442.718    463.263,441.757 452.843,435.587 459.777,443.139 455.494,441.65 449.84,438.83 449.219,440.24 466.002,457.528 437.078,432.939    459.512,456.271 456.116,455.346 447.789,449.304 449.684,453.515 454.866,461.422 435.53,442.711 448.29,459.211 451.555,465.532    448.569,464.684 427.769,441.844 430.39,447.231 440.875,463.1 447.245,474.317 425.388,447.332 431.015,457.596 436.762,468.606    426.743,456.547 425.865,457.844 436.903,478.17 419.251,452.549 428.013,470.051 420.689,460.483 418.174,458.9 423.071,471.033    412.46,453.991 421.305,474.583 422.634,481.037 413.848,466.275 422.538,489.176 410.849,466.755 410.41,469.493 408.162,467.895    410.969,479.213 412.927,489.179 405.378,473.149 408.212,486.215 400.157,466.892 404.892,486.973 404.945,493.172    393.425,458.495 400.922,491.796 392.696,466.062 391.657,467.637 390.424,468.485 394.849,496.826 385.85,459.508    387.195,474.257 384.195,465.04 382.443,462.274 381.706,466.559 380.251,465.692 380.829,483.468 380.055,492.008 376.324,466.85    374.596,461.205 374.154,476.799 373.112,487.804 371.185,476.574 369.688,475.159 368.229,469.795 366.701,470.941    365.174,466.874 363.646,487.663 362.119,475.196 360.592,490.022 359.064,464.16 357.537,476.725 356.01,499.048 354.481,492.67    352.953,493.931 351.425,467.379 349.896,468.35 348.366,490.935 346.837,490.115 345.308,494.722 343.778,492.211 342.25,485.863    340.722,470.68 339.193,476.559 337.665,487.274 336.138,477.373 334.609,500.747 333.082,492.076 331.554,498.86 330.026,465.762    328.498,464.548 326.97,462.744 325.441,469.049 323.913,491.101 322.385,487.479 320.856,491.771 319.327,462.985    317.798,496.777 316.27,469.443 314.741,498.303 313.214,464.619 311.688,463.428 310.161,490.809 308.636,482.636 307.11,473.155    305.586,479.511 304.062,472.171 302.537,498.714 301.013,491.461 299.488,474.761 297.964,489.205 296.44,470.12 294.916,497.668    293.392,482.798 291.866,483.838 290.342,485.849 288.815,471.234 287.29,479.119 285.763,493.014 284.235,472.083    282.707,484.709 281.178,500.729 279.648,496.262 278.117,476.25 276.587,492.442 275.058,493.673 273.529,483.369    272.002,499.575 270.474,467.507 268.947,474.687 267.42,483.368 265.894,474.417 264.367,478.079 262.841,493.271    261.314,476.099 259.787,482.611 258.26,474.497 256.732,500.373 255.203,487.61 253.674,491.082 252.144,498.302 250.612,489.979    249.081,470.629 247.551,500.964 246.021,484.462 244.493,499.841 242.964,471.363 241.436,466.495 239.908,488.065 238.38,477.6    236.851,483.887 235.322,479.931 233.792,466.701 232.262,478.532 230.73,493.34 229.198,498.704 227.667,489.802 226.138,481.214    224.608,469.217 223.079,471.127 221.549,466.186 220.02,487.301 218.489,489.986 216.958,496.837 215.425,461.057    213.894,471.709 212.363,480.275 210.833,478.264 209.302,493.707 207.772,489.445 206.241,461.896 204.708,499.377    203.176,487.16 201.645,465.307 200.114,479.944 198.583,467.924 197.051,461.04 195.519,492.744 193.986,465.22 192.46,497.457    190.932,478.872 189.401,488.098 187.868,474.237 186.336,485.352 184.808,481.099 183.279,466.484 181.75,488.06 180.221,483.125    178.688,475.045 177.155,485.572 175.623,491.203 174.093,475.229 172.562,493.09 171.027,483.493 169.494,491.884 167.962,482.64    166.429,470.281 164.894,497.151 163.36,484.831 161.825,487.453 160.291,492.669 158.756,487.167 157.224,497.932    155.693,494.741 154.157,487.581 152.623,495.718 151.087,483.959 149.549,467.927 148.014,487.101 146.475,483.508    144.933,478.62 143.392,493.936 141.656,495.996 140.024,492.102 139.381,466.104 137.61,474.181 134.759,495.121 134.419,477.788    131.439,493.385 129.217,498.017 128.115,492.414 130.273,463.956 127.196,475.556 125.708,475.491 124.842,471.91 122.516,476.41    122.162,470.741 122.444,462.884 119.189,470.932 117.666,471.104 116.716,469.059 117.553,460.768 110.587,479.813    110.338,475.258 108.998,474.449 106.044,478.422 105.958,473.932 103.8,475.359 99.353,482.549 96.519,485.104 102.871,465.491    98.846,471.162 103.355,457.453 93.097,476.249 102.235,453.672 94.597,466.023 99.913,452.528 86.48,474.865 85.384,473.443    91.437,459.577 94.045,452.341 79.69,473.36 94.261,446.997 91.967,448.223 84.671,456.834 70.485,474.947 88.323,446.663    81.813,453.386 77.816,456.34 79.157,452.143 80.096,448.636 76.932,450.325 80.072,444.334 58.275,467.585 60.58,462.301    67.426,452.228 72.074,444.988 71.459,443.574 66.913,446.16 54.903,455.931 70.562,438.531 64.905,441.928 73.749,431.901    61.526,441.001 56.551,443.318 69.059,430.808 45.409,448.355 57.377,436.677 63.342,430.191 63.632,428.25 45.134,440.032    53.912,431.796 35.38,442.711 48.907,431.539 44.798,432.354 39.067,434.068 35.776,434.106 34.892,432.63 35.694,430.183    31.858,430.364 32.947,427.818 31.242,426.77 33.54,423.687 31.117,422.997 29.354,421.941 24.859,422.078 45.173,411.306    31.03,415.645 36.059,411.827 22.291,415.46 36.712,408.216 37.564,406.265 46.424,401.636 38.217,402.83 48.535,398.054    20.473,404.908 29.411,400.59 23.836,400.392 18.191,400.07 20.679,397.669 23.371,395.308 28.175,392.597 52.013,386.364    48.685,385.682 40.774,385.644 23.782,386.762 45.981,382.069 26.067,383.155 44.672,379.512 30.673,379.475 34.199,377.637    31.917,376.291 24.391,375.166 42.039,372.83 34.095,371.652 16.152,370.397 11.525,368.662 46.449,367.136 34.515,365.61    19.908,364.084 50.699,362.559 33.524,361.032 22.569,359.506 25.663,357.979 45.123,356.453 46.425,354.927 38.152,353.399    48.038,351.872 16.346,350.345 44.119,348.816 23.352,347.289 18.733,345.761 15.95,344.232 37.642,342.705 16.268,341.178    40.02,339.651 28.584,338.124 24.169,336.598 17.922,335.071 40.315,333.545 24.93,332.018 22.586,330.491 40.964,328.965    45.667,327.438 23.344,325.91 14.275,324.383 28.924,322.856 20.808,321.329 38.91,319.801 12.902,318.273 34.767,316.746    13.593,315.22 18.667,313.693 26.927,312.168 27.48,310.644 36.531,309.119 41.765,307.595 18.604,306.071 35.474,304.548    19.184,303.025 43.287,301.502 23.22,299.979 35.52,298.456 25.179,296.934 20.49,295.41 12.303,293.887 15.989,292.363    27.568,290.84 20.23,289.314 24.582,287.79 23.137,286.265 36.305,284.738 26.296,283.212 28.419,281.684 19.179,280.155    31.581,278.625 45.417,277.097 39.482,275.568 40.928,274.041 16.773,272.515 30.699,270.988 37.401,269.463 47.708,267.938    44.74,266.412 21.235,264.887 45.157,263.361 27.334,261.836 11.242,260.311 16.619,258.784 34.951,257.258 28.879,255.73    29.209,254.202 45.155,252.673 24.323,251.143 50.988,249.613 17.624,248.084 24.469,246.556 26.236,245.028 14.489,243.501    38.766,241.975 33.308,240.448 16.905,238.92 28.057,237.393 17.558,235.865 33.25,234.337 25.109,232.808 15.664,231.277    16.777,229.747 19.091,228.217 26.743,226.688 34.585,225.16 21.877,223.632 36.65,222.104 28.333,220.576 32.701,219.046    49.162,217.517 46.753,215.985 23.317,214.455 13.84,212.925 11.076,211.396 34.128,209.867 44.789,208.338 39.922,206.808    32.357,205.277 19.989,203.746 38.472,202.216 38.652,200.687 50.785,199.157 17.017,197.626 19.702,196.095 45.507,194.564    36.3,193.039 25.541,191.512 38.122,189.982 48.765,188.45 22.23,186.92 29.613,185.393 13.862,183.866 26.341,182.338    42.379,180.81 11.782,179.279 48.979,177.746 23.168,176.216 47.711,174.687 25.268,173.157 37.837,171.624 17.864,170.092    16.416,168.561 22.318,167.029 20.271,165.495 27.457,163.963 11.063,162.43 37.487,160.896 21.193,159.362 38.905,157.832    36.63,156.302 24.577,154.767 20.461,153.234 16.16,151.7 13.128,150.163 26.018,148.629 36.716,147.091 11.531,145.551    36.604,144.011 13.415,142.241 48.998,141.42 30.188,139.37 42.375,138.478 38.194,136.809 20.035,133.887 36.376,133.743    43.848,133.075 30.499,130.065 23.966,127.606 29.977,126.843 21.259,123.821 45.359,126.407 23.998,120.901 22.619,118.918    32.496,119.378 17.236,114.188 22.349,113.64 40.922,116.796 24.533,110.707 52.485,117.189 45.557,113.689 30.657,107.376    30.118,105.483 21.877,100.819 54.711,111.129 56.167,110.31 35.27,100.512 46.231,103.378 34.822,96.846 52.578,103.092    40.521,95.942 43.217,95.528 27.62,85.991 56.571,99.039 37.434,87.246 52.547,93.758 28.531,78.365 35.158,80.18 61.902,94.49    36.833,77.178 47.148,81.818 58.945,87.809 38.906,72.35 41.191,71.853 59.636,83.175 64.509,85.066 50.684,72.703 51.139,71.025    66.858,81.768 49.999,65.882 65.282,76.851 72.131,81.034 70.401,77.707 57.36,63.662 61.083,65.011 72.578,74.176 74.931,74.625    54.533,51.429 78.282,74.307 72.962,66.514 72.404,63.718 64.461,52.234 64.246,49.401 62.798,44.956 67.594,48.206 66.775,44.408    72.246,48.856 67.688,39.826 72.671,43.839 70.27,37.381 74.517,40.567 76.06,39.83 83.687,48.793 80.55,40.692 86.708,47.875    88.853,48.555 81.43,32.062 97.781,58.855 94.47,49.601 97.787,52.979 102.15,58.79 102.518,56.531 96.177,39.266 92.573,27.032    102.275,45.717 96.514,27.484 99.779,31.184 102.567,33.948 101.292,25.571 108.635,41.846 107.168,32.554 104.445,18.322    110.019,30.893 108.976,21.179 112.947,29.363 117.43,40.62 120.23,46.166 120.402,40.577 118.185,22.687 120.281,24.629    122.438,27.275 122.59,18.173 123.824,14.674 126.22,19.035 130.371,38.781 129.777,19.854 130.812,12.712 132.719,13.886    134.682,16.567 138.208,49.578 138.594,27.011 140.114,24.034 141.767,25.074 143.392,29.145 144.919,15.045 146.446,50.196    147.974,45.942 149.5,47.22 151.028,26.831 152.556,13.132 154.083,14.653 155.611,44.479 157.139,25.597 158.667,21.078    160.195,12.448 161.724,42.443 163.253,36.164 164.783,27.569 166.313,15.158 167.841,45.237 169.37,15.453 170.898,39.364    172.427,23.755 173.955,43.305 175.482,18.941 177.011,13.08 178.538,20.147 180.066,47.658 181.594,16.737 183.122,39.247    184.65,11.969 186.179,23.424 187.707,12.998 189.235,32.544 190.764,50.08 192.293,51.453 193.822,22.481 195.351,46.945    196.879,42.577 198.406,26.693 199.933,37.938 201.458,34.543 202.984,49.021 204.509,22.149 206.034,22.107 207.559,46.799    209.083,38.656 210.607,27.11 212.131,18.104 213.656,16.949 215.18,36.364 216.704,28.435 218.229,11.878 219.753,42.36    221.279,40.097 222.804,23.634 224.331,40.557 225.857,25.521 227.385,33.549 228.913,14.498 230.442,20.383 231.972,32.49    233.503,37.818 235.033,50.022 236.562,28.029 238.09,27.494 239.619,45.782 241.146,47.375 242.673,28.998 244.2,22.454    245.726,22.987 247.253,19.673 248.779,26.903 250.306,20.181 251.833,18.747 253.36,39.292 254.888,27.351 256.417,30.005    257.946,51.243 259.477,45.478 261.008,30.178 262.539,14.558 264.069,50.339 265.599,25.008 267.128,43.803 268.656,46.492    270.185,41.907 271.712,34.653 273.24,15.437 274.77,13.863 276.298,17.364 277.828,34.165 279.358,30.905 280.891,32.943    282.422,32.208 283.952,38.594 285.482,37.818 287.012,27.191 288.541,17.275 290.07,38.622 291.601,45.87 293.131,31.164    294.662,46.499 296.194,37.713 297.727,17.978 299.257,38.082 300.787,24.88 302.317,14.802 303.848,46.047 305.379,29.829    306.911,20.472 308.444,41.285 309.976,25.072 311.506,48.118 313.037,44.067 314.568,41.043 316.102,19.381 317.634,25.579    319.16,20.387 320.688,22.289 322.219,14.707 323.753,35.519 325.283,34.513 326.813,29.932 328.341,49.891 329.87,39.109    331.399,37.281 332.932,47.258 334.466,21.925 335.997,28.733 337.527,13.419 339.059,15.65 340.593,38.129 342.126,46.269    343.658,36.187 345.191,41.115 346.727,49.162 348.26,15.031 349.795,12.214 351.329,36.329 352.864,36.658 354.396,24.15    355.927,20.359 357.464,27.02 358.997,49.221 360.533,44.104 362.071,48.279 363.606,51.372 365.146,40.517 366.687,32.188    368.229,30.49 369.636,41.228 370.99,43.277 372.227,46.729 374.367,31.831 377.093,14.113 377.35,33.051 377.404,48.677    379.707,39.541 380.657,43.631 385.966,14.857 382.643,49.041 384.128,48.11 390.546,19.637 387.168,46.349 389.483,41.874    395.368,21.825 397.024,22.257 400.328,16.133 400.948,20.805 393.832,52.781 397.621,44.476 401.597,36.421 403.62,35.171    405.404,34.778 401.787,49.676 403.461,49.093 410.185,35.528 415.503,26.571 408.567,47.633 408.576,51.208 411.984,47.005    416.151,41.519 424.544,27.745 415.014,50.681 424.339,35.803 417.745,51.631 415.438,58.743 415.712,60.943 433.12,34.026    418.795,60.904 433.596,39.831 435.545,39.911 426.195,56.999 441.899,36.634 444.042,36.674 442.541,41.785 441.229,46.426    428.557,65.633 439.663,53.771 451.224,42.054 430.54,69.576 430.618,71.515 455.881,44.915 454.201,49.44 451.863,54.507    435.538,73.953 439.934,71.373 442.501,70.8 441.166,74.061 451.735,66.069 446.76,72.703 449.352,72.346 468.376,57.908    444.93,79.909 468.039,62.837 452.751,77.192 454.135,77.985 442.478,88.563 454.254,81.56 453.449,83.911 472.065,72.833    476.338,72.048 450.481,90.92 471.673,79.174 477.103,77.808 479.814,78.238 478.355,81.104 473.531,85.762 457.256,96.375    470.158,91.222 463.326,96.405 453.342,102.873 454.146,103.92 458.054,103.574 477.763,96.454 454.232,108.084 488.8,95.511    483.689,99.403 465.903,107.812 458.999,111.771 473.804,108.122 460.229,114.135 460.333,115.479 484.834,109.622    464.559,117.022 472.461,116.341 484.938,114.733 470.153,119.907 489.641,117.067 483.788,120.005 484.543,121.505    486.887,122.728 463.767,128.182 472.751,128.183 460.104,131.35 497.367,128.081 460.19,133.914 478.939,133.391 494.886,133.632    469.235,137.095 481.41,137.82 482.758,139.316 471.654,141.177 496.149,142.267 487.006,144.011 471.639,145.537 470.574,147.063    483.469,148.589 492.047,150.115 474.335,151.641 467.017,153.167 464.009,154.693 474.275,156.22 476.459,157.747    473.785,159.273 472.367,160.8 490.86,162.328 474.95,163.856 462.646,165.384 483.632,166.913 466.921,168.44 467.368,169.968    495.104,171.495 462.324,173.021 496.48,174.548 472.118,176.075 473.863,177.602 467.978,179.128 477.221,180.655    495.938,182.182 466.225,183.708 463.586,185.235 480.345,186.762 464.887,188.29 490.69,189.816 493.224,191.343 476.747,192.872    475.131,194.4 478.026,195.927 475.018,197.454 460.769,198.979 499.708,200.505 498.028,202.03 475.802,203.554 472.786,205.078    467.587,206.602 483.229,208.125 473.631,209.648 481.859,211.171 491.224,212.694 460.826,214.217 474.442,215.74    469.734,217.263 478.896,218.786 484.051,220.31 469.12,221.833 477.406,223.358 468.046,224.883 474.236,226.408 497.188,227.935    475.513,229.461 475.888,230.989 484.859,232.518 463.393,234.047 499.808,235.576 483.537,237.104 478.76,238.631    493.439,240.158 472.965,241.685 469.902,243.21 489.836,244.735 475.098,246.261 473.96,247.786 471.592,249.312 500.42,250.837    490.978,252.363 476.272,253.889 465.084,255.416 465.625,256.943 469.16,258.471 476.175,260 487.42,261.53 495.898,263.06    478.002,264.589 472.35,266.117 471.651,267.645 468.996,269.172 471.308,270.698 498.079,272.226 493.322,273.752 482.71,275.279    470.155,276.808 487.263,278.336 464.186,279.865 499.497,281.396 467.607,282.927 495.523,284.456 489.479,285.984    474.35,287.513 482.562,289.041 497.625,290.569 484.911,292.098 477.104,293.627 488.995,295.156 482.487,296.688    469.723,298.218 500.447,299.748 486.849,301.276 467.009,302.806 491.971,304.335 464.89,305.864 480.803,307.396    469.989,308.927 482.336,310.457 471.929,311.986 473.188,313.517 467.354,315.047 472.714,316.578 496.676,318.109    477.295,319.634 489.989,321.161 475.806,322.69 491.171,324.223 497.321,325.753 485.369,327.28 461.977,328.808 489.68,330.335    481.201,331.863 464.294,333.395 489.632,334.927 487.155,336.457 472.593,337.986 473.936,339.517 465.358,341.049    482.186,342.581 488.239,344.112 478.469,345.644 470.089,347.178 495.626,348.71 466.979,350.243 488.524,351.776    487.512,353.311 476.189,354.841 496.653,356.371 460.733,357.906 471.021,359.438 464.244,360.974 465.127,362.51    468.589,364.044 465.411,365.582 482.405,371.159  " style="fill:#2DA141;"/><path d="M255.828,172.095c-37.473,0-65.586,9.38-93.691,37.463h-46.832   c0,0,0.009,14.042,18.745,18.723c-8.398,11.519-18.745,31.449-18.745,46.802c0,38.616,26.934,65.529,65.577,65.529   c21.92,0,43.374-12.322,56.2-28.102l18.745,28.102l18.746-28.102c12.827,15.779,34.279,28.102,56.199,28.102   c38.636,0,65.578-26.913,65.578-65.529c0-15.354-10.347-35.265-18.746-46.802c18.736-4.681,18.746-18.723,18.746-18.723H349.52   C321.415,181.475,293.302,172.095,255.828,172.095z M255.828,181.457c46.842,0,74.945,28.102,74.945,28.102   c-37.472,0-74.945,46.807-74.945,93.61c0-46.803-37.473-93.61-74.945-93.61C180.883,209.559,208.988,181.457,255.828,181.457   L255.828,181.457z M180.883,228.282c25.863,0,46.832,20.953,46.832,46.802c0,25.854-20.969,46.788-46.832,46.788   c-25.872,0-46.832-20.935-46.832-46.788C134.051,249.235,155.011,228.282,180.883,228.282z M330.773,228.282   c25.882,0,46.832,20.953,46.832,46.802c0,25.854-20.95,46.788-46.832,46.788c-25.872,0-46.831-20.935-46.831-46.788   C283.942,249.235,304.901,228.282,330.773,228.282z M180.883,246.986c-15.525,0-28.123,12.579-28.123,28.098   c0,15.523,12.598,28.085,28.123,28.085s28.114-12.562,28.114-28.085C208.997,259.565,196.408,246.986,180.883,246.986z    M330.773,246.986c-15.516,0-28.113,12.598-28.113,28.098c0,15.523,12.598,28.085,28.113,28.085   c15.517,0,28.123-12.562,28.123-28.085C358.896,259.584,346.29,246.986,330.773,246.986L330.773,246.986z M180.883,256.348   c10.338,0,18.746,8.393,18.746,18.736c0,10.331-8.408,18.723-18.746,18.723c-10.347,0-18.746-8.392-18.746-18.723   C162.137,264.74,170.536,256.348,180.883,256.348z M330.773,256.348c10.348,0,18.746,8.393,18.746,18.736   c0,10.331-8.398,18.723-18.746,18.723c-10.338,0-18.745-8.392-18.745-18.723C312.028,264.74,320.436,256.348,330.773,256.348z    M180.883,265.705c-5.178,0-9.377,4.205-9.377,9.379c0,5.156,4.199,9.361,9.377,9.361c5.169,0,9.369-4.205,9.369-9.361   C190.251,269.91,186.052,265.705,180.883,265.705z M330.773,265.705c-5.169,0-9.367,4.205-9.367,9.379   c0,5.156,4.198,9.361,9.367,9.361c5.179,0,9.379-4.205,9.379-9.361C340.152,269.91,335.952,265.705,330.773,265.705z" id="Bird_1_" style="fill:#FFFFFF;"/></g><g id="Layer_1"/></svg>