<?xml version="1.0" ?><!DOCTYPE svg  PUBLIC '-//W3C//DTD SVG 1.1//EN'  'http://www.w3.org/Graphics/SVG/1.1/DTD/svg11.dtd'><svg height="512px" style="enable-background:new 0 0 512 512;" version="1.1" viewBox="0 0 512 512" width="512px" xml:space="preserve" xmlns="http://www.w3.org/2000/svg" xmlns:xlink="http://www.w3.org/1999/xlink"><g id="social__x2C__media__x2C__social_media__x2C___facebook__x2C_"><polygon points="473.559,368.68 463.964,369.992 495.584,372.149 474.23,373.03 491.998,375.434    490.379,377.028 494.222,379.016 486.937,380.056 467.137,379.544 467.185,380.921 469.811,382.647 479.475,385.52    478.181,386.864 474.137,387.691 491.653,392.568 480.961,392.104 463.42,389.823 462.911,391.071 478.499,396.351    460.514,393.186 484.274,401.193 466.22,397.588 493.11,407.386 473.448,402.863 480.006,406.694 484.948,410.161 471.304,406.899    460.827,404.458 480.883,413.997 474.114,412.961 473.823,414.542 467.595,413.452 467.669,415.13 456.4,411.337 474.634,421.982    483.012,428.182 479.272,428.167 478.491,429.708 449.357,414.986 472.947,430.416 454.176,420.907 469.963,432.474    459.036,427.339 449.194,422.544 475.021,441.909 474.346,443.6 460.766,435.9 460.706,437.808 441.537,424.998 444.138,428.693    453.278,437.852 468.945,452.937 457.604,445.53 443.274,434.983 456.49,448.874 460.453,454.813 440.935,438.442 460.316,459.518    460.909,462.651 459.119,463.365 436.245,441.483 450.056,458.721 437.824,447.384 430.4,440.939 431.702,444.529 436.35,452.393    427.408,443.458 446.634,470.6 441.839,467.105 442.886,471.401 433.321,460.871 432.215,461.983 427.962,458.383 428.077,461.276    428.004,463.994 436.718,481.258 427.909,469.88 426.566,470.759 426.827,474.561 418.414,462.356 418.99,466.62 424.513,481.015    418.123,471.743 409.018,455.934 418.309,479.782 412.188,469.854 415.898,482.643 416.909,489.662 408.281,472.277    404.369,466.086 402.252,464.378 400.444,463.313 397.694,459.271 406.375,491.786 400.293,477.329 397.36,472.573    394.093,465.997 399.665,493.97 391,464.836 394.867,488.616 391.566,480.935 391.073,486.662 391.245,496.96 389.512,497.387    387.005,492.769 384.426,486.515 380.164,465.009 380.526,480.685 379.386,484.964 377.703,483.99 374.757,463.644    375.142,495.267 372.422,470.58 371.716,496.503 369.569,467.284 368.229,463.5 366.701,474.041 365.174,486.682 363.646,475.807    362.119,463.915 360.592,465.048 359.064,465.396 357.537,476.682 356.01,496.209 354.481,471.406 352.953,480.713    351.425,496.082 349.896,470.166 348.366,477.759 346.837,494.912 345.308,476.463 343.778,470.728 342.25,495.919    340.722,490.253 339.193,496.25 337.665,489.836 336.138,493.021 334.609,484.76 333.082,468.017 331.554,476.476 330.026,483.817    328.498,479.329 326.97,471.453 325.441,496.178 323.913,473.357 322.385,497.43 320.856,497.32 319.327,491.203 317.798,476.298    316.27,498.615 314.741,478.695 313.214,472.719 311.688,499.133 310.161,487.131 308.636,465.722 307.11,476.136 305.586,471.527    304.062,476.835 302.537,500.123 301.013,470.927 299.488,493.079 297.964,473.704 296.44,485.731 294.916,476.138    293.392,461.684 291.866,497.171 290.342,491.3 288.815,472.855 287.29,489.826 285.763,481.526 284.235,461.794 282.707,484.873    281.178,494.983 279.648,478.67 278.117,494.498 276.587,498.812 275.058,490.437 273.529,483.416 272.002,496.079    270.474,474.949 268.947,482.714 267.42,462.647 265.894,496.975 264.367,479.997 262.841,461.933 261.314,469.539 259.787,479.25    258.26,473.081 256.732,471.269 255.203,464.102 253.674,474.252 252.144,496.18 250.612,481.831 249.081,481.32 247.551,466.257    246.021,480.252 244.493,499.172 242.964,488.107 241.436,498.403 239.908,498.341 238.38,467.675 236.851,490.341    235.322,477.115 233.792,476.857 232.262,479.111 230.73,471.229 229.198,471.326 227.667,476.333 226.138,491.56 224.608,482.253    223.079,482.681 221.549,472.87 220.02,464.977 218.489,467.931 216.958,483.032 215.425,471.541 213.894,479.668 212.363,465.68    210.833,495.439 209.302,482.997 207.772,463.881 206.241,481.977 204.708,474.926 203.176,474.529 201.645,496.803    200.114,486.127 198.583,485.277 197.051,466.828 195.519,473.194 193.986,462.837 192.46,488.078 190.932,487.706    189.401,495.915 187.868,484.885 186.336,480.277 184.808,474.002 183.279,462.582 181.75,467.097 180.221,496.521    178.688,472.974 177.155,492.637 175.623,482.934 174.093,492.49 172.562,474.354 171.027,461.026 169.494,464.865    167.962,465.517 166.429,464.392 164.894,484.811 163.36,489.859 161.825,468.711 160.291,473.077 158.756,468.866    157.224,471.173 155.693,474.848 154.157,485.828 152.623,477.024 151.087,497.744 149.549,466.275 148.014,470.878    146.475,474.818 144.933,482.387 143.392,467.094 141.956,473.605 140.078,490.096 138.824,479.995 136.557,493.648 136.527,468.9    132.811,497.594 131.094,497.034 128.989,500.135 129.222,483.349 128.783,474.837 127.35,474.512 122.452,495.414    123.705,478.302 119.372,492.774 123.733,463.101 121.536,466.943 120.762,464.226 112.362,492.275 115.405,474.01    110.708,485.283 117.014,457.992 106.868,486.481 110.915,468.541 106.557,476.917 105.683,474.715 101.94,480.376    100.687,479.109 105.917,461.771 93.208,488.625 106.44,453.714 102.123,460.195 96.881,468.168 94.862,468.895 88.023,479.132    86.554,478.313 92.412,463.81 96.092,454.133 95.934,451.737 79.005,477.819 79.492,473.696 75.304,477.213 88.624,453.4    74.979,471.392 77.905,464.146 89.665,444.769 67.633,472.902 87.761,443.064 78.183,453.423 75.26,454.758 61.462,469.351    68.201,458.524 80.26,442.067 70.432,451.168 64.982,454.932 72.402,444.656 76.985,437.815 63.109,450.028 63.669,447.282    73.037,436.166 55.114,451.089 55.276,448.718 47.685,453.273 54.172,445.379 56.838,441.049 55.448,440.194 63.739,431.658    40.483,447.816 51.336,437.473 52.569,434.634 63.357,425.116 39.83,439.667 57.448,425.851 42.588,433.8 58.822,421.659    44.168,428.999 31.497,434.65 44.258,425.291 58.993,415.329 55.476,415.731 60.728,411.47 34.895,423.015 40.294,418.558    31.19,421.096 42.708,414.036 36.589,415.055 52.754,406.561 46.926,407.461 19.969,416.373 53.267,402.086 25.906,410.425    29.963,407.248 18.632,409.199 49.67,397.717 46.425,397.274 17.86,403.848 43.833,395.112 29.481,397.256 36.5,393.954    36.855,392.339 47.96,388.518 14.985,393.515 37.519,387.683 44.182,385.098 31.962,385.55 43.913,382.369 39.407,381.538    24.971,381.668 32.758,379.294 15.083,379.2 11.674,377.673 31.31,374.813 30.805,373.297 28.615,371.817 24.413,370.304    35.168,368.68 42.13,367.153 19.257,365.627 30.677,364.102 12.834,362.575 42.128,361.049 40.663,359.522 22.177,357.996    23.559,356.47 23.46,354.942 36.262,353.416 14.649,351.889 18.971,350.36 31.36,348.833 22.219,347.304 14.45,345.776    22.119,344.248 40.337,342.721 32.342,341.193 21.263,339.666 15.369,338.14 36.234,336.612 33.585,335.086 20.412,333.559    15.704,332.032 47.254,330.506 40.847,328.979 18.544,327.452 36.204,325.925 47.718,324.398 39.822,322.872 36.418,321.345    12.447,319.816 38.327,318.288 26.64,316.761 32.545,315.234 32.59,313.708 26.633,312.183 13.06,310.657 31.455,309.133    29.854,307.609 11.518,306.085 25.953,304.562 30.306,303.038 36.193,301.516 15.384,299.992 29.837,298.47 37.612,296.946    35.889,295.423 27.85,293.899 41.216,292.376 17.829,290.853 37.807,289.327 24.667,287.803 43.445,286.277 15.546,284.751    45.079,283.224 45.625,281.695 50.915,280.167 33.044,278.637 20.958,277.108 15.193,275.58 11.268,274.053 14.952,272.525    49.6,271 49.645,269.474 14.424,267.948 33.778,266.423 30.499,264.897 14.41,263.372 17.137,261.847 30.033,260.32    25.372,258.794 35.427,257.268 31.863,255.74 40.727,254.211 36.194,252.682 48.214,251.152 28.665,249.622 29.966,248.093    13.157,246.565 48.431,245.037 18.923,243.51 15.416,241.983 31.319,240.456 47.674,238.929 49.589,237.401 44.372,235.874    34.649,234.345 38.263,232.815 16.727,231.285 33.18,229.754 46.261,228.225 50.748,226.696 27.122,225.167 23.786,223.639    43.566,222.111 47.912,220.582 16.662,219.053 31.124,217.523 37.096,215.991 19.001,214.461 34.291,212.931 35.128,211.402    31.747,209.873 17.952,208.344 20.231,206.813 11.093,205.283 49.197,203.751 29.331,202.221 47.283,200.691 32.162,199.161    50.246,197.631 45.778,196.1 13.891,194.568 17.645,193.043 15.821,191.516 40.674,189.986 37.787,188.454 40.978,186.924    25.422,185.396 19.803,183.869 18.899,182.341 11.014,180.813 31.709,179.282 35.736,177.749 20.339,176.219 40.448,174.689    50.041,173.159 28.702,171.626 16.157,170.094 35.082,168.563 21.668,167.031 17.703,165.497 14.665,163.965 17.706,162.431    29.358,160.898 25.607,159.363 26.049,157.833 40.346,156.303 44.178,154.768 21.967,153.235 43.027,151.7 38.608,150.164    42.219,148.629 27.344,147.091 23.299,145.551 41.892,144.011 29.986,142.462 22.883,140.723 42.646,139.87 13.397,136.914    17.442,135.409 48.953,136.241 47.234,134.773 13.125,129.743 36.456,130.792 16.445,126.583 14.085,124.459 37.639,126.512    45.023,126.347 13.729,118.922 26.926,119.81 32.576,119.396 15.748,113.837 34.901,116.781 40.693,116.736 26.943,111.381    41.645,113.993 33.773,110.036 38.434,109.903 46.587,111.083 54.296,112.342 21.218,98.687 30.125,100.225 45.089,104.466    50.655,105.232 34.169,96.562 42.798,98.673 49.046,99.936 24.388,86.393 30.458,87.417 40.203,90.538 54.569,96.454 60.21,98.012    59.596,96.16 53.056,90.765 35.208,78.195 34.787,75.891 55.033,86.929 52.71,83.649 38.438,72.028 56.504,82.691 58.867,82.615    62.083,83.246 40.506,64.856 43.221,64.747 67.355,82.173 55.982,70.894 71.018,81.792 61.118,71.284 52.912,61.786 48.664,55.528    54.386,58.575 62.483,64.203 66.221,65.786 71.101,68.706 80.078,76.231 63.688,56.298 56.174,45.36 61.578,48.881 60.819,45.304    75.4,60.443 85.52,70.861 82.614,64.993 84.284,64.952 80.437,57.366 84.065,59.964 85.498,59.569 73.665,39.288 79.784,45.587    86.96,54.009 92.295,59.979 80.192,36.831 93.453,56.601 82.795,34.525 83.932,33.017 94.842,50.318 86.945,31.353 101.703,57.868    102.95,57.456 103.488,55.476 100.078,44.306 96.07,30.872 108.293,56.788 105.042,44.803 97.703,20.818 107.953,44.325    109.326,43.879 103.327,20.719 112.6,44.696 110.777,33.472 110.423,26.359 113.449,31.261 117.78,42.022 117.815,35.899    119.412,36.092 124.022,50.952 119.363,19.863 124.948,41.334 128.082,51.67 125.196,23.813 127.032,24.991 129.296,29.973    129.113,13.735 133.245,38.366 134.2,32.191 136.316,40.802 138.222,49.818 139.475,48.986 140.071,22.434 141.852,31.452    143.392,38.241 144.919,44.121 146.446,16.71 147.974,29.724 149.5,50.549 151.028,46.832 152.556,40.296 154.083,24.293    155.611,50.869 157.139,16.894 158.667,17.271 160.195,16.75 161.724,35.802 163.253,28.427 164.783,13.264 166.313,38.465    167.841,24.784 169.37,37.123 170.898,25.706 172.427,36.603 173.955,49.882 175.482,50.939 177.011,20.311 178.538,32.893    180.066,33.644 181.594,17.878 183.122,12.487 184.65,18.871 186.179,23.745 187.707,44.639 189.235,12.398 190.764,31.37    192.293,33.173 193.822,19.868 195.351,32.466 196.879,31.982 198.406,34.716 199.933,15.785 201.458,16.032 202.984,34.267    204.509,38.501 206.034,21.899 207.559,45.953 209.083,22.429 210.607,41.321 212.131,24.598 213.656,11.853 215.18,25.249    216.704,16.513 218.229,26.346 219.753,14.815 221.279,48.981 222.804,13.137 224.331,18.229 225.857,48.23 227.385,32.998    228.913,13.19 230.442,19.623 231.972,33.574 233.503,11.909 235.033,15.634 236.562,38.721 238.09,29.857 239.619,47.928    241.146,35.956 242.673,27.652 244.2,15.494 245.726,37.203 247.253,50.025 248.779,45.988 250.306,21.345 251.833,33.905    253.36,51.014 254.888,26.328 256.417,13.68 257.946,35.784 259.477,48.095 261.008,35.777 262.539,25.815 264.069,34.966    265.599,15.698 267.128,26.993 268.656,17.167 270.185,37.735 271.712,22.059 273.24,12.639 274.77,38.493 276.298,17.04    277.828,25.815 279.358,16.9 280.891,22.022 282.422,21.506 283.952,49.401 285.482,17.899 287.012,15.301 288.541,44.66    290.07,17.985 291.601,34.687 293.131,17.424 294.662,38.147 296.194,12.714 297.727,12.621 299.257,36.458 300.787,32.689    302.317,26.99 303.848,20.837 305.379,46.773 306.911,30.517 308.444,14.552 309.976,15.581 311.506,25.062 313.037,33.037    314.568,38.111 316.102,43.157 317.634,23.771 319.16,27.5 320.688,27.263 322.219,16.231 323.753,20.698 325.283,16.375    326.813,34.477 328.341,17.241 329.87,23.525 331.399,33.237 332.932,17.844 334.466,22.673 335.997,48.018 337.527,28.862    339.059,39.41 340.593,41.94 342.126,48.638 343.658,51.333 345.191,27.776 346.727,44.625 348.26,20.344 349.795,43.854    351.329,33.764 352.864,29.829 354.396,30.298 355.927,44.077 357.464,47.871 358.997,51.387 360.533,38.258 362.071,28.632    363.606,28.271 365.146,32.678 366.687,24.378 368.229,26.667 369.544,48.125 371.481,24.859 372.366,43.28 374.664,26.287    374.617,51.099 378.217,22.325 377.941,42.985 382.133,17.176 380.701,43.275 384.129,28.362 385.894,27.357 383.359,52.805    385.031,50.601 387.248,45.93 389.775,40.458 391.458,39.542 394.732,32.01 392.443,47.643 397.33,34.495 395.153,48.049    401.248,32.152 401.581,36.471 397.919,52.744 408.939,24.36 401.771,49.723 402.938,50.506 408.358,40.258 409.08,42.539    416.335,29.064 414.832,36.794 407.937,55.995 417.65,38.314 425.478,25.819 411.294,58.097 428.521,27.743 414.974,56.804    430.507,31.541 426.834,41.5 419.97,56.302 420.158,58.667 426.863,50.553 435.729,39.627 433.583,45.898 422.79,64.477    425.508,62.919 435.463,51.529 434.042,56.039 444.361,45.08 446.02,45.739 428.101,70.472 445.229,52.015 452.406,46.186    455.199,45.686 439.83,65.269 451.105,55.319 442.922,66.249 436.033,75.33 449.997,63.4 447.018,68.438 453.21,64.692    464.752,56.336 467.252,56.488 446.871,76.433 443.854,80.81 450.557,77.082 458.534,72.609 469.587,66.071 454.835,79.308    454.463,81.407 471.098,71.41 466.832,76.433 477.15,71.505 446.852,93.273 454.923,89.706 470.915,81.585 461.812,88.876    464.924,88.803 476.017,84.382 457.345,96.328 455.623,98.775 471.753,92.176 472.354,93.639 484.624,89.629 481.21,93.099    460.566,103.934 488.282,93.809 469.099,103.46 457.443,109.558 492.097,98.076 490.106,100.708 457.919,113.534 478.197,108.293    485.171,107.787 462.299,116.281 479.053,112.972 468.173,117.476 479.451,116.109 464.813,121.164 472.615,120.827    465.218,123.858 475.441,123.257 489.356,122.287 480.613,125.428 466.949,129.056 490.494,127.224 482.542,129.89 497.96,129.784    474.338,133.828 483.729,134.529 478.363,136.475 481.973,137.79 484.258,139.255 474.511,141.101 466.047,142.669    472.959,144.011 464.13,145.537 490.57,147.063 472.369,148.589 465.982,150.115 485.46,151.642 472.778,153.168 489.01,154.694    492.327,156.221 491.442,157.748 489.261,159.275 489.906,160.802 474.107,162.33 475.95,163.858 470.78,165.386 485.797,166.915    472.973,168.442 469.852,169.97 497.935,171.497 461.431,173.024 493.693,174.551 470.77,176.078 491.503,177.604 461.929,179.131    464.091,180.658 472.594,182.185 497.271,183.711 474.521,185.239 472.547,186.766 491.019,188.293 496.53,189.82 491.93,191.348    484.332,192.876 461.333,194.404 493.548,195.932 483.647,197.458 498.016,198.984 464.738,200.51 491.239,202.035    461.354,203.559 483.211,205.083 479.432,206.607 466.286,208.13 484.72,209.653 460.886,211.177 472.69,212.7 474.962,214.223    473.842,215.746 467.515,217.269 470.242,218.792 480.912,220.316 474.601,221.84 484.296,223.364 499.136,224.889    476.132,226.415 483.124,227.941 472.706,229.468 480.38,230.996 486.408,232.525 475.655,234.055 477.635,235.583    487.614,237.112 472.446,238.639 470.069,240.166 499.333,241.692 488.012,243.218 477.976,244.744 465.266,246.269    495.455,247.794 461.733,249.32 476.024,250.845 484.713,252.371 494.426,253.897 496.129,255.424 464.685,256.952 490.374,258.48    461.376,260.009 470.948,261.539 463.555,263.069 473.282,264.599 497.918,266.127 490.838,267.654 482.141,269.182    487.005,270.709 496.992,272.235 481.333,273.763 471.464,275.29 490.237,276.818 474.041,278.347 464.633,279.876    490.125,281.407 484.807,282.938 495.773,284.467 491.374,285.996 496.062,287.524 495.294,289.053 467.735,290.58    464.683,292.109 475.265,293.639 476.571,295.169 461.982,296.7 472.742,298.23 478.703,299.76 495.459,301.289 486.058,302.818    466.112,304.348 478.686,305.878 472.777,307.408 494.57,308.939 496.084,310.47 495.944,312 472.057,313.53 464.58,315.061    470.278,316.592 468.66,318.123 461.11,319.648 496.085,321.176 481.789,322.705 474.696,324.237 492.771,325.767 478.806,327.295    468.056,328.822 498.277,330.35 471.002,331.878 486.583,333.409 495.786,334.941 472.383,336.472 488.665,338.002    480.569,339.531 468.116,341.064 468.087,342.597 463.158,344.128 482.529,345.66 470.313,347.193 482.1,348.726 496.218,350.26    479.445,351.793 470.214,353.327 493.766,354.857 484.089,356.388 460.709,357.923 469.706,359.455 482.764,360.99    484.354,362.526 489.152,364.062 463.458,365.599 479.908,365.395  " style="fill:#235B9E;"/><g><path d="M218.355,396.764h56.209c0,0,0-77.524,0-140.416h41.719l5.123-56.168h-44.673v-22.453    c0-10.952,7.301-13.493,12.424-13.493c5.132,0,31.535,0,31.535,0v-48.124l-43.42-0.183c-48.194,0-59.145,35.891-59.145,58.875    v25.378h-27.876v56.168h28.104C218.355,319.989,218.355,396.764,218.355,396.764z" style="fill:#FFFFFF;"/></g></g><g id="Layer_1"/></svg>